solid 
 facet normal  0.000000e+00 -1.000000e+00  0.000000e+00
   outer loop
     vertex -5.551115e-17  0.000000e+00  0.000000e+00
     vertex -3.377724e-01  0.000000e+00  1.089588e-02
     vertex -3.377724e-01  0.000000e+00  0.000000e+00
   endloop
 endfacet
 facet normal  0.000000e+00 -1.000000e+00  0.000000e+00
   outer loop
     vertex -5.551115e-17  0.000000e+00  0.000000e+00
     vertex -5.551115e-17  0.000000e+00  1.089588e-02
     vertex -3.377724e-01  0.000000e+00  1.089588e-02
   endloop
 endfacet
 facet normal -1.000000e+00  9.621933e-16  0.000000e+00
   outer loop
     vertex -3.377724e-01  0.000000e+00  0.000000e+00
     vertex -3.377724e-01  7.500000e-01  1.089588e-02
     vertex -3.377724e-01  7.500000e-01  4.592425e-17
   endloop
 endfacet
 facet normal -1.000000e+00  9.621933e-16  0.000000e+00
   outer loop
     vertex -3.377724e-01  0.000000e+00  0.000000e+00
     vertex -3.377724e-01  0.000000e+00  1.089588e-02
     vertex -3.377724e-01  7.500000e-01  1.089588e-02
   endloop
 endfacet
 facet normal  1.000000e+00 -9.621933e-16  0.000000e+00
   outer loop
     vertex  6.661338e-16  7.500000e-01  4.592425e-17
     vertex -5.551115e-17  0.000000e+00  1.089588e-02
     vertex -5.551115e-17  0.000000e+00  0.000000e+00
   endloop
 endfacet
 facet normal  1.000000e+00 -9.621933e-16  0.000000e+00
   outer loop
     vertex  6.661338e-16  7.500000e-01  4.592425e-17
     vertex  6.661338e-16  7.500000e-01  1.089588e-02
     vertex -5.551115e-17  0.000000e+00  1.089588e-02
   endloop
 endfacet
 facet normal -0.000000e+00 -1.000000e+00  0.000000e+00
   outer loop
     vertex -5.551115e-17  0.000000e+00  0.000000e+00
     vertex -3.377724e-01  0.000000e+00  0.000000e+00
     vertex -3.377724e-01  0.000000e+00 -1.089588e-02
   endloop
 endfacet
 facet normal  0.000000e+00 -1.000000e+00 -0.000000e+00
   outer loop
     vertex -5.551115e-17  0.000000e+00  0.000000e+00
     vertex -3.377724e-01  0.000000e+00 -1.089588e-02
     vertex -5.551115e-17  0.000000e+00 -1.089588e-02
   endloop
 endfacet
 facet normal  0.000000e+00 -9.552544e-17  1.000000e+00
   outer loop
     vertex -5.551115e-17  0.000000e+00  1.089588e-02
     vertex -1.815981e-02  1.815981e-02  1.089588e-02
     vertex -3.196126e-01  1.815981e-02  1.089588e-02
   endloop
 endfacet
 facet normal  0.000000e+00 -9.552544e-17  1.000000e+00
   outer loop
     vertex -5.551115e-17  0.000000e+00  1.089588e-02
     vertex -3.196126e-01  1.815981e-02  1.089588e-02
     vertex -3.377724e-01  0.000000e+00  1.089588e-02
   endloop
 endfacet
 facet normal -3.538836e-17 -6.013708e-17  1.000000e+00
   outer loop
     vertex -3.377724e-01  7.500000e-01  1.089588e-02
     vertex -3.377724e-01  0.000000e+00  1.089588e-02
     vertex -3.196126e-01  1.815981e-02  1.089588e-02
   endloop
 endfacet
 facet normal  0.000000e+00 -5.925896e-17  1.000000e+00
   outer loop
     vertex -3.196126e-01  7.500000e-01  1.089588e-02
     vertex -3.377724e-01  7.500000e-01  1.089588e-02
     vertex -3.196126e-01  1.815981e-02  1.089588e-02
   endloop
 endfacet
 facet normal  0.000000e+00 -5.925896e-17  1.000000e+00
   outer loop
     vertex  6.661338e-16  7.500000e-01  1.089588e-02
     vertex -1.815981e-02  7.500000e-01  1.089588e-02
     vertex -1.815981e-02  1.815981e-02  1.089588e-02
   endloop
 endfacet
 facet normal  3.538836e-17 -6.013708e-17  1.000000e+00
   outer loop
     vertex  6.661338e-16  7.500000e-01  1.089588e-02
     vertex -1.815981e-02  1.815981e-02  1.089588e-02
     vertex -5.551115e-17  0.000000e+00  1.089588e-02
   endloop
 endfacet
 facet normal  0.000000e+00  1.000000e+00  0.000000e+00
   outer loop
     vertex -3.377724e-01  7.500000e-01  4.592425e-17
     vertex -3.196126e-01  7.500000e-01  1.089588e-02
     vertex -3.196126e-01  7.500000e-01  4.592425e-17
   endloop
 endfacet
 facet normal  0.000000e+00  1.000000e+00  0.000000e+00
   outer loop
     vertex -3.377724e-01  7.500000e-01  4.592425e-17
     vertex -3.377724e-01  7.500000e-01  1.089588e-02
     vertex -3.196126e-01  7.500000e-01  1.089588e-02
   endloop
 endfacet
 facet normal -1.000000e+00  9.621933e-16  0.000000e+00
   outer loop
     vertex -3.377724e-01  0.000000e+00  0.000000e+00
     vertex -3.377724e-01  7.500000e-01  4.592425e-17
     vertex -3.377724e-01  7.500000e-01 -1.089588e-02
   endloop
 endfacet
 facet normal -1.000000e+00  9.621933e-16  0.000000e+00
   outer loop
     vertex -3.377724e-01  0.000000e+00  0.000000e+00
     vertex -3.377724e-01  7.500000e-01 -1.089588e-02
     vertex -3.377724e-01  0.000000e+00 -1.089588e-02
   endloop
 endfacet
 facet normal  0.000000e+00  1.000000e+00  0.000000e+00
   outer loop
     vertex -1.815981e-02  7.500000e-01  4.592425e-17
     vertex  6.661338e-16  7.500000e-01  1.089588e-02
     vertex  6.661338e-16  7.500000e-01  4.592425e-17
   endloop
 endfacet
 facet normal  0.000000e+00  1.000000e+00  0.000000e+00
   outer loop
     vertex -1.815981e-02  7.500000e-01  4.592425e-17
     vertex -1.815981e-02  7.500000e-01  1.089588e-02
     vertex  6.661338e-16  7.500000e-01  1.089588e-02
   endloop
 endfacet
 facet normal  1.000000e+00 -9.621933e-16  0.000000e+00
   outer loop
     vertex  6.661338e-16  7.500000e-01  4.592425e-17
     vertex -5.551115e-17  0.000000e+00  0.000000e+00
     vertex -5.551115e-17  0.000000e+00 -1.089588e-02
   endloop
 endfacet
 facet normal  1.000000e+00 -9.621933e-16  0.000000e+00
   outer loop
     vertex  6.661338e-16  7.500000e-01  4.592425e-17
     vertex -5.551115e-17  0.000000e+00 -1.089588e-02
     vertex  6.661338e-16  7.500000e-01 -1.089588e-02
   endloop
 endfacet
 facet normal  0.000000e+00  9.552544e-17 -1.000000e+00
   outer loop
     vertex -5.551115e-17  0.000000e+00 -1.089588e-02
     vertex -3.196126e-01  1.815981e-02 -1.089588e-02
     vertex -1.815981e-02  1.815981e-02 -1.089588e-02
   endloop
 endfacet
 facet normal  0.000000e+00  9.552544e-17 -1.000000e+00
   outer loop
     vertex -5.551115e-17  0.000000e+00 -1.089588e-02
     vertex -3.377724e-01  0.000000e+00 -1.089588e-02
     vertex -3.196126e-01  1.815981e-02 -1.089588e-02
   endloop
 endfacet
 facet normal  3.538836e-17  6.013708e-17 -1.000000e+00
   outer loop
     vertex -3.377724e-01  7.500000e-01 -1.089588e-02
     vertex -3.196126e-01  1.815981e-02 -1.089588e-02
     vertex -3.377724e-01  0.000000e+00 -1.089588e-02
   endloop
 endfacet
 facet normal  0.000000e+00  5.925896e-17 -1.000000e+00
   outer loop
     vertex -3.196126e-01  7.500000e-01 -1.089588e-02
     vertex -3.196126e-01  1.815981e-02 -1.089588e-02
     vertex -3.377724e-01  7.500000e-01 -1.089588e-02
   endloop
 endfacet
 facet normal  0.000000e+00  5.925896e-17 -1.000000e+00
   outer loop
     vertex  6.661338e-16  7.500000e-01 -1.089588e-02
     vertex -1.815981e-02  1.815981e-02 -1.089588e-02
     vertex -1.815981e-02  7.500000e-01 -1.089588e-02
   endloop
 endfacet
 facet normal -3.538836e-17  6.013708e-17 -1.000000e+00
   outer loop
     vertex  6.661338e-16  7.500000e-01 -1.089588e-02
     vertex -5.551115e-17  0.000000e+00 -1.089588e-02
     vertex -1.815981e-02  1.815981e-02 -1.089588e-02
   endloop
 endfacet
 facet normal -1.000000e+00  9.860691e-16  0.000000e+00
   outer loop
     vertex -1.815981e-02  1.815981e-02  1.111967e-18
     vertex -1.815981e-02  7.500000e-01  1.089588e-02
     vertex -1.815981e-02  7.500000e-01  4.592425e-17
   endloop
 endfacet
 facet normal -1.000000e+00  9.860691e-16  0.000000e+00
   outer loop
     vertex -1.815981e-02  1.815981e-02  1.111967e-18
     vertex -1.815981e-02  1.815981e-02  1.089588e-02
     vertex -1.815981e-02  7.500000e-01  1.089588e-02
   endloop
 endfacet
 facet normal  0.000000e+00  1.000000e+00  0.000000e+00
   outer loop
     vertex -3.196126e-01  1.815981e-02  1.111967e-18
     vertex -1.815981e-02  1.815981e-02  1.089588e-02
     vertex -1.815981e-02  1.815981e-02  1.111967e-18
   endloop
 endfacet
 facet normal  0.000000e+00  1.000000e+00  0.000000e+00
   outer loop
     vertex -3.196126e-01  1.815981e-02  1.111967e-18
     vertex -3.196126e-01  1.815981e-02  1.089588e-02
     vertex -1.815981e-02  1.815981e-02  1.089588e-02
   endloop
 endfacet
 facet normal  1.000000e+00 -9.102176e-16  0.000000e+00
   outer loop
     vertex -3.196126e-01  7.500000e-01  4.592425e-17
     vertex -3.196126e-01  1.815981e-02  1.089588e-02
     vertex -3.196126e-01  1.815981e-02  1.111967e-18
   endloop
 endfacet
 facet normal  1.000000e+00 -9.102176e-16  0.000000e+00
   outer loop
     vertex -3.196126e-01  7.500000e-01  4.592425e-17
     vertex -3.196126e-01  7.500000e-01  1.089588e-02
     vertex -3.196126e-01  1.815981e-02  1.089588e-02
   endloop
 endfacet
 facet normal -0.000000e+00  1.000000e+00  0.000000e+00
   outer loop
     vertex -3.377724e-01  7.500000e-01  4.592425e-17
     vertex -3.196126e-01  7.500000e-01  4.592425e-17
     vertex -3.196126e-01  7.500000e-01 -1.089588e-02
   endloop
 endfacet
 facet normal  0.000000e+00  1.000000e+00  0.000000e+00
   outer loop
     vertex -3.377724e-01  7.500000e-01  4.592425e-17
     vertex -3.196126e-01  7.500000e-01 -1.089588e-02
     vertex -3.377724e-01  7.500000e-01 -1.089588e-02
   endloop
 endfacet
 facet normal -0.000000e+00  1.000000e+00  0.000000e+00
   outer loop
     vertex -1.815981e-02  7.500000e-01  4.592425e-17
     vertex  6.661338e-16  7.500000e-01  4.592425e-17
     vertex  6.661338e-16  7.500000e-01 -1.089588e-02
   endloop
 endfacet
 facet normal  0.000000e+00  1.000000e+00  0.000000e+00
   outer loop
     vertex -1.815981e-02  7.500000e-01  4.592425e-17
     vertex  6.661338e-16  7.500000e-01 -1.089588e-02
     vertex -1.815981e-02  7.500000e-01 -1.089588e-02
   endloop
 endfacet
 facet normal -1.000000e+00  9.860691e-16  0.000000e+00
   outer loop
     vertex -1.815981e-02  1.815981e-02  1.111967e-18
     vertex -1.815981e-02  7.500000e-01  4.592425e-17
     vertex -1.815981e-02  7.500000e-01 -1.089588e-02
   endloop
 endfacet
 facet normal -1.000000e+00  9.860691e-16  0.000000e+00
   outer loop
     vertex -1.815981e-02  1.815981e-02  1.111967e-18
     vertex -1.815981e-02  7.500000e-01 -1.089588e-02
     vertex -1.815981e-02  1.815981e-02 -1.089588e-02
   endloop
 endfacet
 facet normal -0.000000e+00  1.000000e+00  0.000000e+00
   outer loop
     vertex -3.196126e-01  1.815981e-02  1.111967e-18
     vertex -1.815981e-02  1.815981e-02  1.111967e-18
     vertex -1.815981e-02  1.815981e-02 -1.089588e-02
   endloop
 endfacet
 facet normal  0.000000e+00  1.000000e+00  0.000000e+00
   outer loop
     vertex -3.196126e-01  1.815981e-02  1.111967e-18
     vertex -1.815981e-02  1.815981e-02 -1.089588e-02
     vertex -3.196126e-01  1.815981e-02 -1.089588e-02
   endloop
 endfacet
 facet normal  1.000000e+00 -9.102176e-16  0.000000e+00
   outer loop
     vertex -3.196126e-01  7.500000e-01  4.592425e-17
     vertex -3.196126e-01  1.815981e-02  1.111967e-18
     vertex -3.196126e-01  1.815981e-02 -1.089588e-02
   endloop
 endfacet
 facet normal  1.000000e+00 -9.102176e-16  0.000000e+00
   outer loop
     vertex -3.196126e-01  7.500000e-01  4.592425e-17
     vertex -3.196126e-01  1.815981e-02 -1.089588e-02
     vertex -3.196126e-01  7.500000e-01 -1.089588e-02
   endloop
 endfacet
endsolid
