solid 
 facet normal  0.000000e+00 -1.000000e+00  0.000000e+00
   outer loop
     vertex  6.678832e-01  0.000000e+00  0.000000e+00
     vertex  0.000000e+00  0.000000e+00  3.284672e-01
     vertex  0.000000e+00  0.000000e+00  0.000000e+00
   endloop
 endfacet
 facet normal  0.000000e+00 -1.000000e+00  0.000000e+00
   outer loop
     vertex  6.678832e-01  0.000000e+00  0.000000e+00
     vertex  6.678832e-01  0.000000e+00  3.284672e-01
     vertex  0.000000e+00  0.000000e+00  3.284672e-01
   endloop
 endfacet
 facet normal  1.000000e+00 -8.881784e-16  0.000000e+00
   outer loop
     vertex  6.678832e-01  7.500000e-01  4.592425e-17
     vertex  6.678832e-01  0.000000e+00  3.284672e-01
     vertex  6.678832e-01  0.000000e+00  0.000000e+00
   endloop
 endfacet
 facet normal  1.000000e+00 -8.881784e-16  0.000000e+00
   outer loop
     vertex  6.678832e-01  7.500000e-01  4.592425e-17
     vertex  6.678832e-01  7.500000e-01  3.284672e-01
     vertex  6.678832e-01  0.000000e+00  3.284672e-01
   endloop
 endfacet
 facet normal  0.000000e+00  1.000000e+00  0.000000e+00
   outer loop
     vertex  7.120581e-16  7.500000e-01  4.592425e-17
     vertex  6.678832e-01  7.500000e-01  3.284672e-01
     vertex  6.678832e-01  7.500000e-01  4.592425e-17
   endloop
 endfacet
 facet normal  0.000000e+00  1.000000e+00  0.000000e+00
   outer loop
     vertex  7.120581e-16  7.500000e-01  4.592425e-17
     vertex  7.120581e-16  7.500000e-01  3.284672e-01
     vertex  6.678832e-01  7.500000e-01  3.284672e-01
   endloop
 endfacet
 facet normal -1.000000e+00  9.494108e-16  0.000000e+00
   outer loop
     vertex  0.000000e+00  0.000000e+00  0.000000e+00
     vertex  7.120581e-16  7.500000e-01  3.284672e-01
     vertex  7.120581e-16  7.500000e-01  4.592425e-17
   endloop
 endfacet
 facet normal -1.000000e+00  9.494108e-16  0.000000e+00
   outer loop
     vertex  0.000000e+00  0.000000e+00  0.000000e+00
     vertex  0.000000e+00  0.000000e+00  3.284672e-01
     vertex  7.120581e-16  7.500000e-01  3.284672e-01
   endloop
 endfacet
 facet normal  0.000000e+00  6.123234e-17 -1.000000e+00
   outer loop
     vertex  7.120581e-16  7.500000e-01  4.592425e-17
     vertex  6.678832e-01  0.000000e+00  0.000000e+00
     vertex  0.000000e+00  0.000000e+00  0.000000e+00
   endloop
 endfacet
 facet normal  0.000000e+00  6.123234e-17 -1.000000e+00
   outer loop
     vertex  6.678832e-01  7.500000e-01  4.592425e-17
     vertex  6.678832e-01  0.000000e+00  0.000000e+00
     vertex  7.120581e-16  7.500000e-01  4.592425e-17
   endloop
 endfacet
 facet normal  0.000000e+00 -7.401487e-17  1.000000e+00
   outer loop
     vertex  7.120581e-16  7.500000e-01  3.284672e-01
     vertex  0.000000e+00  0.000000e+00  3.284672e-01
     vertex  6.678832e-01  0.000000e+00  3.284672e-01
   endloop
 endfacet
 facet normal  0.000000e+00 -7.401487e-17  1.000000e+00
   outer loop
     vertex  6.678832e-01  7.500000e-01  3.284672e-01
     vertex  7.120581e-16  7.500000e-01  3.284672e-01
     vertex  6.678832e-01  0.000000e+00  3.284672e-01
   endloop
 endfacet
endsolid
