solid 
 facet normal  0.000000e+00 -1.000000e+00  0.000000e+00
   outer loop
     vertex  7.500000e-01 -7.500000e-01 -4.592425e-17
     vertex -7.500000e-01 -7.500000e-01  2.550000e-02
     vertex -7.500000e-01 -7.500000e-01 -4.592425e-17
   endloop
 endfacet
 facet normal  0.000000e+00 -1.000000e+00  0.000000e+00
   outer loop
     vertex  7.500000e-01 -7.500000e-01 -4.592425e-17
     vertex  7.500000e-01 -7.500000e-01  2.550000e-02
     vertex -7.500000e-01 -7.500000e-01  2.550000e-02
   endloop
 endfacet
 facet normal  1.000000e+00 -8.881784e-16  0.000000e+00
   outer loop
     vertex  7.500000e-01  7.500000e-01  4.592425e-17
     vertex  7.500000e-01 -7.500000e-01  2.550000e-02
     vertex  7.500000e-01 -7.500000e-01 -4.592425e-17
   endloop
 endfacet
 facet normal  1.000000e+00 -8.881784e-16  0.000000e+00
   outer loop
     vertex  7.500000e-01  7.500000e-01  4.592425e-17
     vertex  7.500000e-01  7.500000e-01  2.550000e-02
     vertex  7.500000e-01 -7.500000e-01  2.550000e-02
   endloop
 endfacet
 facet normal  0.000000e+00  1.000000e+00  0.000000e+00
   outer loop
     vertex -7.500000e-01  7.500000e-01  4.592425e-17
     vertex  7.500000e-01  7.500000e-01  2.550000e-02
     vertex  7.500000e-01  7.500000e-01  4.592425e-17
   endloop
 endfacet
 facet normal  0.000000e+00  1.000000e+00  0.000000e+00
   outer loop
     vertex -7.500000e-01  7.500000e-01  4.592425e-17
     vertex -7.500000e-01  7.500000e-01  2.550000e-02
     vertex  7.500000e-01  7.500000e-01  2.550000e-02
   endloop
 endfacet
 facet normal -1.000000e+00  9.621933e-16  0.000000e+00
   outer loop
     vertex -7.500000e-01 -7.500000e-01 -4.592425e-17
     vertex -7.500000e-01  7.500000e-01  2.550000e-02
     vertex -7.500000e-01  7.500000e-01  4.592425e-17
   endloop
 endfacet
 facet normal -1.000000e+00  9.621933e-16  0.000000e+00
   outer loop
     vertex -7.500000e-01 -7.500000e-01 -4.592425e-17
     vertex -7.500000e-01 -7.500000e-01  2.550000e-02
     vertex -7.500000e-01  7.500000e-01  2.550000e-02
   endloop
 endfacet
 facet normal  0.000000e+00  1.000000e+00  0.000000e+00
   outer loop
     vertex  6.000000e-02 -1.200000e-01 -7.347881e-18
     vertex -6.000000e-02 -1.200000e-01 -7.347881e-18
     vertex -6.000000e-02 -1.200000e-01  2.550000e-02
   endloop
 endfacet
 facet normal  0.000000e+00  1.000000e+00 -0.000000e+00
   outer loop
     vertex  6.000000e-02 -1.200000e-01 -7.347881e-18
     vertex -6.000000e-02 -1.200000e-01  2.550000e-02
     vertex  6.000000e-02 -1.200000e-01  2.550000e-02
   endloop
 endfacet
 facet normal -1.000000e+00  9.251859e-16  0.000000e+00
   outer loop
     vertex  6.000000e-02  1.200000e-01  7.347881e-18
     vertex  6.000000e-02 -1.200000e-01 -7.347881e-18
     vertex  6.000000e-02 -1.200000e-01  2.550000e-02
   endloop
 endfacet
 facet normal -1.000000e+00  9.251859e-16  0.000000e+00
   outer loop
     vertex  6.000000e-02  1.200000e-01  7.347881e-18
     vertex  6.000000e-02 -1.200000e-01  2.550000e-02
     vertex  6.000000e-02  1.200000e-01  2.550000e-02
   endloop
 endfacet
 facet normal  0.000000e+00 -1.000000e+00  0.000000e+00
   outer loop
     vertex -6.000000e-02  1.200000e-01  7.347881e-18
     vertex  6.000000e-02  1.200000e-01  7.347881e-18
     vertex  6.000000e-02  1.200000e-01  2.550000e-02
   endloop
 endfacet
 facet normal  0.000000e+00 -1.000000e+00  0.000000e+00
   outer loop
     vertex -6.000000e-02  1.200000e-01  7.347881e-18
     vertex  6.000000e-02  1.200000e-01  2.550000e-02
     vertex -6.000000e-02  1.200000e-01  2.550000e-02
   endloop
 endfacet
 facet normal  1.000000e+00 -9.251859e-16  0.000000e+00
   outer loop
     vertex -6.000000e-02 -1.200000e-01 -7.347881e-18
     vertex -6.000000e-02  1.200000e-01  7.347881e-18
     vertex -6.000000e-02  1.200000e-01  2.550000e-02
   endloop
 endfacet
 facet normal  1.000000e+00 -9.251859e-16  0.000000e+00
   outer loop
     vertex -6.000000e-02 -1.200000e-01 -7.347881e-18
     vertex -6.000000e-02  1.200000e-01  2.550000e-02
     vertex -6.000000e-02 -1.200000e-01  2.550000e-02
   endloop
 endfacet
 facet normal  0.000000e+00  6.123234e-17 -1.000000e+00
   outer loop
     vertex  6.000000e-02 -1.200000e-01 -7.347881e-18
     vertex -7.500000e-01 -7.500000e-01 -4.592425e-17
     vertex -6.000000e-02 -1.200000e-01 -7.347881e-18
   endloop
 endfacet
 facet normal  0.000000e+00  6.123234e-17 -1.000000e+00
   outer loop
     vertex  7.500000e-01 -7.500000e-01 -4.592425e-17
     vertex -7.500000e-01 -7.500000e-01 -4.592425e-17
     vertex  6.000000e-02 -1.200000e-01 -7.347881e-18
   endloop
 endfacet
 facet normal  5.954566e-33  6.123234e-17 -1.000000e+00
   outer loop
     vertex -6.000000e-02  1.200000e-01  7.347881e-18
     vertex -7.500000e-01 -7.500000e-01 -4.592425e-17
     vertex -7.500000e-01  7.500000e-01  4.592425e-17
   endloop
 endfacet
 facet normal  0.000000e+00  6.123234e-17 -1.000000e+00
   outer loop
     vertex -6.000000e-02  1.200000e-01  7.347881e-18
     vertex -6.000000e-02 -1.200000e-01 -7.347881e-18
     vertex -7.500000e-01 -7.500000e-01 -4.592425e-17
   endloop
 endfacet
 facet normal  0.000000e+00  6.123234e-17 -1.000000e+00
   outer loop
     vertex  6.000000e-02  1.200000e-01  7.347881e-18
     vertex -6.000000e-02  1.200000e-01  7.347881e-18
     vertex -7.500000e-01  7.500000e-01  4.592425e-17
   endloop
 endfacet
 facet normal  0.000000e+00  6.123234e-17 -1.000000e+00
   outer loop
     vertex  6.000000e-02  1.200000e-01  7.347881e-18
     vertex  7.500000e-01 -7.500000e-01 -4.592425e-17
     vertex  6.000000e-02 -1.200000e-01 -7.347881e-18
   endloop
 endfacet
 facet normal  0.000000e+00  6.123234e-17 -1.000000e+00
   outer loop
     vertex  7.500000e-01  7.500000e-01  4.592425e-17
     vertex  7.500000e-01 -7.500000e-01 -4.592425e-17
     vertex  6.000000e-02  1.200000e-01  7.347881e-18
   endloop
 endfacet
 facet normal  0.000000e+00  6.123234e-17 -1.000000e+00
   outer loop
     vertex  7.500000e-01  7.500000e-01  4.592425e-17
     vertex  6.000000e-02  1.200000e-01  7.347881e-18
     vertex -7.500000e-01  7.500000e-01  4.592425e-17
   endloop
 endfacet
 facet normal  0.000000e+00 -6.057765e-17  1.000000e+00
   outer loop
     vertex  6.000000e-02 -1.200000e-01  2.550000e-02
     vertex -6.000000e-02 -1.200000e-01  2.550000e-02
     vertex -7.500000e-01 -7.500000e-01  2.550000e-02
   endloop
 endfacet
 facet normal  0.000000e+00 -6.057765e-17  1.000000e+00
   outer loop
     vertex  7.500000e-01 -7.500000e-01  2.550000e-02
     vertex  6.000000e-02 -1.200000e-01  2.550000e-02
     vertex -7.500000e-01 -7.500000e-01  2.550000e-02
   endloop
 endfacet
 facet normal  4.022547e-19 -6.013708e-17  1.000000e+00
   outer loop
     vertex -6.000000e-02  1.200000e-01  2.550000e-02
     vertex -7.500000e-01  7.500000e-01  2.550000e-02
     vertex -7.500000e-01 -7.500000e-01  2.550000e-02
   endloop
 endfacet
 facet normal -2.514092e-18 -5.782412e-17  1.000000e+00
   outer loop
     vertex -6.000000e-02  1.200000e-01  2.550000e-02
     vertex -7.500000e-01 -7.500000e-01  2.550000e-02
     vertex -6.000000e-02 -1.200000e-01  2.550000e-02
   endloop
 endfacet
 facet normal  0.000000e+00 -6.057765e-17  1.000000e+00
   outer loop
     vertex  6.000000e-02  1.200000e-01  2.550000e-02
     vertex -7.500000e-01  7.500000e-01  2.550000e-02
     vertex -6.000000e-02  1.200000e-01  2.550000e-02
   endloop
 endfacet
 facet normal  2.514092e-18 -5.782412e-17  1.000000e+00
   outer loop
     vertex  6.000000e-02  1.200000e-01  2.550000e-02
     vertex  6.000000e-02 -1.200000e-01  2.550000e-02
     vertex  7.500000e-01 -7.500000e-01  2.550000e-02
   endloop
 endfacet
 facet normal -4.022547e-19 -6.013708e-17  1.000000e+00
   outer loop
     vertex  7.500000e-01  7.500000e-01  2.550000e-02
     vertex  6.000000e-02  1.200000e-01  2.550000e-02
     vertex  7.500000e-01 -7.500000e-01  2.550000e-02
   endloop
 endfacet
 facet normal  0.000000e+00 -6.057765e-17  1.000000e+00
   outer loop
     vertex  7.500000e-01  7.500000e-01  2.550000e-02
     vertex -7.500000e-01  7.500000e-01  2.550000e-02
     vertex  6.000000e-02  1.200000e-01  2.550000e-02
   endloop
 endfacet
endsolid
