solid 
 facet normal  0.000000e+00 -1.000000e+00  0.000000e+00
   outer loop
     vertex  7.500000e-01 -6.428571e-02 -3.936365e-18
     vertex -6.103355e-17 -6.428571e-02  3.928571e-02
     vertex -6.103355e-17 -6.428571e-02 -3.936365e-18
   endloop
 endfacet
 facet normal  0.000000e+00 -1.000000e+00  0.000000e+00
   outer loop
     vertex  7.500000e-01 -6.428571e-02 -3.936365e-18
     vertex  7.500000e-01 -6.428571e-02  3.928571e-02
     vertex -6.103355e-17 -6.428571e-02  3.928571e-02
   endloop
 endfacet
 facet normal  1.000000e+00 -1.727014e-15  0.000000e+00
   outer loop
     vertex  7.500000e-01 -2.775558e-17 -2.311116e-33
     vertex  7.500000e-01 -6.428571e-02  3.928571e-02
     vertex  7.500000e-01 -6.428571e-02 -3.936365e-18
   endloop
 endfacet
 facet normal  1.000000e+00 -1.727014e-15  0.000000e+00
   outer loop
     vertex  7.500000e-01 -2.775558e-17 -2.311116e-33
     vertex  7.500000e-01 -2.775558e-17  3.928571e-02
     vertex  7.500000e-01 -6.428571e-02  3.928571e-02
   endloop
 endfacet
 facet normal  0.000000e+00  1.000000e+00  0.000000e+00
   outer loop
     vertex -2.465190e-32 -2.775558e-17 -2.311116e-33
     vertex  7.500000e-01 -2.775558e-17  3.928571e-02
     vertex  7.500000e-01 -2.775558e-17 -2.311116e-33
   endloop
 endfacet
 facet normal  0.000000e+00  1.000000e+00  0.000000e+00
   outer loop
     vertex -2.465190e-32 -2.775558e-17 -2.311116e-33
     vertex -2.465190e-32 -2.775558e-17  3.928571e-02
     vertex  7.500000e-01 -2.775558e-17  3.928571e-02
   endloop
 endfacet
 facet normal -1.000000e+00  9.494108e-16  0.000000e+00
   outer loop
     vertex -6.103355e-17 -6.428571e-02 -3.936365e-18
     vertex -2.465190e-32 -2.775558e-17  3.928571e-02
     vertex -2.465190e-32 -2.775558e-17 -2.311116e-33
   endloop
 endfacet
 facet normal -1.000000e+00  9.494108e-16  0.000000e+00
   outer loop
     vertex -6.103355e-17 -6.428571e-02 -3.936365e-18
     vertex -6.103355e-17 -6.428571e-02  3.928571e-02
     vertex -2.465190e-32 -2.775558e-17  3.928571e-02
   endloop
 endfacet
 facet normal  0.000000e+00  6.123234e-17 -1.000000e+00
   outer loop
     vertex  7.500000e-01 -2.775558e-17 -2.311116e-33
     vertex  7.500000e-01 -6.428571e-02 -3.936365e-18
     vertex -6.103355e-17 -6.428571e-02 -3.936365e-18
   endloop
 endfacet
 facet normal  0.000000e+00  6.123234e-17 -1.000000e+00
   outer loop
     vertex  7.500000e-01 -2.775558e-17 -2.311116e-33
     vertex -6.103355e-17 -6.428571e-02 -3.936365e-18
     vertex -2.465190e-32 -2.775558e-17 -2.311116e-33
   endloop
 endfacet
 facet normal  0.000000e+00 -1.079383e-16  1.000000e+00
   outer loop
     vertex  7.500000e-01 -2.775558e-17  3.928571e-02
     vertex -6.103355e-17 -6.428571e-02  3.928571e-02
     vertex  7.500000e-01 -6.428571e-02  3.928571e-02
   endloop
 endfacet
 facet normal  0.000000e+00 -1.079383e-16  1.000000e+00
   outer loop
     vertex  7.500000e-01 -2.775558e-17  3.928571e-02
     vertex -2.465190e-32 -2.775558e-17  3.928571e-02
     vertex -6.103355e-17 -6.428571e-02  3.928571e-02
   endloop
 endfacet
endsolid
