solid 
 facet normal  0.000000e+00  0.000000e+00 -1.000000e+00
   outer loop
     vertex  1.110223e-16  9.860761e-32 -7.500000e-01
     vertex -7.500000e-01 -2.500000e-01 -7.500000e-01
     vertex -7.500000e-01 -7.120581e-16 -7.500000e-01
   endloop
 endfacet
 facet normal  0.000000e+00 -0.000000e+00 -1.000000e+00
   outer loop
     vertex  1.110223e-16  9.860761e-32 -7.500000e-01
     vertex  3.483750e-16 -2.500000e-01 -7.500000e-01
     vertex -7.500000e-01 -2.500000e-01 -7.500000e-01
   endloop
 endfacet
 facet normal -1.000000e+00 -8.881784e-16  0.000000e+00
   outer loop
     vertex -7.500000e-01 -7.120581e-16 -7.500000e-01
     vertex -7.500000e-01 -2.500000e-01  1.263304e-16
     vertex -7.500000e-01 -7.120581e-16  1.110223e-16
   endloop
 endfacet
 facet normal -1.000000e+00 -8.881784e-16  0.000000e+00
   outer loop
     vertex -7.500000e-01 -7.120581e-16 -7.500000e-01
     vertex -7.500000e-01 -2.500000e-01 -7.500000e-01
     vertex -7.500000e-01 -2.500000e-01  1.263304e-16
   endloop
 endfacet
 facet normal  1.000000e+00  9.494108e-16  2.220446e-16
   outer loop
     vertex  0.000000e+00  0.000000e+00 -2.500000e-01
     vertex  3.483750e-16 -2.500000e-01 -7.500000e-01
     vertex  1.110223e-16  9.860761e-32 -7.500000e-01
   endloop
 endfacet
 facet normal  1.000000e+00  9.494108e-16  2.220446e-16
   outer loop
     vertex  0.000000e+00  0.000000e+00 -2.500000e-01
     vertex  2.373527e-16 -2.500000e-01 -2.500000e-01
     vertex  3.483750e-16 -2.500000e-01 -7.500000e-01
   endloop
 endfacet
 facet normal -9.494108e-16  1.000000e+00  0.000000e+00
   outer loop
     vertex -2.500000e-01 -2.373527e-16 -2.500000e-01
     vertex -7.500000e-01 -7.120581e-16 -7.500000e-01
     vertex -7.500000e-01 -7.120581e-16  1.110223e-16
   endloop
 endfacet
 facet normal -9.494108e-16  1.000000e+00  0.000000e+00
   outer loop
     vertex -2.500000e-01 -2.373527e-16 -2.500000e-01
     vertex  1.110223e-16  9.860761e-32 -7.500000e-01
     vertex -7.500000e-01 -7.120581e-16 -7.500000e-01
   endloop
 endfacet
 facet normal -9.494108e-16  1.000000e+00 -1.359631e-32
   outer loop
     vertex  0.000000e+00  0.000000e+00 -2.500000e-01
     vertex  1.110223e-16  9.860761e-32 -7.500000e-01
     vertex -2.500000e-01 -2.373527e-16 -2.500000e-01
   endloop
 endfacet
 facet normal -9.494108e-16  1.000000e+00  0.000000e+00
   outer loop
     vertex -2.500000e-01 -2.373527e-16  0.000000e+00
     vertex -2.500000e-01 -2.373527e-16 -2.500000e-01
     vertex -7.500000e-01 -7.120581e-16  1.110223e-16
   endloop
 endfacet
 facet normal  9.992007e-16 -1.000000e+00  0.000000e+00
   outer loop
     vertex -2.500000e-01 -2.500000e-01 -2.500000e-01
     vertex -7.500000e-01 -2.500000e-01  1.263304e-16
     vertex -7.500000e-01 -2.500000e-01 -7.500000e-01
   endloop
 endfacet
 facet normal  9.621933e-16 -1.000000e+00  3.700743e-17
   outer loop
     vertex -2.500000e-01 -2.500000e-01 -2.500000e-01
     vertex -7.500000e-01 -2.500000e-01 -7.500000e-01
     vertex  3.483750e-16 -2.500000e-01 -7.500000e-01
   endloop
 endfacet
 facet normal  8.881784e-16 -1.000000e+00  1.972152e-31
   outer loop
     vertex  2.373527e-16 -2.500000e-01 -2.500000e-01
     vertex -2.500000e-01 -2.500000e-01 -2.500000e-01
     vertex  3.483750e-16 -2.500000e-01 -7.500000e-01
   endloop
 endfacet
 facet normal  9.992007e-16 -1.000000e+00  0.000000e+00
   outer loop
     vertex -2.500000e-01 -2.500000e-01  1.530808e-17
     vertex -7.500000e-01 -2.500000e-01  1.263304e-16
     vertex -2.500000e-01 -2.500000e-01 -2.500000e-01
   endloop
 endfacet
 facet normal  2.220446e-16  6.123234e-17  1.000000e+00
   outer loop
     vertex -7.500000e-01 -7.120581e-16  1.110223e-16
     vertex -2.500000e-01 -2.500000e-01  1.530808e-17
     vertex -2.500000e-01 -2.373527e-16  0.000000e+00
   endloop
 endfacet
 facet normal  2.220446e-16  6.123234e-17  1.000000e+00
   outer loop
     vertex -7.500000e-01 -7.120581e-16  1.110223e-16
     vertex -7.500000e-01 -2.500000e-01  1.263304e-16
     vertex -2.500000e-01 -2.500000e-01  1.530808e-17
   endloop
 endfacet
 facet normal -1.054058e-31  1.110223e-16  1.000000e+00
   outer loop
     vertex  0.000000e+00  0.000000e+00 -2.500000e-01
     vertex -2.500000e-01 -2.373527e-16 -2.500000e-01
     vertex -2.500000e-01 -2.500000e-01 -2.500000e-01
   endloop
 endfacet
 facet normal -9.860761e-32  1.110223e-16  1.000000e+00
   outer loop
     vertex  0.000000e+00  0.000000e+00 -2.500000e-01
     vertex -2.500000e-01 -2.500000e-01 -2.500000e-01
     vertex  2.373527e-16 -2.500000e-01 -2.500000e-01
   endloop
 endfacet
 facet normal  1.000000e+00  9.992007e-16 -0.000000e+00
   outer loop
     vertex -2.500000e-01 -2.373527e-16 -2.500000e-01
     vertex -2.500000e-01 -2.373527e-16  0.000000e+00
     vertex -2.500000e-01 -2.500000e-01  1.530808e-17
   endloop
 endfacet
 facet normal  1.000000e+00  9.992007e-16  0.000000e+00
   outer loop
     vertex -2.500000e-01 -2.373527e-16 -2.500000e-01
     vertex -2.500000e-01 -2.500000e-01  1.530808e-17
     vertex -2.500000e-01 -2.500000e-01 -2.500000e-01
   endloop
 endfacet
endsolid
