solid 
 facet normal  0.000000e+00 -1.000000e+00  0.000000e+00
   outer loop
     vertex  7.500000e-01 -7.500000e-01 -4.592425e-17
     vertex -7.500000e-01 -7.500000e-01  2.647059e-03
     vertex -7.500000e-01 -7.500000e-01 -4.592425e-17
   endloop
 endfacet
 facet normal  0.000000e+00 -1.000000e+00  0.000000e+00
   outer loop
     vertex  7.500000e-01 -7.500000e-01 -4.592425e-17
     vertex  7.500000e-01 -7.500000e-01  2.647059e-03
     vertex -7.500000e-01 -7.500000e-01  2.647059e-03
   endloop
 endfacet
 facet normal  1.000000e+00 -8.881784e-16  0.000000e+00
   outer loop
     vertex  7.500000e-01  7.500000e-01  4.592425e-17
     vertex  7.500000e-01 -7.500000e-01  2.647059e-03
     vertex  7.500000e-01 -7.500000e-01 -4.592425e-17
   endloop
 endfacet
 facet normal  1.000000e+00 -8.881784e-16  0.000000e+00
   outer loop
     vertex  7.500000e-01  7.500000e-01  4.592425e-17
     vertex  7.500000e-01  7.500000e-01  2.647059e-03
     vertex  7.500000e-01 -7.500000e-01  2.647059e-03
   endloop
 endfacet
 facet normal  0.000000e+00  1.000000e+00  0.000000e+00
   outer loop
     vertex -7.500000e-01  7.500000e-01  4.592425e-17
     vertex  7.500000e-01  7.500000e-01  2.647059e-03
     vertex  7.500000e-01  7.500000e-01  4.592425e-17
   endloop
 endfacet
 facet normal  0.000000e+00  1.000000e+00  0.000000e+00
   outer loop
     vertex -7.500000e-01  7.500000e-01  4.592425e-17
     vertex -7.500000e-01  7.500000e-01  2.647059e-03
     vertex  7.500000e-01  7.500000e-01  2.647059e-03
   endloop
 endfacet
 facet normal -1.000000e+00  9.621933e-16  0.000000e+00
   outer loop
     vertex -7.500000e-01 -7.500000e-01 -4.592425e-17
     vertex -7.500000e-01  7.500000e-01  2.647059e-03
     vertex -7.500000e-01  7.500000e-01  4.592425e-17
   endloop
 endfacet
 facet normal -1.000000e+00  9.621933e-16  0.000000e+00
   outer loop
     vertex -7.500000e-01 -7.500000e-01 -4.592425e-17
     vertex -7.500000e-01 -7.500000e-01  2.647059e-03
     vertex -7.500000e-01  7.500000e-01  2.647059e-03
   endloop
 endfacet
 facet normal  0.000000e+00  1.000000e+00  0.000000e+00
   outer loop
     vertex  5.735294e-01 -5.735294e-01 -3.511855e-17
     vertex -5.735294e-01 -5.735294e-01 -3.511855e-17
     vertex -5.735294e-01 -5.735294e-01  2.647059e-03
   endloop
 endfacet
 facet normal  0.000000e+00  1.000000e+00 -0.000000e+00
   outer loop
     vertex  5.735294e-01 -5.735294e-01 -3.511855e-17
     vertex -5.735294e-01 -5.735294e-01  2.647059e-03
     vertex  5.735294e-01 -5.735294e-01  2.647059e-03
   endloop
 endfacet
 facet normal -1.000000e+00  9.678867e-16  0.000000e+00
   outer loop
     vertex  5.735294e-01  5.735294e-01  3.511855e-17
     vertex  5.735294e-01 -5.735294e-01 -3.511855e-17
     vertex  5.735294e-01 -5.735294e-01  2.647059e-03
   endloop
 endfacet
 facet normal -1.000000e+00  9.678867e-16  0.000000e+00
   outer loop
     vertex  5.735294e-01  5.735294e-01  3.511855e-17
     vertex  5.735294e-01 -5.735294e-01  2.647059e-03
     vertex  5.735294e-01  5.735294e-01  2.647059e-03
   endloop
 endfacet
 facet normal  0.000000e+00 -1.000000e+00  0.000000e+00
   outer loop
     vertex -5.735294e-01  5.735294e-01  3.511855e-17
     vertex  5.735294e-01  5.735294e-01  3.511855e-17
     vertex  5.735294e-01  5.735294e-01  2.647059e-03
   endloop
 endfacet
 facet normal  0.000000e+00 -1.000000e+00  0.000000e+00
   outer loop
     vertex -5.735294e-01  5.735294e-01  3.511855e-17
     vertex  5.735294e-01  5.735294e-01  2.647059e-03
     vertex -5.735294e-01  5.735294e-01  2.647059e-03
   endloop
 endfacet
 facet normal  1.000000e+00 -9.678867e-16  0.000000e+00
   outer loop
     vertex -5.735294e-01 -5.735294e-01 -3.511855e-17
     vertex -5.735294e-01  5.735294e-01  3.511855e-17
     vertex -5.735294e-01  5.735294e-01  2.647059e-03
   endloop
 endfacet
 facet normal  1.000000e+00 -9.678867e-16  0.000000e+00
   outer loop
     vertex -5.735294e-01 -5.735294e-01 -3.511855e-17
     vertex -5.735294e-01  5.735294e-01  2.647059e-03
     vertex -5.735294e-01 -5.735294e-01  2.647059e-03
   endloop
 endfacet
 facet normal  0.000000e+00  6.123234e-17 -1.000000e+00
   outer loop
     vertex  5.735294e-01 -5.735294e-01 -3.511855e-17
     vertex  7.500000e-01 -7.500000e-01 -4.592425e-17
     vertex -7.500000e-01 -7.500000e-01 -4.592425e-17
   endloop
 endfacet
 facet normal  0.000000e+00  6.123234e-17 -1.000000e+00
   outer loop
     vertex  5.735294e-01 -5.735294e-01 -3.511855e-17
     vertex -7.500000e-01 -7.500000e-01 -4.592425e-17
     vertex -5.735294e-01 -5.735294e-01 -3.511855e-17
   endloop
 endfacet
 facet normal  1.522308e-32  6.123234e-17 -1.000000e+00
   outer loop
     vertex -7.500000e-01  7.500000e-01  4.592425e-17
     vertex -5.735294e-01  5.735294e-01  3.511855e-17
     vertex -5.735294e-01 -5.735294e-01 -3.511855e-17
   endloop
 endfacet
 facet normal  0.000000e+00  6.123234e-17 -1.000000e+00
   outer loop
     vertex -7.500000e-01  7.500000e-01  4.592425e-17
     vertex -5.735294e-01 -5.735294e-01 -3.511855e-17
     vertex -7.500000e-01 -7.500000e-01 -4.592425e-17
   endloop
 endfacet
 facet normal -1.522308e-32  6.123234e-17 -1.000000e+00
   outer loop
     vertex  7.500000e-01  7.500000e-01  4.592425e-17
     vertex  5.735294e-01 -5.735294e-01 -3.511855e-17
     vertex  5.735294e-01  5.735294e-01  3.511855e-17
   endloop
 endfacet
 facet normal  0.000000e+00  6.123234e-17 -1.000000e+00
   outer loop
     vertex  7.500000e-01  7.500000e-01  4.592425e-17
     vertex  7.500000e-01 -7.500000e-01 -4.592425e-17
     vertex  5.735294e-01 -5.735294e-01 -3.511855e-17
   endloop
 endfacet
 facet normal  0.000000e+00  6.123234e-17 -1.000000e+00
   outer loop
     vertex  7.500000e-01  7.500000e-01  4.592425e-17
     vertex  5.735294e-01  5.735294e-01  3.511855e-17
     vertex -7.500000e-01  7.500000e-01  4.592425e-17
   endloop
 endfacet
 facet normal  0.000000e+00  6.123234e-17 -1.000000e+00
   outer loop
     vertex  5.735294e-01  5.735294e-01  3.511855e-17
     vertex -5.735294e-01  5.735294e-01  3.511855e-17
     vertex -7.500000e-01  7.500000e-01  4.592425e-17
   endloop
 endfacet
 facet normal  0.000000e+00 -6.143812e-17  1.000000e+00
   outer loop
     vertex  5.735294e-01 -5.735294e-01  2.647059e-03
     vertex -7.500000e-01 -7.500000e-01  2.647059e-03
     vertex  7.500000e-01 -7.500000e-01  2.647059e-03
   endloop
 endfacet
 facet normal  0.000000e+00 -6.143812e-17  1.000000e+00
   outer loop
     vertex  5.735294e-01 -5.735294e-01  2.647059e-03
     vertex -5.735294e-01 -5.735294e-01  2.647059e-03
     vertex -7.500000e-01 -7.500000e-01  2.647059e-03
   endloop
 endfacet
 facet normal  1.890404e-19 -6.124908e-17  1.000000e+00
   outer loop
     vertex -7.500000e-01  7.500000e-01  2.647059e-03
     vertex -5.735294e-01 -5.735294e-01  2.647059e-03
     vertex -5.735294e-01  5.735294e-01  2.647059e-03
   endloop
 endfacet
 facet normal -1.445603e-19 -6.129356e-17  1.000000e+00
   outer loop
     vertex -7.500000e-01  7.500000e-01  2.647059e-03
     vertex -7.500000e-01 -7.500000e-01  2.647059e-03
     vertex -5.735294e-01 -5.735294e-01  2.647059e-03
   endloop
 endfacet
 facet normal -1.890404e-19 -6.124908e-17  1.000000e+00
   outer loop
     vertex  7.500000e-01  7.500000e-01  2.647059e-03
     vertex  5.735294e-01  5.735294e-01  2.647059e-03
     vertex  5.735294e-01 -5.735294e-01  2.647059e-03
   endloop
 endfacet
 facet normal  1.445603e-19 -6.129356e-17  1.000000e+00
   outer loop
     vertex  7.500000e-01  7.500000e-01  2.647059e-03
     vertex  5.735294e-01 -5.735294e-01  2.647059e-03
     vertex  7.500000e-01 -7.500000e-01  2.647059e-03
   endloop
 endfacet
 facet normal  0.000000e+00 -6.143812e-17  1.000000e+00
   outer loop
     vertex  7.500000e-01  7.500000e-01  2.647059e-03
     vertex -7.500000e-01  7.500000e-01  2.647059e-03
     vertex  5.735294e-01  5.735294e-01  2.647059e-03
   endloop
 endfacet
 facet normal  0.000000e+00 -6.143812e-17  1.000000e+00
   outer loop
     vertex  5.735294e-01  5.735294e-01  2.647059e-03
     vertex -7.500000e-01  7.500000e-01  2.647059e-03
     vertex -5.735294e-01  5.735294e-01  2.647059e-03
   endloop
 endfacet
endsolid
