solid 
 facet normal -3.493001e-01 -3.553449e-16 -9.370109e-01
   outer loop
     vertex -2.120785e-01 -2.013497e-16  5.898875e-02
     vertex -6.867976e-01 -6.166918e-01  2.359551e-01
     vertex -6.867976e-01 -6.520530e-16  2.359551e-01
   endloop
 endfacet
 facet normal -3.493001e-01 -3.828568e-16 -9.370109e-01
   outer loop
     vertex -2.120785e-01 -2.013497e-16  5.898875e-02
     vertex -2.120785e-01 -6.166918e-01  5.898875e-02
     vertex -6.867976e-01 -6.166918e-01  2.359551e-01
   endloop
 endfacet
 facet normal -7.857379e-01 -7.143001e-16  6.185596e-01
   outer loop
     vertex -5.238763e-01 -4.973738e-16 -3.370786e-01
     vertex -2.120785e-01 -6.166918e-01  5.898875e-02
     vertex -2.120785e-01 -2.013497e-16  5.898875e-02
   endloop
 endfacet
 facet normal -7.857379e-01 -6.515981e-16  6.185596e-01
   outer loop
     vertex -5.238763e-01 -4.973738e-16 -3.370786e-01
     vertex -5.238763e-01 -6.166918e-01 -3.370786e-01
     vertex -2.120785e-01 -6.166918e-01  5.898875e-02
   endloop
 endfacet
 facet normal  4.385186e-01  3.088437e-16 -8.987221e-01
   outer loop
     vertex  2.220446e-16  2.958228e-31 -8.146061e-02
     vertex -5.238763e-01 -6.166918e-01 -3.370786e-01
     vertex -5.238763e-01 -4.973738e-16 -3.370786e-01
   endloop
 endfacet
 facet normal  4.385186e-01  3.556609e-16 -8.987221e-01
   outer loop
     vertex  2.220446e-16  2.958228e-31 -8.146061e-02
     vertex  8.075384e-16 -6.166918e-01 -8.146061e-02
     vertex -5.238763e-01 -6.166918e-01 -3.370786e-01
   endloop
 endfacet
 facet normal -5.003593e-01 -5.501890e-16 -8.658179e-01
   outer loop
     vertex  4.957866e-01  4.707051e-16 -3.679775e-01
     vertex  8.075384e-16 -6.166918e-01 -8.146061e-02
     vertex  2.220446e-16  2.958228e-31 -8.146061e-02
   endloop
 endfacet
 facet normal -5.003593e-01 -5.733711e-16 -8.658179e-01
   outer loop
     vertex  4.957866e-01  4.707051e-16 -3.679775e-01
     vertex  4.957866e-01 -6.166918e-01 -3.679775e-01
     vertex  8.075384e-16 -6.166918e-01 -8.146061e-02
   endloop
 endfacet
 facet normal  8.251867e-01  8.657007e-16  5.648601e-01
   outer loop
     vertex  1.727528e-01  1.640134e-16  1.039326e-01
     vertex  4.957866e-01 -6.166918e-01 -3.679775e-01
     vertex  4.957866e-01  4.707051e-16 -3.679775e-01
   endloop
 endfacet
 facet normal  8.251867e-01  8.180605e-16  5.648601e-01
   outer loop
     vertex  1.727528e-01  1.640134e-16  1.039326e-01
     vertex  1.727528e-01 -6.166918e-01  1.039326e-01
     vertex  4.957866e-01 -6.166918e-01 -3.679775e-01
   endloop
 endfacet
 facet normal  4.681072e-01  3.826673e-16 -8.836717e-01
   outer loop
     vertex  6.924158e-01  6.573870e-16  3.792135e-01
     vertex  1.727528e-01 -6.166918e-01  1.039326e-01
     vertex  1.727528e-01  1.640134e-16  1.039326e-01
   endloop
 endfacet
 facet normal  4.681072e-01  3.418208e-16 -8.836717e-01
   outer loop
     vertex  6.924158e-01  6.573870e-16  3.792135e-01
     vertex  6.924158e-01 -6.166918e-01  3.792135e-01
     vertex  1.727528e-01 -6.166918e-01  1.039326e-01
   endloop
 endfacet
 facet normal  1.013434e-16  9.001442e-17  1.000000e+00
   outer loop
     vertex  1.446630e-01  1.373446e-16  3.792135e-01
     vertex  6.924158e-01 -6.166918e-01  3.792135e-01
     vertex  6.924158e-01  6.573870e-16  3.792135e-01
   endloop
 endfacet
 facet normal  1.013434e-16  9.001442e-17  1.000000e+00
   outer loop
     vertex  1.446630e-01  1.373446e-16  3.792135e-01
     vertex  1.446630e-01 -6.166918e-01  3.792135e-01
     vertex  6.924158e-01 -6.166918e-01  3.792135e-01
   endloop
 endfacet
 facet normal  9.316067e-01  9.046503e-16  3.634679e-01
   outer loop
     vertex  2.220446e-16  2.958228e-31  7.500000e-01
     vertex  1.446630e-01 -6.166918e-01  3.792135e-01
     vertex  1.446630e-01  1.373446e-16  3.792135e-01
   endloop
 endfacet
 facet normal  9.316067e-01  8.844775e-16  3.634679e-01
   outer loop
     vertex  2.220446e-16  2.958228e-31  7.500000e-01
     vertex  8.075384e-16 -6.166918e-01  7.500000e-01
     vertex  1.446630e-01 -6.166918e-01  3.792135e-01
   endloop
 endfacet
 facet normal -9.093701e-01 -8.266916e-16  4.159881e-01
   outer loop
     vertex -1.811797e-01 -1.720139e-16  3.539325e-01
     vertex  8.075384e-16 -6.166918e-01  7.500000e-01
     vertex  2.220446e-16  2.958228e-31  7.500000e-01
   endloop
 endfacet
 facet normal -9.093701e-01 -8.220475e-16  4.159881e-01
   outer loop
     vertex -1.811797e-01 -1.720139e-16  3.539325e-01
     vertex -1.811797e-01 -6.166918e-01  3.539325e-01
     vertex  8.075384e-16 -6.166918e-01  7.500000e-01
   endloop
 endfacet
 facet normal -2.272294e-01 -1.300287e-16  9.738413e-01
   outer loop
     vertex -6.867976e-01 -6.520530e-16  2.359551e-01
     vertex -1.811797e-01 -6.166918e-01  3.539325e-01
     vertex -1.811797e-01 -1.720139e-16  3.539325e-01
   endloop
 endfacet
 facet normal -2.272294e-01 -1.607094e-16  9.738413e-01
   outer loop
     vertex -6.867976e-01 -6.520530e-16  2.359551e-01
     vertex -6.867976e-01 -6.166918e-01  2.359551e-01
     vertex -1.811797e-01 -6.166918e-01  3.539325e-01
   endloop
 endfacet
 facet normal -9.494108e-16  1.000000e+00  9.645537e-32
   outer loop
     vertex  2.220446e-16  2.958228e-31 -8.146061e-02
     vertex -5.238763e-01 -4.973738e-16 -3.370786e-01
     vertex -2.120785e-01 -2.013497e-16  5.898875e-02
   endloop
 endfacet
 facet normal -9.494108e-16  1.000000e+00 -4.236203e-32
   outer loop
     vertex -1.811797e-01 -1.720139e-16  3.539325e-01
     vertex -2.120785e-01 -2.013497e-16  5.898875e-02
     vertex -6.867976e-01 -6.520530e-16  2.359551e-01
   endloop
 endfacet
 facet normal -9.494108e-16  1.000000e+00  8.716338e-32
   outer loop
     vertex  1.727528e-01  1.640134e-16  1.039326e-01
     vertex  4.957866e-01  4.707051e-16 -3.679775e-01
     vertex  2.220446e-16  2.958228e-31 -8.146061e-02
   endloop
 endfacet
 facet normal -9.494108e-16  1.000000e+00  3.877247e-31
   outer loop
     vertex  1.727528e-01  1.640134e-16  1.039326e-01
     vertex  2.220446e-16  2.958228e-31 -8.146061e-02
     vertex -2.120785e-01 -2.013497e-16  5.898875e-02
   endloop
 endfacet
 facet normal -9.494108e-16  1.000000e+00 -2.198807e-31
   outer loop
     vertex  1.727528e-01  1.640134e-16  1.039326e-01
     vertex -2.120785e-01 -2.013497e-16  5.898875e-02
     vertex -1.811797e-01 -1.720139e-16  3.539325e-01
   endloop
 endfacet
 facet normal -9.494108e-16  1.000000e+00 -1.704204e-31
   outer loop
     vertex  1.446630e-01  1.373446e-16  3.792135e-01
     vertex  1.727528e-01  1.640134e-16  1.039326e-01
     vertex -1.811797e-01 -1.720139e-16  3.539325e-01
   endloop
 endfacet
 facet normal -9.494108e-16  1.000000e+00 -7.426746e-32
   outer loop
     vertex  2.220446e-16  2.958228e-31  7.500000e-01
     vertex  1.446630e-01  1.373446e-16  3.792135e-01
     vertex -1.811797e-01 -1.720139e-16  3.539325e-01
   endloop
 endfacet
 facet normal -9.494108e-16  1.000000e+00 -3.269789e-31
   outer loop
     vertex  6.924158e-01  6.573870e-16  3.792135e-01
     vertex  1.727528e-01  1.640134e-16  1.039326e-01
     vertex  1.446630e-01  1.373446e-16  3.792135e-01
   endloop
 endfacet
 facet normal  9.322436e-16 -1.000000e+00 -1.732706e-16
   outer loop
     vertex  8.075384e-16 -6.166918e-01 -8.146061e-02
     vertex -2.120785e-01 -6.166918e-01  5.898875e-02
     vertex -5.238763e-01 -6.166918e-01 -3.370786e-01
   endloop
 endfacet
 facet normal  9.003176e-16 -1.000000e+00 -9.431902e-17
   outer loop
     vertex -1.811797e-01 -6.166918e-01  3.539325e-01
     vertex -6.867976e-01 -6.166918e-01  2.359551e-01
     vertex -2.120785e-01 -6.166918e-01  5.898875e-02
   endloop
 endfacet
 facet normal  8.071510e-16 -1.000000e+00 -1.532706e-16
   outer loop
     vertex  1.727528e-01 -6.166918e-01  1.039326e-01
     vertex  8.075384e-16 -6.166918e-01 -8.146061e-02
     vertex  4.957866e-01 -6.166918e-01 -3.679775e-01
   endloop
 endfacet
 facet normal  8.926978e-16 -1.000000e+00 -2.329847e-16
   outer loop
     vertex  1.727528e-01 -6.166918e-01  1.039326e-01
     vertex -2.120785e-01 -6.166918e-01  5.898875e-02
     vertex  8.075384e-16 -6.166918e-01 -8.146061e-02
   endloop
 endfacet
 facet normal  8.762083e-16 -1.000000e+00 -9.179327e-17
   outer loop
     vertex  1.727528e-01 -6.166918e-01  1.039326e-01
     vertex -1.811797e-01 -6.166918e-01  3.539325e-01
     vertex -2.120785e-01 -6.166918e-01  5.898875e-02
   endloop
 endfacet
 facet normal  1.014142e-15 -1.000000e+00  1.034838e-16
   outer loop
     vertex  1.446630e-01 -6.166918e-01  3.792135e-01
     vertex -1.811797e-01 -6.166918e-01  3.539325e-01
     vertex  1.727528e-01 -6.166918e-01  1.039326e-01
   endloop
 endfacet
 facet normal  1.014687e-15 -1.000000e+00  9.645809e-17
   outer loop
     vertex  8.075384e-16 -6.166918e-01  7.500000e-01
     vertex -1.811797e-01 -6.166918e-01  3.539325e-01
     vertex  1.446630e-01 -6.166918e-01  3.792135e-01
   endloop
 endfacet
 facet normal  1.013434e-15 -1.000000e+00  1.034116e-16
   outer loop
     vertex  6.924158e-01 -6.166918e-01  3.792135e-01
     vertex  1.446630e-01 -6.166918e-01  3.792135e-01
     vertex  1.727528e-01 -6.166918e-01  1.039326e-01
   endloop
 endfacet
endsolid
