solid 
 facet normal  9.961947e-01  8.715574e-02  0.000000e+00
   outer loop
     vertex  7.386058e-01  1.302361e-01  0.000000e+00
     vertex  7.500000e-01  0.000000e+00  1.463415e-02
     vertex  7.500000e-01  0.000000e+00  0.000000e+00
   endloop
 endfacet
 facet normal  9.961947e-01  8.715574e-02 -0.000000e+00
   outer loop
     vertex  7.386058e-01  1.302361e-01  0.000000e+00
     vertex  7.386058e-01  1.302361e-01  1.463415e-02
     vertex  7.500000e-01  0.000000e+00  1.463415e-02
   endloop
 endfacet
 facet normal  9.659258e-01  2.588190e-01 -0.000000e+00
   outer loop
     vertex  7.047695e-01  2.565151e-01  0.000000e+00
     vertex  7.047695e-01  2.565151e-01  1.463415e-02
     vertex  7.386058e-01  1.302361e-01  1.463415e-02
   endloop
 endfacet
 facet normal  9.659258e-01  2.588190e-01  0.000000e+00
   outer loop
     vertex  7.047695e-01  2.565151e-01  0.000000e+00
     vertex  7.386058e-01  1.302361e-01  1.463415e-02
     vertex  7.386058e-01  1.302361e-01  0.000000e+00
   endloop
 endfacet
 facet normal  9.063078e-01  4.226183e-01 -0.000000e+00
   outer loop
     vertex  6.495191e-01  3.750000e-01  0.000000e+00
     vertex  6.495191e-01  3.750000e-01  1.463415e-02
     vertex  7.047695e-01  2.565151e-01  1.463415e-02
   endloop
 endfacet
 facet normal  9.063078e-01  4.226183e-01  0.000000e+00
   outer loop
     vertex  6.495191e-01  3.750000e-01  0.000000e+00
     vertex  7.047695e-01  2.565151e-01  1.463415e-02
     vertex  7.047695e-01  2.565151e-01  0.000000e+00
   endloop
 endfacet
 facet normal  8.191520e-01  5.735764e-01 -0.000000e+00
   outer loop
     vertex  5.745333e-01  4.820907e-01  0.000000e+00
     vertex  5.745333e-01  4.820907e-01  1.463415e-02
     vertex  6.495191e-01  3.750000e-01  1.463415e-02
   endloop
 endfacet
 facet normal  8.191520e-01  5.735764e-01  0.000000e+00
   outer loop
     vertex  5.745333e-01  4.820907e-01  0.000000e+00
     vertex  6.495191e-01  3.750000e-01  1.463415e-02
     vertex  6.495191e-01  3.750000e-01  0.000000e+00
   endloop
 endfacet
 facet normal  7.071068e-01  7.071068e-01 -0.000000e+00
   outer loop
     vertex  4.820907e-01  5.745333e-01  0.000000e+00
     vertex  4.820907e-01  5.745333e-01  1.463415e-02
     vertex  5.745333e-01  4.820907e-01  1.463415e-02
   endloop
 endfacet
 facet normal  7.071068e-01  7.071068e-01  0.000000e+00
   outer loop
     vertex  4.820907e-01  5.745333e-01  0.000000e+00
     vertex  5.745333e-01  4.820907e-01  1.463415e-02
     vertex  5.745333e-01  4.820907e-01  0.000000e+00
   endloop
 endfacet
 facet normal  5.735764e-01  8.191520e-01  0.000000e+00
   outer loop
     vertex  3.750000e-01  6.495191e-01  0.000000e+00
     vertex  4.820907e-01  5.745333e-01  1.463415e-02
     vertex  4.820907e-01  5.745333e-01  0.000000e+00
   endloop
 endfacet
 facet normal  5.735764e-01  8.191520e-01 -0.000000e+00
   outer loop
     vertex  3.750000e-01  6.495191e-01  0.000000e+00
     vertex  3.750000e-01  6.495191e-01  1.463415e-02
     vertex  4.820907e-01  5.745333e-01  1.463415e-02
   endloop
 endfacet
 facet normal  4.226183e-01  9.063078e-01  0.000000e+00
   outer loop
     vertex  2.565151e-01  7.047695e-01  0.000000e+00
     vertex  3.750000e-01  6.495191e-01  1.463415e-02
     vertex  3.750000e-01  6.495191e-01  0.000000e+00
   endloop
 endfacet
 facet normal  4.226183e-01  9.063078e-01 -0.000000e+00
   outer loop
     vertex  2.565151e-01  7.047695e-01  0.000000e+00
     vertex  2.565151e-01  7.047695e-01  1.463415e-02
     vertex  3.750000e-01  6.495191e-01  1.463415e-02
   endloop
 endfacet
 facet normal  2.588190e-01  9.659258e-01 -0.000000e+00
   outer loop
     vertex  1.302361e-01  7.386058e-01  0.000000e+00
     vertex  1.302361e-01  7.386058e-01  1.463415e-02
     vertex  2.565151e-01  7.047695e-01  1.463415e-02
   endloop
 endfacet
 facet normal  2.588190e-01  9.659258e-01  0.000000e+00
   outer loop
     vertex  1.302361e-01  7.386058e-01  0.000000e+00
     vertex  2.565151e-01  7.047695e-01  1.463415e-02
     vertex  2.565151e-01  7.047695e-01  0.000000e+00
   endloop
 endfacet
 facet normal  8.715574e-02  9.961947e-01 -0.000000e+00
   outer loop
     vertex  4.592425e-17  7.500000e-01  0.000000e+00
     vertex  4.592425e-17  7.500000e-01  1.463415e-02
     vertex  1.302361e-01  7.386058e-01  1.463415e-02
   endloop
 endfacet
 facet normal  8.715574e-02  9.961947e-01  0.000000e+00
   outer loop
     vertex  4.592425e-17  7.500000e-01  0.000000e+00
     vertex  1.302361e-01  7.386058e-01  1.463415e-02
     vertex  1.302361e-01  7.386058e-01  0.000000e+00
   endloop
 endfacet
 facet normal -8.715574e-02  9.961947e-01  0.000000e+00
   outer loop
     vertex -1.302361e-01  7.386058e-01  0.000000e+00
     vertex -1.302361e-01  7.386058e-01  1.463415e-02
     vertex  4.592425e-17  7.500000e-01  1.463415e-02
   endloop
 endfacet
 facet normal -8.715574e-02  9.961947e-01  0.000000e+00
   outer loop
     vertex -1.302361e-01  7.386058e-01  0.000000e+00
     vertex  4.592425e-17  7.500000e-01  1.463415e-02
     vertex  4.592425e-17  7.500000e-01  0.000000e+00
   endloop
 endfacet
 facet normal -2.588190e-01  9.659258e-01  0.000000e+00
   outer loop
     vertex -2.565151e-01  7.047695e-01  0.000000e+00
     vertex -2.565151e-01  7.047695e-01  1.463415e-02
     vertex -1.302361e-01  7.386058e-01  1.463415e-02
   endloop
 endfacet
 facet normal -2.588190e-01  9.659258e-01  0.000000e+00
   outer loop
     vertex -2.565151e-01  7.047695e-01  0.000000e+00
     vertex -1.302361e-01  7.386058e-01  1.463415e-02
     vertex -1.302361e-01  7.386058e-01  0.000000e+00
   endloop
 endfacet
 facet normal -4.226183e-01  9.063078e-01  0.000000e+00
   outer loop
     vertex -3.750000e-01  6.495191e-01  0.000000e+00
     vertex -3.750000e-01  6.495191e-01  1.463415e-02
     vertex -2.565151e-01  7.047695e-01  1.463415e-02
   endloop
 endfacet
 facet normal -4.226183e-01  9.063078e-01  0.000000e+00
   outer loop
     vertex -3.750000e-01  6.495191e-01  0.000000e+00
     vertex -2.565151e-01  7.047695e-01  1.463415e-02
     vertex -2.565151e-01  7.047695e-01  0.000000e+00
   endloop
 endfacet
 facet normal -5.735764e-01  8.191520e-01  0.000000e+00
   outer loop
     vertex -4.820907e-01  5.745333e-01  0.000000e+00
     vertex -4.820907e-01  5.745333e-01  1.463415e-02
     vertex -3.750000e-01  6.495191e-01  1.463415e-02
   endloop
 endfacet
 facet normal -5.735764e-01  8.191520e-01  0.000000e+00
   outer loop
     vertex -4.820907e-01  5.745333e-01  0.000000e+00
     vertex -3.750000e-01  6.495191e-01  1.463415e-02
     vertex -3.750000e-01  6.495191e-01  0.000000e+00
   endloop
 endfacet
 facet normal -7.071068e-01  7.071068e-01  0.000000e+00
   outer loop
     vertex -5.745333e-01  4.820907e-01  0.000000e+00
     vertex -5.745333e-01  4.820907e-01  1.463415e-02
     vertex -4.820907e-01  5.745333e-01  1.463415e-02
   endloop
 endfacet
 facet normal -7.071068e-01  7.071068e-01  0.000000e+00
   outer loop
     vertex -5.745333e-01  4.820907e-01  0.000000e+00
     vertex -4.820907e-01  5.745333e-01  1.463415e-02
     vertex -4.820907e-01  5.745333e-01  0.000000e+00
   endloop
 endfacet
 facet normal -8.191520e-01  5.735764e-01  0.000000e+00
   outer loop
     vertex -6.495191e-01  3.750000e-01  0.000000e+00
     vertex -6.495191e-01  3.750000e-01  1.463415e-02
     vertex -5.745333e-01  4.820907e-01  1.463415e-02
   endloop
 endfacet
 facet normal -8.191520e-01  5.735764e-01  0.000000e+00
   outer loop
     vertex -6.495191e-01  3.750000e-01  0.000000e+00
     vertex -5.745333e-01  4.820907e-01  1.463415e-02
     vertex -5.745333e-01  4.820907e-01  0.000000e+00
   endloop
 endfacet
 facet normal -9.063078e-01  4.226183e-01  0.000000e+00
   outer loop
     vertex -7.047695e-01  2.565151e-01  0.000000e+00
     vertex -7.047695e-01  2.565151e-01  1.463415e-02
     vertex -6.495191e-01  3.750000e-01  1.463415e-02
   endloop
 endfacet
 facet normal -9.063078e-01  4.226183e-01  0.000000e+00
   outer loop
     vertex -7.047695e-01  2.565151e-01  0.000000e+00
     vertex -6.495191e-01  3.750000e-01  1.463415e-02
     vertex -6.495191e-01  3.750000e-01  0.000000e+00
   endloop
 endfacet
 facet normal -9.659258e-01  2.588190e-01  0.000000e+00
   outer loop
     vertex -7.386058e-01  1.302361e-01  0.000000e+00
     vertex -7.386058e-01  1.302361e-01  1.463415e-02
     vertex -7.047695e-01  2.565151e-01  1.463415e-02
   endloop
 endfacet
 facet normal -9.659258e-01  2.588190e-01  0.000000e+00
   outer loop
     vertex -7.386058e-01  1.302361e-01  0.000000e+00
     vertex -7.047695e-01  2.565151e-01  1.463415e-02
     vertex -7.047695e-01  2.565151e-01  0.000000e+00
   endloop
 endfacet
 facet normal -9.961947e-01  8.715574e-02  0.000000e+00
   outer loop
     vertex -7.500000e-01  1.091049e-15  0.000000e+00
     vertex -7.500000e-01  1.091049e-15  1.463415e-02
     vertex -7.386058e-01  1.302361e-01  1.463415e-02
   endloop
 endfacet
 facet normal -9.961947e-01  8.715574e-02  0.000000e+00
   outer loop
     vertex -7.500000e-01  1.091049e-15  0.000000e+00
     vertex -7.386058e-01  1.302361e-01  1.463415e-02
     vertex -7.386058e-01  1.302361e-01  0.000000e+00
   endloop
 endfacet
 facet normal -9.961947e-01 -8.715574e-02  0.000000e+00
   outer loop
     vertex -7.386058e-01 -1.302361e-01  0.000000e+00
     vertex -7.386058e-01 -1.302361e-01  1.463415e-02
     vertex -7.500000e-01  1.091049e-15  1.463415e-02
   endloop
 endfacet
 facet normal -9.961947e-01 -8.715574e-02  0.000000e+00
   outer loop
     vertex -7.386058e-01 -1.302361e-01  0.000000e+00
     vertex -7.500000e-01  1.091049e-15  1.463415e-02
     vertex -7.500000e-01  1.091049e-15  0.000000e+00
   endloop
 endfacet
 facet normal -9.659258e-01 -2.588190e-01  0.000000e+00
   outer loop
     vertex -7.047695e-01 -2.565151e-01  0.000000e+00
     vertex -7.047695e-01 -2.565151e-01  1.463415e-02
     vertex -7.386058e-01 -1.302361e-01  1.463415e-02
   endloop
 endfacet
 facet normal -9.659258e-01 -2.588190e-01  0.000000e+00
   outer loop
     vertex -7.047695e-01 -2.565151e-01  0.000000e+00
     vertex -7.386058e-01 -1.302361e-01  1.463415e-02
     vertex -7.386058e-01 -1.302361e-01  0.000000e+00
   endloop
 endfacet
 facet normal -9.063078e-01 -4.226183e-01  0.000000e+00
   outer loop
     vertex -6.495191e-01 -3.750000e-01  0.000000e+00
     vertex -6.495191e-01 -3.750000e-01  1.463415e-02
     vertex -7.047695e-01 -2.565151e-01  1.463415e-02
   endloop
 endfacet
 facet normal -9.063078e-01 -4.226183e-01  0.000000e+00
   outer loop
     vertex -6.495191e-01 -3.750000e-01  0.000000e+00
     vertex -7.047695e-01 -2.565151e-01  1.463415e-02
     vertex -7.047695e-01 -2.565151e-01  0.000000e+00
   endloop
 endfacet
 facet normal -8.191520e-01 -5.735764e-01  0.000000e+00
   outer loop
     vertex -5.745333e-01 -4.820907e-01  0.000000e+00
     vertex -5.745333e-01 -4.820907e-01  1.463415e-02
     vertex -6.495191e-01 -3.750000e-01  1.463415e-02
   endloop
 endfacet
 facet normal -8.191520e-01 -5.735764e-01  0.000000e+00
   outer loop
     vertex -5.745333e-01 -4.820907e-01  0.000000e+00
     vertex -6.495191e-01 -3.750000e-01  1.463415e-02
     vertex -6.495191e-01 -3.750000e-01  0.000000e+00
   endloop
 endfacet
 facet normal -7.071068e-01 -7.071068e-01  0.000000e+00
   outer loop
     vertex -4.820907e-01 -5.745333e-01  0.000000e+00
     vertex -4.820907e-01 -5.745333e-01  1.463415e-02
     vertex -5.745333e-01 -4.820907e-01  1.463415e-02
   endloop
 endfacet
 facet normal -7.071068e-01 -7.071068e-01  0.000000e+00
   outer loop
     vertex -4.820907e-01 -5.745333e-01  0.000000e+00
     vertex -5.745333e-01 -4.820907e-01  1.463415e-02
     vertex -5.745333e-01 -4.820907e-01  0.000000e+00
   endloop
 endfacet
 facet normal -5.735764e-01 -8.191520e-01  0.000000e+00
   outer loop
     vertex -3.750000e-01 -6.495191e-01  0.000000e+00
     vertex -3.750000e-01 -6.495191e-01  1.463415e-02
     vertex -4.820907e-01 -5.745333e-01  1.463415e-02
   endloop
 endfacet
 facet normal -5.735764e-01 -8.191520e-01  0.000000e+00
   outer loop
     vertex -3.750000e-01 -6.495191e-01  0.000000e+00
     vertex -4.820907e-01 -5.745333e-01  1.463415e-02
     vertex -4.820907e-01 -5.745333e-01  0.000000e+00
   endloop
 endfacet
 facet normal -4.226183e-01 -9.063078e-01  0.000000e+00
   outer loop
     vertex -2.565151e-01 -7.047695e-01  0.000000e+00
     vertex -2.565151e-01 -7.047695e-01  1.463415e-02
     vertex -3.750000e-01 -6.495191e-01  1.463415e-02
   endloop
 endfacet
 facet normal -4.226183e-01 -9.063078e-01  0.000000e+00
   outer loop
     vertex -2.565151e-01 -7.047695e-01  0.000000e+00
     vertex -3.750000e-01 -6.495191e-01  1.463415e-02
     vertex -3.750000e-01 -6.495191e-01  0.000000e+00
   endloop
 endfacet
 facet normal -2.588190e-01 -9.659258e-01  0.000000e+00
   outer loop
     vertex -1.302361e-01 -7.386058e-01  0.000000e+00
     vertex -1.302361e-01 -7.386058e-01  1.463415e-02
     vertex -2.565151e-01 -7.047695e-01  1.463415e-02
   endloop
 endfacet
 facet normal -2.588190e-01 -9.659258e-01  0.000000e+00
   outer loop
     vertex -1.302361e-01 -7.386058e-01  0.000000e+00
     vertex -2.565151e-01 -7.047695e-01  1.463415e-02
     vertex -2.565151e-01 -7.047695e-01  0.000000e+00
   endloop
 endfacet
 facet normal -8.715574e-02 -9.961947e-01  0.000000e+00
   outer loop
     vertex -2.136174e-15 -7.500000e-01  0.000000e+00
     vertex -2.136174e-15 -7.500000e-01  1.463415e-02
     vertex -1.302361e-01 -7.386058e-01  1.463415e-02
   endloop
 endfacet
 facet normal -8.715574e-02 -9.961947e-01  0.000000e+00
   outer loop
     vertex -2.136174e-15 -7.500000e-01  0.000000e+00
     vertex -1.302361e-01 -7.386058e-01  1.463415e-02
     vertex -1.302361e-01 -7.386058e-01  0.000000e+00
   endloop
 endfacet
 facet normal  8.715574e-02 -9.961947e-01  0.000000e+00
   outer loop
     vertex  1.302361e-01 -7.386058e-01  0.000000e+00
     vertex  1.302361e-01 -7.386058e-01  1.463415e-02
     vertex -2.136174e-15 -7.500000e-01  1.463415e-02
   endloop
 endfacet
 facet normal  8.715574e-02 -9.961947e-01  0.000000e+00
   outer loop
     vertex  1.302361e-01 -7.386058e-01  0.000000e+00
     vertex -2.136174e-15 -7.500000e-01  1.463415e-02
     vertex -2.136174e-15 -7.500000e-01  0.000000e+00
   endloop
 endfacet
 facet normal  2.588190e-01 -9.659258e-01  0.000000e+00
   outer loop
     vertex  2.565151e-01 -7.047695e-01  0.000000e+00
     vertex  2.565151e-01 -7.047695e-01  1.463415e-02
     vertex  1.302361e-01 -7.386058e-01  1.463415e-02
   endloop
 endfacet
 facet normal  2.588190e-01 -9.659258e-01  0.000000e+00
   outer loop
     vertex  2.565151e-01 -7.047695e-01  0.000000e+00
     vertex  1.302361e-01 -7.386058e-01  1.463415e-02
     vertex  1.302361e-01 -7.386058e-01  0.000000e+00
   endloop
 endfacet
 facet normal  4.226183e-01 -9.063078e-01  0.000000e+00
   outer loop
     vertex  3.750000e-01 -6.495191e-01  0.000000e+00
     vertex  3.750000e-01 -6.495191e-01  1.463415e-02
     vertex  2.565151e-01 -7.047695e-01  1.463415e-02
   endloop
 endfacet
 facet normal  4.226183e-01 -9.063078e-01  0.000000e+00
   outer loop
     vertex  3.750000e-01 -6.495191e-01  0.000000e+00
     vertex  2.565151e-01 -7.047695e-01  1.463415e-02
     vertex  2.565151e-01 -7.047695e-01  0.000000e+00
   endloop
 endfacet
 facet normal  5.735764e-01 -8.191520e-01  0.000000e+00
   outer loop
     vertex  4.820907e-01 -5.745333e-01  0.000000e+00
     vertex  4.820907e-01 -5.745333e-01  1.463415e-02
     vertex  3.750000e-01 -6.495191e-01  1.463415e-02
   endloop
 endfacet
 facet normal  5.735764e-01 -8.191520e-01  0.000000e+00
   outer loop
     vertex  4.820907e-01 -5.745333e-01  0.000000e+00
     vertex  3.750000e-01 -6.495191e-01  1.463415e-02
     vertex  3.750000e-01 -6.495191e-01  0.000000e+00
   endloop
 endfacet
 facet normal  7.071068e-01 -7.071068e-01  0.000000e+00
   outer loop
     vertex  5.745333e-01 -4.820907e-01  0.000000e+00
     vertex  4.820907e-01 -5.745333e-01  1.463415e-02
     vertex  4.820907e-01 -5.745333e-01  0.000000e+00
   endloop
 endfacet
 facet normal  7.071068e-01 -7.071068e-01  0.000000e+00
   outer loop
     vertex  5.745333e-01 -4.820907e-01  0.000000e+00
     vertex  5.745333e-01 -4.820907e-01  1.463415e-02
     vertex  4.820907e-01 -5.745333e-01  1.463415e-02
   endloop
 endfacet
 facet normal  8.191520e-01 -5.735764e-01  0.000000e+00
   outer loop
     vertex  6.495191e-01 -3.750000e-01  0.000000e+00
     vertex  5.745333e-01 -4.820907e-01  1.463415e-02
     vertex  5.745333e-01 -4.820907e-01  0.000000e+00
   endloop
 endfacet
 facet normal  8.191520e-01 -5.735764e-01  0.000000e+00
   outer loop
     vertex  6.495191e-01 -3.750000e-01  0.000000e+00
     vertex  6.495191e-01 -3.750000e-01  1.463415e-02
     vertex  5.745333e-01 -4.820907e-01  1.463415e-02
   endloop
 endfacet
 facet normal  9.063078e-01 -4.226183e-01  0.000000e+00
   outer loop
     vertex  7.047695e-01 -2.565151e-01  0.000000e+00
     vertex  6.495191e-01 -3.750000e-01  1.463415e-02
     vertex  6.495191e-01 -3.750000e-01  0.000000e+00
   endloop
 endfacet
 facet normal  9.063078e-01 -4.226183e-01  0.000000e+00
   outer loop
     vertex  7.047695e-01 -2.565151e-01  0.000000e+00
     vertex  7.047695e-01 -2.565151e-01  1.463415e-02
     vertex  6.495191e-01 -3.750000e-01  1.463415e-02
   endloop
 endfacet
 facet normal  9.659258e-01 -2.588190e-01  0.000000e+00
   outer loop
     vertex  7.386058e-01 -1.302361e-01  0.000000e+00
     vertex  7.047695e-01 -2.565151e-01  1.463415e-02
     vertex  7.047695e-01 -2.565151e-01  0.000000e+00
   endloop
 endfacet
 facet normal  9.659258e-01 -2.588190e-01  0.000000e+00
   outer loop
     vertex  7.386058e-01 -1.302361e-01  0.000000e+00
     vertex  7.386058e-01 -1.302361e-01  1.463415e-02
     vertex  7.047695e-01 -2.565151e-01  1.463415e-02
   endloop
 endfacet
 facet normal  9.961947e-01 -8.715574e-02  0.000000e+00
   outer loop
     vertex  7.500000e-01  0.000000e+00  0.000000e+00
     vertex  7.386058e-01 -1.302361e-01  1.463415e-02
     vertex  7.386058e-01 -1.302361e-01  0.000000e+00
   endloop
 endfacet
 facet normal  9.961947e-01 -8.715574e-02  0.000000e+00
   outer loop
     vertex  7.500000e-01  0.000000e+00  0.000000e+00
     vertex  7.500000e-01  0.000000e+00  1.463415e-02
     vertex  7.386058e-01 -1.302361e-01  1.463415e-02
   endloop
 endfacet
 facet normal -9.961947e-01 -8.715574e-02  0.000000e+00
   outer loop
     vertex  7.205910e-01  1.270596e-01  0.000000e+00
     vertex  7.317073e-01  0.000000e+00  0.000000e+00
     vertex  7.317073e-01  0.000000e+00  1.463415e-02
   endloop
 endfacet
 facet normal -9.961947e-01 -8.715574e-02  0.000000e+00
   outer loop
     vertex  7.205910e-01  1.270596e-01  0.000000e+00
     vertex  7.317073e-01  0.000000e+00  1.463415e-02
     vertex  7.205910e-01  1.270596e-01  1.463415e-02
   endloop
 endfacet
 facet normal -9.659258e-01 -2.588190e-01  0.000000e+00
   outer loop
     vertex  6.875800e-01  2.502586e-01  0.000000e+00
     vertex  7.205910e-01  1.270596e-01  1.463415e-02
     vertex  6.875800e-01  2.502586e-01  1.463415e-02
   endloop
 endfacet
 facet normal -9.659258e-01 -2.588190e-01  0.000000e+00
   outer loop
     vertex  6.875800e-01  2.502586e-01  0.000000e+00
     vertex  7.205910e-01  1.270596e-01  0.000000e+00
     vertex  7.205910e-01  1.270596e-01  1.463415e-02
   endloop
 endfacet
 facet normal -9.063078e-01 -4.226183e-01  0.000000e+00
   outer loop
     vertex  6.336771e-01  3.658537e-01  0.000000e+00
     vertex  6.875800e-01  2.502586e-01  1.463415e-02
     vertex  6.336771e-01  3.658537e-01  1.463415e-02
   endloop
 endfacet
 facet normal -9.063078e-01 -4.226183e-01  0.000000e+00
   outer loop
     vertex  6.336771e-01  3.658537e-01  0.000000e+00
     vertex  6.875800e-01  2.502586e-01  0.000000e+00
     vertex  6.875800e-01  2.502586e-01  1.463415e-02
   endloop
 endfacet
 facet normal -8.191520e-01 -5.735764e-01  0.000000e+00
   outer loop
     vertex  5.605203e-01  4.703324e-01  0.000000e+00
     vertex  6.336771e-01  3.658537e-01  1.463415e-02
     vertex  5.605203e-01  4.703324e-01  1.463415e-02
   endloop
 endfacet
 facet normal -8.191520e-01 -5.735764e-01  0.000000e+00
   outer loop
     vertex  5.605203e-01  4.703324e-01  0.000000e+00
     vertex  6.336771e-01  3.658537e-01  0.000000e+00
     vertex  6.336771e-01  3.658537e-01  1.463415e-02
   endloop
 endfacet
 facet normal -7.071068e-01 -7.071068e-01  0.000000e+00
   outer loop
     vertex  4.703324e-01  5.605203e-01  0.000000e+00
     vertex  5.605203e-01  4.703324e-01  1.463415e-02
     vertex  4.703324e-01  5.605203e-01  1.463415e-02
   endloop
 endfacet
 facet normal -7.071068e-01 -7.071068e-01  0.000000e+00
   outer loop
     vertex  4.703324e-01  5.605203e-01  0.000000e+00
     vertex  5.605203e-01  4.703324e-01  0.000000e+00
     vertex  5.605203e-01  4.703324e-01  1.463415e-02
   endloop
 endfacet
 facet normal -5.735764e-01 -8.191520e-01  0.000000e+00
   outer loop
     vertex  3.658537e-01  6.336771e-01  0.000000e+00
     vertex  4.703324e-01  5.605203e-01  0.000000e+00
     vertex  4.703324e-01  5.605203e-01  1.463415e-02
   endloop
 endfacet
 facet normal -5.735764e-01 -8.191520e-01  0.000000e+00
   outer loop
     vertex  3.658537e-01  6.336771e-01  0.000000e+00
     vertex  4.703324e-01  5.605203e-01  1.463415e-02
     vertex  3.658537e-01  6.336771e-01  1.463415e-02
   endloop
 endfacet
 facet normal -4.226183e-01 -9.063078e-01  0.000000e+00
   outer loop
     vertex  2.502586e-01  6.875800e-01  0.000000e+00
     vertex  3.658537e-01  6.336771e-01  0.000000e+00
     vertex  3.658537e-01  6.336771e-01  1.463415e-02
   endloop
 endfacet
 facet normal -4.226183e-01 -9.063078e-01  0.000000e+00
   outer loop
     vertex  2.502586e-01  6.875800e-01  0.000000e+00
     vertex  3.658537e-01  6.336771e-01  1.463415e-02
     vertex  2.502586e-01  6.875800e-01  1.463415e-02
   endloop
 endfacet
 facet normal -2.588190e-01 -9.659258e-01  0.000000e+00
   outer loop
     vertex  1.270596e-01  7.205910e-01  0.000000e+00
     vertex  2.502586e-01  6.875800e-01  1.463415e-02
     vertex  1.270596e-01  7.205910e-01  1.463415e-02
   endloop
 endfacet
 facet normal -2.588190e-01 -9.659258e-01  0.000000e+00
   outer loop
     vertex  1.270596e-01  7.205910e-01  0.000000e+00
     vertex  2.502586e-01  6.875800e-01  0.000000e+00
     vertex  2.502586e-01  6.875800e-01  1.463415e-02
   endloop
 endfacet
 facet normal -8.715574e-02 -9.961947e-01  0.000000e+00
   outer loop
     vertex  4.480415e-17  7.317073e-01  0.000000e+00
     vertex  1.270596e-01  7.205910e-01  1.463415e-02
     vertex  4.480415e-17  7.317073e-01  1.463415e-02
   endloop
 endfacet
 facet normal -8.715574e-02 -9.961947e-01  0.000000e+00
   outer loop
     vertex  4.480415e-17  7.317073e-01  0.000000e+00
     vertex  1.270596e-01  7.205910e-01  0.000000e+00
     vertex  1.270596e-01  7.205910e-01  1.463415e-02
   endloop
 endfacet
 facet normal  8.715574e-02 -9.961947e-01  0.000000e+00
   outer loop
     vertex -1.270596e-01  7.205910e-01  0.000000e+00
     vertex  4.480415e-17  7.317073e-01  1.463415e-02
     vertex -1.270596e-01  7.205910e-01  1.463415e-02
   endloop
 endfacet
 facet normal  8.715574e-02 -9.961947e-01  0.000000e+00
   outer loop
     vertex -1.270596e-01  7.205910e-01  0.000000e+00
     vertex  4.480415e-17  7.317073e-01  0.000000e+00
     vertex  4.480415e-17  7.317073e-01  1.463415e-02
   endloop
 endfacet
 facet normal  2.588190e-01 -9.659258e-01  0.000000e+00
   outer loop
     vertex -2.502586e-01  6.875800e-01  0.000000e+00
     vertex -1.270596e-01  7.205910e-01  1.463415e-02
     vertex -2.502586e-01  6.875800e-01  1.463415e-02
   endloop
 endfacet
 facet normal  2.588190e-01 -9.659258e-01  0.000000e+00
   outer loop
     vertex -2.502586e-01  6.875800e-01  0.000000e+00
     vertex -1.270596e-01  7.205910e-01  0.000000e+00
     vertex -1.270596e-01  7.205910e-01  1.463415e-02
   endloop
 endfacet
 facet normal  4.226183e-01 -9.063078e-01  0.000000e+00
   outer loop
     vertex -3.658537e-01  6.336771e-01  0.000000e+00
     vertex -2.502586e-01  6.875800e-01  1.463415e-02
     vertex -3.658537e-01  6.336771e-01  1.463415e-02
   endloop
 endfacet
 facet normal  4.226183e-01 -9.063078e-01  0.000000e+00
   outer loop
     vertex -3.658537e-01  6.336771e-01  0.000000e+00
     vertex -2.502586e-01  6.875800e-01  0.000000e+00
     vertex -2.502586e-01  6.875800e-01  1.463415e-02
   endloop
 endfacet
 facet normal  5.735764e-01 -8.191520e-01  0.000000e+00
   outer loop
     vertex -4.703324e-01  5.605203e-01  0.000000e+00
     vertex -3.658537e-01  6.336771e-01  1.463415e-02
     vertex -4.703324e-01  5.605203e-01  1.463415e-02
   endloop
 endfacet
 facet normal  5.735764e-01 -8.191520e-01  0.000000e+00
   outer loop
     vertex -4.703324e-01  5.605203e-01  0.000000e+00
     vertex -3.658537e-01  6.336771e-01  0.000000e+00
     vertex -3.658537e-01  6.336771e-01  1.463415e-02
   endloop
 endfacet
 facet normal  7.071068e-01 -7.071068e-01  0.000000e+00
   outer loop
     vertex -5.605203e-01  4.703324e-01  0.000000e+00
     vertex -4.703324e-01  5.605203e-01  1.463415e-02
     vertex -5.605203e-01  4.703324e-01  1.463415e-02
   endloop
 endfacet
 facet normal  7.071068e-01 -7.071068e-01  0.000000e+00
   outer loop
     vertex -5.605203e-01  4.703324e-01  0.000000e+00
     vertex -4.703324e-01  5.605203e-01  0.000000e+00
     vertex -4.703324e-01  5.605203e-01  1.463415e-02
   endloop
 endfacet
 facet normal  8.191520e-01 -5.735764e-01  0.000000e+00
   outer loop
     vertex -6.336771e-01  3.658537e-01  0.000000e+00
     vertex -5.605203e-01  4.703324e-01  1.463415e-02
     vertex -6.336771e-01  3.658537e-01  1.463415e-02
   endloop
 endfacet
 facet normal  8.191520e-01 -5.735764e-01  0.000000e+00
   outer loop
     vertex -6.336771e-01  3.658537e-01  0.000000e+00
     vertex -5.605203e-01  4.703324e-01  0.000000e+00
     vertex -5.605203e-01  4.703324e-01  1.463415e-02
   endloop
 endfacet
 facet normal  9.063078e-01 -4.226183e-01  0.000000e+00
   outer loop
     vertex -6.875800e-01  2.502586e-01  0.000000e+00
     vertex -6.336771e-01  3.658537e-01  1.463415e-02
     vertex -6.875800e-01  2.502586e-01  1.463415e-02
   endloop
 endfacet
 facet normal  9.063078e-01 -4.226183e-01  0.000000e+00
   outer loop
     vertex -6.875800e-01  2.502586e-01  0.000000e+00
     vertex -6.336771e-01  3.658537e-01  0.000000e+00
     vertex -6.336771e-01  3.658537e-01  1.463415e-02
   endloop
 endfacet
 facet normal  9.659258e-01 -2.588190e-01  0.000000e+00
   outer loop
     vertex -7.205910e-01  1.270596e-01  0.000000e+00
     vertex -6.875800e-01  2.502586e-01  1.463415e-02
     vertex -7.205910e-01  1.270596e-01  1.463415e-02
   endloop
 endfacet
 facet normal  9.659258e-01 -2.588190e-01  0.000000e+00
   outer loop
     vertex -7.205910e-01  1.270596e-01  0.000000e+00
     vertex -6.875800e-01  2.502586e-01  0.000000e+00
     vertex -6.875800e-01  2.502586e-01  1.463415e-02
   endloop
 endfacet
 facet normal  9.961947e-01 -8.715574e-02  0.000000e+00
   outer loop
     vertex -7.317073e-01  1.064438e-15  0.000000e+00
     vertex -7.205910e-01  1.270596e-01  1.463415e-02
     vertex -7.317073e-01  1.064438e-15  1.463415e-02
   endloop
 endfacet
 facet normal  9.961947e-01 -8.715574e-02  0.000000e+00
   outer loop
     vertex -7.317073e-01  1.064438e-15  0.000000e+00
     vertex -7.205910e-01  1.270596e-01  0.000000e+00
     vertex -7.205910e-01  1.270596e-01  1.463415e-02
   endloop
 endfacet
 facet normal  9.961947e-01  8.715574e-02 -0.000000e+00
   outer loop
     vertex -7.205910e-01 -1.270596e-01  0.000000e+00
     vertex -7.317073e-01  1.064438e-15  1.463415e-02
     vertex -7.205910e-01 -1.270596e-01  1.463415e-02
   endloop
 endfacet
 facet normal  9.961947e-01  8.715574e-02  0.000000e+00
   outer loop
     vertex -7.205910e-01 -1.270596e-01  0.000000e+00
     vertex -7.317073e-01  1.064438e-15  0.000000e+00
     vertex -7.317073e-01  1.064438e-15  1.463415e-02
   endloop
 endfacet
 facet normal  9.659258e-01  2.588190e-01 -0.000000e+00
   outer loop
     vertex -6.875800e-01 -2.502586e-01  0.000000e+00
     vertex -7.205910e-01 -1.270596e-01  1.463415e-02
     vertex -6.875800e-01 -2.502586e-01  1.463415e-02
   endloop
 endfacet
 facet normal  9.659258e-01  2.588190e-01  0.000000e+00
   outer loop
     vertex -6.875800e-01 -2.502586e-01  0.000000e+00
     vertex -7.205910e-01 -1.270596e-01  0.000000e+00
     vertex -7.205910e-01 -1.270596e-01  1.463415e-02
   endloop
 endfacet
 facet normal  9.063078e-01  4.226183e-01 -0.000000e+00
   outer loop
     vertex -6.336771e-01 -3.658537e-01  0.000000e+00
     vertex -6.875800e-01 -2.502586e-01  1.463415e-02
     vertex -6.336771e-01 -3.658537e-01  1.463415e-02
   endloop
 endfacet
 facet normal  9.063078e-01  4.226183e-01  0.000000e+00
   outer loop
     vertex -6.336771e-01 -3.658537e-01  0.000000e+00
     vertex -6.875800e-01 -2.502586e-01  0.000000e+00
     vertex -6.875800e-01 -2.502586e-01  1.463415e-02
   endloop
 endfacet
 facet normal  8.191520e-01  5.735764e-01 -0.000000e+00
   outer loop
     vertex -5.605203e-01 -4.703324e-01  0.000000e+00
     vertex -6.336771e-01 -3.658537e-01  1.463415e-02
     vertex -5.605203e-01 -4.703324e-01  1.463415e-02
   endloop
 endfacet
 facet normal  8.191520e-01  5.735764e-01  0.000000e+00
   outer loop
     vertex -5.605203e-01 -4.703324e-01  0.000000e+00
     vertex -6.336771e-01 -3.658537e-01  0.000000e+00
     vertex -6.336771e-01 -3.658537e-01  1.463415e-02
   endloop
 endfacet
 facet normal  7.071068e-01  7.071068e-01 -0.000000e+00
   outer loop
     vertex -4.703324e-01 -5.605203e-01  0.000000e+00
     vertex -5.605203e-01 -4.703324e-01  1.463415e-02
     vertex -4.703324e-01 -5.605203e-01  1.463415e-02
   endloop
 endfacet
 facet normal  5.735764e-01  8.191520e-01 -0.000000e+00
   outer loop
     vertex -4.703324e-01 -5.605203e-01  0.000000e+00
     vertex -4.703324e-01 -5.605203e-01  1.463415e-02
     vertex -3.658537e-01 -6.336771e-01  1.463415e-02
   endloop
 endfacet
 facet normal  7.071068e-01  7.071068e-01  0.000000e+00
   outer loop
     vertex -4.703324e-01 -5.605203e-01  0.000000e+00
     vertex -5.605203e-01 -4.703324e-01  0.000000e+00
     vertex -5.605203e-01 -4.703324e-01  1.463415e-02
   endloop
 endfacet
 facet normal  5.735764e-01  8.191520e-01 -0.000000e+00
   outer loop
     vertex -3.658537e-01 -6.336771e-01  0.000000e+00
     vertex -4.703324e-01 -5.605203e-01  0.000000e+00
     vertex -3.658537e-01 -6.336771e-01  1.463415e-02
   endloop
 endfacet
 facet normal  4.226183e-01  9.063078e-01 -0.000000e+00
   outer loop
     vertex -2.502586e-01 -6.875800e-01  0.000000e+00
     vertex -3.658537e-01 -6.336771e-01  1.463415e-02
     vertex -2.502586e-01 -6.875800e-01  1.463415e-02
   endloop
 endfacet
 facet normal  4.226183e-01  9.063078e-01  0.000000e+00
   outer loop
     vertex -2.502586e-01 -6.875800e-01  0.000000e+00
     vertex -3.658537e-01 -6.336771e-01  0.000000e+00
     vertex -3.658537e-01 -6.336771e-01  1.463415e-02
   endloop
 endfacet
 facet normal  2.588190e-01  9.659258e-01 -0.000000e+00
   outer loop
     vertex -1.270596e-01 -7.205910e-01  0.000000e+00
     vertex -2.502586e-01 -6.875800e-01  1.463415e-02
     vertex -1.270596e-01 -7.205910e-01  1.463415e-02
   endloop
 endfacet
 facet normal  2.588190e-01  9.659258e-01  0.000000e+00
   outer loop
     vertex -1.270596e-01 -7.205910e-01  0.000000e+00
     vertex -2.502586e-01 -6.875800e-01  0.000000e+00
     vertex -2.502586e-01 -6.875800e-01  1.463415e-02
   endloop
 endfacet
 facet normal  8.715574e-02  9.961947e-01 -0.000000e+00
   outer loop
     vertex -2.084072e-15 -7.317073e-01  0.000000e+00
     vertex -1.270596e-01 -7.205910e-01  1.463415e-02
     vertex -2.084072e-15 -7.317073e-01  1.463415e-02
   endloop
 endfacet
 facet normal  8.715574e-02  9.961947e-01  0.000000e+00
   outer loop
     vertex -2.084072e-15 -7.317073e-01  0.000000e+00
     vertex -1.270596e-01 -7.205910e-01  0.000000e+00
     vertex -1.270596e-01 -7.205910e-01  1.463415e-02
   endloop
 endfacet
 facet normal -8.715574e-02  9.961947e-01  0.000000e+00
   outer loop
     vertex  1.270596e-01 -7.205910e-01  0.000000e+00
     vertex -2.084072e-15 -7.317073e-01  1.463415e-02
     vertex  1.270596e-01 -7.205910e-01  1.463415e-02
   endloop
 endfacet
 facet normal -8.715574e-02  9.961947e-01  0.000000e+00
   outer loop
     vertex  1.270596e-01 -7.205910e-01  0.000000e+00
     vertex -2.084072e-15 -7.317073e-01  0.000000e+00
     vertex -2.084072e-15 -7.317073e-01  1.463415e-02
   endloop
 endfacet
 facet normal -2.588190e-01  9.659258e-01  0.000000e+00
   outer loop
     vertex  2.502586e-01 -6.875800e-01  0.000000e+00
     vertex  1.270596e-01 -7.205910e-01  1.463415e-02
     vertex  2.502586e-01 -6.875800e-01  1.463415e-02
   endloop
 endfacet
 facet normal -2.588190e-01  9.659258e-01  0.000000e+00
   outer loop
     vertex  2.502586e-01 -6.875800e-01  0.000000e+00
     vertex  1.270596e-01 -7.205910e-01  0.000000e+00
     vertex  1.270596e-01 -7.205910e-01  1.463415e-02
   endloop
 endfacet
 facet normal -4.226183e-01  9.063078e-01  0.000000e+00
   outer loop
     vertex  3.658537e-01 -6.336771e-01  0.000000e+00
     vertex  2.502586e-01 -6.875800e-01  1.463415e-02
     vertex  3.658537e-01 -6.336771e-01  1.463415e-02
   endloop
 endfacet
 facet normal -4.226183e-01  9.063078e-01  0.000000e+00
   outer loop
     vertex  3.658537e-01 -6.336771e-01  0.000000e+00
     vertex  2.502586e-01 -6.875800e-01  0.000000e+00
     vertex  2.502586e-01 -6.875800e-01  1.463415e-02
   endloop
 endfacet
 facet normal -5.735764e-01  8.191520e-01  0.000000e+00
   outer loop
     vertex  4.703324e-01 -5.605203e-01  0.000000e+00
     vertex  3.658537e-01 -6.336771e-01  1.463415e-02
     vertex  4.703324e-01 -5.605203e-01  1.463415e-02
   endloop
 endfacet
 facet normal -5.735764e-01  8.191520e-01  0.000000e+00
   outer loop
     vertex  4.703324e-01 -5.605203e-01  0.000000e+00
     vertex  3.658537e-01 -6.336771e-01  0.000000e+00
     vertex  3.658537e-01 -6.336771e-01  1.463415e-02
   endloop
 endfacet
 facet normal -7.071068e-01  7.071068e-01  0.000000e+00
   outer loop
     vertex  5.605203e-01 -4.703324e-01  0.000000e+00
     vertex  4.703324e-01 -5.605203e-01  0.000000e+00
     vertex  4.703324e-01 -5.605203e-01  1.463415e-02
   endloop
 endfacet
 facet normal -7.071068e-01  7.071068e-01  0.000000e+00
   outer loop
     vertex  5.605203e-01 -4.703324e-01  0.000000e+00
     vertex  4.703324e-01 -5.605203e-01  1.463415e-02
     vertex  5.605203e-01 -4.703324e-01  1.463415e-02
   endloop
 endfacet
 facet normal -8.191520e-01  5.735764e-01  0.000000e+00
   outer loop
     vertex  6.336771e-01 -3.658537e-01  0.000000e+00
     vertex  5.605203e-01 -4.703324e-01  0.000000e+00
     vertex  5.605203e-01 -4.703324e-01  1.463415e-02
   endloop
 endfacet
 facet normal -8.191520e-01  5.735764e-01  0.000000e+00
   outer loop
     vertex  6.336771e-01 -3.658537e-01  0.000000e+00
     vertex  5.605203e-01 -4.703324e-01  1.463415e-02
     vertex  6.336771e-01 -3.658537e-01  1.463415e-02
   endloop
 endfacet
 facet normal -9.063078e-01  4.226183e-01  0.000000e+00
   outer loop
     vertex  6.875800e-01 -2.502586e-01  0.000000e+00
     vertex  6.336771e-01 -3.658537e-01  0.000000e+00
     vertex  6.336771e-01 -3.658537e-01  1.463415e-02
   endloop
 endfacet
 facet normal -9.063078e-01  4.226183e-01  0.000000e+00
   outer loop
     vertex  6.875800e-01 -2.502586e-01  0.000000e+00
     vertex  6.336771e-01 -3.658537e-01  1.463415e-02
     vertex  6.875800e-01 -2.502586e-01  1.463415e-02
   endloop
 endfacet
 facet normal -9.659258e-01  2.588190e-01  0.000000e+00
   outer loop
     vertex  7.205910e-01 -1.270596e-01  0.000000e+00
     vertex  6.875800e-01 -2.502586e-01  0.000000e+00
     vertex  6.875800e-01 -2.502586e-01  1.463415e-02
   endloop
 endfacet
 facet normal -9.659258e-01  2.588190e-01  0.000000e+00
   outer loop
     vertex  7.205910e-01 -1.270596e-01  0.000000e+00
     vertex  6.875800e-01 -2.502586e-01  1.463415e-02
     vertex  7.205910e-01 -1.270596e-01  1.463415e-02
   endloop
 endfacet
 facet normal -9.961947e-01  8.715574e-02  0.000000e+00
   outer loop
     vertex  7.317073e-01  0.000000e+00  0.000000e+00
     vertex  7.205910e-01 -1.270596e-01  0.000000e+00
     vertex  7.205910e-01 -1.270596e-01  1.463415e-02
   endloop
 endfacet
 facet normal -9.961947e-01  8.715574e-02  0.000000e+00
   outer loop
     vertex  7.317073e-01  0.000000e+00  0.000000e+00
     vertex  7.205910e-01 -1.270596e-01  1.463415e-02
     vertex  7.317073e-01  0.000000e+00  1.463415e-02
   endloop
 endfacet
 facet normal  0.000000e+00 -0.000000e+00 -1.000000e+00
   outer loop
     vertex -5.605203e-01 -4.703324e-01  0.000000e+00
     vertex -4.820907e-01 -5.745333e-01  0.000000e+00
     vertex -5.745333e-01 -4.820907e-01  0.000000e+00
   endloop
 endfacet
 facet normal  0.000000e+00  0.000000e+00 -1.000000e+00
   outer loop
     vertex -5.605203e-01 -4.703324e-01  0.000000e+00
     vertex -4.703324e-01 -5.605203e-01  0.000000e+00
     vertex -4.820907e-01 -5.745333e-01  0.000000e+00
   endloop
 endfacet
 facet normal -0.000000e+00  0.000000e+00 -1.000000e+00
   outer loop
     vertex -3.658537e-01 -6.336771e-01  0.000000e+00
     vertex -3.750000e-01 -6.495191e-01  0.000000e+00
     vertex -4.820907e-01 -5.745333e-01  0.000000e+00
   endloop
 endfacet
 facet normal  0.000000e+00  0.000000e+00 -1.000000e+00
   outer loop
     vertex -3.658537e-01 -6.336771e-01  0.000000e+00
     vertex -4.820907e-01 -5.745333e-01  0.000000e+00
     vertex -4.703324e-01 -5.605203e-01  0.000000e+00
   endloop
 endfacet
 facet normal  0.000000e+00 -0.000000e+00 -1.000000e+00
   outer loop
     vertex -6.336771e-01 -3.658537e-01  0.000000e+00
     vertex -5.745333e-01 -4.820907e-01  0.000000e+00
     vertex -6.495191e-01 -3.750000e-01  0.000000e+00
   endloop
 endfacet
 facet normal  0.000000e+00  0.000000e+00 -1.000000e+00
   outer loop
     vertex -6.336771e-01 -3.658537e-01  0.000000e+00
     vertex -5.605203e-01 -4.703324e-01  0.000000e+00
     vertex -5.745333e-01 -4.820907e-01  0.000000e+00
   endloop
 endfacet
 facet normal -0.000000e+00  0.000000e+00 -1.000000e+00
   outer loop
     vertex -2.502586e-01 -6.875800e-01  0.000000e+00
     vertex -2.565151e-01 -7.047695e-01  0.000000e+00
     vertex -3.750000e-01 -6.495191e-01  0.000000e+00
   endloop
 endfacet
 facet normal  0.000000e+00  0.000000e+00 -1.000000e+00
   outer loop
     vertex -2.502586e-01 -6.875800e-01  0.000000e+00
     vertex -3.750000e-01 -6.495191e-01  0.000000e+00
     vertex -3.658537e-01 -6.336771e-01  0.000000e+00
   endloop
 endfacet
 facet normal  0.000000e+00 -0.000000e+00 -1.000000e+00
   outer loop
     vertex -6.875800e-01 -2.502586e-01  0.000000e+00
     vertex -6.495191e-01 -3.750000e-01  0.000000e+00
     vertex -7.047695e-01 -2.565151e-01  0.000000e+00
   endloop
 endfacet
 facet normal  0.000000e+00  0.000000e+00 -1.000000e+00
   outer loop
     vertex -6.875800e-01 -2.502586e-01  0.000000e+00
     vertex -6.336771e-01 -3.658537e-01  0.000000e+00
     vertex -6.495191e-01 -3.750000e-01  0.000000e+00
   endloop
 endfacet
 facet normal -0.000000e+00  0.000000e+00 -1.000000e+00
   outer loop
     vertex -1.270596e-01 -7.205910e-01  0.000000e+00
     vertex -1.302361e-01 -7.386058e-01  0.000000e+00
     vertex -2.565151e-01 -7.047695e-01  0.000000e+00
   endloop
 endfacet
 facet normal  0.000000e+00  0.000000e+00 -1.000000e+00
   outer loop
     vertex -1.270596e-01 -7.205910e-01  0.000000e+00
     vertex -2.565151e-01 -7.047695e-01  0.000000e+00
     vertex -2.502586e-01 -6.875800e-01  0.000000e+00
   endloop
 endfacet
 facet normal  0.000000e+00 -0.000000e+00 -1.000000e+00
   outer loop
     vertex -7.205910e-01 -1.270596e-01  0.000000e+00
     vertex -7.047695e-01 -2.565151e-01  0.000000e+00
     vertex -7.386058e-01 -1.302361e-01  0.000000e+00
   endloop
 endfacet
 facet normal  0.000000e+00  0.000000e+00 -1.000000e+00
   outer loop
     vertex -7.205910e-01 -1.270596e-01  0.000000e+00
     vertex -6.875800e-01 -2.502586e-01  0.000000e+00
     vertex -7.047695e-01 -2.565151e-01  0.000000e+00
   endloop
 endfacet
 facet normal -0.000000e+00  0.000000e+00 -1.000000e+00
   outer loop
     vertex -2.084072e-15 -7.317073e-01  0.000000e+00
     vertex -1.302361e-01 -7.386058e-01  0.000000e+00
     vertex -1.270596e-01 -7.205910e-01  0.000000e+00
   endloop
 endfacet
 facet normal  0.000000e+00  0.000000e+00 -1.000000e+00
   outer loop
     vertex -2.084072e-15 -7.317073e-01  0.000000e+00
     vertex -2.136174e-15 -7.500000e-01  0.000000e+00
     vertex -1.302361e-01 -7.386058e-01  0.000000e+00
   endloop
 endfacet
 facet normal  0.000000e+00 -0.000000e+00 -1.000000e+00
   outer loop
     vertex -7.317073e-01  1.064438e-15  0.000000e+00
     vertex -7.205910e-01 -1.270596e-01  0.000000e+00
     vertex -7.386058e-01 -1.302361e-01  0.000000e+00
   endloop
 endfacet
 facet normal -0.000000e+00  0.000000e+00 -1.000000e+00
   outer loop
     vertex -7.317073e-01  1.064438e-15  0.000000e+00
     vertex -7.386058e-01 -1.302361e-01  0.000000e+00
     vertex -7.500000e-01  1.091049e-15  0.000000e+00
   endloop
 endfacet
 facet normal  0.000000e+00 -0.000000e+00 -1.000000e+00
   outer loop
     vertex  1.270596e-01 -7.205910e-01  0.000000e+00
     vertex  1.302361e-01 -7.386058e-01  0.000000e+00
     vertex -2.136174e-15 -7.500000e-01  0.000000e+00
   endloop
 endfacet
 facet normal  0.000000e+00  0.000000e+00 -1.000000e+00
   outer loop
     vertex  1.270596e-01 -7.205910e-01  0.000000e+00
     vertex -2.136174e-15 -7.500000e-01  0.000000e+00
     vertex -2.084072e-15 -7.317073e-01  0.000000e+00
   endloop
 endfacet
 facet normal -0.000000e+00  0.000000e+00 -1.000000e+00
   outer loop
     vertex -7.205910e-01  1.270596e-01  0.000000e+00
     vertex -7.500000e-01  1.091049e-15  0.000000e+00
     vertex -7.386058e-01  1.302361e-01  0.000000e+00
   endloop
 endfacet
 facet normal  0.000000e+00  0.000000e+00 -1.000000e+00
   outer loop
     vertex -7.205910e-01  1.270596e-01  0.000000e+00
     vertex -7.317073e-01  1.064438e-15  0.000000e+00
     vertex -7.500000e-01  1.091049e-15  0.000000e+00
   endloop
 endfacet
 facet normal  0.000000e+00  0.000000e+00 -1.000000e+00
   outer loop
     vertex  2.502586e-01 -6.875800e-01  0.000000e+00
     vertex  1.302361e-01 -7.386058e-01  0.000000e+00
     vertex  1.270596e-01 -7.205910e-01  0.000000e+00
   endloop
 endfacet
 facet normal  0.000000e+00 -0.000000e+00 -1.000000e+00
   outer loop
     vertex  2.502586e-01 -6.875800e-01  0.000000e+00
     vertex  2.565151e-01 -7.047695e-01  0.000000e+00
     vertex  1.302361e-01 -7.386058e-01  0.000000e+00
   endloop
 endfacet
 facet normal  0.000000e+00  0.000000e+00 -1.000000e+00
   outer loop
     vertex -6.875800e-01  2.502586e-01  0.000000e+00
     vertex -7.205910e-01  1.270596e-01  0.000000e+00
     vertex -7.386058e-01  1.302361e-01  0.000000e+00
   endloop
 endfacet
 facet normal -0.000000e+00  0.000000e+00 -1.000000e+00
   outer loop
     vertex -6.875800e-01  2.502586e-01  0.000000e+00
     vertex -7.386058e-01  1.302361e-01  0.000000e+00
     vertex -7.047695e-01  2.565151e-01  0.000000e+00
   endloop
 endfacet
 facet normal  0.000000e+00  0.000000e+00 -1.000000e+00
   outer loop
     vertex  3.658537e-01 -6.336771e-01  0.000000e+00
     vertex  2.565151e-01 -7.047695e-01  0.000000e+00
     vertex  2.502586e-01 -6.875800e-01  0.000000e+00
   endloop
 endfacet
 facet normal  0.000000e+00 -0.000000e+00 -1.000000e+00
   outer loop
     vertex  3.658537e-01 -6.336771e-01  0.000000e+00
     vertex  3.750000e-01 -6.495191e-01  0.000000e+00
     vertex  2.565151e-01 -7.047695e-01  0.000000e+00
   endloop
 endfacet
 facet normal -0.000000e+00  0.000000e+00 -1.000000e+00
   outer loop
     vertex -6.336771e-01  3.658537e-01  0.000000e+00
     vertex -7.047695e-01  2.565151e-01  0.000000e+00
     vertex -6.495191e-01  3.750000e-01  0.000000e+00
   endloop
 endfacet
 facet normal  0.000000e+00  0.000000e+00 -1.000000e+00
   outer loop
     vertex -6.336771e-01  3.658537e-01  0.000000e+00
     vertex -6.875800e-01  2.502586e-01  0.000000e+00
     vertex -7.047695e-01  2.565151e-01  0.000000e+00
   endloop
 endfacet
 facet normal  0.000000e+00  0.000000e+00 -1.000000e+00
   outer loop
     vertex  4.820907e-01 -5.745333e-01  0.000000e+00
     vertex  3.750000e-01 -6.495191e-01  0.000000e+00
     vertex  3.658537e-01 -6.336771e-01  0.000000e+00
   endloop
 endfacet
 facet normal  0.000000e+00 -0.000000e+00 -1.000000e+00
   outer loop
     vertex  4.703324e-01 -5.605203e-01  0.000000e+00
     vertex  4.820907e-01 -5.745333e-01  0.000000e+00
     vertex  3.658537e-01 -6.336771e-01  0.000000e+00
   endloop
 endfacet
 facet normal -0.000000e+00  0.000000e+00 -1.000000e+00
   outer loop
     vertex -5.605203e-01  4.703324e-01  0.000000e+00
     vertex -6.495191e-01  3.750000e-01  0.000000e+00
     vertex -5.745333e-01  4.820907e-01  0.000000e+00
   endloop
 endfacet
 facet normal  0.000000e+00  0.000000e+00 -1.000000e+00
   outer loop
     vertex -5.605203e-01  4.703324e-01  0.000000e+00
     vertex -6.336771e-01  3.658537e-01  0.000000e+00
     vertex -6.495191e-01  3.750000e-01  0.000000e+00
   endloop
 endfacet
 facet normal  0.000000e+00  0.000000e+00 -1.000000e+00
   outer loop
     vertex  5.745333e-01 -4.820907e-01  0.000000e+00
     vertex  4.820907e-01 -5.745333e-01  0.000000e+00
     vertex  4.703324e-01 -5.605203e-01  0.000000e+00
   endloop
 endfacet
 facet normal -0.000000e+00  0.000000e+00 -1.000000e+00
   outer loop
     vertex  5.745333e-01 -4.820907e-01  0.000000e+00
     vertex  4.703324e-01 -5.605203e-01  0.000000e+00
     vertex  5.605203e-01 -4.703324e-01  0.000000e+00
   endloop
 endfacet
 facet normal  0.000000e+00  0.000000e+00 -1.000000e+00
   outer loop
     vertex -4.820907e-01  5.745333e-01  0.000000e+00
     vertex -5.605203e-01  4.703324e-01  0.000000e+00
     vertex -5.745333e-01  4.820907e-01  0.000000e+00
   endloop
 endfacet
 facet normal  0.000000e+00 -0.000000e+00 -1.000000e+00
   outer loop
     vertex -4.820907e-01  5.745333e-01  0.000000e+00
     vertex -4.703324e-01  5.605203e-01  0.000000e+00
     vertex -5.605203e-01  4.703324e-01  0.000000e+00
   endloop
 endfacet
 facet normal  0.000000e+00  0.000000e+00 -1.000000e+00
   outer loop
     vertex  6.495191e-01 -3.750000e-01  0.000000e+00
     vertex  5.745333e-01 -4.820907e-01  0.000000e+00
     vertex  5.605203e-01 -4.703324e-01  0.000000e+00
   endloop
 endfacet
 facet normal -0.000000e+00  0.000000e+00 -1.000000e+00
   outer loop
     vertex  6.495191e-01 -3.750000e-01  0.000000e+00
     vertex  5.605203e-01 -4.703324e-01  0.000000e+00
     vertex  6.336771e-01 -3.658537e-01  0.000000e+00
   endloop
 endfacet
 facet normal  0.000000e+00  0.000000e+00 -1.000000e+00
   outer loop
     vertex -3.750000e-01  6.495191e-01  0.000000e+00
     vertex -4.703324e-01  5.605203e-01  0.000000e+00
     vertex -4.820907e-01  5.745333e-01  0.000000e+00
   endloop
 endfacet
 facet normal  0.000000e+00 -0.000000e+00 -1.000000e+00
   outer loop
     vertex -3.750000e-01  6.495191e-01  0.000000e+00
     vertex -3.658537e-01  6.336771e-01  0.000000e+00
     vertex -4.703324e-01  5.605203e-01  0.000000e+00
   endloop
 endfacet
 facet normal  0.000000e+00  0.000000e+00 -1.000000e+00
   outer loop
     vertex  7.047695e-01 -2.565151e-01  0.000000e+00
     vertex  6.495191e-01 -3.750000e-01  0.000000e+00
     vertex  6.336771e-01 -3.658537e-01  0.000000e+00
   endloop
 endfacet
 facet normal -0.000000e+00  0.000000e+00 -1.000000e+00
   outer loop
     vertex  7.047695e-01 -2.565151e-01  0.000000e+00
     vertex  6.336771e-01 -3.658537e-01  0.000000e+00
     vertex  6.875800e-01 -2.502586e-01  0.000000e+00
   endloop
 endfacet
 facet normal  0.000000e+00 -0.000000e+00 -1.000000e+00
   outer loop
     vertex -2.565151e-01  7.047695e-01  0.000000e+00
     vertex -2.502586e-01  6.875800e-01  0.000000e+00
     vertex -3.658537e-01  6.336771e-01  0.000000e+00
   endloop
 endfacet
 facet normal  0.000000e+00  0.000000e+00 -1.000000e+00
   outer loop
     vertex -2.565151e-01  7.047695e-01  0.000000e+00
     vertex -3.658537e-01  6.336771e-01  0.000000e+00
     vertex -3.750000e-01  6.495191e-01  0.000000e+00
   endloop
 endfacet
 facet normal  0.000000e+00  0.000000e+00 -1.000000e+00
   outer loop
     vertex  7.386058e-01 -1.302361e-01  0.000000e+00
     vertex  7.047695e-01 -2.565151e-01  0.000000e+00
     vertex  6.875800e-01 -2.502586e-01  0.000000e+00
   endloop
 endfacet
 facet normal -0.000000e+00  0.000000e+00 -1.000000e+00
   outer loop
     vertex  7.386058e-01 -1.302361e-01  0.000000e+00
     vertex  6.875800e-01 -2.502586e-01  0.000000e+00
     vertex  7.205910e-01 -1.270596e-01  0.000000e+00
   endloop
 endfacet
 facet normal  0.000000e+00  0.000000e+00 -1.000000e+00
   outer loop
     vertex -1.302361e-01  7.386058e-01  0.000000e+00
     vertex -2.502586e-01  6.875800e-01  0.000000e+00
     vertex -2.565151e-01  7.047695e-01  0.000000e+00
   endloop
 endfacet
 facet normal  0.000000e+00 -0.000000e+00 -1.000000e+00
   outer loop
     vertex -1.302361e-01  7.386058e-01  0.000000e+00
     vertex -1.270596e-01  7.205910e-01  0.000000e+00
     vertex -2.502586e-01  6.875800e-01  0.000000e+00
   endloop
 endfacet
 facet normal  0.000000e+00 -0.000000e+00 -1.000000e+00
   outer loop
     vertex  7.317073e-01  0.000000e+00  0.000000e+00
     vertex  7.386058e-01 -1.302361e-01  0.000000e+00
     vertex  7.205910e-01 -1.270596e-01  0.000000e+00
   endloop
 endfacet
 facet normal -0.000000e+00  0.000000e+00 -1.000000e+00
   outer loop
     vertex  4.480415e-17  7.317073e-01  0.000000e+00
     vertex -1.270596e-01  7.205910e-01  0.000000e+00
     vertex -1.302361e-01  7.386058e-01  0.000000e+00
   endloop
 endfacet
 facet normal -0.000000e+00  0.000000e+00 -1.000000e+00
   outer loop
     vertex  7.500000e-01  0.000000e+00  0.000000e+00
     vertex  7.386058e-01 -1.302361e-01  0.000000e+00
     vertex  7.317073e-01  0.000000e+00  0.000000e+00
   endloop
 endfacet
 facet normal  0.000000e+00  0.000000e+00 -1.000000e+00
   outer loop
     vertex  4.592425e-17  7.500000e-01  0.000000e+00
     vertex  4.480415e-17  7.317073e-01  0.000000e+00
     vertex -1.302361e-01  7.386058e-01  0.000000e+00
   endloop
 endfacet
 facet normal  0.000000e+00  0.000000e+00 -1.000000e+00
   outer loop
     vertex  7.386058e-01  1.302361e-01  0.000000e+00
     vertex  7.317073e-01  0.000000e+00  0.000000e+00
     vertex  7.205910e-01  1.270596e-01  0.000000e+00
   endloop
 endfacet
 facet normal  0.000000e+00 -0.000000e+00 -1.000000e+00
   outer loop
     vertex  7.386058e-01  1.302361e-01  0.000000e+00
     vertex  7.500000e-01  0.000000e+00  0.000000e+00
     vertex  7.317073e-01  0.000000e+00  0.000000e+00
   endloop
 endfacet
 facet normal  0.000000e+00  0.000000e+00 -1.000000e+00
   outer loop
     vertex  1.302361e-01  7.386058e-01  0.000000e+00
     vertex  1.270596e-01  7.205910e-01  0.000000e+00
     vertex  4.480415e-17  7.317073e-01  0.000000e+00
   endloop
 endfacet
 facet normal -0.000000e+00  0.000000e+00 -1.000000e+00
   outer loop
     vertex  1.302361e-01  7.386058e-01  0.000000e+00
     vertex  4.480415e-17  7.317073e-01  0.000000e+00
     vertex  4.592425e-17  7.500000e-01  0.000000e+00
   endloop
 endfacet
 facet normal  0.000000e+00  0.000000e+00 -1.000000e+00
   outer loop
     vertex  2.502586e-01  6.875800e-01  0.000000e+00
     vertex  1.270596e-01  7.205910e-01  0.000000e+00
     vertex  1.302361e-01  7.386058e-01  0.000000e+00
   endloop
 endfacet
 facet normal  0.000000e+00 -0.000000e+00 -1.000000e+00
   outer loop
     vertex  7.047695e-01  2.565151e-01  0.000000e+00
     vertex  7.205910e-01  1.270596e-01  0.000000e+00
     vertex  6.875800e-01  2.502586e-01  0.000000e+00
   endloop
 endfacet
 facet normal  0.000000e+00  0.000000e+00 -1.000000e+00
   outer loop
     vertex  7.047695e-01  2.565151e-01  0.000000e+00
     vertex  7.386058e-01  1.302361e-01  0.000000e+00
     vertex  7.205910e-01  1.270596e-01  0.000000e+00
   endloop
 endfacet
 facet normal -0.000000e+00  0.000000e+00 -1.000000e+00
   outer loop
     vertex  2.565151e-01  7.047695e-01  0.000000e+00
     vertex  2.502586e-01  6.875800e-01  0.000000e+00
     vertex  1.302361e-01  7.386058e-01  0.000000e+00
   endloop
 endfacet
 facet normal  0.000000e+00  0.000000e+00 -1.000000e+00
   outer loop
     vertex  6.336771e-01  3.658537e-01  0.000000e+00
     vertex  7.047695e-01  2.565151e-01  0.000000e+00
     vertex  6.875800e-01  2.502586e-01  0.000000e+00
   endloop
 endfacet
 facet normal  0.000000e+00  0.000000e+00 -1.000000e+00
   outer loop
     vertex  3.750000e-01  6.495191e-01  0.000000e+00
     vertex  2.502586e-01  6.875800e-01  0.000000e+00
     vertex  2.565151e-01  7.047695e-01  0.000000e+00
   endloop
 endfacet
 facet normal -0.000000e+00  0.000000e+00 -1.000000e+00
   outer loop
     vertex  3.750000e-01  6.495191e-01  0.000000e+00
     vertex  3.658537e-01  6.336771e-01  0.000000e+00
     vertex  2.502586e-01  6.875800e-01  0.000000e+00
   endloop
 endfacet
 facet normal  0.000000e+00 -0.000000e+00 -1.000000e+00
   outer loop
     vertex  6.495191e-01  3.750000e-01  0.000000e+00
     vertex  7.047695e-01  2.565151e-01  0.000000e+00
     vertex  6.336771e-01  3.658537e-01  0.000000e+00
   endloop
 endfacet
 facet normal  0.000000e+00  0.000000e+00 -1.000000e+00
   outer loop
     vertex  4.703324e-01  5.605203e-01  0.000000e+00
     vertex  3.658537e-01  6.336771e-01  0.000000e+00
     vertex  3.750000e-01  6.495191e-01  0.000000e+00
   endloop
 endfacet
 facet normal  0.000000e+00  0.000000e+00 -1.000000e+00
   outer loop
     vertex  5.605203e-01  4.703324e-01  0.000000e+00
     vertex  6.495191e-01  3.750000e-01  0.000000e+00
     vertex  6.336771e-01  3.658537e-01  0.000000e+00
   endloop
 endfacet
 facet normal -0.000000e+00  0.000000e+00 -1.000000e+00
   outer loop
     vertex  4.820907e-01  5.745333e-01  0.000000e+00
     vertex  4.703324e-01  5.605203e-01  0.000000e+00
     vertex  3.750000e-01  6.495191e-01  0.000000e+00
   endloop
 endfacet
 facet normal  0.000000e+00 -0.000000e+00 -1.000000e+00
   outer loop
     vertex  5.745333e-01  4.820907e-01  0.000000e+00
     vertex  6.495191e-01  3.750000e-01  0.000000e+00
     vertex  5.605203e-01  4.703324e-01  0.000000e+00
   endloop
 endfacet
 facet normal  0.000000e+00  0.000000e+00 -1.000000e+00
   outer loop
     vertex  5.745333e-01  4.820907e-01  0.000000e+00
     vertex  4.703324e-01  5.605203e-01  0.000000e+00
     vertex  4.820907e-01  5.745333e-01  0.000000e+00
   endloop
 endfacet
 facet normal -0.000000e+00  0.000000e+00 -1.000000e+00
   outer loop
     vertex  5.745333e-01  4.820907e-01  0.000000e+00
     vertex  5.605203e-01  4.703324e-01  0.000000e+00
     vertex  4.703324e-01  5.605203e-01  0.000000e+00
   endloop
 endfacet
 facet normal  0.000000e+00  0.000000e+00  1.000000e+00
   outer loop
     vertex -5.605203e-01 -4.703324e-01  1.463415e-02
     vertex -5.745333e-01 -4.820907e-01  1.463415e-02
     vertex -4.820907e-01 -5.745333e-01  1.463415e-02
   endloop
 endfacet
 facet normal  0.000000e+00  0.000000e+00  1.000000e+00
   outer loop
     vertex -5.605203e-01 -4.703324e-01  1.463415e-02
     vertex -4.820907e-01 -5.745333e-01  1.463415e-02
     vertex -4.703324e-01 -5.605203e-01  1.463415e-02
   endloop
 endfacet
 facet normal  0.000000e+00  0.000000e+00  1.000000e+00
   outer loop
     vertex -3.658537e-01 -6.336771e-01  1.463415e-02
     vertex -4.820907e-01 -5.745333e-01  1.463415e-02
     vertex -3.750000e-01 -6.495191e-01  1.463415e-02
   endloop
 endfacet
 facet normal  0.000000e+00  0.000000e+00  1.000000e+00
   outer loop
     vertex -3.658537e-01 -6.336771e-01  1.463415e-02
     vertex -4.703324e-01 -5.605203e-01  1.463415e-02
     vertex -4.820907e-01 -5.745333e-01  1.463415e-02
   endloop
 endfacet
 facet normal  0.000000e+00  0.000000e+00  1.000000e+00
   outer loop
     vertex -6.336771e-01 -3.658537e-01  1.463415e-02
     vertex -6.495191e-01 -3.750000e-01  1.463415e-02
     vertex -5.745333e-01 -4.820907e-01  1.463415e-02
   endloop
 endfacet
 facet normal  0.000000e+00  0.000000e+00  1.000000e+00
   outer loop
     vertex -6.336771e-01 -3.658537e-01  1.463415e-02
     vertex -5.745333e-01 -4.820907e-01  1.463415e-02
     vertex -5.605203e-01 -4.703324e-01  1.463415e-02
   endloop
 endfacet
 facet normal  0.000000e+00  0.000000e+00  1.000000e+00
   outer loop
     vertex -2.502586e-01 -6.875800e-01  1.463415e-02
     vertex -3.750000e-01 -6.495191e-01  1.463415e-02
     vertex -2.565151e-01 -7.047695e-01  1.463415e-02
   endloop
 endfacet
 facet normal  0.000000e+00  0.000000e+00  1.000000e+00
   outer loop
     vertex -2.502586e-01 -6.875800e-01  1.463415e-02
     vertex -3.658537e-01 -6.336771e-01  1.463415e-02
     vertex -3.750000e-01 -6.495191e-01  1.463415e-02
   endloop
 endfacet
 facet normal  0.000000e+00  0.000000e+00  1.000000e+00
   outer loop
     vertex -6.875800e-01 -2.502586e-01  1.463415e-02
     vertex -7.047695e-01 -2.565151e-01  1.463415e-02
     vertex -6.495191e-01 -3.750000e-01  1.463415e-02
   endloop
 endfacet
 facet normal  0.000000e+00  0.000000e+00  1.000000e+00
   outer loop
     vertex -6.875800e-01 -2.502586e-01  1.463415e-02
     vertex -6.495191e-01 -3.750000e-01  1.463415e-02
     vertex -6.336771e-01 -3.658537e-01  1.463415e-02
   endloop
 endfacet
 facet normal  0.000000e+00  0.000000e+00  1.000000e+00
   outer loop
     vertex -1.270596e-01 -7.205910e-01  1.463415e-02
     vertex -2.565151e-01 -7.047695e-01  1.463415e-02
     vertex -1.302361e-01 -7.386058e-01  1.463415e-02
   endloop
 endfacet
 facet normal  0.000000e+00  0.000000e+00  1.000000e+00
   outer loop
     vertex -1.270596e-01 -7.205910e-01  1.463415e-02
     vertex -2.502586e-01 -6.875800e-01  1.463415e-02
     vertex -2.565151e-01 -7.047695e-01  1.463415e-02
   endloop
 endfacet
 facet normal  0.000000e+00  0.000000e+00  1.000000e+00
   outer loop
     vertex -7.205910e-01 -1.270596e-01  1.463415e-02
     vertex -7.386058e-01 -1.302361e-01  1.463415e-02
     vertex -7.047695e-01 -2.565151e-01  1.463415e-02
   endloop
 endfacet
 facet normal  0.000000e+00  0.000000e+00  1.000000e+00
   outer loop
     vertex -7.205910e-01 -1.270596e-01  1.463415e-02
     vertex -7.047695e-01 -2.565151e-01  1.463415e-02
     vertex -6.875800e-01 -2.502586e-01  1.463415e-02
   endloop
 endfacet
 facet normal  0.000000e+00  0.000000e+00  1.000000e+00
   outer loop
     vertex -2.084072e-15 -7.317073e-01  1.463415e-02
     vertex -1.270596e-01 -7.205910e-01  1.463415e-02
     vertex -1.302361e-01 -7.386058e-01  1.463415e-02
   endloop
 endfacet
 facet normal  0.000000e+00  0.000000e+00  1.000000e+00
   outer loop
     vertex -2.084072e-15 -7.317073e-01  1.463415e-02
     vertex -1.302361e-01 -7.386058e-01  1.463415e-02
     vertex -2.136174e-15 -7.500000e-01  1.463415e-02
   endloop
 endfacet
 facet normal  0.000000e+00  0.000000e+00  1.000000e+00
   outer loop
     vertex -7.317073e-01  1.064438e-15  1.463415e-02
     vertex -7.386058e-01 -1.302361e-01  1.463415e-02
     vertex -7.205910e-01 -1.270596e-01  1.463415e-02
   endloop
 endfacet
 facet normal  0.000000e+00  0.000000e+00  1.000000e+00
   outer loop
     vertex -7.317073e-01  1.064438e-15  1.463415e-02
     vertex -7.500000e-01  1.091049e-15  1.463415e-02
     vertex -7.386058e-01 -1.302361e-01  1.463415e-02
   endloop
 endfacet
 facet normal  0.000000e+00  0.000000e+00  1.000000e+00
   outer loop
     vertex  1.270596e-01 -7.205910e-01  1.463415e-02
     vertex -2.136174e-15 -7.500000e-01  1.463415e-02
     vertex  1.302361e-01 -7.386058e-01  1.463415e-02
   endloop
 endfacet
 facet normal  0.000000e+00  0.000000e+00  1.000000e+00
   outer loop
     vertex  1.270596e-01 -7.205910e-01  1.463415e-02
     vertex -2.084072e-15 -7.317073e-01  1.463415e-02
     vertex -2.136174e-15 -7.500000e-01  1.463415e-02
   endloop
 endfacet
 facet normal  0.000000e+00  0.000000e+00  1.000000e+00
   outer loop
     vertex -7.205910e-01  1.270596e-01  1.463415e-02
     vertex -7.386058e-01  1.302361e-01  1.463415e-02
     vertex -7.500000e-01  1.091049e-15  1.463415e-02
   endloop
 endfacet
 facet normal  0.000000e+00  0.000000e+00  1.000000e+00
   outer loop
     vertex -7.205910e-01  1.270596e-01  1.463415e-02
     vertex -7.500000e-01  1.091049e-15  1.463415e-02
     vertex -7.317073e-01  1.064438e-15  1.463415e-02
   endloop
 endfacet
 facet normal  0.000000e+00  0.000000e+00  1.000000e+00
   outer loop
     vertex  2.502586e-01 -6.875800e-01  1.463415e-02
     vertex  1.270596e-01 -7.205910e-01  1.463415e-02
     vertex  1.302361e-01 -7.386058e-01  1.463415e-02
   endloop
 endfacet
 facet normal  0.000000e+00  0.000000e+00  1.000000e+00
   outer loop
     vertex  2.502586e-01 -6.875800e-01  1.463415e-02
     vertex  1.302361e-01 -7.386058e-01  1.463415e-02
     vertex  2.565151e-01 -7.047695e-01  1.463415e-02
   endloop
 endfacet
 facet normal  0.000000e+00  0.000000e+00  1.000000e+00
   outer loop
     vertex -6.875800e-01  2.502586e-01  1.463415e-02
     vertex -7.386058e-01  1.302361e-01  1.463415e-02
     vertex -7.205910e-01  1.270596e-01  1.463415e-02
   endloop
 endfacet
 facet normal  0.000000e+00  0.000000e+00  1.000000e+00
   outer loop
     vertex -6.875800e-01  2.502586e-01  1.463415e-02
     vertex -7.047695e-01  2.565151e-01  1.463415e-02
     vertex -7.386058e-01  1.302361e-01  1.463415e-02
   endloop
 endfacet
 facet normal  0.000000e+00  0.000000e+00  1.000000e+00
   outer loop
     vertex  3.658537e-01 -6.336771e-01  1.463415e-02
     vertex  2.502586e-01 -6.875800e-01  1.463415e-02
     vertex  2.565151e-01 -7.047695e-01  1.463415e-02
   endloop
 endfacet
 facet normal  0.000000e+00  0.000000e+00  1.000000e+00
   outer loop
     vertex  3.658537e-01 -6.336771e-01  1.463415e-02
     vertex  2.565151e-01 -7.047695e-01  1.463415e-02
     vertex  3.750000e-01 -6.495191e-01  1.463415e-02
   endloop
 endfacet
 facet normal  0.000000e+00  0.000000e+00  1.000000e+00
   outer loop
     vertex -6.336771e-01  3.658537e-01  1.463415e-02
     vertex -6.495191e-01  3.750000e-01  1.463415e-02
     vertex -7.047695e-01  2.565151e-01  1.463415e-02
   endloop
 endfacet
 facet normal  0.000000e+00  0.000000e+00  1.000000e+00
   outer loop
     vertex -6.336771e-01  3.658537e-01  1.463415e-02
     vertex -7.047695e-01  2.565151e-01  1.463415e-02
     vertex -6.875800e-01  2.502586e-01  1.463415e-02
   endloop
 endfacet
 facet normal  0.000000e+00  0.000000e+00  1.000000e+00
   outer loop
     vertex  4.820907e-01 -5.745333e-01  1.463415e-02
     vertex  3.658537e-01 -6.336771e-01  1.463415e-02
     vertex  3.750000e-01 -6.495191e-01  1.463415e-02
   endloop
 endfacet
 facet normal  0.000000e+00  0.000000e+00  1.000000e+00
   outer loop
     vertex  4.703324e-01 -5.605203e-01  1.463415e-02
     vertex  3.658537e-01 -6.336771e-01  1.463415e-02
     vertex  4.820907e-01 -5.745333e-01  1.463415e-02
   endloop
 endfacet
 facet normal  0.000000e+00  0.000000e+00  1.000000e+00
   outer loop
     vertex -5.605203e-01  4.703324e-01  1.463415e-02
     vertex -5.745333e-01  4.820907e-01  1.463415e-02
     vertex -6.495191e-01  3.750000e-01  1.463415e-02
   endloop
 endfacet
 facet normal  0.000000e+00  0.000000e+00  1.000000e+00
   outer loop
     vertex -5.605203e-01  4.703324e-01  1.463415e-02
     vertex -6.495191e-01  3.750000e-01  1.463415e-02
     vertex -6.336771e-01  3.658537e-01  1.463415e-02
   endloop
 endfacet
 facet normal  0.000000e+00  0.000000e+00  1.000000e+00
   outer loop
     vertex  5.745333e-01 -4.820907e-01  1.463415e-02
     vertex  4.703324e-01 -5.605203e-01  1.463415e-02
     vertex  4.820907e-01 -5.745333e-01  1.463415e-02
   endloop
 endfacet
 facet normal  0.000000e+00  0.000000e+00  1.000000e+00
   outer loop
     vertex  5.745333e-01 -4.820907e-01  1.463415e-02
     vertex  5.605203e-01 -4.703324e-01  1.463415e-02
     vertex  4.703324e-01 -5.605203e-01  1.463415e-02
   endloop
 endfacet
 facet normal  0.000000e+00  0.000000e+00  1.000000e+00
   outer loop
     vertex -4.820907e-01  5.745333e-01  1.463415e-02
     vertex -5.745333e-01  4.820907e-01  1.463415e-02
     vertex -5.605203e-01  4.703324e-01  1.463415e-02
   endloop
 endfacet
 facet normal  0.000000e+00  0.000000e+00  1.000000e+00
   outer loop
     vertex -4.820907e-01  5.745333e-01  1.463415e-02
     vertex -5.605203e-01  4.703324e-01  1.463415e-02
     vertex -4.703324e-01  5.605203e-01  1.463415e-02
   endloop
 endfacet
 facet normal  0.000000e+00  0.000000e+00  1.000000e+00
   outer loop
     vertex  6.495191e-01 -3.750000e-01  1.463415e-02
     vertex  5.605203e-01 -4.703324e-01  1.463415e-02
     vertex  5.745333e-01 -4.820907e-01  1.463415e-02
   endloop
 endfacet
 facet normal  0.000000e+00  0.000000e+00  1.000000e+00
   outer loop
     vertex  6.495191e-01 -3.750000e-01  1.463415e-02
     vertex  6.336771e-01 -3.658537e-01  1.463415e-02
     vertex  5.605203e-01 -4.703324e-01  1.463415e-02
   endloop
 endfacet
 facet normal  0.000000e+00  0.000000e+00  1.000000e+00
   outer loop
     vertex -3.750000e-01  6.495191e-01  1.463415e-02
     vertex -4.820907e-01  5.745333e-01  1.463415e-02
     vertex -4.703324e-01  5.605203e-01  1.463415e-02
   endloop
 endfacet
 facet normal  0.000000e+00  0.000000e+00  1.000000e+00
   outer loop
     vertex -3.750000e-01  6.495191e-01  1.463415e-02
     vertex -4.703324e-01  5.605203e-01  1.463415e-02
     vertex -3.658537e-01  6.336771e-01  1.463415e-02
   endloop
 endfacet
 facet normal  0.000000e+00  0.000000e+00  1.000000e+00
   outer loop
     vertex  7.047695e-01 -2.565151e-01  1.463415e-02
     vertex  6.336771e-01 -3.658537e-01  1.463415e-02
     vertex  6.495191e-01 -3.750000e-01  1.463415e-02
   endloop
 endfacet
 facet normal  0.000000e+00  0.000000e+00  1.000000e+00
   outer loop
     vertex  7.047695e-01 -2.565151e-01  1.463415e-02
     vertex  6.875800e-01 -2.502586e-01  1.463415e-02
     vertex  6.336771e-01 -3.658537e-01  1.463415e-02
   endloop
 endfacet
 facet normal  0.000000e+00  0.000000e+00  1.000000e+00
   outer loop
     vertex -2.565151e-01  7.047695e-01  1.463415e-02
     vertex -3.658537e-01  6.336771e-01  1.463415e-02
     vertex -2.502586e-01  6.875800e-01  1.463415e-02
   endloop
 endfacet
 facet normal  0.000000e+00  0.000000e+00  1.000000e+00
   outer loop
     vertex -2.565151e-01  7.047695e-01  1.463415e-02
     vertex -3.750000e-01  6.495191e-01  1.463415e-02
     vertex -3.658537e-01  6.336771e-01  1.463415e-02
   endloop
 endfacet
 facet normal  0.000000e+00  0.000000e+00  1.000000e+00
   outer loop
     vertex  7.386058e-01 -1.302361e-01  1.463415e-02
     vertex  6.875800e-01 -2.502586e-01  1.463415e-02
     vertex  7.047695e-01 -2.565151e-01  1.463415e-02
   endloop
 endfacet
 facet normal  0.000000e+00  0.000000e+00  1.000000e+00
   outer loop
     vertex  7.386058e-01 -1.302361e-01  1.463415e-02
     vertex  7.205910e-01 -1.270596e-01  1.463415e-02
     vertex  6.875800e-01 -2.502586e-01  1.463415e-02
   endloop
 endfacet
 facet normal  0.000000e+00  0.000000e+00  1.000000e+00
   outer loop
     vertex -1.302361e-01  7.386058e-01  1.463415e-02
     vertex -2.565151e-01  7.047695e-01  1.463415e-02
     vertex -2.502586e-01  6.875800e-01  1.463415e-02
   endloop
 endfacet
 facet normal  0.000000e+00  0.000000e+00  1.000000e+00
   outer loop
     vertex -1.302361e-01  7.386058e-01  1.463415e-02
     vertex -2.502586e-01  6.875800e-01  1.463415e-02
     vertex -1.270596e-01  7.205910e-01  1.463415e-02
   endloop
 endfacet
 facet normal  0.000000e+00  0.000000e+00  1.000000e+00
   outer loop
     vertex  7.317073e-01  0.000000e+00  1.463415e-02
     vertex  7.205910e-01 -1.270596e-01  1.463415e-02
     vertex  7.386058e-01 -1.302361e-01  1.463415e-02
   endloop
 endfacet
 facet normal  0.000000e+00  0.000000e+00  1.000000e+00
   outer loop
     vertex  4.480415e-17  7.317073e-01  1.463415e-02
     vertex -1.302361e-01  7.386058e-01  1.463415e-02
     vertex -1.270596e-01  7.205910e-01  1.463415e-02
   endloop
 endfacet
 facet normal  0.000000e+00  0.000000e+00  1.000000e+00
   outer loop
     vertex  7.500000e-01  0.000000e+00  1.463415e-02
     vertex  7.317073e-01  0.000000e+00  1.463415e-02
     vertex  7.386058e-01 -1.302361e-01  1.463415e-02
   endloop
 endfacet
 facet normal  0.000000e+00  0.000000e+00  1.000000e+00
   outer loop
     vertex  4.592425e-17  7.500000e-01  1.463415e-02
     vertex -1.302361e-01  7.386058e-01  1.463415e-02
     vertex  4.480415e-17  7.317073e-01  1.463415e-02
   endloop
 endfacet
 facet normal  0.000000e+00  0.000000e+00  1.000000e+00
   outer loop
     vertex  7.386058e-01  1.302361e-01  1.463415e-02
     vertex  7.205910e-01  1.270596e-01  1.463415e-02
     vertex  7.317073e-01  0.000000e+00  1.463415e-02
   endloop
 endfacet
 facet normal  0.000000e+00  0.000000e+00  1.000000e+00
   outer loop
     vertex  7.386058e-01  1.302361e-01  1.463415e-02
     vertex  7.317073e-01  0.000000e+00  1.463415e-02
     vertex  7.500000e-01  0.000000e+00  1.463415e-02
   endloop
 endfacet
 facet normal  0.000000e+00  0.000000e+00  1.000000e+00
   outer loop
     vertex  1.302361e-01  7.386058e-01  1.463415e-02
     vertex  4.480415e-17  7.317073e-01  1.463415e-02
     vertex  1.270596e-01  7.205910e-01  1.463415e-02
   endloop
 endfacet
 facet normal  0.000000e+00  0.000000e+00  1.000000e+00
   outer loop
     vertex  1.302361e-01  7.386058e-01  1.463415e-02
     vertex  4.592425e-17  7.500000e-01  1.463415e-02
     vertex  4.480415e-17  7.317073e-01  1.463415e-02
   endloop
 endfacet
 facet normal  0.000000e+00  0.000000e+00  1.000000e+00
   outer loop
     vertex  2.502586e-01  6.875800e-01  1.463415e-02
     vertex  1.302361e-01  7.386058e-01  1.463415e-02
     vertex  1.270596e-01  7.205910e-01  1.463415e-02
   endloop
 endfacet
 facet normal  0.000000e+00  0.000000e+00  1.000000e+00
   outer loop
     vertex  7.047695e-01  2.565151e-01  1.463415e-02
     vertex  6.875800e-01  2.502586e-01  1.463415e-02
     vertex  7.205910e-01  1.270596e-01  1.463415e-02
   endloop
 endfacet
 facet normal  0.000000e+00  0.000000e+00  1.000000e+00
   outer loop
     vertex  7.047695e-01  2.565151e-01  1.463415e-02
     vertex  7.205910e-01  1.270596e-01  1.463415e-02
     vertex  7.386058e-01  1.302361e-01  1.463415e-02
   endloop
 endfacet
 facet normal  0.000000e+00  0.000000e+00  1.000000e+00
   outer loop
     vertex  2.565151e-01  7.047695e-01  1.463415e-02
     vertex  1.302361e-01  7.386058e-01  1.463415e-02
     vertex  2.502586e-01  6.875800e-01  1.463415e-02
   endloop
 endfacet
 facet normal  0.000000e+00  0.000000e+00  1.000000e+00
   outer loop
     vertex  6.336771e-01  3.658537e-01  1.463415e-02
     vertex  6.875800e-01  2.502586e-01  1.463415e-02
     vertex  7.047695e-01  2.565151e-01  1.463415e-02
   endloop
 endfacet
 facet normal  0.000000e+00  0.000000e+00  1.000000e+00
   outer loop
     vertex  3.750000e-01  6.495191e-01  1.463415e-02
     vertex  2.565151e-01  7.047695e-01  1.463415e-02
     vertex  2.502586e-01  6.875800e-01  1.463415e-02
   endloop
 endfacet
 facet normal  0.000000e+00  0.000000e+00  1.000000e+00
   outer loop
     vertex  3.750000e-01  6.495191e-01  1.463415e-02
     vertex  2.502586e-01  6.875800e-01  1.463415e-02
     vertex  3.658537e-01  6.336771e-01  1.463415e-02
   endloop
 endfacet
 facet normal  0.000000e+00  0.000000e+00  1.000000e+00
   outer loop
     vertex  6.495191e-01  3.750000e-01  1.463415e-02
     vertex  6.336771e-01  3.658537e-01  1.463415e-02
     vertex  7.047695e-01  2.565151e-01  1.463415e-02
   endloop
 endfacet
 facet normal  0.000000e+00  0.000000e+00  1.000000e+00
   outer loop
     vertex  4.703324e-01  5.605203e-01  1.463415e-02
     vertex  3.750000e-01  6.495191e-01  1.463415e-02
     vertex  3.658537e-01  6.336771e-01  1.463415e-02
   endloop
 endfacet
 facet normal  0.000000e+00  0.000000e+00  1.000000e+00
   outer loop
     vertex  5.605203e-01  4.703324e-01  1.463415e-02
     vertex  6.336771e-01  3.658537e-01  1.463415e-02
     vertex  6.495191e-01  3.750000e-01  1.463415e-02
   endloop
 endfacet
 facet normal  0.000000e+00  0.000000e+00  1.000000e+00
   outer loop
     vertex  4.820907e-01  5.745333e-01  1.463415e-02
     vertex  3.750000e-01  6.495191e-01  1.463415e-02
     vertex  4.703324e-01  5.605203e-01  1.463415e-02
   endloop
 endfacet
 facet normal  0.000000e+00  0.000000e+00  1.000000e+00
   outer loop
     vertex  5.745333e-01  4.820907e-01  1.463415e-02
     vertex  5.605203e-01  4.703324e-01  1.463415e-02
     vertex  6.495191e-01  3.750000e-01  1.463415e-02
   endloop
 endfacet
 facet normal  0.000000e+00  0.000000e+00  1.000000e+00
   outer loop
     vertex  5.745333e-01  4.820907e-01  1.463415e-02
     vertex  4.820907e-01  5.745333e-01  1.463415e-02
     vertex  4.703324e-01  5.605203e-01  1.463415e-02
   endloop
 endfacet
 facet normal  0.000000e+00  0.000000e+00  1.000000e+00
   outer loop
     vertex  5.745333e-01  4.820907e-01  1.463415e-02
     vertex  4.703324e-01  5.605203e-01  1.463415e-02
     vertex  5.605203e-01  4.703324e-01  1.463415e-02
   endloop
 endfacet
endsolid
