solid 
 facet normal  0.000000e+00 -1.000000e+00  0.000000e+00
   outer loop
     vertex  5.375000e-01 -1.750000e-01 -1.071566e-17
     vertex -5.375000e-01 -1.750000e-01  2.500000e-02
     vertex -5.375000e-01 -1.750000e-01 -1.071566e-17
   endloop
 endfacet
 facet normal  0.000000e+00 -1.000000e+00  0.000000e+00
   outer loop
     vertex  5.375000e-01 -1.750000e-01 -1.071566e-17
     vertex  5.375000e-01 -1.750000e-01  2.500000e-02
     vertex -5.375000e-01 -1.750000e-01  2.500000e-02
   endloop
 endfacet
 facet normal  0.000000e+00 -1.000000e+00  0.000000e+00
   outer loop
     vertex -5.375000e-01 -1.750000e-01 -1.071566e-17
     vertex -5.875000e-01 -1.750000e-01  2.500000e-02
     vertex -5.875000e-01 -1.750000e-01 -1.071566e-17
   endloop
 endfacet
 facet normal  0.000000e+00 -1.000000e+00  0.000000e+00
   outer loop
     vertex -5.375000e-01 -1.750000e-01 -1.071566e-17
     vertex -5.375000e-01 -1.750000e-01  2.500000e-02
     vertex -5.875000e-01 -1.750000e-01  2.500000e-02
   endloop
 endfacet
 facet normal  0.000000e+00 -1.000000e+00  0.000000e+00
   outer loop
     vertex  5.875000e-01 -1.750000e-01 -1.071566e-17
     vertex  5.375000e-01 -1.750000e-01  2.500000e-02
     vertex  5.375000e-01 -1.750000e-01 -1.071566e-17
   endloop
 endfacet
 facet normal  0.000000e+00 -1.000000e+00  0.000000e+00
   outer loop
     vertex  5.875000e-01 -1.750000e-01 -1.071566e-17
     vertex  5.875000e-01 -1.750000e-01  2.500000e-02
     vertex  5.375000e-01 -1.750000e-01  2.500000e-02
   endloop
 endfacet
 facet normal  0.000000e+00  6.123234e-17 -1.000000e+00
   outer loop
     vertex  5.375000e-01 -1.750000e-01 -1.071566e-17
     vertex -5.375000e-01 -1.750000e-01 -1.071566e-17
     vertex -5.375000e-01  1.750000e-01  1.071566e-17
   endloop
 endfacet
 facet normal -1.477162e-34  6.123234e-17 -1.000000e+00
   outer loop
     vertex  5.375000e-01  1.750000e-01  1.071566e-17
     vertex  5.375000e-01 -1.750000e-01 -1.071566e-17
     vertex -5.375000e-01  1.750000e-01  1.071566e-17
   endloop
 endfacet
 facet normal  0.000000e+00 -5.947623e-17  1.000000e+00
   outer loop
     vertex  5.375000e-01 -1.750000e-01  2.500000e-02
     vertex -5.375000e-01  1.750000e-01  2.500000e-02
     vertex -5.375000e-01 -1.750000e-01  2.500000e-02
   endloop
 endfacet
 facet normal  3.227393e-18 -4.956353e-17  1.000000e+00
   outer loop
     vertex  5.375000e-01  1.750000e-01  2.500000e-02
     vertex -5.375000e-01  1.750000e-01  2.500000e-02
     vertex  5.375000e-01 -1.750000e-01  2.500000e-02
   endloop
 endfacet
 facet normal  0.000000e+00  6.123234e-17 -1.000000e+00
   outer loop
     vertex -5.375000e-01  1.750000e-01  1.071566e-17
     vertex -5.375000e-01 -1.750000e-01 -1.071566e-17
     vertex -5.875000e-01 -1.750000e-01 -1.071566e-17
   endloop
 endfacet
 facet normal  0.000000e+00  6.123234e-17 -1.000000e+00
   outer loop
     vertex -5.375000e-01  1.750000e-01  1.071566e-17
     vertex -5.875000e-01 -1.750000e-01 -1.071566e-17
     vertex -5.875000e-01  1.750000e-01  1.071566e-17
   endloop
 endfacet
 facet normal  0.000000e+00 -1.000000e+00  0.000000e+00
   outer loop
     vertex -5.375000e-01 -1.750000e-01  2.500000e-02
     vertex -5.875000e-01 -1.750000e-01  7.500000e-01
     vertex -5.875000e-01 -1.750000e-01  2.500000e-02
   endloop
 endfacet
 facet normal  0.000000e+00 -1.000000e+00  0.000000e+00
   outer loop
     vertex -5.375000e-01 -1.750000e-01  2.500000e-02
     vertex -5.375000e-01 -1.750000e-01  7.500000e-01
     vertex -5.875000e-01 -1.750000e-01  7.500000e-01
   endloop
 endfacet
 facet normal -1.000000e+00  9.516197e-16  0.000000e+00
   outer loop
     vertex -5.875000e-01 -1.750000e-01 -1.071566e-17
     vertex -5.875000e-01  1.750000e-01  2.500000e-02
     vertex -5.875000e-01  1.750000e-01  1.071566e-17
   endloop
 endfacet
 facet normal -1.000000e+00  9.516197e-16  0.000000e+00
   outer loop
     vertex -5.875000e-01 -1.750000e-01 -1.071566e-17
     vertex -5.875000e-01 -1.750000e-01  2.500000e-02
     vertex -5.875000e-01  1.750000e-01  2.500000e-02
   endloop
 endfacet
 facet normal  0.000000e+00  6.123234e-17 -1.000000e+00
   outer loop
     vertex  5.875000e-01  1.750000e-01  1.071566e-17
     vertex  5.875000e-01 -1.750000e-01 -1.071566e-17
     vertex  5.375000e-01 -1.750000e-01 -1.071566e-17
   endloop
 endfacet
 facet normal  3.175898e-33  6.123234e-17 -1.000000e+00
   outer loop
     vertex  5.875000e-01  1.750000e-01  1.071566e-17
     vertex  5.375000e-01 -1.750000e-01 -1.071566e-17
     vertex  5.375000e-01  1.750000e-01  1.071566e-17
   endloop
 endfacet
 facet normal  1.000000e+00 -9.516197e-16  0.000000e+00
   outer loop
     vertex  5.875000e-01  1.750000e-01  1.071566e-17
     vertex  5.875000e-01 -1.750000e-01  2.500000e-02
     vertex  5.875000e-01 -1.750000e-01 -1.071566e-17
   endloop
 endfacet
 facet normal  1.000000e+00 -9.516197e-16  0.000000e+00
   outer loop
     vertex  5.875000e-01  1.750000e-01  1.071566e-17
     vertex  5.875000e-01  1.750000e-01  2.500000e-02
     vertex  5.875000e-01 -1.750000e-01  2.500000e-02
   endloop
 endfacet
 facet normal  0.000000e+00 -1.000000e+00  0.000000e+00
   outer loop
     vertex  5.875000e-01 -1.750000e-01  2.500000e-02
     vertex  5.375000e-01 -1.750000e-01  7.500000e-01
     vertex  5.375000e-01 -1.750000e-01  2.500000e-02
   endloop
 endfacet
 facet normal  0.000000e+00 -1.000000e+00  0.000000e+00
   outer loop
     vertex  5.875000e-01 -1.750000e-01  2.500000e-02
     vertex  5.875000e-01 -1.750000e-01  7.500000e-01
     vertex  5.375000e-01 -1.750000e-01  7.500000e-01
   endloop
 endfacet
 facet normal -2.581914e-17  1.000000e+00  0.000000e+00
   outer loop
     vertex -5.375000e-01  1.750000e-01  1.071566e-17
     vertex  5.375000e-01  1.750000e-01  2.500000e-02
     vertex  5.375000e-01  1.750000e-01  1.071566e-17
   endloop
 endfacet
 facet normal -2.581914e-17  1.000000e+00  0.000000e+00
   outer loop
     vertex -5.375000e-01  1.750000e-01  1.071566e-17
     vertex -5.375000e-01  1.750000e-01  2.500000e-02
     vertex  5.375000e-01  1.750000e-01  2.500000e-02
   endloop
 endfacet
 facet normal -1.000000e+00  6.344132e-16  1.531342e-16
   outer loop
     vertex  5.375000e-01 -1.750000e-01  2.500000e-02
     vertex  5.375000e-01  1.750000e-01  7.500000e-01
     vertex  5.375000e-01  1.750000e-01  2.500000e-02
   endloop
 endfacet
 facet normal -1.000000e+00  9.516197e-16  0.000000e+00
   outer loop
     vertex  5.375000e-01 -1.750000e-01  2.500000e-02
     vertex  5.375000e-01 -1.750000e-01  7.500000e-01
     vertex  5.375000e-01  1.750000e-01  7.500000e-01
   endloop
 endfacet
 facet normal  1.000000e+00 -9.516197e-16  0.000000e+00
   outer loop
     vertex -5.375000e-01  1.750000e-01  2.500000e-02
     vertex -5.375000e-01 -1.750000e-01  7.500000e-01
     vertex -5.375000e-01 -1.750000e-01  2.500000e-02
   endloop
 endfacet
 facet normal  1.000000e+00 -9.516197e-16  0.000000e+00
   outer loop
     vertex -5.375000e-01  1.750000e-01  2.500000e-02
     vertex -5.375000e-01  1.750000e-01  7.500000e-01
     vertex -5.375000e-01 -1.750000e-01  7.500000e-01
   endloop
 endfacet
 facet normal  0.000000e+00  1.000000e+00  0.000000e+00
   outer loop
     vertex -5.875000e-01  1.750000e-01  1.071566e-17
     vertex -5.375000e-01  1.750000e-01  2.500000e-02
     vertex -5.375000e-01  1.750000e-01  1.071566e-17
   endloop
 endfacet
 facet normal  0.000000e+00  1.000000e+00  0.000000e+00
   outer loop
     vertex -5.875000e-01  1.750000e-01  1.071566e-17
     vertex -5.875000e-01  1.750000e-01  2.500000e-02
     vertex -5.375000e-01  1.750000e-01  2.500000e-02
   endloop
 endfacet
 facet normal  0.000000e+00  0.000000e+00  1.000000e+00
   outer loop
     vertex -5.375000e-01  1.750000e-01  7.500000e-01
     vertex -5.875000e-01 -1.750000e-01  7.500000e-01
     vertex -5.375000e-01 -1.750000e-01  7.500000e-01
   endloop
 endfacet
 facet normal  0.000000e+00  0.000000e+00  1.000000e+00
   outer loop
     vertex -5.375000e-01  1.750000e-01  7.500000e-01
     vertex -5.875000e-01  1.750000e-01  7.500000e-01
     vertex -5.875000e-01 -1.750000e-01  7.500000e-01
   endloop
 endfacet
 facet normal -1.000000e+00  9.516197e-16  0.000000e+00
   outer loop
     vertex -5.875000e-01 -1.750000e-01  2.500000e-02
     vertex -5.875000e-01  1.750000e-01  7.500000e-01
     vertex -5.875000e-01  1.750000e-01  2.500000e-02
   endloop
 endfacet
 facet normal -1.000000e+00  9.516197e-16  0.000000e+00
   outer loop
     vertex -5.875000e-01 -1.750000e-01  2.500000e-02
     vertex -5.875000e-01 -1.750000e-01  7.500000e-01
     vertex -5.875000e-01  1.750000e-01  7.500000e-01
   endloop
 endfacet
 facet normal  5.551115e-16  1.000000e+00  0.000000e+00
   outer loop
     vertex  5.375000e-01  1.750000e-01  1.071566e-17
     vertex  5.875000e-01  1.750000e-01  2.500000e-02
     vertex  5.875000e-01  1.750000e-01  1.071566e-17
   endloop
 endfacet
 facet normal  5.551115e-16  1.000000e+00 -0.000000e+00
   outer loop
     vertex  5.375000e-01  1.750000e-01  1.071566e-17
     vertex  5.375000e-01  1.750000e-01  2.500000e-02
     vertex  5.875000e-01  1.750000e-01  2.500000e-02
   endloop
 endfacet
 facet normal  1.000000e+00 -9.516197e-16  0.000000e+00
   outer loop
     vertex  5.875000e-01  1.750000e-01  2.500000e-02
     vertex  5.875000e-01 -1.750000e-01  7.500000e-01
     vertex  5.875000e-01 -1.750000e-01  2.500000e-02
   endloop
 endfacet
 facet normal  1.000000e+00 -9.516197e-16  0.000000e+00
   outer loop
     vertex  5.875000e-01  1.750000e-01  2.500000e-02
     vertex  5.875000e-01  1.750000e-01  7.500000e-01
     vertex  5.875000e-01 -1.750000e-01  7.500000e-01
   endloop
 endfacet
 facet normal  0.000000e+00  0.000000e+00  1.000000e+00
   outer loop
     vertex  5.875000e-01  1.750000e-01  7.500000e-01
     vertex  5.375000e-01 -1.750000e-01  7.500000e-01
     vertex  5.875000e-01 -1.750000e-01  7.500000e-01
   endloop
 endfacet
 facet normal  0.000000e+00  0.000000e+00  1.000000e+00
   outer loop
     vertex  5.875000e-01  1.750000e-01  7.500000e-01
     vertex  5.375000e-01  1.750000e-01  7.500000e-01
     vertex  5.375000e-01 -1.750000e-01  7.500000e-01
   endloop
 endfacet
 facet normal  5.551115e-16  1.000000e+00  0.000000e+00
   outer loop
     vertex  5.375000e-01  1.750000e-01  2.500000e-02
     vertex  5.875000e-01  1.750000e-01  7.500000e-01
     vertex  5.875000e-01  1.750000e-01  2.500000e-02
   endloop
 endfacet
 facet normal  0.000000e+00  1.000000e+00  3.828355e-17
   outer loop
     vertex  5.375000e-01  1.750000e-01  2.500000e-02
     vertex  5.375000e-01  1.750000e-01  7.500000e-01
     vertex  5.875000e-01  1.750000e-01  7.500000e-01
   endloop
 endfacet
 facet normal  0.000000e+00  1.000000e+00  0.000000e+00
   outer loop
     vertex -5.875000e-01  1.750000e-01  2.500000e-02
     vertex -5.375000e-01  1.750000e-01  7.500000e-01
     vertex -5.375000e-01  1.750000e-01  2.500000e-02
   endloop
 endfacet
 facet normal  0.000000e+00  1.000000e+00  0.000000e+00
   outer loop
     vertex -5.875000e-01  1.750000e-01  2.500000e-02
     vertex -5.875000e-01  1.750000e-01  7.500000e-01
     vertex -5.375000e-01  1.750000e-01  7.500000e-01
   endloop
 endfacet
endsolid
