solid 
 facet normal  0.000000e+00 -1.000000e+00  0.000000e+00
   outer loop
     vertex  4.687500e-01 -7.500000e-01 -4.592425e-17
     vertex -4.687500e-01 -7.500000e-01  3.750000e-01
     vertex -4.687500e-01 -7.500000e-01 -4.592425e-17
   endloop
 endfacet
 facet normal  0.000000e+00 -1.000000e+00  0.000000e+00
   outer loop
     vertex  4.687500e-01 -7.500000e-01 -4.592425e-17
     vertex  4.687500e-01 -7.500000e-01  3.750000e-01
     vertex -4.687500e-01 -7.500000e-01  3.750000e-01
   endloop
 endfacet
 facet normal  0.000000e+00  6.123234e-17 -1.000000e+00
   outer loop
     vertex -4.687500e-01  7.500000e-01  4.592425e-17
     vertex  4.687500e-01 -7.500000e-01 -4.592425e-17
     vertex -4.687500e-01 -7.500000e-01 -4.592425e-17
   endloop
 endfacet
 facet normal  0.000000e+00  6.123234e-17 -1.000000e+00
   outer loop
     vertex  4.687500e-01  7.500000e-01  4.592425e-17
     vertex  4.687500e-01 -7.500000e-01 -4.592425e-17
     vertex -4.687500e-01  7.500000e-01  4.592425e-17
   endloop
 endfacet
 facet normal  1.000000e+00 -9.649346e-16  1.332268e-15
   outer loop
     vertex  4.687500e-01  5.156250e-01  3.750000e-01
     vertex  4.687500e-01 -7.500000e-01  3.750000e-01
     vertex  4.687500e-01 -7.500000e-01 -4.592425e-17
   endloop
 endfacet
 facet normal  1.000000e+00 -3.079019e-15  0.000000e+00
   outer loop
     vertex  4.687500e-01  5.156250e-01  3.750000e-01
     vertex  4.687500e-01  7.500000e-01  7.031250e-01
     vertex  4.687500e-01  5.156250e-01  7.031250e-01
   endloop
 endfacet
 facet normal  1.000000e+00 -3.079019e-15  0.000000e+00
   outer loop
     vertex  4.687500e-01  7.500000e-01  4.592425e-17
     vertex  4.687500e-01  7.500000e-01  7.031250e-01
     vertex  4.687500e-01  5.156250e-01  3.750000e-01
   endloop
 endfacet
 facet normal  1.000000e+00 -9.621933e-16  1.323016e-15
   outer loop
     vertex  4.687500e-01  7.500000e-01  4.592425e-17
     vertex  4.687500e-01  5.156250e-01  3.750000e-01
     vertex  4.687500e-01 -7.500000e-01 -4.592425e-17
   endloop
 endfacet
 facet normal  0.000000e+00  0.000000e+00  1.000000e+00
   outer loop
     vertex -2.343750e-01 -1.875000e-01  3.750000e-01
     vertex -4.687500e-01 -1.875000e-01  3.750000e-01
     vertex -4.687500e-01 -7.500000e-01  3.750000e-01
   endloop
 endfacet
 facet normal  0.000000e+00  0.000000e+00  1.000000e+00
   outer loop
     vertex  4.687500e-01 -7.500000e-01  3.750000e-01
     vertex -2.343750e-01 -1.875000e-01  3.750000e-01
     vertex -4.687500e-01 -7.500000e-01  3.750000e-01
   endloop
 endfacet
 facet normal  0.000000e+00 -1.578984e-16  1.000000e+00
   outer loop
     vertex  4.687500e-01  5.156250e-01  3.750000e-01
     vertex -2.343750e-01  5.156250e-01  3.750000e-01
     vertex -2.343750e-01 -1.875000e-01  3.750000e-01
   endloop
 endfacet
 facet normal -7.017706e-17 -8.772133e-17  1.000000e+00
   outer loop
     vertex  4.687500e-01  5.156250e-01  3.750000e-01
     vertex -2.343750e-01 -1.875000e-01  3.750000e-01
     vertex  4.687500e-01 -7.500000e-01  3.750000e-01
   endloop
 endfacet
 facet normal -1.000000e+00  1.598721e-15  0.000000e+00
   outer loop
     vertex -4.687500e-01 -1.875000e-01  3.750000e-01
     vertex -4.687500e-01  7.500000e-01  7.031250e-01
     vertex -4.687500e-01  7.500000e-01  4.592425e-17
   endloop
 endfacet
 facet normal -1.000000e+00  1.598721e-15  0.000000e+00
   outer loop
     vertex -4.687500e-01 -1.875000e-01  3.750000e-01
     vertex -4.687500e-01 -1.875000e-01  7.031250e-01
     vertex -4.687500e-01  7.500000e-01  7.031250e-01
   endloop
 endfacet
 facet normal -1.000000e+00  9.868649e-16 -1.628327e-15
   outer loop
     vertex -4.687500e-01 -7.500000e-01 -4.592425e-17
     vertex -4.687500e-01 -7.500000e-01  3.750000e-01
     vertex -4.687500e-01 -1.875000e-01  3.750000e-01
   endloop
 endfacet
 facet normal -1.000000e+00  9.621933e-16 -1.591320e-15
   outer loop
     vertex -4.687500e-01 -7.500000e-01 -4.592425e-17
     vertex -4.687500e-01 -1.875000e-01  3.750000e-01
     vertex -4.687500e-01  7.500000e-01  4.592425e-17
   endloop
 endfacet
 facet normal  0.000000e+00  1.000000e+00  0.000000e+00
   outer loop
     vertex -4.687500e-01  7.500000e-01  4.592425e-17
     vertex  4.687500e-01  7.500000e-01  7.031250e-01
     vertex  4.687500e-01  7.500000e-01  4.592425e-17
   endloop
 endfacet
 facet normal  0.000000e+00  1.000000e+00  0.000000e+00
   outer loop
     vertex -4.687500e-01  7.500000e-01  4.592425e-17
     vertex -4.687500e-01  7.500000e-01  7.031250e-01
     vertex  4.687500e-01  7.500000e-01  7.031250e-01
   endloop
 endfacet
 facet normal  0.000000e+00 -1.578984e-16  1.000000e+00
   outer loop
     vertex -2.343750e-01  5.156250e-01  7.031250e-01
     vertex -4.687500e-01 -1.875000e-01  7.031250e-01
     vertex -2.343750e-01 -1.875000e-01  7.031250e-01
   endloop
 endfacet
 facet normal -1.184238e-16 -1.184238e-16  1.000000e+00
   outer loop
     vertex -4.687500e-01  7.500000e-01  7.031250e-01
     vertex -4.687500e-01 -1.875000e-01  7.031250e-01
     vertex -2.343750e-01  5.156250e-01  7.031250e-01
   endloop
 endfacet
 facet normal  0.000000e+00  0.000000e+00  1.000000e+00
   outer loop
     vertex  4.687500e-01  7.500000e-01  7.031250e-01
     vertex -2.343750e-01  5.156250e-01  7.031250e-01
     vertex  4.687500e-01  5.156250e-01  7.031250e-01
   endloop
 endfacet
 facet normal  0.000000e+00  0.000000e+00  1.000000e+00
   outer loop
     vertex  4.687500e-01  7.500000e-01  7.031250e-01
     vertex -4.687500e-01  7.500000e-01  7.031250e-01
     vertex -2.343750e-01  5.156250e-01  7.031250e-01
   endloop
 endfacet
 facet normal  0.000000e+00 -1.000000e+00  0.000000e+00
   outer loop
     vertex -2.343750e-01  5.156250e-01  7.031250e-01
     vertex  4.687500e-01  5.156250e-01  3.750000e-01
     vertex  4.687500e-01  5.156250e-01  7.031250e-01
   endloop
 endfacet
 facet normal  0.000000e+00 -1.000000e+00  0.000000e+00
   outer loop
     vertex -2.343750e-01  5.156250e-01  7.031250e-01
     vertex -2.343750e-01  5.156250e-01  3.750000e-01
     vertex  4.687500e-01  5.156250e-01  3.750000e-01
   endloop
 endfacet
 facet normal  1.000000e+00 -9.473903e-16  0.000000e+00
   outer loop
     vertex -2.343750e-01 -1.875000e-01  7.031250e-01
     vertex -2.343750e-01  5.156250e-01  3.750000e-01
     vertex -2.343750e-01  5.156250e-01  7.031250e-01
   endloop
 endfacet
 facet normal  1.000000e+00 -9.473903e-16  0.000000e+00
   outer loop
     vertex -2.343750e-01 -1.875000e-01  7.031250e-01
     vertex -2.343750e-01 -1.875000e-01  3.750000e-01
     vertex -2.343750e-01  5.156250e-01  3.750000e-01
   endloop
 endfacet
 facet normal  0.000000e+00 -1.000000e+00  0.000000e+00
   outer loop
     vertex -4.687500e-01 -1.875000e-01  7.031250e-01
     vertex -2.343750e-01 -1.875000e-01  3.750000e-01
     vertex -2.343750e-01 -1.875000e-01  7.031250e-01
   endloop
 endfacet
 facet normal  0.000000e+00 -1.000000e+00  0.000000e+00
   outer loop
     vertex -4.687500e-01 -1.875000e-01  7.031250e-01
     vertex -4.687500e-01 -1.875000e-01  3.750000e-01
     vertex -2.343750e-01 -1.875000e-01  3.750000e-01
   endloop
 endfacet
endsolid
