solid 
 facet normal  5.966585e-01  5.131048e-16 -8.024953e-01
   outer loop
     vertex  0.000000e+00 -2.465190e-32 -7.465359e-02
     vertex -2.330913e-01 -7.449387e-01 -2.479579e-01
     vertex -2.330913e-01 -2.212994e-16 -2.479579e-01
   endloop
 endfacet
 facet normal  5.966585e-01  5.216239e-16 -8.024953e-01
   outer loop
     vertex  0.000000e+00 -2.465190e-32 -7.465359e-02
     vertex  7.072529e-16 -7.449387e-01 -7.465359e-02
     vertex -2.330913e-01 -7.449387e-01 -2.479579e-01
   endloop
 endfacet
 facet normal  1.000000e+00  9.494108e-16  0.000000e+00
   outer loop
     vertex  0.000000e+00 -2.465190e-32  7.408893e-02
     vertex  7.072529e-16 -7.449387e-01 -7.465359e-02
     vertex  0.000000e+00 -2.465190e-32 -7.465359e-02
   endloop
 endfacet
 facet normal  1.000000e+00  9.494108e-16  0.000000e+00
   outer loop
     vertex  0.000000e+00 -2.465190e-32  7.408893e-02
     vertex  7.072529e-16 -7.449387e-01  7.408893e-02
     vertex  7.072529e-16 -7.449387e-01 -7.465359e-02
   endloop
 endfacet
 facet normal  5.967846e-01  6.092407e-16  8.024015e-01
   outer loop
     vertex -2.330913e-01 -2.212994e-16  2.474502e-01
     vertex  7.072529e-16 -7.449387e-01  7.408893e-02
     vertex  0.000000e+00 -2.465190e-32  7.408893e-02
   endloop
 endfacet
 facet normal  5.967846e-01  6.156812e-16  8.024015e-01
   outer loop
     vertex -2.330913e-01 -2.212994e-16  2.474502e-01
     vertex -2.330913e-01 -7.449387e-01  2.474502e-01
     vertex  7.072529e-16 -7.449387e-01  7.408893e-02
   endloop
 endfacet
 facet normal -1.000000e+00 -9.314718e-16  0.000000e+00
   outer loop
     vertex -2.330913e-01 -2.212994e-16 -2.479579e-01
     vertex -2.330913e-01 -7.449387e-01  2.474502e-01
     vertex -2.330913e-01 -2.212994e-16  2.474502e-01
   endloop
 endfacet
 facet normal -1.000000e+00 -9.314718e-16  0.000000e+00
   outer loop
     vertex -2.330913e-01 -2.212994e-16 -2.479579e-01
     vertex -2.330913e-01 -7.449387e-01 -2.479579e-01
     vertex -2.330913e-01 -7.449387e-01  2.474502e-01
   endloop
 endfacet
 facet normal -9.494108e-16  1.000000e+00  0.000000e+00
   outer loop
     vertex  0.000000e+00 -2.465190e-32  7.408893e-02
     vertex  0.000000e+00 -2.465190e-32 -7.465359e-02
     vertex -2.330913e-01 -2.212994e-16 -2.479579e-01
   endloop
 endfacet
 facet normal -9.494108e-16  1.000000e+00  0.000000e+00
   outer loop
     vertex  0.000000e+00 -2.465190e-32  7.408893e-02
     vertex -2.330913e-01 -2.212994e-16 -2.479579e-01
     vertex -2.330913e-01 -2.212994e-16  2.474502e-01
   endloop
 endfacet
 facet normal  9.526077e-16 -1.000000e+00  0.000000e+00
   outer loop
     vertex  7.072529e-16 -7.449387e-01  7.408893e-02
     vertex -2.330913e-01 -7.449387e-01 -2.479579e-01
     vertex  7.072529e-16 -7.449387e-01 -7.465359e-02
   endloop
 endfacet
 facet normal  9.526077e-16 -1.000000e+00  0.000000e+00
   outer loop
     vertex  7.072529e-16 -7.449387e-01  7.408893e-02
     vertex -2.330913e-01 -7.449387e-01  2.474502e-01
     vertex -2.330913e-01 -7.449387e-01 -2.479579e-01
   endloop
 endfacet
endsolid
