solid 
 facet normal  0.000000e+00 -1.000000e+00  0.000000e+00
   outer loop
     vertex  7.500000e-01 -7.500000e-01 -4.592425e-17
     vertex -7.500000e-01 -7.500000e-01  1.125000e-01
     vertex -7.500000e-01 -7.500000e-01 -4.592425e-17
   endloop
 endfacet
 facet normal  0.000000e+00 -1.000000e+00  0.000000e+00
   outer loop
     vertex  7.500000e-01 -7.500000e-01 -4.592425e-17
     vertex  7.500000e-01 -7.500000e-01  1.125000e-01
     vertex -7.500000e-01 -7.500000e-01  1.125000e-01
   endloop
 endfacet
 facet normal  1.000000e+00 -8.881784e-16  0.000000e+00
   outer loop
     vertex  7.500000e-01  7.500000e-01  4.592425e-17
     vertex  7.500000e-01 -7.500000e-01  1.125000e-01
     vertex  7.500000e-01 -7.500000e-01 -4.592425e-17
   endloop
 endfacet
 facet normal  1.000000e+00 -8.881784e-16  0.000000e+00
   outer loop
     vertex  7.500000e-01  7.500000e-01  4.592425e-17
     vertex  7.500000e-01  7.500000e-01  1.125000e-01
     vertex  7.500000e-01 -7.500000e-01  1.125000e-01
   endloop
 endfacet
 facet normal  0.000000e+00  1.000000e+00  0.000000e+00
   outer loop
     vertex -7.500000e-01  7.500000e-01  4.592425e-17
     vertex  7.500000e-01  7.500000e-01  1.125000e-01
     vertex  7.500000e-01  7.500000e-01  4.592425e-17
   endloop
 endfacet
 facet normal  0.000000e+00  1.000000e+00  0.000000e+00
   outer loop
     vertex -7.500000e-01  7.500000e-01  4.592425e-17
     vertex -7.500000e-01  7.500000e-01  1.125000e-01
     vertex  7.500000e-01  7.500000e-01  1.125000e-01
   endloop
 endfacet
 facet normal -1.000000e+00  9.621933e-16  0.000000e+00
   outer loop
     vertex -7.500000e-01 -7.500000e-01 -4.592425e-17
     vertex -7.500000e-01  7.500000e-01  1.125000e-01
     vertex -7.500000e-01  7.500000e-01  4.592425e-17
   endloop
 endfacet
 facet normal -1.000000e+00  9.621933e-16  0.000000e+00
   outer loop
     vertex -7.500000e-01 -7.500000e-01 -4.592425e-17
     vertex -7.500000e-01 -7.500000e-01  1.125000e-01
     vertex -7.500000e-01  7.500000e-01  1.125000e-01
   endloop
 endfacet
 facet normal -9.961947e-01 -8.715574e-02  0.000000e+00
   outer loop
     vertex  7.386058e-02  1.302361e-02  0.000000e+00
     vertex  7.500000e-02  0.000000e+00  0.000000e+00
     vertex  7.500000e-02  0.000000e+00  1.125000e-01
   endloop
 endfacet
 facet normal -9.961947e-01 -8.715574e-02  0.000000e+00
   outer loop
     vertex  7.386058e-02  1.302361e-02  0.000000e+00
     vertex  7.500000e-02  0.000000e+00  1.125000e-01
     vertex  7.386058e-02  1.302361e-02  1.125000e-01
   endloop
 endfacet
 facet normal -9.659258e-01 -2.588190e-01  0.000000e+00
   outer loop
     vertex  7.047695e-02  2.565151e-02  0.000000e+00
     vertex  7.386058e-02  1.302361e-02  1.125000e-01
     vertex  7.047695e-02  2.565151e-02  1.125000e-01
   endloop
 endfacet
 facet normal -9.659258e-01 -2.588190e-01  0.000000e+00
   outer loop
     vertex  7.047695e-02  2.565151e-02  0.000000e+00
     vertex  7.386058e-02  1.302361e-02  0.000000e+00
     vertex  7.386058e-02  1.302361e-02  1.125000e-01
   endloop
 endfacet
 facet normal -9.063078e-01 -4.226183e-01  0.000000e+00
   outer loop
     vertex  6.495191e-02  3.750000e-02  0.000000e+00
     vertex  7.047695e-02  2.565151e-02  1.125000e-01
     vertex  6.495191e-02  3.750000e-02  1.125000e-01
   endloop
 endfacet
 facet normal -9.063078e-01 -4.226183e-01  0.000000e+00
   outer loop
     vertex  6.495191e-02  3.750000e-02  0.000000e+00
     vertex  7.047695e-02  2.565151e-02  0.000000e+00
     vertex  7.047695e-02  2.565151e-02  1.125000e-01
   endloop
 endfacet
 facet normal -8.191520e-01 -5.735764e-01  0.000000e+00
   outer loop
     vertex  5.745333e-02  4.820907e-02  0.000000e+00
     vertex  6.495191e-02  3.750000e-02  1.125000e-01
     vertex  5.745333e-02  4.820907e-02  1.125000e-01
   endloop
 endfacet
 facet normal -8.191520e-01 -5.735764e-01  0.000000e+00
   outer loop
     vertex  5.745333e-02  4.820907e-02  0.000000e+00
     vertex  6.495191e-02  3.750000e-02  0.000000e+00
     vertex  6.495191e-02  3.750000e-02  1.125000e-01
   endloop
 endfacet
 facet normal -7.071068e-01 -7.071068e-01  0.000000e+00
   outer loop
     vertex  4.820907e-02  5.745333e-02  0.000000e+00
     vertex  5.745333e-02  4.820907e-02  1.125000e-01
     vertex  4.820907e-02  5.745333e-02  1.125000e-01
   endloop
 endfacet
 facet normal -7.071068e-01 -7.071068e-01  0.000000e+00
   outer loop
     vertex  4.820907e-02  5.745333e-02  0.000000e+00
     vertex  5.745333e-02  4.820907e-02  0.000000e+00
     vertex  5.745333e-02  4.820907e-02  1.125000e-01
   endloop
 endfacet
 facet normal -5.735764e-01 -8.191520e-01  0.000000e+00
   outer loop
     vertex  3.750000e-02  6.495191e-02  0.000000e+00
     vertex  4.820907e-02  5.745333e-02  0.000000e+00
     vertex  4.820907e-02  5.745333e-02  1.125000e-01
   endloop
 endfacet
 facet normal -5.735764e-01 -8.191520e-01  0.000000e+00
   outer loop
     vertex  3.750000e-02  6.495191e-02  0.000000e+00
     vertex  4.820907e-02  5.745333e-02  1.125000e-01
     vertex  3.750000e-02  6.495191e-02  1.125000e-01
   endloop
 endfacet
 facet normal -4.226183e-01 -9.063078e-01  0.000000e+00
   outer loop
     vertex  2.565151e-02  7.047695e-02  0.000000e+00
     vertex  3.750000e-02  6.495191e-02  0.000000e+00
     vertex  3.750000e-02  6.495191e-02  1.125000e-01
   endloop
 endfacet
 facet normal -4.226183e-01 -9.063078e-01  0.000000e+00
   outer loop
     vertex  2.565151e-02  7.047695e-02  0.000000e+00
     vertex  3.750000e-02  6.495191e-02  1.125000e-01
     vertex  2.565151e-02  7.047695e-02  1.125000e-01
   endloop
 endfacet
 facet normal -2.588190e-01 -9.659258e-01  0.000000e+00
   outer loop
     vertex  1.302361e-02  7.386058e-02  0.000000e+00
     vertex  2.565151e-02  7.047695e-02  0.000000e+00
     vertex  2.565151e-02  7.047695e-02  1.125000e-01
   endloop
 endfacet
 facet normal -2.588190e-01 -9.659258e-01  0.000000e+00
   outer loop
     vertex  1.302361e-02  7.386058e-02  0.000000e+00
     vertex  2.565151e-02  7.047695e-02  1.125000e-01
     vertex  1.302361e-02  7.386058e-02  1.125000e-01
   endloop
 endfacet
 facet normal -8.715574e-02 -9.961947e-01  0.000000e+00
   outer loop
     vertex  4.592425e-18  7.500000e-02  0.000000e+00
     vertex  1.302361e-02  7.386058e-02  1.125000e-01
     vertex  4.592425e-18  7.500000e-02  1.125000e-01
   endloop
 endfacet
 facet normal -8.715574e-02 -9.961947e-01  0.000000e+00
   outer loop
     vertex  4.592425e-18  7.500000e-02  0.000000e+00
     vertex  1.302361e-02  7.386058e-02  0.000000e+00
     vertex  1.302361e-02  7.386058e-02  1.125000e-01
   endloop
 endfacet
 facet normal  8.715574e-02 -9.961947e-01  0.000000e+00
   outer loop
     vertex -1.302361e-02  7.386058e-02  0.000000e+00
     vertex  4.592425e-18  7.500000e-02  1.125000e-01
     vertex -1.302361e-02  7.386058e-02  1.125000e-01
   endloop
 endfacet
 facet normal  8.715574e-02 -9.961947e-01  0.000000e+00
   outer loop
     vertex -1.302361e-02  7.386058e-02  0.000000e+00
     vertex  4.592425e-18  7.500000e-02  0.000000e+00
     vertex  4.592425e-18  7.500000e-02  1.125000e-01
   endloop
 endfacet
 facet normal  2.588190e-01 -9.659258e-01  0.000000e+00
   outer loop
     vertex -2.565151e-02  7.047695e-02  0.000000e+00
     vertex -1.302361e-02  7.386058e-02  0.000000e+00
     vertex -1.302361e-02  7.386058e-02  1.125000e-01
   endloop
 endfacet
 facet normal  2.588190e-01 -9.659258e-01  0.000000e+00
   outer loop
     vertex -2.565151e-02  7.047695e-02  0.000000e+00
     vertex -1.302361e-02  7.386058e-02  1.125000e-01
     vertex -2.565151e-02  7.047695e-02  1.125000e-01
   endloop
 endfacet
 facet normal  4.226183e-01 -9.063078e-01  0.000000e+00
   outer loop
     vertex -3.750000e-02  6.495191e-02  0.000000e+00
     vertex -2.565151e-02  7.047695e-02  1.125000e-01
     vertex -3.750000e-02  6.495191e-02  1.125000e-01
   endloop
 endfacet
 facet normal  4.226183e-01 -9.063078e-01  0.000000e+00
   outer loop
     vertex -3.750000e-02  6.495191e-02  0.000000e+00
     vertex -2.565151e-02  7.047695e-02  0.000000e+00
     vertex -2.565151e-02  7.047695e-02  1.125000e-01
   endloop
 endfacet
 facet normal  5.735764e-01 -8.191520e-01  0.000000e+00
   outer loop
     vertex -4.820907e-02  5.745333e-02  0.000000e+00
     vertex -3.750000e-02  6.495191e-02  0.000000e+00
     vertex -3.750000e-02  6.495191e-02  1.125000e-01
   endloop
 endfacet
 facet normal  5.735764e-01 -8.191520e-01  0.000000e+00
   outer loop
     vertex -4.820907e-02  5.745333e-02  0.000000e+00
     vertex -3.750000e-02  6.495191e-02  1.125000e-01
     vertex -4.820907e-02  5.745333e-02  1.125000e-01
   endloop
 endfacet
 facet normal  7.071068e-01 -7.071068e-01  0.000000e+00
   outer loop
     vertex -5.745333e-02  4.820907e-02  0.000000e+00
     vertex -4.820907e-02  5.745333e-02  1.125000e-01
     vertex -5.745333e-02  4.820907e-02  1.125000e-01
   endloop
 endfacet
 facet normal  7.071068e-01 -7.071068e-01  0.000000e+00
   outer loop
     vertex -5.745333e-02  4.820907e-02  0.000000e+00
     vertex -4.820907e-02  5.745333e-02  0.000000e+00
     vertex -4.820907e-02  5.745333e-02  1.125000e-01
   endloop
 endfacet
 facet normal  8.191520e-01 -5.735764e-01  0.000000e+00
   outer loop
     vertex -6.495191e-02  3.750000e-02  0.000000e+00
     vertex -5.745333e-02  4.820907e-02  1.125000e-01
     vertex -6.495191e-02  3.750000e-02  1.125000e-01
   endloop
 endfacet
 facet normal  8.191520e-01 -5.735764e-01  0.000000e+00
   outer loop
     vertex -6.495191e-02  3.750000e-02  0.000000e+00
     vertex -5.745333e-02  4.820907e-02  0.000000e+00
     vertex -5.745333e-02  4.820907e-02  1.125000e-01
   endloop
 endfacet
 facet normal  9.063078e-01 -4.226183e-01  0.000000e+00
   outer loop
     vertex -7.047695e-02  2.565151e-02  0.000000e+00
     vertex -6.495191e-02  3.750000e-02  1.125000e-01
     vertex -7.047695e-02  2.565151e-02  1.125000e-01
   endloop
 endfacet
 facet normal  9.063078e-01 -4.226183e-01  0.000000e+00
   outer loop
     vertex -7.047695e-02  2.565151e-02  0.000000e+00
     vertex -6.495191e-02  3.750000e-02  0.000000e+00
     vertex -6.495191e-02  3.750000e-02  1.125000e-01
   endloop
 endfacet
 facet normal  9.659258e-01 -2.588190e-01  0.000000e+00
   outer loop
     vertex -7.386058e-02  1.302361e-02  0.000000e+00
     vertex -7.047695e-02  2.565151e-02  1.125000e-01
     vertex -7.386058e-02  1.302361e-02  1.125000e-01
   endloop
 endfacet
 facet normal  9.659258e-01 -2.588190e-01  0.000000e+00
   outer loop
     vertex -7.386058e-02  1.302361e-02  0.000000e+00
     vertex -7.047695e-02  2.565151e-02  0.000000e+00
     vertex -7.047695e-02  2.565151e-02  1.125000e-01
   endloop
 endfacet
 facet normal  9.961947e-01 -8.715574e-02  0.000000e+00
   outer loop
     vertex -7.500000e-02  1.091049e-16  0.000000e+00
     vertex -7.386058e-02  1.302361e-02  1.125000e-01
     vertex -7.500000e-02  1.091049e-16  1.125000e-01
   endloop
 endfacet
 facet normal  9.961947e-01 -8.715574e-02  0.000000e+00
   outer loop
     vertex -7.500000e-02  1.091049e-16  0.000000e+00
     vertex -7.386058e-02  1.302361e-02  0.000000e+00
     vertex -7.386058e-02  1.302361e-02  1.125000e-01
   endloop
 endfacet
 facet normal  9.961947e-01  8.715574e-02 -0.000000e+00
   outer loop
     vertex -7.386058e-02 -1.302361e-02  0.000000e+00
     vertex -7.500000e-02  1.091049e-16  1.125000e-01
     vertex -7.386058e-02 -1.302361e-02  1.125000e-01
   endloop
 endfacet
 facet normal  9.961947e-01  8.715574e-02  0.000000e+00
   outer loop
     vertex -7.386058e-02 -1.302361e-02  0.000000e+00
     vertex -7.500000e-02  1.091049e-16  0.000000e+00
     vertex -7.500000e-02  1.091049e-16  1.125000e-01
   endloop
 endfacet
 facet normal  9.659258e-01  2.588190e-01 -0.000000e+00
   outer loop
     vertex -7.047695e-02 -2.565151e-02  0.000000e+00
     vertex -7.386058e-02 -1.302361e-02  1.125000e-01
     vertex -7.047695e-02 -2.565151e-02  1.125000e-01
   endloop
 endfacet
 facet normal  9.659258e-01  2.588190e-01  0.000000e+00
   outer loop
     vertex -7.047695e-02 -2.565151e-02  0.000000e+00
     vertex -7.386058e-02 -1.302361e-02  0.000000e+00
     vertex -7.386058e-02 -1.302361e-02  1.125000e-01
   endloop
 endfacet
 facet normal  9.063078e-01  4.226183e-01 -0.000000e+00
   outer loop
     vertex -6.495191e-02 -3.750000e-02  0.000000e+00
     vertex -7.047695e-02 -2.565151e-02  1.125000e-01
     vertex -6.495191e-02 -3.750000e-02  1.125000e-01
   endloop
 endfacet
 facet normal  9.063078e-01  4.226183e-01  0.000000e+00
   outer loop
     vertex -6.495191e-02 -3.750000e-02  0.000000e+00
     vertex -7.047695e-02 -2.565151e-02  0.000000e+00
     vertex -7.047695e-02 -2.565151e-02  1.125000e-01
   endloop
 endfacet
 facet normal  8.191520e-01  5.735764e-01 -0.000000e+00
   outer loop
     vertex -5.745333e-02 -4.820907e-02  0.000000e+00
     vertex -6.495191e-02 -3.750000e-02  1.125000e-01
     vertex -5.745333e-02 -4.820907e-02  1.125000e-01
   endloop
 endfacet
 facet normal  8.191520e-01  5.735764e-01  0.000000e+00
   outer loop
     vertex -5.745333e-02 -4.820907e-02  0.000000e+00
     vertex -6.495191e-02 -3.750000e-02  0.000000e+00
     vertex -6.495191e-02 -3.750000e-02  1.125000e-01
   endloop
 endfacet
 facet normal  7.071068e-01  7.071068e-01 -0.000000e+00
   outer loop
     vertex -4.820907e-02 -5.745333e-02  0.000000e+00
     vertex -5.745333e-02 -4.820907e-02  1.125000e-01
     vertex -4.820907e-02 -5.745333e-02  1.125000e-01
   endloop
 endfacet
 facet normal  7.071068e-01  7.071068e-01  0.000000e+00
   outer loop
     vertex -4.820907e-02 -5.745333e-02  0.000000e+00
     vertex -5.745333e-02 -4.820907e-02  0.000000e+00
     vertex -5.745333e-02 -4.820907e-02  1.125000e-01
   endloop
 endfacet
 facet normal  5.735764e-01  8.191520e-01 -0.000000e+00
   outer loop
     vertex -3.750000e-02 -6.495191e-02  0.000000e+00
     vertex -4.820907e-02 -5.745333e-02  1.125000e-01
     vertex -3.750000e-02 -6.495191e-02  1.125000e-01
   endloop
 endfacet
 facet normal  5.735764e-01  8.191520e-01  0.000000e+00
   outer loop
     vertex -3.750000e-02 -6.495191e-02  0.000000e+00
     vertex -4.820907e-02 -5.745333e-02  0.000000e+00
     vertex -4.820907e-02 -5.745333e-02  1.125000e-01
   endloop
 endfacet
 facet normal  4.226183e-01  9.063078e-01 -0.000000e+00
   outer loop
     vertex -2.565151e-02 -7.047695e-02  0.000000e+00
     vertex -3.750000e-02 -6.495191e-02  1.125000e-01
     vertex -2.565151e-02 -7.047695e-02  1.125000e-01
   endloop
 endfacet
 facet normal  4.226183e-01  9.063078e-01  0.000000e+00
   outer loop
     vertex -2.565151e-02 -7.047695e-02  0.000000e+00
     vertex -3.750000e-02 -6.495191e-02  0.000000e+00
     vertex -3.750000e-02 -6.495191e-02  1.125000e-01
   endloop
 endfacet
 facet normal  2.588190e-01  9.659258e-01 -0.000000e+00
   outer loop
     vertex -1.302361e-02 -7.386058e-02  0.000000e+00
     vertex -2.565151e-02 -7.047695e-02  1.125000e-01
     vertex -1.302361e-02 -7.386058e-02  1.125000e-01
   endloop
 endfacet
 facet normal  2.588190e-01  9.659258e-01  0.000000e+00
   outer loop
     vertex -1.302361e-02 -7.386058e-02  0.000000e+00
     vertex -2.565151e-02 -7.047695e-02  0.000000e+00
     vertex -2.565151e-02 -7.047695e-02  1.125000e-01
   endloop
 endfacet
 facet normal  8.715574e-02  9.961947e-01 -0.000000e+00
   outer loop
     vertex -2.136174e-16 -7.500000e-02  0.000000e+00
     vertex -1.302361e-02 -7.386058e-02  1.125000e-01
     vertex -2.136174e-16 -7.500000e-02  1.125000e-01
   endloop
 endfacet
 facet normal  8.715574e-02  9.961947e-01  0.000000e+00
   outer loop
     vertex -2.136174e-16 -7.500000e-02  0.000000e+00
     vertex -1.302361e-02 -7.386058e-02  0.000000e+00
     vertex -1.302361e-02 -7.386058e-02  1.125000e-01
   endloop
 endfacet
 facet normal -8.715574e-02  9.961947e-01  0.000000e+00
   outer loop
     vertex  1.302361e-02 -7.386058e-02  0.000000e+00
     vertex -2.136174e-16 -7.500000e-02  1.125000e-01
     vertex  1.302361e-02 -7.386058e-02  1.125000e-01
   endloop
 endfacet
 facet normal -8.715574e-02  9.961947e-01  0.000000e+00
   outer loop
     vertex  1.302361e-02 -7.386058e-02  0.000000e+00
     vertex -2.136174e-16 -7.500000e-02  0.000000e+00
     vertex -2.136174e-16 -7.500000e-02  1.125000e-01
   endloop
 endfacet
 facet normal -2.588190e-01  9.659258e-01  0.000000e+00
   outer loop
     vertex  2.565151e-02 -7.047695e-02  0.000000e+00
     vertex  1.302361e-02 -7.386058e-02  1.125000e-01
     vertex  2.565151e-02 -7.047695e-02  1.125000e-01
   endloop
 endfacet
 facet normal -2.588190e-01  9.659258e-01  0.000000e+00
   outer loop
     vertex  2.565151e-02 -7.047695e-02  0.000000e+00
     vertex  1.302361e-02 -7.386058e-02  0.000000e+00
     vertex  1.302361e-02 -7.386058e-02  1.125000e-01
   endloop
 endfacet
 facet normal -4.226183e-01  9.063078e-01  0.000000e+00
   outer loop
     vertex  3.750000e-02 -6.495191e-02  0.000000e+00
     vertex  2.565151e-02 -7.047695e-02  1.125000e-01
     vertex  3.750000e-02 -6.495191e-02  1.125000e-01
   endloop
 endfacet
 facet normal -5.735764e-01  8.191520e-01  0.000000e+00
   outer loop
     vertex  3.750000e-02 -6.495191e-02  0.000000e+00
     vertex  3.750000e-02 -6.495191e-02  1.125000e-01
     vertex  4.820907e-02 -5.745333e-02  1.125000e-01
   endloop
 endfacet
 facet normal -4.226183e-01  9.063078e-01  0.000000e+00
   outer loop
     vertex  3.750000e-02 -6.495191e-02  0.000000e+00
     vertex  2.565151e-02 -7.047695e-02  0.000000e+00
     vertex  2.565151e-02 -7.047695e-02  1.125000e-01
   endloop
 endfacet
 facet normal -5.735764e-01  8.191520e-01  0.000000e+00
   outer loop
     vertex  4.820907e-02 -5.745333e-02  0.000000e+00
     vertex  3.750000e-02 -6.495191e-02  0.000000e+00
     vertex  4.820907e-02 -5.745333e-02  1.125000e-01
   endloop
 endfacet
 facet normal -7.071068e-01  7.071068e-01  0.000000e+00
   outer loop
     vertex  5.745333e-02 -4.820907e-02  0.000000e+00
     vertex  4.820907e-02 -5.745333e-02  1.125000e-01
     vertex  5.745333e-02 -4.820907e-02  1.125000e-01
   endloop
 endfacet
 facet normal -7.071068e-01  7.071068e-01  0.000000e+00
   outer loop
     vertex  5.745333e-02 -4.820907e-02  0.000000e+00
     vertex  4.820907e-02 -5.745333e-02  0.000000e+00
     vertex  4.820907e-02 -5.745333e-02  1.125000e-01
   endloop
 endfacet
 facet normal -8.191520e-01  5.735764e-01  0.000000e+00
   outer loop
     vertex  6.495191e-02 -3.750000e-02  0.000000e+00
     vertex  5.745333e-02 -4.820907e-02  0.000000e+00
     vertex  5.745333e-02 -4.820907e-02  1.125000e-01
   endloop
 endfacet
 facet normal -8.191520e-01  5.735764e-01  0.000000e+00
   outer loop
     vertex  6.495191e-02 -3.750000e-02  0.000000e+00
     vertex  5.745333e-02 -4.820907e-02  1.125000e-01
     vertex  6.495191e-02 -3.750000e-02  1.125000e-01
   endloop
 endfacet
 facet normal -9.063078e-01  4.226183e-01  0.000000e+00
   outer loop
     vertex  7.047695e-02 -2.565151e-02  0.000000e+00
     vertex  6.495191e-02 -3.750000e-02  0.000000e+00
     vertex  6.495191e-02 -3.750000e-02  1.125000e-01
   endloop
 endfacet
 facet normal -9.063078e-01  4.226183e-01  0.000000e+00
   outer loop
     vertex  7.047695e-02 -2.565151e-02  0.000000e+00
     vertex  6.495191e-02 -3.750000e-02  1.125000e-01
     vertex  7.047695e-02 -2.565151e-02  1.125000e-01
   endloop
 endfacet
 facet normal -9.659258e-01  2.588190e-01  0.000000e+00
   outer loop
     vertex  7.386058e-02 -1.302361e-02  0.000000e+00
     vertex  7.047695e-02 -2.565151e-02  0.000000e+00
     vertex  7.047695e-02 -2.565151e-02  1.125000e-01
   endloop
 endfacet
 facet normal -9.659258e-01  2.588190e-01  0.000000e+00
   outer loop
     vertex  7.386058e-02 -1.302361e-02  0.000000e+00
     vertex  7.047695e-02 -2.565151e-02  1.125000e-01
     vertex  7.386058e-02 -1.302361e-02  1.125000e-01
   endloop
 endfacet
 facet normal -9.961947e-01  8.715574e-02  0.000000e+00
   outer loop
     vertex  7.500000e-02  0.000000e+00  0.000000e+00
     vertex  7.386058e-02 -1.302361e-02  0.000000e+00
     vertex  7.386058e-02 -1.302361e-02  1.125000e-01
   endloop
 endfacet
 facet normal -9.961947e-01  8.715574e-02  0.000000e+00
   outer loop
     vertex  7.500000e-02  0.000000e+00  0.000000e+00
     vertex  7.386058e-02 -1.302361e-02  1.125000e-01
     vertex  7.500000e-02  0.000000e+00  1.125000e-01
   endloop
 endfacet
 facet normal  3.293625e-17  3.293625e-17 -1.000000e+00
   outer loop
     vertex -5.745333e-02 -4.820907e-02  0.000000e+00
     vertex -4.820907e-02 -5.745333e-02  0.000000e+00
     vertex -7.500000e-01 -7.500000e-01 -4.592425e-17
   endloop
 endfacet
 facet normal  2.716045e-17  3.878915e-17 -1.000000e+00
   outer loop
     vertex -3.750000e-02 -6.495191e-02  0.000000e+00
     vertex -7.500000e-01 -7.500000e-01 -4.592425e-17
     vertex -4.820907e-02 -5.745333e-02  0.000000e+00
   endloop
 endfacet
 facet normal  3.878915e-17  2.716045e-17 -1.000000e+00
   outer loop
     vertex -6.495191e-02 -3.750000e-02  0.000000e+00
     vertex -5.745333e-02 -4.820907e-02  0.000000e+00
     vertex -7.500000e-01 -7.500000e-01 -4.592425e-17
   endloop
 endfacet
 facet normal  2.105081e-17  4.514362e-17 -1.000000e+00
   outer loop
     vertex -2.565151e-02 -7.047695e-02  0.000000e+00
     vertex -7.500000e-01 -7.500000e-01 -4.592425e-17
     vertex -3.750000e-02 -6.495191e-02  0.000000e+00
   endloop
 endfacet
 facet normal  4.514362e-17  2.105081e-17 -1.000000e+00
   outer loop
     vertex -7.047695e-02 -2.565151e-02  0.000000e+00
     vertex -6.495191e-02 -3.750000e-02  0.000000e+00
     vertex -7.500000e-01 -7.500000e-01 -4.592425e-17
   endloop
 endfacet
 facet normal  1.408563e-17  5.256827e-17 -1.000000e+00
   outer loop
     vertex -1.302361e-02 -7.386058e-02  0.000000e+00
     vertex -7.500000e-01 -7.500000e-01 -4.592425e-17
     vertex -2.565151e-02 -7.047695e-02  0.000000e+00
   endloop
 endfacet
 facet normal  5.256827e-17  1.408563e-17 -1.000000e+00
   outer loop
     vertex -7.386058e-02 -1.302361e-02  0.000000e+00
     vertex -7.047695e-02 -2.565151e-02  0.000000e+00
     vertex -7.500000e-01 -7.500000e-01 -4.592425e-17
   endloop
 endfacet
 facet normal  5.425010e-18  6.200814e-17 -1.000000e+00
   outer loop
     vertex -2.136174e-16 -7.500000e-02  0.000000e+00
     vertex -7.500000e-01 -7.500000e-01 -4.592425e-17
     vertex -1.302361e-02 -7.386058e-02  0.000000e+00
   endloop
 endfacet
 facet normal  6.200814e-17  5.425010e-18 -1.000000e+00
   outer loop
     vertex -7.500000e-02  1.091049e-16  0.000000e+00
     vertex -7.386058e-02 -1.302361e-02  0.000000e+00
     vertex -7.500000e-01 -7.500000e-01 -4.592425e-17
   endloop
 endfacet
 facet normal -5.425010e-18  6.200814e-17 -1.000000e+00
   outer loop
     vertex  7.500000e-01 -7.500000e-01 -4.592425e-17
     vertex -2.136174e-16 -7.500000e-02  0.000000e+00
     vertex  1.302361e-02 -7.386058e-02  0.000000e+00
   endloop
 endfacet
 facet normal -1.408563e-17  5.256827e-17 -1.000000e+00
   outer loop
     vertex  7.500000e-01 -7.500000e-01 -4.592425e-17
     vertex  1.302361e-02 -7.386058e-02  0.000000e+00
     vertex  2.565151e-02 -7.047695e-02  0.000000e+00
   endloop
 endfacet
 facet normal -2.105081e-17  4.514362e-17 -1.000000e+00
   outer loop
     vertex  7.500000e-01 -7.500000e-01 -4.592425e-17
     vertex  2.565151e-02 -7.047695e-02  0.000000e+00
     vertex  3.750000e-02 -6.495191e-02  0.000000e+00
   endloop
 endfacet
 facet normal -2.716045e-17  3.878915e-17 -1.000000e+00
   outer loop
     vertex  7.500000e-01 -7.500000e-01 -4.592425e-17
     vertex  3.750000e-02 -6.495191e-02  0.000000e+00
     vertex  4.820907e-02 -5.745333e-02  0.000000e+00
   endloop
 endfacet
 facet normal  0.000000e+00  6.803593e-17 -1.000000e+00
   outer loop
     vertex  7.500000e-01 -7.500000e-01 -4.592425e-17
     vertex -7.500000e-01 -7.500000e-01 -4.592425e-17
     vertex -2.136174e-16 -7.500000e-02  0.000000e+00
   endloop
 endfacet
 facet normal -3.878915e-17  2.716045e-17 -1.000000e+00
   outer loop
     vertex -7.500000e-01  7.500000e-01  4.592425e-17
     vertex -5.745333e-02  4.820907e-02  0.000000e+00
     vertex -6.495191e-02  3.750000e-02  0.000000e+00
   endloop
 endfacet
 facet normal -4.514362e-17  2.105081e-17 -1.000000e+00
   outer loop
     vertex -7.500000e-01  7.500000e-01  4.592425e-17
     vertex -6.495191e-02  3.750000e-02  0.000000e+00
     vertex -7.047695e-02  2.565151e-02  0.000000e+00
   endloop
 endfacet
 facet normal -5.256827e-17  1.408563e-17 -1.000000e+00
   outer loop
     vertex -7.500000e-01  7.500000e-01  4.592425e-17
     vertex -7.047695e-02  2.565151e-02  0.000000e+00
     vertex -7.386058e-02  1.302361e-02  0.000000e+00
   endloop
 endfacet
 facet normal -6.200814e-17  5.425010e-18 -1.000000e+00
   outer loop
     vertex -7.500000e-01  7.500000e-01  4.592425e-17
     vertex -7.386058e-02  1.302361e-02  0.000000e+00
     vertex -7.500000e-02  1.091049e-16  0.000000e+00
   endloop
 endfacet
 facet normal -1.217378e-32  6.123234e-17 -1.000000e+00
   outer loop
     vertex -7.500000e-01  7.500000e-01  4.592425e-17
     vertex -7.500000e-02  1.091049e-16  0.000000e+00
     vertex -7.500000e-01 -7.500000e-01 -4.592425e-17
   endloop
 endfacet
 facet normal -3.293625e-17  3.293625e-17 -1.000000e+00
   outer loop
     vertex  5.745333e-02 -4.820907e-02  0.000000e+00
     vertex  7.500000e-01 -7.500000e-01 -4.592425e-17
     vertex  4.820907e-02 -5.745333e-02  0.000000e+00
   endloop
 endfacet
 facet normal -3.293625e-17  3.293625e-17 -1.000000e+00
   outer loop
     vertex -4.820907e-02  5.745333e-02  0.000000e+00
     vertex -5.745333e-02  4.820907e-02  0.000000e+00
     vertex -7.500000e-01  7.500000e-01  4.592425e-17
   endloop
 endfacet
 facet normal -3.878915e-17  2.716045e-17 -1.000000e+00
   outer loop
     vertex  6.495191e-02 -3.750000e-02  0.000000e+00
     vertex  7.500000e-01 -7.500000e-01 -4.592425e-17
     vertex  5.745333e-02 -4.820907e-02  0.000000e+00
   endloop
 endfacet
 facet normal -2.716045e-17  3.878915e-17 -1.000000e+00
   outer loop
     vertex -3.750000e-02  6.495191e-02  0.000000e+00
     vertex -4.820907e-02  5.745333e-02  0.000000e+00
     vertex -7.500000e-01  7.500000e-01  4.592425e-17
   endloop
 endfacet
 facet normal -4.514362e-17  2.105081e-17 -1.000000e+00
   outer loop
     vertex  7.047695e-02 -2.565151e-02  0.000000e+00
     vertex  7.500000e-01 -7.500000e-01 -4.592425e-17
     vertex  6.495191e-02 -3.750000e-02  0.000000e+00
   endloop
 endfacet
 facet normal -2.105081e-17  4.514362e-17 -1.000000e+00
   outer loop
     vertex -2.565151e-02  7.047695e-02  0.000000e+00
     vertex -3.750000e-02  6.495191e-02  0.000000e+00
     vertex -7.500000e-01  7.500000e-01  4.592425e-17
   endloop
 endfacet
 facet normal -5.256827e-17  1.408563e-17 -1.000000e+00
   outer loop
     vertex  7.386058e-02 -1.302361e-02  0.000000e+00
     vertex  7.500000e-01 -7.500000e-01 -4.592425e-17
     vertex  7.047695e-02 -2.565151e-02  0.000000e+00
   endloop
 endfacet
 facet normal -1.408563e-17  5.256827e-17 -1.000000e+00
   outer loop
     vertex -1.302361e-02  7.386058e-02  0.000000e+00
     vertex -2.565151e-02  7.047695e-02  0.000000e+00
     vertex -7.500000e-01  7.500000e-01  4.592425e-17
   endloop
 endfacet
 facet normal -5.425010e-18  6.200814e-17 -1.000000e+00
   outer loop
     vertex  4.592425e-18  7.500000e-02  0.000000e+00
     vertex -1.302361e-02  7.386058e-02  0.000000e+00
     vertex -7.500000e-01  7.500000e-01  4.592425e-17
   endloop
 endfacet
 facet normal -6.200814e-17  5.425010e-18 -1.000000e+00
   outer loop
     vertex  7.500000e-02  0.000000e+00  0.000000e+00
     vertex  7.500000e-01 -7.500000e-01 -4.592425e-17
     vertex  7.386058e-02 -1.302361e-02  0.000000e+00
   endloop
 endfacet
 facet normal  0.000000e+00  6.803593e-17 -1.000000e+00
   outer loop
     vertex  7.500000e-01  7.500000e-01  4.592425e-17
     vertex  4.592425e-18  7.500000e-02  0.000000e+00
     vertex -7.500000e-01  7.500000e-01  4.592425e-17
   endloop
 endfacet
 facet normal  0.000000e+00  6.123234e-17 -1.000000e+00
   outer loop
     vertex  7.500000e-01  7.500000e-01  4.592425e-17
     vertex  7.500000e-01 -7.500000e-01 -4.592425e-17
     vertex  7.500000e-02  0.000000e+00  0.000000e+00
   endloop
 endfacet
 facet normal  6.200814e-17  5.425010e-18 -1.000000e+00
   outer loop
     vertex  7.500000e-01  7.500000e-01  4.592425e-17
     vertex  7.500000e-02  0.000000e+00  0.000000e+00
     vertex  7.386058e-02  1.302361e-02  0.000000e+00
   endloop
 endfacet
 facet normal  5.256827e-17  1.408563e-17 -1.000000e+00
   outer loop
     vertex  7.500000e-01  7.500000e-01  4.592425e-17
     vertex  7.386058e-02  1.302361e-02  0.000000e+00
     vertex  7.047695e-02  2.565151e-02  0.000000e+00
   endloop
 endfacet
 facet normal  4.514362e-17  2.105081e-17 -1.000000e+00
   outer loop
     vertex  7.500000e-01  7.500000e-01  4.592425e-17
     vertex  7.047695e-02  2.565151e-02  0.000000e+00
     vertex  6.495191e-02  3.750000e-02  0.000000e+00
   endloop
 endfacet
 facet normal  3.878915e-17  2.716045e-17 -1.000000e+00
   outer loop
     vertex  7.500000e-01  7.500000e-01  4.592425e-17
     vertex  6.495191e-02  3.750000e-02  0.000000e+00
     vertex  5.745333e-02  4.820907e-02  0.000000e+00
   endloop
 endfacet
 facet normal  3.293625e-17  3.293625e-17 -1.000000e+00
   outer loop
     vertex  7.500000e-01  7.500000e-01  4.592425e-17
     vertex  5.745333e-02  4.820907e-02  0.000000e+00
     vertex  4.820907e-02  5.745333e-02  0.000000e+00
   endloop
 endfacet
 facet normal  2.716045e-17  3.878915e-17 -1.000000e+00
   outer loop
     vertex  7.500000e-01  7.500000e-01  4.592425e-17
     vertex  4.820907e-02  5.745333e-02  0.000000e+00
     vertex  3.750000e-02  6.495191e-02  0.000000e+00
   endloop
 endfacet
 facet normal  2.105081e-17  4.514362e-17 -1.000000e+00
   outer loop
     vertex  7.500000e-01  7.500000e-01  4.592425e-17
     vertex  3.750000e-02  6.495191e-02  0.000000e+00
     vertex  2.565151e-02  7.047695e-02  0.000000e+00
   endloop
 endfacet
 facet normal  1.408563e-17  5.256827e-17 -1.000000e+00
   outer loop
     vertex  7.500000e-01  7.500000e-01  4.592425e-17
     vertex  2.565151e-02  7.047695e-02  0.000000e+00
     vertex  1.302361e-02  7.386058e-02  0.000000e+00
   endloop
 endfacet
 facet normal  5.425010e-18  6.200814e-17 -1.000000e+00
   outer loop
     vertex  7.500000e-01  7.500000e-01  4.592425e-17
     vertex  1.302361e-02  7.386058e-02  0.000000e+00
     vertex  4.592425e-18  7.500000e-02  0.000000e+00
   endloop
 endfacet
 facet normal -2.985888e-17 -2.985888e-17  1.000000e+00
   outer loop
     vertex -5.745333e-02 -4.820907e-02  1.125000e-01
     vertex -7.500000e-01 -7.500000e-01  1.125000e-01
     vertex -4.820907e-02 -5.745333e-02  1.125000e-01
   endloop
 endfacet
 facet normal -2.462274e-17 -3.516492e-17  1.000000e+00
   outer loop
     vertex -3.750000e-02 -6.495191e-02  1.125000e-01
     vertex -4.820907e-02 -5.745333e-02  1.125000e-01
     vertex -7.500000e-01 -7.500000e-01  1.125000e-01
   endloop
 endfacet
 facet normal -3.516492e-17 -2.462274e-17  1.000000e+00
   outer loop
     vertex -6.495191e-02 -3.750000e-02  1.125000e-01
     vertex -7.500000e-01 -7.500000e-01  1.125000e-01
     vertex -5.745333e-02 -4.820907e-02  1.125000e-01
   endloop
 endfacet
 facet normal -1.908395e-17 -4.092566e-17  1.000000e+00
   outer loop
     vertex -2.565151e-02 -7.047695e-02  1.125000e-01
     vertex -3.750000e-02 -6.495191e-02  1.125000e-01
     vertex -7.500000e-01 -7.500000e-01  1.125000e-01
   endloop
 endfacet
 facet normal -4.092566e-17 -1.908395e-17  1.000000e+00
   outer loop
     vertex -7.047695e-02 -2.565151e-02  1.125000e-01
     vertex -7.500000e-01 -7.500000e-01  1.125000e-01
     vertex -6.495191e-02 -3.750000e-02  1.125000e-01
   endloop
 endfacet
 facet normal -1.276955e-17 -4.765660e-17  1.000000e+00
   outer loop
     vertex -1.302361e-02 -7.386058e-02  1.125000e-01
     vertex -2.565151e-02 -7.047695e-02  1.125000e-01
     vertex -7.500000e-01 -7.500000e-01  1.125000e-01
   endloop
 endfacet
 facet normal -4.765660e-17 -1.276955e-17  1.000000e+00
   outer loop
     vertex -7.386058e-02 -1.302361e-02  1.125000e-01
     vertex -7.500000e-01 -7.500000e-01  1.125000e-01
     vertex -7.047695e-02 -2.565151e-02  1.125000e-01
   endloop
 endfacet
 facet normal -4.918129e-18 -5.621447e-17  1.000000e+00
   outer loop
     vertex -2.136174e-16 -7.500000e-02  1.125000e-01
     vertex -1.302361e-02 -7.386058e-02  1.125000e-01
     vertex -7.500000e-01 -7.500000e-01  1.125000e-01
   endloop
 endfacet
 facet normal -5.621447e-17 -4.918129e-18  1.000000e+00
   outer loop
     vertex -7.500000e-02  1.091049e-16  1.125000e-01
     vertex -7.500000e-01 -7.500000e-01  1.125000e-01
     vertex -7.386058e-02 -1.302361e-02  1.125000e-01
   endloop
 endfacet
 facet normal  4.918129e-18 -5.621447e-17  1.000000e+00
   outer loop
     vertex  7.500000e-01 -7.500000e-01  1.125000e-01
     vertex  1.302361e-02 -7.386058e-02  1.125000e-01
     vertex -2.136174e-16 -7.500000e-02  1.125000e-01
   endloop
 endfacet
 facet normal  1.276955e-17 -4.765660e-17  1.000000e+00
   outer loop
     vertex  7.500000e-01 -7.500000e-01  1.125000e-01
     vertex  2.565151e-02 -7.047695e-02  1.125000e-01
     vertex  1.302361e-02 -7.386058e-02  1.125000e-01
   endloop
 endfacet
 facet normal  1.908395e-17 -4.092566e-17  1.000000e+00
   outer loop
     vertex  7.500000e-01 -7.500000e-01  1.125000e-01
     vertex  3.750000e-02 -6.495191e-02  1.125000e-01
     vertex  2.565151e-02 -7.047695e-02  1.125000e-01
   endloop
 endfacet
 facet normal  2.462274e-17 -3.516492e-17  1.000000e+00
   outer loop
     vertex  7.500000e-01 -7.500000e-01  1.125000e-01
     vertex  4.820907e-02 -5.745333e-02  1.125000e-01
     vertex  3.750000e-02 -6.495191e-02  1.125000e-01
   endloop
 endfacet
 facet normal  0.000000e+00 -6.167906e-17  1.000000e+00
   outer loop
     vertex  7.500000e-01 -7.500000e-01  1.125000e-01
     vertex -2.136174e-16 -7.500000e-02  1.125000e-01
     vertex -7.500000e-01 -7.500000e-01  1.125000e-01
   endloop
 endfacet
 facet normal  3.516492e-17 -2.462274e-17  1.000000e+00
   outer loop
     vertex -7.500000e-01  7.500000e-01  1.125000e-01
     vertex -6.495191e-02  3.750000e-02  1.125000e-01
     vertex -5.745333e-02  4.820907e-02  1.125000e-01
   endloop
 endfacet
 facet normal  4.092566e-17 -1.908395e-17  1.000000e+00
   outer loop
     vertex -7.500000e-01  7.500000e-01  1.125000e-01
     vertex -7.047695e-02  2.565151e-02  1.125000e-01
     vertex -6.495191e-02  3.750000e-02  1.125000e-01
   endloop
 endfacet
 facet normal  4.765660e-17 -1.276955e-17  1.000000e+00
   outer loop
     vertex -7.500000e-01  7.500000e-01  1.125000e-01
     vertex -7.386058e-02  1.302361e-02  1.125000e-01
     vertex -7.047695e-02  2.565151e-02  1.125000e-01
   endloop
 endfacet
 facet normal  5.621447e-17 -4.918129e-18  1.000000e+00
   outer loop
     vertex -7.500000e-01  7.500000e-01  1.125000e-01
     vertex -7.500000e-02  1.091049e-16  1.125000e-01
     vertex -7.386058e-02  1.302361e-02  1.125000e-01
   endloop
 endfacet
 facet normal  1.217378e-32 -5.551115e-17  1.000000e+00
   outer loop
     vertex -7.500000e-01  7.500000e-01  1.125000e-01
     vertex -7.500000e-01 -7.500000e-01  1.125000e-01
     vertex -7.500000e-02  1.091049e-16  1.125000e-01
   endloop
 endfacet
 facet normal  2.985888e-17 -2.985888e-17  1.000000e+00
   outer loop
     vertex  5.745333e-02 -4.820907e-02  1.125000e-01
     vertex  4.820907e-02 -5.745333e-02  1.125000e-01
     vertex  7.500000e-01 -7.500000e-01  1.125000e-01
   endloop
 endfacet
 facet normal  2.985888e-17 -2.985888e-17  1.000000e+00
   outer loop
     vertex -4.820907e-02  5.745333e-02  1.125000e-01
     vertex -7.500000e-01  7.500000e-01  1.125000e-01
     vertex -5.745333e-02  4.820907e-02  1.125000e-01
   endloop
 endfacet
 facet normal  3.516492e-17 -2.462274e-17  1.000000e+00
   outer loop
     vertex  6.495191e-02 -3.750000e-02  1.125000e-01
     vertex  5.745333e-02 -4.820907e-02  1.125000e-01
     vertex  7.500000e-01 -7.500000e-01  1.125000e-01
   endloop
 endfacet
 facet normal  2.462274e-17 -3.516492e-17  1.000000e+00
   outer loop
     vertex -3.750000e-02  6.495191e-02  1.125000e-01
     vertex -7.500000e-01  7.500000e-01  1.125000e-01
     vertex -4.820907e-02  5.745333e-02  1.125000e-01
   endloop
 endfacet
 facet normal  4.092566e-17 -1.908395e-17  1.000000e+00
   outer loop
     vertex  7.047695e-02 -2.565151e-02  1.125000e-01
     vertex  6.495191e-02 -3.750000e-02  1.125000e-01
     vertex  7.500000e-01 -7.500000e-01  1.125000e-01
   endloop
 endfacet
 facet normal  1.908395e-17 -4.092566e-17  1.000000e+00
   outer loop
     vertex -2.565151e-02  7.047695e-02  1.125000e-01
     vertex -7.500000e-01  7.500000e-01  1.125000e-01
     vertex -3.750000e-02  6.495191e-02  1.125000e-01
   endloop
 endfacet
 facet normal  4.765660e-17 -1.276955e-17  1.000000e+00
   outer loop
     vertex  7.386058e-02 -1.302361e-02  1.125000e-01
     vertex  7.047695e-02 -2.565151e-02  1.125000e-01
     vertex  7.500000e-01 -7.500000e-01  1.125000e-01
   endloop
 endfacet
 facet normal  1.276955e-17 -4.765660e-17  1.000000e+00
   outer loop
     vertex -1.302361e-02  7.386058e-02  1.125000e-01
     vertex -7.500000e-01  7.500000e-01  1.125000e-01
     vertex -2.565151e-02  7.047695e-02  1.125000e-01
   endloop
 endfacet
 facet normal  4.918129e-18 -5.621447e-17  1.000000e+00
   outer loop
     vertex  4.592425e-18  7.500000e-02  1.125000e-01
     vertex -7.500000e-01  7.500000e-01  1.125000e-01
     vertex -1.302361e-02  7.386058e-02  1.125000e-01
   endloop
 endfacet
 facet normal  5.621447e-17 -4.918129e-18  1.000000e+00
   outer loop
     vertex  7.500000e-02  0.000000e+00  1.125000e-01
     vertex  7.386058e-02 -1.302361e-02  1.125000e-01
     vertex  7.500000e-01 -7.500000e-01  1.125000e-01
   endloop
 endfacet
 facet normal  0.000000e+00 -6.167906e-17  1.000000e+00
   outer loop
     vertex  7.500000e-01  7.500000e-01  1.125000e-01
     vertex -7.500000e-01  7.500000e-01  1.125000e-01
     vertex  4.592425e-18  7.500000e-02  1.125000e-01
   endloop
 endfacet
 facet normal  0.000000e+00 -5.551115e-17  1.000000e+00
   outer loop
     vertex  7.500000e-01  7.500000e-01  1.125000e-01
     vertex  7.500000e-02  0.000000e+00  1.125000e-01
     vertex  7.500000e-01 -7.500000e-01  1.125000e-01
   endloop
 endfacet
 facet normal -5.621447e-17 -4.918129e-18  1.000000e+00
   outer loop
     vertex  7.500000e-01  7.500000e-01  1.125000e-01
     vertex  7.386058e-02  1.302361e-02  1.125000e-01
     vertex  7.500000e-02  0.000000e+00  1.125000e-01
   endloop
 endfacet
 facet normal -4.765660e-17 -1.276955e-17  1.000000e+00
   outer loop
     vertex  7.500000e-01  7.500000e-01  1.125000e-01
     vertex  7.047695e-02  2.565151e-02  1.125000e-01
     vertex  7.386058e-02  1.302361e-02  1.125000e-01
   endloop
 endfacet
 facet normal -4.092566e-17 -1.908395e-17  1.000000e+00
   outer loop
     vertex  7.500000e-01  7.500000e-01  1.125000e-01
     vertex  6.495191e-02  3.750000e-02  1.125000e-01
     vertex  7.047695e-02  2.565151e-02  1.125000e-01
   endloop
 endfacet
 facet normal -3.516492e-17 -2.462274e-17  1.000000e+00
   outer loop
     vertex  7.500000e-01  7.500000e-01  1.125000e-01
     vertex  5.745333e-02  4.820907e-02  1.125000e-01
     vertex  6.495191e-02  3.750000e-02  1.125000e-01
   endloop
 endfacet
 facet normal -2.985888e-17 -2.985888e-17  1.000000e+00
   outer loop
     vertex  7.500000e-01  7.500000e-01  1.125000e-01
     vertex  4.820907e-02  5.745333e-02  1.125000e-01
     vertex  5.745333e-02  4.820907e-02  1.125000e-01
   endloop
 endfacet
 facet normal -2.462274e-17 -3.516492e-17  1.000000e+00
   outer loop
     vertex  7.500000e-01  7.500000e-01  1.125000e-01
     vertex  3.750000e-02  6.495191e-02  1.125000e-01
     vertex  4.820907e-02  5.745333e-02  1.125000e-01
   endloop
 endfacet
 facet normal -1.908395e-17 -4.092566e-17  1.000000e+00
   outer loop
     vertex  7.500000e-01  7.500000e-01  1.125000e-01
     vertex  2.565151e-02  7.047695e-02  1.125000e-01
     vertex  3.750000e-02  6.495191e-02  1.125000e-01
   endloop
 endfacet
 facet normal -1.276955e-17 -4.765660e-17  1.000000e+00
   outer loop
     vertex  7.500000e-01  7.500000e-01  1.125000e-01
     vertex  1.302361e-02  7.386058e-02  1.125000e-01
     vertex  2.565151e-02  7.047695e-02  1.125000e-01
   endloop
 endfacet
 facet normal -4.918129e-18 -5.621447e-17  1.000000e+00
   outer loop
     vertex  7.500000e-01  7.500000e-01  1.125000e-01
     vertex  4.592425e-18  7.500000e-02  1.125000e-01
     vertex  1.302361e-02  7.386058e-02  1.125000e-01
   endloop
 endfacet
endsolid
