solid 
 facet normal  3.086642e-17  7.353628e-01 -6.776736e-01
   outer loop
     vertex  7.615968e-34  2.031250e-01 -2.775558e-17
     vertex  7.500000e-01  0.000000e+00 -2.204167e-01
     vertex  0.000000e+00  0.000000e+00 -2.204167e-01
   endloop
 endfacet
 facet normal  4.149554e-17  7.353628e-01 -6.776736e-01
   outer loop
     vertex  7.615968e-34  2.031250e-01 -2.775558e-17
     vertex  7.500000e-01  2.031250e-01  1.816868e-17
     vertex  7.500000e-01  0.000000e+00 -2.204167e-01
   endloop
 endfacet
 facet normal -6.123234e-17  2.295845e-49  1.000000e+00
   outer loop
     vertex  0.000000e+00  0.000000e+00 -2.775558e-17
     vertex  7.500000e-01  2.031250e-01  1.816868e-17
     vertex  7.615968e-34  2.031250e-01 -2.775558e-17
   endloop
 endfacet
 facet normal -6.123234e-17  0.000000e+00  1.000000e+00
   outer loop
     vertex  0.000000e+00  0.000000e+00 -2.775558e-17
     vertex  7.500000e-01  0.000000e+00  1.816868e-17
     vertex  7.500000e-01  2.031250e-01  1.816868e-17
   endloop
 endfacet
 facet normal  0.000000e+00 -1.000000e+00  0.000000e+00
   outer loop
     vertex  0.000000e+00  0.000000e+00 -2.204167e-01
     vertex  7.500000e-01  0.000000e+00  1.816868e-17
     vertex  0.000000e+00  0.000000e+00 -2.775558e-17
   endloop
 endfacet
 facet normal  0.000000e+00 -1.000000e+00  0.000000e+00
   outer loop
     vertex  0.000000e+00  0.000000e+00 -2.204167e-01
     vertex  7.500000e-01  0.000000e+00 -2.204167e-01
     vertex  7.500000e-01  0.000000e+00  1.816868e-17
   endloop
 endfacet
 facet normal -1.000000e+00  3.749399e-33  0.000000e+00
   outer loop
     vertex  7.615968e-34  2.031250e-01 -2.775558e-17
     vertex  0.000000e+00  0.000000e+00 -2.204167e-01
     vertex  0.000000e+00  0.000000e+00 -2.775558e-17
   endloop
 endfacet
 facet normal  1.000000e+00  0.000000e+00  0.000000e+00
   outer loop
     vertex  7.500000e-01  2.031250e-01  1.816868e-17
     vertex  7.500000e-01  0.000000e+00  1.816868e-17
     vertex  7.500000e-01  0.000000e+00 -2.204167e-01
   endloop
 endfacet
endsolid
