solid 
 facet normal -8.660254e-01 -5.000000e-01  0.000000e+00
   outer loop
     vertex -3.750000e-01 -6.495191e-01 -3.977157e-17
     vertex -7.500000e-01  0.000000e+00  1.623798e-02
     vertex -7.500000e-01  0.000000e+00  0.000000e+00
   endloop
 endfacet
 facet normal -8.660254e-01 -5.000000e-01  0.000000e+00
   outer loop
     vertex -3.750000e-01 -6.495191e-01 -3.977157e-17
     vertex -3.750000e-01 -6.495191e-01  1.623798e-02
     vertex -7.500000e-01  0.000000e+00  1.623798e-02
   endloop
 endfacet
 facet normal  0.000000e+00 -1.000000e+00  0.000000e+00
   outer loop
     vertex  3.750000e-01 -6.495191e-01 -3.977157e-17
     vertex -3.750000e-01 -6.495191e-01  1.623798e-02
     vertex -3.750000e-01 -6.495191e-01 -3.977157e-17
   endloop
 endfacet
 facet normal  0.000000e+00 -1.000000e+00  0.000000e+00
   outer loop
     vertex  3.750000e-01 -6.495191e-01 -3.977157e-17
     vertex  3.750000e-01 -6.495191e-01  1.623798e-02
     vertex -3.750000e-01 -6.495191e-01  1.623798e-02
   endloop
 endfacet
 facet normal  8.660254e-01 -5.000000e-01  0.000000e+00
   outer loop
     vertex  7.500000e-01  0.000000e+00  0.000000e+00
     vertex  3.750000e-01 -6.495191e-01  1.623798e-02
     vertex  3.750000e-01 -6.495191e-01 -3.977157e-17
   endloop
 endfacet
 facet normal  8.660254e-01 -5.000000e-01  0.000000e+00
   outer loop
     vertex  7.500000e-01  0.000000e+00  0.000000e+00
     vertex  7.500000e-01  0.000000e+00  1.623798e-02
     vertex  3.750000e-01 -6.495191e-01  1.623798e-02
   endloop
 endfacet
 facet normal  8.660254e-01  5.000000e-01  0.000000e+00
   outer loop
     vertex  3.750000e-01  6.495191e-01  3.977157e-17
     vertex  7.500000e-01  0.000000e+00  1.623798e-02
     vertex  7.500000e-01  0.000000e+00  0.000000e+00
   endloop
 endfacet
 facet normal  8.660254e-01  5.000000e-01 -0.000000e+00
   outer loop
     vertex  3.750000e-01  6.495191e-01  3.977157e-17
     vertex  3.750000e-01  6.495191e-01  1.623798e-02
     vertex  7.500000e-01  0.000000e+00  1.623798e-02
   endloop
 endfacet
 facet normal  0.000000e+00  1.000000e+00  0.000000e+00
   outer loop
     vertex -3.750000e-01  6.495191e-01  3.977157e-17
     vertex  3.750000e-01  6.495191e-01  1.623798e-02
     vertex  3.750000e-01  6.495191e-01  3.977157e-17
   endloop
 endfacet
 facet normal  0.000000e+00  1.000000e+00  0.000000e+00
   outer loop
     vertex -3.750000e-01  6.495191e-01  3.977157e-17
     vertex -3.750000e-01  6.495191e-01  1.623798e-02
     vertex  3.750000e-01  6.495191e-01  1.623798e-02
   endloop
 endfacet
 facet normal -8.660254e-01  5.000000e-01  0.000000e+00
   outer loop
     vertex -7.500000e-01  0.000000e+00  0.000000e+00
     vertex -3.750000e-01  6.495191e-01  1.623798e-02
     vertex -3.750000e-01  6.495191e-01  3.977157e-17
   endloop
 endfacet
 facet normal -8.660254e-01  5.000000e-01  0.000000e+00
   outer loop
     vertex -7.500000e-01  0.000000e+00  0.000000e+00
     vertex -7.500000e-01  0.000000e+00  1.623798e-02
     vertex -3.750000e-01  6.495191e-01  1.623798e-02
   endloop
 endfacet
 facet normal  0.000000e+00  6.123234e-17 -1.000000e+00
   outer loop
     vertex -3.750000e-01  6.495191e-01  3.977157e-17
     vertex -3.750000e-01 -6.495191e-01 -3.977157e-17
     vertex -7.500000e-01  0.000000e+00  0.000000e+00
   endloop
 endfacet
 facet normal  0.000000e+00  6.123234e-17 -1.000000e+00
   outer loop
     vertex -3.750000e-01  6.495191e-01  3.977157e-17
     vertex  3.750000e-01 -6.495191e-01 -3.977157e-17
     vertex -3.750000e-01 -6.495191e-01 -3.977157e-17
   endloop
 endfacet
 facet normal  0.000000e+00  6.123234e-17 -1.000000e+00
   outer loop
     vertex  3.750000e-01  6.495191e-01  3.977157e-17
     vertex  7.500000e-01  0.000000e+00  0.000000e+00
     vertex  3.750000e-01 -6.495191e-01 -3.977157e-17
   endloop
 endfacet
 facet normal  0.000000e+00  6.123234e-17 -1.000000e+00
   outer loop
     vertex  3.750000e-01  6.495191e-01  3.977157e-17
     vertex  3.750000e-01 -6.495191e-01 -3.977157e-17
     vertex -3.750000e-01  6.495191e-01  3.977157e-17
   endloop
 endfacet
 facet normal -2.530272e-32 -5.875719e-17  1.000000e+00
   outer loop
     vertex -3.750000e-01  6.495191e-01  1.623798e-02
     vertex -7.500000e-01  0.000000e+00  1.623798e-02
     vertex -3.750000e-01 -6.495191e-01  1.623798e-02
   endloop
 endfacet
 facet normal  0.000000e+00 -5.875719e-17  1.000000e+00
   outer loop
     vertex -3.750000e-01  6.495191e-01  1.623798e-02
     vertex -3.750000e-01 -6.495191e-01  1.623798e-02
     vertex  3.750000e-01 -6.495191e-01  1.623798e-02
   endloop
 endfacet
 facet normal  2.530272e-32 -5.875719e-17  1.000000e+00
   outer loop
     vertex  3.750000e-01  6.495191e-01  1.623798e-02
     vertex  3.750000e-01 -6.495191e-01  1.623798e-02
     vertex  7.500000e-01  0.000000e+00  1.623798e-02
   endloop
 endfacet
 facet normal  0.000000e+00 -5.875719e-17  1.000000e+00
   outer loop
     vertex  3.750000e-01  6.495191e-01  1.623798e-02
     vertex -3.750000e-01  6.495191e-01  1.623798e-02
     vertex  3.750000e-01 -6.495191e-01  1.623798e-02
   endloop
 endfacet
endsolid
