solid 
 facet normal -1.110223e-16 -1.232595e-31 -1.000000e+00
   outer loop
     vertex  5.000000e-01  4.747054e-16 -7.500000e-01
     vertex -5.000000e-01 -1.000000e-01 -7.500000e-01
     vertex -5.000000e-01 -4.747054e-16 -7.500000e-01
   endloop
 endfacet
 facet normal -1.110223e-16 -1.232595e-31 -1.000000e+00
   outer loop
     vertex  5.000000e-01  4.747054e-16 -7.500000e-01
     vertex  5.000000e-01 -1.000000e-01 -7.500000e-01
     vertex -5.000000e-01 -1.000000e-01 -7.500000e-01
   endloop
 endfacet
 facet normal  1.000000e+00  1.110223e-15  0.000000e+00
   outer loop
     vertex  5.000000e-01  4.747054e-16 -5.000000e-01
     vertex  5.000000e-01 -1.000000e-01 -7.500000e-01
     vertex  5.000000e-01  4.747054e-16 -7.500000e-01
   endloop
 endfacet
 facet normal  1.000000e+00  1.110223e-15  0.000000e+00
   outer loop
     vertex  5.000000e-01  4.747054e-16 -5.000000e-01
     vertex  5.000000e-01 -1.000000e-01 -5.000000e-01
     vertex  5.000000e-01 -1.000000e-01 -7.500000e-01
   endloop
 endfacet
 facet normal  1.000000e+00  1.110223e-15  0.000000e+00
   outer loop
     vertex  5.000000e-01  4.747054e-16  5.000000e-01
     vertex  5.000000e-01 -1.000000e-01 -5.000000e-01
     vertex  5.000000e-01  4.747054e-16 -5.000000e-01
   endloop
 endfacet
 facet normal  1.000000e+00  1.110223e-15  0.000000e+00
   outer loop
     vertex  5.000000e-01  4.747054e-16  5.000000e-01
     vertex  5.000000e-01 -1.000000e-01  5.000000e-01
     vertex  5.000000e-01 -1.000000e-01 -5.000000e-01
   endloop
 endfacet
 facet normal -0.000000e+00  0.000000e+00  1.000000e+00
   outer loop
     vertex -5.000000e-01 -4.747054e-16  5.000000e-01
     vertex  5.000000e-01 -1.000000e-01  5.000000e-01
     vertex  5.000000e-01  4.747054e-16  5.000000e-01
   endloop
 endfacet
 facet normal  0.000000e+00  0.000000e+00  1.000000e+00
   outer loop
     vertex -5.000000e-01 -4.747054e-16  5.000000e-01
     vertex -5.000000e-01 -1.000000e-01  5.000000e-01
     vertex  5.000000e-01 -1.000000e-01  5.000000e-01
   endloop
 endfacet
 facet normal -1.000000e+00 -1.110223e-15  0.000000e+00
   outer loop
     vertex -5.000000e-01 -4.747054e-16 -5.000000e-01
     vertex -5.000000e-01 -1.000000e-01  5.000000e-01
     vertex -5.000000e-01 -4.747054e-16  5.000000e-01
   endloop
 endfacet
 facet normal -1.000000e+00 -1.110223e-15  0.000000e+00
   outer loop
     vertex -5.000000e-01 -4.747054e-16 -5.000000e-01
     vertex -5.000000e-01 -1.000000e-01 -5.000000e-01
     vertex -5.000000e-01 -1.000000e-01  5.000000e-01
   endloop
 endfacet
 facet normal -1.000000e+00 -1.110223e-15  0.000000e+00
   outer loop
     vertex -5.000000e-01 -4.747054e-16 -7.500000e-01
     vertex -5.000000e-01 -1.000000e-01 -5.000000e-01
     vertex -5.000000e-01 -4.747054e-16 -5.000000e-01
   endloop
 endfacet
 facet normal -1.000000e+00 -1.110223e-15  0.000000e+00
   outer loop
     vertex -5.000000e-01 -4.747054e-16 -7.500000e-01
     vertex -5.000000e-01 -1.000000e-01 -7.500000e-01
     vertex -5.000000e-01 -1.000000e-01 -5.000000e-01
   endloop
 endfacet
 facet normal  0.000000e+00  0.000000e+00  1.000000e+00
   outer loop
     vertex  0.000000e+00  0.000000e+00 -5.000000e-01
     vertex -2.500000e-01 -2.373527e-16 -5.000000e-01
     vertex -2.500000e-01 -1.000000e-01 -5.000000e-01
   endloop
 endfacet
 facet normal  0.000000e+00  0.000000e+00  1.000000e+00
   outer loop
     vertex  0.000000e+00  0.000000e+00 -5.000000e-01
     vertex -2.500000e-01 -1.000000e-01 -5.000000e-01
     vertex  9.494108e-17 -1.000000e-01 -5.000000e-01
   endloop
 endfacet
 facet normal  0.000000e+00  0.000000e+00  1.000000e+00
   outer loop
     vertex  2.500000e-01  2.373527e-16 -5.000000e-01
     vertex  0.000000e+00  0.000000e+00 -5.000000e-01
     vertex  9.494108e-17 -1.000000e-01 -5.000000e-01
   endloop
 endfacet
 facet normal  0.000000e+00  0.000000e+00  1.000000e+00
   outer loop
     vertex  2.500000e-01  2.373527e-16 -5.000000e-01
     vertex  9.494108e-17 -1.000000e-01 -5.000000e-01
     vertex  2.500000e-01 -1.000000e-01 -5.000000e-01
   endloop
 endfacet
 facet normal -1.000000e+00 -1.110223e-15 -0.000000e+00
   outer loop
     vertex  2.500000e-01  2.373527e-16 -4.250000e-01
     vertex  2.500000e-01  2.373527e-16 -5.000000e-01
     vertex  2.500000e-01 -1.000000e-01 -5.000000e-01
   endloop
 endfacet
 facet normal -1.000000e+00 -1.110223e-15  0.000000e+00
   outer loop
     vertex  2.500000e-01  2.373527e-16 -4.250000e-01
     vertex  2.500000e-01 -1.000000e-01 -5.000000e-01
     vertex  2.500000e-01 -1.000000e-01 -4.250000e-01
   endloop
 endfacet
 facet normal  0.000000e+00  0.000000e+00 -1.000000e+00
   outer loop
     vertex  0.000000e+00  0.000000e+00 -4.250000e-01
     vertex  2.500000e-01  2.373527e-16 -4.250000e-01
     vertex  2.500000e-01 -1.000000e-01 -4.250000e-01
   endloop
 endfacet
 facet normal  0.000000e+00  0.000000e+00 -1.000000e+00
   outer loop
     vertex  0.000000e+00  0.000000e+00 -4.250000e-01
     vertex  2.500000e-01 -1.000000e-01 -4.250000e-01
     vertex  9.494108e-17 -1.000000e-01 -4.250000e-01
   endloop
 endfacet
 facet normal -2.220446e-16 -2.465190e-31 -1.000000e+00
   outer loop
     vertex -2.500000e-01 -2.373527e-16 -4.250000e-01
     vertex  0.000000e+00  0.000000e+00 -4.250000e-01
     vertex  9.494108e-17 -1.000000e-01 -4.250000e-01
   endloop
 endfacet
 facet normal -2.220446e-16 -1.848893e-31 -1.000000e+00
   outer loop
     vertex -2.500000e-01 -2.373527e-16 -4.250000e-01
     vertex  9.494108e-17 -1.000000e-01 -4.250000e-01
     vertex -2.500000e-01 -1.000000e-01 -4.250000e-01
   endloop
 endfacet
 facet normal  1.000000e+00  8.326673e-16 -0.000000e+00
   outer loop
     vertex -2.500000e-01 -2.373527e-16 -5.000000e-01
     vertex -2.500000e-01 -2.373527e-16 -4.250000e-01
     vertex -2.500000e-01 -1.000000e-01 -4.250000e-01
   endloop
 endfacet
 facet normal  1.000000e+00  8.326673e-16  0.000000e+00
   outer loop
     vertex -2.500000e-01 -2.373527e-16 -5.000000e-01
     vertex -2.500000e-01 -1.000000e-01 -4.250000e-01
     vertex -2.500000e-01 -1.000000e-01 -5.000000e-01
   endloop
 endfacet
 facet normal -9.494108e-16  1.000000e+00  0.000000e+00
   outer loop
     vertex -2.500000e-01 -2.373527e-16 -5.000000e-01
     vertex -5.000000e-01 -4.747054e-16 -7.500000e-01
     vertex -5.000000e-01 -4.747054e-16 -5.000000e-01
   endloop
 endfacet
 facet normal -9.494108e-16  1.000000e+00  0.000000e+00
   outer loop
     vertex -2.500000e-01 -2.373527e-16 -4.250000e-01
     vertex -2.500000e-01 -2.373527e-16 -5.000000e-01
     vertex -5.000000e-01 -4.747054e-16 -5.000000e-01
   endloop
 endfacet
 facet normal -9.494108e-16  1.000000e+00  0.000000e+00
   outer loop
     vertex  0.000000e+00  0.000000e+00 -5.000000e-01
     vertex -5.000000e-01 -4.747054e-16 -7.500000e-01
     vertex -2.500000e-01 -2.373527e-16 -5.000000e-01
   endloop
 endfacet
 facet normal -9.494108e-16  1.000000e+00  0.000000e+00
   outer loop
     vertex  5.000000e-01  4.747054e-16 -7.500000e-01
     vertex  0.000000e+00  0.000000e+00 -5.000000e-01
     vertex  2.500000e-01  2.373527e-16 -5.000000e-01
   endloop
 endfacet
 facet normal -9.494108e-16  1.000000e+00  0.000000e+00
   outer loop
     vertex  5.000000e-01  4.747054e-16 -7.500000e-01
     vertex -5.000000e-01 -4.747054e-16 -7.500000e-01
     vertex  0.000000e+00  0.000000e+00 -5.000000e-01
   endloop
 endfacet
 facet normal -9.494108e-16  1.000000e+00  0.000000e+00
   outer loop
     vertex -5.000000e-01 -4.747054e-16  5.000000e-01
     vertex  0.000000e+00  0.000000e+00 -4.250000e-01
     vertex -2.500000e-01 -2.373527e-16 -4.250000e-01
   endloop
 endfacet
 facet normal -9.494108e-16  1.000000e+00  0.000000e+00
   outer loop
     vertex -5.000000e-01 -4.747054e-16  5.000000e-01
     vertex -2.500000e-01 -2.373527e-16 -4.250000e-01
     vertex -5.000000e-01 -4.747054e-16 -5.000000e-01
   endloop
 endfacet
 facet normal -9.494108e-16  1.000000e+00  0.000000e+00
   outer loop
     vertex  5.000000e-01  4.747054e-16 -5.000000e-01
     vertex  2.500000e-01  2.373527e-16 -5.000000e-01
     vertex  2.500000e-01  2.373527e-16 -4.250000e-01
   endloop
 endfacet
 facet normal -9.494108e-16  1.000000e+00  0.000000e+00
   outer loop
     vertex  5.000000e-01  4.747054e-16 -5.000000e-01
     vertex  5.000000e-01  4.747054e-16 -7.500000e-01
     vertex  2.500000e-01  2.373527e-16 -5.000000e-01
   endloop
 endfacet
 facet normal -9.494108e-16  1.000000e+00  0.000000e+00
   outer loop
     vertex  5.000000e-01  4.747054e-16  5.000000e-01
     vertex  2.500000e-01  2.373527e-16 -4.250000e-01
     vertex  0.000000e+00  0.000000e+00 -4.250000e-01
   endloop
 endfacet
 facet normal -9.494108e-16  1.000000e+00  0.000000e+00
   outer loop
     vertex  5.000000e-01  4.747054e-16  5.000000e-01
     vertex  0.000000e+00  0.000000e+00 -4.250000e-01
     vertex -5.000000e-01 -4.747054e-16  5.000000e-01
   endloop
 endfacet
 facet normal -9.494108e-16  1.000000e+00  0.000000e+00
   outer loop
     vertex  5.000000e-01  4.747054e-16  5.000000e-01
     vertex  5.000000e-01  4.747054e-16 -5.000000e-01
     vertex  2.500000e-01  2.373527e-16 -4.250000e-01
   endloop
 endfacet
 facet normal  9.436896e-16 -1.000000e+00  0.000000e+00
   outer loop
     vertex -2.500000e-01 -1.000000e-01 -5.000000e-01
     vertex -5.000000e-01 -1.000000e-01 -5.000000e-01
     vertex -5.000000e-01 -1.000000e-01 -7.500000e-01
   endloop
 endfacet
 facet normal  9.436896e-16 -1.000000e+00  0.000000e+00
   outer loop
     vertex -2.500000e-01 -1.000000e-01 -4.250000e-01
     vertex -5.000000e-01 -1.000000e-01 -5.000000e-01
     vertex -2.500000e-01 -1.000000e-01 -5.000000e-01
   endloop
 endfacet
 facet normal  9.436896e-16 -1.000000e+00  0.000000e+00
   outer loop
     vertex  9.494108e-17 -1.000000e-01 -5.000000e-01
     vertex -2.500000e-01 -1.000000e-01 -5.000000e-01
     vertex -5.000000e-01 -1.000000e-01 -7.500000e-01
   endloop
 endfacet
 facet normal  9.436896e-16 -1.000000e+00  0.000000e+00
   outer loop
     vertex  5.000000e-01 -1.000000e-01 -7.500000e-01
     vertex  2.500000e-01 -1.000000e-01 -5.000000e-01
     vertex  9.494108e-17 -1.000000e-01 -5.000000e-01
   endloop
 endfacet
 facet normal  9.436896e-16 -1.000000e+00  0.000000e+00
   outer loop
     vertex  5.000000e-01 -1.000000e-01 -7.500000e-01
     vertex  9.494108e-17 -1.000000e-01 -5.000000e-01
     vertex -5.000000e-01 -1.000000e-01 -7.500000e-01
   endloop
 endfacet
 facet normal  9.436896e-16 -1.000000e+00 -1.066028e-31
   outer loop
     vertex -5.000000e-01 -1.000000e-01  5.000000e-01
     vertex -2.500000e-01 -1.000000e-01 -4.250000e-01
     vertex  9.494108e-17 -1.000000e-01 -4.250000e-01
   endloop
 endfacet
 facet normal  9.436896e-16 -1.000000e+00  0.000000e+00
   outer loop
     vertex -5.000000e-01 -1.000000e-01  5.000000e-01
     vertex -5.000000e-01 -1.000000e-01 -5.000000e-01
     vertex -2.500000e-01 -1.000000e-01 -4.250000e-01
   endloop
 endfacet
 facet normal  9.436896e-16 -1.000000e+00  0.000000e+00
   outer loop
     vertex  5.000000e-01 -1.000000e-01 -5.000000e-01
     vertex  2.500000e-01 -1.000000e-01 -4.250000e-01
     vertex  2.500000e-01 -1.000000e-01 -5.000000e-01
   endloop
 endfacet
 facet normal  9.436896e-16 -1.000000e+00  0.000000e+00
   outer loop
     vertex  5.000000e-01 -1.000000e-01 -5.000000e-01
     vertex  2.500000e-01 -1.000000e-01 -5.000000e-01
     vertex  5.000000e-01 -1.000000e-01 -7.500000e-01
   endloop
 endfacet
 facet normal  9.436896e-16 -1.000000e+00  0.000000e+00
   outer loop
     vertex  5.000000e-01 -1.000000e-01  5.000000e-01
     vertex  9.494108e-17 -1.000000e-01 -4.250000e-01
     vertex  2.500000e-01 -1.000000e-01 -4.250000e-01
   endloop
 endfacet
 facet normal  9.436896e-16 -1.000000e+00  0.000000e+00
   outer loop
     vertex  5.000000e-01 -1.000000e-01  5.000000e-01
     vertex -5.000000e-01 -1.000000e-01  5.000000e-01
     vertex  9.494108e-17 -1.000000e-01 -4.250000e-01
   endloop
 endfacet
 facet normal  9.436896e-16 -1.000000e+00  0.000000e+00
   outer loop
     vertex  5.000000e-01 -1.000000e-01  5.000000e-01
     vertex  2.500000e-01 -1.000000e-01 -4.250000e-01
     vertex  5.000000e-01 -1.000000e-01 -5.000000e-01
   endloop
 endfacet
endsolid
