solid 
 facet normal  6.123234e-17 -6.123234e-17 -1.000000e+00
   outer loop
     vertex  2.812050e-33  7.500000e-01 -4.592425e-17
     vertex  5.859375e-02  0.000000e+00  3.587832e-18
     vertex  0.000000e+00  0.000000e+00  0.000000e+00
   endloop
 endfacet
 facet normal  6.123234e-17 -6.123234e-17 -1.000000e+00
   outer loop
     vertex  2.812050e-33  7.500000e-01 -4.592425e-17
     vertex  5.859375e-02  7.500000e-01 -4.233642e-17
     vertex  5.859375e-02  0.000000e+00  3.587832e-18
   endloop
 endfacet
 facet normal  0.000000e+00  1.000000e+00  0.000000e+00
   outer loop
     vertex  2.812050e-33  7.500000e-01  1.875000e-01
     vertex  5.859375e-02  7.500000e-01 -4.233642e-17
     vertex  2.812050e-33  7.500000e-01 -4.592425e-17
   endloop
 endfacet
 facet normal -0.000000e+00  1.000000e+00  0.000000e+00
   outer loop
     vertex  2.812050e-33  7.500000e-01  1.875000e-01
     vertex  5.859375e-02  7.500000e-01  1.875000e-01
     vertex  5.859375e-02  7.500000e-01 -4.233642e-17
   endloop
 endfacet
 facet normal  0.000000e+00  9.961947e-01  8.715574e-02
   outer loop
     vertex  2.810381e-33  7.495549e-01  1.925873e-01
     vertex  5.859375e-02  7.500000e-01  1.875000e-01
     vertex  2.812050e-33  7.500000e-01  1.875000e-01
   endloop
 endfacet
 facet normal -0.000000e+00  9.961947e-01  8.715574e-02
   outer loop
     vertex  2.810381e-33  7.495549e-01  1.925873e-01
     vertex  5.859375e-02  7.495549e-01  1.925873e-01
     vertex  5.859375e-02  7.500000e-01  1.875000e-01
   endloop
 endfacet
 facet normal -0.000000e+00  9.659258e-01  2.588190e-01
   outer loop
     vertex  2.805425e-33  7.482332e-01  1.975201e-01
     vertex  5.859375e-02  7.482332e-01  1.975201e-01
     vertex  5.859375e-02  7.495549e-01  1.925873e-01
   endloop
 endfacet
 facet normal  0.000000e+00  9.659258e-01  2.588190e-01
   outer loop
     vertex  2.805425e-33  7.482332e-01  1.975201e-01
     vertex  5.859375e-02  7.495549e-01  1.925873e-01
     vertex  2.810381e-33  7.495549e-01  1.925873e-01
   endloop
 endfacet
 facet normal -0.000000e+00  9.063078e-01  4.226183e-01
   outer loop
     vertex  2.797333e-33  7.460750e-01  2.021484e-01
     vertex  5.859375e-02  7.460750e-01  2.021484e-01
     vertex  5.859375e-02  7.482332e-01  1.975201e-01
   endloop
 endfacet
 facet normal  0.000000e+00  9.063078e-01  4.226183e-01
   outer loop
     vertex  2.797333e-33  7.460750e-01  2.021484e-01
     vertex  5.859375e-02  7.482332e-01  1.975201e-01
     vertex  2.805425e-33  7.482332e-01  1.975201e-01
   endloop
 endfacet
 facet normal -0.000000e+00  8.191520e-01  5.735764e-01
   outer loop
     vertex  2.786351e-33  7.431458e-01  2.063317e-01
     vertex  5.859375e-02  7.431458e-01  2.063317e-01
     vertex  5.859375e-02  7.460750e-01  2.021484e-01
   endloop
 endfacet
 facet normal  0.000000e+00  8.191520e-01  5.735764e-01
   outer loop
     vertex  2.786351e-33  7.431458e-01  2.063317e-01
     vertex  5.859375e-02  7.460750e-01  2.021484e-01
     vertex  2.797333e-33  7.460750e-01  2.021484e-01
   endloop
 endfacet
 facet normal -0.000000e+00  7.071068e-01  7.071068e-01
   outer loop
     vertex  2.772811e-33  7.395348e-01  2.099427e-01
     vertex  5.859375e-02  7.395348e-01  2.099427e-01
     vertex  5.859375e-02  7.431458e-01  2.063317e-01
   endloop
 endfacet
 facet normal  0.000000e+00  7.071068e-01  7.071068e-01
   outer loop
     vertex  2.772811e-33  7.395348e-01  2.099427e-01
     vertex  5.859375e-02  7.431458e-01  2.063317e-01
     vertex  2.786351e-33  7.431458e-01  2.063317e-01
   endloop
 endfacet
 facet normal -0.000000e+00  5.735764e-01  8.191520e-01
   outer loop
     vertex  2.757127e-33  7.353516e-01  2.128718e-01
     vertex  5.859375e-02  7.353516e-01  2.128718e-01
     vertex  5.859375e-02  7.395348e-01  2.099427e-01
   endloop
 endfacet
 facet normal  0.000000e+00  5.735764e-01  8.191520e-01
   outer loop
     vertex  2.757127e-33  7.353516e-01  2.128718e-01
     vertex  5.859375e-02  7.395348e-01  2.099427e-01
     vertex  2.772811e-33  7.395348e-01  2.099427e-01
   endloop
 endfacet
 facet normal -0.000000e+00  4.226183e-01  9.063078e-01
   outer loop
     vertex  2.739773e-33  7.307232e-01  2.150301e-01
     vertex  5.859375e-02  7.307232e-01  2.150301e-01
     vertex  5.859375e-02  7.353516e-01  2.128718e-01
   endloop
 endfacet
 facet normal  0.000000e+00  4.226183e-01  9.063078e-01
   outer loop
     vertex  2.739773e-33  7.307232e-01  2.150301e-01
     vertex  5.859375e-02  7.353516e-01  2.128718e-01
     vertex  2.757127e-33  7.353516e-01  2.128718e-01
   endloop
 endfacet
 facet normal -0.000000e+00  2.588190e-01  9.659258e-01
   outer loop
     vertex  2.721278e-33  7.257905e-01  2.163518e-01
     vertex  5.859375e-02  7.257905e-01  2.163518e-01
     vertex  5.859375e-02  7.307232e-01  2.150301e-01
   endloop
 endfacet
 facet normal  0.000000e+00  2.588190e-01  9.659258e-01
   outer loop
     vertex  2.721278e-33  7.257905e-01  2.163518e-01
     vertex  5.859375e-02  7.307232e-01  2.150301e-01
     vertex  2.739773e-33  7.307232e-01  2.150301e-01
   endloop
 endfacet
 facet normal -0.000000e+00  8.715574e-02  9.961947e-01
   outer loop
     vertex  2.702204e-33  7.207031e-01  2.167969e-01
     vertex  5.859375e-02  7.207031e-01  2.167969e-01
     vertex  5.859375e-02  7.257905e-01  2.163518e-01
   endloop
 endfacet
 facet normal  0.000000e+00  8.715574e-02  9.961947e-01
   outer loop
     vertex  2.702204e-33  7.207031e-01  2.167969e-01
     vertex  5.859375e-02  7.257905e-01  2.163518e-01
     vertex  2.721278e-33  7.257905e-01  2.163518e-01
   endloop
 endfacet
 facet normal  0.000000e+00  4.014366e-17  1.000000e+00
   outer loop
     vertex  1.098457e-34  2.929687e-02  2.167969e-01
     vertex  5.859375e-02  7.207031e-01  2.167969e-01
     vertex  2.702204e-33  7.207031e-01  2.167969e-01
   endloop
 endfacet
 facet normal -0.000000e+00  4.014366e-17  1.000000e+00
   outer loop
     vertex  1.098457e-34  2.929687e-02  2.167969e-01
     vertex  5.859375e-02  2.929687e-02  2.167969e-01
     vertex  5.859375e-02  7.207031e-01  2.167969e-01
   endloop
 endfacet
 facet normal  0.000000e+00 -7.845910e-02  9.969173e-01
   outer loop
     vertex  9.266204e-35  2.471383e-02  2.164362e-01
     vertex  5.859375e-02  2.929687e-02  2.167969e-01
     vertex  1.098457e-34  2.929687e-02  2.167969e-01
   endloop
 endfacet
 facet normal  0.000000e+00 -7.845910e-02  9.969173e-01
   outer loop
     vertex  9.266204e-35  2.471383e-02  2.164362e-01
     vertex  5.859375e-02  2.471383e-02  2.164362e-01
     vertex  5.859375e-02  2.929687e-02  2.167969e-01
   endloop
 endfacet
 facet normal  0.000000e+00 -2.334454e-01  9.723699e-01
   outer loop
     vertex  7.590150e-35  2.024364e-02  2.153630e-01
     vertex  5.859375e-02  2.024364e-02  2.153630e-01
     vertex  5.859375e-02  2.471383e-02  2.164362e-01
   endloop
 endfacet
 facet normal  0.000000e+00 -2.334454e-01  9.723699e-01
   outer loop
     vertex  7.590150e-35  2.024364e-02  2.153630e-01
     vertex  5.859375e-02  2.471383e-02  2.164362e-01
     vertex  9.266204e-35  2.471383e-02  2.164362e-01
   endloop
 endfacet
 facet normal  0.000000e+00 -3.826834e-01  9.238795e-01
   outer loop
     vertex  5.997679e-35  1.599637e-02  2.136037e-01
     vertex  5.859375e-02  1.599637e-02  2.136037e-01
     vertex  5.859375e-02  2.024364e-02  2.153630e-01
   endloop
 endfacet
 facet normal  0.000000e+00 -3.826834e-01  9.238795e-01
   outer loop
     vertex  5.997679e-35  1.599637e-02  2.136037e-01
     vertex  5.859375e-02  2.024364e-02  2.153630e-01
     vertex  7.590150e-35  2.024364e-02  2.153630e-01
   endloop
 endfacet
 facet normal  0.000000e+00 -5.224986e-01  8.526402e-01
   outer loop
     vertex  4.528001e-35  1.207660e-02  2.112017e-01
     vertex  5.859375e-02  1.207660e-02  2.112017e-01
     vertex  5.859375e-02  1.599637e-02  2.136037e-01
   endloop
 endfacet
 facet normal  0.000000e+00 -5.224986e-01  8.526402e-01
   outer loop
     vertex  4.528001e-35  1.207660e-02  2.112017e-01
     vertex  5.859375e-02  1.599637e-02  2.136037e-01
     vertex  5.997679e-35  1.599637e-02  2.136037e-01
   endloop
 endfacet
 facet normal  0.000000e+00 -6.494480e-01  7.604060e-01
   outer loop
     vertex  3.217306e-35  8.580856e-03  2.082160e-01
     vertex  5.859375e-02  8.580856e-03  2.082160e-01
     vertex  5.859375e-02  1.207660e-02  2.112017e-01
   endloop
 endfacet
 facet normal  0.000000e+00 -6.494480e-01  7.604060e-01
   outer loop
     vertex  3.217306e-35  8.580856e-03  2.082160e-01
     vertex  5.859375e-02  1.207660e-02  2.112017e-01
     vertex  4.528001e-35  1.207660e-02  2.112017e-01
   endloop
 endfacet
 facet normal  0.000000e+00 -7.604060e-01  6.494480e-01
   outer loop
     vertex  2.097866e-35  5.595205e-03  2.047203e-01
     vertex  5.859375e-02  5.595205e-03  2.047203e-01
     vertex  5.859375e-02  8.580856e-03  2.082160e-01
   endloop
 endfacet
 facet normal  0.000000e+00 -7.604060e-01  6.494480e-01
   outer loop
     vertex  2.097866e-35  5.595205e-03  2.047203e-01
     vertex  5.859375e-02  8.580856e-03  2.082160e-01
     vertex  3.217306e-35  8.580856e-03  2.082160e-01
   endloop
 endfacet
 facet normal  0.000000e+00 -8.526402e-01  5.224986e-01
   outer loop
     vertex  1.197246e-35  3.193168e-03  2.008005e-01
     vertex  5.859375e-02  3.193168e-03  2.008005e-01
     vertex  5.859375e-02  5.595205e-03  2.047203e-01
   endloop
 endfacet
 facet normal  0.000000e+00 -8.526402e-01  5.224986e-01
   outer loop
     vertex  1.197246e-35  3.193168e-03  2.008005e-01
     vertex  5.859375e-02  5.595205e-03  2.047203e-01
     vertex  2.097866e-35  5.595205e-03  2.047203e-01
   endloop
 endfacet
 facet normal  0.000000e+00 -9.238795e-01  3.826834e-01
   outer loop
     vertex  5.376231e-36  1.433891e-03  1.965532e-01
     vertex  5.859375e-02  1.433891e-03  1.965532e-01
     vertex  5.859375e-02  3.193168e-03  2.008005e-01
   endloop
 endfacet
 facet normal  0.000000e+00 -9.238795e-01  3.826834e-01
   outer loop
     vertex  5.376231e-36  1.433891e-03  1.965532e-01
     vertex  5.859375e-02  3.193168e-03  2.008005e-01
     vertex  1.197246e-35  3.193168e-03  2.008005e-01
   endloop
 endfacet
 facet normal  0.000000e+00 -9.723699e-01  2.334454e-01
   outer loop
     vertex  1.352383e-36  3.606931e-04  1.920830e-01
     vertex  5.859375e-02  3.606931e-04  1.920830e-01
     vertex  5.859375e-02  1.433891e-03  1.965532e-01
   endloop
 endfacet
 facet normal  0.000000e+00 -9.723699e-01  2.334454e-01
   outer loop
     vertex  1.352383e-36  3.606931e-04  1.920830e-01
     vertex  5.859375e-02  1.433891e-03  1.965532e-01
     vertex  5.376231e-36  1.433891e-03  1.965532e-01
   endloop
 endfacet
 facet normal  0.000000e+00 -9.969173e-01  7.845910e-02
   outer loop
     vertex -3.207318e-50 -3.469447e-18  1.875000e-01
     vertex  5.859375e-02 -3.469447e-18  1.875000e-01
     vertex  5.859375e-02  3.606931e-04  1.920830e-01
   endloop
 endfacet
 facet normal  0.000000e+00 -9.969173e-01  7.845910e-02
   outer loop
     vertex -3.207318e-50 -3.469447e-18  1.875000e-01
     vertex  5.859375e-02  3.606931e-04  1.920830e-01
     vertex  1.352383e-36  3.606931e-04  1.920830e-01
   endloop
 endfacet
 facet normal  0.000000e+00 -1.000000e+00 -1.850372e-17
   outer loop
     vertex  0.000000e+00  0.000000e+00  0.000000e+00
     vertex  5.859375e-02 -3.469447e-18  1.875000e-01
     vertex -3.207318e-50 -3.469447e-18  1.875000e-01
   endloop
 endfacet
 facet normal  1.133026e-33 -1.000000e+00 -1.850372e-17
   outer loop
     vertex  0.000000e+00  0.000000e+00  0.000000e+00
     vertex  5.859375e-02  0.000000e+00  3.587832e-18
     vertex  5.859375e-02 -3.469447e-18  1.875000e-01
   endloop
 endfacet
 facet normal -1.000000e+00  3.749399e-33  0.000000e+00
   outer loop
     vertex  3.217306e-35  8.580856e-03  2.082160e-01
     vertex  1.197246e-35  3.193168e-03  2.008005e-01
     vertex  2.097866e-35  5.595205e-03  2.047203e-01
   endloop
 endfacet
 facet normal -1.000000e+00  3.749399e-33  1.894743e-47
   outer loop
     vertex  1.098457e-34  2.929687e-02  2.167969e-01
     vertex  7.590150e-35  2.024364e-02  2.153630e-01
     vertex  9.266204e-35  2.471383e-02  2.164362e-01
   endloop
 endfacet
 facet normal -1.000000e+00  3.749399e-33  0.000000e+00
   outer loop
     vertex  1.098457e-34  2.929687e-02  2.167969e-01
     vertex  5.997679e-35  1.599637e-02  2.136037e-01
     vertex  7.590150e-35  2.024364e-02  2.153630e-01
   endloop
 endfacet
 facet normal -1.000000e+00  3.749399e-33  0.000000e+00
   outer loop
     vertex  1.098457e-34  2.929687e-02  2.167969e-01
     vertex  4.528001e-35  1.207660e-02  2.112017e-01
     vertex  5.997679e-35  1.599637e-02  2.136037e-01
   endloop
 endfacet
 facet normal -1.000000e+00  3.749399e-33  1.048825e-47
   outer loop
     vertex  1.098457e-34  2.929687e-02  2.167969e-01
     vertex  3.217306e-35  8.580856e-03  2.082160e-01
     vertex  4.528001e-35  1.207660e-02  2.112017e-01
   endloop
 endfacet
 facet normal -1.000000e+00  3.749399e-33 -4.038509e-48
   outer loop
     vertex  1.098457e-34  2.929687e-02  2.167969e-01
     vertex  5.376231e-36  1.433891e-03  1.965532e-01
     vertex  1.197246e-35  3.193168e-03  2.008005e-01
   endloop
 endfacet
 facet normal -1.000000e+00  3.749399e-33  0.000000e+00
   outer loop
     vertex  1.098457e-34  2.929687e-02  2.167969e-01
     vertex  1.352383e-36  3.606931e-04  1.920830e-01
     vertex  5.376231e-36  1.433891e-03  1.965532e-01
   endloop
 endfacet
 facet normal -1.000000e+00  3.749399e-33  5.401637e-48
   outer loop
     vertex  1.098457e-34  2.929687e-02  2.167969e-01
     vertex -3.207318e-50 -3.469447e-18  1.875000e-01
     vertex  1.352383e-36  3.606931e-04  1.920830e-01
   endloop
 endfacet
 facet normal -1.000000e+00  3.749399e-33 -2.432810e-49
   outer loop
     vertex  1.098457e-34  2.929687e-02  2.167969e-01
     vertex  0.000000e+00  0.000000e+00  0.000000e+00
     vertex -3.207318e-50 -3.469447e-18  1.875000e-01
   endloop
 endfacet
 facet normal -1.000000e+00  3.749399e-33  0.000000e+00
   outer loop
     vertex  1.098457e-34  2.929687e-02  2.167969e-01
     vertex  1.197246e-35  3.193168e-03  2.008005e-01
     vertex  3.217306e-35  8.580856e-03  2.082160e-01
   endloop
 endfacet
 facet normal -1.000000e+00  3.749399e-33  3.945097e-49
   outer loop
     vertex  2.702204e-33  7.207031e-01  2.167969e-01
     vertex  2.812050e-33  7.500000e-01 -4.592425e-17
     vertex  0.000000e+00  0.000000e+00  0.000000e+00
   endloop
 endfacet
 facet normal -1.000000e+00  3.749399e-33  0.000000e+00
   outer loop
     vertex  2.702204e-33  7.207031e-01  2.167969e-01
     vertex  0.000000e+00  0.000000e+00  0.000000e+00
     vertex  1.098457e-34  2.929687e-02  2.167969e-01
   endloop
 endfacet
 facet normal -1.000000e+00  3.749399e-33  0.000000e+00
   outer loop
     vertex  2.812050e-33  7.500000e-01  1.875000e-01
     vertex  2.812050e-33  7.500000e-01 -4.592425e-17
     vertex  2.702204e-33  7.207031e-01  2.167969e-01
   endloop
 endfacet
 facet normal -1.000000e+00  3.749399e-33 -4.380357e-46
   outer loop
     vertex  2.739773e-33  7.307232e-01  2.150301e-01
     vertex  2.702204e-33  7.207031e-01  2.167969e-01
     vertex  2.721278e-33  7.257905e-01  2.163518e-01
   endloop
 endfacet
 facet normal -1.000000e+00  3.749399e-33  6.210774e-47
   outer loop
     vertex  2.757127e-33  7.353516e-01  2.128718e-01
     vertex  2.702204e-33  7.207031e-01  2.167969e-01
     vertex  2.739773e-33  7.307232e-01  2.150301e-01
   endloop
 endfacet
 facet normal -1.000000e+00  3.749399e-33  2.639579e-47
   outer loop
     vertex  2.797333e-33  7.460750e-01  2.021484e-01
     vertex  2.810381e-33  7.495549e-01  1.925873e-01
     vertex  2.812050e-33  7.500000e-01  1.875000e-01
   endloop
 endfacet
 facet normal -1.000000e+00  3.749399e-33 -1.694507e-46
   outer loop
     vertex  2.797333e-33  7.460750e-01  2.021484e-01
     vertex  2.805425e-33  7.482332e-01  1.975201e-01
     vertex  2.810381e-33  7.495549e-01  1.925873e-01
   endloop
 endfacet
 facet normal -1.000000e+00  3.749399e-33 -3.232125e-47
   outer loop
     vertex  2.786351e-33  7.431458e-01  2.063317e-01
     vertex  2.797333e-33  7.460750e-01  2.021484e-01
     vertex  2.812050e-33  7.500000e-01  1.875000e-01
   endloop
 endfacet
 facet normal -1.000000e+00  3.749399e-33 -2.332648e-47
   outer loop
     vertex  2.772811e-33  7.395348e-01  2.099427e-01
     vertex  2.812050e-33  7.500000e-01  1.875000e-01
     vertex  2.702204e-33  7.207031e-01  2.167969e-01
   endloop
 endfacet
 facet normal -1.000000e+00  3.749399e-33  3.310957e-47
   outer loop
     vertex  2.772811e-33  7.395348e-01  2.099427e-01
     vertex  2.702204e-33  7.207031e-01  2.167969e-01
     vertex  2.757127e-33  7.353516e-01  2.128718e-01
   endloop
 endfacet
 facet normal -1.000000e+00  3.749399e-33  4.731276e-47
   outer loop
     vertex  2.772811e-33  7.395348e-01  2.099427e-01
     vertex  2.786351e-33  7.431458e-01  2.063317e-01
     vertex  2.812050e-33  7.500000e-01  1.875000e-01
   endloop
 endfacet
 facet normal  1.000000e+00  0.000000e+00  0.000000e+00
   outer loop
     vertex  5.859375e-02  8.580856e-03  2.082160e-01
     vertex  5.859375e-02  5.595205e-03  2.047203e-01
     vertex  5.859375e-02  3.193168e-03  2.008005e-01
   endloop
 endfacet
 facet normal  1.000000e+00  0.000000e+00  0.000000e+00
   outer loop
     vertex  5.859375e-02  2.929687e-02  2.167969e-01
     vertex  5.859375e-02  2.471383e-02  2.164362e-01
     vertex  5.859375e-02  2.024364e-02  2.153630e-01
   endloop
 endfacet
 facet normal  1.000000e+00  0.000000e+00  0.000000e+00
   outer loop
     vertex  5.859375e-02  2.929687e-02  2.167969e-01
     vertex  5.859375e-02  2.024364e-02  2.153630e-01
     vertex  5.859375e-02  1.599637e-02  2.136037e-01
   endloop
 endfacet
 facet normal  1.000000e+00  0.000000e+00  0.000000e+00
   outer loop
     vertex  5.859375e-02  2.929687e-02  2.167969e-01
     vertex  5.859375e-02  1.599637e-02  2.136037e-01
     vertex  5.859375e-02  1.207660e-02  2.112017e-01
   endloop
 endfacet
 facet normal  1.000000e+00  0.000000e+00  0.000000e+00
   outer loop
     vertex  5.859375e-02  2.929687e-02  2.167969e-01
     vertex  5.859375e-02  1.207660e-02  2.112017e-01
     vertex  5.859375e-02  8.580856e-03  2.082160e-01
   endloop
 endfacet
 facet normal  1.000000e+00  0.000000e+00  0.000000e+00
   outer loop
     vertex  5.859375e-02  2.929687e-02  2.167969e-01
     vertex  5.859375e-02  3.193168e-03  2.008005e-01
     vertex  5.859375e-02  1.433891e-03  1.965532e-01
   endloop
 endfacet
 facet normal  1.000000e+00  0.000000e+00  0.000000e+00
   outer loop
     vertex  5.859375e-02  2.929687e-02  2.167969e-01
     vertex  5.859375e-02  1.433891e-03  1.965532e-01
     vertex  5.859375e-02  3.606931e-04  1.920830e-01
   endloop
 endfacet
 facet normal  1.000000e+00  0.000000e+00  0.000000e+00
   outer loop
     vertex  5.859375e-02  2.929687e-02  2.167969e-01
     vertex  5.859375e-02  3.606931e-04  1.920830e-01
     vertex  5.859375e-02 -3.469447e-18  1.875000e-01
   endloop
 endfacet
 facet normal  1.000000e+00  0.000000e+00  0.000000e+00
   outer loop
     vertex  5.859375e-02  2.929687e-02  2.167969e-01
     vertex  5.859375e-02 -3.469447e-18  1.875000e-01
     vertex  5.859375e-02  0.000000e+00  3.587832e-18
   endloop
 endfacet
 facet normal  1.000000e+00  0.000000e+00  0.000000e+00
   outer loop
     vertex  5.859375e-02  2.929687e-02  2.167969e-01
     vertex  5.859375e-02  8.580856e-03  2.082160e-01
     vertex  5.859375e-02  3.193168e-03  2.008005e-01
   endloop
 endfacet
 facet normal  1.000000e+00  0.000000e+00  0.000000e+00
   outer loop
     vertex  5.859375e-02  7.207031e-01  2.167969e-01
     vertex  5.859375e-02  0.000000e+00  3.587832e-18
     vertex  5.859375e-02  7.500000e-01 -4.233642e-17
   endloop
 endfacet
 facet normal  1.000000e+00  0.000000e+00  0.000000e+00
   outer loop
     vertex  5.859375e-02  7.207031e-01  2.167969e-01
     vertex  5.859375e-02  2.929687e-02  2.167969e-01
     vertex  5.859375e-02  0.000000e+00  3.587832e-18
   endloop
 endfacet
 facet normal  1.000000e+00  0.000000e+00  0.000000e+00
   outer loop
     vertex  5.859375e-02  7.500000e-01  1.875000e-01
     vertex  5.859375e-02  7.207031e-01  2.167969e-01
     vertex  5.859375e-02  7.500000e-01 -4.233642e-17
   endloop
 endfacet
 facet normal  1.000000e+00  0.000000e+00  0.000000e+00
   outer loop
     vertex  5.859375e-02  7.307232e-01  2.150301e-01
     vertex  5.859375e-02  7.257905e-01  2.163518e-01
     vertex  5.859375e-02  7.207031e-01  2.167969e-01
   endloop
 endfacet
 facet normal  1.000000e+00  0.000000e+00  0.000000e+00
   outer loop
     vertex  5.859375e-02  7.353516e-01  2.128718e-01
     vertex  5.859375e-02  7.307232e-01  2.150301e-01
     vertex  5.859375e-02  7.207031e-01  2.167969e-01
   endloop
 endfacet
 facet normal  1.000000e+00  0.000000e+00  0.000000e+00
   outer loop
     vertex  5.859375e-02  7.460750e-01  2.021484e-01
     vertex  5.859375e-02  7.500000e-01  1.875000e-01
     vertex  5.859375e-02  7.495549e-01  1.925873e-01
   endloop
 endfacet
 facet normal  1.000000e+00  0.000000e+00  0.000000e+00
   outer loop
     vertex  5.859375e-02  7.460750e-01  2.021484e-01
     vertex  5.859375e-02  7.495549e-01  1.925873e-01
     vertex  5.859375e-02  7.482332e-01  1.975201e-01
   endloop
 endfacet
 facet normal  1.000000e+00  0.000000e+00  0.000000e+00
   outer loop
     vertex  5.859375e-02  7.431458e-01  2.063317e-01
     vertex  5.859375e-02  7.500000e-01  1.875000e-01
     vertex  5.859375e-02  7.460750e-01  2.021484e-01
   endloop
 endfacet
 facet normal  1.000000e+00  0.000000e+00  0.000000e+00
   outer loop
     vertex  5.859375e-02  7.395348e-01  2.099427e-01
     vertex  5.859375e-02  7.207031e-01  2.167969e-01
     vertex  5.859375e-02  7.500000e-01  1.875000e-01
   endloop
 endfacet
 facet normal  1.000000e+00  0.000000e+00  0.000000e+00
   outer loop
     vertex  5.859375e-02  7.395348e-01  2.099427e-01
     vertex  5.859375e-02  7.353516e-01  2.128718e-01
     vertex  5.859375e-02  7.207031e-01  2.167969e-01
   endloop
 endfacet
 facet normal  1.000000e+00  0.000000e+00  0.000000e+00
   outer loop
     vertex  5.859375e-02  7.395348e-01  2.099427e-01
     vertex  5.859375e-02  7.500000e-01  1.875000e-01
     vertex  5.859375e-02  7.431458e-01  2.063317e-01
   endloop
 endfacet
endsolid
