solid 
 facet normal  9.961947e-01  8.715574e-02  0.000000e+00
   outer loop
     vertex  7.386058e-01  1.302361e-01  0.000000e+00
     vertex  7.500000e-01  0.000000e+00  6.000000e-02
     vertex  7.500000e-01  0.000000e+00  0.000000e+00
   endloop
 endfacet
 facet normal  9.961947e-01  8.715574e-02 -0.000000e+00
   outer loop
     vertex  7.386058e-01  1.302361e-01  0.000000e+00
     vertex  7.386058e-01  1.302361e-01  6.000000e-02
     vertex  7.500000e-01  0.000000e+00  6.000000e-02
   endloop
 endfacet
 facet normal  9.659258e-01  2.588190e-01 -0.000000e+00
   outer loop
     vertex  7.047695e-01  2.565151e-01  0.000000e+00
     vertex  7.047695e-01  2.565151e-01  6.000000e-02
     vertex  7.386058e-01  1.302361e-01  6.000000e-02
   endloop
 endfacet
 facet normal  9.659258e-01  2.588190e-01  0.000000e+00
   outer loop
     vertex  7.047695e-01  2.565151e-01  0.000000e+00
     vertex  7.386058e-01  1.302361e-01  6.000000e-02
     vertex  7.386058e-01  1.302361e-01  0.000000e+00
   endloop
 endfacet
 facet normal  9.063078e-01  4.226183e-01 -0.000000e+00
   outer loop
     vertex  6.495191e-01  3.750000e-01  0.000000e+00
     vertex  6.495191e-01  3.750000e-01  6.000000e-02
     vertex  7.047695e-01  2.565151e-01  6.000000e-02
   endloop
 endfacet
 facet normal  9.063078e-01  4.226183e-01  0.000000e+00
   outer loop
     vertex  6.495191e-01  3.750000e-01  0.000000e+00
     vertex  7.047695e-01  2.565151e-01  6.000000e-02
     vertex  7.047695e-01  2.565151e-01  0.000000e+00
   endloop
 endfacet
 facet normal  8.191520e-01  5.735764e-01 -0.000000e+00
   outer loop
     vertex  5.745333e-01  4.820907e-01  0.000000e+00
     vertex  5.745333e-01  4.820907e-01  6.000000e-02
     vertex  6.495191e-01  3.750000e-01  6.000000e-02
   endloop
 endfacet
 facet normal  8.191520e-01  5.735764e-01  0.000000e+00
   outer loop
     vertex  5.745333e-01  4.820907e-01  0.000000e+00
     vertex  6.495191e-01  3.750000e-01  6.000000e-02
     vertex  6.495191e-01  3.750000e-01  0.000000e+00
   endloop
 endfacet
 facet normal  7.071068e-01  7.071068e-01 -0.000000e+00
   outer loop
     vertex  4.820907e-01  5.745333e-01  0.000000e+00
     vertex  4.820907e-01  5.745333e-01  6.000000e-02
     vertex  5.745333e-01  4.820907e-01  6.000000e-02
   endloop
 endfacet
 facet normal  7.071068e-01  7.071068e-01  0.000000e+00
   outer loop
     vertex  4.820907e-01  5.745333e-01  0.000000e+00
     vertex  5.745333e-01  4.820907e-01  6.000000e-02
     vertex  5.745333e-01  4.820907e-01  0.000000e+00
   endloop
 endfacet
 facet normal  5.735764e-01  8.191520e-01  0.000000e+00
   outer loop
     vertex  3.750000e-01  6.495191e-01  0.000000e+00
     vertex  4.820907e-01  5.745333e-01  6.000000e-02
     vertex  4.820907e-01  5.745333e-01  0.000000e+00
   endloop
 endfacet
 facet normal  5.735764e-01  8.191520e-01 -0.000000e+00
   outer loop
     vertex  3.750000e-01  6.495191e-01  0.000000e+00
     vertex  3.750000e-01  6.495191e-01  6.000000e-02
     vertex  4.820907e-01  5.745333e-01  6.000000e-02
   endloop
 endfacet
 facet normal  4.226183e-01  9.063078e-01  0.000000e+00
   outer loop
     vertex  2.565151e-01  7.047695e-01  0.000000e+00
     vertex  3.750000e-01  6.495191e-01  6.000000e-02
     vertex  3.750000e-01  6.495191e-01  0.000000e+00
   endloop
 endfacet
 facet normal  4.226183e-01  9.063078e-01 -0.000000e+00
   outer loop
     vertex  2.565151e-01  7.047695e-01  0.000000e+00
     vertex  2.565151e-01  7.047695e-01  6.000000e-02
     vertex  3.750000e-01  6.495191e-01  6.000000e-02
   endloop
 endfacet
 facet normal  2.588190e-01  9.659258e-01 -0.000000e+00
   outer loop
     vertex  1.302361e-01  7.386058e-01  0.000000e+00
     vertex  1.302361e-01  7.386058e-01  6.000000e-02
     vertex  2.565151e-01  7.047695e-01  6.000000e-02
   endloop
 endfacet
 facet normal  2.588190e-01  9.659258e-01  0.000000e+00
   outer loop
     vertex  1.302361e-01  7.386058e-01  0.000000e+00
     vertex  2.565151e-01  7.047695e-01  6.000000e-02
     vertex  2.565151e-01  7.047695e-01  0.000000e+00
   endloop
 endfacet
 facet normal  8.715574e-02  9.961947e-01 -0.000000e+00
   outer loop
     vertex  4.592425e-17  7.500000e-01  0.000000e+00
     vertex  4.592425e-17  7.500000e-01  6.000000e-02
     vertex  1.302361e-01  7.386058e-01  6.000000e-02
   endloop
 endfacet
 facet normal  8.715574e-02  9.961947e-01  0.000000e+00
   outer loop
     vertex  4.592425e-17  7.500000e-01  0.000000e+00
     vertex  1.302361e-01  7.386058e-01  6.000000e-02
     vertex  1.302361e-01  7.386058e-01  0.000000e+00
   endloop
 endfacet
 facet normal -8.715574e-02  9.961947e-01  0.000000e+00
   outer loop
     vertex -1.302361e-01  7.386058e-01  0.000000e+00
     vertex -1.302361e-01  7.386058e-01  6.000000e-02
     vertex  4.592425e-17  7.500000e-01  6.000000e-02
   endloop
 endfacet
 facet normal -8.715574e-02  9.961947e-01  0.000000e+00
   outer loop
     vertex -1.302361e-01  7.386058e-01  0.000000e+00
     vertex  4.592425e-17  7.500000e-01  6.000000e-02
     vertex  4.592425e-17  7.500000e-01  0.000000e+00
   endloop
 endfacet
 facet normal -2.588190e-01  9.659258e-01  0.000000e+00
   outer loop
     vertex -2.565151e-01  7.047695e-01  0.000000e+00
     vertex -2.565151e-01  7.047695e-01  6.000000e-02
     vertex -1.302361e-01  7.386058e-01  6.000000e-02
   endloop
 endfacet
 facet normal -2.588190e-01  9.659258e-01  0.000000e+00
   outer loop
     vertex -2.565151e-01  7.047695e-01  0.000000e+00
     vertex -1.302361e-01  7.386058e-01  6.000000e-02
     vertex -1.302361e-01  7.386058e-01  0.000000e+00
   endloop
 endfacet
 facet normal -4.226183e-01  9.063078e-01  0.000000e+00
   outer loop
     vertex -3.750000e-01  6.495191e-01  0.000000e+00
     vertex -3.750000e-01  6.495191e-01  6.000000e-02
     vertex -2.565151e-01  7.047695e-01  6.000000e-02
   endloop
 endfacet
 facet normal -4.226183e-01  9.063078e-01  0.000000e+00
   outer loop
     vertex -3.750000e-01  6.495191e-01  0.000000e+00
     vertex -2.565151e-01  7.047695e-01  6.000000e-02
     vertex -2.565151e-01  7.047695e-01  0.000000e+00
   endloop
 endfacet
 facet normal -5.735764e-01  8.191520e-01  0.000000e+00
   outer loop
     vertex -4.820907e-01  5.745333e-01  0.000000e+00
     vertex -4.820907e-01  5.745333e-01  6.000000e-02
     vertex -3.750000e-01  6.495191e-01  6.000000e-02
   endloop
 endfacet
 facet normal -5.735764e-01  8.191520e-01  0.000000e+00
   outer loop
     vertex -4.820907e-01  5.745333e-01  0.000000e+00
     vertex -3.750000e-01  6.495191e-01  6.000000e-02
     vertex -3.750000e-01  6.495191e-01  0.000000e+00
   endloop
 endfacet
 facet normal -7.071068e-01  7.071068e-01  0.000000e+00
   outer loop
     vertex -5.745333e-01  4.820907e-01  0.000000e+00
     vertex -5.745333e-01  4.820907e-01  6.000000e-02
     vertex -4.820907e-01  5.745333e-01  6.000000e-02
   endloop
 endfacet
 facet normal -7.071068e-01  7.071068e-01  0.000000e+00
   outer loop
     vertex -5.745333e-01  4.820907e-01  0.000000e+00
     vertex -4.820907e-01  5.745333e-01  6.000000e-02
     vertex -4.820907e-01  5.745333e-01  0.000000e+00
   endloop
 endfacet
 facet normal -8.191520e-01  5.735764e-01  0.000000e+00
   outer loop
     vertex -6.495191e-01  3.750000e-01  0.000000e+00
     vertex -6.495191e-01  3.750000e-01  6.000000e-02
     vertex -5.745333e-01  4.820907e-01  6.000000e-02
   endloop
 endfacet
 facet normal -8.191520e-01  5.735764e-01  0.000000e+00
   outer loop
     vertex -6.495191e-01  3.750000e-01  0.000000e+00
     vertex -5.745333e-01  4.820907e-01  6.000000e-02
     vertex -5.745333e-01  4.820907e-01  0.000000e+00
   endloop
 endfacet
 facet normal -9.063078e-01  4.226183e-01  0.000000e+00
   outer loop
     vertex -7.047695e-01  2.565151e-01  0.000000e+00
     vertex -7.047695e-01  2.565151e-01  6.000000e-02
     vertex -6.495191e-01  3.750000e-01  6.000000e-02
   endloop
 endfacet
 facet normal -9.659258e-01  2.588190e-01  0.000000e+00
   outer loop
     vertex -7.047695e-01  2.565151e-01  0.000000e+00
     vertex -7.386058e-01  1.302361e-01  6.000000e-02
     vertex -7.047695e-01  2.565151e-01  6.000000e-02
   endloop
 endfacet
 facet normal -9.063078e-01  4.226183e-01  0.000000e+00
   outer loop
     vertex -7.047695e-01  2.565151e-01  0.000000e+00
     vertex -6.495191e-01  3.750000e-01  6.000000e-02
     vertex -6.495191e-01  3.750000e-01  0.000000e+00
   endloop
 endfacet
 facet normal -9.659258e-01  2.588190e-01  0.000000e+00
   outer loop
     vertex -7.386058e-01  1.302361e-01  0.000000e+00
     vertex -7.386058e-01  1.302361e-01  6.000000e-02
     vertex -7.047695e-01  2.565151e-01  0.000000e+00
   endloop
 endfacet
 facet normal -9.961947e-01  8.715574e-02  0.000000e+00
   outer loop
     vertex -7.500000e-01  1.091049e-15  0.000000e+00
     vertex -7.500000e-01  1.091049e-15  6.000000e-02
     vertex -7.386058e-01  1.302361e-01  6.000000e-02
   endloop
 endfacet
 facet normal -9.961947e-01  8.715574e-02  0.000000e+00
   outer loop
     vertex -7.500000e-01  1.091049e-15  0.000000e+00
     vertex -7.386058e-01  1.302361e-01  6.000000e-02
     vertex -7.386058e-01  1.302361e-01  0.000000e+00
   endloop
 endfacet
 facet normal -9.961947e-01 -8.715574e-02  0.000000e+00
   outer loop
     vertex -7.386058e-01 -1.302361e-01  0.000000e+00
     vertex -7.386058e-01 -1.302361e-01  6.000000e-02
     vertex -7.500000e-01  1.091049e-15  6.000000e-02
   endloop
 endfacet
 facet normal -9.961947e-01 -8.715574e-02  0.000000e+00
   outer loop
     vertex -7.386058e-01 -1.302361e-01  0.000000e+00
     vertex -7.500000e-01  1.091049e-15  6.000000e-02
     vertex -7.500000e-01  1.091049e-15  0.000000e+00
   endloop
 endfacet
 facet normal -9.659258e-01 -2.588190e-01  0.000000e+00
   outer loop
     vertex -7.047695e-01 -2.565151e-01  0.000000e+00
     vertex -7.047695e-01 -2.565151e-01  6.000000e-02
     vertex -7.386058e-01 -1.302361e-01  6.000000e-02
   endloop
 endfacet
 facet normal -9.659258e-01 -2.588190e-01  0.000000e+00
   outer loop
     vertex -7.047695e-01 -2.565151e-01  0.000000e+00
     vertex -7.386058e-01 -1.302361e-01  6.000000e-02
     vertex -7.386058e-01 -1.302361e-01  0.000000e+00
   endloop
 endfacet
 facet normal -9.063078e-01 -4.226183e-01  0.000000e+00
   outer loop
     vertex -6.495191e-01 -3.750000e-01  0.000000e+00
     vertex -6.495191e-01 -3.750000e-01  6.000000e-02
     vertex -7.047695e-01 -2.565151e-01  6.000000e-02
   endloop
 endfacet
 facet normal -9.063078e-01 -4.226183e-01  0.000000e+00
   outer loop
     vertex -6.495191e-01 -3.750000e-01  0.000000e+00
     vertex -7.047695e-01 -2.565151e-01  6.000000e-02
     vertex -7.047695e-01 -2.565151e-01  0.000000e+00
   endloop
 endfacet
 facet normal -8.191520e-01 -5.735764e-01  0.000000e+00
   outer loop
     vertex -5.745333e-01 -4.820907e-01  0.000000e+00
     vertex -5.745333e-01 -4.820907e-01  6.000000e-02
     vertex -6.495191e-01 -3.750000e-01  6.000000e-02
   endloop
 endfacet
 facet normal -8.191520e-01 -5.735764e-01  0.000000e+00
   outer loop
     vertex -5.745333e-01 -4.820907e-01  0.000000e+00
     vertex -6.495191e-01 -3.750000e-01  6.000000e-02
     vertex -6.495191e-01 -3.750000e-01  0.000000e+00
   endloop
 endfacet
 facet normal -7.071068e-01 -7.071068e-01  0.000000e+00
   outer loop
     vertex -4.820907e-01 -5.745333e-01  0.000000e+00
     vertex -4.820907e-01 -5.745333e-01  6.000000e-02
     vertex -5.745333e-01 -4.820907e-01  6.000000e-02
   endloop
 endfacet
 facet normal -7.071068e-01 -7.071068e-01  0.000000e+00
   outer loop
     vertex -4.820907e-01 -5.745333e-01  0.000000e+00
     vertex -5.745333e-01 -4.820907e-01  6.000000e-02
     vertex -5.745333e-01 -4.820907e-01  0.000000e+00
   endloop
 endfacet
 facet normal -5.735764e-01 -8.191520e-01  0.000000e+00
   outer loop
     vertex -3.750000e-01 -6.495191e-01  0.000000e+00
     vertex -3.750000e-01 -6.495191e-01  6.000000e-02
     vertex -4.820907e-01 -5.745333e-01  6.000000e-02
   endloop
 endfacet
 facet normal -5.735764e-01 -8.191520e-01  0.000000e+00
   outer loop
     vertex -3.750000e-01 -6.495191e-01  0.000000e+00
     vertex -4.820907e-01 -5.745333e-01  6.000000e-02
     vertex -4.820907e-01 -5.745333e-01  0.000000e+00
   endloop
 endfacet
 facet normal -4.226183e-01 -9.063078e-01  0.000000e+00
   outer loop
     vertex -2.565151e-01 -7.047695e-01  0.000000e+00
     vertex -2.565151e-01 -7.047695e-01  6.000000e-02
     vertex -3.750000e-01 -6.495191e-01  6.000000e-02
   endloop
 endfacet
 facet normal -4.226183e-01 -9.063078e-01  0.000000e+00
   outer loop
     vertex -2.565151e-01 -7.047695e-01  0.000000e+00
     vertex -3.750000e-01 -6.495191e-01  6.000000e-02
     vertex -3.750000e-01 -6.495191e-01  0.000000e+00
   endloop
 endfacet
 facet normal -2.588190e-01 -9.659258e-01  0.000000e+00
   outer loop
     vertex -1.302361e-01 -7.386058e-01  0.000000e+00
     vertex -1.302361e-01 -7.386058e-01  6.000000e-02
     vertex -2.565151e-01 -7.047695e-01  6.000000e-02
   endloop
 endfacet
 facet normal -2.588190e-01 -9.659258e-01  0.000000e+00
   outer loop
     vertex -1.302361e-01 -7.386058e-01  0.000000e+00
     vertex -2.565151e-01 -7.047695e-01  6.000000e-02
     vertex -2.565151e-01 -7.047695e-01  0.000000e+00
   endloop
 endfacet
 facet normal -8.715574e-02 -9.961947e-01  0.000000e+00
   outer loop
     vertex -2.136174e-15 -7.500000e-01  0.000000e+00
     vertex -2.136174e-15 -7.500000e-01  6.000000e-02
     vertex -1.302361e-01 -7.386058e-01  6.000000e-02
   endloop
 endfacet
 facet normal -8.715574e-02 -9.961947e-01  0.000000e+00
   outer loop
     vertex -2.136174e-15 -7.500000e-01  0.000000e+00
     vertex -1.302361e-01 -7.386058e-01  6.000000e-02
     vertex -1.302361e-01 -7.386058e-01  0.000000e+00
   endloop
 endfacet
 facet normal  8.715574e-02 -9.961947e-01  0.000000e+00
   outer loop
     vertex  1.302361e-01 -7.386058e-01  0.000000e+00
     vertex  1.302361e-01 -7.386058e-01  6.000000e-02
     vertex -2.136174e-15 -7.500000e-01  6.000000e-02
   endloop
 endfacet
 facet normal  8.715574e-02 -9.961947e-01  0.000000e+00
   outer loop
     vertex  1.302361e-01 -7.386058e-01  0.000000e+00
     vertex -2.136174e-15 -7.500000e-01  6.000000e-02
     vertex -2.136174e-15 -7.500000e-01  0.000000e+00
   endloop
 endfacet
 facet normal  2.588190e-01 -9.659258e-01  0.000000e+00
   outer loop
     vertex  2.565151e-01 -7.047695e-01  0.000000e+00
     vertex  2.565151e-01 -7.047695e-01  6.000000e-02
     vertex  1.302361e-01 -7.386058e-01  6.000000e-02
   endloop
 endfacet
 facet normal  2.588190e-01 -9.659258e-01  0.000000e+00
   outer loop
     vertex  2.565151e-01 -7.047695e-01  0.000000e+00
     vertex  1.302361e-01 -7.386058e-01  6.000000e-02
     vertex  1.302361e-01 -7.386058e-01  0.000000e+00
   endloop
 endfacet
 facet normal  4.226183e-01 -9.063078e-01  0.000000e+00
   outer loop
     vertex  3.750000e-01 -6.495191e-01  0.000000e+00
     vertex  3.750000e-01 -6.495191e-01  6.000000e-02
     vertex  2.565151e-01 -7.047695e-01  6.000000e-02
   endloop
 endfacet
 facet normal  4.226183e-01 -9.063078e-01  0.000000e+00
   outer loop
     vertex  3.750000e-01 -6.495191e-01  0.000000e+00
     vertex  2.565151e-01 -7.047695e-01  6.000000e-02
     vertex  2.565151e-01 -7.047695e-01  0.000000e+00
   endloop
 endfacet
 facet normal  5.735764e-01 -8.191520e-01  0.000000e+00
   outer loop
     vertex  4.820907e-01 -5.745333e-01  0.000000e+00
     vertex  4.820907e-01 -5.745333e-01  6.000000e-02
     vertex  3.750000e-01 -6.495191e-01  6.000000e-02
   endloop
 endfacet
 facet normal  5.735764e-01 -8.191520e-01  0.000000e+00
   outer loop
     vertex  4.820907e-01 -5.745333e-01  0.000000e+00
     vertex  3.750000e-01 -6.495191e-01  6.000000e-02
     vertex  3.750000e-01 -6.495191e-01  0.000000e+00
   endloop
 endfacet
 facet normal  7.071068e-01 -7.071068e-01  0.000000e+00
   outer loop
     vertex  5.745333e-01 -4.820907e-01  0.000000e+00
     vertex  4.820907e-01 -5.745333e-01  6.000000e-02
     vertex  4.820907e-01 -5.745333e-01  0.000000e+00
   endloop
 endfacet
 facet normal  7.071068e-01 -7.071068e-01  0.000000e+00
   outer loop
     vertex  5.745333e-01 -4.820907e-01  0.000000e+00
     vertex  5.745333e-01 -4.820907e-01  6.000000e-02
     vertex  4.820907e-01 -5.745333e-01  6.000000e-02
   endloop
 endfacet
 facet normal  8.191520e-01 -5.735764e-01  0.000000e+00
   outer loop
     vertex  6.495191e-01 -3.750000e-01  0.000000e+00
     vertex  5.745333e-01 -4.820907e-01  6.000000e-02
     vertex  5.745333e-01 -4.820907e-01  0.000000e+00
   endloop
 endfacet
 facet normal  8.191520e-01 -5.735764e-01  0.000000e+00
   outer loop
     vertex  6.495191e-01 -3.750000e-01  0.000000e+00
     vertex  6.495191e-01 -3.750000e-01  6.000000e-02
     vertex  5.745333e-01 -4.820907e-01  6.000000e-02
   endloop
 endfacet
 facet normal  9.063078e-01 -4.226183e-01  0.000000e+00
   outer loop
     vertex  7.047695e-01 -2.565151e-01  0.000000e+00
     vertex  6.495191e-01 -3.750000e-01  6.000000e-02
     vertex  6.495191e-01 -3.750000e-01  0.000000e+00
   endloop
 endfacet
 facet normal  9.063078e-01 -4.226183e-01  0.000000e+00
   outer loop
     vertex  7.047695e-01 -2.565151e-01  0.000000e+00
     vertex  7.047695e-01 -2.565151e-01  6.000000e-02
     vertex  6.495191e-01 -3.750000e-01  6.000000e-02
   endloop
 endfacet
 facet normal  9.659258e-01 -2.588190e-01  0.000000e+00
   outer loop
     vertex  7.386058e-01 -1.302361e-01  0.000000e+00
     vertex  7.047695e-01 -2.565151e-01  6.000000e-02
     vertex  7.047695e-01 -2.565151e-01  0.000000e+00
   endloop
 endfacet
 facet normal  9.659258e-01 -2.588190e-01  0.000000e+00
   outer loop
     vertex  7.386058e-01 -1.302361e-01  0.000000e+00
     vertex  7.386058e-01 -1.302361e-01  6.000000e-02
     vertex  7.047695e-01 -2.565151e-01  6.000000e-02
   endloop
 endfacet
 facet normal  9.961947e-01 -8.715574e-02  0.000000e+00
   outer loop
     vertex  7.386058e-01 -1.302361e-01  0.000000e+00
     vertex  7.500000e-01  0.000000e+00  6.000000e-02
     vertex  7.386058e-01 -1.302361e-01  6.000000e-02
   endloop
 endfacet
 facet normal  9.961947e-01 -8.715574e-02  0.000000e+00
   outer loop
     vertex  7.500000e-01  0.000000e+00  0.000000e+00
     vertex  7.500000e-01  0.000000e+00  6.000000e-02
     vertex  7.386058e-01 -1.302361e-01  0.000000e+00
   endloop
 endfacet
 facet normal  5.669094e-17  4.959815e-18 -1.000000e+00
   outer loop
     vertex  4.200000e-01 -2.250000e-01  6.521244e-17
     vertex -7.386058e-01 -1.302361e-01  0.000000e+00
     vertex -7.500000e-01  1.091049e-15  0.000000e+00
   endloop
 endfacet
 facet normal  5.754645e-17  1.541953e-17 -1.000000e+00
   outer loop
     vertex  4.200000e-01 -2.250000e-01  6.521244e-17
     vertex -7.047695e-01 -2.565151e-01  0.000000e+00
     vertex -7.386058e-01 -1.302361e-01  0.000000e+00
   endloop
 endfacet
 facet normal  5.723074e-17  2.668713e-17 -1.000000e+00
   outer loop
     vertex  4.200000e-01 -2.250000e-01  6.521244e-17
     vertex -6.495191e-01 -3.750000e-01  0.000000e+00
     vertex -7.047695e-01 -2.565151e-01  0.000000e+00
   endloop
 endfacet
 facet normal  5.552121e-17  3.887637e-17 -1.000000e+00
   outer loop
     vertex  4.200000e-01 -2.250000e-01  6.521244e-17
     vertex -5.745333e-01 -4.820907e-01  0.000000e+00
     vertex -6.495191e-01 -3.750000e-01  0.000000e+00
   endloop
 endfacet
 facet normal  5.210226e-17  5.210226e-17 -1.000000e+00
   outer loop
     vertex  4.200000e-01 -2.250000e-01  6.521244e-17
     vertex -4.820907e-01 -5.745333e-01  0.000000e+00
     vertex -5.745333e-01 -4.820907e-01  0.000000e+00
   endloop
 endfacet
 facet normal  4.653790e-17  6.646301e-17 -1.000000e+00
   outer loop
     vertex  4.200000e-01 -2.250000e-01  6.521244e-17
     vertex -3.750000e-01 -6.495191e-01  0.000000e+00
     vertex -4.820907e-01 -5.745333e-01  0.000000e+00
   endloop
 endfacet
 facet normal  3.823915e-17  8.200413e-17 -1.000000e+00
   outer loop
     vertex  4.200000e-01 -2.250000e-01  6.521244e-17
     vertex -2.565151e-01 -7.047695e-01  0.000000e+00
     vertex -3.750000e-01 -6.495191e-01  0.000000e+00
   endloop
 endfacet
 facet normal  2.643349e-17  9.865111e-17 -1.000000e+00
   outer loop
     vertex  4.200000e-01 -2.250000e-01  6.521244e-17
     vertex -1.302361e-01 -7.386058e-01  0.000000e+00
     vertex -2.565151e-01 -7.047695e-01  0.000000e+00
   endloop
 endfacet
 facet normal  1.015647e-17  1.160890e-16 -1.000000e+00
   outer loop
     vertex  4.200000e-01 -2.250000e-01  6.521244e-17
     vertex -2.136174e-15 -7.500000e-01  0.000000e+00
     vertex -1.302361e-01 -7.386058e-01  0.000000e+00
   endloop
 endfacet
 facet normal -1.168519e-17  1.335623e-16 -1.000000e+00
   outer loop
     vertex  4.200000e-01 -2.250000e-01  6.521244e-17
     vertex  1.302361e-01 -7.386058e-01  0.000000e+00
     vertex -2.136174e-15 -7.500000e-01  0.000000e+00
   endloop
 endfacet
 facet normal -4.008044e-17  1.495822e-16 -1.000000e+00
   outer loop
     vertex  4.200000e-01 -2.250000e-01  6.521244e-17
     vertex  2.565151e-01 -7.047695e-01  0.000000e+00
     vertex  1.302361e-01 -7.386058e-01  0.000000e+00
   endloop
 endfacet
 facet normal -7.535665e-17  1.616029e-16 -1.000000e+00
   outer loop
     vertex  4.200000e-01 -2.250000e-01  6.521244e-17
     vertex  3.750000e-01 -6.495191e-01  0.000000e+00
     vertex  2.565151e-01 -7.047695e-01  0.000000e+00
   endloop
 endfacet
 facet normal -1.161860e-16  1.659309e-16 -1.000000e+00
   outer loop
     vertex  4.200000e-01 -2.250000e-01  6.521244e-17
     vertex  4.820907e-01 -5.745333e-01  0.000000e+00
     vertex  3.750000e-01 -6.495191e-01  0.000000e+00
   endloop
 endfacet
 facet normal -1.584272e-16  1.584272e-16 -1.000000e+00
   outer loop
     vertex  4.200000e-01 -2.250000e-01  6.521244e-17
     vertex  5.745333e-01 -4.820907e-01  0.000000e+00
     vertex  4.820907e-01 -5.745333e-01  0.000000e+00
   endloop
 endfacet
 facet normal -1.949257e-16  1.364885e-16 -1.000000e+00
   outer loop
     vertex  6.495191e-01 -3.750000e-01  0.000000e+00
     vertex  5.745333e-01 -4.820907e-01  0.000000e+00
     vertex  4.200000e-01 -2.250000e-01  6.521244e-17
   endloop
 endfacet
 facet normal  1.224647e-16  6.221361e-16 -1.000000e+00
   outer loop
     vertex  6.300000e-01 -2.250000e-01  9.093002e-17
     vertex  6.495191e-01 -3.750000e-01  0.000000e+00
     vertex  4.200000e-01 -2.250000e-01  6.521244e-17
   endloop
 endfacet
 facet normal -1.016373e-15  4.739426e-16 -1.000000e+00
   outer loop
     vertex  7.047695e-01 -2.565151e-01  0.000000e+00
     vertex  6.495191e-01 -3.750000e-01  0.000000e+00
     vertex  6.300000e-01 -2.250000e-01  9.093002e-17
   endloop
 endfacet
 facet normal -1.092726e-15  2.927951e-16 -1.000000e+00
   outer loop
     vertex  7.386058e-01 -1.302361e-01  0.000000e+00
     vertex  7.047695e-01 -2.565151e-01  0.000000e+00
     vertex  6.300000e-01 -2.250000e-01  9.093002e-17
   endloop
 endfacet
 facet normal  1.526441e-17 -5.696754e-17 -1.000000e+00
   outer loop
     vertex  4.200000e-01  2.250000e-01  3.765789e-17
     vertex -2.565151e-01  7.047695e-01  0.000000e+00
     vertex -1.302361e-01  7.386058e-01  0.000000e+00
   endloop
 endfacet
 facet normal  2.208176e-17 -4.735450e-17 -1.000000e+00
   outer loop
     vertex  4.200000e-01  2.250000e-01  3.765789e-17
     vertex -3.750000e-01  6.495191e-01  0.000000e+00
     vertex -2.565151e-01  7.047695e-01  0.000000e+00
   endloop
 endfacet
 facet normal  2.687400e-17 -3.838005e-17 -1.000000e+00
   outer loop
     vertex  4.200000e-01  2.250000e-01  3.765789e-17
     vertex -4.820907e-01  5.745333e-01  0.000000e+00
     vertex -3.750000e-01  6.495191e-01  0.000000e+00
   endloop
 endfacet
 facet normal  3.008722e-17 -3.008722e-17 -1.000000e+00
   outer loop
     vertex  4.200000e-01  2.250000e-01  3.765789e-17
     vertex -5.745333e-01  4.820907e-01  0.000000e+00
     vertex -4.820907e-01  5.745333e-01  0.000000e+00
   endloop
 endfacet
 facet normal  3.206154e-17 -2.244973e-17 -1.000000e+00
   outer loop
     vertex  4.200000e-01  2.250000e-01  3.765789e-17
     vertex -6.495191e-01  3.750000e-01  0.000000e+00
     vertex -5.745333e-01  4.820907e-01  0.000000e+00
   endloop
 endfacet
 facet normal  3.304874e-17 -1.541088e-17 -1.000000e+00
   outer loop
     vertex  4.200000e-01  2.250000e-01  3.765789e-17
     vertex -7.047695e-01  2.565151e-01  0.000000e+00
     vertex -6.495191e-01  3.750000e-01  0.000000e+00
   endloop
 endfacet
 facet normal  3.323105e-17 -8.904233e-18 -1.000000e+00
   outer loop
     vertex  4.200000e-01  2.250000e-01  3.765789e-17
     vertex -7.386058e-01  1.302361e-01  0.000000e+00
     vertex -7.047695e-01  2.565151e-01  0.000000e+00
   endloop
 endfacet
 facet normal  3.273702e-17 -2.864118e-18 -1.000000e+00
   outer loop
     vertex  4.200000e-01  2.250000e-01  3.765789e-17
     vertex -7.500000e-01  1.091049e-15  0.000000e+00
     vertex -7.386058e-01  1.302361e-01  0.000000e+00
   endloop
 endfacet
 facet normal  4.396168e-17 -6.123234e-17 -1.000000e+00
   outer loop
     vertex  4.200000e-01  2.250000e-01  3.765789e-17
     vertex  4.200000e-01 -2.250000e-01  6.521244e-17
     vertex -7.500000e-01  1.091049e-15  0.000000e+00
   endloop
 endfacet
 facet normal -9.064445e-16  7.930362e-17 -1.000000e+00
   outer loop
     vertex  7.500000e-01  0.000000e+00  0.000000e+00
     vertex  7.386058e-01 -1.302361e-01  0.000000e+00
     vertex  6.300000e-01 -2.250000e-01  9.093002e-17
   endloop
 endfacet
 facet normal  5.865005e-18 -6.703731e-17 -1.000000e+00
   outer loop
     vertex  4.592425e-17  7.500000e-01  0.000000e+00
     vertex  4.200000e-01  2.250000e-01  3.765789e-17
     vertex -1.302361e-01  7.386058e-01  0.000000e+00
   endloop
 endfacet
 facet normal -6.317643e-16 -5.527222e-17 -1.000000e+00
   outer loop
     vertex  7.386058e-01  1.302361e-01  0.000000e+00
     vertex  7.500000e-01  0.000000e+00  0.000000e+00
     vertex  6.300000e-01  2.250000e-01  6.337547e-17
   endloop
 endfacet
 facet normal -6.747785e-18 -7.712754e-17 -1.000000e+00
   outer loop
     vertex  1.302361e-01  7.386058e-01  0.000000e+00
     vertex  4.200000e-01  2.250000e-01  3.765789e-17
     vertex  4.592425e-17  7.500000e-01  0.000000e+00
   endloop
 endfacet
 facet normal -7.615971e-16 -2.040693e-16 -1.000000e+00
   outer loop
     vertex  7.047695e-01  2.565151e-01  0.000000e+00
     vertex  7.386058e-01  1.302361e-01  0.000000e+00
     vertex  6.300000e-01  2.250000e-01  6.337547e-17
   endloop
 endfacet
 facet normal -2.314504e-17 -8.637847e-17 -1.000000e+00
   outer loop
     vertex  2.565151e-01  7.047695e-01  0.000000e+00
     vertex  4.200000e-01  2.250000e-01  3.765789e-17
     vertex  1.302361e-01  7.386058e-01  0.000000e+00
   endloop
 endfacet
 facet normal -4.351581e-17 -9.331996e-17 -1.000000e+00
   outer loop
     vertex  3.750000e-01  6.495191e-01  0.000000e+00
     vertex  4.200000e-01  2.250000e-01  3.765789e-17
     vertex  2.565151e-01  7.047695e-01  0.000000e+00
   endloop
 endfacet
 facet normal -7.083813e-16 -3.303236e-16 -1.000000e+00
   outer loop
     vertex  6.495191e-01  3.750000e-01  0.000000e+00
     vertex  7.047695e-01  2.565151e-01  0.000000e+00
     vertex  6.300000e-01  2.250000e-01  6.337547e-17
   endloop
 endfacet
 facet normal  1.224647e-16 -4.384391e-16 -1.000000e+00
   outer loop
     vertex  6.495191e-01  3.750000e-01  0.000000e+00
     vertex  6.300000e-01  2.250000e-01  6.337547e-17
     vertex  4.200000e-01  2.250000e-01  3.765789e-17
   endloop
 endfacet
 facet normal -6.709335e-17 -9.581923e-17 -1.000000e+00
   outer loop
     vertex  4.820907e-01  5.745333e-01  0.000000e+00
     vertex  4.200000e-01  2.250000e-01  3.765789e-17
     vertex  3.750000e-01  6.495191e-01  0.000000e+00
   endloop
 endfacet
 facet normal -1.125628e-16 -7.881729e-17 -1.000000e+00
   outer loop
     vertex  5.745333e-01  4.820907e-01  0.000000e+00
     vertex  6.495191e-01  3.750000e-01  0.000000e+00
     vertex  4.200000e-01  2.250000e-01  3.765789e-17
   endloop
 endfacet
 facet normal -9.148613e-17 -9.148613e-17 -1.000000e+00
   outer loop
     vertex  5.745333e-01  4.820907e-01  0.000000e+00
     vertex  4.200000e-01  2.250000e-01  3.765789e-17
     vertex  4.820907e-01  5.745333e-01  0.000000e+00
   endloop
 endfacet
 facet normal -6.429396e-16 -6.123234e-17 -1.000000e+00
   outer loop
     vertex  6.300000e-01  2.250000e-01  6.337547e-17
     vertex  7.500000e-01  0.000000e+00  0.000000e+00
     vertex  6.300000e-01 -2.250000e-01  9.093002e-17
   endloop
 endfacet
 facet normal  0.000000e+00  0.000000e+00  1.000000e+00
   outer loop
     vertex -2.872667e-01 -2.410454e-01  6.000000e-02
     vertex -5.745333e-01 -4.820907e-01  6.000000e-02
     vertex -4.820907e-01 -5.745333e-01  6.000000e-02
   endloop
 endfacet
 facet normal  0.000000e+00  0.000000e+00  1.000000e+00
   outer loop
     vertex -2.872667e-01 -2.410454e-01  6.000000e-02
     vertex -4.820907e-01 -5.745333e-01  6.000000e-02
     vertex -2.410454e-01 -2.872667e-01  6.000000e-02
   endloop
 endfacet
 facet normal  0.000000e+00  0.000000e+00  1.000000e+00
   outer loop
     vertex -1.875000e-01 -3.247595e-01  6.000000e-02
     vertex -4.820907e-01 -5.745333e-01  6.000000e-02
     vertex -3.750000e-01 -6.495191e-01  6.000000e-02
   endloop
 endfacet
 facet normal  0.000000e+00  0.000000e+00  1.000000e+00
   outer loop
     vertex -1.875000e-01 -3.247595e-01  6.000000e-02
     vertex -2.410454e-01 -2.872667e-01  6.000000e-02
     vertex -4.820907e-01 -5.745333e-01  6.000000e-02
   endloop
 endfacet
 facet normal  0.000000e+00  0.000000e+00  1.000000e+00
   outer loop
     vertex -3.247595e-01 -1.875000e-01  6.000000e-02
     vertex -5.745333e-01 -4.820907e-01  6.000000e-02
     vertex -2.872667e-01 -2.410454e-01  6.000000e-02
   endloop
 endfacet
 facet normal  0.000000e+00  0.000000e+00  1.000000e+00
   outer loop
     vertex -3.247595e-01 -1.875000e-01  6.000000e-02
     vertex -6.495191e-01 -3.750000e-01  6.000000e-02
     vertex -5.745333e-01 -4.820907e-01  6.000000e-02
   endloop
 endfacet
 facet normal  0.000000e+00  0.000000e+00  1.000000e+00
   outer loop
     vertex -1.282576e-01 -3.523847e-01  6.000000e-02
     vertex -1.875000e-01 -3.247595e-01  6.000000e-02
     vertex -3.750000e-01 -6.495191e-01  6.000000e-02
   endloop
 endfacet
 facet normal  0.000000e+00  0.000000e+00  1.000000e+00
   outer loop
     vertex -1.282576e-01 -3.523847e-01  6.000000e-02
     vertex -3.750000e-01 -6.495191e-01  6.000000e-02
     vertex -2.565151e-01 -7.047695e-01  6.000000e-02
   endloop
 endfacet
 facet normal  0.000000e+00  0.000000e+00  1.000000e+00
   outer loop
     vertex -3.523847e-01 -1.282576e-01  6.000000e-02
     vertex -6.495191e-01 -3.750000e-01  6.000000e-02
     vertex -3.247595e-01 -1.875000e-01  6.000000e-02
   endloop
 endfacet
 facet normal  0.000000e+00  0.000000e+00  1.000000e+00
   outer loop
     vertex -3.523847e-01 -1.282576e-01  6.000000e-02
     vertex -7.047695e-01 -2.565151e-01  6.000000e-02
     vertex -6.495191e-01 -3.750000e-01  6.000000e-02
   endloop
 endfacet
 facet normal  0.000000e+00  0.000000e+00  1.000000e+00
   outer loop
     vertex -6.511807e-02 -3.693029e-01  6.000000e-02
     vertex -1.282576e-01 -3.523847e-01  6.000000e-02
     vertex -2.565151e-01 -7.047695e-01  6.000000e-02
   endloop
 endfacet
 facet normal  0.000000e+00  0.000000e+00  1.000000e+00
   outer loop
     vertex -6.511807e-02 -3.693029e-01  6.000000e-02
     vertex -2.565151e-01 -7.047695e-01  6.000000e-02
     vertex -1.302361e-01 -7.386058e-01  6.000000e-02
   endloop
 endfacet
 facet normal  0.000000e+00  0.000000e+00  1.000000e+00
   outer loop
     vertex -3.693029e-01 -6.511807e-02  6.000000e-02
     vertex -7.386058e-01 -1.302361e-01  6.000000e-02
     vertex -7.047695e-01 -2.565151e-01  6.000000e-02
   endloop
 endfacet
 facet normal  0.000000e+00  0.000000e+00  1.000000e+00
   outer loop
     vertex -3.693029e-01 -6.511807e-02  6.000000e-02
     vertex -7.047695e-01 -2.565151e-01  6.000000e-02
     vertex -3.523847e-01 -1.282576e-01  6.000000e-02
   endloop
 endfacet
 facet normal  0.000000e+00  0.000000e+00  1.000000e+00
   outer loop
     vertex -1.068087e-15 -3.750000e-01  6.000000e-02
     vertex -1.302361e-01 -7.386058e-01  6.000000e-02
     vertex -2.136174e-15 -7.500000e-01  6.000000e-02
   endloop
 endfacet
 facet normal  0.000000e+00  0.000000e+00  1.000000e+00
   outer loop
     vertex -1.068087e-15 -3.750000e-01  6.000000e-02
     vertex -6.511807e-02 -3.693029e-01  6.000000e-02
     vertex -1.302361e-01 -7.386058e-01  6.000000e-02
   endloop
 endfacet
 facet normal  0.000000e+00  0.000000e+00  1.000000e+00
   outer loop
     vertex -3.750000e-01  5.455246e-16  6.000000e-02
     vertex -7.386058e-01 -1.302361e-01  6.000000e-02
     vertex -3.693029e-01 -6.511807e-02  6.000000e-02
   endloop
 endfacet
 facet normal  0.000000e+00  0.000000e+00  1.000000e+00
   outer loop
     vertex -3.750000e-01  5.455246e-16  6.000000e-02
     vertex -7.500000e-01  1.091049e-15  6.000000e-02
     vertex -7.386058e-01 -1.302361e-01  6.000000e-02
   endloop
 endfacet
 facet normal  0.000000e+00  0.000000e+00  1.000000e+00
   outer loop
     vertex  6.511807e-02 -3.693029e-01  6.000000e-02
     vertex -1.068087e-15 -3.750000e-01  6.000000e-02
     vertex -2.136174e-15 -7.500000e-01  6.000000e-02
   endloop
 endfacet
 facet normal  0.000000e+00  0.000000e+00  1.000000e+00
   outer loop
     vertex  6.511807e-02 -3.693029e-01  6.000000e-02
     vertex -2.136174e-15 -7.500000e-01  6.000000e-02
     vertex  1.302361e-01 -7.386058e-01  6.000000e-02
   endloop
 endfacet
 facet normal  0.000000e+00  0.000000e+00  1.000000e+00
   outer loop
     vertex -3.693029e-01  6.511807e-02  6.000000e-02
     vertex -7.500000e-01  1.091049e-15  6.000000e-02
     vertex -3.750000e-01  5.455246e-16  6.000000e-02
   endloop
 endfacet
 facet normal  0.000000e+00  0.000000e+00  1.000000e+00
   outer loop
     vertex -3.693029e-01  6.511807e-02  6.000000e-02
     vertex -7.386058e-01  1.302361e-01  6.000000e-02
     vertex -7.500000e-01  1.091049e-15  6.000000e-02
   endloop
 endfacet
 facet normal  0.000000e+00  0.000000e+00  1.000000e+00
   outer loop
     vertex  1.282576e-01 -3.523847e-01  6.000000e-02
     vertex  6.511807e-02 -3.693029e-01  6.000000e-02
     vertex  1.302361e-01 -7.386058e-01  6.000000e-02
   endloop
 endfacet
 facet normal  0.000000e+00  0.000000e+00  1.000000e+00
   outer loop
     vertex  1.282576e-01 -3.523847e-01  6.000000e-02
     vertex  1.302361e-01 -7.386058e-01  6.000000e-02
     vertex  2.565151e-01 -7.047695e-01  6.000000e-02
   endloop
 endfacet
 facet normal  0.000000e+00  0.000000e+00  1.000000e+00
   outer loop
     vertex -3.523847e-01  1.282576e-01  6.000000e-02
     vertex -7.386058e-01  1.302361e-01  6.000000e-02
     vertex -3.693029e-01  6.511807e-02  6.000000e-02
   endloop
 endfacet
 facet normal  0.000000e+00  0.000000e+00  1.000000e+00
   outer loop
     vertex -3.523847e-01  1.282576e-01  6.000000e-02
     vertex -7.047695e-01  2.565151e-01  6.000000e-02
     vertex -7.386058e-01  1.302361e-01  6.000000e-02
   endloop
 endfacet
 facet normal  0.000000e+00  0.000000e+00  1.000000e+00
   outer loop
     vertex  1.875000e-01 -3.247595e-01  6.000000e-02
     vertex  1.282576e-01 -3.523847e-01  6.000000e-02
     vertex  2.565151e-01 -7.047695e-01  6.000000e-02
   endloop
 endfacet
 facet normal  0.000000e+00  0.000000e+00  1.000000e+00
   outer loop
     vertex  1.875000e-01 -3.247595e-01  6.000000e-02
     vertex  2.565151e-01 -7.047695e-01  6.000000e-02
     vertex  3.750000e-01 -6.495191e-01  6.000000e-02
   endloop
 endfacet
 facet normal  0.000000e+00  0.000000e+00  1.000000e+00
   outer loop
     vertex -3.247595e-01  1.875000e-01  6.000000e-02
     vertex -6.495191e-01  3.750000e-01  6.000000e-02
     vertex -7.047695e-01  2.565151e-01  6.000000e-02
   endloop
 endfacet
 facet normal  0.000000e+00  0.000000e+00  1.000000e+00
   outer loop
     vertex -3.247595e-01  1.875000e-01  6.000000e-02
     vertex -7.047695e-01  2.565151e-01  6.000000e-02
     vertex -3.523847e-01  1.282576e-01  6.000000e-02
   endloop
 endfacet
 facet normal  0.000000e+00  0.000000e+00  1.000000e+00
   outer loop
     vertex  4.820907e-01 -5.745333e-01  6.000000e-02
     vertex  1.875000e-01 -3.247595e-01  6.000000e-02
     vertex  3.750000e-01 -6.495191e-01  6.000000e-02
   endloop
 endfacet
 facet normal  0.000000e+00  0.000000e+00  1.000000e+00
   outer loop
     vertex  2.410454e-01 -2.872667e-01  6.000000e-02
     vertex  1.875000e-01 -3.247595e-01  6.000000e-02
     vertex  4.820907e-01 -5.745333e-01  6.000000e-02
   endloop
 endfacet
 facet normal  0.000000e+00  0.000000e+00  1.000000e+00
   outer loop
     vertex -2.872667e-01  2.410454e-01  6.000000e-02
     vertex -5.745333e-01  4.820907e-01  6.000000e-02
     vertex -6.495191e-01  3.750000e-01  6.000000e-02
   endloop
 endfacet
 facet normal  0.000000e+00  0.000000e+00  1.000000e+00
   outer loop
     vertex -2.872667e-01  2.410454e-01  6.000000e-02
     vertex -6.495191e-01  3.750000e-01  6.000000e-02
     vertex -3.247595e-01  1.875000e-01  6.000000e-02
   endloop
 endfacet
 facet normal  0.000000e+00  0.000000e+00  1.000000e+00
   outer loop
     vertex -2.410454e-01  2.872667e-01  6.000000e-02
     vertex -5.745333e-01  4.820907e-01  6.000000e-02
     vertex -2.872667e-01  2.410454e-01  6.000000e-02
   endloop
 endfacet
 facet normal  0.000000e+00  0.000000e+00  1.000000e+00
   outer loop
     vertex -4.820907e-01  5.745333e-01  6.000000e-02
     vertex -5.745333e-01  4.820907e-01  6.000000e-02
     vertex -2.410454e-01  2.872667e-01  6.000000e-02
   endloop
 endfacet
 facet normal  0.000000e+00  0.000000e+00  1.000000e+00
   outer loop
     vertex -1.875000e-01  3.247595e-01  6.000000e-02
     vertex -4.820907e-01  5.745333e-01  6.000000e-02
     vertex -2.410454e-01  2.872667e-01  6.000000e-02
   endloop
 endfacet
 facet normal  0.000000e+00  0.000000e+00  1.000000e+00
   outer loop
     vertex  4.200000e-01 -2.250000e-01  6.000000e-02
     vertex  4.820907e-01 -5.745333e-01  6.000000e-02
     vertex  5.745333e-01 -4.820907e-01  6.000000e-02
   endloop
 endfacet
 facet normal  0.000000e+00  0.000000e+00  1.000000e+00
   outer loop
     vertex  4.200000e-01 -2.250000e-01  6.000000e-02
     vertex  2.410454e-01 -2.872667e-01  6.000000e-02
     vertex  4.820907e-01 -5.745333e-01  6.000000e-02
   endloop
 endfacet
 facet normal  0.000000e+00  0.000000e+00  1.000000e+00
   outer loop
     vertex  4.200000e-01 -2.250000e-01  6.000000e-02
     vertex  2.872667e-01 -2.410454e-01  6.000000e-02
     vertex  2.410454e-01 -2.872667e-01  6.000000e-02
   endloop
 endfacet
 facet normal  0.000000e+00  0.000000e+00  1.000000e+00
   outer loop
     vertex  4.200000e-01 -2.250000e-01  6.000000e-02
     vertex  3.247595e-01 -1.875000e-01  6.000000e-02
     vertex  2.872667e-01 -2.410454e-01  6.000000e-02
   endloop
 endfacet
 facet normal  0.000000e+00  0.000000e+00  1.000000e+00
   outer loop
     vertex  3.523847e-01 -1.282576e-01  6.000000e-02
     vertex  3.247595e-01 -1.875000e-01  6.000000e-02
     vertex  4.200000e-01 -2.250000e-01  6.000000e-02
   endloop
 endfacet
 facet normal  0.000000e+00  0.000000e+00  1.000000e+00
   outer loop
     vertex  6.495191e-01 -3.750000e-01  6.000000e-02
     vertex  4.200000e-01 -2.250000e-01  6.000000e-02
     vertex  5.745333e-01 -4.820907e-01  6.000000e-02
   endloop
 endfacet
 facet normal  0.000000e+00  0.000000e+00  1.000000e+00
   outer loop
     vertex -3.750000e-01  6.495191e-01  6.000000e-02
     vertex -4.820907e-01  5.745333e-01  6.000000e-02
     vertex -1.875000e-01  3.247595e-01  6.000000e-02
   endloop
 endfacet
 facet normal  0.000000e+00  0.000000e+00  1.000000e+00
   outer loop
     vertex  3.693029e-01 -6.511807e-02  6.000000e-02
     vertex  3.523847e-01 -1.282576e-01  6.000000e-02
     vertex  4.200000e-01 -2.250000e-01  6.000000e-02
   endloop
 endfacet
 facet normal  0.000000e+00  0.000000e+00  1.000000e+00
   outer loop
     vertex  6.300000e-01 -2.250000e-01  6.000000e-02
     vertex  4.200000e-01 -2.250000e-01  6.000000e-02
     vertex  6.495191e-01 -3.750000e-01  6.000000e-02
   endloop
 endfacet
 facet normal  0.000000e+00  0.000000e+00  1.000000e+00
   outer loop
     vertex  7.047695e-01 -2.565151e-01  6.000000e-02
     vertex  6.300000e-01 -2.250000e-01  6.000000e-02
     vertex  6.495191e-01 -3.750000e-01  6.000000e-02
   endloop
 endfacet
 facet normal  0.000000e+00  0.000000e+00  1.000000e+00
   outer loop
     vertex -2.565151e-01  7.047695e-01  6.000000e-02
     vertex -1.875000e-01  3.247595e-01  6.000000e-02
     vertex -1.282576e-01  3.523847e-01  6.000000e-02
   endloop
 endfacet
 facet normal  0.000000e+00  0.000000e+00  1.000000e+00
   outer loop
     vertex -2.565151e-01  7.047695e-01  6.000000e-02
     vertex -3.750000e-01  6.495191e-01  6.000000e-02
     vertex -1.875000e-01  3.247595e-01  6.000000e-02
   endloop
 endfacet
 facet normal  0.000000e+00  0.000000e+00  1.000000e+00
   outer loop
     vertex  7.386058e-01 -1.302361e-01  6.000000e-02
     vertex  6.300000e-01 -2.250000e-01  6.000000e-02
     vertex  7.047695e-01 -2.565151e-01  6.000000e-02
   endloop
 endfacet
 facet normal  0.000000e+00  0.000000e+00  1.000000e+00
   outer loop
     vertex -1.302361e-01  7.386058e-01  6.000000e-02
     vertex -6.511807e-02  3.693029e-01  6.000000e-02
     vertex  2.296213e-17  3.750000e-01  6.000000e-02
   endloop
 endfacet
 facet normal  0.000000e+00  0.000000e+00  1.000000e+00
   outer loop
     vertex -1.302361e-01  7.386058e-01  6.000000e-02
     vertex -1.282576e-01  3.523847e-01  6.000000e-02
     vertex -6.511807e-02  3.693029e-01  6.000000e-02
   endloop
 endfacet
 facet normal  0.000000e+00  0.000000e+00  1.000000e+00
   outer loop
     vertex -1.302361e-01  7.386058e-01  6.000000e-02
     vertex -2.565151e-01  7.047695e-01  6.000000e-02
     vertex -1.282576e-01  3.523847e-01  6.000000e-02
   endloop
 endfacet
 facet normal  0.000000e+00  0.000000e+00  1.000000e+00
   outer loop
     vertex  4.200000e-01  2.250000e-01  6.000000e-02
     vertex  3.523847e-01  1.282576e-01  6.000000e-02
     vertex  3.693029e-01  6.511807e-02  6.000000e-02
   endloop
 endfacet
 facet normal  0.000000e+00  0.000000e+00  1.000000e+00
   outer loop
     vertex  4.200000e-01  2.250000e-01  6.000000e-02
     vertex  3.247595e-01  1.875000e-01  6.000000e-02
     vertex  3.523847e-01  1.282576e-01  6.000000e-02
   endloop
 endfacet
 facet normal  0.000000e+00  0.000000e+00  1.000000e+00
   outer loop
     vertex  4.200000e-01  2.250000e-01  6.000000e-02
     vertex  2.872667e-01  2.410454e-01  6.000000e-02
     vertex  3.247595e-01  1.875000e-01  6.000000e-02
   endloop
 endfacet
 facet normal  0.000000e+00  0.000000e+00  1.000000e+00
   outer loop
     vertex  4.200000e-01  2.250000e-01  6.000000e-02
     vertex  2.410454e-01  2.872667e-01  6.000000e-02
     vertex  2.872667e-01  2.410454e-01  6.000000e-02
   endloop
 endfacet
 facet normal  0.000000e+00  0.000000e+00  1.000000e+00
   outer loop
     vertex  7.500000e-01  0.000000e+00  6.000000e-02
     vertex  6.300000e-01 -2.250000e-01  6.000000e-02
     vertex  7.386058e-01 -1.302361e-01  6.000000e-02
   endloop
 endfacet
 facet normal  0.000000e+00  0.000000e+00  1.000000e+00
   outer loop
     vertex  4.592425e-17  7.500000e-01  6.000000e-02
     vertex -1.302361e-01  7.386058e-01  6.000000e-02
     vertex  2.296213e-17  3.750000e-01  6.000000e-02
   endloop
 endfacet
 facet normal  0.000000e+00  0.000000e+00  1.000000e+00
   outer loop
     vertex  7.386058e-01  1.302361e-01  6.000000e-02
     vertex  6.300000e-01  2.250000e-01  6.000000e-02
     vertex  7.500000e-01  0.000000e+00  6.000000e-02
   endloop
 endfacet
 facet normal  0.000000e+00  0.000000e+00  1.000000e+00
   outer loop
     vertex  1.302361e-01  7.386058e-01  6.000000e-02
     vertex  4.592425e-17  7.500000e-01  6.000000e-02
     vertex  2.296213e-17  3.750000e-01  6.000000e-02
   endloop
 endfacet
 facet normal  0.000000e+00  0.000000e+00  1.000000e+00
   outer loop
     vertex  1.302361e-01  7.386058e-01  6.000000e-02
     vertex  6.511807e-02  3.693029e-01  6.000000e-02
     vertex  1.282576e-01  3.523847e-01  6.000000e-02
   endloop
 endfacet
 facet normal  0.000000e+00  0.000000e+00  1.000000e+00
   outer loop
     vertex  1.302361e-01  7.386058e-01  6.000000e-02
     vertex  2.296213e-17  3.750000e-01  6.000000e-02
     vertex  6.511807e-02  3.693029e-01  6.000000e-02
   endloop
 endfacet
 facet normal  0.000000e+00  0.000000e+00  1.000000e+00
   outer loop
     vertex  7.047695e-01  2.565151e-01  6.000000e-02
     vertex  6.300000e-01  2.250000e-01  6.000000e-02
     vertex  7.386058e-01  1.302361e-01  6.000000e-02
   endloop
 endfacet
 facet normal  0.000000e+00  0.000000e+00  1.000000e+00
   outer loop
     vertex  2.565151e-01  7.047695e-01  6.000000e-02
     vertex  1.302361e-01  7.386058e-01  6.000000e-02
     vertex  1.282576e-01  3.523847e-01  6.000000e-02
   endloop
 endfacet
 facet normal  0.000000e+00  0.000000e+00  1.000000e+00
   outer loop
     vertex  3.750000e-01  6.495191e-01  6.000000e-02
     vertex  2.565151e-01  7.047695e-01  6.000000e-02
     vertex  1.282576e-01  3.523847e-01  6.000000e-02
   endloop
 endfacet
 facet normal  0.000000e+00  0.000000e+00  1.000000e+00
   outer loop
     vertex  3.750000e-01  6.495191e-01  6.000000e-02
     vertex  1.282576e-01  3.523847e-01  6.000000e-02
     vertex  1.875000e-01  3.247595e-01  6.000000e-02
   endloop
 endfacet
 facet normal  0.000000e+00  0.000000e+00  1.000000e+00
   outer loop
     vertex  6.495191e-01  3.750000e-01  6.000000e-02
     vertex  6.300000e-01  2.250000e-01  6.000000e-02
     vertex  7.047695e-01  2.565151e-01  6.000000e-02
   endloop
 endfacet
 facet normal  0.000000e+00  0.000000e+00  1.000000e+00
   outer loop
     vertex  6.495191e-01  3.750000e-01  6.000000e-02
     vertex  4.200000e-01  2.250000e-01  6.000000e-02
     vertex  6.300000e-01  2.250000e-01  6.000000e-02
   endloop
 endfacet
 facet normal  0.000000e+00  0.000000e+00  1.000000e+00
   outer loop
     vertex  4.820907e-01  5.745333e-01  6.000000e-02
     vertex  2.410454e-01  2.872667e-01  6.000000e-02
     vertex  4.200000e-01  2.250000e-01  6.000000e-02
   endloop
 endfacet
 facet normal  0.000000e+00  0.000000e+00  1.000000e+00
   outer loop
     vertex  4.820907e-01  5.745333e-01  6.000000e-02
     vertex  3.750000e-01  6.495191e-01  6.000000e-02
     vertex  1.875000e-01  3.247595e-01  6.000000e-02
   endloop
 endfacet
 facet normal  0.000000e+00  0.000000e+00  1.000000e+00
   outer loop
     vertex  4.820907e-01  5.745333e-01  6.000000e-02
     vertex  1.875000e-01  3.247595e-01  6.000000e-02
     vertex  2.410454e-01  2.872667e-01  6.000000e-02
   endloop
 endfacet
 facet normal  0.000000e+00  0.000000e+00  1.000000e+00
   outer loop
     vertex  5.745333e-01  4.820907e-01  6.000000e-02
     vertex  4.200000e-01  2.250000e-01  6.000000e-02
     vertex  6.495191e-01  3.750000e-01  6.000000e-02
   endloop
 endfacet
 facet normal  0.000000e+00  0.000000e+00  1.000000e+00
   outer loop
     vertex  5.745333e-01  4.820907e-01  6.000000e-02
     vertex  4.820907e-01  5.745333e-01  6.000000e-02
     vertex  4.200000e-01  2.250000e-01  6.000000e-02
   endloop
 endfacet
 facet normal  0.000000e+00  0.000000e+00  1.000000e+00
   outer loop
     vertex  6.300000e-01  2.250000e-01  6.000000e-02
     vertex  6.300000e-01 -2.250000e-01  6.000000e-02
     vertex  7.500000e-01  0.000000e+00  6.000000e-02
   endloop
 endfacet
 facet normal  0.000000e+00  0.000000e+00  1.000000e+00
   outer loop
     vertex  4.200000e-01 -2.250000e-01  6.000000e-02
     vertex  4.200000e-01  2.250000e-01  6.000000e-02
     vertex  3.750000e-01  0.000000e+00  6.000000e-02
   endloop
 endfacet
 facet normal  0.000000e+00 -0.000000e+00  1.000000e+00
   outer loop
     vertex  3.750000e-01  0.000000e+00  6.000000e-02
     vertex  4.200000e-01  2.250000e-01  6.000000e-02
     vertex  3.693029e-01  6.511807e-02  6.000000e-02
   endloop
 endfacet
 facet normal  0.000000e+00  0.000000e+00  1.000000e+00
   outer loop
     vertex  4.200000e-01 -2.250000e-01  6.000000e-02
     vertex  3.750000e-01  0.000000e+00  6.000000e-02
     vertex  3.693029e-01 -6.511807e-02  6.000000e-02
   endloop
 endfacet
 facet normal  1.000000e+00  9.868649e-16  0.000000e+00
   outer loop
     vertex  4.200000e-01  2.250000e-01  3.765789e-17
     vertex  4.200000e-01 -2.250000e-01  6.000000e-02
     vertex  4.200000e-01 -2.250000e-01  6.521244e-17
   endloop
 endfacet
 facet normal  1.000000e+00  9.868649e-16 -0.000000e+00
   outer loop
     vertex  4.200000e-01  2.250000e-01  3.765789e-17
     vertex  4.200000e-01  2.250000e-01  6.000000e-02
     vertex  4.200000e-01 -2.250000e-01  6.000000e-02
   endloop
 endfacet
 facet normal  0.000000e+00  1.000000e+00  0.000000e+00
   outer loop
     vertex  4.200000e-01 -2.250000e-01  6.521244e-17
     vertex  6.300000e-01 -2.250000e-01  6.000000e-02
     vertex  6.300000e-01 -2.250000e-01  9.093002e-17
   endloop
 endfacet
 facet normal  0.000000e+00  1.000000e+00  0.000000e+00
   outer loop
     vertex  4.200000e-01 -2.250000e-01  6.521244e-17
     vertex  4.200000e-01 -2.250000e-01  6.000000e-02
     vertex  6.300000e-01 -2.250000e-01  6.000000e-02
   endloop
 endfacet
 facet normal -1.000000e+00 -7.401487e-16  0.000000e+00
   outer loop
     vertex  6.300000e-01 -2.250000e-01  9.093002e-17
     vertex  6.300000e-01  2.250000e-01  6.000000e-02
     vertex  6.300000e-01  2.250000e-01  6.337547e-17
   endloop
 endfacet
 facet normal -1.000000e+00 -7.401487e-16  0.000000e+00
   outer loop
     vertex  6.300000e-01 -2.250000e-01  9.093002e-17
     vertex  6.300000e-01 -2.250000e-01  6.000000e-02
     vertex  6.300000e-01  2.250000e-01  6.000000e-02
   endloop
 endfacet
 facet normal  1.321694e-16 -1.000000e+00  0.000000e+00
   outer loop
     vertex  6.300000e-01  2.250000e-01  6.337547e-17
     vertex  4.200000e-01  2.250000e-01  6.000000e-02
     vertex  4.200000e-01  2.250000e-01  3.765789e-17
   endloop
 endfacet
 facet normal  1.321694e-16 -1.000000e+00  0.000000e+00
   outer loop
     vertex  6.300000e-01  2.250000e-01  6.337547e-17
     vertex  6.300000e-01  2.250000e-01  6.000000e-02
     vertex  4.200000e-01  2.250000e-01  6.000000e-02
   endloop
 endfacet
 facet normal  9.961947e-01  8.715574e-02  0.000000e+00
   outer loop
     vertex  3.693029e-01  6.511807e-02  6.000000e-02
     vertex  3.750000e-01  0.000000e+00  4.350000e-01
     vertex  3.750000e-01  0.000000e+00  6.000000e-02
   endloop
 endfacet
 facet normal  9.961947e-01  8.715574e-02 -0.000000e+00
   outer loop
     vertex  3.693029e-01  6.511807e-02  6.000000e-02
     vertex  3.693029e-01  6.511807e-02  4.350000e-01
     vertex  3.750000e-01  0.000000e+00  4.350000e-01
   endloop
 endfacet
 facet normal  9.659258e-01  2.588190e-01 -0.000000e+00
   outer loop
     vertex  3.523847e-01  1.282576e-01  6.000000e-02
     vertex  3.523847e-01  1.282576e-01  4.350000e-01
     vertex  3.693029e-01  6.511807e-02  4.350000e-01
   endloop
 endfacet
 facet normal  9.659258e-01  2.588190e-01  0.000000e+00
   outer loop
     vertex  3.523847e-01  1.282576e-01  6.000000e-02
     vertex  3.693029e-01  6.511807e-02  4.350000e-01
     vertex  3.693029e-01  6.511807e-02  6.000000e-02
   endloop
 endfacet
 facet normal  9.063078e-01  4.226183e-01 -0.000000e+00
   outer loop
     vertex  3.247595e-01  1.875000e-01  6.000000e-02
     vertex  3.247595e-01  1.875000e-01  4.350000e-01
     vertex  3.523847e-01  1.282576e-01  4.350000e-01
   endloop
 endfacet
 facet normal  9.063078e-01  4.226183e-01  0.000000e+00
   outer loop
     vertex  3.247595e-01  1.875000e-01  6.000000e-02
     vertex  3.523847e-01  1.282576e-01  4.350000e-01
     vertex  3.523847e-01  1.282576e-01  6.000000e-02
   endloop
 endfacet
 facet normal  8.191520e-01  5.735764e-01 -0.000000e+00
   outer loop
     vertex  2.872667e-01  2.410454e-01  6.000000e-02
     vertex  2.872667e-01  2.410454e-01  4.350000e-01
     vertex  3.247595e-01  1.875000e-01  4.350000e-01
   endloop
 endfacet
 facet normal  8.191520e-01  5.735764e-01  0.000000e+00
   outer loop
     vertex  2.872667e-01  2.410454e-01  6.000000e-02
     vertex  3.247595e-01  1.875000e-01  4.350000e-01
     vertex  3.247595e-01  1.875000e-01  6.000000e-02
   endloop
 endfacet
 facet normal  7.071068e-01  7.071068e-01 -0.000000e+00
   outer loop
     vertex  2.410454e-01  2.872667e-01  6.000000e-02
     vertex  2.410454e-01  2.872667e-01  4.350000e-01
     vertex  2.872667e-01  2.410454e-01  4.350000e-01
   endloop
 endfacet
 facet normal  7.071068e-01  7.071068e-01  0.000000e+00
   outer loop
     vertex  2.410454e-01  2.872667e-01  6.000000e-02
     vertex  2.872667e-01  2.410454e-01  4.350000e-01
     vertex  2.872667e-01  2.410454e-01  6.000000e-02
   endloop
 endfacet
 facet normal  5.735764e-01  8.191520e-01  0.000000e+00
   outer loop
     vertex  1.875000e-01  3.247595e-01  6.000000e-02
     vertex  2.410454e-01  2.872667e-01  4.350000e-01
     vertex  2.410454e-01  2.872667e-01  6.000000e-02
   endloop
 endfacet
 facet normal  5.735764e-01  8.191520e-01 -0.000000e+00
   outer loop
     vertex  1.875000e-01  3.247595e-01  6.000000e-02
     vertex  1.875000e-01  3.247595e-01  4.350000e-01
     vertex  2.410454e-01  2.872667e-01  4.350000e-01
   endloop
 endfacet
 facet normal  4.226183e-01  9.063078e-01  0.000000e+00
   outer loop
     vertex  1.282576e-01  3.523847e-01  6.000000e-02
     vertex  1.875000e-01  3.247595e-01  4.350000e-01
     vertex  1.875000e-01  3.247595e-01  6.000000e-02
   endloop
 endfacet
 facet normal  4.226183e-01  9.063078e-01 -0.000000e+00
   outer loop
     vertex  1.282576e-01  3.523847e-01  6.000000e-02
     vertex  1.282576e-01  3.523847e-01  4.350000e-01
     vertex  1.875000e-01  3.247595e-01  4.350000e-01
   endloop
 endfacet
 facet normal  2.588190e-01  9.659258e-01  0.000000e+00
   outer loop
     vertex  6.511807e-02  3.693029e-01  6.000000e-02
     vertex  1.282576e-01  3.523847e-01  4.350000e-01
     vertex  1.282576e-01  3.523847e-01  6.000000e-02
   endloop
 endfacet
 facet normal  2.588190e-01  9.659258e-01 -0.000000e+00
   outer loop
     vertex  6.511807e-02  3.693029e-01  6.000000e-02
     vertex  6.511807e-02  3.693029e-01  4.350000e-01
     vertex  1.282576e-01  3.523847e-01  4.350000e-01
   endloop
 endfacet
 facet normal  8.715574e-02  9.961947e-01 -0.000000e+00
   outer loop
     vertex  2.296213e-17  3.750000e-01  6.000000e-02
     vertex  2.296213e-17  3.750000e-01  4.350000e-01
     vertex  6.511807e-02  3.693029e-01  4.350000e-01
   endloop
 endfacet
 facet normal  8.715574e-02  9.961947e-01  0.000000e+00
   outer loop
     vertex  2.296213e-17  3.750000e-01  6.000000e-02
     vertex  6.511807e-02  3.693029e-01  4.350000e-01
     vertex  6.511807e-02  3.693029e-01  6.000000e-02
   endloop
 endfacet
 facet normal -8.715574e-02  9.961947e-01  0.000000e+00
   outer loop
     vertex -6.511807e-02  3.693029e-01  6.000000e-02
     vertex -6.511807e-02  3.693029e-01  4.350000e-01
     vertex  2.296213e-17  3.750000e-01  4.350000e-01
   endloop
 endfacet
 facet normal -8.715574e-02  9.961947e-01  0.000000e+00
   outer loop
     vertex -6.511807e-02  3.693029e-01  6.000000e-02
     vertex  2.296213e-17  3.750000e-01  4.350000e-01
     vertex  2.296213e-17  3.750000e-01  6.000000e-02
   endloop
 endfacet
 facet normal -2.588190e-01  9.659258e-01  0.000000e+00
   outer loop
     vertex -1.282576e-01  3.523847e-01  6.000000e-02
     vertex -1.282576e-01  3.523847e-01  4.350000e-01
     vertex -6.511807e-02  3.693029e-01  4.350000e-01
   endloop
 endfacet
 facet normal -2.588190e-01  9.659258e-01  0.000000e+00
   outer loop
     vertex -1.282576e-01  3.523847e-01  6.000000e-02
     vertex -6.511807e-02  3.693029e-01  4.350000e-01
     vertex -6.511807e-02  3.693029e-01  6.000000e-02
   endloop
 endfacet
 facet normal -4.226183e-01  9.063078e-01  0.000000e+00
   outer loop
     vertex -1.875000e-01  3.247595e-01  6.000000e-02
     vertex -1.875000e-01  3.247595e-01  4.350000e-01
     vertex -1.282576e-01  3.523847e-01  4.350000e-01
   endloop
 endfacet
 facet normal -4.226183e-01  9.063078e-01  0.000000e+00
   outer loop
     vertex -1.875000e-01  3.247595e-01  6.000000e-02
     vertex -1.282576e-01  3.523847e-01  4.350000e-01
     vertex -1.282576e-01  3.523847e-01  6.000000e-02
   endloop
 endfacet
 facet normal -5.735764e-01  8.191520e-01  0.000000e+00
   outer loop
     vertex -2.410454e-01  2.872667e-01  6.000000e-02
     vertex -2.410454e-01  2.872667e-01  4.350000e-01
     vertex -1.875000e-01  3.247595e-01  4.350000e-01
   endloop
 endfacet
 facet normal -5.735764e-01  8.191520e-01  0.000000e+00
   outer loop
     vertex -2.410454e-01  2.872667e-01  6.000000e-02
     vertex -1.875000e-01  3.247595e-01  4.350000e-01
     vertex -1.875000e-01  3.247595e-01  6.000000e-02
   endloop
 endfacet
 facet normal -7.071068e-01  7.071068e-01  0.000000e+00
   outer loop
     vertex -2.872667e-01  2.410454e-01  6.000000e-02
     vertex -2.872667e-01  2.410454e-01  4.350000e-01
     vertex -2.410454e-01  2.872667e-01  4.350000e-01
   endloop
 endfacet
 facet normal -7.071068e-01  7.071068e-01  0.000000e+00
   outer loop
     vertex -2.872667e-01  2.410454e-01  6.000000e-02
     vertex -2.410454e-01  2.872667e-01  4.350000e-01
     vertex -2.410454e-01  2.872667e-01  6.000000e-02
   endloop
 endfacet
 facet normal -8.191520e-01  5.735764e-01  0.000000e+00
   outer loop
     vertex -3.247595e-01  1.875000e-01  6.000000e-02
     vertex -3.247595e-01  1.875000e-01  4.350000e-01
     vertex -2.872667e-01  2.410454e-01  4.350000e-01
   endloop
 endfacet
 facet normal -8.191520e-01  5.735764e-01  0.000000e+00
   outer loop
     vertex -3.247595e-01  1.875000e-01  6.000000e-02
     vertex -2.872667e-01  2.410454e-01  4.350000e-01
     vertex -2.872667e-01  2.410454e-01  6.000000e-02
   endloop
 endfacet
 facet normal -9.063078e-01  4.226183e-01  0.000000e+00
   outer loop
     vertex -3.523847e-01  1.282576e-01  6.000000e-02
     vertex -3.523847e-01  1.282576e-01  4.350000e-01
     vertex -3.247595e-01  1.875000e-01  4.350000e-01
   endloop
 endfacet
 facet normal -9.659258e-01  2.588190e-01  0.000000e+00
   outer loop
     vertex -3.523847e-01  1.282576e-01  6.000000e-02
     vertex -3.693029e-01  6.511807e-02  4.350000e-01
     vertex -3.523847e-01  1.282576e-01  4.350000e-01
   endloop
 endfacet
 facet normal -9.063078e-01  4.226183e-01  0.000000e+00
   outer loop
     vertex -3.523847e-01  1.282576e-01  6.000000e-02
     vertex -3.247595e-01  1.875000e-01  4.350000e-01
     vertex -3.247595e-01  1.875000e-01  6.000000e-02
   endloop
 endfacet
 facet normal -9.659258e-01  2.588190e-01  0.000000e+00
   outer loop
     vertex -3.693029e-01  6.511807e-02  6.000000e-02
     vertex -3.693029e-01  6.511807e-02  4.350000e-01
     vertex -3.523847e-01  1.282576e-01  6.000000e-02
   endloop
 endfacet
 facet normal -9.961947e-01  8.715574e-02  0.000000e+00
   outer loop
     vertex -3.750000e-01  5.455246e-16  6.000000e-02
     vertex -3.750000e-01  5.455246e-16  4.350000e-01
     vertex -3.693029e-01  6.511807e-02  4.350000e-01
   endloop
 endfacet
 facet normal -9.961947e-01  8.715574e-02  0.000000e+00
   outer loop
     vertex -3.750000e-01  5.455246e-16  6.000000e-02
     vertex -3.693029e-01  6.511807e-02  4.350000e-01
     vertex -3.693029e-01  6.511807e-02  6.000000e-02
   endloop
 endfacet
 facet normal -9.961947e-01 -8.715574e-02  0.000000e+00
   outer loop
     vertex -3.693029e-01 -6.511807e-02  6.000000e-02
     vertex -3.693029e-01 -6.511807e-02  4.350000e-01
     vertex -3.750000e-01  5.455246e-16  4.350000e-01
   endloop
 endfacet
 facet normal -9.961947e-01 -8.715574e-02  0.000000e+00
   outer loop
     vertex -3.693029e-01 -6.511807e-02  6.000000e-02
     vertex -3.750000e-01  5.455246e-16  4.350000e-01
     vertex -3.750000e-01  5.455246e-16  6.000000e-02
   endloop
 endfacet
 facet normal -9.659258e-01 -2.588190e-01  0.000000e+00
   outer loop
     vertex -3.523847e-01 -1.282576e-01  6.000000e-02
     vertex -3.523847e-01 -1.282576e-01  4.350000e-01
     vertex -3.693029e-01 -6.511807e-02  4.350000e-01
   endloop
 endfacet
 facet normal -9.659258e-01 -2.588190e-01  0.000000e+00
   outer loop
     vertex -3.523847e-01 -1.282576e-01  6.000000e-02
     vertex -3.693029e-01 -6.511807e-02  4.350000e-01
     vertex -3.693029e-01 -6.511807e-02  6.000000e-02
   endloop
 endfacet
 facet normal -9.063078e-01 -4.226183e-01  0.000000e+00
   outer loop
     vertex -3.247595e-01 -1.875000e-01  6.000000e-02
     vertex -3.247595e-01 -1.875000e-01  4.350000e-01
     vertex -3.523847e-01 -1.282576e-01  4.350000e-01
   endloop
 endfacet
 facet normal -9.063078e-01 -4.226183e-01  0.000000e+00
   outer loop
     vertex -3.247595e-01 -1.875000e-01  6.000000e-02
     vertex -3.523847e-01 -1.282576e-01  4.350000e-01
     vertex -3.523847e-01 -1.282576e-01  6.000000e-02
   endloop
 endfacet
 facet normal -8.191520e-01 -5.735764e-01  0.000000e+00
   outer loop
     vertex -2.872667e-01 -2.410454e-01  6.000000e-02
     vertex -2.872667e-01 -2.410454e-01  4.350000e-01
     vertex -3.247595e-01 -1.875000e-01  4.350000e-01
   endloop
 endfacet
 facet normal -8.191520e-01 -5.735764e-01  0.000000e+00
   outer loop
     vertex -2.872667e-01 -2.410454e-01  6.000000e-02
     vertex -3.247595e-01 -1.875000e-01  4.350000e-01
     vertex -3.247595e-01 -1.875000e-01  6.000000e-02
   endloop
 endfacet
 facet normal -7.071068e-01 -7.071068e-01  0.000000e+00
   outer loop
     vertex -2.410454e-01 -2.872667e-01  6.000000e-02
     vertex -2.410454e-01 -2.872667e-01  4.350000e-01
     vertex -2.872667e-01 -2.410454e-01  4.350000e-01
   endloop
 endfacet
 facet normal -7.071068e-01 -7.071068e-01  0.000000e+00
   outer loop
     vertex -2.410454e-01 -2.872667e-01  6.000000e-02
     vertex -2.872667e-01 -2.410454e-01  4.350000e-01
     vertex -2.872667e-01 -2.410454e-01  6.000000e-02
   endloop
 endfacet
 facet normal -5.735764e-01 -8.191520e-01  0.000000e+00
   outer loop
     vertex -1.875000e-01 -3.247595e-01  6.000000e-02
     vertex -1.875000e-01 -3.247595e-01  4.350000e-01
     vertex -2.410454e-01 -2.872667e-01  4.350000e-01
   endloop
 endfacet
 facet normal -5.735764e-01 -8.191520e-01  0.000000e+00
   outer loop
     vertex -1.875000e-01 -3.247595e-01  6.000000e-02
     vertex -2.410454e-01 -2.872667e-01  4.350000e-01
     vertex -2.410454e-01 -2.872667e-01  6.000000e-02
   endloop
 endfacet
 facet normal -4.226183e-01 -9.063078e-01  0.000000e+00
   outer loop
     vertex -1.282576e-01 -3.523847e-01  6.000000e-02
     vertex -1.282576e-01 -3.523847e-01  4.350000e-01
     vertex -1.875000e-01 -3.247595e-01  4.350000e-01
   endloop
 endfacet
 facet normal -4.226183e-01 -9.063078e-01  0.000000e+00
   outer loop
     vertex -1.282576e-01 -3.523847e-01  6.000000e-02
     vertex -1.875000e-01 -3.247595e-01  4.350000e-01
     vertex -1.875000e-01 -3.247595e-01  6.000000e-02
   endloop
 endfacet
 facet normal -2.588190e-01 -9.659258e-01  0.000000e+00
   outer loop
     vertex -6.511807e-02 -3.693029e-01  6.000000e-02
     vertex -6.511807e-02 -3.693029e-01  4.350000e-01
     vertex -1.282576e-01 -3.523847e-01  4.350000e-01
   endloop
 endfacet
 facet normal -2.588190e-01 -9.659258e-01  0.000000e+00
   outer loop
     vertex -6.511807e-02 -3.693029e-01  6.000000e-02
     vertex -1.282576e-01 -3.523847e-01  4.350000e-01
     vertex -1.282576e-01 -3.523847e-01  6.000000e-02
   endloop
 endfacet
 facet normal -8.715574e-02 -9.961947e-01  0.000000e+00
   outer loop
     vertex -1.068087e-15 -3.750000e-01  6.000000e-02
     vertex -1.068087e-15 -3.750000e-01  4.350000e-01
     vertex -6.511807e-02 -3.693029e-01  4.350000e-01
   endloop
 endfacet
 facet normal -8.715574e-02 -9.961947e-01  0.000000e+00
   outer loop
     vertex -1.068087e-15 -3.750000e-01  6.000000e-02
     vertex -6.511807e-02 -3.693029e-01  4.350000e-01
     vertex -6.511807e-02 -3.693029e-01  6.000000e-02
   endloop
 endfacet
 facet normal  8.715574e-02 -9.961947e-01  0.000000e+00
   outer loop
     vertex  6.511807e-02 -3.693029e-01  6.000000e-02
     vertex  6.511807e-02 -3.693029e-01  4.350000e-01
     vertex -1.068087e-15 -3.750000e-01  4.350000e-01
   endloop
 endfacet
 facet normal  8.715574e-02 -9.961947e-01  0.000000e+00
   outer loop
     vertex  6.511807e-02 -3.693029e-01  6.000000e-02
     vertex -1.068087e-15 -3.750000e-01  4.350000e-01
     vertex -1.068087e-15 -3.750000e-01  6.000000e-02
   endloop
 endfacet
 facet normal  2.588190e-01 -9.659258e-01  0.000000e+00
   outer loop
     vertex  1.282576e-01 -3.523847e-01  6.000000e-02
     vertex  1.282576e-01 -3.523847e-01  4.350000e-01
     vertex  6.511807e-02 -3.693029e-01  4.350000e-01
   endloop
 endfacet
 facet normal  2.588190e-01 -9.659258e-01  0.000000e+00
   outer loop
     vertex  1.282576e-01 -3.523847e-01  6.000000e-02
     vertex  6.511807e-02 -3.693029e-01  4.350000e-01
     vertex  6.511807e-02 -3.693029e-01  6.000000e-02
   endloop
 endfacet
 facet normal  4.226183e-01 -9.063078e-01  0.000000e+00
   outer loop
     vertex  1.875000e-01 -3.247595e-01  6.000000e-02
     vertex  1.875000e-01 -3.247595e-01  4.350000e-01
     vertex  1.282576e-01 -3.523847e-01  4.350000e-01
   endloop
 endfacet
 facet normal  4.226183e-01 -9.063078e-01  0.000000e+00
   outer loop
     vertex  1.875000e-01 -3.247595e-01  6.000000e-02
     vertex  1.282576e-01 -3.523847e-01  4.350000e-01
     vertex  1.282576e-01 -3.523847e-01  6.000000e-02
   endloop
 endfacet
 facet normal  5.735764e-01 -8.191520e-01  0.000000e+00
   outer loop
     vertex  2.410454e-01 -2.872667e-01  6.000000e-02
     vertex  1.875000e-01 -3.247595e-01  4.350000e-01
     vertex  1.875000e-01 -3.247595e-01  6.000000e-02
   endloop
 endfacet
 facet normal  5.735764e-01 -8.191520e-01  0.000000e+00
   outer loop
     vertex  2.410454e-01 -2.872667e-01  6.000000e-02
     vertex  2.410454e-01 -2.872667e-01  4.350000e-01
     vertex  1.875000e-01 -3.247595e-01  4.350000e-01
   endloop
 endfacet
 facet normal  7.071068e-01 -7.071068e-01  0.000000e+00
   outer loop
     vertex  2.872667e-01 -2.410454e-01  6.000000e-02
     vertex  2.410454e-01 -2.872667e-01  4.350000e-01
     vertex  2.410454e-01 -2.872667e-01  6.000000e-02
   endloop
 endfacet
 facet normal  7.071068e-01 -7.071068e-01  0.000000e+00
   outer loop
     vertex  2.872667e-01 -2.410454e-01  6.000000e-02
     vertex  2.872667e-01 -2.410454e-01  4.350000e-01
     vertex  2.410454e-01 -2.872667e-01  4.350000e-01
   endloop
 endfacet
 facet normal  8.191520e-01 -5.735764e-01  0.000000e+00
   outer loop
     vertex  3.247595e-01 -1.875000e-01  6.000000e-02
     vertex  2.872667e-01 -2.410454e-01  4.350000e-01
     vertex  2.872667e-01 -2.410454e-01  6.000000e-02
   endloop
 endfacet
 facet normal  8.191520e-01 -5.735764e-01  0.000000e+00
   outer loop
     vertex  3.247595e-01 -1.875000e-01  6.000000e-02
     vertex  3.247595e-01 -1.875000e-01  4.350000e-01
     vertex  2.872667e-01 -2.410454e-01  4.350000e-01
   endloop
 endfacet
 facet normal  9.063078e-01 -4.226183e-01  0.000000e+00
   outer loop
     vertex  3.523847e-01 -1.282576e-01  6.000000e-02
     vertex  3.247595e-01 -1.875000e-01  4.350000e-01
     vertex  3.247595e-01 -1.875000e-01  6.000000e-02
   endloop
 endfacet
 facet normal  9.063078e-01 -4.226183e-01  0.000000e+00
   outer loop
     vertex  3.523847e-01 -1.282576e-01  6.000000e-02
     vertex  3.523847e-01 -1.282576e-01  4.350000e-01
     vertex  3.247595e-01 -1.875000e-01  4.350000e-01
   endloop
 endfacet
 facet normal  9.659258e-01 -2.588190e-01  0.000000e+00
   outer loop
     vertex  3.693029e-01 -6.511807e-02  6.000000e-02
     vertex  3.523847e-01 -1.282576e-01  4.350000e-01
     vertex  3.523847e-01 -1.282576e-01  6.000000e-02
   endloop
 endfacet
 facet normal  9.659258e-01 -2.588190e-01  0.000000e+00
   outer loop
     vertex  3.693029e-01 -6.511807e-02  6.000000e-02
     vertex  3.693029e-01 -6.511807e-02  4.350000e-01
     vertex  3.523847e-01 -1.282576e-01  4.350000e-01
   endloop
 endfacet
 facet normal  9.961947e-01 -8.715574e-02  0.000000e+00
   outer loop
     vertex  3.693029e-01 -6.511807e-02  6.000000e-02
     vertex  3.750000e-01  0.000000e+00  4.350000e-01
     vertex  3.693029e-01 -6.511807e-02  4.350000e-01
   endloop
 endfacet
 facet normal  9.961947e-01 -8.715574e-02  0.000000e+00
   outer loop
     vertex  3.750000e-01  0.000000e+00  6.000000e-02
     vertex  3.750000e-01  0.000000e+00  4.350000e-01
     vertex  3.693029e-01 -6.511807e-02  6.000000e-02
   endloop
 endfacet
 facet normal  0.000000e+00  0.000000e+00  1.000000e+00
   outer loop
     vertex  2.410454e-01 -2.872667e-01  4.350000e-01
     vertex  6.511807e-02 -3.693029e-01  4.350000e-01
     vertex  1.282576e-01 -3.523847e-01  4.350000e-01
   endloop
 endfacet
 facet normal  0.000000e+00  0.000000e+00  1.000000e+00
   outer loop
     vertex  2.410454e-01 -2.872667e-01  4.350000e-01
     vertex  1.282576e-01 -3.523847e-01  4.350000e-01
     vertex  1.875000e-01 -3.247595e-01  4.350000e-01
   endloop
 endfacet
 facet normal  0.000000e+00  0.000000e+00  1.000000e+00
   outer loop
     vertex  3.523847e-01 -1.282576e-01  4.350000e-01
     vertex  2.410454e-01 -2.872667e-01  4.350000e-01
     vertex  2.872667e-01 -2.410454e-01  4.350000e-01
   endloop
 endfacet
 facet normal  0.000000e+00  0.000000e+00  1.000000e+00
   outer loop
     vertex  3.523847e-01 -1.282576e-01  4.350000e-01
     vertex  2.872667e-01 -2.410454e-01  4.350000e-01
     vertex  3.247595e-01 -1.875000e-01  4.350000e-01
   endloop
 endfacet
 facet normal  0.000000e+00  0.000000e+00  1.000000e+00
   outer loop
     vertex  3.247595e-01  1.875000e-01  4.350000e-01
     vertex  3.693029e-01  6.511807e-02  4.350000e-01
     vertex  3.523847e-01  1.282576e-01  4.350000e-01
   endloop
 endfacet
 facet normal  0.000000e+00  0.000000e+00  1.000000e+00
   outer loop
     vertex  2.410454e-01  2.872667e-01  4.350000e-01
     vertex  1.875000e-01  3.247595e-01  4.350000e-01
     vertex  1.282576e-01  3.523847e-01  4.350000e-01
   endloop
 endfacet
 facet normal  0.000000e+00  0.000000e+00  1.000000e+00
   outer loop
     vertex  2.872667e-01  2.410454e-01  4.350000e-01
     vertex  3.750000e-01  0.000000e+00  4.350000e-01
     vertex  3.693029e-01  6.511807e-02  4.350000e-01
   endloop
 endfacet
 facet normal  0.000000e+00  0.000000e+00  1.000000e+00
   outer loop
     vertex  2.872667e-01  2.410454e-01  4.350000e-01
     vertex  3.693029e-01  6.511807e-02  4.350000e-01
     vertex  3.247595e-01  1.875000e-01  4.350000e-01
   endloop
 endfacet
 facet normal  0.000000e+00  0.000000e+00  1.000000e+00
   outer loop
     vertex  2.872667e-01  2.410454e-01  4.350000e-01
     vertex  1.282576e-01  3.523847e-01  4.350000e-01
     vertex  6.511807e-02  3.693029e-01  4.350000e-01
   endloop
 endfacet
 facet normal  0.000000e+00  0.000000e+00  1.000000e+00
   outer loop
     vertex  2.872667e-01  2.410454e-01  4.350000e-01
     vertex  6.511807e-02  3.693029e-01  4.350000e-01
     vertex  2.296213e-17  3.750000e-01  4.350000e-01
   endloop
 endfacet
 facet normal  0.000000e+00  0.000000e+00  1.000000e+00
   outer loop
     vertex  2.872667e-01  2.410454e-01  4.350000e-01
     vertex  2.296213e-17  3.750000e-01  4.350000e-01
     vertex -6.511807e-02  3.693029e-01  4.350000e-01
   endloop
 endfacet
 facet normal  0.000000e+00  0.000000e+00  1.000000e+00
   outer loop
     vertex  2.872667e-01  2.410454e-01  4.350000e-01
     vertex -6.511807e-02  3.693029e-01  4.350000e-01
     vertex -1.282576e-01  3.523847e-01  4.350000e-01
   endloop
 endfacet
 facet normal  0.000000e+00  0.000000e+00  1.000000e+00
   outer loop
     vertex  2.872667e-01  2.410454e-01  4.350000e-01
     vertex -1.282576e-01  3.523847e-01  4.350000e-01
     vertex -1.875000e-01  3.247595e-01  4.350000e-01
   endloop
 endfacet
 facet normal  0.000000e+00  0.000000e+00  1.000000e+00
   outer loop
     vertex  2.872667e-01  2.410454e-01  4.350000e-01
     vertex -1.875000e-01  3.247595e-01  4.350000e-01
     vertex -2.410454e-01  2.872667e-01  4.350000e-01
   endloop
 endfacet
 facet normal  0.000000e+00  0.000000e+00  1.000000e+00
   outer loop
     vertex  2.872667e-01  2.410454e-01  4.350000e-01
     vertex -2.410454e-01  2.872667e-01  4.350000e-01
     vertex -2.872667e-01  2.410454e-01  4.350000e-01
   endloop
 endfacet
 facet normal  0.000000e+00  0.000000e+00  1.000000e+00
   outer loop
     vertex  2.872667e-01  2.410454e-01  4.350000e-01
     vertex -2.872667e-01  2.410454e-01  4.350000e-01
     vertex -3.247595e-01  1.875000e-01  4.350000e-01
   endloop
 endfacet
 facet normal  0.000000e+00  0.000000e+00  1.000000e+00
   outer loop
     vertex  2.872667e-01  2.410454e-01  4.350000e-01
     vertex -3.247595e-01  1.875000e-01  4.350000e-01
     vertex -3.523847e-01  1.282576e-01  4.350000e-01
   endloop
 endfacet
 facet normal  0.000000e+00  0.000000e+00  1.000000e+00
   outer loop
     vertex  2.872667e-01  2.410454e-01  4.350000e-01
     vertex -3.523847e-01  1.282576e-01  4.350000e-01
     vertex -3.693029e-01  6.511807e-02  4.350000e-01
   endloop
 endfacet
 facet normal  0.000000e+00  0.000000e+00  1.000000e+00
   outer loop
     vertex  2.872667e-01  2.410454e-01  4.350000e-01
     vertex -3.693029e-01  6.511807e-02  4.350000e-01
     vertex -3.750000e-01  5.455246e-16  4.350000e-01
   endloop
 endfacet
 facet normal  0.000000e+00  0.000000e+00  1.000000e+00
   outer loop
     vertex  2.872667e-01  2.410454e-01  4.350000e-01
     vertex -3.750000e-01  5.455246e-16  4.350000e-01
     vertex -3.693029e-01 -6.511807e-02  4.350000e-01
   endloop
 endfacet
 facet normal  0.000000e+00  0.000000e+00  1.000000e+00
   outer loop
     vertex  2.872667e-01  2.410454e-01  4.350000e-01
     vertex -3.693029e-01 -6.511807e-02  4.350000e-01
     vertex -3.523847e-01 -1.282576e-01  4.350000e-01
   endloop
 endfacet
 facet normal  0.000000e+00  0.000000e+00  1.000000e+00
   outer loop
     vertex  2.872667e-01  2.410454e-01  4.350000e-01
     vertex -3.523847e-01 -1.282576e-01  4.350000e-01
     vertex -3.247595e-01 -1.875000e-01  4.350000e-01
   endloop
 endfacet
 facet normal  0.000000e+00  0.000000e+00  1.000000e+00
   outer loop
     vertex  2.872667e-01  2.410454e-01  4.350000e-01
     vertex -3.247595e-01 -1.875000e-01  4.350000e-01
     vertex -2.872667e-01 -2.410454e-01  4.350000e-01
   endloop
 endfacet
 facet normal  0.000000e+00  0.000000e+00  1.000000e+00
   outer loop
     vertex  2.872667e-01  2.410454e-01  4.350000e-01
     vertex -2.872667e-01 -2.410454e-01  4.350000e-01
     vertex -2.410454e-01 -2.872667e-01  4.350000e-01
   endloop
 endfacet
 facet normal  0.000000e+00  0.000000e+00  1.000000e+00
   outer loop
     vertex  2.872667e-01  2.410454e-01  4.350000e-01
     vertex -2.410454e-01 -2.872667e-01  4.350000e-01
     vertex -1.875000e-01 -3.247595e-01  4.350000e-01
   endloop
 endfacet
 facet normal  0.000000e+00  0.000000e+00  1.000000e+00
   outer loop
     vertex  2.872667e-01  2.410454e-01  4.350000e-01
     vertex -1.875000e-01 -3.247595e-01  4.350000e-01
     vertex -1.282576e-01 -3.523847e-01  4.350000e-01
   endloop
 endfacet
 facet normal  0.000000e+00  0.000000e+00  1.000000e+00
   outer loop
     vertex  2.872667e-01  2.410454e-01  4.350000e-01
     vertex -1.282576e-01 -3.523847e-01  4.350000e-01
     vertex -6.511807e-02 -3.693029e-01  4.350000e-01
   endloop
 endfacet
 facet normal  0.000000e+00  0.000000e+00  1.000000e+00
   outer loop
     vertex  2.872667e-01  2.410454e-01  4.350000e-01
     vertex -6.511807e-02 -3.693029e-01  4.350000e-01
     vertex -1.068087e-15 -3.750000e-01  4.350000e-01
   endloop
 endfacet
 facet normal  0.000000e+00  0.000000e+00  1.000000e+00
   outer loop
     vertex  2.872667e-01  2.410454e-01  4.350000e-01
     vertex -1.068087e-15 -3.750000e-01  4.350000e-01
     vertex  6.511807e-02 -3.693029e-01  4.350000e-01
   endloop
 endfacet
 facet normal  0.000000e+00  0.000000e+00  1.000000e+00
   outer loop
     vertex  2.872667e-01  2.410454e-01  4.350000e-01
     vertex  3.523847e-01 -1.282576e-01  4.350000e-01
     vertex  3.693029e-01 -6.511807e-02  4.350000e-01
   endloop
 endfacet
 facet normal  0.000000e+00  0.000000e+00  1.000000e+00
   outer loop
     vertex  2.872667e-01  2.410454e-01  4.350000e-01
     vertex  3.693029e-01 -6.511807e-02  4.350000e-01
     vertex  3.750000e-01  0.000000e+00  4.350000e-01
   endloop
 endfacet
 facet normal  0.000000e+00  0.000000e+00  1.000000e+00
   outer loop
     vertex  2.872667e-01  2.410454e-01  4.350000e-01
     vertex  6.511807e-02 -3.693029e-01  4.350000e-01
     vertex  2.410454e-01 -2.872667e-01  4.350000e-01
   endloop
 endfacet
 facet normal  0.000000e+00  0.000000e+00  1.000000e+00
   outer loop
     vertex  2.872667e-01  2.410454e-01  4.350000e-01
     vertex  2.410454e-01 -2.872667e-01  4.350000e-01
     vertex  3.523847e-01 -1.282576e-01  4.350000e-01
   endloop
 endfacet
 facet normal  0.000000e+00  0.000000e+00  1.000000e+00
   outer loop
     vertex  2.872667e-01  2.410454e-01  4.350000e-01
     vertex  2.410454e-01  2.872667e-01  4.350000e-01
     vertex  1.282576e-01  3.523847e-01  4.350000e-01
   endloop
 endfacet
endsolid
