solid 
 facet normal -0.000000e+00  0.000000e+00 -1.000000e+00
   outer loop
     vertex  7.500000e-01  7.120580e-16 -7.042191e-01
     vertex  0.000000e+00  0.000000e+00 -7.042191e-01
     vertex -6.307381e-16  6.643469e-01 -7.042191e-01
   endloop
 endfacet
 facet normal  0.000000e+00  0.000000e+00 -1.000000e+00
   outer loop
     vertex  7.500000e-01  7.120580e-16 -7.042191e-01
     vertex -6.307381e-16  6.643469e-01 -7.042191e-01
     vertex  7.500000e-01  6.643469e-01 -7.042191e-01
   endloop
 endfacet
 facet normal  1.000000e+00  1.002690e-15  0.000000e+00
   outer loop
     vertex  7.500000e-01  7.120580e-16 -3.742275e-01
     vertex  7.500000e-01  7.120580e-16 -7.042191e-01
     vertex  7.500000e-01  6.643469e-01 -7.042191e-01
   endloop
 endfacet
 facet normal  1.000000e+00  1.002690e-15  0.000000e+00
   outer loop
     vertex  7.500000e-01  7.120580e-16 -3.742275e-01
     vertex  7.500000e-01  6.643469e-01 -7.042191e-01
     vertex  7.500000e-01  6.643469e-01 -3.742275e-01
   endloop
 endfacet
 facet normal -7.933037e-32  8.355747e-17  1.000000e+00
   outer loop
     vertex  4.691640e-01  4.454294e-16 -3.742275e-01
     vertex  7.500000e-01  7.120580e-16 -3.742275e-01
     vertex  7.500000e-01  6.643469e-01 -3.742275e-01
   endloop
 endfacet
 facet normal -6.606522e-32  8.355747e-17  1.000000e+00
   outer loop
     vertex  4.691640e-01  4.454294e-16 -3.742275e-01
     vertex  7.500000e-01  6.643469e-01 -3.742275e-01
     vertex  4.691640e-01  6.643469e-01 -3.742275e-01
   endloop
 endfacet
 facet normal  7.986355e-01  7.578568e-16  6.018151e-01
   outer loop
     vertex  1.871634e-01  1.776949e-16  0.000000e+00
     vertex  4.691640e-01  4.454294e-16 -3.742275e-01
     vertex  4.691640e-01  6.643469e-01 -3.742275e-01
   endloop
 endfacet
 facet normal  7.986355e-01  8.042681e-16  6.018151e-01
   outer loop
     vertex  1.871634e-01  1.776949e-16  0.000000e+00
     vertex  4.691640e-01  6.643469e-01 -3.742275e-01
     vertex  1.871634e-01  6.643469e-01 -4.067952e-17
   endloop
 endfacet
 facet normal -5.813464e-32  6.123234e-17  1.000000e+00
   outer loop
     vertex  0.000000e+00  0.000000e+00  0.000000e+00
     vertex  1.871634e-01  1.776949e-16  0.000000e+00
     vertex  1.871634e-01  6.643469e-01 -4.067952e-17
   endloop
 endfacet
 facet normal -7.434743e-32  6.123234e-17  1.000000e+00
   outer loop
     vertex  0.000000e+00  0.000000e+00  0.000000e+00
     vertex  1.871634e-01  6.643469e-01 -4.067952e-17
     vertex -6.307381e-16  6.643469e-01 -4.067952e-17
   endloop
 endfacet
 facet normal -1.000000e+00 -9.494108e-16  0.000000e+00
   outer loop
     vertex  0.000000e+00  0.000000e+00 -7.042191e-01
     vertex  0.000000e+00  0.000000e+00  0.000000e+00
     vertex -6.307381e-16  6.643469e-01 -4.067952e-17
   endloop
 endfacet
 facet normal -1.000000e+00 -9.494108e-16  0.000000e+00
   outer loop
     vertex  0.000000e+00  0.000000e+00 -7.042191e-01
     vertex -6.307381e-16  6.643469e-01 -4.067952e-17
     vertex -6.307381e-16  6.643469e-01 -7.042191e-01
   endloop
 endfacet
 facet normal  9.494108e-16 -1.000000e+00  0.000000e+00
   outer loop
     vertex  4.691640e-01  4.454294e-16 -3.742275e-01
     vertex  0.000000e+00  0.000000e+00 -7.042191e-01
     vertex  7.500000e-01  7.120580e-16 -7.042191e-01
   endloop
 endfacet
 facet normal  9.494108e-16 -1.000000e+00  0.000000e+00
   outer loop
     vertex  1.871634e-01  1.776949e-16  0.000000e+00
     vertex  0.000000e+00  0.000000e+00  0.000000e+00
     vertex  0.000000e+00  0.000000e+00 -7.042191e-01
   endloop
 endfacet
 facet normal  9.494108e-16 -1.000000e+00 -4.588417e-32
   outer loop
     vertex  1.871634e-01  1.776949e-16  0.000000e+00
     vertex  0.000000e+00  0.000000e+00 -7.042191e-01
     vertex  4.691640e-01  4.454294e-16 -3.742275e-01
   endloop
 endfacet
 facet normal  9.494108e-16 -1.000000e+00  0.000000e+00
   outer loop
     vertex  7.500000e-01  7.120580e-16 -3.742275e-01
     vertex  4.691640e-01  4.454294e-16 -3.742275e-01
     vertex  7.500000e-01  7.120580e-16 -7.042191e-01
   endloop
 endfacet
 facet normal -8.881785e-16  1.000000e+00 -8.299547e-17
   outer loop
     vertex  4.691640e-01  6.643469e-01 -3.742275e-01
     vertex  7.500000e-01  6.643469e-01 -7.042191e-01
     vertex -6.307381e-16  6.643469e-01 -7.042191e-01
   endloop
 endfacet
 facet normal -1.186368e-15  1.000000e+00  0.000000e+00
   outer loop
     vertex  1.871634e-01  6.643469e-01 -4.067952e-17
     vertex -6.307381e-16  6.643469e-01 -7.042191e-01
     vertex -6.307381e-16  6.643469e-01 -4.067952e-17
   endloop
 endfacet
 facet normal -8.914176e-16  1.000000e+00 -7.839020e-17
   outer loop
     vertex  1.871634e-01  6.643469e-01 -4.067952e-17
     vertex  4.691640e-01  6.643469e-01 -3.742275e-01
     vertex -6.307381e-16  6.643469e-01 -7.042191e-01
   endloop
 endfacet
 facet normal -7.906560e-16  1.000000e+00  0.000000e+00
   outer loop
     vertex  7.500000e-01  6.643469e-01 -3.742275e-01
     vertex  7.500000e-01  6.643469e-01 -7.042191e-01
     vertex  4.691640e-01  6.643469e-01 -3.742275e-01
   endloop
 endfacet
endsolid
