solid 
 facet normal  6.123234e-17 -6.123234e-17 -1.000000e+00
   outer loop
     vertex  1.350766e-33  3.602620e-01 -2.205969e-17
     vertex  6.113537e-01  0.000000e+00  3.743462e-17
     vertex  0.000000e+00  0.000000e+00  0.000000e+00
   endloop
 endfacet
 facet normal  6.123234e-17 -6.123234e-17 -1.000000e+00
   outer loop
     vertex  1.350766e-33  3.602620e-01 -2.205969e-17
     vertex  6.113537e-01  3.602620e-01  1.537493e-17
     vertex  6.113537e-01  0.000000e+00  3.743462e-17
   endloop
 endfacet
 facet normal  0.000000e+00  1.000000e+00  0.000000e+00
   outer loop
     vertex  1.350766e-33  3.602620e-01  3.384279e-01
     vertex  6.113537e-01  3.602620e-01  1.537493e-17
     vertex  1.350766e-33  3.602620e-01 -2.205969e-17
   endloop
 endfacet
 facet normal -0.000000e+00  1.000000e+00  0.000000e+00
   outer loop
     vertex  1.350766e-33  3.602620e-01  3.384279e-01
     vertex  6.113537e-01  3.602620e-01  3.384279e-01
     vertex  6.113537e-01  3.602620e-01  1.537493e-17
   endloop
 endfacet
 facet normal -9.080038e-17  3.404469e-49  1.000000e+00
   outer loop
     vertex  0.000000e+00  0.000000e+00  3.384279e-01
     vertex  6.113537e-01  3.602620e-01  3.384279e-01
     vertex  1.350766e-33  3.602620e-01  3.384279e-01
   endloop
 endfacet
 facet normal -9.080038e-17  0.000000e+00  1.000000e+00
   outer loop
     vertex  0.000000e+00  0.000000e+00  3.384279e-01
     vertex  6.113537e-01  0.000000e+00  3.384279e-01
     vertex  6.113537e-01  3.602620e-01  3.384279e-01
   endloop
 endfacet
 facet normal  0.000000e+00 -1.000000e+00  0.000000e+00
   outer loop
     vertex  0.000000e+00  0.000000e+00  0.000000e+00
     vertex  6.113537e-01  0.000000e+00  3.384279e-01
     vertex  0.000000e+00  0.000000e+00  3.384279e-01
   endloop
 endfacet
 facet normal  0.000000e+00 -1.000000e+00  0.000000e+00
   outer loop
     vertex  0.000000e+00  0.000000e+00  0.000000e+00
     vertex  6.113537e-01  0.000000e+00  3.743462e-17
     vertex  6.113537e-01  0.000000e+00  3.384279e-01
   endloop
 endfacet
 facet normal -1.000000e+00  3.749399e-33  0.000000e+00
   outer loop
     vertex  1.350766e-33  3.602620e-01  3.384279e-01
     vertex  1.350766e-33  3.602620e-01 -2.205969e-17
     vertex  0.000000e+00  0.000000e+00  0.000000e+00
   endloop
 endfacet
 facet normal -1.000000e+00  3.749399e-33  0.000000e+00
   outer loop
     vertex  1.350766e-33  3.602620e-01  3.384279e-01
     vertex  0.000000e+00  0.000000e+00  0.000000e+00
     vertex  0.000000e+00  0.000000e+00  3.384279e-01
   endloop
 endfacet
 facet normal  1.000000e+00  0.000000e+00  0.000000e+00
   outer loop
     vertex  6.113537e-01  3.602620e-01  3.384279e-01
     vertex  6.113537e-01  0.000000e+00  3.743462e-17
     vertex  6.113537e-01  3.602620e-01  1.537493e-17
   endloop
 endfacet
 facet normal  1.000000e+00  0.000000e+00  0.000000e+00
   outer loop
     vertex  6.113537e-01  3.602620e-01  3.384279e-01
     vertex  6.113537e-01  0.000000e+00  3.384279e-01
     vertex  6.113537e-01  0.000000e+00  3.743462e-17
   endloop
 endfacet
endsolid
