solid 
 facet normal -9.961947e-01 -9.345375e-16 -8.715574e-02
   outer loop
     vertex -4.677837e-01 -4.491695e-16 -8.248288e-02
     vertex -4.750000e-01 -4.750000e-01  2.908536e-17
     vertex -4.750000e-01 -4.509701e-16 -6.162976e-33
   endloop
 endfacet
 facet normal -9.961947e-01 -9.364597e-16 -8.715574e-02
   outer loop
     vertex -4.677837e-01 -4.491695e-16 -8.248288e-02
     vertex -4.677837e-01 -4.750000e-01 -8.248288e-02
     vertex -4.750000e-01 -4.750000e-01  2.908536e-17
   endloop
 endfacet
 facet normal -9.659258e-01 -9.181914e-16 -2.588190e-01
   outer loop
     vertex -4.463540e-01 -4.337211e-16 -1.624596e-01
     vertex -4.463540e-01 -4.750000e-01 -1.624596e-01
     vertex -4.677837e-01 -4.750000e-01 -8.248288e-02
   endloop
 endfacet
 facet normal -9.659258e-01 -9.152403e-16 -2.588190e-01
   outer loop
     vertex -4.463540e-01 -4.337211e-16 -1.624596e-01
     vertex -4.677837e-01 -4.750000e-01 -8.248288e-02
     vertex -4.677837e-01 -4.491695e-16 -8.248288e-02
   endloop
 endfacet
 facet normal -9.063078e-01 -8.720243e-16 -4.226183e-01
   outer loop
     vertex -4.113621e-01 -4.050943e-16 -2.375000e-01
     vertex -4.113621e-01 -4.750000e-01 -2.375000e-01
     vertex -4.463540e-01 -4.750000e-01 -1.624596e-01
   endloop
 endfacet
 facet normal -9.063078e-01 -8.711323e-16 -4.226183e-01
   outer loop
     vertex -4.113621e-01 -4.050943e-16 -2.375000e-01
     vertex -4.463540e-01 -4.750000e-01 -1.624596e-01
     vertex -4.463540e-01 -4.337211e-16 -1.624596e-01
   endloop
 endfacet
 facet normal -8.191520e-01 -8.328768e-16 -5.735764e-01
   outer loop
     vertex -3.638711e-01 -3.641589e-16 -3.053241e-01
     vertex -3.638711e-01 -4.750000e-01 -3.053241e-01
     vertex -4.113621e-01 -4.750000e-01 -2.375000e-01
   endloop
 endfacet
 facet normal -8.191520e-01 -8.049704e-16 -5.735764e-01
   outer loop
     vertex -3.638711e-01 -3.641589e-16 -3.053241e-01
     vertex -4.113621e-01 -4.750000e-01 -2.375000e-01
     vertex -4.113621e-01 -4.050943e-16 -2.375000e-01
   endloop
 endfacet
 facet normal -7.071068e-01 -7.437280e-16 -7.071068e-01
   outer loop
     vertex -3.053241e-01 -3.121587e-16 -3.638711e-01
     vertex -3.053241e-01 -4.750000e-01 -3.638711e-01
     vertex -3.638711e-01 -4.750000e-01 -3.053241e-01
   endloop
 endfacet
 facet normal -7.071068e-01 -7.388084e-16 -7.071068e-01
   outer loop
     vertex -3.053241e-01 -3.121587e-16 -3.638711e-01
     vertex -3.638711e-01 -4.750000e-01 -3.053241e-01
     vertex -3.638711e-01 -3.641589e-16 -3.053241e-01
   endloop
 endfacet
 facet normal -5.735764e-01 -6.395655e-16 -8.191520e-01
   outer loop
     vertex -2.375000e-01 -2.506737e-16 -4.113621e-01
     vertex -3.053241e-01 -4.750000e-01 -3.638711e-01
     vertex -3.053241e-01 -3.121587e-16 -3.638711e-01
   endloop
 endfacet
 facet normal -5.735764e-01 -6.319814e-16 -8.191520e-01
   outer loop
     vertex -2.375000e-01 -2.506737e-16 -4.113621e-01
     vertex -2.375000e-01 -4.750000e-01 -4.113621e-01
     vertex -3.053241e-01 -4.750000e-01 -3.638711e-01
   endloop
 endfacet
 facet normal -4.226183e-01 -4.962146e-16 -9.063078e-01
   outer loop
     vertex -1.624596e-01 -1.815722e-16 -4.463540e-01
     vertex -2.375000e-01 -4.750000e-01 -4.113621e-01
     vertex -2.375000e-01 -2.506737e-16 -4.113621e-01
   endloop
 endfacet
 facet normal -4.226183e-01 -5.010324e-16 -9.063078e-01
   outer loop
     vertex -1.624596e-01 -1.815722e-16 -4.463540e-01
     vertex -1.624596e-01 -4.750000e-01 -4.463540e-01
     vertex -2.375000e-01 -4.750000e-01 -4.113621e-01
   endloop
 endfacet
 facet normal -2.588190e-01 -3.548598e-16 -9.659258e-01
   outer loop
     vertex -8.248288e-02 -1.069536e-16 -4.677837e-01
     vertex -8.248288e-02 -4.750000e-01 -4.677837e-01
     vertex -1.624596e-01 -4.750000e-01 -4.463540e-01
   endloop
 endfacet
 facet normal -2.588190e-01 -3.528637e-16 -9.659258e-01
   outer loop
     vertex -8.248288e-02 -1.069536e-16 -4.677837e-01
     vertex -1.624596e-01 -4.750000e-01 -4.463540e-01
     vertex -1.624596e-01 -1.815722e-16 -4.463540e-01
   endloop
 endfacet
 facet normal -8.715574e-02 -1.991675e-16 -9.961947e-01
   outer loop
     vertex  2.642579e-17 -2.908536e-17 -4.750000e-01
     vertex  4.773959e-16 -4.750000e-01 -4.750000e-01
     vertex -8.248288e-02 -4.750000e-01 -4.677837e-01
   endloop
 endfacet
 facet normal -8.715574e-02 -1.984858e-16 -9.961947e-01
   outer loop
     vertex  2.642579e-17 -2.908536e-17 -4.750000e-01
     vertex -8.248288e-02 -4.750000e-01 -4.677837e-01
     vertex -8.248288e-02 -1.069536e-16 -4.677837e-01
   endloop
 endfacet
 facet normal  8.715574e-02 -3.493682e-17 -9.961947e-01
   outer loop
     vertex  8.248288e-02  4.966665e-17 -4.677837e-01
     vertex  8.248288e-02 -4.750000e-01 -4.677837e-01
     vertex  4.773959e-16 -4.750000e-01 -4.750000e-01
   endloop
 endfacet
 facet normal  8.715574e-02 -3.583772e-17 -9.961947e-01
   outer loop
     vertex  8.248288e-02  4.966665e-17 -4.677837e-01
     vertex  4.773959e-16 -4.750000e-01 -4.750000e-01
     vertex  2.642579e-17 -2.908536e-17 -4.750000e-01
   endloop
 endfacet
 facet normal  2.588190e-01  1.290928e-16 -9.659258e-01
   outer loop
     vertex  1.624596e-01  1.269096e-16 -4.463540e-01
     vertex  1.624596e-01 -4.750000e-01 -4.463540e-01
     vertex  8.248288e-02 -4.750000e-01 -4.677837e-01
   endloop
 endfacet
 facet normal  2.588190e-01  1.268104e-16 -9.659258e-01
   outer loop
     vertex  1.624596e-01  1.269096e-16 -4.463540e-01
     vertex  8.248288e-02 -4.750000e-01 -4.677837e-01
     vertex  8.248288e-02  4.966665e-17 -4.677837e-01
   endloop
 endfacet
 facet normal  4.226183e-01  2.892000e-16 -9.063078e-01
   outer loop
     vertex  2.375000e-01  2.002964e-16 -4.113621e-01
     vertex  2.375000e-01 -4.750000e-01 -4.113621e-01
     vertex  1.624596e-01 -4.750000e-01 -4.463540e-01
   endloop
 endfacet
 facet normal  4.226183e-01  2.867018e-16 -9.063078e-01
   outer loop
     vertex  2.375000e-01  2.002964e-16 -4.113621e-01
     vertex  1.624596e-01 -4.750000e-01 -4.463540e-01
     vertex  1.624596e-01  1.269096e-16 -4.463540e-01
   endloop
 endfacet
 facet normal  5.735764e-01  4.405201e-16 -8.191520e-01
   outer loop
     vertex  3.053241e-01  2.675973e-16 -3.638711e-01
     vertex  3.053241e-01 -4.750000e-01 -3.638711e-01
     vertex  2.375000e-01 -4.750000e-01 -4.113621e-01
   endloop
 endfacet
 facet normal  5.735764e-01  4.410797e-16 -8.191520e-01
   outer loop
     vertex  3.053241e-01  2.675973e-16 -3.638711e-01
     vertex  2.375000e-01 -4.750000e-01 -4.113621e-01
     vertex  2.375000e-01  2.002964e-16 -4.113621e-01
   endloop
 endfacet
 facet normal  7.071068e-01  5.784551e-16 -7.071068e-01
   outer loop
     vertex  3.638711e-01  3.267674e-16 -3.053241e-01
     vertex  3.638711e-01 -4.750000e-01 -3.053241e-01
     vertex  3.053241e-01 -4.750000e-01 -3.638711e-01
   endloop
 endfacet
 facet normal  7.071068e-01  5.734036e-16 -7.071068e-01
   outer loop
     vertex  3.638711e-01  3.267674e-16 -3.053241e-01
     vertex  3.053241e-01 -4.750000e-01 -3.638711e-01
     vertex  3.053241e-01  2.675973e-16 -3.638711e-01
   endloop
 endfacet
 facet normal  8.191520e-01  7.323298e-16 -5.735764e-01
   outer loop
     vertex  4.113621e-01  3.760089e-16 -2.375000e-01
     vertex  4.113621e-01 -4.750000e-01 -2.375000e-01
     vertex  3.638711e-01 -4.750000e-01 -3.053241e-01
   endloop
 endfacet
 facet normal  8.191520e-01  6.947005e-16 -5.735764e-01
   outer loop
     vertex  4.113621e-01  3.760089e-16 -2.375000e-01
     vertex  3.638711e-01 -4.750000e-01 -3.053241e-01
     vertex  3.638711e-01  3.267674e-16 -3.053241e-01
   endloop
 endfacet
 facet normal  9.063078e-01  8.226347e-16 -4.226183e-01
   outer loop
     vertex  4.463540e-01  4.138255e-16 -1.624596e-01
     vertex  4.463540e-01 -4.750000e-01 -1.624596e-01
     vertex  4.113621e-01 -4.750000e-01 -2.375000e-01
   endloop
 endfacet
 facet normal  9.063078e-01  8.270244e-16 -4.226183e-01
   outer loop
     vertex  4.463540e-01  4.138255e-16 -1.624596e-01
     vertex  4.113621e-01 -4.750000e-01 -2.375000e-01
     vertex  4.113621e-01  3.760089e-16 -2.375000e-01
   endloop
 endfacet
 facet normal  9.659258e-01  8.879443e-16 -2.588190e-01
   outer loop
     vertex  4.677837e-01  4.390682e-16 -8.248288e-02
     vertex  4.677837e-01 -4.750000e-01 -8.248288e-02
     vertex  4.463540e-01 -4.750000e-01 -1.624596e-01
   endloop
 endfacet
 facet normal  9.659258e-01  8.876728e-16 -2.588190e-01
   outer loop
     vertex  4.677837e-01  4.390682e-16 -8.248288e-02
     vertex  4.463540e-01 -4.750000e-01 -1.624596e-01
     vertex  4.463540e-01  4.138255e-16 -1.624596e-01
   endloop
 endfacet
 facet normal  9.961947e-01  9.260302e-16 -8.715574e-02
   outer loop
     vertex  4.750000e-01  4.509701e-16 -6.909978e-16
     vertex  4.750000e-01 -4.750000e-01 -6.619125e-16
     vertex  4.677837e-01 -4.750000e-01 -8.248288e-02
   endloop
 endfacet
 facet normal  9.961947e-01  9.262673e-16 -8.715574e-02
   outer loop
     vertex  4.750000e-01  4.509701e-16 -6.909978e-16
     vertex  4.677837e-01 -4.750000e-01 -8.248288e-02
     vertex  4.677837e-01  4.390682e-16 -8.248288e-02
   endloop
 endfacet
 facet normal  9.961947e-01  9.364597e-16  8.715574e-02
   outer loop
     vertex  4.677837e-01  4.491695e-16  8.248288e-02
     vertex  4.677837e-01 -4.750000e-01  8.248288e-02
     vertex  4.750000e-01 -4.750000e-01 -6.619125e-16
   endloop
 endfacet
 facet normal  9.659258e-01  9.181914e-16  2.588190e-01
   outer loop
     vertex  4.677837e-01  4.491695e-16  8.248288e-02
     vertex  4.463540e-01 -4.750000e-01  1.624596e-01
     vertex  4.677837e-01 -4.750000e-01  8.248288e-02
   endloop
 endfacet
 facet normal  9.961947e-01  9.372943e-16  8.715574e-02
   outer loop
     vertex  4.677837e-01  4.491695e-16  8.248288e-02
     vertex  4.750000e-01 -4.750000e-01 -6.619125e-16
     vertex  4.750000e-01  4.509701e-16 -6.909978e-16
   endloop
 endfacet
 facet normal  9.659258e-01  9.181914e-16  2.588190e-01
   outer loop
     vertex  4.463540e-01  4.337211e-16  1.624596e-01
     vertex  4.463540e-01 -4.750000e-01  1.624596e-01
     vertex  4.677837e-01  4.491695e-16  8.248288e-02
   endloop
 endfacet
 facet normal  9.063078e-01  8.720243e-16  4.226183e-01
   outer loop
     vertex  4.113621e-01  4.050943e-16  2.375000e-01
     vertex  4.113621e-01 -4.750000e-01  2.375000e-01
     vertex  4.463540e-01 -4.750000e-01  1.624596e-01
   endloop
 endfacet
 facet normal  9.063078e-01  8.821593e-16  4.226183e-01
   outer loop
     vertex  4.113621e-01  4.050943e-16  2.375000e-01
     vertex  4.463540e-01 -4.750000e-01  1.624596e-01
     vertex  4.463540e-01  4.337211e-16  1.624596e-01
   endloop
 endfacet
 facet normal  8.191520e-01  8.328768e-16  5.735764e-01
   outer loop
     vertex  3.638711e-01  3.641589e-16  3.053241e-01
     vertex  3.638711e-01 -4.750000e-01  3.053241e-01
     vertex  4.113621e-01 -4.750000e-01  2.375000e-01
   endloop
 endfacet
 facet normal  8.191520e-01  7.939434e-16  5.735764e-01
   outer loop
     vertex  3.638711e-01  3.641589e-16  3.053241e-01
     vertex  4.113621e-01 -4.750000e-01  2.375000e-01
     vertex  4.113621e-01  4.050943e-16  2.375000e-01
   endloop
 endfacet
 facet normal  7.071068e-01  7.437280e-16  7.071068e-01
   outer loop
     vertex  3.053241e-01  3.121587e-16  3.638711e-01
     vertex  3.053241e-01 -4.750000e-01  3.638711e-01
     vertex  3.638711e-01 -4.750000e-01  3.053241e-01
   endloop
 endfacet
 facet normal  7.071068e-01  7.388084e-16  7.071068e-01
   outer loop
     vertex  3.053241e-01  3.121587e-16  3.638711e-01
     vertex  3.638711e-01 -4.750000e-01  3.053241e-01
     vertex  3.638711e-01  3.641589e-16  3.053241e-01
   endloop
 endfacet
 facet normal  5.735764e-01  6.319814e-16  8.191520e-01
   outer loop
     vertex  2.375000e-01  2.506737e-16  4.113621e-01
     vertex  2.375000e-01 -4.750000e-01  4.113621e-01
     vertex  3.053241e-01 -4.750000e-01  3.638711e-01
   endloop
 endfacet
 facet normal  5.735764e-01  6.285385e-16  8.191520e-01
   outer loop
     vertex  2.375000e-01  2.506737e-16  4.113621e-01
     vertex  3.053241e-01 -4.750000e-01  3.638711e-01
     vertex  3.053241e-01  3.121587e-16  3.638711e-01
   endloop
 endfacet
 facet normal  4.226183e-01  5.010324e-16  9.063078e-01
   outer loop
     vertex  1.624596e-01  1.815722e-16  4.463540e-01
     vertex  1.624596e-01 -4.750000e-01  4.463540e-01
     vertex  2.375000e-01 -4.750000e-01  4.113621e-01
   endloop
 endfacet
 facet normal  4.226183e-01  5.072416e-16  9.063078e-01
   outer loop
     vertex  1.624596e-01  1.815722e-16  4.463540e-01
     vertex  2.375000e-01 -4.750000e-01  4.113621e-01
     vertex  2.375000e-01  2.506737e-16  4.113621e-01
   endloop
 endfacet
 facet normal  2.588190e-01  3.548598e-16  9.659258e-01
   outer loop
     vertex  8.248288e-02  1.069536e-16  4.677837e-01
     vertex  8.248288e-02 -4.750000e-01  4.677837e-01
     vertex  1.624596e-01 -4.750000e-01  4.463540e-01
   endloop
 endfacet
 facet normal  2.588190e-01  3.528637e-16  9.659258e-01
   outer loop
     vertex  8.248288e-02  1.069536e-16  4.677837e-01
     vertex  1.624596e-01 -4.750000e-01  4.463540e-01
     vertex  1.624596e-01  1.815722e-16  4.463540e-01
   endloop
 endfacet
 facet normal  8.715574e-02  1.991675e-16  9.961947e-01
   outer loop
     vertex  1.408421e-15  2.908536e-17  4.750000e-01
     vertex  1.859392e-15 -4.750000e-01  4.750000e-01
     vertex  8.248288e-02 -4.750000e-01  4.677837e-01
   endloop
 endfacet
 facet normal -8.715574e-02  3.367427e-17  9.961947e-01
   outer loop
     vertex  1.408421e-15  2.908536e-17  4.750000e-01
     vertex -8.248288e-02 -4.750000e-01  4.677837e-01
     vertex  1.859392e-15 -4.750000e-01  4.750000e-01
   endloop
 endfacet
 facet normal  8.715574e-02  1.984858e-16  9.961947e-01
   outer loop
     vertex  1.408421e-15  2.908536e-17  4.750000e-01
     vertex  8.248288e-02 -4.750000e-01  4.677837e-01
     vertex  8.248288e-02  1.069536e-16  4.677837e-01
   endloop
 endfacet
 facet normal -2.588190e-01 -1.290928e-16  9.659258e-01
   outer loop
     vertex -8.248288e-02 -4.966665e-17  4.677837e-01
     vertex -1.624596e-01 -4.750000e-01  4.463540e-01
     vertex -8.248288e-02 -4.750000e-01  4.677837e-01
   endloop
 endfacet
 facet normal -8.715574e-02  3.493682e-17  9.961947e-01
   outer loop
     vertex -8.248288e-02 -4.966665e-17  4.677837e-01
     vertex -8.248288e-02 -4.750000e-01  4.677837e-01
     vertex  1.408421e-15  2.908536e-17  4.750000e-01
   endloop
 endfacet
 facet normal -4.226183e-01 -2.892000e-16  9.063078e-01
   outer loop
     vertex -1.624596e-01 -1.269096e-16  4.463540e-01
     vertex -2.375000e-01 -4.750000e-01  4.113621e-01
     vertex -1.624596e-01 -4.750000e-01  4.463540e-01
   endloop
 endfacet
 facet normal -2.588190e-01 -1.290928e-16  9.659258e-01
   outer loop
     vertex -1.624596e-01 -1.269096e-16  4.463540e-01
     vertex -1.624596e-01 -4.750000e-01  4.463540e-01
     vertex -8.248288e-02 -4.966665e-17  4.677837e-01
   endloop
 endfacet
 facet normal -4.226183e-01 -2.892000e-16  9.063078e-01
   outer loop
     vertex -2.375000e-01 -2.002964e-16  4.113621e-01
     vertex -2.375000e-01 -4.750000e-01  4.113621e-01
     vertex -1.624596e-01 -1.269096e-16  4.463540e-01
   endloop
 endfacet
 facet normal -5.735764e-01 -4.410797e-16  8.191520e-01
   outer loop
     vertex -3.053241e-01 -2.675973e-16  3.638711e-01
     vertex -2.375000e-01 -4.750000e-01  4.113621e-01
     vertex -2.375000e-01 -2.002964e-16  4.113621e-01
   endloop
 endfacet
 facet normal -5.735764e-01 -4.405201e-16  8.191520e-01
   outer loop
     vertex -3.053241e-01 -2.675973e-16  3.638711e-01
     vertex -3.053241e-01 -4.750000e-01  3.638711e-01
     vertex -2.375000e-01 -4.750000e-01  4.113621e-01
   endloop
 endfacet
 facet normal -7.071068e-01 -5.844306e-16  7.071068e-01
   outer loop
     vertex -3.638711e-01 -3.267674e-16  3.053241e-01
     vertex -3.053241e-01 -4.750000e-01  3.638711e-01
     vertex -3.053241e-01 -2.675973e-16  3.638711e-01
   endloop
 endfacet
 facet normal -7.071068e-01 -5.784551e-16  7.071068e-01
   outer loop
     vertex -3.638711e-01 -3.267674e-16  3.053241e-01
     vertex -3.638711e-01 -4.750000e-01  3.053241e-01
     vertex -3.053241e-01 -4.750000e-01  3.638711e-01
   endloop
 endfacet
 facet normal -8.191520e-01 -6.988141e-16  5.735764e-01
   outer loop
     vertex -3.638711e-01 -3.267674e-16  3.053241e-01
     vertex -4.113621e-01 -4.750000e-01  2.375000e-01
     vertex -3.638711e-01 -4.750000e-01  3.053241e-01
   endloop
 endfacet
 facet normal -9.063078e-01 -8.226347e-16  4.226183e-01
   outer loop
     vertex -4.113621e-01 -3.760089e-16  2.375000e-01
     vertex -4.463540e-01 -4.750000e-01  1.624596e-01
     vertex -4.113621e-01 -4.750000e-01  2.375000e-01
   endloop
 endfacet
 facet normal -8.191520e-01 -7.323298e-16  5.735764e-01
   outer loop
     vertex -4.113621e-01 -3.760089e-16  2.375000e-01
     vertex -4.113621e-01 -4.750000e-01  2.375000e-01
     vertex -3.638711e-01 -3.267674e-16  3.053241e-01
   endloop
 endfacet
 facet normal -9.063078e-01 -8.226347e-16  4.226183e-01
   outer loop
     vertex -4.463540e-01 -4.138255e-16  1.624596e-01
     vertex -4.463540e-01 -4.750000e-01  1.624596e-01
     vertex -4.113621e-01 -3.760089e-16  2.375000e-01
   endloop
 endfacet
 facet normal -9.659258e-01 -8.876728e-16  2.588190e-01
   outer loop
     vertex -4.677837e-01 -4.390682e-16  8.248288e-02
     vertex -4.463540e-01 -4.750000e-01  1.624596e-01
     vertex -4.463540e-01 -4.138255e-16  1.624596e-01
   endloop
 endfacet
 facet normal -9.659258e-01 -8.879443e-16  2.588190e-01
   outer loop
     vertex -4.677837e-01 -4.390682e-16  8.248288e-02
     vertex -4.677837e-01 -4.750000e-01  8.248288e-02
     vertex -4.463540e-01 -4.750000e-01  1.624596e-01
   endloop
 endfacet
 facet normal -9.961947e-01 -9.262673e-16  8.715574e-02
   outer loop
     vertex -4.750000e-01 -4.509701e-16 -6.162976e-33
     vertex -4.677837e-01 -4.750000e-01  8.248288e-02
     vertex -4.677837e-01 -4.390682e-16  8.248288e-02
   endloop
 endfacet
 facet normal -9.961947e-01 -9.260302e-16  8.715574e-02
   outer loop
     vertex -4.750000e-01 -4.509701e-16 -6.162976e-33
     vertex -4.750000e-01 -4.750000e-01  2.908536e-17
     vertex -4.677837e-01 -4.750000e-01  8.248288e-02
   endloop
 endfacet
 facet normal -9.682756e-16  1.000000e+00 -6.288280e-17
   outer loop
     vertex -3.500000e-01 -3.322938e-16 -3.750000e-02
     vertex -4.677837e-01 -4.491695e-16 -8.248288e-02
     vertex -4.750000e-01 -4.509701e-16 -6.162976e-33
   endloop
 endfacet
 facet normal -9.670961e-16  1.000000e+00 -6.597112e-17
   outer loop
     vertex -3.500000e-01 -3.322938e-16 -3.750000e-02
     vertex -4.463540e-01 -4.337211e-16 -1.624596e-01
     vertex -4.677837e-01 -4.491695e-16 -8.248288e-02
   endloop
 endfacet
 facet normal -9.642611e-16  1.000000e+00 -6.815717e-17
   outer loop
     vertex -3.500000e-01 -3.322938e-16 -3.750000e-02
     vertex -4.113621e-01 -4.050943e-16 -2.375000e-01
     vertex -4.463540e-01 -4.337211e-16 -1.624596e-01
   endloop
 endfacet
 facet normal -9.608118e-16  1.000000e+00 -6.921544e-17
   outer loop
     vertex -3.500000e-01 -3.322938e-16 -3.750000e-02
     vertex -3.638711e-01 -3.641589e-16 -3.053241e-01
     vertex -4.113621e-01 -4.050943e-16 -2.375000e-01
   endloop
 endfacet
 facet normal -9.575622e-16  1.000000e+00 -6.938375e-17
   outer loop
     vertex -3.500000e-01 -3.322938e-16 -3.750000e-02
     vertex -3.053241e-01 -3.121587e-16 -3.638711e-01
     vertex -3.638711e-01 -3.641589e-16 -3.053241e-01
   endloop
 endfacet
 facet normal -9.548594e-16  1.000000e+00 -6.901377e-17
   outer loop
     vertex -3.500000e-01 -3.322938e-16 -3.750000e-02
     vertex -2.375000e-01 -2.506737e-16 -4.113621e-01
     vertex -3.053241e-01 -3.121587e-16 -3.638711e-01
   endloop
 endfacet
 facet normal -9.527422e-16  1.000000e+00 -6.837669e-17
   outer loop
     vertex -3.500000e-01 -3.322938e-16 -3.750000e-02
     vertex -1.624596e-01 -1.815722e-16 -4.463540e-01
     vertex -2.375000e-01 -2.506737e-16 -4.113621e-01
   endloop
 endfacet
 facet normal -9.511265e-16  1.000000e+00 -6.763556e-17
   outer loop
     vertex -3.500000e-01 -3.322938e-16 -3.750000e-02
     vertex -8.248288e-02 -1.069536e-16 -4.677837e-01
     vertex -1.624596e-01 -1.815722e-16 -4.463540e-01
   endloop
 endfacet
 facet normal -9.499045e-16  1.000000e+00 -6.687582e-17
   outer loop
     vertex -3.500000e-01 -3.322938e-16 -3.750000e-02
     vertex  2.642579e-17 -2.908536e-17 -4.750000e-01
     vertex -8.248288e-02 -1.069536e-16 -4.677837e-01
   endloop
 endfacet
 facet normal -9.305459e-16  1.000000e+00 -6.288280e-17
   outer loop
     vertex -3.500000e-01 -3.322938e-16  3.750000e-02
     vertex -4.750000e-01 -4.509701e-16 -6.162976e-33
     vertex -4.677837e-01 -4.390682e-16  8.248288e-02
   endloop
 endfacet
 facet normal -9.494108e-16  1.000000e+00  0.000000e+00
   outer loop
     vertex -3.500000e-01 -3.322938e-16  3.750000e-02
     vertex -3.500000e-01 -3.322938e-16 -3.750000e-02
     vertex -4.750000e-01 -4.509701e-16 -6.162976e-33
   endloop
 endfacet
 facet normal -9.317254e-16  1.000000e+00 -6.597112e-17
   outer loop
     vertex -4.463540e-01 -4.138255e-16  1.624596e-01
     vertex -3.500000e-01 -3.322938e-16  3.750000e-02
     vertex -4.677837e-01 -4.390682e-16  8.248288e-02
   endloop
 endfacet
 facet normal -9.345604e-16  1.000000e+00 -6.815717e-17
   outer loop
     vertex -4.113621e-01 -3.760089e-16  2.375000e-01
     vertex -3.500000e-01 -3.322938e-16  3.750000e-02
     vertex -4.463540e-01 -4.138255e-16  1.624596e-01
   endloop
 endfacet
 facet normal -9.380097e-16  1.000000e+00 -6.921544e-17
   outer loop
     vertex -3.638711e-01 -3.267674e-16  3.053241e-01
     vertex -3.500000e-01 -3.322938e-16  3.750000e-02
     vertex -4.113621e-01 -3.760089e-16  2.375000e-01
   endloop
 endfacet
 facet normal -9.412594e-16  1.000000e+00 -6.938375e-17
   outer loop
     vertex -3.053241e-01 -2.675973e-16  3.638711e-01
     vertex -3.500000e-01 -3.322938e-16  3.750000e-02
     vertex -3.638711e-01 -3.267674e-16  3.053241e-01
   endloop
 endfacet
 facet normal -9.439621e-16  1.000000e+00 -6.901377e-17
   outer loop
     vertex -2.375000e-01 -2.002964e-16  4.113621e-01
     vertex -3.500000e-01 -3.322938e-16  3.750000e-02
     vertex -3.053241e-01 -2.675973e-16  3.638711e-01
   endloop
 endfacet
 facet normal -9.460793e-16  1.000000e+00 -6.837669e-17
   outer loop
     vertex -1.624596e-01 -1.269096e-16  4.463540e-01
     vertex -3.500000e-01 -3.322938e-16  3.750000e-02
     vertex -2.375000e-01 -2.002964e-16  4.113621e-01
   endloop
 endfacet
 facet normal -9.489170e-16  1.000000e+00 -6.687582e-17
   outer loop
     vertex  3.500000e-01  3.322938e-16 -3.750000e-02
     vertex  8.248288e-02  4.966665e-17 -4.677837e-01
     vertex  2.642579e-17 -2.908536e-17 -4.750000e-01
   endloop
 endfacet
 facet normal -9.476950e-16  1.000000e+00 -6.763556e-17
   outer loop
     vertex  3.500000e-01  3.322938e-16 -3.750000e-02
     vertex  1.624596e-01  1.269096e-16 -4.463540e-01
     vertex  8.248288e-02  4.966665e-17 -4.677837e-01
   endloop
 endfacet
 facet normal -9.460793e-16  1.000000e+00 -6.837669e-17
   outer loop
     vertex  3.500000e-01  3.322938e-16 -3.750000e-02
     vertex  2.375000e-01  2.002964e-16 -4.113621e-01
     vertex  1.624596e-01  1.269096e-16 -4.463540e-01
   endloop
 endfacet
 facet normal -9.439621e-16  1.000000e+00 -6.901377e-17
   outer loop
     vertex  3.500000e-01  3.322938e-16 -3.750000e-02
     vertex  3.053241e-01  2.675973e-16 -3.638711e-01
     vertex  2.375000e-01  2.002964e-16 -4.113621e-01
   endloop
 endfacet
 facet normal -9.412594e-16  1.000000e+00 -6.938375e-17
   outer loop
     vertex  3.500000e-01  3.322938e-16 -3.750000e-02
     vertex  3.638711e-01  3.267674e-16 -3.053241e-01
     vertex  3.053241e-01  2.675973e-16 -3.638711e-01
   endloop
 endfacet
 facet normal -9.380097e-16  1.000000e+00 -6.921544e-17
   outer loop
     vertex  3.500000e-01  3.322938e-16 -3.750000e-02
     vertex  4.113621e-01  3.760089e-16 -2.375000e-01
     vertex  3.638711e-01  3.267674e-16 -3.053241e-01
   endloop
 endfacet
 facet normal -9.345604e-16  1.000000e+00 -6.815717e-17
   outer loop
     vertex  3.500000e-01  3.322938e-16 -3.750000e-02
     vertex  4.463540e-01  4.138255e-16 -1.624596e-01
     vertex  4.113621e-01  3.760089e-16 -2.375000e-01
   endloop
 endfacet
 facet normal -9.494108e-16  1.000000e+00 -6.648083e-17
   outer loop
     vertex  3.500000e-01  3.322938e-16 -3.750000e-02
     vertex  2.642579e-17 -2.908536e-17 -4.750000e-01
     vertex -3.500000e-01 -3.322938e-16 -3.750000e-02
   endloop
 endfacet
 facet normal -9.317254e-16  1.000000e+00 -6.597112e-17
   outer loop
     vertex  4.677837e-01  4.390682e-16 -8.248288e-02
     vertex  4.463540e-01  4.138255e-16 -1.624596e-01
     vertex  3.500000e-01  3.322938e-16 -3.750000e-02
   endloop
 endfacet
 facet normal -9.476950e-16  1.000000e+00 -6.763556e-17
   outer loop
     vertex -8.248288e-02 -4.966665e-17  4.677837e-01
     vertex -3.500000e-01 -3.322938e-16  3.750000e-02
     vertex -1.624596e-01 -1.269096e-16  4.463540e-01
   endloop
 endfacet
 facet normal -9.305459e-16  1.000000e+00 -6.288280e-17
   outer loop
     vertex  4.750000e-01  4.509701e-16 -6.909978e-16
     vertex  4.677837e-01  4.390682e-16 -8.248288e-02
     vertex  3.500000e-01  3.322938e-16 -3.750000e-02
   endloop
 endfacet
 facet normal -9.494108e-16  1.000000e+00  0.000000e+00
   outer loop
     vertex  4.750000e-01  4.509701e-16 -6.909978e-16
     vertex  3.500000e-01  3.322938e-16 -3.750000e-02
     vertex  3.500000e-01  3.322938e-16  3.750000e-02
   endloop
 endfacet
 facet normal -9.489170e-16  1.000000e+00 -6.687582e-17
   outer loop
     vertex  1.408421e-15  2.908536e-17  4.750000e-01
     vertex -3.500000e-01 -3.322938e-16  3.750000e-02
     vertex -8.248288e-02 -4.966665e-17  4.677837e-01
   endloop
 endfacet
 facet normal -9.494108e-16  1.000000e+00 -6.648083e-17
   outer loop
     vertex  1.408421e-15  2.908536e-17  4.750000e-01
     vertex  3.500000e-01  3.322938e-16  3.750000e-02
     vertex -3.500000e-01 -3.322938e-16  3.750000e-02
   endloop
 endfacet
 facet normal -9.682756e-16  1.000000e+00 -6.288280e-17
   outer loop
     vertex  4.677837e-01  4.491695e-16  8.248288e-02
     vertex  4.750000e-01  4.509701e-16 -6.909978e-16
     vertex  3.500000e-01  3.322938e-16  3.750000e-02
   endloop
 endfacet
 facet normal -9.499045e-16  1.000000e+00 -6.687582e-17
   outer loop
     vertex  8.248288e-02  1.069536e-16  4.677837e-01
     vertex  3.500000e-01  3.322938e-16  3.750000e-02
     vertex  1.408421e-15  2.908536e-17  4.750000e-01
   endloop
 endfacet
 facet normal -9.670961e-16  1.000000e+00 -6.597112e-17
   outer loop
     vertex  4.463540e-01  4.337211e-16  1.624596e-01
     vertex  4.677837e-01  4.491695e-16  8.248288e-02
     vertex  3.500000e-01  3.322938e-16  3.750000e-02
   endloop
 endfacet
 facet normal -9.511265e-16  1.000000e+00 -6.763556e-17
   outer loop
     vertex  1.624596e-01  1.815722e-16  4.463540e-01
     vertex  3.500000e-01  3.322938e-16  3.750000e-02
     vertex  8.248288e-02  1.069536e-16  4.677837e-01
   endloop
 endfacet
 facet normal -9.642611e-16  1.000000e+00 -6.815717e-17
   outer loop
     vertex  4.113621e-01  4.050943e-16  2.375000e-01
     vertex  4.463540e-01  4.337211e-16  1.624596e-01
     vertex  3.500000e-01  3.322938e-16  3.750000e-02
   endloop
 endfacet
 facet normal -9.527422e-16  1.000000e+00 -6.837669e-17
   outer loop
     vertex  2.375000e-01  2.506737e-16  4.113621e-01
     vertex  3.500000e-01  3.322938e-16  3.750000e-02
     vertex  1.624596e-01  1.815722e-16  4.463540e-01
   endloop
 endfacet
 facet normal -9.608118e-16  1.000000e+00 -6.921544e-17
   outer loop
     vertex  3.638711e-01  3.641589e-16  3.053241e-01
     vertex  4.113621e-01  4.050943e-16  2.375000e-01
     vertex  3.500000e-01  3.322938e-16  3.750000e-02
   endloop
 endfacet
 facet normal -9.548594e-16  1.000000e+00 -6.901377e-17
   outer loop
     vertex  3.053241e-01  3.121587e-16  3.638711e-01
     vertex  3.500000e-01  3.322938e-16  3.750000e-02
     vertex  2.375000e-01  2.506737e-16  4.113621e-01
   endloop
 endfacet
 facet normal -9.575622e-16  1.000000e+00 -6.938375e-17
   outer loop
     vertex  3.053241e-01  3.121587e-16  3.638711e-01
     vertex  3.638711e-01  3.641589e-16  3.053241e-01
     vertex  3.500000e-01  3.322938e-16  3.750000e-02
   endloop
 endfacet
 facet normal  9.121184e-16 -1.000000e+00  7.980002e-17
   outer loop
     vertex -3.500000e-01 -4.750000e-01 -3.750000e-02
     vertex -4.750000e-01 -4.750000e-01  2.908536e-17
     vertex -4.677837e-01 -4.750000e-01 -8.248288e-02
   endloop
 endfacet
 facet normal  8.550911e-16 -1.000000e+00  2.291210e-16
   outer loop
     vertex -3.500000e-01 -4.750000e-01 -3.750000e-02
     vertex -4.677837e-01 -4.750000e-01 -8.248288e-02
     vertex -4.463540e-01 -4.750000e-01 -1.624596e-01
   endloop
 endfacet
 facet normal  1.315848e-15 -1.000000e+00 -1.261600e-16
   outer loop
     vertex -3.500000e-01 -4.750000e-01 -3.750000e-02
     vertex -4.463540e-01 -4.750000e-01 -1.624596e-01
     vertex -4.113621e-01 -4.750000e-01 -2.375000e-01
   endloop
 endfacet
 facet normal  2.756215e-16 -1.000000e+00  1.929922e-16
   outer loop
     vertex -3.500000e-01 -4.750000e-01 -3.750000e-02
     vertex -4.113621e-01 -4.750000e-01 -2.375000e-01
     vertex -3.638711e-01 -4.750000e-01 -3.053241e-01
   endloop
 endfacet
 facet normal  1.098520e-15 -1.000000e+00  1.503728e-16
   outer loop
     vertex -3.500000e-01 -4.750000e-01 -3.750000e-02
     vertex -3.638711e-01 -4.750000e-01 -3.053241e-01
     vertex -3.053241e-01 -4.750000e-01 -3.638711e-01
   endloop
 endfacet
 facet normal  9.052222e-16 -1.000000e+00  1.239129e-16
   outer loop
     vertex -3.500000e-01 -4.750000e-01 -3.750000e-02
     vertex -3.053241e-01 -4.750000e-01 -3.638711e-01
     vertex -2.375000e-01 -4.750000e-01 -4.113621e-01
   endloop
 endfacet
 facet normal  1.640447e-15 -1.000000e+00  3.451516e-16
   outer loop
     vertex -3.500000e-01 -4.750000e-01 -3.750000e-02
     vertex -2.375000e-01 -4.750000e-01 -4.113621e-01
     vertex -1.624596e-01 -4.750000e-01 -4.463540e-01
   endloop
 endfacet
 facet normal  6.669210e-16 -1.000000e+00 -1.014025e-16
   outer loop
     vertex -3.500000e-01 -4.750000e-01 -3.750000e-02
     vertex -1.624596e-01 -4.750000e-01 -4.463540e-01
     vertex -8.248288e-02 -4.750000e-01 -4.677837e-01
   endloop
 endfacet
 facet normal  6.639700e-16 -1.000000e+00 -1.032372e-16
   outer loop
     vertex -3.500000e-01 -4.750000e-01 -3.750000e-02
     vertex -8.248288e-02 -4.750000e-01 -4.677837e-01
     vertex  4.773959e-16 -4.750000e-01 -4.750000e-01
   endloop
 endfacet
 facet normal  9.121184e-16 -1.000000e+00 -7.980002e-17
   outer loop
     vertex -3.500000e-01 -4.750000e-01  3.750000e-02
     vertex -4.677837e-01 -4.750000e-01  8.248288e-02
     vertex -4.750000e-01 -4.750000e-01  2.908536e-17
   endloop
 endfacet
 facet normal  8.881784e-16 -1.000000e+00  0.000000e+00
   outer loop
     vertex -3.500000e-01 -4.750000e-01  3.750000e-02
     vertex -4.750000e-01 -4.750000e-01  2.908536e-17
     vertex -3.500000e-01 -4.750000e-01 -3.750000e-02
   endloop
 endfacet
 facet normal  1.095564e-15 -1.000000e+00  4.005362e-16
   outer loop
     vertex -4.463540e-01 -4.750000e-01  1.624596e-01
     vertex -4.677837e-01 -4.750000e-01  8.248288e-02
     vertex -3.500000e-01 -4.750000e-01  3.750000e-02
   endloop
 endfacet
 facet normal  3.590083e-16 -1.000000e+00 -1.674083e-16
   outer loop
     vertex -4.113621e-01 -4.750000e-01  2.375000e-01
     vertex -4.463540e-01 -4.750000e-01  1.624596e-01
     vertex -3.500000e-01 -4.750000e-01  3.750000e-02
   endloop
 endfacet
 facet normal  1.088375e-15 -1.000000e+00  5.636898e-17
   outer loop
     vertex -3.638711e-01 -4.750000e-01  3.053241e-01
     vertex -4.113621e-01 -4.750000e-01  2.375000e-01
     vertex -3.500000e-01 -4.750000e-01  3.750000e-02
   endloop
 endfacet
 facet normal  9.014587e-16 -1.000000e+00  4.668823e-17
   outer loop
     vertex -3.053241e-01 -4.750000e-01  3.638711e-01
     vertex -3.638711e-01 -4.750000e-01  3.053241e-01
     vertex -3.500000e-01 -4.750000e-01  3.750000e-02
   endloop
 endfacet
 facet normal  7.735014e-16 -1.000000e+00  6.420388e-17
   outer loop
     vertex -2.375000e-01 -4.750000e-01  4.113621e-01
     vertex -3.053241e-01 -4.750000e-01  3.638711e-01
     vertex -3.500000e-01 -4.750000e-01  3.750000e-02
   endloop
 endfacet
 facet normal  1.559908e-15 -1.000000e+00 -1.724362e-16
   outer loop
     vertex -1.624596e-01 -4.750000e-01  4.463540e-01
     vertex -2.375000e-01 -4.750000e-01  4.113621e-01
     vertex -3.500000e-01 -4.750000e-01  3.750000e-02
   endloop
 endfacet
 facet normal  1.363749e-15 -1.000000e+00 -2.028205e-16
   outer loop
     vertex  3.500000e-01 -4.750000e-01 -3.750000e-02
     vertex  4.773959e-16 -4.750000e-01 -4.750000e-01
     vertex  8.248288e-02 -4.750000e-01 -4.677837e-01
   endloop
 endfacet
 facet normal  6.254428e-16 -1.000000e+00  2.562010e-16
   outer loop
     vertex  3.500000e-01 -4.750000e-01 -3.750000e-02
     vertex  8.248288e-02 -4.750000e-01 -4.677837e-01
     vertex  1.624596e-01 -4.750000e-01 -4.463540e-01
   endloop
 endfacet
 facet normal  1.559908e-15 -1.000000e+00 -1.724362e-16
   outer loop
     vertex  3.500000e-01 -4.750000e-01 -3.750000e-02
     vertex  1.624596e-01 -4.750000e-01 -4.463540e-01
     vertex  2.375000e-01 -4.750000e-01 -4.113621e-01
   endloop
 endfacet
 facet normal  7.735014e-16 -1.000000e+00  6.420388e-17
   outer loop
     vertex  3.500000e-01 -4.750000e-01 -3.750000e-02
     vertex  2.375000e-01 -4.750000e-01 -4.113621e-01
     vertex  3.053241e-01 -4.750000e-01 -3.638711e-01
   endloop
 endfacet
 facet normal  9.014587e-16 -1.000000e+00  4.668823e-17
   outer loop
     vertex  3.500000e-01 -4.750000e-01 -3.750000e-02
     vertex  3.053241e-01 -4.750000e-01 -3.638711e-01
     vertex  3.638711e-01 -4.750000e-01 -3.053241e-01
   endloop
 endfacet
 facet normal  1.088375e-15 -1.000000e+00  5.636898e-17
   outer loop
     vertex  3.500000e-01 -4.750000e-01 -3.750000e-02
     vertex  3.638711e-01 -4.750000e-01 -3.053241e-01
     vertex  4.113621e-01 -4.750000e-01 -2.375000e-01
   endloop
 endfacet
 facet normal  3.590083e-16 -1.000000e+00 -1.674083e-16
   outer loop
     vertex  3.500000e-01 -4.750000e-01 -3.750000e-02
     vertex  4.113621e-01 -4.750000e-01 -2.375000e-01
     vertex  4.463540e-01 -4.750000e-01 -1.624596e-01
   endloop
 endfacet
 facet normal  9.516197e-16 -1.000000e+00  1.268826e-16
   outer loop
     vertex  3.500000e-01 -4.750000e-01 -3.750000e-02
     vertex -3.500000e-01 -4.750000e-01 -3.750000e-02
     vertex  4.773959e-16 -4.750000e-01 -4.750000e-01
   endloop
 endfacet
 facet normal  1.095564e-15 -1.000000e+00  4.005362e-16
   outer loop
     vertex  4.677837e-01 -4.750000e-01 -8.248288e-02
     vertex  3.500000e-01 -4.750000e-01 -3.750000e-02
     vertex  4.463540e-01 -4.750000e-01 -1.624596e-01
   endloop
 endfacet
 facet normal  6.254428e-16 -1.000000e+00  2.562010e-16
   outer loop
     vertex -8.248288e-02 -4.750000e-01  4.677837e-01
     vertex -1.624596e-01 -4.750000e-01  4.463540e-01
     vertex -3.500000e-01 -4.750000e-01  3.750000e-02
   endloop
 endfacet
 facet normal  9.121184e-16 -1.000000e+00 -7.980002e-17
   outer loop
     vertex  4.750000e-01 -4.750000e-01 -6.619125e-16
     vertex  3.500000e-01 -4.750000e-01 -3.750000e-02
     vertex  4.677837e-01 -4.750000e-01 -8.248288e-02
   endloop
 endfacet
 facet normal  8.881784e-16 -1.000000e+00  0.000000e+00
   outer loop
     vertex  4.750000e-01 -4.750000e-01 -6.619125e-16
     vertex  3.500000e-01 -4.750000e-01  3.750000e-02
     vertex  3.500000e-01 -4.750000e-01 -3.750000e-02
   endloop
 endfacet
 facet normal  1.363749e-15 -1.000000e+00 -2.028205e-16
   outer loop
     vertex  1.859392e-15 -4.750000e-01  4.750000e-01
     vertex -8.248288e-02 -4.750000e-01  4.677837e-01
     vertex -3.500000e-01 -4.750000e-01  3.750000e-02
   endloop
 endfacet
 facet normal  9.516197e-16 -1.000000e+00  1.268826e-16
   outer loop
     vertex  1.859392e-15 -4.750000e-01  4.750000e-01
     vertex -3.500000e-01 -4.750000e-01  3.750000e-02
     vertex  3.500000e-01 -4.750000e-01  3.750000e-02
   endloop
 endfacet
 facet normal  9.121184e-16 -1.000000e+00  7.980002e-17
   outer loop
     vertex  4.677837e-01 -4.750000e-01  8.248288e-02
     vertex  3.500000e-01 -4.750000e-01  3.750000e-02
     vertex  4.750000e-01 -4.750000e-01 -6.619125e-16
   endloop
 endfacet
 facet normal  6.639700e-16 -1.000000e+00 -1.032372e-16
   outer loop
     vertex  8.248288e-02 -4.750000e-01  4.677837e-01
     vertex  1.859392e-15 -4.750000e-01  4.750000e-01
     vertex  3.500000e-01 -4.750000e-01  3.750000e-02
   endloop
 endfacet
 facet normal  8.550911e-16 -1.000000e+00  2.291210e-16
   outer loop
     vertex  4.463540e-01 -4.750000e-01  1.624596e-01
     vertex  3.500000e-01 -4.750000e-01  3.750000e-02
     vertex  4.677837e-01 -4.750000e-01  8.248288e-02
   endloop
 endfacet
 facet normal  6.669210e-16 -1.000000e+00 -1.014025e-16
   outer loop
     vertex  1.624596e-01 -4.750000e-01  4.463540e-01
     vertex  8.248288e-02 -4.750000e-01  4.677837e-01
     vertex  3.500000e-01 -4.750000e-01  3.750000e-02
   endloop
 endfacet
 facet normal  1.315848e-15 -1.000000e+00 -1.261600e-16
   outer loop
     vertex  4.113621e-01 -4.750000e-01  2.375000e-01
     vertex  3.500000e-01 -4.750000e-01  3.750000e-02
     vertex  4.463540e-01 -4.750000e-01  1.624596e-01
   endloop
 endfacet
 facet normal  1.640447e-15 -1.000000e+00  3.451516e-16
   outer loop
     vertex  2.375000e-01 -4.750000e-01  4.113621e-01
     vertex  1.624596e-01 -4.750000e-01  4.463540e-01
     vertex  3.500000e-01 -4.750000e-01  3.750000e-02
   endloop
 endfacet
 facet normal  2.756215e-16 -1.000000e+00  1.929922e-16
   outer loop
     vertex  3.638711e-01 -4.750000e-01  3.053241e-01
     vertex  3.500000e-01 -4.750000e-01  3.750000e-02
     vertex  4.113621e-01 -4.750000e-01  2.375000e-01
   endloop
 endfacet
 facet normal  9.052222e-16 -1.000000e+00  1.239129e-16
   outer loop
     vertex  3.053241e-01 -4.750000e-01  3.638711e-01
     vertex  2.375000e-01 -4.750000e-01  4.113621e-01
     vertex  3.500000e-01 -4.750000e-01  3.750000e-02
   endloop
 endfacet
 facet normal  1.098520e-15 -1.000000e+00  1.503728e-16
   outer loop
     vertex  3.053241e-01 -4.750000e-01  3.638711e-01
     vertex  3.500000e-01 -4.750000e-01  3.750000e-02
     vertex  3.638711e-01 -4.750000e-01  3.053241e-01
   endloop
 endfacet
 facet normal -9.494108e-16  1.000000e+00  0.000000e+00
   outer loop
     vertex  3.500000e-01  3.322938e-16  3.750000e-02
     vertex  3.500000e-01  3.322938e-16 -3.750000e-02
     vertex -3.500000e-01 -3.322938e-16 -3.750000e-02
   endloop
 endfacet
 facet normal -9.494108e-16  1.000000e+00  0.000000e+00
   outer loop
     vertex  3.500000e-01  3.322938e-16  3.750000e-02
     vertex -3.500000e-01 -3.322938e-16 -3.750000e-02
     vertex -3.500000e-01 -3.322938e-16  3.750000e-02
   endloop
 endfacet
 facet normal  1.000000e+00  1.009294e-15  0.000000e+00
   outer loop
     vertex  3.500000e-01 -4.750000e-01  3.750000e-02
     vertex  3.500000e-01 -7.500000e-01 -3.750000e-02
     vertex  3.500000e-01 -4.750000e-01 -3.750000e-02
   endloop
 endfacet
 facet normal  1.000000e+00  1.009294e-15  0.000000e+00
   outer loop
     vertex  3.500000e-01 -4.750000e-01  3.750000e-02
     vertex  3.500000e-01 -7.500000e-01  3.750000e-02
     vertex  3.500000e-01 -7.500000e-01 -3.750000e-02
   endloop
 endfacet
 facet normal  5.947623e-17  7.569702e-17  1.000000e+00
   outer loop
     vertex -3.500000e-01 -4.750000e-01  3.750000e-02
     vertex  3.500000e-01 -7.500000e-01  3.750000e-02
     vertex  3.500000e-01 -4.750000e-01  3.750000e-02
   endloop
 endfacet
 facet normal  5.947623e-17  7.569702e-17  1.000000e+00
   outer loop
     vertex -3.500000e-01 -4.750000e-01  3.750000e-02
     vertex -3.500000e-01 -7.500000e-01  3.750000e-02
     vertex  3.500000e-01 -7.500000e-01  3.750000e-02
   endloop
 endfacet
 facet normal -1.000000e+00 -1.009294e-15  0.000000e+00
   outer loop
     vertex -3.500000e-01 -4.750000e-01 -3.750000e-02
     vertex -3.500000e-01 -7.500000e-01  3.750000e-02
     vertex -3.500000e-01 -4.750000e-01  3.750000e-02
   endloop
 endfacet
 facet normal -1.000000e+00 -1.009294e-15  0.000000e+00
   outer loop
     vertex -3.500000e-01 -4.750000e-01 -3.750000e-02
     vertex -3.500000e-01 -7.500000e-01 -3.750000e-02
     vertex -3.500000e-01 -7.500000e-01  3.750000e-02
   endloop
 endfacet
 facet normal -5.947623e-17 -7.569702e-17 -1.000000e+00
   outer loop
     vertex  3.500000e-01 -4.750000e-01 -3.750000e-02
     vertex -3.500000e-01 -7.500000e-01 -3.750000e-02
     vertex -3.500000e-01 -4.750000e-01 -3.750000e-02
   endloop
 endfacet
 facet normal -5.947623e-17 -7.569702e-17 -1.000000e+00
   outer loop
     vertex  3.500000e-01 -4.750000e-01 -3.750000e-02
     vertex  3.500000e-01 -7.500000e-01 -3.750000e-02
     vertex -3.500000e-01 -7.500000e-01 -3.750000e-02
   endloop
 endfacet
 facet normal  9.516197e-16 -1.000000e+00  0.000000e+00
   outer loop
     vertex  3.500000e-01 -7.500000e-01  3.750000e-02
     vertex -3.500000e-01 -7.500000e-01 -3.750000e-02
     vertex  3.500000e-01 -7.500000e-01 -3.750000e-02
   endloop
 endfacet
 facet normal  9.516197e-16 -1.000000e+00  0.000000e+00
   outer loop
     vertex  3.500000e-01 -7.500000e-01  3.750000e-02
     vertex -3.500000e-01 -7.500000e-01  3.750000e-02
     vertex -3.500000e-01 -7.500000e-01 -3.750000e-02
   endloop
 endfacet
endsolid
