solid 
 facet normal  9.964336e-01  8.438039e-02 -1.734614e-16
   outer loop
     vertex  3.000000e-01  0.000000e+00  0.000000e+00
     vertex  2.957280e-01  5.044768e-02  4.574313e-01
     vertex  3.000000e-01  2.848232e-16  4.574313e-01
   endloop
 endfacet
 facet normal  9.680549e-01  2.507380e-01  2.981670e-04
   outer loop
     vertex  2.954423e-01  5.209445e-02  0.000000e+00
     vertex  2.830335e-01  9.945859e-02  4.574313e-01
     vertex  2.957280e-01  5.044768e-02  4.574313e-01
   endloop
 endfacet
 facet normal  9.961947e-01  8.715574e-02 -3.083100e-04
   outer loop
     vertex  2.954423e-01  5.209445e-02  0.000000e+00
     vertex  2.957280e-01  5.044768e-02  4.574313e-01
     vertex  3.000000e-01  0.000000e+00  0.000000e+00
   endloop
 endfacet
 facet normal  9.121058e-01  4.099545e-01  5.760410e-04
   outer loop
     vertex  2.819078e-01  1.026060e-01  0.000000e+00
     vertex  2.622783e-01  1.456369e-01  4.574313e-01
     vertex  2.830335e-01  9.945859e-02  4.574313e-01
   endloop
 endfacet
 facet normal  9.659257e-01  2.588190e-01 -5.963316e-04
   outer loop
     vertex  2.819078e-01  1.026060e-01  0.000000e+00
     vertex  2.830335e-01  9.945859e-02  4.574313e-01
     vertex  2.954423e-01  5.209445e-02  0.000000e+00
   endloop
 endfacet
 facet normal  8.301797e-01  5.574953e-01  8.336135e-04
   outer loop
     vertex  2.598076e-01  1.500000e-01  0.000000e+00
     vertex  2.340533e-01  1.876675e-01  4.574313e-01
     vertex  2.622783e-01  1.456369e-01  4.574313e-01
   endloop
 endfacet
 facet normal  9.063074e-01  4.226181e-01 -8.640558e-04
   outer loop
     vertex  2.598076e-01  1.500000e-01  0.000000e+00
     vertex  2.622783e-01  1.456369e-01  4.574313e-01
     vertex  2.819078e-01  1.026060e-01  0.000000e+00
   endloop
 endfacet
 facet normal  7.246099e-01  6.891585e-01  1.070876e-03
   outer loop
     vertex  2.298133e-01  1.928363e-01  0.000000e+00
     vertex  1.991624e-01  2.243532e-01  4.574313e-01
     vertex  2.340533e-01  1.876675e-01  4.574313e-01
   endloop
 endfacet
 facet normal  8.191515e-01  5.735761e-01 -1.111474e-03
   outer loop
     vertex  2.298133e-01  1.928363e-01  0.000000e+00
     vertex  2.340533e-01  1.876675e-01  4.574313e-01
     vertex  2.598076e-01  1.500000e-01  0.000000e+00
   endloop
 endfacet
 facet normal  7.071061e-01  7.071061e-01 -1.338579e-03
   outer loop
     vertex  1.928363e-01  2.298133e-01  0.000000e+00
     vertex  1.991624e-01  2.243532e-01  4.574313e-01
     vertex  2.298133e-01  1.928363e-01  0.000000e+00
   endloop
 endfacet
 facet normal  5.984030e-01  8.011942e-01  1.287822e-03
   outer loop
     vertex  1.928363e-01  2.298133e-01  0.000000e+00
     vertex  1.585993e-01  2.546493e-01  4.574313e-01
     vertex  1.991624e-01  2.243532e-01  4.574313e-01
   endloop
 endfacet
 facet normal  5.735758e-01  8.191511e-01 -1.545364e-03
   outer loop
     vertex  1.500000e-01  2.598076e-01  0.000000e+00
     vertex  1.585993e-01  2.546493e-01  4.574313e-01
     vertex  1.928363e-01  2.298133e-01  0.000000e+00
   endloop
 endfacet
 facet normal  4.551536e-01  8.904117e-01  1.484444e-03
   outer loop
     vertex  1.500000e-01  2.598076e-01  0.000000e+00
     vertex  1.135193e-01  2.776930e-01  4.574313e-01
     vertex  1.585993e-01  2.546493e-01  4.574313e-01
   endloop
 endfacet
 facet normal  1.334700e-01  9.910529e-01  1.672318e-15
   outer loop
     vertex  1.458511e-02  2.996452e-01  7.500000e-01
     vertex  6.520618e-02  2.928279e-01  7.500000e-01
     vertex  6.520618e-02  2.928279e-01  4.574313e-01
   endloop
 endfacet
 facet normal  4.226176e-01  9.063064e-01 -1.731822e-03
   outer loop
     vertex  1.026060e-01  2.819078e-01  0.000000e+00
     vertex  1.135193e-01  2.776930e-01  4.574313e-01
     vertex  1.500000e-01  2.598076e-01  0.000000e+00
   endloop
 endfacet
 facet normal  2.989415e-01  9.542700e-01  1.660737e-03
   outer loop
     vertex  1.026060e-01  2.819078e-01  0.000000e+00
     vertex  6.520618e-02  2.928279e-01  4.574313e-01
     vertex  1.135193e-01  2.776930e-01  4.574313e-01
   endloop
 endfacet
 facet normal  2.588186e-01  9.659241e-01 -1.897947e-03
   outer loop
     vertex  5.209445e-02  2.954423e-01  0.000000e+00
     vertex  6.520618e-02  2.928279e-01  4.574313e-01
     vertex  1.026060e-01  2.819078e-01  0.000000e+00
   endloop
 endfacet
 facet normal  1.225932e-01  9.924552e-01 -1.914612e-03
   outer loop
     vertex  1.836970e-17  3.000000e-01  0.000000e+00
     vertex  1.458511e-02  2.996452e-01  7.500000e-01
     vertex  6.520618e-02  2.928279e-01  4.574313e-01
   endloop
 endfacet
 facet normal  8.715530e-02  9.961896e-01  3.195562e-03
   outer loop
     vertex  1.836970e-17  3.000000e-01  0.000000e+00
     vertex  6.520618e-02  2.928279e-01  4.574313e-01
     vertex  5.209445e-02  2.954423e-01  0.000000e+00
   endloop
 endfacet
 facet normal -3.658890e-02  9.993297e-01  1.184223e-03
   outer loop
     vertex  1.836970e-17  3.000000e-01  0.000000e+00
     vertex -3.645877e-02  2.977764e-01  7.500000e-01
     vertex  1.458511e-02  2.996452e-01  7.500000e-01
   endloop
 endfacet
 facet normal -8.715567e-02  9.961939e-01 -1.283211e-03
   outer loop
     vertex -5.209445e-02  2.954423e-01  0.000000e+00
     vertex -3.645877e-02  2.977764e-01  7.500000e-01
     vertex  1.836970e-17  3.000000e-01  0.000000e+00
   endloop
 endfacet
 facet normal -2.055870e-01  9.786381e-01  1.240431e-03
   outer loop
     vertex -5.209445e-02  2.954423e-01  0.000000e+00
     vertex -8.644576e-02  2.872754e-01  7.500000e-01
     vertex -3.645877e-02  2.977764e-01  7.500000e-01
   endloop
 endfacet
 facet normal -2.588188e-01  9.659250e-01 -1.336114e-03
   outer loop
     vertex -1.026060e-01  2.819078e-01  0.000000e+00
     vertex -8.644576e-02  2.872754e-01  7.500000e-01
     vertex -5.209445e-02  2.954423e-01  0.000000e+00
   endloop
 endfacet
 facet normal -3.686255e-01  9.295771e-01  1.290029e-03
   outer loop
     vertex -1.026060e-01  2.819078e-01  0.000000e+00
     vertex -1.339268e-01  2.684467e-01  7.500000e-01
     vertex -8.644576e-02  2.872754e-01  7.500000e-01
   endloop
 endfacet
 facet normal -4.226179e-01  9.063069e-01 -1.382406e-03
   outer loop
     vertex -1.500000e-01  2.598076e-01  0.000000e+00
     vertex -1.339268e-01  2.684467e-01  7.500000e-01
     vertex -1.026060e-01  2.819078e-01  0.000000e+00
   endloop
 endfacet
 facet normal -5.209780e-01  8.535691e-01  1.333015e-03
   outer loop
     vertex -1.500000e-01  2.598076e-01  0.000000e+00
     vertex -1.775255e-01  2.418361e-01  7.500000e-01
     vertex -1.339268e-01  2.684467e-01  7.500000e-01
   endloop
 endfacet
 facet normal -5.735759e-01  8.191512e-01 -1.422086e-03
   outer loop
     vertex -1.928363e-01  2.298133e-01  0.000000e+00
     vertex -1.775255e-01  2.418361e-01  7.500000e-01
     vertex -1.500000e-01  2.598076e-01  0.000000e+00
   endloop
 endfacet
 facet normal -6.582281e-01  7.528173e-01  1.369389e-03
   outer loop
     vertex -1.928363e-01  2.298133e-01  0.000000e+00
     vertex -2.159780e-01  2.082150e-01  7.500000e-01
     vertex -1.775255e-01  2.418361e-01  7.500000e-01
   endloop
 endfacet
 facet normal -7.071060e-01  7.071060e-01 -1.455154e-03
   outer loop
     vertex -2.298133e-01  1.928363e-01  0.000000e+00
     vertex -2.159780e-01  2.082150e-01  7.500000e-01
     vertex -1.928363e-01  2.298133e-01  0.000000e+00
   endloop
 endfacet
 facet normal -7.763971e-01  6.302425e-01  1.399151e-03
   outer loop
     vertex -2.298133e-01  1.928363e-01  0.000000e+00
     vertex -2.481696e-01  1.685581e-01  7.500000e-01
     vertex -2.159780e-01  2.082150e-01  7.500000e-01
   endloop
 endfacet
 facet normal -8.191511e-01  5.735758e-01 -1.481609e-03
   outer loop
     vertex -2.598076e-01  1.500000e-01  0.000000e+00
     vertex -2.481696e-01  1.685581e-01  7.500000e-01
     vertex -2.298133e-01  1.928363e-01  0.000000e+00
   endloop
 endfacet
 facet normal -8.720594e-01  4.893979e-01  1.422299e-03
   outer loop
     vertex -2.598076e-01  1.500000e-01  0.000000e+00
     vertex -2.731671e-01  1.240150e-01  7.500000e-01
     vertex -2.481696e-01  1.685581e-01  7.500000e-01
   endloop
 endfacet
 facet normal -9.063068e-01  4.226178e-01 -1.501450e-03
   outer loop
     vertex -2.819078e-01  1.026060e-01  0.000000e+00
     vertex -2.731671e-01  1.240150e-01  7.500000e-01
     vertex -2.598076e-01  1.500000e-01  0.000000e+00
   endloop
 endfacet
 facet normal -9.424421e-01  3.343663e-01  1.438834e-03
   outer loop
     vertex -2.819078e-01  1.026060e-01  0.000000e+00
     vertex -2.902460e-01  7.587678e-02  7.500000e-01
     vertex -2.731671e-01  1.240150e-01  7.500000e-01
   endloop
 endfacet
 facet normal -9.659247e-01  2.588187e-01 -1.514678e-03
   outer loop
     vertex -2.954423e-01  5.209445e-02  0.000000e+00
     vertex -2.902460e-01  7.587678e-02  7.500000e-01
     vertex -2.819078e-01  1.026060e-01  0.000000e+00
   endloop
 endfacet
 facet normal -9.855047e-01  1.696420e-01  1.448755e-03
   outer loop
     vertex -2.954423e-01  5.209445e-02  0.000000e+00
     vertex -2.989110e-01  2.553904e-02  7.500000e-01
     vertex -2.902460e-01  7.587678e-02  7.500000e-01
   endloop
 endfacet
 facet normal -9.999989e-01  0.000000e+00  1.452062e-03
   outer loop
     vertex -3.000000e-01  4.364197e-16  0.000000e+00
     vertex -2.989110e-01 -2.553904e-02  7.500000e-01
     vertex -2.989110e-01  2.553904e-02  7.500000e-01
   endloop
 endfacet
 facet normal -9.961935e-01  8.715564e-02 -1.521292e-03
   outer loop
     vertex -3.000000e-01  4.364197e-16  0.000000e+00
     vertex -2.989110e-01  2.553904e-02  7.500000e-01
     vertex -2.954423e-01  5.209445e-02  0.000000e+00
   endloop
 endfacet
 facet normal -9.855047e-01 -1.696420e-01  1.448755e-03
   outer loop
     vertex -2.954423e-01 -5.209445e-02  0.000000e+00
     vertex -2.902460e-01 -7.587678e-02  7.500000e-01
     vertex -2.989110e-01 -2.553904e-02  7.500000e-01
   endloop
 endfacet
 facet normal -9.961935e-01 -8.715564e-02 -1.521292e-03
   outer loop
     vertex -2.954423e-01 -5.209445e-02  0.000000e+00
     vertex -2.989110e-01 -2.553904e-02  7.500000e-01
     vertex -3.000000e-01  4.364197e-16  0.000000e+00
   endloop
 endfacet
 facet normal -9.659247e-01 -2.588187e-01 -1.514678e-03
   outer loop
     vertex -2.819078e-01 -1.026060e-01  0.000000e+00
     vertex -2.902460e-01 -7.587678e-02  7.500000e-01
     vertex -2.954423e-01 -5.209445e-02  0.000000e+00
   endloop
 endfacet
 facet normal -9.424421e-01 -3.343663e-01  1.438834e-03
   outer loop
     vertex -2.819078e-01 -1.026060e-01  0.000000e+00
     vertex -2.731671e-01 -1.240150e-01  7.500000e-01
     vertex -2.902460e-01 -7.587678e-02  7.500000e-01
   endloop
 endfacet
 facet normal -8.720594e-01 -4.893979e-01  1.422299e-03
   outer loop
     vertex -2.598076e-01 -1.500000e-01  0.000000e+00
     vertex -2.481696e-01 -1.685581e-01  7.500000e-01
     vertex -2.731671e-01 -1.240150e-01  7.500000e-01
   endloop
 endfacet
 facet normal -9.063068e-01 -4.226178e-01 -1.501450e-03
   outer loop
     vertex -2.598076e-01 -1.500000e-01  0.000000e+00
     vertex -2.731671e-01 -1.240150e-01  7.500000e-01
     vertex -2.819078e-01 -1.026060e-01  0.000000e+00
   endloop
 endfacet
 facet normal -7.763971e-01 -6.302425e-01  1.399151e-03
   outer loop
     vertex -2.298133e-01 -1.928363e-01  0.000000e+00
     vertex -2.159780e-01 -2.082150e-01  7.500000e-01
     vertex -2.481696e-01 -1.685581e-01  7.500000e-01
   endloop
 endfacet
 facet normal -8.191511e-01 -5.735758e-01 -1.481609e-03
   outer loop
     vertex -2.298133e-01 -1.928363e-01  0.000000e+00
     vertex -2.481696e-01 -1.685581e-01  7.500000e-01
     vertex -2.598076e-01 -1.500000e-01  0.000000e+00
   endloop
 endfacet
 facet normal -6.582281e-01 -7.528173e-01  1.369389e-03
   outer loop
     vertex -1.928363e-01 -2.298133e-01  0.000000e+00
     vertex -1.775255e-01 -2.418361e-01  7.500000e-01
     vertex -2.159780e-01 -2.082150e-01  7.500000e-01
   endloop
 endfacet
 facet normal -7.071060e-01 -7.071060e-01 -1.455154e-03
   outer loop
     vertex -1.928363e-01 -2.298133e-01  0.000000e+00
     vertex -2.159780e-01 -2.082150e-01  7.500000e-01
     vertex -2.298133e-01 -1.928363e-01  0.000000e+00
   endloop
 endfacet
 facet normal -5.209780e-01 -8.535691e-01  1.333015e-03
   outer loop
     vertex -1.500000e-01 -2.598076e-01  0.000000e+00
     vertex -1.339268e-01 -2.684467e-01  7.500000e-01
     vertex -1.775255e-01 -2.418361e-01  7.500000e-01
   endloop
 endfacet
 facet normal -5.735759e-01 -8.191512e-01 -1.422086e-03
   outer loop
     vertex -1.500000e-01 -2.598076e-01  0.000000e+00
     vertex -1.775255e-01 -2.418361e-01  7.500000e-01
     vertex -1.928363e-01 -2.298133e-01  0.000000e+00
   endloop
 endfacet
 facet normal -3.686255e-01 -9.295771e-01  1.290029e-03
   outer loop
     vertex -1.026060e-01 -2.819078e-01  0.000000e+00
     vertex -8.644576e-02 -2.872754e-01  7.500000e-01
     vertex -1.339268e-01 -2.684467e-01  7.500000e-01
   endloop
 endfacet
 facet normal -4.226179e-01 -9.063069e-01 -1.382406e-03
   outer loop
     vertex -1.026060e-01 -2.819078e-01  0.000000e+00
     vertex -1.339268e-01 -2.684467e-01  7.500000e-01
     vertex -1.500000e-01 -2.598076e-01  0.000000e+00
   endloop
 endfacet
 facet normal -2.055870e-01 -9.786381e-01  1.240431e-03
   outer loop
     vertex -5.209445e-02 -2.954423e-01  0.000000e+00
     vertex -3.645877e-02 -2.977764e-01  7.500000e-01
     vertex -8.644576e-02 -2.872754e-01  7.500000e-01
   endloop
 endfacet
 facet normal -2.588188e-01 -9.659250e-01 -1.336114e-03
   outer loop
     vertex -5.209445e-02 -2.954423e-01  0.000000e+00
     vertex -8.644576e-02 -2.872754e-01  7.500000e-01
     vertex -1.026060e-01 -2.819078e-01  0.000000e+00
   endloop
 endfacet
 facet normal -3.658890e-02 -9.993297e-01  1.184223e-03
   outer loop
     vertex -8.544697e-16 -3.000000e-01  0.000000e+00
     vertex  1.458511e-02 -2.996452e-01  7.500000e-01
     vertex -3.645877e-02 -2.977764e-01  7.500000e-01
   endloop
 endfacet
 facet normal -8.715567e-02 -9.961939e-01 -1.283211e-03
   outer loop
     vertex -8.544697e-16 -3.000000e-01  0.000000e+00
     vertex -3.645877e-02 -2.977764e-01  7.500000e-01
     vertex -5.209445e-02 -2.954423e-01  0.000000e+00
   endloop
 endfacet
 facet normal  1.334700e-01 -9.910529e-01  1.872827e-15
   outer loop
     vertex  6.520618e-02 -2.928279e-01  4.574313e-01
     vertex  6.520618e-02 -2.928279e-01  7.500000e-01
     vertex  1.458511e-02 -2.996452e-01  7.500000e-01
   endloop
 endfacet
 facet normal  1.225932e-01 -9.924552e-01 -1.914612e-03
   outer loop
     vertex  6.520618e-02 -2.928279e-01  4.574313e-01
     vertex  1.458511e-02 -2.996452e-01  7.500000e-01
     vertex -8.544697e-16 -3.000000e-01  0.000000e+00
   endloop
 endfacet
 facet normal  8.715530e-02 -9.961896e-01  3.195562e-03
   outer loop
     vertex  5.209445e-02 -2.954423e-01  0.000000e+00
     vertex  6.520618e-02 -2.928279e-01  4.574313e-01
     vertex -8.544697e-16 -3.000000e-01  0.000000e+00
   endloop
 endfacet
 facet normal  2.588186e-01 -9.659241e-01 -1.897947e-03
   outer loop
     vertex  1.026060e-01 -2.819078e-01  0.000000e+00
     vertex  6.520618e-02 -2.928279e-01  4.574313e-01
     vertex  5.209445e-02 -2.954423e-01  0.000000e+00
   endloop
 endfacet
 facet normal  2.989415e-01 -9.542700e-01  1.660737e-03
   outer loop
     vertex  1.026060e-01 -2.819078e-01  0.000000e+00
     vertex  1.135193e-01 -2.776930e-01  4.574313e-01
     vertex  6.520618e-02 -2.928279e-01  4.574313e-01
   endloop
 endfacet
 facet normal  4.226176e-01 -9.063064e-01 -1.731822e-03
   outer loop
     vertex  1.500000e-01 -2.598076e-01  0.000000e+00
     vertex  1.135193e-01 -2.776930e-01  4.574313e-01
     vertex  1.026060e-01 -2.819078e-01  0.000000e+00
   endloop
 endfacet
 facet normal  4.551536e-01 -8.904117e-01  1.484444e-03
   outer loop
     vertex  1.500000e-01 -2.598076e-01  0.000000e+00
     vertex  1.585993e-01 -2.546493e-01  4.574313e-01
     vertex  1.135193e-01 -2.776930e-01  4.574313e-01
   endloop
 endfacet
 facet normal  5.735758e-01 -8.191511e-01 -1.545364e-03
   outer loop
     vertex  1.928363e-01 -2.298133e-01  0.000000e+00
     vertex  1.585993e-01 -2.546493e-01  4.574313e-01
     vertex  1.500000e-01 -2.598076e-01  0.000000e+00
   endloop
 endfacet
 facet normal  5.984030e-01 -8.011942e-01  1.287822e-03
   outer loop
     vertex  1.928363e-01 -2.298133e-01  0.000000e+00
     vertex  1.991624e-01 -2.243532e-01  4.574313e-01
     vertex  1.585993e-01 -2.546493e-01  4.574313e-01
   endloop
 endfacet
 facet normal  7.071061e-01 -7.071061e-01 -1.338579e-03
   outer loop
     vertex  2.298133e-01 -1.928363e-01  0.000000e+00
     vertex  1.991624e-01 -2.243532e-01  4.574313e-01
     vertex  1.928363e-01 -2.298133e-01  0.000000e+00
   endloop
 endfacet
 facet normal  7.246099e-01 -6.891585e-01  1.070876e-03
   outer loop
     vertex  2.298133e-01 -1.928363e-01  0.000000e+00
     vertex  2.340533e-01 -1.876675e-01  4.574313e-01
     vertex  1.991624e-01 -2.243532e-01  4.574313e-01
   endloop
 endfacet
 facet normal  8.191515e-01 -5.735761e-01 -1.111474e-03
   outer loop
     vertex  2.598076e-01 -1.500000e-01  0.000000e+00
     vertex  2.340533e-01 -1.876675e-01  4.574313e-01
     vertex  2.298133e-01 -1.928363e-01  0.000000e+00
   endloop
 endfacet
 facet normal  8.301797e-01 -5.574953e-01  8.336135e-04
   outer loop
     vertex  2.598076e-01 -1.500000e-01  0.000000e+00
     vertex  2.622783e-01 -1.456369e-01  4.574313e-01
     vertex  2.340533e-01 -1.876675e-01  4.574313e-01
   endloop
 endfacet
 facet normal  9.063074e-01 -4.226181e-01 -8.640558e-04
   outer loop
     vertex  2.819078e-01 -1.026060e-01  0.000000e+00
     vertex  2.622783e-01 -1.456369e-01  4.574313e-01
     vertex  2.598076e-01 -1.500000e-01  0.000000e+00
   endloop
 endfacet
 facet normal  9.121058e-01 -4.099545e-01  5.760410e-04
   outer loop
     vertex  2.819078e-01 -1.026060e-01  0.000000e+00
     vertex  2.830335e-01 -9.945859e-02  4.574313e-01
     vertex  2.622783e-01 -1.456369e-01  4.574313e-01
   endloop
 endfacet
 facet normal  9.659257e-01 -2.588190e-01 -5.963316e-04
   outer loop
     vertex  2.954423e-01 -5.209445e-02  0.000000e+00
     vertex  2.830335e-01 -9.945859e-02  4.574313e-01
     vertex  2.819078e-01 -1.026060e-01  0.000000e+00
   endloop
 endfacet
 facet normal  9.680549e-01 -2.507380e-01  2.981670e-04
   outer loop
     vertex  2.954423e-01 -5.209445e-02  0.000000e+00
     vertex  2.957280e-01 -5.044768e-02  4.574313e-01
     vertex  2.830335e-01 -9.945859e-02  4.574313e-01
   endloop
 endfacet
 facet normal  9.961947e-01 -8.715574e-02 -3.083100e-04
   outer loop
     vertex  3.000000e-01  0.000000e+00  0.000000e+00
     vertex  2.957280e-01 -5.044768e-02  4.574313e-01
     vertex  2.954423e-01 -5.209445e-02  0.000000e+00
   endloop
 endfacet
 facet normal  9.964336e-01 -8.438039e-02 -6.838116e-17
   outer loop
     vertex  3.000000e-01  0.000000e+00  0.000000e+00
     vertex  3.000000e-01  2.848232e-16  4.574313e-01
     vertex  2.957280e-01 -5.044768e-02  4.574313e-01
   endloop
 endfacet
 facet normal  9.961947e-01  8.715574e-02  0.000000e+00
   outer loop
     vertex  2.954423e-01  5.209445e-02  0.000000e+00
     vertex  3.000000e-01  0.000000e+00  0.000000e+00
     vertex  3.000000e-01  0.000000e+00 -7.500000e-01
   endloop
 endfacet
 facet normal  9.961947e-01  8.715574e-02  0.000000e+00
   outer loop
     vertex  2.954423e-01  5.209445e-02  0.000000e+00
     vertex  3.000000e-01  0.000000e+00 -7.500000e-01
     vertex  2.954423e-01  5.209445e-02 -7.500000e-01
   endloop
 endfacet
 facet normal  9.659258e-01  2.588190e-01  0.000000e+00
   outer loop
     vertex  2.819078e-01  1.026060e-01  0.000000e+00
     vertex  2.954423e-01  5.209445e-02 -7.500000e-01
     vertex  2.819078e-01  1.026060e-01 -7.500000e-01
   endloop
 endfacet
 facet normal  9.659258e-01  2.588190e-01  0.000000e+00
   outer loop
     vertex  2.819078e-01  1.026060e-01  0.000000e+00
     vertex  2.954423e-01  5.209445e-02  0.000000e+00
     vertex  2.954423e-01  5.209445e-02 -7.500000e-01
   endloop
 endfacet
 facet normal  9.063078e-01  4.226183e-01  0.000000e+00
   outer loop
     vertex  2.598076e-01  1.500000e-01  0.000000e+00
     vertex  2.819078e-01  1.026060e-01 -7.500000e-01
     vertex  2.598076e-01  1.500000e-01 -7.500000e-01
   endloop
 endfacet
 facet normal  9.063078e-01  4.226183e-01  0.000000e+00
   outer loop
     vertex  2.598076e-01  1.500000e-01  0.000000e+00
     vertex  2.819078e-01  1.026060e-01  0.000000e+00
     vertex  2.819078e-01  1.026060e-01 -7.500000e-01
   endloop
 endfacet
 facet normal  8.191520e-01  5.735764e-01  0.000000e+00
   outer loop
     vertex  2.298133e-01  1.928363e-01  0.000000e+00
     vertex  2.598076e-01  1.500000e-01 -7.500000e-01
     vertex  2.298133e-01  1.928363e-01 -7.500000e-01
   endloop
 endfacet
 facet normal  8.191520e-01  5.735764e-01  0.000000e+00
   outer loop
     vertex  2.298133e-01  1.928363e-01  0.000000e+00
     vertex  2.598076e-01  1.500000e-01  0.000000e+00
     vertex  2.598076e-01  1.500000e-01 -7.500000e-01
   endloop
 endfacet
 facet normal  7.071068e-01  7.071068e-01  0.000000e+00
   outer loop
     vertex  1.928363e-01  2.298133e-01  0.000000e+00
     vertex  2.298133e-01  1.928363e-01 -7.500000e-01
     vertex  1.928363e-01  2.298133e-01 -7.500000e-01
   endloop
 endfacet
 facet normal  7.071068e-01  7.071068e-01  0.000000e+00
   outer loop
     vertex  1.928363e-01  2.298133e-01  0.000000e+00
     vertex  2.298133e-01  1.928363e-01  0.000000e+00
     vertex  2.298133e-01  1.928363e-01 -7.500000e-01
   endloop
 endfacet
 facet normal  5.735764e-01  8.191520e-01  0.000000e+00
   outer loop
     vertex  1.500000e-01  2.598076e-01  0.000000e+00
     vertex  1.928363e-01  2.298133e-01  0.000000e+00
     vertex  1.928363e-01  2.298133e-01 -7.500000e-01
   endloop
 endfacet
 facet normal  5.735764e-01  8.191520e-01  0.000000e+00
   outer loop
     vertex  1.500000e-01  2.598076e-01  0.000000e+00
     vertex  1.928363e-01  2.298133e-01 -7.500000e-01
     vertex  1.500000e-01  2.598076e-01 -7.500000e-01
   endloop
 endfacet
 facet normal  4.226183e-01  9.063078e-01  0.000000e+00
   outer loop
     vertex  1.026060e-01  2.819078e-01  0.000000e+00
     vertex  1.500000e-01  2.598076e-01  0.000000e+00
     vertex  1.500000e-01  2.598076e-01 -7.500000e-01
   endloop
 endfacet
 facet normal  4.226183e-01  9.063078e-01  0.000000e+00
   outer loop
     vertex  1.026060e-01  2.819078e-01  0.000000e+00
     vertex  1.500000e-01  2.598076e-01 -7.500000e-01
     vertex  1.026060e-01  2.819078e-01 -7.500000e-01
   endloop
 endfacet
 facet normal  2.588190e-01  9.659258e-01  0.000000e+00
   outer loop
     vertex  5.209445e-02  2.954423e-01  0.000000e+00
     vertex  1.026060e-01  2.819078e-01  0.000000e+00
     vertex  1.026060e-01  2.819078e-01 -7.500000e-01
   endloop
 endfacet
 facet normal  2.588190e-01  9.659258e-01  0.000000e+00
   outer loop
     vertex  5.209445e-02  2.954423e-01  0.000000e+00
     vertex  1.026060e-01  2.819078e-01 -7.500000e-01
     vertex  5.209445e-02  2.954423e-01 -7.500000e-01
   endloop
 endfacet
 facet normal  8.715574e-02  9.961947e-01  0.000000e+00
   outer loop
     vertex  1.836970e-17  3.000000e-01  0.000000e+00
     vertex  5.209445e-02  2.954423e-01 -7.500000e-01
     vertex  1.836970e-17  3.000000e-01 -7.500000e-01
   endloop
 endfacet
 facet normal  8.715574e-02  9.961947e-01  0.000000e+00
   outer loop
     vertex  1.836970e-17  3.000000e-01  0.000000e+00
     vertex  5.209445e-02  2.954423e-01  0.000000e+00
     vertex  5.209445e-02  2.954423e-01 -7.500000e-01
   endloop
 endfacet
 facet normal -8.715574e-02  9.961947e-01  0.000000e+00
   outer loop
     vertex -5.209445e-02  2.954423e-01  0.000000e+00
     vertex  1.836970e-17  3.000000e-01 -7.500000e-01
     vertex -5.209445e-02  2.954423e-01 -7.500000e-01
   endloop
 endfacet
 facet normal -8.715574e-02  9.961947e-01  0.000000e+00
   outer loop
     vertex -5.209445e-02  2.954423e-01  0.000000e+00
     vertex  1.836970e-17  3.000000e-01  0.000000e+00
     vertex  1.836970e-17  3.000000e-01 -7.500000e-01
   endloop
 endfacet
 facet normal -2.588190e-01  9.659258e-01  0.000000e+00
   outer loop
     vertex -1.026060e-01  2.819078e-01  0.000000e+00
     vertex -5.209445e-02  2.954423e-01 -7.500000e-01
     vertex -1.026060e-01  2.819078e-01 -7.500000e-01
   endloop
 endfacet
 facet normal -2.588190e-01  9.659258e-01  0.000000e+00
   outer loop
     vertex -1.026060e-01  2.819078e-01  0.000000e+00
     vertex -5.209445e-02  2.954423e-01  0.000000e+00
     vertex -5.209445e-02  2.954423e-01 -7.500000e-01
   endloop
 endfacet
 facet normal -4.226183e-01  9.063078e-01  0.000000e+00
   outer loop
     vertex -1.500000e-01  2.598076e-01  0.000000e+00
     vertex -1.026060e-01  2.819078e-01 -7.500000e-01
     vertex -1.500000e-01  2.598076e-01 -7.500000e-01
   endloop
 endfacet
 facet normal -4.226183e-01  9.063078e-01  0.000000e+00
   outer loop
     vertex -1.500000e-01  2.598076e-01  0.000000e+00
     vertex -1.026060e-01  2.819078e-01  0.000000e+00
     vertex -1.026060e-01  2.819078e-01 -7.500000e-01
   endloop
 endfacet
 facet normal -5.735764e-01  8.191520e-01  0.000000e+00
   outer loop
     vertex -1.928363e-01  2.298133e-01  0.000000e+00
     vertex -1.500000e-01  2.598076e-01 -7.500000e-01
     vertex -1.928363e-01  2.298133e-01 -7.500000e-01
   endloop
 endfacet
 facet normal -5.735764e-01  8.191520e-01  0.000000e+00
   outer loop
     vertex -1.928363e-01  2.298133e-01  0.000000e+00
     vertex -1.500000e-01  2.598076e-01  0.000000e+00
     vertex -1.500000e-01  2.598076e-01 -7.500000e-01
   endloop
 endfacet
 facet normal -7.071068e-01  7.071068e-01  0.000000e+00
   outer loop
     vertex -2.298133e-01  1.928363e-01  0.000000e+00
     vertex -1.928363e-01  2.298133e-01 -7.500000e-01
     vertex -2.298133e-01  1.928363e-01 -7.500000e-01
   endloop
 endfacet
 facet normal -7.071068e-01  7.071068e-01  0.000000e+00
   outer loop
     vertex -2.298133e-01  1.928363e-01  0.000000e+00
     vertex -1.928363e-01  2.298133e-01  0.000000e+00
     vertex -1.928363e-01  2.298133e-01 -7.500000e-01
   endloop
 endfacet
 facet normal -8.191520e-01  5.735764e-01  0.000000e+00
   outer loop
     vertex -2.598076e-01  1.500000e-01  0.000000e+00
     vertex -2.298133e-01  1.928363e-01 -7.500000e-01
     vertex -2.598076e-01  1.500000e-01 -7.500000e-01
   endloop
 endfacet
 facet normal -8.191520e-01  5.735764e-01  0.000000e+00
   outer loop
     vertex -2.598076e-01  1.500000e-01  0.000000e+00
     vertex -2.298133e-01  1.928363e-01  0.000000e+00
     vertex -2.298133e-01  1.928363e-01 -7.500000e-01
   endloop
 endfacet
 facet normal -9.063078e-01  4.226183e-01  0.000000e+00
   outer loop
     vertex -2.819078e-01  1.026060e-01  0.000000e+00
     vertex -2.598076e-01  1.500000e-01 -7.500000e-01
     vertex -2.819078e-01  1.026060e-01 -7.500000e-01
   endloop
 endfacet
 facet normal -9.659258e-01  2.588190e-01  0.000000e+00
   outer loop
     vertex -2.819078e-01  1.026060e-01  0.000000e+00
     vertex -2.819078e-01  1.026060e-01 -7.500000e-01
     vertex -2.954423e-01  5.209445e-02 -7.500000e-01
   endloop
 endfacet
 facet normal -9.063078e-01  4.226183e-01  0.000000e+00
   outer loop
     vertex -2.819078e-01  1.026060e-01  0.000000e+00
     vertex -2.598076e-01  1.500000e-01  0.000000e+00
     vertex -2.598076e-01  1.500000e-01 -7.500000e-01
   endloop
 endfacet
 facet normal -9.659258e-01  2.588190e-01  0.000000e+00
   outer loop
     vertex -2.954423e-01  5.209445e-02  0.000000e+00
     vertex -2.819078e-01  1.026060e-01  0.000000e+00
     vertex -2.954423e-01  5.209445e-02 -7.500000e-01
   endloop
 endfacet
 facet normal -9.961947e-01  8.715574e-02  0.000000e+00
   outer loop
     vertex -3.000000e-01  4.364197e-16  0.000000e+00
     vertex -2.954423e-01  5.209445e-02 -7.500000e-01
     vertex -3.000000e-01  4.364197e-16 -7.500000e-01
   endloop
 endfacet
 facet normal -9.961947e-01  8.715574e-02  0.000000e+00
   outer loop
     vertex -3.000000e-01  4.364197e-16  0.000000e+00
     vertex -2.954423e-01  5.209445e-02  0.000000e+00
     vertex -2.954423e-01  5.209445e-02 -7.500000e-01
   endloop
 endfacet
 facet normal -9.961947e-01 -8.715574e-02 -0.000000e+00
   outer loop
     vertex -2.954423e-01 -5.209445e-02  0.000000e+00
     vertex -3.000000e-01  4.364197e-16 -7.500000e-01
     vertex -2.954423e-01 -5.209445e-02 -7.500000e-01
   endloop
 endfacet
 facet normal -9.961947e-01 -8.715574e-02  0.000000e+00
   outer loop
     vertex -2.954423e-01 -5.209445e-02  0.000000e+00
     vertex -3.000000e-01  4.364197e-16  0.000000e+00
     vertex -3.000000e-01  4.364197e-16 -7.500000e-01
   endloop
 endfacet
 facet normal -9.659258e-01 -2.588190e-01 -0.000000e+00
   outer loop
     vertex -2.819078e-01 -1.026060e-01  0.000000e+00
     vertex -2.954423e-01 -5.209445e-02 -7.500000e-01
     vertex -2.819078e-01 -1.026060e-01 -7.500000e-01
   endloop
 endfacet
 facet normal -9.659258e-01 -2.588190e-01  0.000000e+00
   outer loop
     vertex -2.819078e-01 -1.026060e-01  0.000000e+00
     vertex -2.954423e-01 -5.209445e-02  0.000000e+00
     vertex -2.954423e-01 -5.209445e-02 -7.500000e-01
   endloop
 endfacet
 facet normal -9.063078e-01 -4.226183e-01 -0.000000e+00
   outer loop
     vertex -2.598076e-01 -1.500000e-01  0.000000e+00
     vertex -2.819078e-01 -1.026060e-01 -7.500000e-01
     vertex -2.598076e-01 -1.500000e-01 -7.500000e-01
   endloop
 endfacet
 facet normal -9.063078e-01 -4.226183e-01  0.000000e+00
   outer loop
     vertex -2.598076e-01 -1.500000e-01  0.000000e+00
     vertex -2.819078e-01 -1.026060e-01  0.000000e+00
     vertex -2.819078e-01 -1.026060e-01 -7.500000e-01
   endloop
 endfacet
 facet normal -8.191520e-01 -5.735764e-01 -0.000000e+00
   outer loop
     vertex -2.298133e-01 -1.928363e-01  0.000000e+00
     vertex -2.598076e-01 -1.500000e-01 -7.500000e-01
     vertex -2.298133e-01 -1.928363e-01 -7.500000e-01
   endloop
 endfacet
 facet normal -8.191520e-01 -5.735764e-01  0.000000e+00
   outer loop
     vertex -2.298133e-01 -1.928363e-01  0.000000e+00
     vertex -2.598076e-01 -1.500000e-01  0.000000e+00
     vertex -2.598076e-01 -1.500000e-01 -7.500000e-01
   endloop
 endfacet
 facet normal -7.071068e-01 -7.071068e-01 -0.000000e+00
   outer loop
     vertex -1.928363e-01 -2.298133e-01  0.000000e+00
     vertex -2.298133e-01 -1.928363e-01 -7.500000e-01
     vertex -1.928363e-01 -2.298133e-01 -7.500000e-01
   endloop
 endfacet
 facet normal -7.071068e-01 -7.071068e-01  0.000000e+00
   outer loop
     vertex -1.928363e-01 -2.298133e-01  0.000000e+00
     vertex -2.298133e-01 -1.928363e-01  0.000000e+00
     vertex -2.298133e-01 -1.928363e-01 -7.500000e-01
   endloop
 endfacet
 facet normal -5.735764e-01 -8.191520e-01 -0.000000e+00
   outer loop
     vertex -1.500000e-01 -2.598076e-01  0.000000e+00
     vertex -1.928363e-01 -2.298133e-01 -7.500000e-01
     vertex -1.500000e-01 -2.598076e-01 -7.500000e-01
   endloop
 endfacet
 facet normal -5.735764e-01 -8.191520e-01  0.000000e+00
   outer loop
     vertex -1.500000e-01 -2.598076e-01  0.000000e+00
     vertex -1.928363e-01 -2.298133e-01  0.000000e+00
     vertex -1.928363e-01 -2.298133e-01 -7.500000e-01
   endloop
 endfacet
 facet normal -4.226183e-01 -9.063078e-01 -0.000000e+00
   outer loop
     vertex -1.026060e-01 -2.819078e-01  0.000000e+00
     vertex -1.500000e-01 -2.598076e-01 -7.500000e-01
     vertex -1.026060e-01 -2.819078e-01 -7.500000e-01
   endloop
 endfacet
 facet normal -4.226183e-01 -9.063078e-01  0.000000e+00
   outer loop
     vertex -1.026060e-01 -2.819078e-01  0.000000e+00
     vertex -1.500000e-01 -2.598076e-01  0.000000e+00
     vertex -1.500000e-01 -2.598076e-01 -7.500000e-01
   endloop
 endfacet
 facet normal -2.588190e-01 -9.659258e-01 -0.000000e+00
   outer loop
     vertex -5.209445e-02 -2.954423e-01  0.000000e+00
     vertex -1.026060e-01 -2.819078e-01 -7.500000e-01
     vertex -5.209445e-02 -2.954423e-01 -7.500000e-01
   endloop
 endfacet
 facet normal -2.588190e-01 -9.659258e-01  0.000000e+00
   outer loop
     vertex -5.209445e-02 -2.954423e-01  0.000000e+00
     vertex -1.026060e-01 -2.819078e-01  0.000000e+00
     vertex -1.026060e-01 -2.819078e-01 -7.500000e-01
   endloop
 endfacet
 facet normal -8.715574e-02 -9.961947e-01 -0.000000e+00
   outer loop
     vertex -8.544697e-16 -3.000000e-01  0.000000e+00
     vertex -5.209445e-02 -2.954423e-01 -7.500000e-01
     vertex -8.544697e-16 -3.000000e-01 -7.500000e-01
   endloop
 endfacet
 facet normal -8.715574e-02 -9.961947e-01  0.000000e+00
   outer loop
     vertex -8.544697e-16 -3.000000e-01  0.000000e+00
     vertex -5.209445e-02 -2.954423e-01  0.000000e+00
     vertex -5.209445e-02 -2.954423e-01 -7.500000e-01
   endloop
 endfacet
 facet normal  8.715574e-02 -9.961947e-01  0.000000e+00
   outer loop
     vertex  5.209445e-02 -2.954423e-01  0.000000e+00
     vertex -8.544697e-16 -3.000000e-01 -7.500000e-01
     vertex  5.209445e-02 -2.954423e-01 -7.500000e-01
   endloop
 endfacet
 facet normal  8.715574e-02 -9.961947e-01  0.000000e+00
   outer loop
     vertex  5.209445e-02 -2.954423e-01  0.000000e+00
     vertex -8.544697e-16 -3.000000e-01  0.000000e+00
     vertex -8.544697e-16 -3.000000e-01 -7.500000e-01
   endloop
 endfacet
 facet normal  2.588190e-01 -9.659258e-01  0.000000e+00
   outer loop
     vertex  1.026060e-01 -2.819078e-01  0.000000e+00
     vertex  5.209445e-02 -2.954423e-01 -7.500000e-01
     vertex  1.026060e-01 -2.819078e-01 -7.500000e-01
   endloop
 endfacet
 facet normal  2.588190e-01 -9.659258e-01  0.000000e+00
   outer loop
     vertex  1.026060e-01 -2.819078e-01  0.000000e+00
     vertex  5.209445e-02 -2.954423e-01  0.000000e+00
     vertex  5.209445e-02 -2.954423e-01 -7.500000e-01
   endloop
 endfacet
 facet normal  4.226183e-01 -9.063078e-01  0.000000e+00
   outer loop
     vertex  1.500000e-01 -2.598076e-01  0.000000e+00
     vertex  1.026060e-01 -2.819078e-01 -7.500000e-01
     vertex  1.500000e-01 -2.598076e-01 -7.500000e-01
   endloop
 endfacet
 facet normal  4.226183e-01 -9.063078e-01  0.000000e+00
   outer loop
     vertex  1.500000e-01 -2.598076e-01  0.000000e+00
     vertex  1.026060e-01 -2.819078e-01  0.000000e+00
     vertex  1.026060e-01 -2.819078e-01 -7.500000e-01
   endloop
 endfacet
 facet normal  5.735764e-01 -8.191520e-01  0.000000e+00
   outer loop
     vertex  1.928363e-01 -2.298133e-01  0.000000e+00
     vertex  1.500000e-01 -2.598076e-01  0.000000e+00
     vertex  1.500000e-01 -2.598076e-01 -7.500000e-01
   endloop
 endfacet
 facet normal  5.735764e-01 -8.191520e-01  0.000000e+00
   outer loop
     vertex  1.928363e-01 -2.298133e-01  0.000000e+00
     vertex  1.500000e-01 -2.598076e-01 -7.500000e-01
     vertex  1.928363e-01 -2.298133e-01 -7.500000e-01
   endloop
 endfacet
 facet normal  7.071068e-01 -7.071068e-01  0.000000e+00
   outer loop
     vertex  2.298133e-01 -1.928363e-01  0.000000e+00
     vertex  1.928363e-01 -2.298133e-01  0.000000e+00
     vertex  1.928363e-01 -2.298133e-01 -7.500000e-01
   endloop
 endfacet
 facet normal  7.071068e-01 -7.071068e-01  0.000000e+00
   outer loop
     vertex  2.298133e-01 -1.928363e-01  0.000000e+00
     vertex  1.928363e-01 -2.298133e-01 -7.500000e-01
     vertex  2.298133e-01 -1.928363e-01 -7.500000e-01
   endloop
 endfacet
 facet normal  8.191520e-01 -5.735764e-01  0.000000e+00
   outer loop
     vertex  2.598076e-01 -1.500000e-01  0.000000e+00
     vertex  2.298133e-01 -1.928363e-01  0.000000e+00
     vertex  2.298133e-01 -1.928363e-01 -7.500000e-01
   endloop
 endfacet
 facet normal  8.191520e-01 -5.735764e-01  0.000000e+00
   outer loop
     vertex  2.598076e-01 -1.500000e-01  0.000000e+00
     vertex  2.298133e-01 -1.928363e-01 -7.500000e-01
     vertex  2.598076e-01 -1.500000e-01 -7.500000e-01
   endloop
 endfacet
 facet normal  9.063078e-01 -4.226183e-01  0.000000e+00
   outer loop
     vertex  2.819078e-01 -1.026060e-01  0.000000e+00
     vertex  2.598076e-01 -1.500000e-01  0.000000e+00
     vertex  2.598076e-01 -1.500000e-01 -7.500000e-01
   endloop
 endfacet
 facet normal  9.063078e-01 -4.226183e-01  0.000000e+00
   outer loop
     vertex  2.819078e-01 -1.026060e-01  0.000000e+00
     vertex  2.598076e-01 -1.500000e-01 -7.500000e-01
     vertex  2.819078e-01 -1.026060e-01 -7.500000e-01
   endloop
 endfacet
 facet normal  9.659258e-01 -2.588190e-01  0.000000e+00
   outer loop
     vertex  2.954423e-01 -5.209445e-02  0.000000e+00
     vertex  2.819078e-01 -1.026060e-01  0.000000e+00
     vertex  2.819078e-01 -1.026060e-01 -7.500000e-01
   endloop
 endfacet
 facet normal  9.659258e-01 -2.588190e-01  0.000000e+00
   outer loop
     vertex  2.954423e-01 -5.209445e-02  0.000000e+00
     vertex  2.819078e-01 -1.026060e-01 -7.500000e-01
     vertex  2.954423e-01 -5.209445e-02 -7.500000e-01
   endloop
 endfacet
 facet normal  9.961947e-01 -8.715574e-02  0.000000e+00
   outer loop
     vertex  2.954423e-01 -5.209445e-02  0.000000e+00
     vertex  2.954423e-01 -5.209445e-02 -7.500000e-01
     vertex  3.000000e-01  0.000000e+00 -7.500000e-01
   endloop
 endfacet
 facet normal  9.961947e-01 -8.715574e-02  0.000000e+00
   outer loop
     vertex  3.000000e-01  0.000000e+00  0.000000e+00
     vertex  2.954423e-01 -5.209445e-02  0.000000e+00
     vertex  3.000000e-01  0.000000e+00 -7.500000e-01
   endloop
 endfacet
 facet normal  0.000000e+00  0.000000e+00  1.000000e+00
   outer loop
     vertex  6.520618e-02  6.190745e-17  4.574313e-01
     vertex  1.991624e-01 -2.243532e-01  4.574313e-01
     vertex  2.340533e-01 -1.876675e-01  4.574313e-01
   endloop
 endfacet
 facet normal  0.000000e+00  0.000000e+00  1.000000e+00
   outer loop
     vertex  6.520618e-02  6.190745e-17  4.574313e-01
     vertex  1.585993e-01 -2.546493e-01  4.574313e-01
     vertex  1.991624e-01 -2.243532e-01  4.574313e-01
   endloop
 endfacet
 facet normal  0.000000e+00  0.000000e+00  1.000000e+00
   outer loop
     vertex  6.520618e-02  6.190745e-17  4.574313e-01
     vertex  1.135193e-01 -2.776930e-01  4.574313e-01
     vertex  1.585993e-01 -2.546493e-01  4.574313e-01
   endloop
 endfacet
 facet normal  0.000000e+00  0.000000e+00  1.000000e+00
   outer loop
     vertex  6.520618e-02  6.190745e-17  4.574313e-01
     vertex  6.520618e-02 -2.928279e-01  4.574313e-01
     vertex  1.135193e-01 -2.776930e-01  4.574313e-01
   endloop
 endfacet
 facet normal  0.000000e+00  0.000000e+00  1.000000e+00
   outer loop
     vertex  2.622783e-01 -1.456369e-01  4.574313e-01
     vertex  6.520618e-02  6.190745e-17  4.574313e-01
     vertex  2.340533e-01 -1.876675e-01  4.574313e-01
   endloop
 endfacet
 facet normal  0.000000e+00  0.000000e+00  1.000000e+00
   outer loop
     vertex  2.830335e-01 -9.945859e-02  4.574313e-01
     vertex  6.520618e-02  6.190745e-17  4.574313e-01
     vertex  2.622783e-01 -1.456369e-01  4.574313e-01
   endloop
 endfacet
 facet normal  0.000000e+00  0.000000e+00  1.000000e+00
   outer loop
     vertex  2.957280e-01 -5.044768e-02  4.574313e-01
     vertex  6.520618e-02  6.190745e-17  4.574313e-01
     vertex  2.830335e-01 -9.945859e-02  4.574313e-01
   endloop
 endfacet
 facet normal  0.000000e+00  0.000000e+00  1.000000e+00
   outer loop
     vertex  3.000000e-01  2.848232e-16  4.574313e-01
     vertex  6.520618e-02  6.190745e-17  4.574313e-01
     vertex  2.957280e-01 -5.044768e-02  4.574313e-01
   endloop
 endfacet
 facet normal  1.000000e+00  6.634923e-15 -0.000000e+00
   outer loop
     vertex  6.520618e-02  6.190745e-17  4.574313e-01
     vertex  6.520618e-02  6.190745e-17  7.500000e-01
     vertex  6.520618e-02 -2.928279e-01  7.500000e-01
   endloop
 endfacet
 facet normal  1.000000e+00  9.478461e-16 -5.692114e-15
   outer loop
     vertex  6.520618e-02  6.190745e-17  4.574313e-01
     vertex  6.520618e-02 -2.928279e-01  7.500000e-01
     vertex  6.520618e-02 -2.928279e-01  4.574313e-01
   endloop
 endfacet
 facet normal  0.000000e+00  0.000000e+00  1.000000e+00
   outer loop
     vertex  6.520618e-02  6.190745e-17  7.500000e-01
     vertex -1.775255e-01  2.418361e-01  7.500000e-01
     vertex -2.159780e-01  2.082150e-01  7.500000e-01
   endloop
 endfacet
 facet normal  0.000000e+00  0.000000e+00  1.000000e+00
   outer loop
     vertex  6.520618e-02  6.190745e-17  7.500000e-01
     vertex -2.159780e-01  2.082150e-01  7.500000e-01
     vertex -2.481696e-01  1.685581e-01  7.500000e-01
   endloop
 endfacet
 facet normal  0.000000e+00  0.000000e+00  1.000000e+00
   outer loop
     vertex  6.520618e-02  6.190745e-17  7.500000e-01
     vertex -2.481696e-01  1.685581e-01  7.500000e-01
     vertex -2.731671e-01  1.240150e-01  7.500000e-01
   endloop
 endfacet
 facet normal  0.000000e+00  0.000000e+00  1.000000e+00
   outer loop
     vertex  6.520618e-02  6.190745e-17  7.500000e-01
     vertex -2.731671e-01  1.240150e-01  7.500000e-01
     vertex -2.902460e-01  7.587678e-02  7.500000e-01
   endloop
 endfacet
 facet normal  0.000000e+00  0.000000e+00  1.000000e+00
   outer loop
     vertex  6.520618e-02  6.190745e-17  7.500000e-01
     vertex -2.902460e-01  7.587678e-02  7.500000e-01
     vertex -2.989110e-01  2.553904e-02  7.500000e-01
   endloop
 endfacet
 facet normal  0.000000e+00  0.000000e+00  1.000000e+00
   outer loop
     vertex  6.520618e-02  6.190745e-17  7.500000e-01
     vertex -2.989110e-01  2.553904e-02  7.500000e-01
     vertex -2.989110e-01 -2.553904e-02  7.500000e-01
   endloop
 endfacet
 facet normal  0.000000e+00  0.000000e+00  1.000000e+00
   outer loop
     vertex  6.520618e-02  6.190745e-17  7.500000e-01
     vertex -2.989110e-01 -2.553904e-02  7.500000e-01
     vertex -2.902460e-01 -7.587678e-02  7.500000e-01
   endloop
 endfacet
 facet normal  0.000000e+00  0.000000e+00  1.000000e+00
   outer loop
     vertex  6.520618e-02  6.190745e-17  7.500000e-01
     vertex -2.902460e-01 -7.587678e-02  7.500000e-01
     vertex -2.731671e-01 -1.240150e-01  7.500000e-01
   endloop
 endfacet
 facet normal  0.000000e+00  0.000000e+00  1.000000e+00
   outer loop
     vertex  6.520618e-02  6.190745e-17  7.500000e-01
     vertex -2.731671e-01 -1.240150e-01  7.500000e-01
     vertex -2.481696e-01 -1.685581e-01  7.500000e-01
   endloop
 endfacet
 facet normal  0.000000e+00  0.000000e+00  1.000000e+00
   outer loop
     vertex  6.520618e-02  6.190745e-17  7.500000e-01
     vertex -2.481696e-01 -1.685581e-01  7.500000e-01
     vertex -2.159780e-01 -2.082150e-01  7.500000e-01
   endloop
 endfacet
 facet normal  0.000000e+00  0.000000e+00  1.000000e+00
   outer loop
     vertex  6.520618e-02  6.190745e-17  7.500000e-01
     vertex -2.159780e-01 -2.082150e-01  7.500000e-01
     vertex -1.775255e-01 -2.418361e-01  7.500000e-01
   endloop
 endfacet
 facet normal  0.000000e+00  0.000000e+00  1.000000e+00
   outer loop
     vertex  6.520618e-02  6.190745e-17  7.500000e-01
     vertex -1.775255e-01 -2.418361e-01  7.500000e-01
     vertex -1.339268e-01 -2.684467e-01  7.500000e-01
   endloop
 endfacet
 facet normal  0.000000e+00  0.000000e+00  1.000000e+00
   outer loop
     vertex  6.520618e-02  6.190745e-17  7.500000e-01
     vertex -1.339268e-01 -2.684467e-01  7.500000e-01
     vertex -8.644576e-02 -2.872754e-01  7.500000e-01
   endloop
 endfacet
 facet normal  0.000000e+00  0.000000e+00  1.000000e+00
   outer loop
     vertex  6.520618e-02  6.190745e-17  7.500000e-01
     vertex -8.644576e-02 -2.872754e-01  7.500000e-01
     vertex -3.645877e-02 -2.977764e-01  7.500000e-01
   endloop
 endfacet
 facet normal  0.000000e+00  0.000000e+00  1.000000e+00
   outer loop
     vertex  6.520618e-02  6.190745e-17  7.500000e-01
     vertex -3.645877e-02 -2.977764e-01  7.500000e-01
     vertex  1.458511e-02 -2.996452e-01  7.500000e-01
   endloop
 endfacet
 facet normal  0.000000e+00  0.000000e+00  1.000000e+00
   outer loop
     vertex  6.520618e-02  6.190745e-17  7.500000e-01
     vertex  1.458511e-02 -2.996452e-01  7.500000e-01
     vertex  6.520618e-02 -2.928279e-01  7.500000e-01
   endloop
 endfacet
 facet normal  0.000000e+00  0.000000e+00  1.000000e+00
   outer loop
     vertex -1.339268e-01  2.684467e-01  7.500000e-01
     vertex -1.775255e-01  2.418361e-01  7.500000e-01
     vertex  6.520618e-02  6.190745e-17  7.500000e-01
   endloop
 endfacet
 facet normal  0.000000e+00  0.000000e+00  1.000000e+00
   outer loop
     vertex -8.644576e-02  2.872754e-01  7.500000e-01
     vertex -1.339268e-01  2.684467e-01  7.500000e-01
     vertex  6.520618e-02  6.190745e-17  7.500000e-01
   endloop
 endfacet
 facet normal  0.000000e+00  0.000000e+00  1.000000e+00
   outer loop
     vertex -3.645877e-02  2.977764e-01  7.500000e-01
     vertex -8.644576e-02  2.872754e-01  7.500000e-01
     vertex  6.520618e-02  6.190745e-17  7.500000e-01
   endloop
 endfacet
 facet normal  0.000000e+00  0.000000e+00  1.000000e+00
   outer loop
     vertex  1.458511e-02  2.996452e-01  7.500000e-01
     vertex -3.645877e-02  2.977764e-01  7.500000e-01
     vertex  6.520618e-02  6.190745e-17  7.500000e-01
   endloop
 endfacet
 facet normal  0.000000e+00  0.000000e+00  1.000000e+00
   outer loop
     vertex  6.520618e-02  2.928279e-01  7.500000e-01
     vertex  1.458511e-02  2.996452e-01  7.500000e-01
     vertex  6.520618e-02  6.190745e-17  7.500000e-01
   endloop
 endfacet
 facet normal  1.000000e+00 -4.834015e-15  0.000000e+00
   outer loop
     vertex  6.520618e-02  6.190745e-17  4.574313e-01
     vertex  6.520618e-02  2.928279e-01  7.500000e-01
     vertex  6.520618e-02  6.190745e-17  7.500000e-01
   endloop
 endfacet
 facet normal  1.000000e+00  9.478461e-16 -5.786982e-15
   outer loop
     vertex  6.520618e-02  6.190745e-17  4.574313e-01
     vertex  6.520618e-02  2.928279e-01  4.574313e-01
     vertex  6.520618e-02  2.928279e-01  7.500000e-01
   endloop
 endfacet
 facet normal  0.000000e+00 -0.000000e+00  1.000000e+00
   outer loop
     vertex  6.520618e-02  6.190745e-17  4.574313e-01
     vertex  1.135193e-01  2.776930e-01  4.574313e-01
     vertex  6.520618e-02  2.928279e-01  4.574313e-01
   endloop
 endfacet
 facet normal  0.000000e+00  0.000000e+00  1.000000e+00
   outer loop
     vertex  6.520618e-02  6.190745e-17  4.574313e-01
     vertex  1.585993e-01  2.546493e-01  4.574313e-01
     vertex  1.135193e-01  2.776930e-01  4.574313e-01
   endloop
 endfacet
 facet normal  0.000000e+00  0.000000e+00  1.000000e+00
   outer loop
     vertex  6.520618e-02  6.190745e-17  4.574313e-01
     vertex  1.991624e-01  2.243532e-01  4.574313e-01
     vertex  1.585993e-01  2.546493e-01  4.574313e-01
   endloop
 endfacet
 facet normal  0.000000e+00  0.000000e+00  1.000000e+00
   outer loop
     vertex  6.520618e-02  6.190745e-17  4.574313e-01
     vertex  2.340533e-01  1.876675e-01  4.574313e-01
     vertex  1.991624e-01  2.243532e-01  4.574313e-01
   endloop
 endfacet
 facet normal  0.000000e+00  0.000000e+00  1.000000e+00
   outer loop
     vertex  2.622783e-01  1.456369e-01  4.574313e-01
     vertex  2.340533e-01  1.876675e-01  4.574313e-01
     vertex  6.520618e-02  6.190745e-17  4.574313e-01
   endloop
 endfacet
 facet normal  0.000000e+00  0.000000e+00  1.000000e+00
   outer loop
     vertex  2.830335e-01  9.945859e-02  4.574313e-01
     vertex  2.622783e-01  1.456369e-01  4.574313e-01
     vertex  6.520618e-02  6.190745e-17  4.574313e-01
   endloop
 endfacet
 facet normal  0.000000e+00  0.000000e+00  1.000000e+00
   outer loop
     vertex  2.957280e-01  5.044768e-02  4.574313e-01
     vertex  2.830335e-01  9.945859e-02  4.574313e-01
     vertex  6.520618e-02  6.190745e-17  4.574313e-01
   endloop
 endfacet
 facet normal  0.000000e+00  0.000000e+00  1.000000e+00
   outer loop
     vertex  3.000000e-01  2.848232e-16  4.574313e-01
     vertex  2.957280e-01  5.044768e-02  4.574313e-01
     vertex  6.520618e-02  6.190745e-17  4.574313e-01
   endloop
 endfacet
 facet normal  0.000000e+00  0.000000e+00 -1.000000e+00
   outer loop
     vertex -1.026060e-01  2.819078e-01 -7.500000e-01
     vertex -1.928363e-01  2.298133e-01 -7.500000e-01
     vertex -1.500000e-01  2.598076e-01 -7.500000e-01
   endloop
 endfacet
 facet normal  0.000000e+00  0.000000e+00 -1.000000e+00
   outer loop
     vertex  5.209445e-02  2.954423e-01 -7.500000e-01
     vertex -5.209445e-02  2.954423e-01 -7.500000e-01
     vertex  1.836970e-17  3.000000e-01 -7.500000e-01
   endloop
 endfacet
 facet normal  0.000000e+00  0.000000e+00 -1.000000e+00
   outer loop
     vertex  2.298133e-01  1.928363e-01 -7.500000e-01
     vertex  2.954423e-01  5.209445e-02 -7.500000e-01
     vertex  3.000000e-01  0.000000e+00 -7.500000e-01
   endloop
 endfacet
 facet normal  0.000000e+00  0.000000e+00 -1.000000e+00
   outer loop
     vertex  2.298133e-01  1.928363e-01 -7.500000e-01
     vertex  2.819078e-01  1.026060e-01 -7.500000e-01
     vertex  2.954423e-01  5.209445e-02 -7.500000e-01
   endloop
 endfacet
 facet normal  0.000000e+00  0.000000e+00 -1.000000e+00
   outer loop
     vertex  2.298133e-01  1.928363e-01 -7.500000e-01
     vertex  2.598076e-01  1.500000e-01 -7.500000e-01
     vertex  2.819078e-01  1.026060e-01 -7.500000e-01
   endloop
 endfacet
 facet normal  0.000000e+00  0.000000e+00 -1.000000e+00
   outer loop
     vertex  2.298133e-01  1.928363e-01 -7.500000e-01
     vertex  1.500000e-01  2.598076e-01 -7.500000e-01
     vertex  1.928363e-01  2.298133e-01 -7.500000e-01
   endloop
 endfacet
 facet normal  0.000000e+00  0.000000e+00 -1.000000e+00
   outer loop
     vertex  2.298133e-01  1.928363e-01 -7.500000e-01
     vertex  1.026060e-01  2.819078e-01 -7.500000e-01
     vertex  1.500000e-01  2.598076e-01 -7.500000e-01
   endloop
 endfacet
 facet normal  0.000000e+00  0.000000e+00 -1.000000e+00
   outer loop
     vertex  2.298133e-01  1.928363e-01 -7.500000e-01
     vertex  5.209445e-02  2.954423e-01 -7.500000e-01
     vertex  1.026060e-01  2.819078e-01 -7.500000e-01
   endloop
 endfacet
 facet normal  0.000000e+00  0.000000e+00 -1.000000e+00
   outer loop
     vertex  2.298133e-01  1.928363e-01 -7.500000e-01
     vertex -1.026060e-01  2.819078e-01 -7.500000e-01
     vertex -5.209445e-02  2.954423e-01 -7.500000e-01
   endloop
 endfacet
 facet normal  0.000000e+00  0.000000e+00 -1.000000e+00
   outer loop
     vertex  2.298133e-01  1.928363e-01 -7.500000e-01
     vertex -2.298133e-01  1.928363e-01 -7.500000e-01
     vertex -1.928363e-01  2.298133e-01 -7.500000e-01
   endloop
 endfacet
 facet normal -0.000000e+00  0.000000e+00 -1.000000e+00
   outer loop
     vertex  2.298133e-01  1.928363e-01 -7.500000e-01
     vertex -2.598076e-01  1.500000e-01 -7.500000e-01
     vertex -2.298133e-01  1.928363e-01 -7.500000e-01
   endloop
 endfacet
 facet normal  0.000000e+00  0.000000e+00 -1.000000e+00
   outer loop
     vertex  2.298133e-01  1.928363e-01 -7.500000e-01
     vertex -2.819078e-01  1.026060e-01 -7.500000e-01
     vertex -2.598076e-01  1.500000e-01 -7.500000e-01
   endloop
 endfacet
 facet normal  0.000000e+00  0.000000e+00 -1.000000e+00
   outer loop
     vertex  2.298133e-01  1.928363e-01 -7.500000e-01
     vertex -2.954423e-01  5.209445e-02 -7.500000e-01
     vertex -2.819078e-01  1.026060e-01 -7.500000e-01
   endloop
 endfacet
 facet normal  0.000000e+00  0.000000e+00 -1.000000e+00
   outer loop
     vertex  2.298133e-01  1.928363e-01 -7.500000e-01
     vertex -3.000000e-01  4.364197e-16 -7.500000e-01
     vertex -2.954423e-01  5.209445e-02 -7.500000e-01
   endloop
 endfacet
 facet normal  0.000000e+00  0.000000e+00 -1.000000e+00
   outer loop
     vertex  2.298133e-01  1.928363e-01 -7.500000e-01
     vertex -2.954423e-01 -5.209445e-02 -7.500000e-01
     vertex -3.000000e-01  4.364197e-16 -7.500000e-01
   endloop
 endfacet
 facet normal  0.000000e+00  0.000000e+00 -1.000000e+00
   outer loop
     vertex  2.298133e-01  1.928363e-01 -7.500000e-01
     vertex -2.819078e-01 -1.026060e-01 -7.500000e-01
     vertex -2.954423e-01 -5.209445e-02 -7.500000e-01
   endloop
 endfacet
 facet normal  0.000000e+00  0.000000e+00 -1.000000e+00
   outer loop
     vertex  2.298133e-01  1.928363e-01 -7.500000e-01
     vertex -2.598076e-01 -1.500000e-01 -7.500000e-01
     vertex -2.819078e-01 -1.026060e-01 -7.500000e-01
   endloop
 endfacet
 facet normal  0.000000e+00  0.000000e+00 -1.000000e+00
   outer loop
     vertex  2.298133e-01  1.928363e-01 -7.500000e-01
     vertex -2.298133e-01 -1.928363e-01 -7.500000e-01
     vertex -2.598076e-01 -1.500000e-01 -7.500000e-01
   endloop
 endfacet
 facet normal  0.000000e+00  0.000000e+00 -1.000000e+00
   outer loop
     vertex  2.298133e-01  1.928363e-01 -7.500000e-01
     vertex -1.928363e-01 -2.298133e-01 -7.500000e-01
     vertex -2.298133e-01 -1.928363e-01 -7.500000e-01
   endloop
 endfacet
 facet normal  0.000000e+00  0.000000e+00 -1.000000e+00
   outer loop
     vertex  2.298133e-01  1.928363e-01 -7.500000e-01
     vertex -1.500000e-01 -2.598076e-01 -7.500000e-01
     vertex -1.928363e-01 -2.298133e-01 -7.500000e-01
   endloop
 endfacet
 facet normal  0.000000e+00  0.000000e+00 -1.000000e+00
   outer loop
     vertex  2.298133e-01  1.928363e-01 -7.500000e-01
     vertex -1.026060e-01 -2.819078e-01 -7.500000e-01
     vertex -1.500000e-01 -2.598076e-01 -7.500000e-01
   endloop
 endfacet
 facet normal  0.000000e+00  0.000000e+00 -1.000000e+00
   outer loop
     vertex  2.298133e-01  1.928363e-01 -7.500000e-01
     vertex -5.209445e-02 -2.954423e-01 -7.500000e-01
     vertex -1.026060e-01 -2.819078e-01 -7.500000e-01
   endloop
 endfacet
 facet normal  0.000000e+00  0.000000e+00 -1.000000e+00
   outer loop
     vertex  2.298133e-01  1.928363e-01 -7.500000e-01
     vertex -8.544697e-16 -3.000000e-01 -7.500000e-01
     vertex -5.209445e-02 -2.954423e-01 -7.500000e-01
   endloop
 endfacet
 facet normal  0.000000e+00  0.000000e+00 -1.000000e+00
   outer loop
     vertex  2.298133e-01  1.928363e-01 -7.500000e-01
     vertex  5.209445e-02 -2.954423e-01 -7.500000e-01
     vertex -8.544697e-16 -3.000000e-01 -7.500000e-01
   endloop
 endfacet
 facet normal  0.000000e+00  0.000000e+00 -1.000000e+00
   outer loop
     vertex  2.298133e-01  1.928363e-01 -7.500000e-01
     vertex  1.026060e-01 -2.819078e-01 -7.500000e-01
     vertex  5.209445e-02 -2.954423e-01 -7.500000e-01
   endloop
 endfacet
 facet normal  0.000000e+00  0.000000e+00 -1.000000e+00
   outer loop
     vertex  2.298133e-01  1.928363e-01 -7.500000e-01
     vertex  1.500000e-01 -2.598076e-01 -7.500000e-01
     vertex  1.026060e-01 -2.819078e-01 -7.500000e-01
   endloop
 endfacet
 facet normal  0.000000e+00  0.000000e+00 -1.000000e+00
   outer loop
     vertex  2.298133e-01  1.928363e-01 -7.500000e-01
     vertex  1.928363e-01 -2.298133e-01 -7.500000e-01
     vertex  1.500000e-01 -2.598076e-01 -7.500000e-01
   endloop
 endfacet
 facet normal  0.000000e+00  0.000000e+00 -1.000000e+00
   outer loop
     vertex  2.298133e-01  1.928363e-01 -7.500000e-01
     vertex  2.298133e-01 -1.928363e-01 -7.500000e-01
     vertex  1.928363e-01 -2.298133e-01 -7.500000e-01
   endloop
 endfacet
 facet normal  0.000000e+00 -0.000000e+00 -1.000000e+00
   outer loop
     vertex  2.298133e-01  1.928363e-01 -7.500000e-01
     vertex  2.598076e-01 -1.500000e-01 -7.500000e-01
     vertex  2.298133e-01 -1.928363e-01 -7.500000e-01
   endloop
 endfacet
 facet normal  0.000000e+00  0.000000e+00 -1.000000e+00
   outer loop
     vertex  2.298133e-01  1.928363e-01 -7.500000e-01
     vertex  2.819078e-01 -1.026060e-01 -7.500000e-01
     vertex  2.598076e-01 -1.500000e-01 -7.500000e-01
   endloop
 endfacet
 facet normal  0.000000e+00  0.000000e+00 -1.000000e+00
   outer loop
     vertex  2.298133e-01  1.928363e-01 -7.500000e-01
     vertex  2.954423e-01 -5.209445e-02 -7.500000e-01
     vertex  2.819078e-01 -1.026060e-01 -7.500000e-01
   endloop
 endfacet
 facet normal  0.000000e+00  0.000000e+00 -1.000000e+00
   outer loop
     vertex  2.298133e-01  1.928363e-01 -7.500000e-01
     vertex  3.000000e-01  0.000000e+00 -7.500000e-01
     vertex  2.954423e-01 -5.209445e-02 -7.500000e-01
   endloop
 endfacet
 facet normal  0.000000e+00  0.000000e+00 -1.000000e+00
   outer loop
     vertex  2.298133e-01  1.928363e-01 -7.500000e-01
     vertex -1.928363e-01  2.298133e-01 -7.500000e-01
     vertex -1.026060e-01  2.819078e-01 -7.500000e-01
   endloop
 endfacet
 facet normal  0.000000e+00  0.000000e+00 -1.000000e+00
   outer loop
     vertex  2.298133e-01  1.928363e-01 -7.500000e-01
     vertex -5.209445e-02  2.954423e-01 -7.500000e-01
     vertex  5.209445e-02  2.954423e-01 -7.500000e-01
   endloop
 endfacet
endsolid
