solid 
 facet normal  0.000000e+00 -1.000000e+00  0.000000e+00
   outer loop
     vertex  1.248448e-01 -6.004139e-01 -3.676475e-17
     vertex -2.501552e-01 -6.004139e-01  9.000000e-01
     vertex -2.501552e-01 -6.004139e-01 -3.676475e-17
   endloop
 endfacet
 facet normal  0.000000e+00 -1.000000e+00  0.000000e+00
   outer loop
     vertex  1.248448e-01 -6.004139e-01 -3.676475e-17
     vertex  1.248448e-01 -6.004139e-01  9.000000e-01
     vertex -2.501552e-01 -6.004139e-01  9.000000e-01
   endloop
 endfacet
 facet normal  1.000000e+00 -9.868649e-16  0.000000e+00
   outer loop
     vertex  1.248448e-01 -3.754139e-01 -2.298747e-17
     vertex  1.248448e-01 -6.004139e-01  9.000000e-01
     vertex  1.248448e-01 -6.004139e-01 -3.676475e-17
   endloop
 endfacet
 facet normal  1.000000e+00 -9.868649e-16  0.000000e+00
   outer loop
     vertex  1.248448e-01 -3.754139e-01 -2.298747e-17
     vertex  1.248448e-01 -3.754139e-01  9.000000e-01
     vertex  1.248448e-01 -6.004139e-01  9.000000e-01
   endloop
 endfacet
 facet normal  0.000000e+00  1.000000e+00  0.000000e+00
   outer loop
     vertex -2.515515e-02 -3.754139e-01 -2.298747e-17
     vertex  1.248448e-01 -3.754139e-01  9.000000e-01
     vertex  1.248448e-01 -3.754139e-01 -2.298747e-17
   endloop
 endfacet
 facet normal  0.000000e+00  1.000000e+00  0.000000e+00
   outer loop
     vertex -2.515515e-02 -3.754139e-01 -2.298747e-17
     vertex -2.515515e-02 -3.754139e-01  9.000000e-01
     vertex  1.248448e-01 -3.754139e-01  9.000000e-01
   endloop
 endfacet
 facet normal  1.000000e+00 -9.251859e-16  0.000000e+00
   outer loop
     vertex -2.515515e-02  2.245861e-01  1.375193e-17
     vertex -2.515515e-02 -3.754139e-01  9.000000e-01
     vertex -2.515515e-02 -3.754139e-01 -2.298747e-17
   endloop
 endfacet
 facet normal  1.000000e+00 -9.251859e-16  0.000000e+00
   outer loop
     vertex -2.515515e-02  2.245861e-01  1.375193e-17
     vertex -2.515515e-02  2.245861e-01  9.000000e-01
     vertex -2.515515e-02 -3.754139e-01  9.000000e-01
   endloop
 endfacet
 facet normal  0.000000e+00 -1.000000e+00  0.000000e+00
   outer loop
     vertex  1.248449e-01  2.245861e-01  1.375193e-17
     vertex -2.515515e-02  2.245861e-01  9.000000e-01
     vertex -2.515515e-02  2.245861e-01  1.375193e-17
   endloop
 endfacet
 facet normal  0.000000e+00 -1.000000e+00  0.000000e+00
   outer loop
     vertex  1.248449e-01  2.245861e-01  1.375193e-17
     vertex  1.248449e-01  2.245861e-01  9.000000e-01
     vertex -2.515515e-02  2.245861e-01  9.000000e-01
   endloop
 endfacet
 facet normal  1.000000e+00 -9.868649e-16  0.000000e+00
   outer loop
     vertex  1.248449e-01  4.495861e-01  2.752921e-17
     vertex  1.248449e-01  2.245861e-01  9.000000e-01
     vertex  1.248449e-01  2.245861e-01  1.375193e-17
   endloop
 endfacet
 facet normal  1.000000e+00 -9.868649e-16  0.000000e+00
   outer loop
     vertex  1.248449e-01  4.495861e-01  2.752921e-17
     vertex  1.248449e-01  4.495861e-01  9.000000e-01
     vertex  1.248449e-01  2.245861e-01  9.000000e-01
   endloop
 endfacet
 facet normal  0.000000e+00  1.000000e+00  0.000000e+00
   outer loop
     vertex -2.501551e-01  4.495861e-01  2.752921e-17
     vertex  1.248449e-01  4.495861e-01  9.000000e-01
     vertex  1.248449e-01  4.495861e-01  2.752921e-17
   endloop
 endfacet
 facet normal  0.000000e+00  1.000000e+00  0.000000e+00
   outer loop
     vertex -2.501551e-01  4.495861e-01  2.752921e-17
     vertex -2.501551e-01  4.495861e-01  9.000000e-01
     vertex  1.248449e-01  4.495861e-01  9.000000e-01
   endloop
 endfacet
 facet normal -1.000000e+00  9.868649e-16  0.000000e+00
   outer loop
     vertex -2.501551e-01  2.245861e-01  1.375193e-17
     vertex -2.501551e-01  4.495861e-01  9.000000e-01
     vertex -2.501551e-01  4.495861e-01  2.752921e-17
   endloop
 endfacet
 facet normal -1.000000e+00  9.868649e-16  0.000000e+00
   outer loop
     vertex -2.501551e-01  2.245861e-01  1.375193e-17
     vertex -2.501551e-01  2.245861e-01  9.000000e-01
     vertex -2.501551e-01  4.495861e-01  9.000000e-01
   endloop
 endfacet
 facet normal -1.000000e+00  9.251859e-16  0.000000e+00
   outer loop
     vertex -2.501552e-01 -3.754139e-01 -2.298747e-17
     vertex -2.501551e-01  2.245861e-01  9.000000e-01
     vertex -2.501551e-01  2.245861e-01  1.375193e-17
   endloop
 endfacet
 facet normal -1.000000e+00  9.251859e-16  0.000000e+00
   outer loop
     vertex -2.501552e-01 -3.754139e-01 -2.298747e-17
     vertex -2.501552e-01 -3.754139e-01  9.000000e-01
     vertex -2.501551e-01  2.245861e-01  9.000000e-01
   endloop
 endfacet
 facet normal -1.000000e+00  9.868649e-16  0.000000e+00
   outer loop
     vertex -2.501552e-01 -6.004139e-01 -3.676475e-17
     vertex -2.501552e-01 -3.754139e-01  9.000000e-01
     vertex -2.501552e-01 -3.754139e-01 -2.298747e-17
   endloop
 endfacet
 facet normal -1.000000e+00  9.868649e-16  0.000000e+00
   outer loop
     vertex -2.501552e-01 -6.004139e-01 -3.676475e-17
     vertex -2.501552e-01 -6.004139e-01  9.000000e-01
     vertex -2.501552e-01 -3.754139e-01  9.000000e-01
   endloop
 endfacet
 facet normal  0.000000e+00  6.123234e-17 -1.000000e+00
   outer loop
     vertex -2.515515e-02 -3.754139e-01 -2.298747e-17
     vertex  1.248448e-01 -6.004139e-01 -3.676475e-17
     vertex -2.501552e-01 -6.004139e-01 -3.676475e-17
   endloop
 endfacet
 facet normal  0.000000e+00  6.123234e-17 -1.000000e+00
   outer loop
     vertex -2.515515e-02 -3.754139e-01 -2.298747e-17
     vertex -2.501552e-01 -6.004139e-01 -3.676475e-17
     vertex -2.501552e-01 -3.754139e-01 -2.298747e-17
   endloop
 endfacet
 facet normal  0.000000e+00  6.123234e-17 -1.000000e+00
   outer loop
     vertex  1.248448e-01 -3.754139e-01 -2.298747e-17
     vertex  1.248448e-01 -6.004139e-01 -3.676475e-17
     vertex -2.515515e-02 -3.754139e-01 -2.298747e-17
   endloop
 endfacet
 facet normal  0.000000e+00  6.123234e-17 -1.000000e+00
   outer loop
     vertex -2.515515e-02  2.245861e-01  1.375193e-17
     vertex -2.501552e-01 -3.754139e-01 -2.298747e-17
     vertex -2.501551e-01  2.245861e-01  1.375193e-17
   endloop
 endfacet
 facet normal  0.000000e+00  6.123234e-17 -1.000000e+00
   outer loop
     vertex -2.515515e-02  2.245861e-01  1.375193e-17
     vertex -2.515515e-02 -3.754139e-01 -2.298747e-17
     vertex -2.501552e-01 -3.754139e-01 -2.298747e-17
   endloop
 endfacet
 facet normal  0.000000e+00  6.123234e-17 -1.000000e+00
   outer loop
     vertex -2.501551e-01  4.495861e-01  2.752921e-17
     vertex -2.515515e-02  2.245861e-01  1.375193e-17
     vertex -2.501551e-01  2.245861e-01  1.375193e-17
   endloop
 endfacet
 facet normal  0.000000e+00  6.123234e-17 -1.000000e+00
   outer loop
     vertex  1.248449e-01  4.495861e-01  2.752921e-17
     vertex  1.248449e-01  2.245861e-01  1.375193e-17
     vertex -2.515515e-02  2.245861e-01  1.375193e-17
   endloop
 endfacet
 facet normal  0.000000e+00  6.123234e-17 -1.000000e+00
   outer loop
     vertex  1.248449e-01  4.495861e-01  2.752921e-17
     vertex -2.515515e-02  2.245861e-01  1.375193e-17
     vertex -2.501551e-01  4.495861e-01  2.752921e-17
   endloop
 endfacet
 facet normal  0.000000e+00  0.000000e+00  1.000000e+00
   outer loop
     vertex -2.515515e-02 -3.754139e-01  9.000000e-01
     vertex -2.501552e-01 -6.004139e-01  9.000000e-01
     vertex  1.248448e-01 -6.004139e-01  9.000000e-01
   endloop
 endfacet
 facet normal  0.000000e+00  0.000000e+00  1.000000e+00
   outer loop
     vertex -2.515515e-02 -3.754139e-01  9.000000e-01
     vertex -2.501552e-01 -3.754139e-01  9.000000e-01
     vertex -2.501552e-01 -6.004139e-01  9.000000e-01
   endloop
 endfacet
 facet normal  0.000000e+00  0.000000e+00  1.000000e+00
   outer loop
     vertex  1.248448e-01 -3.754139e-01  9.000000e-01
     vertex -2.515515e-02 -3.754139e-01  9.000000e-01
     vertex  1.248448e-01 -6.004139e-01  9.000000e-01
   endloop
 endfacet
 facet normal  0.000000e+00  0.000000e+00  1.000000e+00
   outer loop
     vertex -2.515515e-02  2.245861e-01  9.000000e-01
     vertex -2.501551e-01  2.245861e-01  9.000000e-01
     vertex -2.501552e-01 -3.754139e-01  9.000000e-01
   endloop
 endfacet
 facet normal  0.000000e+00  0.000000e+00  1.000000e+00
   outer loop
     vertex -2.515515e-02  2.245861e-01  9.000000e-01
     vertex -2.501552e-01 -3.754139e-01  9.000000e-01
     vertex -2.515515e-02 -3.754139e-01  9.000000e-01
   endloop
 endfacet
 facet normal  0.000000e+00  0.000000e+00  1.000000e+00
   outer loop
     vertex -2.501551e-01  4.495861e-01  9.000000e-01
     vertex -2.501551e-01  2.245861e-01  9.000000e-01
     vertex -2.515515e-02  2.245861e-01  9.000000e-01
   endloop
 endfacet
 facet normal  0.000000e+00  0.000000e+00  1.000000e+00
   outer loop
     vertex  1.248449e-01  4.495861e-01  9.000000e-01
     vertex -2.515515e-02  2.245861e-01  9.000000e-01
     vertex  1.248449e-01  2.245861e-01  9.000000e-01
   endloop
 endfacet
 facet normal  0.000000e+00  0.000000e+00  1.000000e+00
   outer loop
     vertex  1.248449e-01  4.495861e-01  9.000000e-01
     vertex -2.501551e-01  4.495861e-01  9.000000e-01
     vertex -2.515515e-02  2.245861e-01  9.000000e-01
   endloop
 endfacet
endsolid
