solid 
 facet normal  7.401487e-17 -2.775113e-49 -1.000000e+00
   outer loop
     vertex  5.624099e-35  1.500000e-02 -3.000000e-01
     vertex  7.500000e-01  0.000000e+00 -3.000000e-01
     vertex  0.000000e+00  0.000000e+00 -3.000000e-01
   endloop
 endfacet
 facet normal  7.401487e-17  0.000000e+00 -1.000000e+00
   outer loop
     vertex  5.624099e-35  1.500000e-02 -3.000000e-01
     vertex  7.500000e-01  1.500000e-02 -3.000000e-01
     vertex  7.500000e-01  0.000000e+00 -3.000000e-01
   endloop
 endfacet
 facet normal  0.000000e+00  1.000000e+00  0.000000e+00
   outer loop
     vertex  5.624099e-35  1.500000e-02 -1.500000e-02
     vertex  7.500000e-01  1.500000e-02 -3.000000e-01
     vertex  5.624099e-35  1.500000e-02 -3.000000e-01
   endloop
 endfacet
 facet normal -0.000000e+00  1.000000e+00  0.000000e+00
   outer loop
     vertex  5.624099e-35  1.500000e-02 -1.500000e-02
     vertex  7.500000e-01  1.500000e-02 -1.500000e-02
     vertex  7.500000e-01  1.500000e-02 -3.000000e-01
   endloop
 endfacet
 facet normal  6.013708e-17 -2.254779e-49 -1.000000e+00
   outer loop
     vertex  5.624099e-34  1.500000e-01 -1.500000e-02
     vertex  7.500000e-01  1.500000e-02 -1.500000e-02
     vertex  5.624099e-35  1.500000e-02 -1.500000e-02
   endloop
 endfacet
 facet normal  6.013708e-17  0.000000e+00 -1.000000e+00
   outer loop
     vertex  5.624099e-34  1.500000e-01 -1.500000e-02
     vertex  7.500000e-01  1.500000e-01 -1.500000e-02
     vertex  7.500000e-01  1.500000e-02 -1.500000e-02
   endloop
 endfacet
 facet normal  0.000000e+00  1.000000e+00  0.000000e+00
   outer loop
     vertex  5.624099e-34  1.500000e-01  0.000000e+00
     vertex  7.500000e-01  1.500000e-01 -1.500000e-02
     vertex  5.624099e-34  1.500000e-01 -1.500000e-02
   endloop
 endfacet
 facet normal -0.000000e+00  1.000000e+00  0.000000e+00
   outer loop
     vertex  5.624099e-34  1.500000e-01  0.000000e+00
     vertex  7.500000e-01  1.500000e-01  4.592425e-17
     vertex  7.500000e-01  1.500000e-01 -1.500000e-02
   endloop
 endfacet
 facet normal -6.123234e-17  2.295845e-49  1.000000e+00
   outer loop
     vertex  0.000000e+00  0.000000e+00  0.000000e+00
     vertex  7.500000e-01  1.500000e-01  4.592425e-17
     vertex  5.624099e-34  1.500000e-01  0.000000e+00
   endloop
 endfacet
 facet normal -6.123234e-17  0.000000e+00  1.000000e+00
   outer loop
     vertex  0.000000e+00  0.000000e+00  0.000000e+00
     vertex  7.500000e-01  0.000000e+00  4.592425e-17
     vertex  7.500000e-01  1.500000e-01  4.592425e-17
   endloop
 endfacet
 facet normal  0.000000e+00 -1.000000e+00  0.000000e+00
   outer loop
     vertex  0.000000e+00  0.000000e+00 -3.000000e-01
     vertex  7.500000e-01  0.000000e+00  4.592425e-17
     vertex  0.000000e+00  0.000000e+00  0.000000e+00
   endloop
 endfacet
 facet normal  0.000000e+00 -1.000000e+00  0.000000e+00
   outer loop
     vertex  0.000000e+00  0.000000e+00 -3.000000e-01
     vertex  7.500000e-01  0.000000e+00 -3.000000e-01
     vertex  7.500000e-01  0.000000e+00  4.592425e-17
   endloop
 endfacet
 facet normal -1.000000e+00  3.749399e-33  0.000000e+00
   outer loop
     vertex  5.624099e-35  1.500000e-02 -1.500000e-02
     vertex  5.624099e-35  1.500000e-02 -3.000000e-01
     vertex  0.000000e+00  0.000000e+00 -3.000000e-01
   endloop
 endfacet
 facet normal -1.000000e+00  3.749399e-33  0.000000e+00
   outer loop
     vertex  5.624099e-35  1.500000e-02 -1.500000e-02
     vertex  0.000000e+00  0.000000e+00 -3.000000e-01
     vertex  0.000000e+00  0.000000e+00  0.000000e+00
   endloop
 endfacet
 facet normal -1.000000e+00  3.749399e-33  0.000000e+00
   outer loop
     vertex  5.624099e-34  1.500000e-01  0.000000e+00
     vertex  5.624099e-34  1.500000e-01 -1.500000e-02
     vertex  5.624099e-35  1.500000e-02 -1.500000e-02
   endloop
 endfacet
 facet normal -1.000000e+00  3.749399e-33  0.000000e+00
   outer loop
     vertex  5.624099e-34  1.500000e-01  0.000000e+00
     vertex  5.624099e-35  1.500000e-02 -1.500000e-02
     vertex  0.000000e+00  0.000000e+00  0.000000e+00
   endloop
 endfacet
 facet normal  1.000000e+00  0.000000e+00  0.000000e+00
   outer loop
     vertex  7.500000e-01  1.500000e-02 -1.500000e-02
     vertex  7.500000e-01  0.000000e+00 -3.000000e-01
     vertex  7.500000e-01  1.500000e-02 -3.000000e-01
   endloop
 endfacet
 facet normal  1.000000e+00  0.000000e+00  0.000000e+00
   outer loop
     vertex  7.500000e-01  1.500000e-02 -1.500000e-02
     vertex  7.500000e-01  0.000000e+00  4.592425e-17
     vertex  7.500000e-01  0.000000e+00 -3.000000e-01
   endloop
 endfacet
 facet normal  1.000000e+00  0.000000e+00  0.000000e+00
   outer loop
     vertex  7.500000e-01  1.500000e-01  4.592425e-17
     vertex  7.500000e-01  1.500000e-02 -1.500000e-02
     vertex  7.500000e-01  1.500000e-01 -1.500000e-02
   endloop
 endfacet
 facet normal  1.000000e+00  0.000000e+00  0.000000e+00
   outer loop
     vertex  7.500000e-01  1.500000e-01  4.592425e-17
     vertex  7.500000e-01  0.000000e+00  4.592425e-17
     vertex  7.500000e-01  1.500000e-02 -1.500000e-02
   endloop
 endfacet
endsolid
