solid 
 facet normal  9.961947e-01  8.715574e-02  0.000000e+00
   outer loop
     vertex  7.386058e-01  1.302361e-01  0.000000e+00
     vertex  7.500000e-01  0.000000e+00  3.810008e-01
     vertex  7.500000e-01  0.000000e+00  0.000000e+00
   endloop
 endfacet
 facet normal  9.961947e-01  8.715574e-02 -0.000000e+00
   outer loop
     vertex  7.386058e-01  1.302361e-01  0.000000e+00
     vertex  7.386058e-01  1.302361e-01  3.810008e-01
     vertex  7.500000e-01  0.000000e+00  3.810008e-01
   endloop
 endfacet
 facet normal  9.659258e-01  2.588190e-01 -0.000000e+00
   outer loop
     vertex  7.047695e-01  2.565151e-01  0.000000e+00
     vertex  7.047695e-01  2.565151e-01  3.810008e-01
     vertex  7.386058e-01  1.302361e-01  3.810008e-01
   endloop
 endfacet
 facet normal  9.659258e-01  2.588190e-01  0.000000e+00
   outer loop
     vertex  7.047695e-01  2.565151e-01  0.000000e+00
     vertex  7.386058e-01  1.302361e-01  3.810008e-01
     vertex  7.386058e-01  1.302361e-01  0.000000e+00
   endloop
 endfacet
 facet normal  9.063078e-01  4.226183e-01 -0.000000e+00
   outer loop
     vertex  6.495191e-01  3.750000e-01  0.000000e+00
     vertex  6.495191e-01  3.750000e-01  3.810008e-01
     vertex  7.047695e-01  2.565151e-01  3.810008e-01
   endloop
 endfacet
 facet normal  9.063078e-01  4.226183e-01  0.000000e+00
   outer loop
     vertex  6.495191e-01  3.750000e-01  0.000000e+00
     vertex  7.047695e-01  2.565151e-01  3.810008e-01
     vertex  7.047695e-01  2.565151e-01  0.000000e+00
   endloop
 endfacet
 facet normal  8.191520e-01  5.735764e-01 -0.000000e+00
   outer loop
     vertex  5.745333e-01  4.820907e-01  0.000000e+00
     vertex  5.745333e-01  4.820907e-01  3.810008e-01
     vertex  6.495191e-01  3.750000e-01  3.810008e-01
   endloop
 endfacet
 facet normal  8.191520e-01  5.735764e-01  0.000000e+00
   outer loop
     vertex  5.745333e-01  4.820907e-01  0.000000e+00
     vertex  6.495191e-01  3.750000e-01  3.810008e-01
     vertex  6.495191e-01  3.750000e-01  0.000000e+00
   endloop
 endfacet
 facet normal  7.071068e-01  7.071068e-01 -0.000000e+00
   outer loop
     vertex  4.820907e-01  5.745333e-01  0.000000e+00
     vertex  4.820907e-01  5.745333e-01  3.810008e-01
     vertex  5.745333e-01  4.820907e-01  3.810008e-01
   endloop
 endfacet
 facet normal  7.071068e-01  7.071068e-01  0.000000e+00
   outer loop
     vertex  4.820907e-01  5.745333e-01  0.000000e+00
     vertex  5.745333e-01  4.820907e-01  3.810008e-01
     vertex  5.745333e-01  4.820907e-01  0.000000e+00
   endloop
 endfacet
 facet normal  5.735764e-01  8.191520e-01  0.000000e+00
   outer loop
     vertex  3.750000e-01  6.495191e-01  0.000000e+00
     vertex  4.820907e-01  5.745333e-01  3.810008e-01
     vertex  4.820907e-01  5.745333e-01  0.000000e+00
   endloop
 endfacet
 facet normal  5.735764e-01  8.191520e-01 -0.000000e+00
   outer loop
     vertex  3.750000e-01  6.495191e-01  0.000000e+00
     vertex  3.750000e-01  6.495191e-01  3.810008e-01
     vertex  4.820907e-01  5.745333e-01  3.810008e-01
   endloop
 endfacet
 facet normal  4.226183e-01  9.063078e-01  0.000000e+00
   outer loop
     vertex  2.565151e-01  7.047695e-01  0.000000e+00
     vertex  3.750000e-01  6.495191e-01  3.810008e-01
     vertex  3.750000e-01  6.495191e-01  0.000000e+00
   endloop
 endfacet
 facet normal  4.226183e-01  9.063078e-01 -0.000000e+00
   outer loop
     vertex  2.565151e-01  7.047695e-01  0.000000e+00
     vertex  2.565151e-01  7.047695e-01  3.810008e-01
     vertex  3.750000e-01  6.495191e-01  3.810008e-01
   endloop
 endfacet
 facet normal  2.588190e-01  9.659258e-01 -0.000000e+00
   outer loop
     vertex  1.302361e-01  7.386058e-01  0.000000e+00
     vertex  1.302361e-01  7.386058e-01  3.810008e-01
     vertex  2.565151e-01  7.047695e-01  3.810008e-01
   endloop
 endfacet
 facet normal  2.588190e-01  9.659258e-01  0.000000e+00
   outer loop
     vertex  1.302361e-01  7.386058e-01  0.000000e+00
     vertex  2.565151e-01  7.047695e-01  3.810008e-01
     vertex  2.565151e-01  7.047695e-01  0.000000e+00
   endloop
 endfacet
 facet normal  8.715574e-02  9.961947e-01 -0.000000e+00
   outer loop
     vertex  4.592425e-17  7.500000e-01  0.000000e+00
     vertex  4.592425e-17  7.500000e-01  3.810008e-01
     vertex  1.302361e-01  7.386058e-01  3.810008e-01
   endloop
 endfacet
 facet normal  8.715574e-02  9.961947e-01  0.000000e+00
   outer loop
     vertex  4.592425e-17  7.500000e-01  0.000000e+00
     vertex  1.302361e-01  7.386058e-01  3.810008e-01
     vertex  1.302361e-01  7.386058e-01  0.000000e+00
   endloop
 endfacet
 facet normal -8.715574e-02  9.961947e-01  0.000000e+00
   outer loop
     vertex -1.302361e-01  7.386058e-01  0.000000e+00
     vertex -1.302361e-01  7.386058e-01  3.810008e-01
     vertex  4.592425e-17  7.500000e-01  3.810008e-01
   endloop
 endfacet
 facet normal -8.715574e-02  9.961947e-01  0.000000e+00
   outer loop
     vertex -1.302361e-01  7.386058e-01  0.000000e+00
     vertex  4.592425e-17  7.500000e-01  3.810008e-01
     vertex  4.592425e-17  7.500000e-01  0.000000e+00
   endloop
 endfacet
 facet normal -2.588190e-01  9.659258e-01  0.000000e+00
   outer loop
     vertex -2.565151e-01  7.047695e-01  0.000000e+00
     vertex -2.565151e-01  7.047695e-01  3.810008e-01
     vertex -1.302361e-01  7.386058e-01  3.810008e-01
   endloop
 endfacet
 facet normal -2.588190e-01  9.659258e-01  0.000000e+00
   outer loop
     vertex -2.565151e-01  7.047695e-01  0.000000e+00
     vertex -1.302361e-01  7.386058e-01  3.810008e-01
     vertex -1.302361e-01  7.386058e-01  0.000000e+00
   endloop
 endfacet
 facet normal -4.226183e-01  9.063078e-01  0.000000e+00
   outer loop
     vertex -3.750000e-01  6.495191e-01  0.000000e+00
     vertex -3.750000e-01  6.495191e-01  3.810008e-01
     vertex -2.565151e-01  7.047695e-01  3.810008e-01
   endloop
 endfacet
 facet normal -5.735764e-01  8.191520e-01  0.000000e+00
   outer loop
     vertex -3.750000e-01  6.495191e-01  0.000000e+00
     vertex -4.820907e-01  5.745333e-01  3.810008e-01
     vertex -3.750000e-01  6.495191e-01  3.810008e-01
   endloop
 endfacet
 facet normal -4.226183e-01  9.063078e-01  0.000000e+00
   outer loop
     vertex -3.750000e-01  6.495191e-01  0.000000e+00
     vertex -2.565151e-01  7.047695e-01  3.810008e-01
     vertex -2.565151e-01  7.047695e-01  0.000000e+00
   endloop
 endfacet
 facet normal -7.071068e-01  7.071068e-01  0.000000e+00
   outer loop
     vertex -4.820907e-01  5.745333e-01  0.000000e+00
     vertex -5.745333e-01  4.820907e-01  3.810008e-01
     vertex -4.820907e-01  5.745333e-01  3.810008e-01
   endloop
 endfacet
 facet normal -5.735764e-01  8.191520e-01  0.000000e+00
   outer loop
     vertex -4.820907e-01  5.745333e-01  0.000000e+00
     vertex -4.820907e-01  5.745333e-01  3.810008e-01
     vertex -3.750000e-01  6.495191e-01  0.000000e+00
   endloop
 endfacet
 facet normal -7.071068e-01  7.071068e-01  0.000000e+00
   outer loop
     vertex -5.745333e-01  4.820907e-01  0.000000e+00
     vertex -5.745333e-01  4.820907e-01  3.810008e-01
     vertex -4.820907e-01  5.745333e-01  0.000000e+00
   endloop
 endfacet
 facet normal -8.191520e-01  5.735764e-01  0.000000e+00
   outer loop
     vertex -6.495191e-01  3.750000e-01  0.000000e+00
     vertex -6.495191e-01  3.750000e-01  3.810008e-01
     vertex -5.745333e-01  4.820907e-01  3.810008e-01
   endloop
 endfacet
 facet normal -8.191520e-01  5.735764e-01  0.000000e+00
   outer loop
     vertex -6.495191e-01  3.750000e-01  0.000000e+00
     vertex -5.745333e-01  4.820907e-01  3.810008e-01
     vertex -5.745333e-01  4.820907e-01  0.000000e+00
   endloop
 endfacet
 facet normal -9.063078e-01  4.226183e-01  0.000000e+00
   outer loop
     vertex -7.047695e-01  2.565151e-01  0.000000e+00
     vertex -7.047695e-01  2.565151e-01  3.810008e-01
     vertex -6.495191e-01  3.750000e-01  3.810008e-01
   endloop
 endfacet
 facet normal -9.063078e-01  4.226183e-01  0.000000e+00
   outer loop
     vertex -7.047695e-01  2.565151e-01  0.000000e+00
     vertex -6.495191e-01  3.750000e-01  3.810008e-01
     vertex -6.495191e-01  3.750000e-01  0.000000e+00
   endloop
 endfacet
 facet normal -9.659258e-01  2.588190e-01  0.000000e+00
   outer loop
     vertex -7.386058e-01  1.302361e-01  0.000000e+00
     vertex -7.386058e-01  1.302361e-01  3.810008e-01
     vertex -7.047695e-01  2.565151e-01  3.810008e-01
   endloop
 endfacet
 facet normal -9.961947e-01  8.715574e-02  0.000000e+00
   outer loop
     vertex -7.386058e-01  1.302361e-01  0.000000e+00
     vertex -7.500000e-01  1.091049e-15  3.810008e-01
     vertex -7.386058e-01  1.302361e-01  3.810008e-01
   endloop
 endfacet
 facet normal -9.659258e-01  2.588190e-01  0.000000e+00
   outer loop
     vertex -7.386058e-01  1.302361e-01  0.000000e+00
     vertex -7.047695e-01  2.565151e-01  3.810008e-01
     vertex -7.047695e-01  2.565151e-01  0.000000e+00
   endloop
 endfacet
 facet normal -9.961947e-01 -8.715574e-02  0.000000e+00
   outer loop
     vertex -7.500000e-01  1.091049e-15  0.000000e+00
     vertex -7.386058e-01 -1.302361e-01  3.810008e-01
     vertex -7.500000e-01  1.091049e-15  3.810008e-01
   endloop
 endfacet
 facet normal -9.961947e-01  8.715574e-02  0.000000e+00
   outer loop
     vertex -7.500000e-01  1.091049e-15  0.000000e+00
     vertex -7.500000e-01  1.091049e-15  3.810008e-01
     vertex -7.386058e-01  1.302361e-01  0.000000e+00
   endloop
 endfacet
 facet normal -9.659258e-01 -2.588190e-01  0.000000e+00
   outer loop
     vertex -7.386058e-01 -1.302361e-01  0.000000e+00
     vertex -7.047695e-01 -2.565151e-01  3.810008e-01
     vertex -7.386058e-01 -1.302361e-01  3.810008e-01
   endloop
 endfacet
 facet normal -9.961947e-01 -8.715574e-02  0.000000e+00
   outer loop
     vertex -7.386058e-01 -1.302361e-01  0.000000e+00
     vertex -7.386058e-01 -1.302361e-01  3.810008e-01
     vertex -7.500000e-01  1.091049e-15  0.000000e+00
   endloop
 endfacet
 facet normal -9.659258e-01 -2.588190e-01  0.000000e+00
   outer loop
     vertex -7.047695e-01 -2.565151e-01  0.000000e+00
     vertex -7.047695e-01 -2.565151e-01  3.810008e-01
     vertex -7.386058e-01 -1.302361e-01  0.000000e+00
   endloop
 endfacet
 facet normal -9.063078e-01 -4.226183e-01  0.000000e+00
   outer loop
     vertex -6.495191e-01 -3.750000e-01  0.000000e+00
     vertex -6.495191e-01 -3.750000e-01  3.810008e-01
     vertex -7.047695e-01 -2.565151e-01  3.810008e-01
   endloop
 endfacet
 facet normal -8.191520e-01 -5.735764e-01  0.000000e+00
   outer loop
     vertex -6.495191e-01 -3.750000e-01  0.000000e+00
     vertex -5.745333e-01 -4.820907e-01  3.810008e-01
     vertex -6.495191e-01 -3.750000e-01  3.810008e-01
   endloop
 endfacet
 facet normal -9.063078e-01 -4.226183e-01  0.000000e+00
   outer loop
     vertex -6.495191e-01 -3.750000e-01  0.000000e+00
     vertex -7.047695e-01 -2.565151e-01  3.810008e-01
     vertex -7.047695e-01 -2.565151e-01  0.000000e+00
   endloop
 endfacet
 facet normal -7.071068e-01 -7.071068e-01  0.000000e+00
   outer loop
     vertex -5.745333e-01 -4.820907e-01  0.000000e+00
     vertex -4.820907e-01 -5.745333e-01  3.810008e-01
     vertex -5.745333e-01 -4.820907e-01  3.810008e-01
   endloop
 endfacet
 facet normal -8.191520e-01 -5.735764e-01  0.000000e+00
   outer loop
     vertex -5.745333e-01 -4.820907e-01  0.000000e+00
     vertex -5.745333e-01 -4.820907e-01  3.810008e-01
     vertex -6.495191e-01 -3.750000e-01  0.000000e+00
   endloop
 endfacet
 facet normal -7.071068e-01 -7.071068e-01  0.000000e+00
   outer loop
     vertex -4.820907e-01 -5.745333e-01  0.000000e+00
     vertex -4.820907e-01 -5.745333e-01  3.810008e-01
     vertex -5.745333e-01 -4.820907e-01  0.000000e+00
   endloop
 endfacet
 facet normal -5.735764e-01 -8.191520e-01  0.000000e+00
   outer loop
     vertex -3.750000e-01 -6.495191e-01  0.000000e+00
     vertex -3.750000e-01 -6.495191e-01  3.810008e-01
     vertex -4.820907e-01 -5.745333e-01  3.810008e-01
   endloop
 endfacet
 facet normal -4.226183e-01 -9.063078e-01  0.000000e+00
   outer loop
     vertex -3.750000e-01 -6.495191e-01  0.000000e+00
     vertex -2.565151e-01 -7.047695e-01  3.810008e-01
     vertex -3.750000e-01 -6.495191e-01  3.810008e-01
   endloop
 endfacet
 facet normal -5.735764e-01 -8.191520e-01  0.000000e+00
   outer loop
     vertex -3.750000e-01 -6.495191e-01  0.000000e+00
     vertex -4.820907e-01 -5.745333e-01  3.810008e-01
     vertex -4.820907e-01 -5.745333e-01  0.000000e+00
   endloop
 endfacet
 facet normal -4.226183e-01 -9.063078e-01  0.000000e+00
   outer loop
     vertex -2.565151e-01 -7.047695e-01  0.000000e+00
     vertex -2.565151e-01 -7.047695e-01  3.810008e-01
     vertex -3.750000e-01 -6.495191e-01  0.000000e+00
   endloop
 endfacet
 facet normal -2.588190e-01 -9.659258e-01  0.000000e+00
   outer loop
     vertex -1.302361e-01 -7.386058e-01  0.000000e+00
     vertex -1.302361e-01 -7.386058e-01  3.810008e-01
     vertex -2.565151e-01 -7.047695e-01  3.810008e-01
   endloop
 endfacet
 facet normal -8.715574e-02 -9.961947e-01  0.000000e+00
   outer loop
     vertex -1.302361e-01 -7.386058e-01  0.000000e+00
     vertex -2.136174e-15 -7.500000e-01  3.810008e-01
     vertex -1.302361e-01 -7.386058e-01  3.810008e-01
   endloop
 endfacet
 facet normal -2.588190e-01 -9.659258e-01  0.000000e+00
   outer loop
     vertex -1.302361e-01 -7.386058e-01  0.000000e+00
     vertex -2.565151e-01 -7.047695e-01  3.810008e-01
     vertex -2.565151e-01 -7.047695e-01  0.000000e+00
   endloop
 endfacet
 facet normal -8.715574e-02 -9.961947e-01  0.000000e+00
   outer loop
     vertex -2.136174e-15 -7.500000e-01  0.000000e+00
     vertex -2.136174e-15 -7.500000e-01  3.810008e-01
     vertex -1.302361e-01 -7.386058e-01  0.000000e+00
   endloop
 endfacet
 facet normal  8.715574e-02 -9.961947e-01  0.000000e+00
   outer loop
     vertex  1.302361e-01 -7.386058e-01  0.000000e+00
     vertex  1.302361e-01 -7.386058e-01  3.810008e-01
     vertex -2.136174e-15 -7.500000e-01  3.810008e-01
   endloop
 endfacet
 facet normal  8.715574e-02 -9.961947e-01  0.000000e+00
   outer loop
     vertex  1.302361e-01 -7.386058e-01  0.000000e+00
     vertex -2.136174e-15 -7.500000e-01  3.810008e-01
     vertex -2.136174e-15 -7.500000e-01  0.000000e+00
   endloop
 endfacet
 facet normal  2.588190e-01 -9.659258e-01  0.000000e+00
   outer loop
     vertex  2.565151e-01 -7.047695e-01  0.000000e+00
     vertex  2.565151e-01 -7.047695e-01  3.810008e-01
     vertex  1.302361e-01 -7.386058e-01  3.810008e-01
   endloop
 endfacet
 facet normal  2.588190e-01 -9.659258e-01  0.000000e+00
   outer loop
     vertex  2.565151e-01 -7.047695e-01  0.000000e+00
     vertex  1.302361e-01 -7.386058e-01  3.810008e-01
     vertex  1.302361e-01 -7.386058e-01  0.000000e+00
   endloop
 endfacet
 facet normal  4.226183e-01 -9.063078e-01  0.000000e+00
   outer loop
     vertex  3.750000e-01 -6.495191e-01  0.000000e+00
     vertex  3.750000e-01 -6.495191e-01  3.810008e-01
     vertex  2.565151e-01 -7.047695e-01  3.810008e-01
   endloop
 endfacet
 facet normal  4.226183e-01 -9.063078e-01  0.000000e+00
   outer loop
     vertex  3.750000e-01 -6.495191e-01  0.000000e+00
     vertex  2.565151e-01 -7.047695e-01  3.810008e-01
     vertex  2.565151e-01 -7.047695e-01  0.000000e+00
   endloop
 endfacet
 facet normal  5.735764e-01 -8.191520e-01  0.000000e+00
   outer loop
     vertex  4.820907e-01 -5.745333e-01  0.000000e+00
     vertex  4.820907e-01 -5.745333e-01  3.810008e-01
     vertex  3.750000e-01 -6.495191e-01  3.810008e-01
   endloop
 endfacet
 facet normal  7.071068e-01 -7.071068e-01  0.000000e+00
   outer loop
     vertex  4.820907e-01 -5.745333e-01  0.000000e+00
     vertex  5.745333e-01 -4.820907e-01  3.810008e-01
     vertex  4.820907e-01 -5.745333e-01  3.810008e-01
   endloop
 endfacet
 facet normal  5.735764e-01 -8.191520e-01  0.000000e+00
   outer loop
     vertex  4.820907e-01 -5.745333e-01  0.000000e+00
     vertex  3.750000e-01 -6.495191e-01  3.810008e-01
     vertex  3.750000e-01 -6.495191e-01  0.000000e+00
   endloop
 endfacet
 facet normal  7.071068e-01 -7.071068e-01  0.000000e+00
   outer loop
     vertex  5.745333e-01 -4.820907e-01  0.000000e+00
     vertex  5.745333e-01 -4.820907e-01  3.810008e-01
     vertex  4.820907e-01 -5.745333e-01  0.000000e+00
   endloop
 endfacet
 facet normal  8.191520e-01 -5.735764e-01  0.000000e+00
   outer loop
     vertex  5.745333e-01 -4.820907e-01  0.000000e+00
     vertex  6.495191e-01 -3.750000e-01  3.810008e-01
     vertex  5.745333e-01 -4.820907e-01  3.810008e-01
   endloop
 endfacet
 facet normal  8.191520e-01 -5.735764e-01  0.000000e+00
   outer loop
     vertex  6.495191e-01 -3.750000e-01  0.000000e+00
     vertex  6.495191e-01 -3.750000e-01  3.810008e-01
     vertex  5.745333e-01 -4.820907e-01  0.000000e+00
   endloop
 endfacet
 facet normal  9.063078e-01 -4.226183e-01  0.000000e+00
   outer loop
     vertex  7.047695e-01 -2.565151e-01  0.000000e+00
     vertex  6.495191e-01 -3.750000e-01  3.810008e-01
     vertex  6.495191e-01 -3.750000e-01  0.000000e+00
   endloop
 endfacet
 facet normal  9.063078e-01 -4.226183e-01  0.000000e+00
   outer loop
     vertex  7.047695e-01 -2.565151e-01  0.000000e+00
     vertex  7.047695e-01 -2.565151e-01  3.810008e-01
     vertex  6.495191e-01 -3.750000e-01  3.810008e-01
   endloop
 endfacet
 facet normal  9.659258e-01 -2.588190e-01  0.000000e+00
   outer loop
     vertex  7.047695e-01 -2.565151e-01  0.000000e+00
     vertex  7.386058e-01 -1.302361e-01  3.810008e-01
     vertex  7.047695e-01 -2.565151e-01  3.810008e-01
   endloop
 endfacet
 facet normal  9.659258e-01 -2.588190e-01  0.000000e+00
   outer loop
     vertex  7.386058e-01 -1.302361e-01  0.000000e+00
     vertex  7.386058e-01 -1.302361e-01  3.810008e-01
     vertex  7.047695e-01 -2.565151e-01  0.000000e+00
   endloop
 endfacet
 facet normal  9.961947e-01 -8.715574e-02  0.000000e+00
   outer loop
     vertex  7.500000e-01  0.000000e+00  0.000000e+00
     vertex  7.386058e-01 -1.302361e-01  3.810008e-01
     vertex  7.386058e-01 -1.302361e-01  0.000000e+00
   endloop
 endfacet
 facet normal  9.961947e-01 -8.715574e-02  0.000000e+00
   outer loop
     vertex  7.500000e-01  0.000000e+00  0.000000e+00
     vertex  7.500000e-01  0.000000e+00  3.810008e-01
     vertex  7.386058e-01 -1.302361e-01  3.810008e-01
   endloop
 endfacet
 facet normal -9.961947e-01 -8.715574e-02  0.000000e+00
   outer loop
     vertex  2.964179e-02  5.226647e-03  0.000000e+00
     vertex  3.009906e-02  0.000000e+00  0.000000e+00
     vertex  3.009906e-02  0.000000e+00  3.810008e-01
   endloop
 endfacet
 facet normal -9.961947e-01 -8.715574e-02  0.000000e+00
   outer loop
     vertex  2.964179e-02  5.226647e-03  0.000000e+00
     vertex  3.009906e-02  0.000000e+00  3.810008e-01
     vertex  2.964179e-02  5.226647e-03  3.810008e-01
   endloop
 endfacet
 facet normal -9.659258e-01 -2.588190e-01  0.000000e+00
   outer loop
     vertex  2.828386e-02  1.029448e-02  0.000000e+00
     vertex  2.964179e-02  5.226647e-03  3.810008e-01
     vertex  2.828386e-02  1.029448e-02  3.810008e-01
   endloop
 endfacet
 facet normal -9.659258e-01 -2.588190e-01  0.000000e+00
   outer loop
     vertex  2.828386e-02  1.029448e-02  0.000000e+00
     vertex  2.964179e-02  5.226647e-03  0.000000e+00
     vertex  2.964179e-02  5.226647e-03  3.810008e-01
   endloop
 endfacet
 facet normal -9.063078e-01 -4.226183e-01  0.000000e+00
   outer loop
     vertex  2.606655e-02  1.504953e-02  0.000000e+00
     vertex  2.828386e-02  1.029448e-02  3.810008e-01
     vertex  2.606655e-02  1.504953e-02  3.810008e-01
   endloop
 endfacet
 facet normal -9.063078e-01 -4.226183e-01  0.000000e+00
   outer loop
     vertex  2.606655e-02  1.504953e-02  0.000000e+00
     vertex  2.828386e-02  1.029448e-02  0.000000e+00
     vertex  2.828386e-02  1.029448e-02  3.810008e-01
   endloop
 endfacet
 facet normal -8.191520e-01 -5.735764e-01  0.000000e+00
   outer loop
     vertex  2.305722e-02  1.934730e-02  0.000000e+00
     vertex  2.606655e-02  1.504953e-02  3.810008e-01
     vertex  2.305722e-02  1.934730e-02  3.810008e-01
   endloop
 endfacet
 facet normal -8.191520e-01 -5.735764e-01  0.000000e+00
   outer loop
     vertex  2.305722e-02  1.934730e-02  0.000000e+00
     vertex  2.606655e-02  1.504953e-02  0.000000e+00
     vertex  2.606655e-02  1.504953e-02  3.810008e-01
   endloop
 endfacet
 facet normal -7.071068e-01 -7.071068e-01  0.000000e+00
   outer loop
     vertex  1.934730e-02  2.305722e-02  0.000000e+00
     vertex  2.305722e-02  1.934730e-02  3.810008e-01
     vertex  1.934730e-02  2.305722e-02  3.810008e-01
   endloop
 endfacet
 facet normal -7.071068e-01 -7.071068e-01  0.000000e+00
   outer loop
     vertex  1.934730e-02  2.305722e-02  0.000000e+00
     vertex  2.305722e-02  1.934730e-02  0.000000e+00
     vertex  2.305722e-02  1.934730e-02  3.810008e-01
   endloop
 endfacet
 facet normal -5.735764e-01 -8.191520e-01  0.000000e+00
   outer loop
     vertex  1.504953e-02  2.606655e-02  0.000000e+00
     vertex  1.934730e-02  2.305722e-02  0.000000e+00
     vertex  1.934730e-02  2.305722e-02  3.810008e-01
   endloop
 endfacet
 facet normal -5.735764e-01 -8.191520e-01  0.000000e+00
   outer loop
     vertex  1.504953e-02  2.606655e-02  0.000000e+00
     vertex  1.934730e-02  2.305722e-02  3.810008e-01
     vertex  1.504953e-02  2.606655e-02  3.810008e-01
   endloop
 endfacet
 facet normal -4.226183e-01 -9.063078e-01  0.000000e+00
   outer loop
     vertex  1.029448e-02  2.828386e-02  0.000000e+00
     vertex  1.504953e-02  2.606655e-02  0.000000e+00
     vertex  1.504953e-02  2.606655e-02  3.810008e-01
   endloop
 endfacet
 facet normal -4.226183e-01 -9.063078e-01  0.000000e+00
   outer loop
     vertex  1.029448e-02  2.828386e-02  0.000000e+00
     vertex  1.504953e-02  2.606655e-02  3.810008e-01
     vertex  1.029448e-02  2.828386e-02  3.810008e-01
   endloop
 endfacet
 facet normal -2.588190e-01 -9.659258e-01  0.000000e+00
   outer loop
     vertex  5.226647e-03  2.964179e-02  0.000000e+00
     vertex  1.029448e-02  2.828386e-02  3.810008e-01
     vertex  5.226647e-03  2.964179e-02  3.810008e-01
   endloop
 endfacet
 facet normal -2.588190e-01 -9.659258e-01  0.000000e+00
   outer loop
     vertex  5.226647e-03  2.964179e-02  0.000000e+00
     vertex  1.029448e-02  2.828386e-02  0.000000e+00
     vertex  1.029448e-02  2.828386e-02  3.810008e-01
   endloop
 endfacet
 facet normal -8.715574e-02 -9.961947e-01  0.000000e+00
   outer loop
     vertex  1.843036e-18  3.009906e-02  0.000000e+00
     vertex  5.226647e-03  2.964179e-02  3.810008e-01
     vertex  1.843036e-18  3.009906e-02  3.810008e-01
   endloop
 endfacet
 facet normal -8.715574e-02 -9.961947e-01  0.000000e+00
   outer loop
     vertex  1.843036e-18  3.009906e-02  0.000000e+00
     vertex  5.226647e-03  2.964179e-02  0.000000e+00
     vertex  5.226647e-03  2.964179e-02  3.810008e-01
   endloop
 endfacet
 facet normal  8.715574e-02 -9.961947e-01  0.000000e+00
   outer loop
     vertex -5.226647e-03  2.964179e-02  0.000000e+00
     vertex  1.843036e-18  3.009906e-02  3.810008e-01
     vertex -5.226647e-03  2.964179e-02  3.810008e-01
   endloop
 endfacet
 facet normal  8.715574e-02 -9.961947e-01  0.000000e+00
   outer loop
     vertex -5.226647e-03  2.964179e-02  0.000000e+00
     vertex  1.843036e-18  3.009906e-02  0.000000e+00
     vertex  1.843036e-18  3.009906e-02  3.810008e-01
   endloop
 endfacet
 facet normal  2.588190e-01 -9.659258e-01  0.000000e+00
   outer loop
     vertex -1.029448e-02  2.828386e-02  0.000000e+00
     vertex -5.226647e-03  2.964179e-02  3.810008e-01
     vertex -1.029448e-02  2.828386e-02  3.810008e-01
   endloop
 endfacet
 facet normal  2.588190e-01 -9.659258e-01  0.000000e+00
   outer loop
     vertex -1.029448e-02  2.828386e-02  0.000000e+00
     vertex -5.226647e-03  2.964179e-02  0.000000e+00
     vertex -5.226647e-03  2.964179e-02  3.810008e-01
   endloop
 endfacet
 facet normal  4.226183e-01 -9.063078e-01  0.000000e+00
   outer loop
     vertex -1.504953e-02  2.606655e-02  0.000000e+00
     vertex -1.029448e-02  2.828386e-02  3.810008e-01
     vertex -1.504953e-02  2.606655e-02  3.810008e-01
   endloop
 endfacet
 facet normal  4.226183e-01 -9.063078e-01  0.000000e+00
   outer loop
     vertex -1.504953e-02  2.606655e-02  0.000000e+00
     vertex -1.029448e-02  2.828386e-02  0.000000e+00
     vertex -1.029448e-02  2.828386e-02  3.810008e-01
   endloop
 endfacet
 facet normal  5.735764e-01 -8.191520e-01  0.000000e+00
   outer loop
     vertex -1.934730e-02  2.305722e-02  0.000000e+00
     vertex -1.504953e-02  2.606655e-02  3.810008e-01
     vertex -1.934730e-02  2.305722e-02  3.810008e-01
   endloop
 endfacet
 facet normal  5.735764e-01 -8.191520e-01  0.000000e+00
   outer loop
     vertex -1.934730e-02  2.305722e-02  0.000000e+00
     vertex -1.504953e-02  2.606655e-02  0.000000e+00
     vertex -1.504953e-02  2.606655e-02  3.810008e-01
   endloop
 endfacet
 facet normal  7.071068e-01 -7.071068e-01  0.000000e+00
   outer loop
     vertex -2.305722e-02  1.934730e-02  0.000000e+00
     vertex -1.934730e-02  2.305722e-02  3.810008e-01
     vertex -2.305722e-02  1.934730e-02  3.810008e-01
   endloop
 endfacet
 facet normal  7.071068e-01 -7.071068e-01  0.000000e+00
   outer loop
     vertex -2.305722e-02  1.934730e-02  0.000000e+00
     vertex -1.934730e-02  2.305722e-02  0.000000e+00
     vertex -1.934730e-02  2.305722e-02  3.810008e-01
   endloop
 endfacet
 facet normal  8.191520e-01 -5.735764e-01  0.000000e+00
   outer loop
     vertex -2.606655e-02  1.504953e-02  0.000000e+00
     vertex -2.305722e-02  1.934730e-02  3.810008e-01
     vertex -2.606655e-02  1.504953e-02  3.810008e-01
   endloop
 endfacet
 facet normal  8.191520e-01 -5.735764e-01  0.000000e+00
   outer loop
     vertex -2.606655e-02  1.504953e-02  0.000000e+00
     vertex -2.305722e-02  1.934730e-02  0.000000e+00
     vertex -2.305722e-02  1.934730e-02  3.810008e-01
   endloop
 endfacet
 facet normal  9.063078e-01 -4.226183e-01  0.000000e+00
   outer loop
     vertex -2.828386e-02  1.029448e-02  0.000000e+00
     vertex -2.606655e-02  1.504953e-02  3.810008e-01
     vertex -2.828386e-02  1.029448e-02  3.810008e-01
   endloop
 endfacet
 facet normal  9.063078e-01 -4.226183e-01  0.000000e+00
   outer loop
     vertex -2.828386e-02  1.029448e-02  0.000000e+00
     vertex -2.606655e-02  1.504953e-02  0.000000e+00
     vertex -2.606655e-02  1.504953e-02  3.810008e-01
   endloop
 endfacet
 facet normal  9.659258e-01 -2.588190e-01  0.000000e+00
   outer loop
     vertex -2.964179e-02  5.226647e-03  0.000000e+00
     vertex -2.828386e-02  1.029448e-02  3.810008e-01
     vertex -2.964179e-02  5.226647e-03  3.810008e-01
   endloop
 endfacet
 facet normal  9.961947e-01 -8.715574e-02  0.000000e+00
   outer loop
     vertex -2.964179e-02  5.226647e-03  0.000000e+00
     vertex -2.964179e-02  5.226647e-03  3.810008e-01
     vertex -3.009906e-02  4.378608e-17  3.810008e-01
   endloop
 endfacet
 facet normal  9.659258e-01 -2.588190e-01  0.000000e+00
   outer loop
     vertex -2.964179e-02  5.226647e-03  0.000000e+00
     vertex -2.828386e-02  1.029448e-02  0.000000e+00
     vertex -2.828386e-02  1.029448e-02  3.810008e-01
   endloop
 endfacet
 facet normal  9.961947e-01 -8.715574e-02  0.000000e+00
   outer loop
     vertex -3.009906e-02  4.378608e-17  0.000000e+00
     vertex -2.964179e-02  5.226647e-03  0.000000e+00
     vertex -3.009906e-02  4.378608e-17  3.810008e-01
   endloop
 endfacet
 facet normal  9.961947e-01  8.715574e-02 -0.000000e+00
   outer loop
     vertex -2.964179e-02 -5.226647e-03  0.000000e+00
     vertex -3.009906e-02  4.378608e-17  3.810008e-01
     vertex -2.964179e-02 -5.226647e-03  3.810008e-01
   endloop
 endfacet
 facet normal  9.961947e-01  8.715574e-02  0.000000e+00
   outer loop
     vertex -2.964179e-02 -5.226647e-03  0.000000e+00
     vertex -3.009906e-02  4.378608e-17  0.000000e+00
     vertex -3.009906e-02  4.378608e-17  3.810008e-01
   endloop
 endfacet
 facet normal  9.659258e-01  2.588190e-01 -0.000000e+00
   outer loop
     vertex -2.828386e-02 -1.029448e-02  0.000000e+00
     vertex -2.964179e-02 -5.226647e-03  3.810008e-01
     vertex -2.828386e-02 -1.029448e-02  3.810008e-01
   endloop
 endfacet
 facet normal  9.659258e-01  2.588190e-01  0.000000e+00
   outer loop
     vertex -2.828386e-02 -1.029448e-02  0.000000e+00
     vertex -2.964179e-02 -5.226647e-03  0.000000e+00
     vertex -2.964179e-02 -5.226647e-03  3.810008e-01
   endloop
 endfacet
 facet normal  9.063078e-01  4.226183e-01 -0.000000e+00
   outer loop
     vertex -2.606655e-02 -1.504953e-02  0.000000e+00
     vertex -2.828386e-02 -1.029448e-02  3.810008e-01
     vertex -2.606655e-02 -1.504953e-02  3.810008e-01
   endloop
 endfacet
 facet normal  8.191520e-01  5.735764e-01 -0.000000e+00
   outer loop
     vertex -2.606655e-02 -1.504953e-02  0.000000e+00
     vertex -2.606655e-02 -1.504953e-02  3.810008e-01
     vertex -2.305722e-02 -1.934730e-02  3.810008e-01
   endloop
 endfacet
 facet normal  9.063078e-01  4.226183e-01  0.000000e+00
   outer loop
     vertex -2.606655e-02 -1.504953e-02  0.000000e+00
     vertex -2.828386e-02 -1.029448e-02  0.000000e+00
     vertex -2.828386e-02 -1.029448e-02  3.810008e-01
   endloop
 endfacet
 facet normal  8.191520e-01  5.735764e-01 -0.000000e+00
   outer loop
     vertex -2.305722e-02 -1.934730e-02  0.000000e+00
     vertex -2.606655e-02 -1.504953e-02  0.000000e+00
     vertex -2.305722e-02 -1.934730e-02  3.810008e-01
   endloop
 endfacet
 facet normal  7.071068e-01  7.071068e-01 -0.000000e+00
   outer loop
     vertex -1.934730e-02 -2.305722e-02  0.000000e+00
     vertex -2.305722e-02 -1.934730e-02  3.810008e-01
     vertex -1.934730e-02 -2.305722e-02  3.810008e-01
   endloop
 endfacet
 facet normal  5.735764e-01  8.191520e-01 -0.000000e+00
   outer loop
     vertex -1.934730e-02 -2.305722e-02  0.000000e+00
     vertex -1.934730e-02 -2.305722e-02  3.810008e-01
     vertex -1.504953e-02 -2.606655e-02  3.810008e-01
   endloop
 endfacet
 facet normal  7.071068e-01  7.071068e-01  0.000000e+00
   outer loop
     vertex -1.934730e-02 -2.305722e-02  0.000000e+00
     vertex -2.305722e-02 -1.934730e-02  0.000000e+00
     vertex -2.305722e-02 -1.934730e-02  3.810008e-01
   endloop
 endfacet
 facet normal  5.735764e-01  8.191520e-01 -0.000000e+00
   outer loop
     vertex -1.504953e-02 -2.606655e-02  0.000000e+00
     vertex -1.934730e-02 -2.305722e-02  0.000000e+00
     vertex -1.504953e-02 -2.606655e-02  3.810008e-01
   endloop
 endfacet
 facet normal  4.226183e-01  9.063078e-01 -0.000000e+00
   outer loop
     vertex -1.029448e-02 -2.828386e-02  0.000000e+00
     vertex -1.504953e-02 -2.606655e-02  3.810008e-01
     vertex -1.029448e-02 -2.828386e-02  3.810008e-01
   endloop
 endfacet
 facet normal  4.226183e-01  9.063078e-01  0.000000e+00
   outer loop
     vertex -1.029448e-02 -2.828386e-02  0.000000e+00
     vertex -1.504953e-02 -2.606655e-02  0.000000e+00
     vertex -1.504953e-02 -2.606655e-02  3.810008e-01
   endloop
 endfacet
 facet normal  2.588190e-01  9.659258e-01 -0.000000e+00
   outer loop
     vertex -5.226647e-03 -2.964179e-02  0.000000e+00
     vertex -1.029448e-02 -2.828386e-02  3.810008e-01
     vertex -5.226647e-03 -2.964179e-02  3.810008e-01
   endloop
 endfacet
 facet normal  2.588190e-01  9.659258e-01  0.000000e+00
   outer loop
     vertex -5.226647e-03 -2.964179e-02  0.000000e+00
     vertex -1.029448e-02 -2.828386e-02  0.000000e+00
     vertex -1.029448e-02 -2.828386e-02  3.810008e-01
   endloop
 endfacet
 facet normal  8.715574e-02  9.961947e-01 -0.000000e+00
   outer loop
     vertex -8.572911e-17 -3.009906e-02  0.000000e+00
     vertex -5.226647e-03 -2.964179e-02  3.810008e-01
     vertex -8.572911e-17 -3.009906e-02  3.810008e-01
   endloop
 endfacet
 facet normal  8.715574e-02  9.961947e-01  0.000000e+00
   outer loop
     vertex -8.572911e-17 -3.009906e-02  0.000000e+00
     vertex -5.226647e-03 -2.964179e-02  0.000000e+00
     vertex -5.226647e-03 -2.964179e-02  3.810008e-01
   endloop
 endfacet
 facet normal -8.715574e-02  9.961947e-01  0.000000e+00
   outer loop
     vertex  5.226647e-03 -2.964179e-02  0.000000e+00
     vertex -8.572911e-17 -3.009906e-02  3.810008e-01
     vertex  5.226647e-03 -2.964179e-02  3.810008e-01
   endloop
 endfacet
 facet normal -8.715574e-02  9.961947e-01  0.000000e+00
   outer loop
     vertex  5.226647e-03 -2.964179e-02  0.000000e+00
     vertex -8.572911e-17 -3.009906e-02  0.000000e+00
     vertex -8.572911e-17 -3.009906e-02  3.810008e-01
   endloop
 endfacet
 facet normal -2.588190e-01  9.659258e-01  0.000000e+00
   outer loop
     vertex  1.029448e-02 -2.828386e-02  0.000000e+00
     vertex  5.226647e-03 -2.964179e-02  3.810008e-01
     vertex  1.029448e-02 -2.828386e-02  3.810008e-01
   endloop
 endfacet
 facet normal -2.588190e-01  9.659258e-01  0.000000e+00
   outer loop
     vertex  1.029448e-02 -2.828386e-02  0.000000e+00
     vertex  5.226647e-03 -2.964179e-02  0.000000e+00
     vertex  5.226647e-03 -2.964179e-02  3.810008e-01
   endloop
 endfacet
 facet normal -4.226183e-01  9.063078e-01  0.000000e+00
   outer loop
     vertex  1.504953e-02 -2.606655e-02  0.000000e+00
     vertex  1.029448e-02 -2.828386e-02  3.810008e-01
     vertex  1.504953e-02 -2.606655e-02  3.810008e-01
   endloop
 endfacet
 facet normal -4.226183e-01  9.063078e-01  0.000000e+00
   outer loop
     vertex  1.504953e-02 -2.606655e-02  0.000000e+00
     vertex  1.029448e-02 -2.828386e-02  0.000000e+00
     vertex  1.029448e-02 -2.828386e-02  3.810008e-01
   endloop
 endfacet
 facet normal -5.735764e-01  8.191520e-01  0.000000e+00
   outer loop
     vertex  1.934730e-02 -2.305722e-02  0.000000e+00
     vertex  1.504953e-02 -2.606655e-02  0.000000e+00
     vertex  1.504953e-02 -2.606655e-02  3.810008e-01
   endloop
 endfacet
 facet normal -5.735764e-01  8.191520e-01  0.000000e+00
   outer loop
     vertex  1.934730e-02 -2.305722e-02  0.000000e+00
     vertex  1.504953e-02 -2.606655e-02  3.810008e-01
     vertex  1.934730e-02 -2.305722e-02  3.810008e-01
   endloop
 endfacet
 facet normal -7.071068e-01  7.071068e-01  0.000000e+00
   outer loop
     vertex  1.934730e-02 -2.305722e-02  0.000000e+00
     vertex  1.934730e-02 -2.305722e-02  3.810008e-01
     vertex  2.305722e-02 -1.934730e-02  3.810008e-01
   endloop
 endfacet
 facet normal -7.071068e-01  7.071068e-01  0.000000e+00
   outer loop
     vertex  2.305722e-02 -1.934730e-02  0.000000e+00
     vertex  1.934730e-02 -2.305722e-02  0.000000e+00
     vertex  2.305722e-02 -1.934730e-02  3.810008e-01
   endloop
 endfacet
 facet normal -8.191520e-01  5.735764e-01  0.000000e+00
   outer loop
     vertex  2.606655e-02 -1.504953e-02  0.000000e+00
     vertex  2.305722e-02 -1.934730e-02  3.810008e-01
     vertex  2.606655e-02 -1.504953e-02  3.810008e-01
   endloop
 endfacet
 facet normal -9.063078e-01  4.226183e-01  0.000000e+00
   outer loop
     vertex  2.606655e-02 -1.504953e-02  0.000000e+00
     vertex  2.606655e-02 -1.504953e-02  3.810008e-01
     vertex  2.828386e-02 -1.029448e-02  3.810008e-01
   endloop
 endfacet
 facet normal -8.191520e-01  5.735764e-01  0.000000e+00
   outer loop
     vertex  2.606655e-02 -1.504953e-02  0.000000e+00
     vertex  2.305722e-02 -1.934730e-02  0.000000e+00
     vertex  2.305722e-02 -1.934730e-02  3.810008e-01
   endloop
 endfacet
 facet normal -9.063078e-01  4.226183e-01  0.000000e+00
   outer loop
     vertex  2.828386e-02 -1.029448e-02  0.000000e+00
     vertex  2.606655e-02 -1.504953e-02  0.000000e+00
     vertex  2.828386e-02 -1.029448e-02  3.810008e-01
   endloop
 endfacet
 facet normal -9.659258e-01  2.588190e-01  0.000000e+00
   outer loop
     vertex  2.964179e-02 -5.226647e-03  0.000000e+00
     vertex  2.828386e-02 -1.029448e-02  0.000000e+00
     vertex  2.828386e-02 -1.029448e-02  3.810008e-01
   endloop
 endfacet
 facet normal -9.659258e-01  2.588190e-01  0.000000e+00
   outer loop
     vertex  2.964179e-02 -5.226647e-03  0.000000e+00
     vertex  2.828386e-02 -1.029448e-02  3.810008e-01
     vertex  2.964179e-02 -5.226647e-03  3.810008e-01
   endloop
 endfacet
 facet normal -9.961947e-01  8.715574e-02  0.000000e+00
   outer loop
     vertex  3.009906e-02  0.000000e+00  0.000000e+00
     vertex  2.964179e-02 -5.226647e-03  0.000000e+00
     vertex  2.964179e-02 -5.226647e-03  3.810008e-01
   endloop
 endfacet
 facet normal -9.961947e-01  8.715574e-02  0.000000e+00
   outer loop
     vertex  3.009906e-02  0.000000e+00  0.000000e+00
     vertex  2.964179e-02 -5.226647e-03  3.810008e-01
     vertex  3.009906e-02  0.000000e+00  3.810008e-01
   endloop
 endfacet
 facet normal  0.000000e+00  0.000000e+00 -1.000000e+00
   outer loop
     vertex -1.934730e-02 -2.305722e-02  0.000000e+00
     vertex -4.820907e-01 -5.745333e-01  0.000000e+00
     vertex -5.745333e-01 -4.820907e-01  0.000000e+00
   endloop
 endfacet
 facet normal -0.000000e+00  0.000000e+00 -1.000000e+00
   outer loop
     vertex -1.934730e-02 -2.305722e-02  0.000000e+00
     vertex -5.745333e-01 -4.820907e-01  0.000000e+00
     vertex -2.305722e-02 -1.934730e-02  0.000000e+00
   endloop
 endfacet
 facet normal -0.000000e+00  0.000000e+00 -1.000000e+00
   outer loop
     vertex -1.504953e-02 -2.606655e-02  0.000000e+00
     vertex -4.820907e-01 -5.745333e-01  0.000000e+00
     vertex -1.934730e-02 -2.305722e-02  0.000000e+00
   endloop
 endfacet
 facet normal  0.000000e+00  0.000000e+00 -1.000000e+00
   outer loop
     vertex -1.504953e-02 -2.606655e-02  0.000000e+00
     vertex -3.750000e-01 -6.495191e-01  0.000000e+00
     vertex -4.820907e-01 -5.745333e-01  0.000000e+00
   endloop
 endfacet
 facet normal  0.000000e+00  0.000000e+00 -1.000000e+00
   outer loop
     vertex -2.606655e-02 -1.504953e-02  0.000000e+00
     vertex -5.745333e-01 -4.820907e-01  0.000000e+00
     vertex -6.495191e-01 -3.750000e-01  0.000000e+00
   endloop
 endfacet
 facet normal  0.000000e+00 -0.000000e+00 -1.000000e+00
   outer loop
     vertex -2.606655e-02 -1.504953e-02  0.000000e+00
     vertex -2.305722e-02 -1.934730e-02  0.000000e+00
     vertex -5.745333e-01 -4.820907e-01  0.000000e+00
   endloop
 endfacet
 facet normal -0.000000e+00  0.000000e+00 -1.000000e+00
   outer loop
     vertex -1.029448e-02 -2.828386e-02  0.000000e+00
     vertex -3.750000e-01 -6.495191e-01  0.000000e+00
     vertex -1.504953e-02 -2.606655e-02  0.000000e+00
   endloop
 endfacet
 facet normal  0.000000e+00  0.000000e+00 -1.000000e+00
   outer loop
     vertex -1.029448e-02 -2.828386e-02  0.000000e+00
     vertex -2.565151e-01 -7.047695e-01  0.000000e+00
     vertex -3.750000e-01 -6.495191e-01  0.000000e+00
   endloop
 endfacet
 facet normal  0.000000e+00  0.000000e+00 -1.000000e+00
   outer loop
     vertex -2.828386e-02 -1.029448e-02  0.000000e+00
     vertex -6.495191e-01 -3.750000e-01  0.000000e+00
     vertex -7.047695e-01 -2.565151e-01  0.000000e+00
   endloop
 endfacet
 facet normal  0.000000e+00 -0.000000e+00 -1.000000e+00
   outer loop
     vertex -2.828386e-02 -1.029448e-02  0.000000e+00
     vertex -2.606655e-02 -1.504953e-02  0.000000e+00
     vertex -6.495191e-01 -3.750000e-01  0.000000e+00
   endloop
 endfacet
 facet normal -0.000000e+00  0.000000e+00 -1.000000e+00
   outer loop
     vertex -5.226647e-03 -2.964179e-02  0.000000e+00
     vertex -2.565151e-01 -7.047695e-01  0.000000e+00
     vertex -1.029448e-02 -2.828386e-02  0.000000e+00
   endloop
 endfacet
 facet normal  0.000000e+00  0.000000e+00 -1.000000e+00
   outer loop
     vertex -5.226647e-03 -2.964179e-02  0.000000e+00
     vertex -1.302361e-01 -7.386058e-01  0.000000e+00
     vertex -2.565151e-01 -7.047695e-01  0.000000e+00
   endloop
 endfacet
 facet normal  0.000000e+00 -0.000000e+00 -1.000000e+00
   outer loop
     vertex -2.964179e-02 -5.226647e-03  0.000000e+00
     vertex -2.828386e-02 -1.029448e-02  0.000000e+00
     vertex -7.047695e-01 -2.565151e-01  0.000000e+00
   endloop
 endfacet
 facet normal  0.000000e+00  0.000000e+00 -1.000000e+00
   outer loop
     vertex -2.964179e-02 -5.226647e-03  0.000000e+00
     vertex -7.047695e-01 -2.565151e-01  0.000000e+00
     vertex -7.386058e-01 -1.302361e-01  0.000000e+00
   endloop
 endfacet
 facet normal  0.000000e+00  0.000000e+00 -1.000000e+00
   outer loop
     vertex -8.572911e-17 -3.009906e-02  0.000000e+00
     vertex -2.136174e-15 -7.500000e-01  0.000000e+00
     vertex -1.302361e-01 -7.386058e-01  0.000000e+00
   endloop
 endfacet
 facet normal -0.000000e+00  0.000000e+00 -1.000000e+00
   outer loop
     vertex -8.572911e-17 -3.009906e-02  0.000000e+00
     vertex -1.302361e-01 -7.386058e-01  0.000000e+00
     vertex -5.226647e-03 -2.964179e-02  0.000000e+00
   endloop
 endfacet
 facet normal  0.000000e+00 -0.000000e+00 -1.000000e+00
   outer loop
     vertex -3.009906e-02  4.378608e-17  0.000000e+00
     vertex -2.964179e-02 -5.226647e-03  0.000000e+00
     vertex -7.386058e-01 -1.302361e-01  0.000000e+00
   endloop
 endfacet
 facet normal -0.000000e+00  0.000000e+00 -1.000000e+00
   outer loop
     vertex -3.009906e-02  4.378608e-17  0.000000e+00
     vertex -7.386058e-01 -1.302361e-01  0.000000e+00
     vertex -7.500000e-01  1.091049e-15  0.000000e+00
   endloop
 endfacet
 facet normal  0.000000e+00 -0.000000e+00 -1.000000e+00
   outer loop
     vertex  5.226647e-03 -2.964179e-02  0.000000e+00
     vertex  1.302361e-01 -7.386058e-01  0.000000e+00
     vertex -2.136174e-15 -7.500000e-01  0.000000e+00
   endloop
 endfacet
 facet normal  0.000000e+00  0.000000e+00 -1.000000e+00
   outer loop
     vertex  5.226647e-03 -2.964179e-02  0.000000e+00
     vertex -2.136174e-15 -7.500000e-01  0.000000e+00
     vertex -8.572911e-17 -3.009906e-02  0.000000e+00
   endloop
 endfacet
 facet normal  0.000000e+00  0.000000e+00 -1.000000e+00
   outer loop
     vertex -2.964179e-02  5.226647e-03  0.000000e+00
     vertex -3.009906e-02  4.378608e-17  0.000000e+00
     vertex -7.500000e-01  1.091049e-15  0.000000e+00
   endloop
 endfacet
 facet normal -0.000000e+00  0.000000e+00 -1.000000e+00
   outer loop
     vertex -2.964179e-02  5.226647e-03  0.000000e+00
     vertex -7.500000e-01  1.091049e-15  0.000000e+00
     vertex -7.386058e-01  1.302361e-01  0.000000e+00
   endloop
 endfacet
 facet normal  0.000000e+00  0.000000e+00 -1.000000e+00
   outer loop
     vertex  1.029448e-02 -2.828386e-02  0.000000e+00
     vertex  2.565151e-01 -7.047695e-01  0.000000e+00
     vertex  1.302361e-01 -7.386058e-01  0.000000e+00
   endloop
 endfacet
 facet normal  0.000000e+00 -0.000000e+00 -1.000000e+00
   outer loop
     vertex  1.029448e-02 -2.828386e-02  0.000000e+00
     vertex  1.302361e-01 -7.386058e-01  0.000000e+00
     vertex  5.226647e-03 -2.964179e-02  0.000000e+00
   endloop
 endfacet
 facet normal  0.000000e+00  0.000000e+00 -1.000000e+00
   outer loop
     vertex -2.828386e-02  1.029448e-02  0.000000e+00
     vertex -7.386058e-01  1.302361e-01  0.000000e+00
     vertex -7.047695e-01  2.565151e-01  0.000000e+00
   endloop
 endfacet
 facet normal -0.000000e+00  0.000000e+00 -1.000000e+00
   outer loop
     vertex -2.828386e-02  1.029448e-02  0.000000e+00
     vertex -2.964179e-02  5.226647e-03  0.000000e+00
     vertex -7.386058e-01  1.302361e-01  0.000000e+00
   endloop
 endfacet
 facet normal -0.000000e+00  0.000000e+00 -1.000000e+00
   outer loop
     vertex -2.606655e-02  1.504953e-02  0.000000e+00
     vertex -2.828386e-02  1.029448e-02  0.000000e+00
     vertex -7.047695e-01  2.565151e-01  0.000000e+00
   endloop
 endfacet
 facet normal  0.000000e+00  0.000000e+00 -1.000000e+00
   outer loop
     vertex -2.606655e-02  1.504953e-02  0.000000e+00
     vertex -7.047695e-01  2.565151e-01  0.000000e+00
     vertex -6.495191e-01  3.750000e-01  0.000000e+00
   endloop
 endfacet
 facet normal  0.000000e+00  0.000000e+00 -1.000000e+00
   outer loop
     vertex  1.504953e-02 -2.606655e-02  0.000000e+00
     vertex  3.750000e-01 -6.495191e-01  0.000000e+00
     vertex  2.565151e-01 -7.047695e-01  0.000000e+00
   endloop
 endfacet
 facet normal  0.000000e+00 -0.000000e+00 -1.000000e+00
   outer loop
     vertex  1.504953e-02 -2.606655e-02  0.000000e+00
     vertex  2.565151e-01 -7.047695e-01  0.000000e+00
     vertex  1.029448e-02 -2.828386e-02  0.000000e+00
   endloop
 endfacet
 facet normal  0.000000e+00  0.000000e+00 -1.000000e+00
   outer loop
     vertex  1.934730e-02 -2.305722e-02  0.000000e+00
     vertex  4.820907e-01 -5.745333e-01  0.000000e+00
     vertex  3.750000e-01 -6.495191e-01  0.000000e+00
   endloop
 endfacet
 facet normal  0.000000e+00 -0.000000e+00 -1.000000e+00
   outer loop
     vertex  1.934730e-02 -2.305722e-02  0.000000e+00
     vertex  3.750000e-01 -6.495191e-01  0.000000e+00
     vertex  1.504953e-02 -2.606655e-02  0.000000e+00
   endloop
 endfacet
 facet normal  0.000000e+00  0.000000e+00 -1.000000e+00
   outer loop
     vertex -2.305722e-02  1.934730e-02  0.000000e+00
     vertex -6.495191e-01  3.750000e-01  0.000000e+00
     vertex -5.745333e-01  4.820907e-01  0.000000e+00
   endloop
 endfacet
 facet normal -0.000000e+00  0.000000e+00 -1.000000e+00
   outer loop
     vertex -2.305722e-02  1.934730e-02  0.000000e+00
     vertex -2.606655e-02  1.504953e-02  0.000000e+00
     vertex -6.495191e-01  3.750000e-01  0.000000e+00
   endloop
 endfacet
 facet normal -0.000000e+00  0.000000e+00 -1.000000e+00
   outer loop
     vertex -1.934730e-02  2.305722e-02  0.000000e+00
     vertex -2.305722e-02  1.934730e-02  0.000000e+00
     vertex -5.745333e-01  4.820907e-01  0.000000e+00
   endloop
 endfacet
 facet normal -0.000000e+00  0.000000e+00 -1.000000e+00
   outer loop
     vertex  5.745333e-01 -4.820907e-01  0.000000e+00
     vertex  4.820907e-01 -5.745333e-01  0.000000e+00
     vertex  1.934730e-02 -2.305722e-02  0.000000e+00
   endloop
 endfacet
 facet normal  0.000000e+00  0.000000e+00 -1.000000e+00
   outer loop
     vertex  5.745333e-01 -4.820907e-01  0.000000e+00
     vertex  1.934730e-02 -2.305722e-02  0.000000e+00
     vertex  2.305722e-02 -1.934730e-02  0.000000e+00
   endloop
 endfacet
 facet normal  0.000000e+00  0.000000e+00 -1.000000e+00
   outer loop
     vertex  5.745333e-01 -4.820907e-01  0.000000e+00
     vertex  2.305722e-02 -1.934730e-02  0.000000e+00
     vertex  2.606655e-02 -1.504953e-02  0.000000e+00
   endloop
 endfacet
 facet normal  0.000000e+00 -0.000000e+00 -1.000000e+00
   outer loop
     vertex -4.820907e-01  5.745333e-01  0.000000e+00
     vertex -1.934730e-02  2.305722e-02  0.000000e+00
     vertex -5.745333e-01  4.820907e-01  0.000000e+00
   endloop
 endfacet
 facet normal -0.000000e+00  0.000000e+00 -1.000000e+00
   outer loop
     vertex  6.495191e-01 -3.750000e-01  0.000000e+00
     vertex  5.745333e-01 -4.820907e-01  0.000000e+00
     vertex  2.606655e-02 -1.504953e-02  0.000000e+00
   endloop
 endfacet
 facet normal  0.000000e+00  0.000000e+00 -1.000000e+00
   outer loop
     vertex -3.750000e-01  6.495191e-01  0.000000e+00
     vertex -1.029448e-02  2.828386e-02  0.000000e+00
     vertex -1.504953e-02  2.606655e-02  0.000000e+00
   endloop
 endfacet
 facet normal  0.000000e+00  0.000000e+00 -1.000000e+00
   outer loop
     vertex -3.750000e-01  6.495191e-01  0.000000e+00
     vertex -1.504953e-02  2.606655e-02  0.000000e+00
     vertex -1.934730e-02  2.305722e-02  0.000000e+00
   endloop
 endfacet
 facet normal  0.000000e+00 -0.000000e+00 -1.000000e+00
   outer loop
     vertex -3.750000e-01  6.495191e-01  0.000000e+00
     vertex -1.934730e-02  2.305722e-02  0.000000e+00
     vertex -4.820907e-01  5.745333e-01  0.000000e+00
   endloop
 endfacet
 facet normal -0.000000e+00  0.000000e+00 -1.000000e+00
   outer loop
     vertex  7.047695e-01 -2.565151e-01  0.000000e+00
     vertex  6.495191e-01 -3.750000e-01  0.000000e+00
     vertex  2.606655e-02 -1.504953e-02  0.000000e+00
   endloop
 endfacet
 facet normal  0.000000e+00  0.000000e+00 -1.000000e+00
   outer loop
     vertex  7.047695e-01 -2.565151e-01  0.000000e+00
     vertex  2.606655e-02 -1.504953e-02  0.000000e+00
     vertex  2.828386e-02 -1.029448e-02  0.000000e+00
   endloop
 endfacet
 facet normal  0.000000e+00 -0.000000e+00 -1.000000e+00
   outer loop
     vertex -2.565151e-01  7.047695e-01  0.000000e+00
     vertex -1.029448e-02  2.828386e-02  0.000000e+00
     vertex -3.750000e-01  6.495191e-01  0.000000e+00
   endloop
 endfacet
 facet normal  0.000000e+00  0.000000e+00 -1.000000e+00
   outer loop
     vertex  7.386058e-01 -1.302361e-01  0.000000e+00
     vertex  2.828386e-02 -1.029448e-02  0.000000e+00
     vertex  2.964179e-02 -5.226647e-03  0.000000e+00
   endloop
 endfacet
 facet normal  0.000000e+00  0.000000e+00 -1.000000e+00
   outer loop
     vertex  7.386058e-01 -1.302361e-01  0.000000e+00
     vertex  2.964179e-02 -5.226647e-03  0.000000e+00
     vertex  3.009906e-02  0.000000e+00  0.000000e+00
   endloop
 endfacet
 facet normal -0.000000e+00  0.000000e+00 -1.000000e+00
   outer loop
     vertex  7.386058e-01 -1.302361e-01  0.000000e+00
     vertex  7.047695e-01 -2.565151e-01  0.000000e+00
     vertex  2.828386e-02 -1.029448e-02  0.000000e+00
   endloop
 endfacet
 facet normal  0.000000e+00  0.000000e+00 -1.000000e+00
   outer loop
     vertex -1.302361e-01  7.386058e-01  0.000000e+00
     vertex -5.226647e-03  2.964179e-02  0.000000e+00
     vertex -1.029448e-02  2.828386e-02  0.000000e+00
   endloop
 endfacet
 facet normal  0.000000e+00 -0.000000e+00 -1.000000e+00
   outer loop
     vertex -1.302361e-01  7.386058e-01  0.000000e+00
     vertex -1.029448e-02  2.828386e-02  0.000000e+00
     vertex -2.565151e-01  7.047695e-01  0.000000e+00
   endloop
 endfacet
 facet normal  0.000000e+00  0.000000e+00 -1.000000e+00
   outer loop
     vertex  7.500000e-01  0.000000e+00  0.000000e+00
     vertex  3.009906e-02  0.000000e+00  0.000000e+00
     vertex  2.964179e-02  5.226647e-03  0.000000e+00
   endloop
 endfacet
 facet normal -0.000000e+00  0.000000e+00 -1.000000e+00
   outer loop
     vertex  7.500000e-01  0.000000e+00  0.000000e+00
     vertex  7.386058e-01 -1.302361e-01  0.000000e+00
     vertex  3.009906e-02  0.000000e+00  0.000000e+00
   endloop
 endfacet
 facet normal  0.000000e+00  0.000000e+00 -1.000000e+00
   outer loop
     vertex  4.592425e-17  7.500000e-01  0.000000e+00
     vertex  1.843036e-18  3.009906e-02  0.000000e+00
     vertex -5.226647e-03  2.964179e-02  0.000000e+00
   endloop
 endfacet
 facet normal  0.000000e+00  0.000000e+00 -1.000000e+00
   outer loop
     vertex  4.592425e-17  7.500000e-01  0.000000e+00
     vertex -5.226647e-03  2.964179e-02  0.000000e+00
     vertex -1.302361e-01  7.386058e-01  0.000000e+00
   endloop
 endfacet
 facet normal  0.000000e+00  0.000000e+00 -1.000000e+00
   outer loop
     vertex  7.386058e-01  1.302361e-01  0.000000e+00
     vertex  2.964179e-02  5.226647e-03  0.000000e+00
     vertex  2.828386e-02  1.029448e-02  0.000000e+00
   endloop
 endfacet
 facet normal  0.000000e+00 -0.000000e+00 -1.000000e+00
   outer loop
     vertex  7.386058e-01  1.302361e-01  0.000000e+00
     vertex  7.500000e-01  0.000000e+00  0.000000e+00
     vertex  2.964179e-02  5.226647e-03  0.000000e+00
   endloop
 endfacet
 facet normal  0.000000e+00  0.000000e+00 -1.000000e+00
   outer loop
     vertex  1.302361e-01  7.386058e-01  0.000000e+00
     vertex  5.226647e-03  2.964179e-02  0.000000e+00
     vertex  1.843036e-18  3.009906e-02  0.000000e+00
   endloop
 endfacet
 facet normal -0.000000e+00  0.000000e+00 -1.000000e+00
   outer loop
     vertex  1.302361e-01  7.386058e-01  0.000000e+00
     vertex  1.843036e-18  3.009906e-02  0.000000e+00
     vertex  4.592425e-17  7.500000e-01  0.000000e+00
   endloop
 endfacet
 facet normal  0.000000e+00 -0.000000e+00 -1.000000e+00
   outer loop
     vertex  7.047695e-01  2.565151e-01  0.000000e+00
     vertex  7.386058e-01  1.302361e-01  0.000000e+00
     vertex  2.828386e-02  1.029448e-02  0.000000e+00
   endloop
 endfacet
 facet normal -0.000000e+00  0.000000e+00 -1.000000e+00
   outer loop
     vertex  2.565151e-01  7.047695e-01  0.000000e+00
     vertex  5.226647e-03  2.964179e-02  0.000000e+00
     vertex  1.302361e-01  7.386058e-01  0.000000e+00
   endloop
 endfacet
 facet normal  0.000000e+00  0.000000e+00 -1.000000e+00
   outer loop
     vertex  2.565151e-01  7.047695e-01  0.000000e+00
     vertex  1.504953e-02  2.606655e-02  0.000000e+00
     vertex  1.029448e-02  2.828386e-02  0.000000e+00
   endloop
 endfacet
 facet normal  0.000000e+00  0.000000e+00 -1.000000e+00
   outer loop
     vertex  2.565151e-01  7.047695e-01  0.000000e+00
     vertex  1.029448e-02  2.828386e-02  0.000000e+00
     vertex  5.226647e-03  2.964179e-02  0.000000e+00
   endloop
 endfacet
 facet normal -0.000000e+00  0.000000e+00 -1.000000e+00
   outer loop
     vertex  3.750000e-01  6.495191e-01  0.000000e+00
     vertex  1.504953e-02  2.606655e-02  0.000000e+00
     vertex  2.565151e-01  7.047695e-01  0.000000e+00
   endloop
 endfacet
 facet normal  0.000000e+00  0.000000e+00 -1.000000e+00
   outer loop
     vertex  3.750000e-01  6.495191e-01  0.000000e+00
     vertex  1.934730e-02  2.305722e-02  0.000000e+00
     vertex  1.504953e-02  2.606655e-02  0.000000e+00
   endloop
 endfacet
 facet normal  0.000000e+00  0.000000e+00 -1.000000e+00
   outer loop
     vertex  6.495191e-01  3.750000e-01  0.000000e+00
     vertex  2.828386e-02  1.029448e-02  0.000000e+00
     vertex  2.606655e-02  1.504953e-02  0.000000e+00
   endloop
 endfacet
 facet normal  0.000000e+00 -0.000000e+00 -1.000000e+00
   outer loop
     vertex  6.495191e-01  3.750000e-01  0.000000e+00
     vertex  7.047695e-01  2.565151e-01  0.000000e+00
     vertex  2.828386e-02  1.029448e-02  0.000000e+00
   endloop
 endfacet
 facet normal -0.000000e+00  0.000000e+00 -1.000000e+00
   outer loop
     vertex  4.820907e-01  5.745333e-01  0.000000e+00
     vertex  1.934730e-02  2.305722e-02  0.000000e+00
     vertex  3.750000e-01  6.495191e-01  0.000000e+00
   endloop
 endfacet
 facet normal  0.000000e+00 -0.000000e+00 -1.000000e+00
   outer loop
     vertex  5.745333e-01  4.820907e-01  0.000000e+00
     vertex  6.495191e-01  3.750000e-01  0.000000e+00
     vertex  2.606655e-02  1.504953e-02  0.000000e+00
   endloop
 endfacet
 facet normal  0.000000e+00  0.000000e+00 -1.000000e+00
   outer loop
     vertex  5.745333e-01  4.820907e-01  0.000000e+00
     vertex  2.606655e-02  1.504953e-02  0.000000e+00
     vertex  2.305722e-02  1.934730e-02  0.000000e+00
   endloop
 endfacet
 facet normal  0.000000e+00  0.000000e+00 -1.000000e+00
   outer loop
     vertex  5.745333e-01  4.820907e-01  0.000000e+00
     vertex  2.305722e-02  1.934730e-02  0.000000e+00
     vertex  1.934730e-02  2.305722e-02  0.000000e+00
   endloop
 endfacet
 facet normal -0.000000e+00  0.000000e+00 -1.000000e+00
   outer loop
     vertex  5.745333e-01  4.820907e-01  0.000000e+00
     vertex  1.934730e-02  2.305722e-02  0.000000e+00
     vertex  4.820907e-01  5.745333e-01  0.000000e+00
   endloop
 endfacet
 facet normal  0.000000e+00  0.000000e+00  1.000000e+00
   outer loop
     vertex -1.934730e-02 -2.305722e-02  3.810008e-01
     vertex -5.745333e-01 -4.820907e-01  3.810008e-01
     vertex -4.820907e-01 -5.745333e-01  3.810008e-01
   endloop
 endfacet
 facet normal  0.000000e+00  0.000000e+00  1.000000e+00
   outer loop
     vertex -1.934730e-02 -2.305722e-02  3.810008e-01
     vertex -2.305722e-02 -1.934730e-02  3.810008e-01
     vertex -5.745333e-01 -4.820907e-01  3.810008e-01
   endloop
 endfacet
 facet normal  0.000000e+00  0.000000e+00  1.000000e+00
   outer loop
     vertex -1.504953e-02 -2.606655e-02  3.810008e-01
     vertex -1.934730e-02 -2.305722e-02  3.810008e-01
     vertex -4.820907e-01 -5.745333e-01  3.810008e-01
   endloop
 endfacet
 facet normal  0.000000e+00  0.000000e+00  1.000000e+00
   outer loop
     vertex -1.504953e-02 -2.606655e-02  3.810008e-01
     vertex -4.820907e-01 -5.745333e-01  3.810008e-01
     vertex -3.750000e-01 -6.495191e-01  3.810008e-01
   endloop
 endfacet
 facet normal  0.000000e+00  0.000000e+00  1.000000e+00
   outer loop
     vertex -2.606655e-02 -1.504953e-02  3.810008e-01
     vertex -6.495191e-01 -3.750000e-01  3.810008e-01
     vertex -5.745333e-01 -4.820907e-01  3.810008e-01
   endloop
 endfacet
 facet normal  0.000000e+00  0.000000e+00  1.000000e+00
   outer loop
     vertex -2.606655e-02 -1.504953e-02  3.810008e-01
     vertex -5.745333e-01 -4.820907e-01  3.810008e-01
     vertex -2.305722e-02 -1.934730e-02  3.810008e-01
   endloop
 endfacet
 facet normal  0.000000e+00  0.000000e+00  1.000000e+00
   outer loop
     vertex -1.029448e-02 -2.828386e-02  3.810008e-01
     vertex -1.504953e-02 -2.606655e-02  3.810008e-01
     vertex -3.750000e-01 -6.495191e-01  3.810008e-01
   endloop
 endfacet
 facet normal  0.000000e+00  0.000000e+00  1.000000e+00
   outer loop
     vertex -1.029448e-02 -2.828386e-02  3.810008e-01
     vertex -3.750000e-01 -6.495191e-01  3.810008e-01
     vertex -2.565151e-01 -7.047695e-01  3.810008e-01
   endloop
 endfacet
 facet normal  0.000000e+00  0.000000e+00  1.000000e+00
   outer loop
     vertex -2.828386e-02 -1.029448e-02  3.810008e-01
     vertex -7.047695e-01 -2.565151e-01  3.810008e-01
     vertex -6.495191e-01 -3.750000e-01  3.810008e-01
   endloop
 endfacet
 facet normal  0.000000e+00  0.000000e+00  1.000000e+00
   outer loop
     vertex -2.828386e-02 -1.029448e-02  3.810008e-01
     vertex -6.495191e-01 -3.750000e-01  3.810008e-01
     vertex -2.606655e-02 -1.504953e-02  3.810008e-01
   endloop
 endfacet
 facet normal  0.000000e+00  0.000000e+00  1.000000e+00
   outer loop
     vertex -5.226647e-03 -2.964179e-02  3.810008e-01
     vertex -1.029448e-02 -2.828386e-02  3.810008e-01
     vertex -2.565151e-01 -7.047695e-01  3.810008e-01
   endloop
 endfacet
 facet normal  0.000000e+00  0.000000e+00  1.000000e+00
   outer loop
     vertex -5.226647e-03 -2.964179e-02  3.810008e-01
     vertex -2.565151e-01 -7.047695e-01  3.810008e-01
     vertex -1.302361e-01 -7.386058e-01  3.810008e-01
   endloop
 endfacet
 facet normal  0.000000e+00  0.000000e+00  1.000000e+00
   outer loop
     vertex -2.964179e-02 -5.226647e-03  3.810008e-01
     vertex -7.047695e-01 -2.565151e-01  3.810008e-01
     vertex -2.828386e-02 -1.029448e-02  3.810008e-01
   endloop
 endfacet
 facet normal  0.000000e+00  0.000000e+00  1.000000e+00
   outer loop
     vertex -2.964179e-02 -5.226647e-03  3.810008e-01
     vertex -7.386058e-01 -1.302361e-01  3.810008e-01
     vertex -7.047695e-01 -2.565151e-01  3.810008e-01
   endloop
 endfacet
 facet normal  0.000000e+00  0.000000e+00  1.000000e+00
   outer loop
     vertex -8.572911e-17 -3.009906e-02  3.810008e-01
     vertex -1.302361e-01 -7.386058e-01  3.810008e-01
     vertex -2.136174e-15 -7.500000e-01  3.810008e-01
   endloop
 endfacet
 facet normal  0.000000e+00  0.000000e+00  1.000000e+00
   outer loop
     vertex -8.572911e-17 -3.009906e-02  3.810008e-01
     vertex -5.226647e-03 -2.964179e-02  3.810008e-01
     vertex -1.302361e-01 -7.386058e-01  3.810008e-01
   endloop
 endfacet
 facet normal  0.000000e+00  0.000000e+00  1.000000e+00
   outer loop
     vertex -3.009906e-02  4.378608e-17  3.810008e-01
     vertex -7.386058e-01 -1.302361e-01  3.810008e-01
     vertex -2.964179e-02 -5.226647e-03  3.810008e-01
   endloop
 endfacet
 facet normal  0.000000e+00  0.000000e+00  1.000000e+00
   outer loop
     vertex -3.009906e-02  4.378608e-17  3.810008e-01
     vertex -7.500000e-01  1.091049e-15  3.810008e-01
     vertex -7.386058e-01 -1.302361e-01  3.810008e-01
   endloop
 endfacet
 facet normal  0.000000e+00  0.000000e+00  1.000000e+00
   outer loop
     vertex  5.226647e-03 -2.964179e-02  3.810008e-01
     vertex -2.136174e-15 -7.500000e-01  3.810008e-01
     vertex  1.302361e-01 -7.386058e-01  3.810008e-01
   endloop
 endfacet
 facet normal  0.000000e+00  0.000000e+00  1.000000e+00
   outer loop
     vertex  5.226647e-03 -2.964179e-02  3.810008e-01
     vertex -8.572911e-17 -3.009906e-02  3.810008e-01
     vertex -2.136174e-15 -7.500000e-01  3.810008e-01
   endloop
 endfacet
 facet normal  0.000000e+00  0.000000e+00  1.000000e+00
   outer loop
     vertex -2.964179e-02  5.226647e-03  3.810008e-01
     vertex -7.500000e-01  1.091049e-15  3.810008e-01
     vertex -3.009906e-02  4.378608e-17  3.810008e-01
   endloop
 endfacet
 facet normal  0.000000e+00  0.000000e+00  1.000000e+00
   outer loop
     vertex -2.964179e-02  5.226647e-03  3.810008e-01
     vertex -7.386058e-01  1.302361e-01  3.810008e-01
     vertex -7.500000e-01  1.091049e-15  3.810008e-01
   endloop
 endfacet
 facet normal  0.000000e+00  0.000000e+00  1.000000e+00
   outer loop
     vertex  1.029448e-02 -2.828386e-02  3.810008e-01
     vertex  1.302361e-01 -7.386058e-01  3.810008e-01
     vertex  2.565151e-01 -7.047695e-01  3.810008e-01
   endloop
 endfacet
 facet normal  0.000000e+00  0.000000e+00  1.000000e+00
   outer loop
     vertex  1.029448e-02 -2.828386e-02  3.810008e-01
     vertex  5.226647e-03 -2.964179e-02  3.810008e-01
     vertex  1.302361e-01 -7.386058e-01  3.810008e-01
   endloop
 endfacet
 facet normal  0.000000e+00  0.000000e+00  1.000000e+00
   outer loop
     vertex -2.828386e-02  1.029448e-02  3.810008e-01
     vertex -7.047695e-01  2.565151e-01  3.810008e-01
     vertex -7.386058e-01  1.302361e-01  3.810008e-01
   endloop
 endfacet
 facet normal  0.000000e+00  0.000000e+00  1.000000e+00
   outer loop
     vertex -2.828386e-02  1.029448e-02  3.810008e-01
     vertex -7.386058e-01  1.302361e-01  3.810008e-01
     vertex -2.964179e-02  5.226647e-03  3.810008e-01
   endloop
 endfacet
 facet normal  0.000000e+00  0.000000e+00  1.000000e+00
   outer loop
     vertex -2.606655e-02  1.504953e-02  3.810008e-01
     vertex -7.047695e-01  2.565151e-01  3.810008e-01
     vertex -2.828386e-02  1.029448e-02  3.810008e-01
   endloop
 endfacet
 facet normal  0.000000e+00  0.000000e+00  1.000000e+00
   outer loop
     vertex -2.606655e-02  1.504953e-02  3.810008e-01
     vertex -6.495191e-01  3.750000e-01  3.810008e-01
     vertex -7.047695e-01  2.565151e-01  3.810008e-01
   endloop
 endfacet
 facet normal  0.000000e+00  0.000000e+00  1.000000e+00
   outer loop
     vertex  1.504953e-02 -2.606655e-02  3.810008e-01
     vertex  2.565151e-01 -7.047695e-01  3.810008e-01
     vertex  3.750000e-01 -6.495191e-01  3.810008e-01
   endloop
 endfacet
 facet normal  0.000000e+00  0.000000e+00  1.000000e+00
   outer loop
     vertex  1.504953e-02 -2.606655e-02  3.810008e-01
     vertex  1.029448e-02 -2.828386e-02  3.810008e-01
     vertex  2.565151e-01 -7.047695e-01  3.810008e-01
   endloop
 endfacet
 facet normal  0.000000e+00  0.000000e+00  1.000000e+00
   outer loop
     vertex  1.934730e-02 -2.305722e-02  3.810008e-01
     vertex  3.750000e-01 -6.495191e-01  3.810008e-01
     vertex  4.820907e-01 -5.745333e-01  3.810008e-01
   endloop
 endfacet
 facet normal  0.000000e+00  0.000000e+00  1.000000e+00
   outer loop
     vertex  1.934730e-02 -2.305722e-02  3.810008e-01
     vertex  1.504953e-02 -2.606655e-02  3.810008e-01
     vertex  3.750000e-01 -6.495191e-01  3.810008e-01
   endloop
 endfacet
 facet normal  0.000000e+00  0.000000e+00  1.000000e+00
   outer loop
     vertex -2.305722e-02  1.934730e-02  3.810008e-01
     vertex -5.745333e-01  4.820907e-01  3.810008e-01
     vertex -6.495191e-01  3.750000e-01  3.810008e-01
   endloop
 endfacet
 facet normal  0.000000e+00  0.000000e+00  1.000000e+00
   outer loop
     vertex -2.305722e-02  1.934730e-02  3.810008e-01
     vertex -6.495191e-01  3.750000e-01  3.810008e-01
     vertex -2.606655e-02  1.504953e-02  3.810008e-01
   endloop
 endfacet
 facet normal  0.000000e+00  0.000000e+00  1.000000e+00
   outer loop
     vertex -1.934730e-02  2.305722e-02  3.810008e-01
     vertex -5.745333e-01  4.820907e-01  3.810008e-01
     vertex -2.305722e-02  1.934730e-02  3.810008e-01
   endloop
 endfacet
 facet normal  0.000000e+00  0.000000e+00  1.000000e+00
   outer loop
     vertex  5.745333e-01 -4.820907e-01  3.810008e-01
     vertex  1.934730e-02 -2.305722e-02  3.810008e-01
     vertex  4.820907e-01 -5.745333e-01  3.810008e-01
   endloop
 endfacet
 facet normal  0.000000e+00  0.000000e+00  1.000000e+00
   outer loop
     vertex  5.745333e-01 -4.820907e-01  3.810008e-01
     vertex  2.305722e-02 -1.934730e-02  3.810008e-01
     vertex  1.934730e-02 -2.305722e-02  3.810008e-01
   endloop
 endfacet
 facet normal  0.000000e+00  0.000000e+00  1.000000e+00
   outer loop
     vertex  5.745333e-01 -4.820907e-01  3.810008e-01
     vertex  2.606655e-02 -1.504953e-02  3.810008e-01
     vertex  2.305722e-02 -1.934730e-02  3.810008e-01
   endloop
 endfacet
 facet normal  0.000000e+00  0.000000e+00  1.000000e+00
   outer loop
     vertex -4.820907e-01  5.745333e-01  3.810008e-01
     vertex -5.745333e-01  4.820907e-01  3.810008e-01
     vertex -1.934730e-02  2.305722e-02  3.810008e-01
   endloop
 endfacet
 facet normal  0.000000e+00  0.000000e+00  1.000000e+00
   outer loop
     vertex  6.495191e-01 -3.750000e-01  3.810008e-01
     vertex  2.606655e-02 -1.504953e-02  3.810008e-01
     vertex  5.745333e-01 -4.820907e-01  3.810008e-01
   endloop
 endfacet
 facet normal  0.000000e+00  0.000000e+00  1.000000e+00
   outer loop
     vertex -3.750000e-01  6.495191e-01  3.810008e-01
     vertex -1.504953e-02  2.606655e-02  3.810008e-01
     vertex -1.029448e-02  2.828386e-02  3.810008e-01
   endloop
 endfacet
 facet normal  0.000000e+00  0.000000e+00  1.000000e+00
   outer loop
     vertex -3.750000e-01  6.495191e-01  3.810008e-01
     vertex -1.934730e-02  2.305722e-02  3.810008e-01
     vertex -1.504953e-02  2.606655e-02  3.810008e-01
   endloop
 endfacet
 facet normal  0.000000e+00  0.000000e+00  1.000000e+00
   outer loop
     vertex -3.750000e-01  6.495191e-01  3.810008e-01
     vertex -4.820907e-01  5.745333e-01  3.810008e-01
     vertex -1.934730e-02  2.305722e-02  3.810008e-01
   endloop
 endfacet
 facet normal  0.000000e+00  0.000000e+00  1.000000e+00
   outer loop
     vertex  7.047695e-01 -2.565151e-01  3.810008e-01
     vertex  2.606655e-02 -1.504953e-02  3.810008e-01
     vertex  6.495191e-01 -3.750000e-01  3.810008e-01
   endloop
 endfacet
 facet normal  0.000000e+00  0.000000e+00  1.000000e+00
   outer loop
     vertex  7.047695e-01 -2.565151e-01  3.810008e-01
     vertex  2.828386e-02 -1.029448e-02  3.810008e-01
     vertex  2.606655e-02 -1.504953e-02  3.810008e-01
   endloop
 endfacet
 facet normal  0.000000e+00  0.000000e+00  1.000000e+00
   outer loop
     vertex -2.565151e-01  7.047695e-01  3.810008e-01
     vertex -3.750000e-01  6.495191e-01  3.810008e-01
     vertex -1.029448e-02  2.828386e-02  3.810008e-01
   endloop
 endfacet
 facet normal  0.000000e+00  0.000000e+00  1.000000e+00
   outer loop
     vertex  7.386058e-01 -1.302361e-01  3.810008e-01
     vertex  2.964179e-02 -5.226647e-03  3.810008e-01
     vertex  2.828386e-02 -1.029448e-02  3.810008e-01
   endloop
 endfacet
 facet normal  0.000000e+00  0.000000e+00  1.000000e+00
   outer loop
     vertex  7.386058e-01 -1.302361e-01  3.810008e-01
     vertex  3.009906e-02  0.000000e+00  3.810008e-01
     vertex  2.964179e-02 -5.226647e-03  3.810008e-01
   endloop
 endfacet
 facet normal  0.000000e+00  0.000000e+00  1.000000e+00
   outer loop
     vertex  7.386058e-01 -1.302361e-01  3.810008e-01
     vertex  2.828386e-02 -1.029448e-02  3.810008e-01
     vertex  7.047695e-01 -2.565151e-01  3.810008e-01
   endloop
 endfacet
 facet normal  0.000000e+00  0.000000e+00  1.000000e+00
   outer loop
     vertex -1.302361e-01  7.386058e-01  3.810008e-01
     vertex -1.029448e-02  2.828386e-02  3.810008e-01
     vertex -5.226647e-03  2.964179e-02  3.810008e-01
   endloop
 endfacet
 facet normal  0.000000e+00  0.000000e+00  1.000000e+00
   outer loop
     vertex -1.302361e-01  7.386058e-01  3.810008e-01
     vertex -2.565151e-01  7.047695e-01  3.810008e-01
     vertex -1.029448e-02  2.828386e-02  3.810008e-01
   endloop
 endfacet
 facet normal  0.000000e+00  0.000000e+00  1.000000e+00
   outer loop
     vertex  7.500000e-01  0.000000e+00  3.810008e-01
     vertex  2.964179e-02  5.226647e-03  3.810008e-01
     vertex  3.009906e-02  0.000000e+00  3.810008e-01
   endloop
 endfacet
 facet normal  0.000000e+00  0.000000e+00  1.000000e+00
   outer loop
     vertex  7.500000e-01  0.000000e+00  3.810008e-01
     vertex  3.009906e-02  0.000000e+00  3.810008e-01
     vertex  7.386058e-01 -1.302361e-01  3.810008e-01
   endloop
 endfacet
 facet normal  0.000000e+00  0.000000e+00  1.000000e+00
   outer loop
     vertex  4.592425e-17  7.500000e-01  3.810008e-01
     vertex -5.226647e-03  2.964179e-02  3.810008e-01
     vertex  1.843036e-18  3.009906e-02  3.810008e-01
   endloop
 endfacet
 facet normal  0.000000e+00  0.000000e+00  1.000000e+00
   outer loop
     vertex  4.592425e-17  7.500000e-01  3.810008e-01
     vertex -1.302361e-01  7.386058e-01  3.810008e-01
     vertex -5.226647e-03  2.964179e-02  3.810008e-01
   endloop
 endfacet
 facet normal  0.000000e+00  0.000000e+00  1.000000e+00
   outer loop
     vertex  7.386058e-01  1.302361e-01  3.810008e-01
     vertex  2.828386e-02  1.029448e-02  3.810008e-01
     vertex  2.964179e-02  5.226647e-03  3.810008e-01
   endloop
 endfacet
 facet normal  0.000000e+00  0.000000e+00  1.000000e+00
   outer loop
     vertex  7.386058e-01  1.302361e-01  3.810008e-01
     vertex  2.964179e-02  5.226647e-03  3.810008e-01
     vertex  7.500000e-01  0.000000e+00  3.810008e-01
   endloop
 endfacet
 facet normal  0.000000e+00  0.000000e+00  1.000000e+00
   outer loop
     vertex  1.302361e-01  7.386058e-01  3.810008e-01
     vertex  1.843036e-18  3.009906e-02  3.810008e-01
     vertex  5.226647e-03  2.964179e-02  3.810008e-01
   endloop
 endfacet
 facet normal  0.000000e+00  0.000000e+00  1.000000e+00
   outer loop
     vertex  1.302361e-01  7.386058e-01  3.810008e-01
     vertex  4.592425e-17  7.500000e-01  3.810008e-01
     vertex  1.843036e-18  3.009906e-02  3.810008e-01
   endloop
 endfacet
 facet normal  0.000000e+00  0.000000e+00  1.000000e+00
   outer loop
     vertex  7.047695e-01  2.565151e-01  3.810008e-01
     vertex  2.828386e-02  1.029448e-02  3.810008e-01
     vertex  7.386058e-01  1.302361e-01  3.810008e-01
   endloop
 endfacet
 facet normal  0.000000e+00  0.000000e+00  1.000000e+00
   outer loop
     vertex  2.565151e-01  7.047695e-01  3.810008e-01
     vertex  1.302361e-01  7.386058e-01  3.810008e-01
     vertex  5.226647e-03  2.964179e-02  3.810008e-01
   endloop
 endfacet
 facet normal  0.000000e+00  0.000000e+00  1.000000e+00
   outer loop
     vertex  2.565151e-01  7.047695e-01  3.810008e-01
     vertex  1.029448e-02  2.828386e-02  3.810008e-01
     vertex  1.504953e-02  2.606655e-02  3.810008e-01
   endloop
 endfacet
 facet normal  0.000000e+00  0.000000e+00  1.000000e+00
   outer loop
     vertex  2.565151e-01  7.047695e-01  3.810008e-01
     vertex  5.226647e-03  2.964179e-02  3.810008e-01
     vertex  1.029448e-02  2.828386e-02  3.810008e-01
   endloop
 endfacet
 facet normal  0.000000e+00  0.000000e+00  1.000000e+00
   outer loop
     vertex  3.750000e-01  6.495191e-01  3.810008e-01
     vertex  2.565151e-01  7.047695e-01  3.810008e-01
     vertex  1.504953e-02  2.606655e-02  3.810008e-01
   endloop
 endfacet
 facet normal  0.000000e+00  0.000000e+00  1.000000e+00
   outer loop
     vertex  3.750000e-01  6.495191e-01  3.810008e-01
     vertex  1.504953e-02  2.606655e-02  3.810008e-01
     vertex  1.934730e-02  2.305722e-02  3.810008e-01
   endloop
 endfacet
 facet normal  0.000000e+00  0.000000e+00  1.000000e+00
   outer loop
     vertex  6.495191e-01  3.750000e-01  3.810008e-01
     vertex  2.606655e-02  1.504953e-02  3.810008e-01
     vertex  2.828386e-02  1.029448e-02  3.810008e-01
   endloop
 endfacet
 facet normal  0.000000e+00  0.000000e+00  1.000000e+00
   outer loop
     vertex  6.495191e-01  3.750000e-01  3.810008e-01
     vertex  2.828386e-02  1.029448e-02  3.810008e-01
     vertex  7.047695e-01  2.565151e-01  3.810008e-01
   endloop
 endfacet
 facet normal  0.000000e+00  0.000000e+00  1.000000e+00
   outer loop
     vertex  4.820907e-01  5.745333e-01  3.810008e-01
     vertex  3.750000e-01  6.495191e-01  3.810008e-01
     vertex  1.934730e-02  2.305722e-02  3.810008e-01
   endloop
 endfacet
 facet normal  0.000000e+00  0.000000e+00  1.000000e+00
   outer loop
     vertex  5.745333e-01  4.820907e-01  3.810008e-01
     vertex  2.606655e-02  1.504953e-02  3.810008e-01
     vertex  6.495191e-01  3.750000e-01  3.810008e-01
   endloop
 endfacet
 facet normal  0.000000e+00  0.000000e+00  1.000000e+00
   outer loop
     vertex  5.745333e-01  4.820907e-01  3.810008e-01
     vertex  2.305722e-02  1.934730e-02  3.810008e-01
     vertex  2.606655e-02  1.504953e-02  3.810008e-01
   endloop
 endfacet
 facet normal  0.000000e+00  0.000000e+00  1.000000e+00
   outer loop
     vertex  5.745333e-01  4.820907e-01  3.810008e-01
     vertex  1.934730e-02  2.305722e-02  3.810008e-01
     vertex  2.305722e-02  1.934730e-02  3.810008e-01
   endloop
 endfacet
 facet normal  0.000000e+00  0.000000e+00  1.000000e+00
   outer loop
     vertex  5.745333e-01  4.820907e-01  3.810008e-01
     vertex  4.820907e-01  5.745333e-01  3.810008e-01
     vertex  1.934730e-02  2.305722e-02  3.810008e-01
   endloop
 endfacet
endsolid
