solid 
 facet normal  6.123234e-17 -6.123234e-17 -1.000000e+00
   outer loop
     vertex  1.022563e-33  2.727273e-01 -1.669973e-17
     vertex  7.500000e-01 -2.727273e-01  6.262398e-17
     vertex -1.022563e-33 -2.727273e-01  1.669973e-17
   endloop
 endfacet
 facet normal  6.123234e-17 -6.123234e-17 -1.000000e+00
   outer loop
     vertex  1.022563e-33  2.727273e-01 -1.669973e-17
     vertex  7.500000e-01  2.727273e-01  2.922453e-17
     vertex  7.500000e-01 -2.727273e-01  6.262398e-17
   endloop
 endfacet
 facet normal  0.000000e+00  1.000000e+00  0.000000e+00
   outer loop
     vertex  1.022563e-33  2.727273e-01  2.045455e-01
     vertex  7.500000e-01  2.727273e-01  2.922453e-17
     vertex  1.022563e-33  2.727273e-01 -1.669973e-17
   endloop
 endfacet
 facet normal -0.000000e+00  1.000000e+00  0.000000e+00
   outer loop
     vertex  1.022563e-33  2.727273e-01  2.045455e-01
     vertex  7.500000e-01  2.727273e-01  2.045455e-01
     vertex  7.500000e-01  2.727273e-01  2.922453e-17
   endloop
 endfacet
 facet normal -4.797505e-17  7.071068e-01  7.071068e-01
   outer loop
     vertex  0.000000e+00  0.000000e+00  4.772727e-01
     vertex  7.500000e-01  2.727273e-01  2.045455e-01
     vertex  1.022563e-33  2.727273e-01  2.045455e-01
   endloop
 endfacet
 facet normal -5.233642e-17  7.071068e-01  7.071068e-01
   outer loop
     vertex  0.000000e+00  0.000000e+00  4.772727e-01
     vertex  7.500000e-01  0.000000e+00  4.772727e-01
     vertex  7.500000e-01  2.727273e-01  2.045455e-01
   endloop
 endfacet
 facet normal -9.595009e-17 -7.071068e-01  7.071068e-01
   outer loop
     vertex -1.022563e-33 -2.727273e-01  2.045455e-01
     vertex  7.500000e-01  0.000000e+00  4.772727e-01
     vertex  0.000000e+00  0.000000e+00  4.772727e-01
   endloop
 endfacet
 facet normal -5.233642e-17 -7.071068e-01  7.071068e-01
   outer loop
     vertex -1.022563e-33 -2.727273e-01  2.045455e-01
     vertex  7.500000e-01 -2.727273e-01  2.045455e-01
     vertex  7.500000e-01  0.000000e+00  4.772727e-01
   endloop
 endfacet
 facet normal  0.000000e+00 -1.000000e+00  0.000000e+00
   outer loop
     vertex -1.022563e-33 -2.727273e-01  1.669973e-17
     vertex  7.500000e-01 -2.727273e-01  2.045455e-01
     vertex -1.022563e-33 -2.727273e-01  2.045455e-01
   endloop
 endfacet
 facet normal  0.000000e+00 -1.000000e+00  0.000000e+00
   outer loop
     vertex -1.022563e-33 -2.727273e-01  1.669973e-17
     vertex  7.500000e-01 -2.727273e-01  6.262398e-17
     vertex  7.500000e-01 -2.727273e-01  2.045455e-01
   endloop
 endfacet
 facet normal -1.000000e+00  3.749399e-33  0.000000e+00
   outer loop
     vertex  1.022563e-33  2.727273e-01  2.045455e-01
     vertex  1.022563e-33  2.727273e-01 -1.669973e-17
     vertex -1.022563e-33 -2.727273e-01  1.669973e-17
   endloop
 endfacet
 facet normal -1.000000e+00  3.749399e-33  0.000000e+00
   outer loop
     vertex  1.022563e-33  2.727273e-01  2.045455e-01
     vertex -1.022563e-33 -2.727273e-01  2.045455e-01
     vertex  0.000000e+00  0.000000e+00  4.772727e-01
   endloop
 endfacet
 facet normal -1.000000e+00  3.749399e-33  0.000000e+00
   outer loop
     vertex  1.022563e-33  2.727273e-01  2.045455e-01
     vertex -1.022563e-33 -2.727273e-01  1.669973e-17
     vertex -1.022563e-33 -2.727273e-01  2.045455e-01
   endloop
 endfacet
 facet normal  1.000000e+00  0.000000e+00  0.000000e+00
   outer loop
     vertex  7.500000e-01  2.727273e-01  2.045455e-01
     vertex  7.500000e-01 -2.727273e-01  6.262398e-17
     vertex  7.500000e-01  2.727273e-01  2.922453e-17
   endloop
 endfacet
 facet normal  1.000000e+00  0.000000e+00  0.000000e+00
   outer loop
     vertex  7.500000e-01  2.727273e-01  2.045455e-01
     vertex  7.500000e-01  0.000000e+00  4.772727e-01
     vertex  7.500000e-01 -2.727273e-01  2.045455e-01
   endloop
 endfacet
 facet normal  1.000000e+00  0.000000e+00  0.000000e+00
   outer loop
     vertex  7.500000e-01  2.727273e-01  2.045455e-01
     vertex  7.500000e-01 -2.727273e-01  2.045455e-01
     vertex  7.500000e-01 -2.727273e-01  6.262398e-17
   endloop
 endfacet
endsolid
