solid 
 facet normal -4.361716e-17  4.361716e-17 -1.000000e+00
   outer loop
     vertex -4.131655e-01  2.454839e-01  0.000000e+00
     vertex -4.204839e-01  2.381655e-01  0.000000e+00
     vertex -7.500000e-01  4.000000e-01  2.143132e-17
   endloop
 endfacet
 facet normal -4.839585e-17  3.388714e-17 -1.000000e+00
   outer loop
     vertex -4.264203e-01  2.296875e-01  0.000000e+00
     vertex -7.500000e-01  4.000000e-01  2.143132e-17
     vertex -4.204839e-01  2.381655e-01  0.000000e+00
   endloop
 endfacet
 facet normal -3.844139e-17  5.489999e-17 -1.000000e+00
   outer loop
     vertex -4.046875e-01  2.514203e-01  0.000000e+00
     vertex -4.131655e-01  2.454839e-01  0.000000e+00
     vertex -7.500000e-01  4.000000e-01  2.143132e-17
   endloop
 endfacet
 facet normal -5.317975e-17  2.479812e-17 -1.000000e+00
   outer loop
     vertex -4.307942e-01  2.203074e-01  0.000000e+00
     vertex -7.500000e-01  4.000000e-01  2.143132e-17
     vertex -4.264203e-01  2.296875e-01  0.000000e+00
   endloop
 endfacet
 facet normal -3.227886e-17  6.922225e-17 -1.000000e+00
   outer loop
     vertex -3.953074e-01  2.557942e-01  0.000000e+00
     vertex -4.046875e-01  2.514203e-01  0.000000e+00
     vertex -7.500000e-01  4.000000e-01  2.143132e-17
   endloop
 endfacet
 facet normal -5.833966e-17  1.563206e-17 -1.000000e+00
   outer loop
     vertex -4.334730e-01  2.103104e-01  0.000000e+00
     vertex -7.500000e-01  4.000000e-01  2.143132e-17
     vertex -4.307942e-01  2.203074e-01  0.000000e+00
   endloop
 endfacet
 facet normal -2.400258e-17  8.957884e-17 -1.000000e+00
   outer loop
     vertex -3.853104e-01  2.584730e-01  0.000000e+00
     vertex -3.953074e-01  2.557942e-01  0.000000e+00
     vertex -7.500000e-01  4.000000e-01  2.143132e-17
   endloop
 endfacet
 facet normal -1.067019e-16 -6.123234e-17 -1.000000e+00
   outer loop
     vertex -4.343750e-01  2.000000e-01  0.000000e+00
     vertex -7.500000e-01 -7.120581e-16  4.592425e-17
     vertex -7.500000e-01  4.000000e-01  2.143132e-17
   endloop
 endfacet
 facet normal -6.433460e-17  5.628548e-18 -1.000000e+00
   outer loop
     vertex -4.343750e-01  2.000000e-01  0.000000e+00
     vertex -7.500000e-01  4.000000e-01  2.143132e-17
     vertex -4.334730e-01  2.103104e-01  0.000000e+00
   endloop
 endfacet
 facet normal -1.081106e-17  1.235710e-16 -1.000000e+00
   outer loop
     vertex -3.750000e-01  2.593750e-01  0.000000e+00
     vertex -3.853104e-01  2.584730e-01  0.000000e+00
     vertex -7.500000e-01  4.000000e-01  2.143132e-17
   endloop
 endfacet
 facet normal -1.378599e-16 -1.206118e-17 -1.000000e+00
   outer loop
     vertex -4.334730e-01  1.896896e-01  0.000000e+00
     vertex -7.500000e-01 -7.120581e-16  4.592425e-17
     vertex -4.343750e-01  2.000000e-01  0.000000e+00
   endloop
 endfacet
 facet normal -1.250135e-16 -3.349728e-17 -1.000000e+00
   outer loop
     vertex -4.307942e-01  1.796926e-01  0.000000e+00
     vertex -7.500000e-01 -7.120581e-16  4.592425e-17
     vertex -4.334730e-01  1.896896e-01  0.000000e+00
   endloop
 endfacet
 facet normal -1.139566e-16 -5.313884e-17 -1.000000e+00
   outer loop
     vertex -4.264203e-01  1.703125e-01  0.000000e+00
     vertex -7.500000e-01 -7.120581e-16  4.592425e-17
     vertex -4.307942e-01  1.796926e-01  0.000000e+00
   endloop
 endfacet
 facet normal -1.037054e-16 -7.261529e-17 -1.000000e+00
   outer loop
     vertex -4.204839e-01  1.618345e-01  0.000000e+00
     vertex -7.500000e-01 -7.120581e-16  4.592425e-17
     vertex -4.264203e-01  1.703125e-01  0.000000e+00
   endloop
 endfacet
 facet normal -9.346535e-17 -9.346535e-17 -1.000000e+00
   outer loop
     vertex -4.131655e-01  1.545161e-01  0.000000e+00
     vertex -7.500000e-01 -7.120581e-16  4.592425e-17
     vertex -4.204839e-01  1.618345e-01  0.000000e+00
   endloop
 endfacet
 facet normal -8.237441e-17 -1.176428e-16 -1.000000e+00
   outer loop
     vertex -4.046875e-01  1.485797e-01  0.000000e+00
     vertex -7.500000e-01 -7.120581e-16  4.592425e-17
     vertex -4.131655e-01  1.545161e-01  0.000000e+00
   endloop
 endfacet
 facet normal -6.916899e-17 -1.483334e-16 -1.000000e+00
   outer loop
     vertex -3.953074e-01  1.442058e-01  0.000000e+00
     vertex -7.500000e-01 -7.120581e-16  4.592425e-17
     vertex -4.046875e-01  1.485797e-01  0.000000e+00
   endloop
 endfacet
 facet normal -5.143409e-17 -1.919547e-16 -1.000000e+00
   outer loop
     vertex -3.853104e-01  1.415270e-01  0.000000e+00
     vertex -7.500000e-01 -7.120581e-16  4.592425e-17
     vertex -3.953074e-01  1.442058e-01  0.000000e+00
   endloop
 endfacet
 facet normal -7.352526e-17 -6.432627e-18 -1.000000e+00
   outer loop
     vertex -3.797643e-16  4.000000e-01 -2.449294e-17
     vertex -3.156250e-01  2.000000e-01  0.000000e+00
     vertex -3.165270e-01  2.103104e-01  0.000000e+00
   endloop
 endfacet
 facet normal -6.667389e-17 -1.786522e-17 -1.000000e+00
   outer loop
     vertex -3.797643e-16  4.000000e-01 -2.449294e-17
     vertex -3.165270e-01  2.103104e-01  0.000000e+00
     vertex -3.192058e-01  2.203074e-01  0.000000e+00
   endloop
 endfacet
 facet normal -6.077685e-17 -2.834071e-17 -1.000000e+00
   outer loop
     vertex -3.797643e-16  4.000000e-01 -2.449294e-17
     vertex -3.192058e-01  2.203074e-01  0.000000e+00
     vertex -3.235797e-01  2.296875e-01  0.000000e+00
   endloop
 endfacet
 facet normal -5.530954e-17 -3.872816e-17 -1.000000e+00
   outer loop
     vertex -3.797643e-16  4.000000e-01 -2.449294e-17
     vertex -3.235797e-01  2.296875e-01  0.000000e+00
     vertex -3.295161e-01  2.381655e-01  0.000000e+00
   endloop
 endfacet
 facet normal -4.984819e-17 -4.984819e-17 -1.000000e+00
   outer loop
     vertex -3.797643e-16  4.000000e-01 -2.449294e-17
     vertex -3.295161e-01  2.381655e-01  0.000000e+00
     vertex -3.368345e-01  2.454839e-01  0.000000e+00
   endloop
 endfacet
 facet normal -4.393302e-17 -6.274285e-17 -1.000000e+00
   outer loop
     vertex -3.797643e-16  4.000000e-01 -2.449294e-17
     vertex -3.368345e-01  2.454839e-01  0.000000e+00
     vertex -3.453125e-01  2.514203e-01  0.000000e+00
   endloop
 endfacet
 facet normal -3.689013e-17 -7.911114e-17 -1.000000e+00
   outer loop
     vertex -3.797643e-16  4.000000e-01 -2.449294e-17
     vertex -3.453125e-01  2.514203e-01  0.000000e+00
     vertex -3.546926e-01  2.557942e-01  0.000000e+00
   endloop
 endfacet
 facet normal -2.743152e-17 -1.023758e-16 -1.000000e+00
   outer loop
     vertex -3.797643e-16  4.000000e-01 -2.449294e-17
     vertex -3.546926e-01  2.557942e-01  0.000000e+00
     vertex -3.646896e-01  2.584730e-01  0.000000e+00
   endloop
 endfacet
 facet normal -1.235550e-17 -1.412240e-16 -1.000000e+00
   outer loop
     vertex -3.797643e-16  4.000000e-01 -2.449294e-17
     vertex -3.646896e-01  2.584730e-01  0.000000e+00
     vertex -3.750000e-01  2.593750e-01  0.000000e+00
   endloop
 endfacet
 facet normal -6.123234e-17 -1.088575e-17 -1.000000e+00
   outer loop
     vertex -3.797643e-16  4.000000e-01 -2.449294e-17
     vertex -3.750000e-01  2.593750e-01  0.000000e+00
     vertex -7.500000e-01  4.000000e-01  2.143132e-17
   endloop
 endfacet
 facet normal  0.000000e+00  0.000000e+00 -1.000000e+00
   outer loop
     vertex  0.000000e+00  9.860761e-32  0.000000e+00
     vertex -3.646896e-01  1.415270e-01  0.000000e+00
     vertex -3.546926e-01  1.442058e-01  0.000000e+00
   endloop
 endfacet
 facet normal  0.000000e+00  0.000000e+00 -1.000000e+00
   outer loop
     vertex  0.000000e+00  9.860761e-32  0.000000e+00
     vertex -3.546926e-01  1.442058e-01  0.000000e+00
     vertex -3.453125e-01  1.485797e-01  0.000000e+00
   endloop
 endfacet
 facet normal  0.000000e+00  0.000000e+00 -1.000000e+00
   outer loop
     vertex  0.000000e+00  9.860761e-32  0.000000e+00
     vertex -3.453125e-01  1.485797e-01  0.000000e+00
     vertex -3.368345e-01  1.545161e-01  0.000000e+00
   endloop
 endfacet
 facet normal  0.000000e+00  0.000000e+00 -1.000000e+00
   outer loop
     vertex  0.000000e+00  9.860761e-32  0.000000e+00
     vertex -3.368345e-01  1.545161e-01  0.000000e+00
     vertex -3.295161e-01  1.618345e-01  0.000000e+00
   endloop
 endfacet
 facet normal  0.000000e+00  0.000000e+00 -1.000000e+00
   outer loop
     vertex  0.000000e+00  9.860761e-32  0.000000e+00
     vertex -3.295161e-01  1.618345e-01  0.000000e+00
     vertex -3.235797e-01  1.703125e-01  0.000000e+00
   endloop
 endfacet
 facet normal  0.000000e+00  0.000000e+00 -1.000000e+00
   outer loop
     vertex  0.000000e+00  9.860761e-32  0.000000e+00
     vertex -3.235797e-01  1.703125e-01  0.000000e+00
     vertex -3.192058e-01  1.796926e-01  0.000000e+00
   endloop
 endfacet
 facet normal  0.000000e+00  0.000000e+00 -1.000000e+00
   outer loop
     vertex  0.000000e+00  9.860761e-32  0.000000e+00
     vertex -3.192058e-01  1.796926e-01  0.000000e+00
     vertex -3.165270e-01  1.896896e-01  0.000000e+00
   endloop
 endfacet
 facet normal  0.000000e+00  0.000000e+00 -1.000000e+00
   outer loop
     vertex  0.000000e+00  9.860761e-32  0.000000e+00
     vertex -3.165270e-01  1.896896e-01  0.000000e+00
     vertex -3.156250e-01  2.000000e-01  0.000000e+00
   endloop
 endfacet
 facet normal -3.880069e-17 -6.123234e-17 -1.000000e+00
   outer loop
     vertex  0.000000e+00  9.860761e-32  0.000000e+00
     vertex -3.156250e-01  2.000000e-01  0.000000e+00
     vertex -3.797643e-16  4.000000e-01 -2.449294e-17
   endloop
 endfacet
 facet normal -6.123234e-17 -1.632862e-16 -1.000000e+00
   outer loop
     vertex  0.000000e+00  9.860761e-32  0.000000e+00
     vertex -7.500000e-01 -7.120581e-16  4.592425e-17
     vertex -3.750000e-01  1.406250e-01  0.000000e+00
   endloop
 endfacet
 facet normal -2.316656e-17 -2.647950e-16 -1.000000e+00
   outer loop
     vertex -3.750000e-01  1.406250e-01  0.000000e+00
     vertex -7.500000e-01 -7.120581e-16  4.592425e-17
     vertex -3.853104e-01  1.415270e-01  0.000000e+00
   endloop
 endfacet
 facet normal  0.000000e+00  0.000000e+00 -1.000000e+00
   outer loop
     vertex  0.000000e+00  9.860761e-32  0.000000e+00
     vertex -3.750000e-01  1.406250e-01  0.000000e+00
     vertex -3.646896e-01  1.415270e-01  0.000000e+00
   endloop
 endfacet
 facet normal -1.000000e+00 -8.326673e-16  0.000000e+00
   outer loop
     vertex -7.500000e-01 -7.120581e-16  4.592425e-17
     vertex -7.500000e-01 -7.120581e-16  2.375000e-01
     vertex -7.500000e-01  4.000000e-01  2.375000e-01
   endloop
 endfacet
 facet normal -1.000000e+00 -8.326673e-16  0.000000e+00
   outer loop
     vertex -7.500000e-01 -7.120581e-16  4.592425e-17
     vertex -7.500000e-01  4.000000e-01  2.375000e-01
     vertex -7.500000e-01  4.000000e-01  2.143132e-17
   endloop
 endfacet
 facet normal  9.494108e-16 -1.000000e+00  0.000000e+00
   outer loop
     vertex  0.000000e+00  9.860761e-32  2.375000e-01
     vertex -7.500000e-01 -7.120581e-16  4.592425e-17
     vertex  0.000000e+00  9.860761e-32  0.000000e+00
   endloop
 endfacet
 facet normal  9.494108e-16 -1.000000e+00  0.000000e+00
   outer loop
     vertex  0.000000e+00  9.860761e-32  2.375000e-01
     vertex -7.500000e-01 -7.120581e-16  2.375000e-01
     vertex -7.500000e-01 -7.120581e-16  4.592425e-17
   endloop
 endfacet
 facet normal -9.621933e-16  1.000000e+00  0.000000e+00
   outer loop
     vertex -3.797643e-16  4.000000e-01  2.375000e-01
     vertex -3.797643e-16  4.000000e-01 -2.449294e-17
     vertex -7.500000e-01  4.000000e-01  2.143132e-17
   endloop
 endfacet
 facet normal -9.621933e-16  1.000000e+00  0.000000e+00
   outer loop
     vertex -3.797643e-16  4.000000e-01  2.375000e-01
     vertex -7.500000e-01  4.000000e-01  2.143132e-17
     vertex -7.500000e-01  4.000000e-01  2.375000e-01
   endloop
 endfacet
 facet normal  1.000000e+00  9.494108e-16  0.000000e+00
   outer loop
     vertex  0.000000e+00  9.860761e-32  2.375000e-01
     vertex  0.000000e+00  9.860761e-32  0.000000e+00
     vertex -3.797643e-16  4.000000e-01 -2.449294e-17
   endloop
 endfacet
 facet normal  1.000000e+00  9.494108e-16  0.000000e+00
   outer loop
     vertex  0.000000e+00  9.860761e-32  2.375000e-01
     vertex -3.797643e-16  4.000000e-01 -2.449294e-17
     vertex -3.797643e-16  4.000000e-01  2.375000e-01
   endloop
 endfacet
 facet normal -9.961947e-01 -8.715574e-02  0.000000e+00
   outer loop
     vertex -3.165270e-01  2.103104e-01  2.375000e-01
     vertex -3.156250e-01  2.000000e-01  0.000000e+00
     vertex -3.156250e-01  2.000000e-01  2.375000e-01
   endloop
 endfacet
 facet normal -9.961947e-01 -8.715574e-02 -0.000000e+00
   outer loop
     vertex -3.165270e-01  2.103104e-01  2.375000e-01
     vertex -3.165270e-01  2.103104e-01  0.000000e+00
     vertex -3.156250e-01  2.000000e-01  0.000000e+00
   endloop
 endfacet
 facet normal -9.659258e-01 -2.588190e-01 -0.000000e+00
   outer loop
     vertex -3.192058e-01  2.203074e-01  2.375000e-01
     vertex -3.192058e-01  2.203074e-01  0.000000e+00
     vertex -3.165270e-01  2.103104e-01  0.000000e+00
   endloop
 endfacet
 facet normal -9.659258e-01 -2.588190e-01  0.000000e+00
   outer loop
     vertex -3.192058e-01  2.203074e-01  2.375000e-01
     vertex -3.165270e-01  2.103104e-01  0.000000e+00
     vertex -3.165270e-01  2.103104e-01  2.375000e-01
   endloop
 endfacet
 facet normal -9.063078e-01 -4.226183e-01 -0.000000e+00
   outer loop
     vertex -3.235797e-01  2.296875e-01  2.375000e-01
     vertex -3.235797e-01  2.296875e-01  0.000000e+00
     vertex -3.192058e-01  2.203074e-01  0.000000e+00
   endloop
 endfacet
 facet normal -9.063078e-01 -4.226183e-01  0.000000e+00
   outer loop
     vertex -3.235797e-01  2.296875e-01  2.375000e-01
     vertex -3.192058e-01  2.203074e-01  0.000000e+00
     vertex -3.192058e-01  2.203074e-01  2.375000e-01
   endloop
 endfacet
 facet normal -8.191520e-01 -5.735764e-01 -0.000000e+00
   outer loop
     vertex -3.295161e-01  2.381655e-01  2.375000e-01
     vertex -3.295161e-01  2.381655e-01  0.000000e+00
     vertex -3.235797e-01  2.296875e-01  0.000000e+00
   endloop
 endfacet
 facet normal -8.191520e-01 -5.735764e-01  0.000000e+00
   outer loop
     vertex -3.295161e-01  2.381655e-01  2.375000e-01
     vertex -3.235797e-01  2.296875e-01  0.000000e+00
     vertex -3.235797e-01  2.296875e-01  2.375000e-01
   endloop
 endfacet
 facet normal -7.071068e-01 -7.071068e-01 -0.000000e+00
   outer loop
     vertex -3.368345e-01  2.454839e-01  2.375000e-01
     vertex -3.368345e-01  2.454839e-01  0.000000e+00
     vertex -3.295161e-01  2.381655e-01  0.000000e+00
   endloop
 endfacet
 facet normal -7.071068e-01 -7.071068e-01  0.000000e+00
   outer loop
     vertex -3.368345e-01  2.454839e-01  2.375000e-01
     vertex -3.295161e-01  2.381655e-01  0.000000e+00
     vertex -3.295161e-01  2.381655e-01  2.375000e-01
   endloop
 endfacet
 facet normal -5.735764e-01 -8.191520e-01  0.000000e+00
   outer loop
     vertex -3.453125e-01  2.514203e-01  2.375000e-01
     vertex -3.368345e-01  2.454839e-01  0.000000e+00
     vertex -3.368345e-01  2.454839e-01  2.375000e-01
   endloop
 endfacet
 facet normal -5.735764e-01 -8.191520e-01 -0.000000e+00
   outer loop
     vertex -3.453125e-01  2.514203e-01  2.375000e-01
     vertex -3.453125e-01  2.514203e-01  0.000000e+00
     vertex -3.368345e-01  2.454839e-01  0.000000e+00
   endloop
 endfacet
 facet normal -4.226183e-01 -9.063078e-01  0.000000e+00
   outer loop
     vertex -3.546926e-01  2.557942e-01  2.375000e-01
     vertex -3.453125e-01  2.514203e-01  0.000000e+00
     vertex -3.453125e-01  2.514203e-01  2.375000e-01
   endloop
 endfacet
 facet normal -4.226183e-01 -9.063078e-01 -0.000000e+00
   outer loop
     vertex -3.546926e-01  2.557942e-01  2.375000e-01
     vertex -3.546926e-01  2.557942e-01  0.000000e+00
     vertex -3.453125e-01  2.514203e-01  0.000000e+00
   endloop
 endfacet
 facet normal -2.588190e-01 -9.659258e-01  0.000000e+00
   outer loop
     vertex -3.646896e-01  2.584730e-01  2.375000e-01
     vertex -3.546926e-01  2.557942e-01  0.000000e+00
     vertex -3.546926e-01  2.557942e-01  2.375000e-01
   endloop
 endfacet
 facet normal -2.588190e-01 -9.659258e-01 -0.000000e+00
   outer loop
     vertex -3.646896e-01  2.584730e-01  2.375000e-01
     vertex -3.646896e-01  2.584730e-01  0.000000e+00
     vertex -3.546926e-01  2.557942e-01  0.000000e+00
   endloop
 endfacet
 facet normal -8.715574e-02 -9.961947e-01 -0.000000e+00
   outer loop
     vertex -3.750000e-01  2.593750e-01  2.375000e-01
     vertex -3.750000e-01  2.593750e-01  0.000000e+00
     vertex -3.646896e-01  2.584730e-01  0.000000e+00
   endloop
 endfacet
 facet normal -8.715574e-02 -9.961947e-01  0.000000e+00
   outer loop
     vertex -3.750000e-01  2.593750e-01  2.375000e-01
     vertex -3.646896e-01  2.584730e-01  0.000000e+00
     vertex -3.646896e-01  2.584730e-01  2.375000e-01
   endloop
 endfacet
 facet normal  8.715574e-02 -9.961947e-01  0.000000e+00
   outer loop
     vertex -3.853104e-01  2.584730e-01  2.375000e-01
     vertex -3.750000e-01  2.593750e-01  0.000000e+00
     vertex -3.750000e-01  2.593750e-01  2.375000e-01
   endloop
 endfacet
 facet normal  8.715574e-02 -9.961947e-01  0.000000e+00
   outer loop
     vertex -3.853104e-01  2.584730e-01  2.375000e-01
     vertex -3.853104e-01  2.584730e-01  0.000000e+00
     vertex -3.750000e-01  2.593750e-01  0.000000e+00
   endloop
 endfacet
 facet normal  2.588190e-01 -9.659258e-01  0.000000e+00
   outer loop
     vertex -3.953074e-01  2.557942e-01  2.375000e-01
     vertex -3.953074e-01  2.557942e-01  0.000000e+00
     vertex -3.853104e-01  2.584730e-01  0.000000e+00
   endloop
 endfacet
 facet normal  4.226183e-01 -9.063078e-01  0.000000e+00
   outer loop
     vertex -3.953074e-01  2.557942e-01  2.375000e-01
     vertex -4.046875e-01  2.514203e-01  0.000000e+00
     vertex -3.953074e-01  2.557942e-01  0.000000e+00
   endloop
 endfacet
 facet normal  2.588190e-01 -9.659258e-01  0.000000e+00
   outer loop
     vertex -3.953074e-01  2.557942e-01  2.375000e-01
     vertex -3.853104e-01  2.584730e-01  0.000000e+00
     vertex -3.853104e-01  2.584730e-01  2.375000e-01
   endloop
 endfacet
 facet normal  4.226183e-01 -9.063078e-01  0.000000e+00
   outer loop
     vertex -4.046875e-01  2.514203e-01  2.375000e-01
     vertex -4.046875e-01  2.514203e-01  0.000000e+00
     vertex -3.953074e-01  2.557942e-01  2.375000e-01
   endloop
 endfacet
 facet normal  5.735764e-01 -8.191520e-01  0.000000e+00
   outer loop
     vertex -4.131655e-01  2.454839e-01  2.375000e-01
     vertex -4.131655e-01  2.454839e-01  0.000000e+00
     vertex -4.046875e-01  2.514203e-01  0.000000e+00
   endloop
 endfacet
 facet normal  5.735764e-01 -8.191520e-01  0.000000e+00
   outer loop
     vertex -4.131655e-01  2.454839e-01  2.375000e-01
     vertex -4.046875e-01  2.514203e-01  0.000000e+00
     vertex -4.046875e-01  2.514203e-01  2.375000e-01
   endloop
 endfacet
 facet normal  7.071068e-01 -7.071068e-01  0.000000e+00
   outer loop
     vertex -4.204839e-01  2.381655e-01  2.375000e-01
     vertex -4.204839e-01  2.381655e-01  0.000000e+00
     vertex -4.131655e-01  2.454839e-01  0.000000e+00
   endloop
 endfacet
 facet normal  7.071068e-01 -7.071068e-01  0.000000e+00
   outer loop
     vertex -4.204839e-01  2.381655e-01  2.375000e-01
     vertex -4.131655e-01  2.454839e-01  0.000000e+00
     vertex -4.131655e-01  2.454839e-01  2.375000e-01
   endloop
 endfacet
 facet normal  8.191520e-01 -5.735764e-01  0.000000e+00
   outer loop
     vertex -4.264203e-01  2.296875e-01  2.375000e-01
     vertex -4.264203e-01  2.296875e-01  0.000000e+00
     vertex -4.204839e-01  2.381655e-01  0.000000e+00
   endloop
 endfacet
 facet normal  8.191520e-01 -5.735764e-01  0.000000e+00
   outer loop
     vertex -4.264203e-01  2.296875e-01  2.375000e-01
     vertex -4.204839e-01  2.381655e-01  0.000000e+00
     vertex -4.204839e-01  2.381655e-01  2.375000e-01
   endloop
 endfacet
 facet normal  9.063078e-01 -4.226183e-01  0.000000e+00
   outer loop
     vertex -4.307942e-01  2.203074e-01  2.375000e-01
     vertex -4.307942e-01  2.203074e-01  0.000000e+00
     vertex -4.264203e-01  2.296875e-01  0.000000e+00
   endloop
 endfacet
 facet normal  9.063078e-01 -4.226183e-01  0.000000e+00
   outer loop
     vertex -4.307942e-01  2.203074e-01  2.375000e-01
     vertex -4.264203e-01  2.296875e-01  0.000000e+00
     vertex -4.264203e-01  2.296875e-01  2.375000e-01
   endloop
 endfacet
 facet normal  9.659258e-01 -2.588190e-01  0.000000e+00
   outer loop
     vertex -4.334730e-01  2.103104e-01  2.375000e-01
     vertex -4.334730e-01  2.103104e-01  0.000000e+00
     vertex -4.307942e-01  2.203074e-01  0.000000e+00
   endloop
 endfacet
 facet normal  9.961947e-01 -8.715574e-02  0.000000e+00
   outer loop
     vertex -4.334730e-01  2.103104e-01  2.375000e-01
     vertex -4.343750e-01  2.000000e-01  0.000000e+00
     vertex -4.334730e-01  2.103104e-01  0.000000e+00
   endloop
 endfacet
 facet normal  9.659258e-01 -2.588190e-01  0.000000e+00
   outer loop
     vertex -4.334730e-01  2.103104e-01  2.375000e-01
     vertex -4.307942e-01  2.203074e-01  0.000000e+00
     vertex -4.307942e-01  2.203074e-01  2.375000e-01
   endloop
 endfacet
 facet normal  9.961947e-01 -8.715574e-02  0.000000e+00
   outer loop
     vertex -4.343750e-01  2.000000e-01  2.375000e-01
     vertex -4.343750e-01  2.000000e-01  0.000000e+00
     vertex -4.334730e-01  2.103104e-01  2.375000e-01
   endloop
 endfacet
 facet normal  9.961947e-01  8.715574e-02  0.000000e+00
   outer loop
     vertex -4.334730e-01  1.896896e-01  2.375000e-01
     vertex -4.334730e-01  1.896896e-01  0.000000e+00
     vertex -4.343750e-01  2.000000e-01  0.000000e+00
   endloop
 endfacet
 facet normal  9.961947e-01  8.715574e-02  0.000000e+00
   outer loop
     vertex -4.334730e-01  1.896896e-01  2.375000e-01
     vertex -4.343750e-01  2.000000e-01  0.000000e+00
     vertex -4.343750e-01  2.000000e-01  2.375000e-01
   endloop
 endfacet
 facet normal  9.659258e-01  2.588190e-01  0.000000e+00
   outer loop
     vertex -4.307942e-01  1.796926e-01  2.375000e-01
     vertex -4.307942e-01  1.796926e-01  0.000000e+00
     vertex -4.334730e-01  1.896896e-01  0.000000e+00
   endloop
 endfacet
 facet normal  9.659258e-01  2.588190e-01  0.000000e+00
   outer loop
     vertex -4.307942e-01  1.796926e-01  2.375000e-01
     vertex -4.334730e-01  1.896896e-01  0.000000e+00
     vertex -4.334730e-01  1.896896e-01  2.375000e-01
   endloop
 endfacet
 facet normal  9.063078e-01  4.226183e-01  0.000000e+00
   outer loop
     vertex -4.264203e-01  1.703125e-01  2.375000e-01
     vertex -4.264203e-01  1.703125e-01  0.000000e+00
     vertex -4.307942e-01  1.796926e-01  0.000000e+00
   endloop
 endfacet
 facet normal  9.063078e-01  4.226183e-01  0.000000e+00
   outer loop
     vertex -4.264203e-01  1.703125e-01  2.375000e-01
     vertex -4.307942e-01  1.796926e-01  0.000000e+00
     vertex -4.307942e-01  1.796926e-01  2.375000e-01
   endloop
 endfacet
 facet normal  8.191520e-01  5.735764e-01  0.000000e+00
   outer loop
     vertex -4.204839e-01  1.618345e-01  2.375000e-01
     vertex -4.204839e-01  1.618345e-01  0.000000e+00
     vertex -4.264203e-01  1.703125e-01  0.000000e+00
   endloop
 endfacet
 facet normal  8.191520e-01  5.735764e-01  0.000000e+00
   outer loop
     vertex -4.204839e-01  1.618345e-01  2.375000e-01
     vertex -4.264203e-01  1.703125e-01  0.000000e+00
     vertex -4.264203e-01  1.703125e-01  2.375000e-01
   endloop
 endfacet
 facet normal  7.071068e-01  7.071068e-01  0.000000e+00
   outer loop
     vertex -4.131655e-01  1.545161e-01  2.375000e-01
     vertex -4.131655e-01  1.545161e-01  0.000000e+00
     vertex -4.204839e-01  1.618345e-01  0.000000e+00
   endloop
 endfacet
 facet normal  7.071068e-01  7.071068e-01  0.000000e+00
   outer loop
     vertex -4.131655e-01  1.545161e-01  2.375000e-01
     vertex -4.204839e-01  1.618345e-01  0.000000e+00
     vertex -4.204839e-01  1.618345e-01  2.375000e-01
   endloop
 endfacet
 facet normal  5.735764e-01  8.191520e-01  0.000000e+00
   outer loop
     vertex -4.046875e-01  1.485797e-01  2.375000e-01
     vertex -4.046875e-01  1.485797e-01  0.000000e+00
     vertex -4.131655e-01  1.545161e-01  0.000000e+00
   endloop
 endfacet
 facet normal  5.735764e-01  8.191520e-01  0.000000e+00
   outer loop
     vertex -4.046875e-01  1.485797e-01  2.375000e-01
     vertex -4.131655e-01  1.545161e-01  0.000000e+00
     vertex -4.131655e-01  1.545161e-01  2.375000e-01
   endloop
 endfacet
 facet normal  4.226183e-01  9.063078e-01  0.000000e+00
   outer loop
     vertex -3.953074e-01  1.442058e-01  2.375000e-01
     vertex -3.953074e-01  1.442058e-01  0.000000e+00
     vertex -4.046875e-01  1.485797e-01  0.000000e+00
   endloop
 endfacet
 facet normal  2.588190e-01  9.659258e-01  0.000000e+00
   outer loop
     vertex -3.953074e-01  1.442058e-01  2.375000e-01
     vertex -3.853104e-01  1.415270e-01  0.000000e+00
     vertex -3.953074e-01  1.442058e-01  0.000000e+00
   endloop
 endfacet
 facet normal  4.226183e-01  9.063078e-01  0.000000e+00
   outer loop
     vertex -3.953074e-01  1.442058e-01  2.375000e-01
     vertex -4.046875e-01  1.485797e-01  0.000000e+00
     vertex -4.046875e-01  1.485797e-01  2.375000e-01
   endloop
 endfacet
 facet normal  2.588190e-01  9.659258e-01  0.000000e+00
   outer loop
     vertex -3.853104e-01  1.415270e-01  2.375000e-01
     vertex -3.853104e-01  1.415270e-01  0.000000e+00
     vertex -3.953074e-01  1.442058e-01  2.375000e-01
   endloop
 endfacet
 facet normal  8.715574e-02  9.961947e-01  0.000000e+00
   outer loop
     vertex -3.750000e-01  1.406250e-01  2.375000e-01
     vertex -3.750000e-01  1.406250e-01  0.000000e+00
     vertex -3.853104e-01  1.415270e-01  0.000000e+00
   endloop
 endfacet
 facet normal  8.715574e-02  9.961947e-01  0.000000e+00
   outer loop
     vertex -3.750000e-01  1.406250e-01  2.375000e-01
     vertex -3.853104e-01  1.415270e-01  0.000000e+00
     vertex -3.853104e-01  1.415270e-01  2.375000e-01
   endloop
 endfacet
 facet normal -8.715574e-02  9.961947e-01  0.000000e+00
   outer loop
     vertex -3.646896e-01  1.415270e-01  2.375000e-01
     vertex -3.646896e-01  1.415270e-01  0.000000e+00
     vertex -3.750000e-01  1.406250e-01  0.000000e+00
   endloop
 endfacet
 facet normal -8.715574e-02  9.961947e-01  0.000000e+00
   outer loop
     vertex -3.646896e-01  1.415270e-01  2.375000e-01
     vertex -3.750000e-01  1.406250e-01  0.000000e+00
     vertex -3.750000e-01  1.406250e-01  2.375000e-01
   endloop
 endfacet
 facet normal -2.588190e-01  9.659258e-01  0.000000e+00
   outer loop
     vertex -3.546926e-01  1.442058e-01  2.375000e-01
     vertex -3.546926e-01  1.442058e-01  0.000000e+00
     vertex -3.646896e-01  1.415270e-01  0.000000e+00
   endloop
 endfacet
 facet normal -2.588190e-01  9.659258e-01  0.000000e+00
   outer loop
     vertex -3.546926e-01  1.442058e-01  2.375000e-01
     vertex -3.646896e-01  1.415270e-01  0.000000e+00
     vertex -3.646896e-01  1.415270e-01  2.375000e-01
   endloop
 endfacet
 facet normal -4.226183e-01  9.063078e-01  0.000000e+00
   outer loop
     vertex -3.453125e-01  1.485797e-01  2.375000e-01
     vertex -3.453125e-01  1.485797e-01  0.000000e+00
     vertex -3.546926e-01  1.442058e-01  0.000000e+00
   endloop
 endfacet
 facet normal -5.735764e-01  8.191520e-01  0.000000e+00
   outer loop
     vertex -3.453125e-01  1.485797e-01  2.375000e-01
     vertex -3.368345e-01  1.545161e-01  0.000000e+00
     vertex -3.453125e-01  1.485797e-01  0.000000e+00
   endloop
 endfacet
 facet normal -4.226183e-01  9.063078e-01  0.000000e+00
   outer loop
     vertex -3.453125e-01  1.485797e-01  2.375000e-01
     vertex -3.546926e-01  1.442058e-01  0.000000e+00
     vertex -3.546926e-01  1.442058e-01  2.375000e-01
   endloop
 endfacet
 facet normal -5.735764e-01  8.191520e-01  0.000000e+00
   outer loop
     vertex -3.368345e-01  1.545161e-01  2.375000e-01
     vertex -3.368345e-01  1.545161e-01  0.000000e+00
     vertex -3.453125e-01  1.485797e-01  2.375000e-01
   endloop
 endfacet
 facet normal -7.071068e-01  7.071068e-01  0.000000e+00
   outer loop
     vertex -3.295161e-01  1.618345e-01  2.375000e-01
     vertex -3.368345e-01  1.545161e-01  0.000000e+00
     vertex -3.368345e-01  1.545161e-01  2.375000e-01
   endloop
 endfacet
 facet normal -7.071068e-01  7.071068e-01  0.000000e+00
   outer loop
     vertex -3.295161e-01  1.618345e-01  2.375000e-01
     vertex -3.295161e-01  1.618345e-01  0.000000e+00
     vertex -3.368345e-01  1.545161e-01  0.000000e+00
   endloop
 endfacet
 facet normal -8.191520e-01  5.735764e-01  0.000000e+00
   outer loop
     vertex -3.235797e-01  1.703125e-01  2.375000e-01
     vertex -3.295161e-01  1.618345e-01  0.000000e+00
     vertex -3.295161e-01  1.618345e-01  2.375000e-01
   endloop
 endfacet
 facet normal -8.191520e-01  5.735764e-01  0.000000e+00
   outer loop
     vertex -3.235797e-01  1.703125e-01  2.375000e-01
     vertex -3.235797e-01  1.703125e-01  0.000000e+00
     vertex -3.295161e-01  1.618345e-01  0.000000e+00
   endloop
 endfacet
 facet normal -9.063078e-01  4.226183e-01  0.000000e+00
   outer loop
     vertex -3.192058e-01  1.796926e-01  2.375000e-01
     vertex -3.235797e-01  1.703125e-01  0.000000e+00
     vertex -3.235797e-01  1.703125e-01  2.375000e-01
   endloop
 endfacet
 facet normal -9.063078e-01  4.226183e-01  0.000000e+00
   outer loop
     vertex -3.192058e-01  1.796926e-01  2.375000e-01
     vertex -3.192058e-01  1.796926e-01  0.000000e+00
     vertex -3.235797e-01  1.703125e-01  0.000000e+00
   endloop
 endfacet
 facet normal -9.659258e-01  2.588190e-01  0.000000e+00
   outer loop
     vertex -3.165270e-01  1.896896e-01  2.375000e-01
     vertex -3.192058e-01  1.796926e-01  0.000000e+00
     vertex -3.192058e-01  1.796926e-01  2.375000e-01
   endloop
 endfacet
 facet normal -9.659258e-01  2.588190e-01  0.000000e+00
   outer loop
     vertex -3.165270e-01  1.896896e-01  2.375000e-01
     vertex -3.165270e-01  1.896896e-01  0.000000e+00
     vertex -3.192058e-01  1.796926e-01  0.000000e+00
   endloop
 endfacet
 facet normal -9.961947e-01  8.715574e-02  0.000000e+00
   outer loop
     vertex -3.165270e-01  1.896896e-01  2.375000e-01
     vertex -3.156250e-01  2.000000e-01  0.000000e+00
     vertex -3.165270e-01  1.896896e-01  0.000000e+00
   endloop
 endfacet
 facet normal -9.961947e-01  8.715574e-02  0.000000e+00
   outer loop
     vertex -3.156250e-01  2.000000e-01  2.375000e-01
     vertex -3.156250e-01  2.000000e-01  0.000000e+00
     vertex -3.165270e-01  1.896896e-01  2.375000e-01
   endloop
 endfacet
 facet normal -1.129767e-16 -1.129767e-16  1.000000e+00
   outer loop
     vertex -3.295161e-01  2.381655e-01  2.375000e-01
     vertex -3.797643e-16  4.000000e-01  2.375000e-01
     vertex -3.368345e-01  2.454839e-01  2.375000e-01
   endloop
 endfacet
 facet normal -9.957044e-17 -1.422013e-16  1.000000e+00
   outer loop
     vertex -3.453125e-01  2.514203e-01  2.375000e-01
     vertex -3.368345e-01  2.454839e-01  2.375000e-01
     vertex -3.797643e-16  4.000000e-01  2.375000e-01
   endloop
 endfacet
 facet normal -1.253544e-16 -8.777407e-17  1.000000e+00
   outer loop
     vertex -3.235797e-01  2.296875e-01  2.375000e-01
     vertex -3.797643e-16  4.000000e-01  2.375000e-01
     vertex -3.295161e-01  2.381655e-01  2.375000e-01
   endloop
 endfacet
 facet normal -8.360834e-17 -1.792987e-16  1.000000e+00
   outer loop
     vertex -3.546926e-01  2.557942e-01  2.375000e-01
     vertex -3.453125e-01  2.514203e-01  2.375000e-01
     vertex -3.797643e-16  4.000000e-01  2.375000e-01
   endloop
 endfacet
 facet normal -1.377456e-16 -6.423181e-17  1.000000e+00
   outer loop
     vertex -3.192058e-01  2.203074e-01  2.375000e-01
     vertex -3.797643e-16  4.000000e-01  2.375000e-01
     vertex -3.235797e-01  2.296875e-01  2.375000e-01
   endloop
 endfacet
 facet normal -6.217119e-17 -2.320261e-16  1.000000e+00
   outer loop
     vertex -3.646896e-01  2.584730e-01  2.375000e-01
     vertex -3.546926e-01  2.557942e-01  2.375000e-01
     vertex -3.797643e-16  4.000000e-01  2.375000e-01
   endloop
 endfacet
 facet normal -1.511107e-16 -4.048999e-17  1.000000e+00
   outer loop
     vertex -3.165270e-01  2.103104e-01  2.375000e-01
     vertex -3.797643e-16  4.000000e-01  2.375000e-01
     vertex -3.192058e-01  2.203074e-01  2.375000e-01
   endloop
 endfacet
 facet normal -2.800268e-17 -3.200721e-16  1.000000e+00
   outer loop
     vertex -3.750000e-01  2.593750e-01  2.375000e-01
     vertex -3.646896e-01  2.584730e-01  2.375000e-01
     vertex -3.797643e-16  4.000000e-01  2.375000e-01
   endloop
 endfacet
 facet normal -2.198461e-16  6.938894e-17  1.000000e+00
   outer loop
     vertex -3.156250e-01  2.000000e-01  2.375000e-01
     vertex  0.000000e+00  9.860761e-32  2.375000e-01
     vertex -3.797643e-16  4.000000e-01  2.375000e-01
   endloop
 endfacet
 facet normal -1.666387e-16 -1.457900e-17  1.000000e+00
   outer loop
     vertex -3.156250e-01  2.000000e-01  2.375000e-01
     vertex -3.797643e-16  4.000000e-01  2.375000e-01
     vertex -3.165270e-01  2.103104e-01  2.375000e-01
   endloop
 endfacet
 facet normal -2.499581e-16  2.186850e-17  1.000000e+00
   outer loop
     vertex -3.165270e-01  1.896896e-01  2.375000e-01
     vertex  0.000000e+00  9.860761e-32  2.375000e-01
     vertex -3.156250e-01  2.000000e-01  2.375000e-01
   endloop
 endfacet
 facet normal -2.266660e-16  6.073498e-17  1.000000e+00
   outer loop
     vertex -3.192058e-01  1.796926e-01  2.375000e-01
     vertex  0.000000e+00  9.860761e-32  2.375000e-01
     vertex -3.165270e-01  1.896896e-01  2.375000e-01
   endloop
 endfacet
 facet normal -2.066183e-16  9.634771e-17  1.000000e+00
   outer loop
     vertex -3.235797e-01  1.703125e-01  2.375000e-01
     vertex  0.000000e+00  9.860761e-32  2.375000e-01
     vertex -3.192058e-01  1.796926e-01  2.375000e-01
   endloop
 endfacet
 facet normal -1.880315e-16  1.316611e-16  1.000000e+00
   outer loop
     vertex -3.295161e-01  1.618345e-01  2.375000e-01
     vertex  0.000000e+00  9.860761e-32  2.375000e-01
     vertex -3.235797e-01  1.703125e-01  2.375000e-01
   endloop
 endfacet
 facet normal -1.694650e-16  1.694650e-16  1.000000e+00
   outer loop
     vertex -3.368345e-01  1.545161e-01  2.375000e-01
     vertex  0.000000e+00  9.860761e-32  2.375000e-01
     vertex -3.295161e-01  1.618345e-01  2.375000e-01
   endloop
 endfacet
 facet normal -1.493557e-16  2.133020e-16  1.000000e+00
   outer loop
     vertex -3.453125e-01  1.485797e-01  2.375000e-01
     vertex  0.000000e+00  9.860761e-32  2.375000e-01
     vertex -3.368345e-01  1.545161e-01  2.375000e-01
   endloop
 endfacet
 facet normal -1.254125e-16  2.689480e-16  1.000000e+00
   outer loop
     vertex -3.546926e-01  1.442058e-01  2.375000e-01
     vertex  0.000000e+00  9.860761e-32  2.375000e-01
     vertex -3.453125e-01  1.485797e-01  2.375000e-01
   endloop
 endfacet
 facet normal -9.325679e-17  3.480391e-16  1.000000e+00
   outer loop
     vertex -3.646896e-01  1.415270e-01  2.375000e-01
     vertex  0.000000e+00  9.860761e-32  2.375000e-01
     vertex -3.546926e-01  1.442058e-01  2.375000e-01
   endloop
 endfacet
 facet normal  5.600537e-17 -6.401443e-16  1.000000e+00
   outer loop
     vertex -7.500000e-01  4.000000e-01  2.375000e-01
     vertex -3.853104e-01  2.584730e-01  2.375000e-01
     vertex -3.750000e-01  2.593750e-01  2.375000e-01
   endloop
 endfacet
 facet normal  1.243424e-16 -4.640521e-16  1.000000e+00
   outer loop
     vertex -7.500000e-01  4.000000e-01  2.375000e-01
     vertex -3.953074e-01  2.557942e-01  2.375000e-01
     vertex -3.853104e-01  2.584730e-01  2.375000e-01
   endloop
 endfacet
 facet normal  1.672167e-16 -3.585973e-16  1.000000e+00
   outer loop
     vertex -7.500000e-01  4.000000e-01  2.375000e-01
     vertex -4.046875e-01  2.514203e-01  2.375000e-01
     vertex -3.953074e-01  2.557942e-01  2.375000e-01
   endloop
 endfacet
 facet normal  1.991409e-16 -2.844026e-16  1.000000e+00
   outer loop
     vertex -7.500000e-01  4.000000e-01  2.375000e-01
     vertex -4.131655e-01  2.454839e-01  2.375000e-01
     vertex -4.046875e-01  2.514203e-01  2.375000e-01
   endloop
 endfacet
 facet normal  2.259533e-16 -2.259533e-16  1.000000e+00
   outer loop
     vertex -7.500000e-01  4.000000e-01  2.375000e-01
     vertex -4.204839e-01  2.381655e-01  2.375000e-01
     vertex -4.131655e-01  2.454839e-01  2.375000e-01
   endloop
 endfacet
 facet normal  2.507087e-16 -1.755481e-16  1.000000e+00
   outer loop
     vertex -7.500000e-01  4.000000e-01  2.375000e-01
     vertex -4.264203e-01  2.296875e-01  2.375000e-01
     vertex -4.204839e-01  2.381655e-01  2.375000e-01
   endloop
 endfacet
 facet normal  2.754911e-16 -1.284636e-16  1.000000e+00
   outer loop
     vertex -7.500000e-01  4.000000e-01  2.375000e-01
     vertex -4.307942e-01  2.203074e-01  2.375000e-01
     vertex -4.264203e-01  2.296875e-01  2.375000e-01
   endloop
 endfacet
 facet normal  3.022214e-16 -8.097998e-17  1.000000e+00
   outer loop
     vertex -7.500000e-01  4.000000e-01  2.375000e-01
     vertex -4.334730e-01  2.103104e-01  2.375000e-01
     vertex -4.307942e-01  2.203074e-01  2.375000e-01
   endloop
 endfacet
 facet normal  3.332775e-16 -2.915800e-17  1.000000e+00
   outer loop
     vertex -7.500000e-01  4.000000e-01  2.375000e-01
     vertex -4.343750e-01  2.000000e-01  2.375000e-01
     vertex -4.334730e-01  2.103104e-01  2.375000e-01
   endloop
 endfacet
 facet normal  7.401487e-17 -5.921189e-16  1.000000e+00
   outer loop
     vertex -7.500000e-01  4.000000e-01  2.375000e-01
     vertex -3.750000e-01  2.593750e-01  2.375000e-01
     vertex -3.797643e-16  4.000000e-01  2.375000e-01
   endloop
 endfacet
 facet normal  3.957231e-16  6.938894e-17  1.000000e+00
   outer loop
     vertex -7.500000e-01 -7.120581e-16  2.375000e-01
     vertex -4.343750e-01  2.000000e-01  2.375000e-01
     vertex -7.500000e-01  4.000000e-01  2.375000e-01
   endloop
 endfacet
 facet normal  4.165968e-16  3.644750e-17  1.000000e+00
   outer loop
     vertex -7.500000e-01 -7.120581e-16  2.375000e-01
     vertex -4.334730e-01  1.896896e-01  2.375000e-01
     vertex -4.343750e-01  2.000000e-01  2.375000e-01
   endloop
 endfacet
 facet normal  3.777767e-16  1.012250e-16  1.000000e+00
   outer loop
     vertex -7.500000e-01 -7.120581e-16  2.375000e-01
     vertex -4.307942e-01  1.796926e-01  2.375000e-01
     vertex -4.334730e-01  1.896896e-01  2.375000e-01
   endloop
 endfacet
 facet normal  3.443639e-16  1.605795e-16  1.000000e+00
   outer loop
     vertex -7.500000e-01 -7.120581e-16  2.375000e-01
     vertex -4.264203e-01  1.703125e-01  2.375000e-01
     vertex -4.307942e-01  1.796926e-01  2.375000e-01
   endloop
 endfacet
 facet normal  3.133859e-16  2.194352e-16  1.000000e+00
   outer loop
     vertex -7.500000e-01 -7.120581e-16  2.375000e-01
     vertex -4.204839e-01  1.618345e-01  2.375000e-01
     vertex -4.264203e-01  1.703125e-01  2.375000e-01
   endloop
 endfacet
 facet normal  2.824417e-16  2.824417e-16  1.000000e+00
   outer loop
     vertex -7.500000e-01 -7.120581e-16  2.375000e-01
     vertex -4.131655e-01  1.545161e-01  2.375000e-01
     vertex -4.204839e-01  1.618345e-01  2.375000e-01
   endloop
 endfacet
 facet normal  2.489261e-16  3.555033e-16  1.000000e+00
   outer loop
     vertex -7.500000e-01 -7.120581e-16  2.375000e-01
     vertex -4.046875e-01  1.485797e-01  2.375000e-01
     vertex -4.131655e-01  1.545161e-01  2.375000e-01
   endloop
 endfacet
 facet normal  2.090208e-16  4.482466e-16  1.000000e+00
   outer loop
     vertex -7.500000e-01 -7.120581e-16  2.375000e-01
     vertex -3.953074e-01  1.442058e-01  2.375000e-01
     vertex -4.046875e-01  1.485797e-01  2.375000e-01
   endloop
 endfacet
 facet normal  1.554280e-16  5.800651e-16  1.000000e+00
   outer loop
     vertex -7.500000e-01 -7.120581e-16  2.375000e-01
     vertex -3.853104e-01  1.415270e-01  2.375000e-01
     vertex -3.953074e-01  1.442058e-01  2.375000e-01
   endloop
 endfacet
 facet normal  7.401487e-17  7.894919e-16  1.000000e+00
   outer loop
     vertex -7.500000e-01 -7.120581e-16  2.375000e-01
     vertex  0.000000e+00  9.860761e-32  2.375000e-01
     vertex -3.750000e-01  1.406250e-01  2.375000e-01
   endloop
 endfacet
 facet normal -4.200403e-17  4.801082e-16  1.000000e+00
   outer loop
     vertex -3.750000e-01  1.406250e-01  2.375000e-01
     vertex  0.000000e+00  9.860761e-32  2.375000e-01
     vertex -3.646896e-01  1.415270e-01  2.375000e-01
   endloop
 endfacet
 facet normal  7.000671e-17  8.001804e-16  1.000000e+00
   outer loop
     vertex -7.500000e-01 -7.120581e-16  2.375000e-01
     vertex -3.750000e-01  1.406250e-01  2.375000e-01
     vertex -3.853104e-01  1.415270e-01  2.375000e-01
   endloop
 endfacet
endsolid
