solid 
 facet normal  0.000000e+00 -7.592566e-01 -6.507914e-01
   outer loop
     vertex  1.406025e-33  3.750000e-01 -7.500000e-01
     vertex  9.375000e-02 -7.500000e-01  5.625000e-01
     vertex -2.812050e-33 -7.500000e-01  5.625000e-01
   endloop
 endfacet
 facet normal  0.000000e+00 -7.592566e-01 -6.507914e-01
   outer loop
     vertex  1.406025e-33  3.750000e-01 -7.500000e-01
     vertex  9.375000e-02  3.750000e-01 -7.500000e-01
     vertex  9.375000e-02 -7.500000e-01  5.625000e-01
   endloop
 endfacet
 facet normal  0.000000e+00 -0.000000e+00 -1.000000e+00
   outer loop
     vertex  2.812050e-33  7.500000e-01 -7.500000e-01
     vertex  9.375000e-02  3.750000e-01 -7.500000e-01
     vertex  1.406025e-33  3.750000e-01 -7.500000e-01
   endloop
 endfacet
 facet normal  0.000000e+00  0.000000e+00 -1.000000e+00
   outer loop
     vertex  2.812050e-33  7.500000e-01 -7.500000e-01
     vertex  9.375000e-02  7.500000e-01 -7.500000e-01
     vertex  9.375000e-02  3.750000e-01 -7.500000e-01
   endloop
 endfacet
 facet normal  0.000000e+00  1.000000e+00  0.000000e+00
   outer loop
     vertex  2.812050e-33  7.500000e-01  7.500000e-01
     vertex  9.375000e-02  7.500000e-01 -7.500000e-01
     vertex  2.812050e-33  7.500000e-01 -7.500000e-01
   endloop
 endfacet
 facet normal -0.000000e+00  1.000000e+00  0.000000e+00
   outer loop
     vertex  2.812050e-33  7.500000e-01  7.500000e-01
     vertex  9.375000e-02  7.500000e-01  7.500000e-01
     vertex  9.375000e-02  7.500000e-01 -7.500000e-01
   endloop
 endfacet
 facet normal  0.000000e+00  7.401487e-17  1.000000e+00
   outer loop
     vertex -2.812050e-33 -7.500000e-01  7.500000e-01
     vertex  9.375000e-02  7.500000e-01  7.500000e-01
     vertex  2.812050e-33  7.500000e-01  7.500000e-01
   endloop
 endfacet
 facet normal -0.000000e+00  7.401487e-17  1.000000e+00
   outer loop
     vertex -2.812050e-33 -7.500000e-01  7.500000e-01
     vertex  9.375000e-02 -7.500000e-01  7.500000e-01
     vertex  9.375000e-02  7.500000e-01  7.500000e-01
   endloop
 endfacet
 facet normal  0.000000e+00 -1.000000e+00  0.000000e+00
   outer loop
     vertex -2.812050e-33 -7.500000e-01  5.625000e-01
     vertex  9.375000e-02 -7.500000e-01  7.500000e-01
     vertex -2.812050e-33 -7.500000e-01  7.500000e-01
   endloop
 endfacet
 facet normal  0.000000e+00 -1.000000e+00  0.000000e+00
   outer loop
     vertex -2.812050e-33 -7.500000e-01  5.625000e-01
     vertex  9.375000e-02 -7.500000e-01  5.625000e-01
     vertex  9.375000e-02 -7.500000e-01  7.500000e-01
   endloop
 endfacet
 facet normal -1.000000e+00  3.749399e-33  0.000000e+00
   outer loop
     vertex  2.812050e-33  7.500000e-01  7.500000e-01
     vertex  1.406025e-33  3.750000e-01 -7.500000e-01
     vertex -2.812050e-33 -7.500000e-01  5.625000e-01
   endloop
 endfacet
 facet normal -1.000000e+00  3.749399e-33  0.000000e+00
   outer loop
     vertex  2.812050e-33  7.500000e-01  7.500000e-01
     vertex  2.812050e-33  7.500000e-01 -7.500000e-01
     vertex  1.406025e-33  3.750000e-01 -7.500000e-01
   endloop
 endfacet
 facet normal -1.000000e+00  3.749399e-33  0.000000e+00
   outer loop
     vertex  2.812050e-33  7.500000e-01  7.500000e-01
     vertex -2.812050e-33 -7.500000e-01  5.625000e-01
     vertex -2.812050e-33 -7.500000e-01  7.500000e-01
   endloop
 endfacet
 facet normal  1.000000e+00  0.000000e+00  0.000000e+00
   outer loop
     vertex  9.375000e-02  7.500000e-01  7.500000e-01
     vertex  9.375000e-02 -7.500000e-01  5.625000e-01
     vertex  9.375000e-02  3.750000e-01 -7.500000e-01
   endloop
 endfacet
 facet normal  1.000000e+00  0.000000e+00  0.000000e+00
   outer loop
     vertex  9.375000e-02  7.500000e-01  7.500000e-01
     vertex  9.375000e-02  3.750000e-01 -7.500000e-01
     vertex  9.375000e-02  7.500000e-01 -7.500000e-01
   endloop
 endfacet
 facet normal  1.000000e+00  0.000000e+00  0.000000e+00
   outer loop
     vertex  9.375000e-02  7.500000e-01  7.500000e-01
     vertex  9.375000e-02 -7.500000e-01  7.500000e-01
     vertex  9.375000e-02 -7.500000e-01  5.625000e-01
   endloop
 endfacet
endsolid
