solid 
 facet normal -9.961947e-01 -1.107144e-15 -8.715574e-02
   outer loop
     vertex -4.337019e-01 -4.117613e-16 -5.434120e-01
     vertex -4.375000e-01 -1.500000e-01 -5.000000e-01
     vertex -4.375000e-01 -4.153672e-16 -5.000000e-01
   endloop
 endfacet
 facet normal -9.961947e-01 -1.105998e-15 -8.715574e-02
   outer loop
     vertex -4.337019e-01 -4.117613e-16 -5.434120e-01
     vertex -4.337019e-01 -1.500000e-01 -5.434120e-01
     vertex -4.375000e-01 -1.500000e-01 -5.000000e-01
   endloop
 endfacet
 facet normal -9.659258e-01 -1.072393e-15 -2.588190e-01
   outer loop
     vertex -4.224232e-01 -4.010531e-16 -5.855050e-01
     vertex -4.224232e-01 -1.500000e-01 -5.855050e-01
     vertex -4.337019e-01 -1.500000e-01 -5.434120e-01
   endloop
 endfacet
 facet normal -9.659258e-01 -1.069825e-15 -2.588190e-01
   outer loop
     vertex -4.224232e-01 -4.010531e-16 -5.855050e-01
     vertex -4.337019e-01 -1.500000e-01 -5.434120e-01
     vertex -4.337019e-01 -4.117613e-16 -5.434120e-01
   endloop
 endfacet
 facet normal -9.063078e-01 -1.006204e-15 -4.226183e-01
   outer loop
     vertex -4.040064e-01 -3.835680e-16 -6.250000e-01
     vertex -4.040064e-01 -1.500000e-01 -6.250000e-01
     vertex -4.224232e-01 -1.500000e-01 -5.855050e-01
   endloop
 endfacet
 facet normal -9.063078e-01 -1.011772e-15 -4.226183e-01
   outer loop
     vertex -4.040064e-01 -3.835680e-16 -6.250000e-01
     vertex -4.224232e-01 -1.500000e-01 -5.855050e-01
     vertex -4.224232e-01 -4.010531e-16 -5.855050e-01
   endloop
 endfacet
 facet normal -8.191520e-01 -9.094415e-16 -5.735764e-01
   outer loop
     vertex -3.790111e-01 -3.598372e-16 -6.606969e-01
     vertex -3.790111e-01 -1.500000e-01 -6.606969e-01
     vertex -4.040064e-01 -1.500000e-01 -6.250000e-01
   endloop
 endfacet
 facet normal -8.191520e-01 -9.122538e-16 -5.735764e-01
   outer loop
     vertex -3.790111e-01 -3.598372e-16 -6.606969e-01
     vertex -4.040064e-01 -1.500000e-01 -6.250000e-01
     vertex -4.040064e-01 -3.835680e-16 -6.250000e-01
   endloop
 endfacet
 facet normal -7.071068e-01 -7.850462e-16 -7.071068e-01
   outer loop
     vertex -3.481969e-01 -3.305819e-16 -6.915111e-01
     vertex -3.481969e-01 -1.500000e-01 -6.915111e-01
     vertex -3.790111e-01 -1.500000e-01 -6.606969e-01
   endloop
 endfacet
 facet normal -7.071068e-01 -7.795624e-16 -7.071068e-01
   outer loop
     vertex -3.481969e-01 -3.305819e-16 -6.915111e-01
     vertex -3.790111e-01 -1.500000e-01 -6.606969e-01
     vertex -3.790111e-01 -3.598372e-16 -6.606969e-01
   endloop
 endfacet
 facet normal -5.735764e-01 -6.367978e-16 -8.191520e-01
   outer loop
     vertex -3.125000e-01 -2.966909e-16 -7.165064e-01
     vertex -3.125000e-01 -1.500000e-01 -7.165064e-01
     vertex -3.481969e-01 -1.500000e-01 -6.915111e-01
   endloop
 endfacet
 facet normal -5.735764e-01 -6.468709e-16 -8.191520e-01
   outer loop
     vertex -3.125000e-01 -2.966909e-16 -7.165064e-01
     vertex -3.481969e-01 -1.500000e-01 -6.915111e-01
     vertex -3.481969e-01 -3.305819e-16 -6.915111e-01
   endloop
 endfacet
 facet normal -4.226183e-01 -4.692005e-16 -9.063078e-01
   outer loop
     vertex -2.730050e-01 -2.591939e-16 -7.349232e-01
     vertex -2.730050e-01 -1.500000e-01 -7.349232e-01
     vertex -3.125000e-01 -1.500000e-01 -7.165064e-01
   endloop
 endfacet
 facet normal -4.226183e-01 -4.810066e-16 -9.063078e-01
   outer loop
     vertex -2.730050e-01 -2.591939e-16 -7.349232e-01
     vertex -3.125000e-01 -1.500000e-01 -7.165064e-01
     vertex -3.125000e-01 -2.966909e-16 -7.165064e-01
   endloop
 endfacet
 facet normal -2.588190e-01 -2.394557e-16 -9.659258e-01
   outer loop
     vertex -2.309120e-01 -2.192304e-16 -7.462019e-01
     vertex -2.309120e-01 -1.500000e-01 -7.462019e-01
     vertex -2.730050e-01 -1.500000e-01 -7.349232e-01
   endloop
 endfacet
 facet normal -2.588190e-01 -2.902626e-16 -9.659258e-01
   outer loop
     vertex -2.309120e-01 -2.192304e-16 -7.462019e-01
     vertex -2.730050e-01 -1.500000e-01 -7.349232e-01
     vertex -2.730050e-01 -2.591939e-16 -7.349232e-01
   endloop
 endfacet
 facet normal -8.715574e-02 -8.063526e-17 -9.961947e-01
   outer loop
     vertex -1.875000e-01 -1.780145e-16 -7.500000e-01
     vertex -1.875000e-01 -1.500000e-01 -7.500000e-01
     vertex -2.309120e-01 -1.500000e-01 -7.462019e-01
   endloop
 endfacet
 facet normal -8.715574e-02 -7.878556e-17 -9.961947e-01
   outer loop
     vertex -1.875000e-01 -1.780145e-16 -7.500000e-01
     vertex -2.309120e-01 -1.500000e-01 -7.462019e-01
     vertex -2.309120e-01 -2.192304e-16 -7.462019e-01
   endloop
 endfacet
 facet normal  0.000000e+00  0.000000e+00 -1.000000e+00
   outer loop
     vertex  4.375000e-01  4.153672e-16 -7.500000e-01
     vertex -1.875000e-01 -1.500000e-01 -7.500000e-01
     vertex -1.875000e-01 -1.780145e-16 -7.500000e-01
   endloop
 endfacet
 facet normal  0.000000e+00 -0.000000e+00 -1.000000e+00
   outer loop
     vertex  4.375000e-01  4.153672e-16 -7.500000e-01
     vertex  4.375000e-01 -1.500000e-01 -7.500000e-01
     vertex -1.875000e-01 -1.500000e-01 -7.500000e-01
   endloop
 endfacet
 facet normal  1.000000e+00  1.110223e-15  0.000000e+00
   outer loop
     vertex  4.375000e-01  4.153672e-16  7.500000e-01
     vertex  4.375000e-01 -1.500000e-01 -7.500000e-01
     vertex  4.375000e-01  4.153672e-16 -7.500000e-01
   endloop
 endfacet
 facet normal  1.000000e+00  1.110223e-15  0.000000e+00
   outer loop
     vertex  4.375000e-01  4.153672e-16  7.500000e-01
     vertex  4.375000e-01 -1.500000e-01  7.500000e-01
     vertex  4.375000e-01 -1.500000e-01 -7.500000e-01
   endloop
 endfacet
 facet normal -0.000000e+00  0.000000e+00  1.000000e+00
   outer loop
     vertex -1.875000e-01 -1.780145e-16  7.500000e-01
     vertex  4.375000e-01 -1.500000e-01  7.500000e-01
     vertex  4.375000e-01  4.153672e-16  7.500000e-01
   endloop
 endfacet
 facet normal  0.000000e+00  0.000000e+00  1.000000e+00
   outer loop
     vertex -1.875000e-01 -1.780145e-16  7.500000e-01
     vertex -1.875000e-01 -1.500000e-01  7.500000e-01
     vertex  4.375000e-01 -1.500000e-01  7.500000e-01
   endloop
 endfacet
 facet normal -8.715574e-02 -8.293217e-17  9.961947e-01
   outer loop
     vertex -2.309120e-01 -2.192304e-16  7.462019e-01
     vertex -1.875000e-01 -1.500000e-01  7.500000e-01
     vertex -1.875000e-01 -1.780145e-16  7.500000e-01
   endloop
 endfacet
 facet normal -8.715574e-02 -8.063526e-17  9.961947e-01
   outer loop
     vertex -2.309120e-01 -2.192304e-16  7.462019e-01
     vertex -2.309120e-01 -1.500000e-01  7.462019e-01
     vertex -1.875000e-01 -1.500000e-01  7.500000e-01
   endloop
 endfacet
 facet normal -2.588190e-01 -2.873469e-16  9.659258e-01
   outer loop
     vertex -2.730050e-01 -2.591939e-16  7.349232e-01
     vertex -2.730050e-01 -1.500000e-01  7.349232e-01
     vertex -2.309120e-01 -1.500000e-01  7.462019e-01
   endloop
 endfacet
 facet normal -2.588190e-01 -2.322101e-16  9.659258e-01
   outer loop
     vertex -2.730050e-01 -2.591939e-16  7.349232e-01
     vertex -2.309120e-01 -1.500000e-01  7.462019e-01
     vertex -2.309120e-01 -2.192304e-16  7.462019e-01
   endloop
 endfacet
 facet normal -4.226183e-01 -4.692005e-16  9.063078e-01
   outer loop
     vertex -3.125000e-01 -2.966909e-16  7.165064e-01
     vertex -3.125000e-01 -1.500000e-01  7.165064e-01
     vertex -2.730050e-01 -1.500000e-01  7.349232e-01
   endloop
 endfacet
 facet normal -4.226183e-01 -4.644201e-16  9.063078e-01
   outer loop
     vertex -3.125000e-01 -2.966909e-16  7.165064e-01
     vertex -2.730050e-01 -1.500000e-01  7.349232e-01
     vertex -2.730050e-01 -2.591939e-16  7.349232e-01
   endloop
 endfacet
 facet normal -5.735764e-01 -6.367978e-16  8.191520e-01
   outer loop
     vertex -3.481969e-01 -3.305819e-16  6.915111e-01
     vertex -3.481969e-01 -1.500000e-01  6.915111e-01
     vertex -3.125000e-01 -1.500000e-01  7.165064e-01
   endloop
 endfacet
 facet normal -5.735764e-01 -6.468709e-16  8.191520e-01
   outer loop
     vertex -3.481969e-01 -3.305819e-16  6.915111e-01
     vertex -3.125000e-01 -1.500000e-01  7.165064e-01
     vertex -3.125000e-01 -2.966909e-16  7.165064e-01
   endloop
 endfacet
 facet normal -7.071068e-01 -7.850462e-16  7.071068e-01
   outer loop
     vertex -3.790111e-01 -3.598372e-16  6.606969e-01
     vertex -3.790111e-01 -1.500000e-01  6.606969e-01
     vertex -3.481969e-01 -1.500000e-01  6.915111e-01
   endloop
 endfacet
 facet normal -7.071068e-01 -7.795624e-16  7.071068e-01
   outer loop
     vertex -3.790111e-01 -3.598372e-16  6.606969e-01
     vertex -3.481969e-01 -1.500000e-01  6.915111e-01
     vertex -3.481969e-01 -3.305819e-16  6.915111e-01
   endloop
 endfacet
 facet normal -8.191520e-01 -9.094415e-16  5.735764e-01
   outer loop
     vertex -4.040064e-01 -3.835680e-16  6.250000e-01
     vertex -4.040064e-01 -1.500000e-01  6.250000e-01
     vertex -3.790111e-01 -1.500000e-01  6.606969e-01
   endloop
 endfacet
 facet normal -8.191520e-01 -9.122538e-16  5.735764e-01
   outer loop
     vertex -4.040064e-01 -3.835680e-16  6.250000e-01
     vertex -3.790111e-01 -1.500000e-01  6.606969e-01
     vertex -3.790111e-01 -3.598372e-16  6.606969e-01
   endloop
 endfacet
 facet normal -9.063078e-01 -1.006204e-15  4.226183e-01
   outer loop
     vertex -4.224232e-01 -4.010531e-16  5.855050e-01
     vertex -4.224232e-01 -1.500000e-01  5.855050e-01
     vertex -4.040064e-01 -1.500000e-01  6.250000e-01
   endloop
 endfacet
 facet normal -9.063078e-01 -9.951860e-16  4.226183e-01
   outer loop
     vertex -4.224232e-01 -4.010531e-16  5.855050e-01
     vertex -4.040064e-01 -1.500000e-01  6.250000e-01
     vertex -4.040064e-01 -3.835680e-16  6.250000e-01
   endloop
 endfacet
 facet normal -9.659258e-01 -1.072393e-15  2.588190e-01
   outer loop
     vertex -4.337019e-01 -4.117613e-16  5.434120e-01
     vertex -4.337019e-01 -1.500000e-01  5.434120e-01
     vertex -4.224232e-01 -1.500000e-01  5.855050e-01
   endloop
 endfacet
 facet normal -9.659258e-01 -1.078118e-15  2.588190e-01
   outer loop
     vertex -4.337019e-01 -4.117613e-16  5.434120e-01
     vertex -4.224232e-01 -1.500000e-01  5.855050e-01
     vertex -4.224232e-01 -4.010531e-16  5.855050e-01
   endloop
 endfacet
 facet normal -9.961947e-01 -1.105998e-15  8.715574e-02
   outer loop
     vertex -4.375000e-01 -4.153672e-16  5.000000e-01
     vertex -4.375000e-01 -1.500000e-01  5.000000e-01
     vertex -4.337019e-01 -1.500000e-01  5.434120e-01
   endloop
 endfacet
 facet normal -9.961947e-01 -1.107144e-15  8.715574e-02
   outer loop
     vertex -4.375000e-01 -4.153672e-16  5.000000e-01
     vertex -4.337019e-01 -1.500000e-01  5.434120e-01
     vertex -4.337019e-01 -4.117613e-16  5.434120e-01
   endloop
 endfacet
 facet normal -1.000000e+00 -1.110223e-15 -5.473822e-47
   outer loop
     vertex -4.375000e-01 -4.153672e-16 -5.000000e-01
     vertex -4.375000e-01 -1.500000e-01  5.000000e-01
     vertex -4.375000e-01 -4.153672e-16  5.000000e-01
   endloop
 endfacet
 facet normal -1.000000e+00 -1.110223e-15  0.000000e+00
   outer loop
     vertex -4.375000e-01 -4.153672e-16 -5.000000e-01
     vertex -4.375000e-01 -1.500000e-01 -5.000000e-01
     vertex -4.375000e-01 -1.500000e-01  5.000000e-01
   endloop
 endfacet
 facet normal  9.961947e-01  1.105762e-15  8.715574e-02
   outer loop
     vertex -2.727212e-01 -2.605193e-16 -4.635472e-01
     vertex -2.750000e-01 -2.610880e-16 -4.375000e-01
     vertex -2.750000e-01 -1.500000e-01 -4.375000e-01
   endloop
 endfacet
 facet normal  9.961947e-01  1.105998e-15  8.715574e-02
   outer loop
     vertex -2.727212e-01 -2.605193e-16 -4.635472e-01
     vertex -2.750000e-01 -1.500000e-01 -4.375000e-01
     vertex -2.727212e-01 -1.500000e-01 -4.635472e-01
   endloop
 endfacet
 facet normal  9.659258e-01  1.072393e-15  2.588190e-01
   outer loop
     vertex -2.659539e-01 -2.556409e-16 -4.888030e-01
     vertex -2.727212e-01 -1.500000e-01 -4.635472e-01
     vertex -2.659539e-01 -1.500000e-01 -4.888030e-01
   endloop
 endfacet
 facet normal  9.659258e-01  1.078118e-15  2.588190e-01
   outer loop
     vertex -2.659539e-01 -2.556409e-16 -4.888030e-01
     vertex -2.727212e-01 -2.605193e-16 -4.635472e-01
     vertex -2.727212e-01 -1.500000e-01 -4.635472e-01
   endloop
 endfacet
 facet normal  9.063078e-01  1.006204e-15  4.226183e-01
   outer loop
     vertex -2.549038e-01 -2.466008e-16 -5.125000e-01
     vertex -2.659539e-01 -1.500000e-01 -4.888030e-01
     vertex -2.549038e-01 -1.500000e-01 -5.125000e-01
   endloop
 endfacet
 facet normal  9.063078e-01  1.009008e-15  4.226183e-01
   outer loop
     vertex -2.549038e-01 -2.466008e-16 -5.125000e-01
     vertex -2.659539e-01 -2.556409e-16 -4.888030e-01
     vertex -2.659539e-01 -1.500000e-01 -4.888030e-01
   endloop
 endfacet
 facet normal  8.191520e-01  7.578679e-16  5.735764e-01
   outer loop
     vertex -2.399067e-01 -2.336739e-16 -5.339181e-01
     vertex -2.549038e-01 -1.500000e-01 -5.125000e-01
     vertex -2.399067e-01 -1.500000e-01 -5.339181e-01
   endloop
 endfacet
 facet normal  8.191520e-01  9.122538e-16  5.735764e-01
   outer loop
     vertex -2.399067e-01 -2.336739e-16 -5.339181e-01
     vertex -2.549038e-01 -2.466008e-16 -5.125000e-01
     vertex -2.549038e-01 -1.500000e-01 -5.125000e-01
   endloop
 endfacet
 facet normal  7.071068e-01  6.542052e-16  7.071068e-01
   outer loop
     vertex -2.214181e-01 -2.172528e-16 -5.524067e-01
     vertex -2.399067e-01 -1.500000e-01 -5.339181e-01
     vertex -2.214181e-01 -1.500000e-01 -5.524067e-01
   endloop
 endfacet
 facet normal  7.071068e-01  6.634573e-16  7.071068e-01
   outer loop
     vertex -2.214181e-01 -2.172528e-16 -5.524067e-01
     vertex -2.399067e-01 -2.336739e-16 -5.339181e-01
     vertex -2.399067e-01 -1.500000e-01 -5.339181e-01
   endloop
 endfacet
 facet normal  5.735764e-01  5.252370e-16  8.191520e-01
   outer loop
     vertex -2.000000e-01 -1.978365e-16 -5.674038e-01
     vertex -2.214181e-01 -2.172528e-16 -5.524067e-01
     vertex -2.214181e-01 -1.500000e-01 -5.524067e-01
   endloop
 endfacet
 facet normal  5.735764e-01  5.306648e-16  8.191520e-01
   outer loop
     vertex -2.000000e-01 -1.978365e-16 -5.674038e-01
     vertex -2.214181e-01 -1.500000e-01 -5.524067e-01
     vertex -2.000000e-01 -1.500000e-01 -5.674038e-01
   endloop
 endfacet
 facet normal  4.226183e-01  4.008388e-16  9.063078e-01
   outer loop
     vertex -1.763030e-01 -1.760149e-16 -5.784539e-01
     vertex -2.000000e-01 -1.978365e-16 -5.674038e-01
     vertex -2.000000e-01 -1.500000e-01 -5.674038e-01
   endloop
 endfacet
 facet normal  4.226183e-01  3.910004e-16  9.063078e-01
   outer loop
     vertex -1.763030e-01 -1.760149e-16 -5.784539e-01
     vertex -2.000000e-01 -1.500000e-01 -5.674038e-01
     vertex -1.763030e-01 -1.500000e-01 -5.784539e-01
   endloop
 endfacet
 facet normal  2.588190e-01  2.394557e-16  9.659258e-01
   outer loop
     vertex -1.510472e-01 -1.524512e-16 -5.852212e-01
     vertex -1.763030e-01 -1.500000e-01 -5.784539e-01
     vertex -1.510472e-01 -1.500000e-01 -5.852212e-01
   endloop
 endfacet
 facet normal  2.588190e-01  2.418855e-16  9.659258e-01
   outer loop
     vertex -1.510472e-01 -1.524512e-16 -5.852212e-01
     vertex -1.763030e-01 -1.760149e-16 -5.784539e-01
     vertex -1.763030e-01 -1.500000e-01 -5.784539e-01
   endloop
 endfacet
 facet normal  8.715574e-02  8.063526e-17  9.961947e-01
   outer loop
     vertex -1.250000e-01 -1.278612e-16 -5.875000e-01
     vertex -1.510472e-01 -1.500000e-01 -5.852212e-01
     vertex -1.250000e-01 -1.500000e-01 -5.875000e-01
   endloop
 endfacet
 facet normal  8.715574e-02  8.120441e-17  9.961947e-01
   outer loop
     vertex -1.250000e-01 -1.278612e-16 -5.875000e-01
     vertex -1.510472e-01 -1.524512e-16 -5.852212e-01
     vertex -1.510472e-01 -1.500000e-01 -5.852212e-01
   endloop
 endfacet
 facet normal -8.715574e-02 -8.063526e-17  9.961947e-01
   outer loop
     vertex -9.895277e-02 -1.029921e-16 -5.852212e-01
     vertex -1.250000e-01 -1.500000e-01 -5.875000e-01
     vertex -9.895277e-02 -1.500000e-01 -5.852212e-01
   endloop
 endfacet
 facet normal -8.715574e-02 -8.120441e-17  9.961947e-01
   outer loop
     vertex -9.895277e-02 -1.029921e-16 -5.852212e-01
     vertex -1.250000e-01 -1.278612e-16 -5.875000e-01
     vertex -1.250000e-01 -1.500000e-01 -5.875000e-01
   endloop
 endfacet
 facet normal -2.588190e-01 -2.394557e-16  9.659258e-01
   outer loop
     vertex -7.369698e-02 -7.859964e-17 -5.784539e-01
     vertex -9.895277e-02 -1.500000e-01 -5.852212e-01
     vertex -7.369698e-02 -1.500000e-01 -5.784539e-01
   endloop
 endfacet
 facet normal -2.588190e-01 -2.418855e-16  9.659258e-01
   outer loop
     vertex -7.369698e-02 -7.859964e-17 -5.784539e-01
     vertex -9.895277e-02 -1.029921e-16 -5.852212e-01
     vertex -9.895277e-02 -1.500000e-01 -5.852212e-01
   endloop
 endfacet
 facet normal -4.226183e-01 -4.105505e-16  9.063078e-01
   outer loop
     vertex -5.000000e-02 -5.542485e-17 -5.674038e-01
     vertex -7.369698e-02 -1.500000e-01 -5.784539e-01
     vertex -5.000000e-02 -1.500000e-01 -5.674038e-01
   endloop
 endfacet
 facet normal -5.735764e-01 -5.571980e-16  8.191520e-01
   outer loop
     vertex -5.000000e-02 -5.542485e-17 -5.674038e-01
     vertex -5.000000e-02 -1.500000e-01 -5.674038e-01
     vertex -2.858186e-02 -1.500000e-01 -5.524067e-01
   endloop
 endfacet
 facet normal -4.226183e-01 -4.008388e-16  9.063078e-01
   outer loop
     vertex -5.000000e-02 -5.542485e-17 -5.674038e-01
     vertex -7.369698e-02 -7.859964e-17 -5.784539e-01
     vertex -7.369698e-02 -1.500000e-01 -5.784539e-01
   endloop
 endfacet
 facet normal -5.735764e-01 -5.439314e-16  8.191520e-01
   outer loop
     vertex -2.858186e-02 -3.417193e-17 -5.524067e-01
     vertex -5.000000e-02 -5.542485e-17 -5.674038e-01
     vertex -2.858186e-02 -1.500000e-01 -5.524067e-01
   endloop
 endfacet
 facet normal -7.071068e-01 -6.705603e-16  7.071068e-01
   outer loop
     vertex -1.009333e-02 -1.548663e-17 -5.339181e-01
     vertex -2.858186e-02 -1.500000e-01 -5.524067e-01
     vertex -1.009333e-02 -1.500000e-01 -5.339181e-01
   endloop
 endfacet
 facet normal -7.071068e-01 -6.772794e-16  7.071068e-01
   outer loop
     vertex -1.009333e-02 -1.548663e-17 -5.339181e-01
     vertex -2.858186e-02 -3.417193e-17 -5.524067e-01
     vertex -2.858186e-02 -1.500000e-01 -5.524067e-01
   endloop
 endfacet
 facet normal -8.191520e-01 -7.768146e-16  5.735764e-01
   outer loop
     vertex  4.903811e-03  6.330502e-20 -5.125000e-01
     vertex -1.009333e-02 -1.500000e-01 -5.339181e-01
     vertex  4.903811e-03 -1.500000e-01 -5.125000e-01
   endloop
 endfacet
 facet normal -8.191520e-01 -7.878556e-16  5.735764e-01
   outer loop
     vertex  4.903811e-03  6.330502e-20 -5.125000e-01
     vertex -1.009333e-02 -1.548663e-17 -5.339181e-01
     vertex -1.009333e-02 -1.500000e-01 -5.339181e-01
   endloop
 endfacet
 facet normal -9.063078e-01 -8.594657e-16  4.226183e-01
   outer loop
     vertex  1.595389e-02  1.200539e-17 -4.888030e-01
     vertex  4.903811e-03 -1.500000e-01 -5.125000e-01
     vertex  1.595389e-02 -1.500000e-01 -4.888030e-01
   endloop
 endfacet
 facet normal -9.659258e-01 -9.160024e-16  2.588190e-01
   outer loop
     vertex  1.595389e-02  1.200539e-17 -4.888030e-01
     vertex  1.595389e-02 -1.500000e-01 -4.888030e-01
     vertex  2.272116e-02 -1.500000e-01 -4.635472e-01
   endloop
 endfacet
 facet normal -9.063078e-01 -8.569657e-16  4.226183e-01
   outer loop
     vertex  1.595389e-02  1.200539e-17 -4.888030e-01
     vertex  4.903811e-03  6.330502e-20 -5.125000e-01
     vertex  4.903811e-03 -1.500000e-01 -5.125000e-01
   endloop
 endfacet
 facet normal -9.659258e-01 -9.160024e-16  2.588190e-01
   outer loop
     vertex  2.272116e-02  1.997678e-17 -4.635472e-01
     vertex  1.595389e-02  1.200539e-17 -4.888030e-01
     vertex  2.272116e-02 -1.500000e-01 -4.635472e-01
   endloop
 endfacet
 facet normal -9.961947e-01 -9.447069e-16  8.715574e-02
   outer loop
     vertex  2.500000e-02  2.373527e-17 -4.375000e-01
     vertex  2.272116e-02 -1.500000e-01 -4.635472e-01
     vertex  2.500000e-02 -1.500000e-01 -4.375000e-01
   endloop
 endfacet
 facet normal -9.961947e-01 -9.433534e-16  8.715574e-02
   outer loop
     vertex  2.500000e-02  2.373527e-17 -4.375000e-01
     vertex  2.272116e-02  1.997678e-17 -4.635472e-01
     vertex  2.272116e-02 -1.500000e-01 -4.635472e-01
   endloop
 endfacet
 facet normal -9.961947e-01 -9.447069e-16 -8.715574e-02
   outer loop
     vertex  2.272116e-02  2.316665e-17 -4.114528e-01
     vertex  2.500000e-02 -1.500000e-01 -4.375000e-01
     vertex  2.272116e-02 -1.500000e-01 -4.114528e-01
   endloop
 endfacet
 facet normal -9.961947e-01 -9.450811e-16 -8.715574e-02
   outer loop
     vertex  2.272116e-02  2.316665e-17 -4.114528e-01
     vertex  2.500000e-02  2.373527e-17 -4.375000e-01
     vertex  2.500000e-02 -1.500000e-01 -4.375000e-01
   endloop
 endfacet
 facet normal -9.659258e-01 -9.160024e-16 -2.588190e-01
   outer loop
     vertex  1.595389e-02  1.828820e-17 -3.861970e-01
     vertex  2.272116e-02 -1.500000e-01 -4.114528e-01
     vertex  1.595389e-02 -1.500000e-01 -3.861970e-01
   endloop
 endfacet
 facet normal -9.659258e-01 -9.122538e-16 -2.588190e-01
   outer loop
     vertex  1.595389e-02  1.828820e-17 -3.861970e-01
     vertex  2.272116e-02  2.316665e-17 -4.114528e-01
     vertex  2.272116e-02 -1.500000e-01 -4.114528e-01
   endloop
 endfacet
 facet normal -9.063078e-01 -8.594657e-16 -4.226183e-01
   outer loop
     vertex  4.903811e-03  9.248156e-18 -3.625000e-01
     vertex  1.595389e-02 -1.500000e-01 -3.861970e-01
     vertex  4.903811e-03 -1.500000e-01 -3.625000e-01
   endloop
 endfacet
 facet normal -9.063078e-01 -8.569657e-16 -4.226183e-01
   outer loop
     vertex  4.903811e-03  9.248156e-18 -3.625000e-01
     vertex  1.595389e-02  1.828820e-17 -3.861970e-01
     vertex  1.595389e-02 -1.500000e-01 -3.861970e-01
   endloop
 endfacet
 facet normal -8.191520e-01 -7.768146e-16 -5.735764e-01
   outer loop
     vertex -1.009333e-02 -3.678811e-18 -3.410819e-01
     vertex  4.903811e-03 -1.500000e-01 -3.625000e-01
     vertex -1.009333e-02 -1.500000e-01 -3.410819e-01
   endloop
 endfacet
 facet normal -8.191520e-01 -7.740335e-16 -5.735764e-01
   outer loop
     vertex -1.009333e-02 -3.678811e-18 -3.410819e-01
     vertex  4.903811e-03  9.248156e-18 -3.625000e-01
     vertex  4.903811e-03 -1.500000e-01 -3.625000e-01
   endloop
 endfacet
 facet normal -7.071068e-01 -6.705603e-16 -7.071068e-01
   outer loop
     vertex -2.858186e-02 -2.009992e-17 -3.225933e-01
     vertex -1.009333e-02 -1.500000e-01 -3.410819e-01
     vertex -2.858186e-02 -1.500000e-01 -3.225933e-01
   endloop
 endfacet
 facet normal -7.071068e-01 -6.772794e-16 -7.071068e-01
   outer loop
     vertex -2.858186e-02 -2.009992e-17 -3.225933e-01
     vertex -1.009333e-02 -3.678811e-18 -3.410819e-01
     vertex -1.009333e-02 -1.500000e-01 -3.410819e-01
   endloop
 endfacet
 facet normal -5.735764e-01 -5.571980e-16 -8.191520e-01
   outer loop
     vertex -5.000000e-02 -3.951622e-17 -3.075962e-01
     vertex -2.858186e-02 -1.500000e-01 -3.225933e-01
     vertex -5.000000e-02 -1.500000e-01 -3.075962e-01
   endloop
 endfacet
 facet normal -5.735764e-01 -5.528811e-16 -8.191520e-01
   outer loop
     vertex -5.000000e-02 -3.951622e-17 -3.075962e-01
     vertex -2.858186e-02 -2.009992e-17 -3.225933e-01
     vertex -2.858186e-02 -1.500000e-01 -3.225933e-01
   endloop
 endfacet
 facet normal -4.226183e-01 -3.910004e-16 -9.063078e-01
   outer loop
     vertex -7.369698e-02 -6.133777e-17 -2.965461e-01
     vertex -5.000000e-02 -1.500000e-01 -3.075962e-01
     vertex -7.369698e-02 -1.500000e-01 -2.965461e-01
   endloop
 endfacet
 facet normal -4.226183e-01 -4.146608e-16 -9.063078e-01
   outer loop
     vertex -7.369698e-02 -6.133777e-17 -2.965461e-01
     vertex -5.000000e-02 -3.951622e-17 -3.075962e-01
     vertex -5.000000e-02 -1.500000e-01 -3.075962e-01
   endloop
 endfacet
 facet normal -2.588190e-01 -2.394557e-16 -9.659258e-01
   outer loop
     vertex -9.895277e-02 -8.490152e-17 -2.897788e-01
     vertex -7.369698e-02 -1.500000e-01 -2.965461e-01
     vertex -9.895277e-02 -1.500000e-01 -2.897788e-01
   endloop
 endfacet
 facet normal -2.588190e-01 -2.418855e-16 -9.659258e-01
   outer loop
     vertex -9.895277e-02 -8.490152e-17 -2.897788e-01
     vertex -7.369698e-02 -6.133777e-17 -2.965461e-01
     vertex -7.369698e-02 -1.500000e-01 -2.965461e-01
   endloop
 endfacet
 facet normal -8.715574e-02 -8.063526e-17 -9.961947e-01
   outer loop
     vertex -1.250000e-01 -1.094915e-16 -2.875000e-01
     vertex -9.895277e-02 -1.500000e-01 -2.897788e-01
     vertex -1.250000e-01 -1.500000e-01 -2.875000e-01
   endloop
 endfacet
 facet normal  8.715574e-02  8.063526e-17 -9.961947e-01
   outer loop
     vertex -1.250000e-01 -1.094915e-16 -2.875000e-01
     vertex -1.250000e-01 -1.500000e-01 -2.875000e-01
     vertex -1.510472e-01 -1.500000e-01 -2.897788e-01
   endloop
 endfacet
 facet normal -8.715574e-02 -8.120441e-17 -9.961947e-01
   outer loop
     vertex -1.250000e-01 -1.094915e-16 -2.875000e-01
     vertex -9.895277e-02 -8.490152e-17 -2.897788e-01
     vertex -9.895277e-02 -1.500000e-01 -2.897788e-01
   endloop
 endfacet
 facet normal  2.588190e-01  2.394557e-16 -9.659258e-01
   outer loop
     vertex -1.510472e-01 -1.343605e-16 -2.897788e-01
     vertex -1.510472e-01 -1.500000e-01 -2.897788e-01
     vertex -1.763030e-01 -1.500000e-01 -2.965461e-01
   endloop
 endfacet
 facet normal  8.715574e-02  8.063526e-17 -9.961947e-01
   outer loop
     vertex -1.510472e-01 -1.343605e-16 -2.897788e-01
     vertex -1.250000e-01 -1.094915e-16 -2.875000e-01
     vertex -1.510472e-01 -1.500000e-01 -2.897788e-01
   endloop
 endfacet
 facet normal  2.588190e-01  2.394557e-16 -9.659258e-01
   outer loop
     vertex -1.763030e-01 -1.587530e-16 -2.965461e-01
     vertex -1.510472e-01 -1.343605e-16 -2.897788e-01
     vertex -1.763030e-01 -1.500000e-01 -2.965461e-01
   endloop
 endfacet
 facet normal  4.226183e-01  3.910004e-16 -9.063078e-01
   outer loop
     vertex -2.000000e-01 -1.819278e-16 -3.075962e-01
     vertex -1.763030e-01 -1.500000e-01 -2.965461e-01
     vertex -2.000000e-01 -1.500000e-01 -3.075962e-01
   endloop
 endfacet
 facet normal  4.226183e-01  4.008388e-16 -9.063078e-01
   outer loop
     vertex -2.000000e-01 -1.819278e-16 -3.075962e-01
     vertex -1.763030e-01 -1.587530e-16 -2.965461e-01
     vertex -1.763030e-01 -1.500000e-01 -2.965461e-01
   endloop
 endfacet
 facet normal  5.735764e-01  5.390591e-16 -8.191520e-01
   outer loop
     vertex -2.214181e-01 -2.031808e-16 -3.225933e-01
     vertex -2.000000e-01 -1.819278e-16 -3.075962e-01
     vertex -2.000000e-01 -1.500000e-01 -3.075962e-01
   endloop
 endfacet
 facet normal  5.735764e-01  5.306648e-16 -8.191520e-01
   outer loop
     vertex -2.214181e-01 -2.031808e-16 -3.225933e-01
     vertex -2.000000e-01 -1.500000e-01 -3.075962e-01
     vertex -2.214181e-01 -1.500000e-01 -3.225933e-01
   endloop
 endfacet
 facet normal  7.071068e-01  6.542052e-16 -7.071068e-01
   outer loop
     vertex -2.214181e-01 -2.031808e-16 -3.225933e-01
     vertex -2.214181e-01 -1.500000e-01 -3.225933e-01
     vertex -2.399067e-01 -1.500000e-01 -3.410819e-01
   endloop
 endfacet
 facet normal  7.071068e-01  6.542052e-16 -7.071068e-01
   outer loop
     vertex -2.399067e-01 -2.218661e-16 -3.410819e-01
     vertex -2.214181e-01 -2.031808e-16 -3.225933e-01
     vertex -2.399067e-01 -1.500000e-01 -3.410819e-01
   endloop
 endfacet
 facet normal  8.191520e-01  9.094415e-16 -5.735764e-01
   outer loop
     vertex -2.549038e-01 -2.374160e-16 -3.625000e-01
     vertex -2.399067e-01 -1.500000e-01 -3.410819e-01
     vertex -2.549038e-01 -1.500000e-01 -3.625000e-01
   endloop
 endfacet
 facet normal  8.191520e-01  7.463895e-16 -5.735764e-01
   outer loop
     vertex -2.549038e-01 -2.374160e-16 -3.625000e-01
     vertex -2.399067e-01 -2.218661e-16 -3.410819e-01
     vertex -2.399067e-01 -1.500000e-01 -3.410819e-01
   endloop
 endfacet
 facet normal  9.063078e-01  1.009008e-15 -4.226183e-01
   outer loop
     vertex -2.659539e-01 -2.493581e-16 -3.861970e-01
     vertex -2.549038e-01 -2.374160e-16 -3.625000e-01
     vertex -2.549038e-01 -1.500000e-01 -3.625000e-01
   endloop
 endfacet
 facet normal  9.063078e-01  1.006204e-15 -4.226183e-01
   outer loop
     vertex -2.659539e-01 -2.493581e-16 -3.861970e-01
     vertex -2.549038e-01 -1.500000e-01 -3.625000e-01
     vertex -2.659539e-01 -1.500000e-01 -3.861970e-01
   endloop
 endfacet
 facet normal  9.659258e-01  1.071207e-15 -2.588190e-01
   outer loop
     vertex -2.727212e-01 -2.573295e-16 -4.114528e-01
     vertex -2.659539e-01 -2.493581e-16 -3.861970e-01
     vertex -2.659539e-01 -1.500000e-01 -3.861970e-01
   endloop
 endfacet
 facet normal  9.659258e-01  1.072393e-15 -2.588190e-01
   outer loop
     vertex -2.727212e-01 -2.573295e-16 -4.114528e-01
     vertex -2.659539e-01 -1.500000e-01 -3.861970e-01
     vertex -2.727212e-01 -1.500000e-01 -4.114528e-01
   endloop
 endfacet
 facet normal  9.961947e-01  1.105998e-15 -8.715574e-02
   outer loop
     vertex -2.727212e-01 -2.573295e-16 -4.114528e-01
     vertex -2.727212e-01 -1.500000e-01 -4.114528e-01
     vertex -2.750000e-01 -1.500000e-01 -4.375000e-01
   endloop
 endfacet
 facet normal  9.961947e-01  1.105998e-15 -8.715574e-02
   outer loop
     vertex -2.750000e-01 -2.610880e-16 -4.375000e-01
     vertex -2.727212e-01 -2.573295e-16 -4.114528e-01
     vertex -2.750000e-01 -1.500000e-01 -4.375000e-01
   endloop
 endfacet
 facet normal  9.961947e-01  1.105762e-15  8.715574e-02
   outer loop
     vertex -2.727212e-01 -2.605193e-16  4.114528e-01
     vertex -2.750000e-01 -2.610880e-16  4.375000e-01
     vertex -2.750000e-01 -1.500000e-01  4.375000e-01
   endloop
 endfacet
 facet normal  9.961947e-01  1.105998e-15  8.715574e-02
   outer loop
     vertex -2.727212e-01 -2.605193e-16  4.114528e-01
     vertex -2.750000e-01 -1.500000e-01  4.375000e-01
     vertex -2.727212e-01 -1.500000e-01  4.114528e-01
   endloop
 endfacet
 facet normal  9.659258e-01  1.072393e-15  2.588190e-01
   outer loop
     vertex -2.659539e-01 -2.556409e-16  3.861970e-01
     vertex -2.727212e-01 -1.500000e-01  4.114528e-01
     vertex -2.659539e-01 -1.500000e-01  3.861970e-01
   endloop
 endfacet
 facet normal  9.659258e-01  1.078118e-15  2.588190e-01
   outer loop
     vertex -2.659539e-01 -2.556409e-16  3.861970e-01
     vertex -2.727212e-01 -2.605193e-16  4.114528e-01
     vertex -2.727212e-01 -1.500000e-01  4.114528e-01
   endloop
 endfacet
 facet normal  9.063078e-01  1.006204e-15  4.226183e-01
   outer loop
     vertex -2.549038e-01 -2.466008e-16  3.625000e-01
     vertex -2.659539e-01 -1.500000e-01  3.861970e-01
     vertex -2.549038e-01 -1.500000e-01  3.625000e-01
   endloop
 endfacet
 facet normal  9.063078e-01  1.009008e-15  4.226183e-01
   outer loop
     vertex -2.549038e-01 -2.466008e-16  3.625000e-01
     vertex -2.659539e-01 -2.556409e-16  3.861970e-01
     vertex -2.659539e-01 -1.500000e-01  3.861970e-01
   endloop
 endfacet
 facet normal  8.191520e-01  7.578679e-16  5.735764e-01
   outer loop
     vertex -2.399067e-01 -2.336739e-16  3.410819e-01
     vertex -2.549038e-01 -1.500000e-01  3.625000e-01
     vertex -2.399067e-01 -1.500000e-01  3.410819e-01
   endloop
 endfacet
 facet normal  8.191520e-01  9.122538e-16  5.735764e-01
   outer loop
     vertex -2.399067e-01 -2.336739e-16  3.410819e-01
     vertex -2.549038e-01 -2.466008e-16  3.625000e-01
     vertex -2.549038e-01 -1.500000e-01  3.625000e-01
   endloop
 endfacet
 facet normal  7.071068e-01  6.542052e-16  7.071068e-01
   outer loop
     vertex -2.214181e-01 -2.172528e-16  3.225933e-01
     vertex -2.399067e-01 -1.500000e-01  3.410819e-01
     vertex -2.214181e-01 -1.500000e-01  3.225933e-01
   endloop
 endfacet
 facet normal  7.071068e-01  6.496353e-16  7.071068e-01
   outer loop
     vertex -2.214181e-01 -2.172528e-16  3.225933e-01
     vertex -2.399067e-01 -2.336739e-16  3.410819e-01
     vertex -2.399067e-01 -1.500000e-01  3.410819e-01
   endloop
 endfacet
 facet normal  5.735764e-01  5.252370e-16  8.191520e-01
   outer loop
     vertex -2.000000e-01 -1.978365e-16  3.075962e-01
     vertex -2.214181e-01 -2.172528e-16  3.225933e-01
     vertex -2.214181e-01 -1.500000e-01  3.225933e-01
   endloop
 endfacet
 facet normal  5.735764e-01  5.306648e-16  8.191520e-01
   outer loop
     vertex -2.000000e-01 -1.978365e-16  3.075962e-01
     vertex -2.214181e-01 -1.500000e-01  3.225933e-01
     vertex -2.000000e-01 -1.500000e-01  3.075962e-01
   endloop
 endfacet
 facet normal  4.226183e-01  4.008388e-16  9.063078e-01
   outer loop
     vertex -1.763030e-01 -1.760149e-16  2.965461e-01
     vertex -2.000000e-01 -1.978365e-16  3.075962e-01
     vertex -2.000000e-01 -1.500000e-01  3.075962e-01
   endloop
 endfacet
 facet normal  4.226183e-01  3.910004e-16  9.063078e-01
   outer loop
     vertex -1.763030e-01 -1.760149e-16  2.965461e-01
     vertex -2.000000e-01 -1.500000e-01  3.075962e-01
     vertex -1.763030e-01 -1.500000e-01  2.965461e-01
   endloop
 endfacet
 facet normal  2.588190e-01  2.394557e-16  9.659258e-01
   outer loop
     vertex -1.510472e-01 -1.524512e-16  2.897788e-01
     vertex -1.763030e-01 -1.500000e-01  2.965461e-01
     vertex -1.510472e-01 -1.500000e-01  2.897788e-01
   endloop
 endfacet
 facet normal  2.588190e-01  2.418855e-16  9.659258e-01
   outer loop
     vertex -1.510472e-01 -1.524512e-16  2.897788e-01
     vertex -1.763030e-01 -1.760149e-16  2.965461e-01
     vertex -1.763030e-01 -1.500000e-01  2.965461e-01
   endloop
 endfacet
 facet normal  8.715574e-02  8.063526e-17  9.961947e-01
   outer loop
     vertex -1.250000e-01 -1.278612e-16  2.875000e-01
     vertex -1.510472e-01 -1.500000e-01  2.897788e-01
     vertex -1.250000e-01 -1.500000e-01  2.875000e-01
   endloop
 endfacet
 facet normal  8.715574e-02  8.120441e-17  9.961947e-01
   outer loop
     vertex -1.250000e-01 -1.278612e-16  2.875000e-01
     vertex -1.510472e-01 -1.524512e-16  2.897788e-01
     vertex -1.510472e-01 -1.500000e-01  2.897788e-01
   endloop
 endfacet
 facet normal -8.715574e-02 -8.063526e-17  9.961947e-01
   outer loop
     vertex -9.895277e-02 -1.029921e-16  2.897788e-01
     vertex -1.250000e-01 -1.500000e-01  2.875000e-01
     vertex -9.895277e-02 -1.500000e-01  2.897788e-01
   endloop
 endfacet
 facet normal -8.715574e-02 -8.120441e-17  9.961947e-01
   outer loop
     vertex -9.895277e-02 -1.029921e-16  2.897788e-01
     vertex -1.250000e-01 -1.278612e-16  2.875000e-01
     vertex -1.250000e-01 -1.500000e-01  2.875000e-01
   endloop
 endfacet
 facet normal -2.588190e-01 -2.394557e-16  9.659258e-01
   outer loop
     vertex -7.369698e-02 -7.859964e-17  2.965461e-01
     vertex -9.895277e-02 -1.500000e-01  2.897788e-01
     vertex -7.369698e-02 -1.500000e-01  2.965461e-01
   endloop
 endfacet
 facet normal -2.588190e-01 -2.418855e-16  9.659258e-01
   outer loop
     vertex -7.369698e-02 -7.859964e-17  2.965461e-01
     vertex -9.895277e-02 -1.029921e-16  2.897788e-01
     vertex -9.895277e-02 -1.500000e-01  2.897788e-01
   endloop
 endfacet
 facet normal -4.226183e-01 -4.105505e-16  9.063078e-01
   outer loop
     vertex -5.000000e-02 -5.542485e-17  3.075962e-01
     vertex -7.369698e-02 -1.500000e-01  2.965461e-01
     vertex -5.000000e-02 -1.500000e-01  3.075962e-01
   endloop
 endfacet
 facet normal -5.735764e-01 -5.571980e-16  8.191520e-01
   outer loop
     vertex -5.000000e-02 -5.542485e-17  3.075962e-01
     vertex -5.000000e-02 -1.500000e-01  3.075962e-01
     vertex -2.858186e-02 -1.500000e-01  3.225933e-01
   endloop
 endfacet
 facet normal -4.226183e-01 -4.008388e-16  9.063078e-01
   outer loop
     vertex -5.000000e-02 -5.542485e-17  3.075962e-01
     vertex -7.369698e-02 -7.859964e-17  2.965461e-01
     vertex -7.369698e-02 -1.500000e-01  2.965461e-01
   endloop
 endfacet
 facet normal -5.735764e-01 -5.439314e-16  8.191520e-01
   outer loop
     vertex -2.858186e-02 -3.417193e-17  3.225933e-01
     vertex -5.000000e-02 -5.542485e-17  3.075962e-01
     vertex -2.858186e-02 -1.500000e-01  3.225933e-01
   endloop
 endfacet
 facet normal -7.071068e-01 -6.705603e-16  7.071068e-01
   outer loop
     vertex -1.009333e-02 -1.548663e-17  3.410819e-01
     vertex -2.858186e-02 -1.500000e-01  3.225933e-01
     vertex -1.009333e-02 -1.500000e-01  3.410819e-01
   endloop
 endfacet
 facet normal -7.071068e-01 -6.772794e-16  7.071068e-01
   outer loop
     vertex -1.009333e-02 -1.548663e-17  3.410819e-01
     vertex -2.858186e-02 -3.417193e-17  3.225933e-01
     vertex -2.858186e-02 -1.500000e-01  3.225933e-01
   endloop
 endfacet
 facet normal -8.191520e-01 -7.768146e-16  5.735764e-01
   outer loop
     vertex  4.903811e-03  6.330502e-20  3.625000e-01
     vertex -1.009333e-02 -1.500000e-01  3.410819e-01
     vertex  4.903811e-03 -1.500000e-01  3.625000e-01
   endloop
 endfacet
 facet normal -8.191520e-01 -7.878556e-16  5.735764e-01
   outer loop
     vertex  4.903811e-03  6.330502e-20  3.625000e-01
     vertex -1.009333e-02 -1.548663e-17  3.410819e-01
     vertex -1.009333e-02 -1.500000e-01  3.410819e-01
   endloop
 endfacet
 facet normal -9.063078e-01 -8.594657e-16  4.226183e-01
   outer loop
     vertex  1.595389e-02  1.200539e-17  3.861970e-01
     vertex  4.903811e-03 -1.500000e-01  3.625000e-01
     vertex  1.595389e-02 -1.500000e-01  3.861970e-01
   endloop
 endfacet
 facet normal -9.659258e-01 -9.160024e-16  2.588190e-01
   outer loop
     vertex  1.595389e-02  1.200539e-17  3.861970e-01
     vertex  1.595389e-02 -1.500000e-01  3.861970e-01
     vertex  2.272116e-02 -1.500000e-01  4.114528e-01
   endloop
 endfacet
 facet normal -9.063078e-01 -8.569657e-16  4.226183e-01
   outer loop
     vertex  1.595389e-02  1.200539e-17  3.861970e-01
     vertex  4.903811e-03  6.330502e-20  3.625000e-01
     vertex  4.903811e-03 -1.500000e-01  3.625000e-01
   endloop
 endfacet
 facet normal -9.659258e-01 -9.160024e-16  2.588190e-01
   outer loop
     vertex  2.272116e-02  1.997678e-17  4.114528e-01
     vertex  1.595389e-02  1.200539e-17  3.861970e-01
     vertex  2.272116e-02 -1.500000e-01  4.114528e-01
   endloop
 endfacet
 facet normal -9.961947e-01 -9.447069e-16  8.715574e-02
   outer loop
     vertex  2.500000e-02  2.373527e-17  4.375000e-01
     vertex  2.272116e-02 -1.500000e-01  4.114528e-01
     vertex  2.500000e-02 -1.500000e-01  4.375000e-01
   endloop
 endfacet
 facet normal -9.961947e-01 -9.433534e-16  8.715574e-02
   outer loop
     vertex  2.500000e-02  2.373527e-17  4.375000e-01
     vertex  2.272116e-02  1.997678e-17  4.114528e-01
     vertex  2.272116e-02 -1.500000e-01  4.114528e-01
   endloop
 endfacet
 facet normal -9.961947e-01 -9.447069e-16 -8.715574e-02
   outer loop
     vertex  2.272116e-02  2.316665e-17  4.635472e-01
     vertex  2.500000e-02 -1.500000e-01  4.375000e-01
     vertex  2.272116e-02 -1.500000e-01  4.635472e-01
   endloop
 endfacet
 facet normal -9.961947e-01 -9.450811e-16 -8.715574e-02
   outer loop
     vertex  2.272116e-02  2.316665e-17  4.635472e-01
     vertex  2.500000e-02  2.373527e-17  4.375000e-01
     vertex  2.500000e-02 -1.500000e-01  4.375000e-01
   endloop
 endfacet
 facet normal -9.659258e-01 -9.160024e-16 -2.588190e-01
   outer loop
     vertex  1.595389e-02  1.828820e-17  4.888030e-01
     vertex  2.272116e-02 -1.500000e-01  4.635472e-01
     vertex  1.595389e-02 -1.500000e-01  4.888030e-01
   endloop
 endfacet
 facet normal -9.659258e-01 -9.122538e-16 -2.588190e-01
   outer loop
     vertex  1.595389e-02  1.828820e-17  4.888030e-01
     vertex  2.272116e-02  2.316665e-17  4.635472e-01
     vertex  2.272116e-02 -1.500000e-01  4.635472e-01
   endloop
 endfacet
 facet normal -9.063078e-01 -8.594657e-16 -4.226183e-01
   outer loop
     vertex  4.903811e-03  9.248156e-18  5.125000e-01
     vertex  1.595389e-02 -1.500000e-01  4.888030e-01
     vertex  4.903811e-03 -1.500000e-01  5.125000e-01
   endloop
 endfacet
 facet normal -9.063078e-01 -8.707877e-16 -4.226183e-01
   outer loop
     vertex  4.903811e-03  9.248156e-18  5.125000e-01
     vertex  1.595389e-02  1.828820e-17  4.888030e-01
     vertex  1.595389e-02 -1.500000e-01  4.888030e-01
   endloop
 endfacet
 facet normal -8.191520e-01 -7.768146e-16 -5.735764e-01
   outer loop
     vertex -1.009333e-02 -3.678811e-18  5.339181e-01
     vertex  4.903811e-03 -1.500000e-01  5.125000e-01
     vertex -1.009333e-02 -1.500000e-01  5.339181e-01
   endloop
 endfacet
 facet normal -8.191520e-01 -7.878556e-16 -5.735764e-01
   outer loop
     vertex -1.009333e-02 -3.678811e-18  5.339181e-01
     vertex  4.903811e-03  9.248156e-18  5.125000e-01
     vertex  4.903811e-03 -1.500000e-01  5.125000e-01
   endloop
 endfacet
 facet normal -7.071068e-01 -6.705603e-16 -7.071068e-01
   outer loop
     vertex -2.858186e-02 -2.009992e-17  5.524067e-01
     vertex -1.009333e-02 -1.500000e-01  5.339181e-01
     vertex -2.858186e-02 -1.500000e-01  5.524067e-01
   endloop
 endfacet
 facet normal -7.071068e-01 -6.772794e-16 -7.071068e-01
   outer loop
     vertex -2.858186e-02 -2.009992e-17  5.524067e-01
     vertex -1.009333e-02 -3.678811e-18  5.339181e-01
     vertex -1.009333e-02 -1.500000e-01  5.339181e-01
   endloop
 endfacet
 facet normal -5.735764e-01 -5.571980e-16 -8.191520e-01
   outer loop
     vertex -5.000000e-02 -3.951622e-17  5.674038e-01
     vertex -2.858186e-02 -1.500000e-01  5.524067e-01
     vertex -5.000000e-02 -1.500000e-01  5.674038e-01
   endloop
 endfacet
 facet normal -5.735764e-01 -5.528811e-16 -8.191520e-01
   outer loop
     vertex -5.000000e-02 -3.951622e-17  5.674038e-01
     vertex -2.858186e-02 -2.009992e-17  5.524067e-01
     vertex -2.858186e-02 -1.500000e-01  5.524067e-01
   endloop
 endfacet
 facet normal -4.226183e-01 -3.910004e-16 -9.063078e-01
   outer loop
     vertex -7.369698e-02 -6.133777e-17  5.784539e-01
     vertex -5.000000e-02 -1.500000e-01  5.674038e-01
     vertex -7.369698e-02 -1.500000e-01  5.784539e-01
   endloop
 endfacet
 facet normal -4.226183e-01 -4.146608e-16 -9.063078e-01
   outer loop
     vertex -7.369698e-02 -6.133777e-17  5.784539e-01
     vertex -5.000000e-02 -3.951622e-17  5.674038e-01
     vertex -5.000000e-02 -1.500000e-01  5.674038e-01
   endloop
 endfacet
 facet normal -2.588190e-01 -2.394557e-16 -9.659258e-01
   outer loop
     vertex -9.895277e-02 -8.490152e-17  5.852212e-01
     vertex -7.369698e-02 -1.500000e-01  5.784539e-01
     vertex -9.895277e-02 -1.500000e-01  5.852212e-01
   endloop
 endfacet
 facet normal -2.588190e-01 -2.418855e-16 -9.659258e-01
   outer loop
     vertex -9.895277e-02 -8.490152e-17  5.852212e-01
     vertex -7.369698e-02 -6.133777e-17  5.784539e-01
     vertex -7.369698e-02 -1.500000e-01  5.784539e-01
   endloop
 endfacet
 facet normal -8.715574e-02 -8.063526e-17 -9.961947e-01
   outer loop
     vertex -1.250000e-01 -1.094915e-16  5.875000e-01
     vertex -9.895277e-02 -1.500000e-01  5.852212e-01
     vertex -1.250000e-01 -1.500000e-01  5.875000e-01
   endloop
 endfacet
 facet normal  8.715574e-02  8.063526e-17 -9.961947e-01
   outer loop
     vertex -1.250000e-01 -1.094915e-16  5.875000e-01
     vertex -1.250000e-01 -1.500000e-01  5.875000e-01
     vertex -1.510472e-01 -1.500000e-01  5.852212e-01
   endloop
 endfacet
 facet normal -8.715574e-02 -8.120441e-17 -9.961947e-01
   outer loop
     vertex -1.250000e-01 -1.094915e-16  5.875000e-01
     vertex -9.895277e-02 -8.490152e-17  5.852212e-01
     vertex -9.895277e-02 -1.500000e-01  5.852212e-01
   endloop
 endfacet
 facet normal  2.588190e-01  2.394557e-16 -9.659258e-01
   outer loop
     vertex -1.510472e-01 -1.343605e-16  5.852212e-01
     vertex -1.510472e-01 -1.500000e-01  5.852212e-01
     vertex -1.763030e-01 -1.500000e-01  5.784539e-01
   endloop
 endfacet
 facet normal  8.715574e-02  8.063526e-17 -9.961947e-01
   outer loop
     vertex -1.510472e-01 -1.343605e-16  5.852212e-01
     vertex -1.250000e-01 -1.094915e-16  5.875000e-01
     vertex -1.510472e-01 -1.500000e-01  5.852212e-01
   endloop
 endfacet
 facet normal  2.588190e-01  2.394557e-16 -9.659258e-01
   outer loop
     vertex -1.763030e-01 -1.587530e-16  5.784539e-01
     vertex -1.510472e-01 -1.343605e-16  5.852212e-01
     vertex -1.763030e-01 -1.500000e-01  5.784539e-01
   endloop
 endfacet
 facet normal  4.226183e-01  3.910004e-16 -9.063078e-01
   outer loop
     vertex -2.000000e-01 -1.819278e-16  5.674038e-01
     vertex -1.763030e-01 -1.500000e-01  5.784539e-01
     vertex -2.000000e-01 -1.500000e-01  5.674038e-01
   endloop
 endfacet
 facet normal  4.226183e-01  3.870168e-16 -9.063078e-01
   outer loop
     vertex -2.000000e-01 -1.819278e-16  5.674038e-01
     vertex -1.763030e-01 -1.587530e-16  5.784539e-01
     vertex -1.763030e-01 -1.500000e-01  5.784539e-01
   endloop
 endfacet
 facet normal  5.735764e-01  5.390591e-16 -8.191520e-01
   outer loop
     vertex -2.214181e-01 -2.031808e-16  5.524067e-01
     vertex -2.000000e-01 -1.819278e-16  5.674038e-01
     vertex -2.000000e-01 -1.500000e-01  5.674038e-01
   endloop
 endfacet
 facet normal  5.735764e-01  5.306648e-16 -8.191520e-01
   outer loop
     vertex -2.214181e-01 -2.031808e-16  5.524067e-01
     vertex -2.000000e-01 -1.500000e-01  5.674038e-01
     vertex -2.214181e-01 -1.500000e-01  5.524067e-01
   endloop
 endfacet
 facet normal  7.071068e-01  6.542052e-16 -7.071068e-01
   outer loop
     vertex -2.214181e-01 -2.031808e-16  5.524067e-01
     vertex -2.214181e-01 -1.500000e-01  5.524067e-01
     vertex -2.399067e-01 -1.500000e-01  5.339181e-01
   endloop
 endfacet
 facet normal  7.071068e-01  6.542052e-16 -7.071068e-01
   outer loop
     vertex -2.399067e-01 -2.218661e-16  5.339181e-01
     vertex -2.214181e-01 -2.031808e-16  5.524067e-01
     vertex -2.399067e-01 -1.500000e-01  5.339181e-01
   endloop
 endfacet
 facet normal  8.191520e-01  9.094415e-16 -5.735764e-01
   outer loop
     vertex -2.549038e-01 -2.374160e-16  5.125000e-01
     vertex -2.399067e-01 -1.500000e-01  5.339181e-01
     vertex -2.549038e-01 -1.500000e-01  5.125000e-01
   endloop
 endfacet
 facet normal  8.191520e-01  7.463895e-16 -5.735764e-01
   outer loop
     vertex -2.549038e-01 -2.374160e-16  5.125000e-01
     vertex -2.399067e-01 -2.218661e-16  5.339181e-01
     vertex -2.399067e-01 -1.500000e-01  5.339181e-01
   endloop
 endfacet
 facet normal  9.063078e-01  1.009008e-15 -4.226183e-01
   outer loop
     vertex -2.659539e-01 -2.493581e-16  4.888030e-01
     vertex -2.549038e-01 -2.374160e-16  5.125000e-01
     vertex -2.549038e-01 -1.500000e-01  5.125000e-01
   endloop
 endfacet
 facet normal  9.063078e-01  1.006204e-15 -4.226183e-01
   outer loop
     vertex -2.659539e-01 -2.493581e-16  4.888030e-01
     vertex -2.549038e-01 -1.500000e-01  5.125000e-01
     vertex -2.659539e-01 -1.500000e-01  4.888030e-01
   endloop
 endfacet
 facet normal  9.659258e-01  1.071207e-15 -2.588190e-01
   outer loop
     vertex -2.727212e-01 -2.573295e-16  4.635472e-01
     vertex -2.659539e-01 -2.493581e-16  4.888030e-01
     vertex -2.659539e-01 -1.500000e-01  4.888030e-01
   endloop
 endfacet
 facet normal  9.659258e-01  1.072393e-15 -2.588190e-01
   outer loop
     vertex -2.727212e-01 -2.573295e-16  4.635472e-01
     vertex -2.659539e-01 -1.500000e-01  4.888030e-01
     vertex -2.727212e-01 -1.500000e-01  4.635472e-01
   endloop
 endfacet
 facet normal  9.961947e-01  1.105998e-15 -8.715574e-02
   outer loop
     vertex -2.727212e-01 -2.573295e-16  4.635472e-01
     vertex -2.727212e-01 -1.500000e-01  4.635472e-01
     vertex -2.750000e-01 -1.500000e-01  4.375000e-01
   endloop
 endfacet
 facet normal  9.961947e-01  1.105998e-15 -8.715574e-02
   outer loop
     vertex -2.750000e-01 -2.610880e-16  4.375000e-01
     vertex -2.727212e-01 -2.573295e-16  4.635472e-01
     vertex -2.750000e-01 -1.500000e-01  4.375000e-01
   endloop
 endfacet
 facet normal -9.235023e-16  1.000000e+00  1.814128e-17
   outer loop
     vertex -2.399067e-01 -2.336739e-16 -5.339181e-01
     vertex -3.790111e-01 -3.598372e-16 -6.606969e-01
     vertex -4.040064e-01 -3.835680e-16 -6.250000e-01
   endloop
 endfacet
 facet normal -9.229480e-16  1.000000e+00  2.646276e-17
   outer loop
     vertex -2.214181e-01 -2.172528e-16 -5.524067e-01
     vertex -3.481969e-01 -3.305819e-16 -6.915111e-01
     vertex -3.790111e-01 -3.598372e-16 -6.606969e-01
   endloop
 endfacet
 facet normal -9.277908e-16  1.000000e+00  3.087647e-17
   outer loop
     vertex -2.214181e-01 -2.172528e-16 -5.524067e-01
     vertex -3.125000e-01 -2.966909e-16 -7.165064e-01
     vertex -3.481969e-01 -3.305819e-16 -6.915111e-01
   endloop
 endfacet
 facet normal -8.980090e-16  1.000000e+00 -9.830565e-18
   outer loop
     vertex -2.214181e-01 -2.172528e-16 -5.524067e-01
     vertex -3.790111e-01 -3.598372e-16 -6.606969e-01
     vertex -2.399067e-01 -2.336739e-16 -5.339181e-01
   endloop
 endfacet
 facet normal -9.310087e-16  1.000000e+00  3.946333e-17
   outer loop
     vertex -2.000000e-01 -1.978365e-16 -5.674038e-01
     vertex -2.730050e-01 -2.591939e-16 -7.349232e-01
     vertex -3.125000e-01 -2.966909e-16 -7.165064e-01
   endloop
 endfacet
 facet normal -9.380181e-16  1.000000e+00  4.251803e-17
   outer loop
     vertex -2.000000e-01 -1.978365e-16 -5.674038e-01
     vertex -2.309120e-01 -2.192304e-16 -7.462019e-01
     vertex -2.730050e-01 -2.591939e-16 -7.349232e-01
   endloop
 endfacet
 facet normal -8.969151e-16  1.000000e+00  1.373922e-17
   outer loop
     vertex -2.000000e-01 -1.978365e-16 -5.674038e-01
     vertex -3.125000e-01 -2.966909e-16 -7.165064e-01
     vertex -2.214181e-01 -2.172528e-16 -5.524067e-01
   endloop
 endfacet
 facet normal -9.248630e-16  1.000000e+00  6.577562e-18
   outer loop
     vertex -2.549038e-01 -2.466008e-16 -5.125000e-01
     vertex -4.224232e-01 -4.010531e-16 -5.855050e-01
     vertex -4.337019e-01 -4.117613e-16 -5.434120e-01
   endloop
 endfacet
 facet normal -9.266266e-16  1.000000e+00  1.062443e-17
   outer loop
     vertex -2.549038e-01 -2.466008e-16 -5.125000e-01
     vertex -4.040064e-01 -3.835680e-16 -6.250000e-01
     vertex -4.224232e-01 -4.010531e-16 -5.855050e-01
   endloop
 endfacet
 facet normal -8.990278e-16  1.000000e+00 -2.595381e-17
   outer loop
     vertex -2.549038e-01 -2.466008e-16 -5.125000e-01
     vertex -2.399067e-01 -2.336739e-16 -5.339181e-01
     vertex -4.040064e-01 -3.835680e-16 -6.250000e-01
   endloop
 endfacet
 facet normal -9.312024e-16  1.000000e+00  1.593022e-18
   outer loop
     vertex -2.659539e-01 -2.556409e-16 -4.888030e-01
     vertex -4.337019e-01 -4.117613e-16 -5.434120e-01
     vertex -4.375000e-01 -4.153672e-16 -5.000000e-01
   endloop
 endfacet
 facet normal -9.158455e-16  1.000000e+00 -4.558058e-17
   outer loop
     vertex -2.659539e-01 -2.556409e-16 -4.888030e-01
     vertex -2.549038e-01 -2.466008e-16 -5.125000e-01
     vertex -4.337019e-01 -4.117613e-16 -5.434120e-01
   endloop
 endfacet
 facet normal -9.450340e-16  1.000000e+00  5.002696e-17
   outer loop
     vertex -1.763030e-01 -1.760149e-16 -5.784539e-01
     vertex -1.875000e-01 -1.780145e-16 -7.500000e-01
     vertex -2.309120e-01 -2.192304e-16 -7.462019e-01
   endloop
 endfacet
 facet normal -9.037906e-16  1.000000e+00  3.660050e-17
   outer loop
     vertex -1.763030e-01 -1.760149e-16 -5.784539e-01
     vertex -2.309120e-01 -2.192304e-16 -7.462019e-01
     vertex -2.000000e-01 -1.978365e-16 -5.674038e-01
   endloop
 endfacet
 facet normal -9.274852e-16  1.000000e+00 -5.535741e-17
   outer loop
     vertex -2.727212e-01 -2.605193e-16 -4.635472e-01
     vertex -2.659539e-01 -2.556409e-16 -4.888030e-01
     vertex -4.375000e-01 -4.153672e-16 -5.000000e-01
   endloop
 endfacet
 facet normal -9.200361e-16  1.000000e+00  4.839532e-17
   outer loop
     vertex -1.510472e-01 -1.524512e-16 -5.852212e-01
     vertex -1.875000e-01 -1.780145e-16 -7.500000e-01
     vertex -1.763030e-01 -1.760149e-16 -5.784539e-01
   endloop
 endfacet
 facet normal -9.394440e-16  1.000000e+00  5.268877e-17
   outer loop
     vertex -1.250000e-01 -1.278612e-16 -5.875000e-01
     vertex -1.875000e-01 -1.780145e-16 -7.500000e-01
     vertex -1.510472e-01 -1.524512e-16 -5.852212e-01
   endloop
 endfacet
 facet normal -9.266265e-16  1.000000e+00 -5.923898e-17
   outer loop
     vertex -2.750000e-01 -2.610880e-16 -4.375000e-01
     vertex -2.727212e-01 -2.605193e-16 -4.635472e-01
     vertex -4.375000e-01 -4.153672e-16 -5.000000e-01
   endloop
 endfacet
 facet normal -9.600717e-16  1.000000e+00  6.062251e-17
   outer loop
     vertex -9.895277e-02 -1.029921e-16 -5.852212e-01
     vertex -1.875000e-01 -1.780145e-16 -7.500000e-01
     vertex -1.250000e-01 -1.278612e-16 -5.875000e-01
   endloop
 endfacet
 facet normal -9.250398e-16  1.000000e+00 -6.336452e-17
   outer loop
     vertex -2.727212e-01 -2.573295e-16 -4.114528e-01
     vertex -2.750000e-01 -2.610880e-16 -4.375000e-01
     vertex -4.375000e-01 -4.153672e-16 -5.000000e-01
   endloop
 endfacet
 facet normal -9.857606e-16  1.000000e+00  7.442695e-17
   outer loop
     vertex -7.369698e-02 -7.859964e-17 -5.784539e-01
     vertex -1.875000e-01 -1.780145e-16 -7.500000e-01
     vertex -9.895277e-02 -1.029921e-16 -5.852212e-01
   endloop
 endfacet
 facet normal -9.222789e-16  1.000000e+00 -6.850230e-17
   outer loop
     vertex -2.659539e-01 -2.493581e-16 -3.861970e-01
     vertex -2.727212e-01 -2.573295e-16 -4.114528e-01
     vertex -4.375000e-01 -4.153672e-16 -5.000000e-01
   endloop
 endfacet
 facet normal -1.024722e-15  1.000000e+00  1.002741e-16
   outer loop
     vertex -5.000000e-02 -5.542485e-17 -5.674038e-01
     vertex -1.875000e-01 -1.780145e-16 -7.500000e-01
     vertex -7.369698e-02 -7.859964e-17 -5.784539e-01
   endloop
 endfacet
 facet normal -9.171095e-16  1.000000e+00 -7.629468e-17
   outer loop
     vertex -2.549038e-01 -2.374160e-16 -3.625000e-01
     vertex -2.659539e-01 -2.493581e-16 -3.861970e-01
     vertex -4.375000e-01 -4.153672e-16 -5.000000e-01
   endloop
 endfacet
 facet normal -9.050743e-16  1.000000e+00 -9.227708e-17
   outer loop
     vertex -2.399067e-01 -2.218661e-16 -3.410819e-01
     vertex -2.549038e-01 -2.374160e-16 -3.625000e-01
     vertex -4.375000e-01 -4.153672e-16 -5.000000e-01
   endloop
 endfacet
 facet normal -9.494108e-16  1.000000e+00  4.356232e-17
   outer loop
     vertex  4.375000e-01  4.153672e-16 -7.500000e-01
     vertex -1.875000e-01 -1.780145e-16 -7.500000e-01
     vertex -5.000000e-02 -5.542485e-17 -5.674038e-01
   endloop
 endfacet
 facet normal -9.749831e-16  1.000000e+00 -2.471129e-17
   outer loop
     vertex  4.375000e-01  4.153672e-16 -7.500000e-01
     vertex -5.000000e-02 -5.542485e-17 -5.674038e-01
     vertex -2.858186e-02 -3.417193e-17 -5.524067e-01
   endloop
 endfacet
 facet normal -9.782428e-16  1.000000e+00 -3.240031e-17
   outer loop
     vertex  4.375000e-01  4.153672e-16 -7.500000e-01
     vertex -2.858186e-02 -3.417193e-17 -5.524067e-01
     vertex -1.009333e-02 -1.548663e-17 -5.339181e-01
   endloop
 endfacet
 facet normal -9.813614e-16  1.000000e+00 -3.886025e-17
   outer loop
     vertex  4.375000e-01  4.153672e-16 -7.500000e-01
     vertex -1.009333e-02 -1.548663e-17 -5.339181e-01
     vertex  4.903811e-03  6.330502e-20 -5.125000e-01
   endloop
 endfacet
 facet normal -9.846280e-16  1.000000e+00 -4.481025e-17
   outer loop
     vertex  4.375000e-01  4.153672e-16 -7.500000e-01
     vertex  4.903811e-03  6.330502e-20 -5.125000e-01
     vertex  1.595389e-02  1.200539e-17 -4.888030e-01
   endloop
 endfacet
 facet normal -9.883402e-16  1.000000e+00 -5.080124e-17
   outer loop
     vertex  4.375000e-01  4.153672e-16 -7.500000e-01
     vertex  1.595389e-02  1.200539e-17 -4.888030e-01
     vertex  2.272116e-02  1.997678e-17 -4.635472e-01
   endloop
 endfacet
 facet normal -9.929154e-16  1.000000e+00 -5.742617e-17
   outer loop
     vertex  4.375000e-01  4.153672e-16 -7.500000e-01
     vertex  2.272116e-02  1.997678e-17 -4.635472e-01
     vertex  2.500000e-02  2.373527e-17 -4.375000e-01
   endloop
 endfacet
 facet normal -9.990917e-16  1.000000e+00 -6.557886e-17
   outer loop
     vertex  4.375000e-01  4.153672e-16 -7.500000e-01
     vertex  2.500000e-02  2.373527e-17 -4.375000e-01
     vertex  2.272116e-02  2.316665e-17 -4.114528e-01
   endloop
 endfacet
 facet normal -1.008458e-15  1.000000e+00 -7.705395e-17
   outer loop
     vertex  4.375000e-01  4.153672e-16 -7.500000e-01
     vertex  2.272116e-02  2.316665e-17 -4.114528e-01
     vertex  1.595389e-02  1.828820e-17 -3.861970e-01
   endloop
 endfacet
 facet normal -1.025373e-15  1.000000e+00 -9.665424e-17
   outer loop
     vertex  4.375000e-01  4.153672e-16 -7.500000e-01
     vertex  1.595389e-02  1.828820e-17 -3.861970e-01
     vertex  4.903811e-03  9.248156e-18 -3.625000e-01
   endloop
 endfacet
 facet normal -9.195317e-16  1.000000e+00  3.119020e-32
   outer loop
     vertex -2.399067e-01 -2.336739e-16  3.410819e-01
     vertex -4.375000e-01 -4.153672e-16 -5.000000e-01
     vertex -4.375000e-01 -4.153672e-16  5.000000e-01
   endloop
 endfacet
 facet normal -9.932112e-16  1.000000e+00  1.730936e-17
   outer loop
     vertex -2.399067e-01 -2.336739e-16  3.410819e-01
     vertex -2.399067e-01 -2.218661e-16 -3.410819e-01
     vertex -4.375000e-01 -4.153672e-16 -5.000000e-01
   endloop
 endfacet
 facet normal -1.027952e-15  1.000000e+00  1.730936e-17
   outer loop
     vertex -2.399067e-01 -2.336739e-16  3.410819e-01
     vertex -2.214181e-01 -2.031808e-16 -3.225933e-01
     vertex -2.399067e-01 -2.218661e-16 -3.410819e-01
   endloop
 endfacet
 facet normal -8.663677e-16  1.000000e+00  2.181075e-17
   outer loop
     vertex -2.399067e-01 -2.336739e-16  3.410819e-01
     vertex -2.214181e-01 -2.172528e-16  3.225933e-01
     vertex -2.214181e-01 -2.031808e-16 -3.225933e-01
   endloop
 endfacet
 facet normal -9.937472e-16  1.000000e+00 -9.227708e-17
   outer loop
     vertex -2.549038e-01 -2.466008e-16  3.625000e-01
     vertex -2.399067e-01 -2.336739e-16  3.410819e-01
     vertex -4.375000e-01 -4.153672e-16  5.000000e-01
   endloop
 endfacet
 facet normal -1.010393e-15  1.000000e+00  2.585960e-17
   outer loop
     vertex -2.000000e-01 -1.978365e-16  3.075962e-01
     vertex -2.000000e-01 -1.819278e-16 -3.075962e-01
     vertex -2.214181e-01 -2.031808e-16 -3.225933e-01
   endloop
 endfacet
 facet normal -8.912634e-16  1.000000e+00  2.181075e-17
   outer loop
     vertex -2.000000e-01 -1.978365e-16  3.075962e-01
     vertex -2.214181e-01 -2.031808e-16 -3.225933e-01
     vertex -2.214181e-01 -2.172528e-16  3.225933e-01
   endloop
 endfacet
 facet normal -9.817121e-16  1.000000e+00 -7.629468e-17
   outer loop
     vertex -2.659539e-01 -2.556409e-16  3.861970e-01
     vertex -2.549038e-01 -2.466008e-16  3.625000e-01
     vertex -4.375000e-01 -4.153672e-16  5.000000e-01
   endloop
 endfacet
 facet normal -9.915357e-16  1.000000e+00  2.910487e-17
   outer loop
     vertex -1.763030e-01 -1.760149e-16  2.965461e-01
     vertex -1.763030e-01 -1.587530e-16 -2.965461e-01
     vertex -2.000000e-01 -1.819278e-16 -3.075962e-01
   endloop
 endfacet
 facet normal -9.087991e-16  1.000000e+00  2.585960e-17
   outer loop
     vertex -1.763030e-01 -1.760149e-16  2.965461e-01
     vertex -2.000000e-01 -1.819278e-16 -3.075962e-01
     vertex -2.000000e-01 -1.978365e-16  3.075962e-01
   endloop
 endfacet
 facet normal -9.765426e-16  1.000000e+00 -6.850230e-17
   outer loop
     vertex -2.727212e-01 -2.605193e-16  4.114528e-01
     vertex -2.659539e-01 -2.556409e-16  3.861970e-01
     vertex -4.375000e-01 -4.153672e-16  5.000000e-01
   endloop
 endfacet
 facet normal -9.741818e-16  1.000000e+00  3.121454e-17
   outer loop
     vertex -1.510472e-01 -1.524512e-16  2.897788e-01
     vertex -1.510472e-01 -1.343605e-16 -2.897788e-01
     vertex -1.763030e-01 -1.587530e-16 -2.965461e-01
   endloop
 endfacet
 facet normal -9.252050e-16  1.000000e+00  2.910487e-17
   outer loop
     vertex -1.510472e-01 -1.524512e-16  2.897788e-01
     vertex -1.763030e-01 -1.587530e-16 -2.965461e-01
     vertex -1.763030e-01 -1.760149e-16  2.965461e-01
   endloop
 endfacet
 facet normal -9.737817e-16  1.000000e+00 -6.336452e-17
   outer loop
     vertex -2.750000e-01 -2.610880e-16  4.375000e-01
     vertex -2.727212e-01 -2.605193e-16  4.114528e-01
     vertex -4.375000e-01 -4.153672e-16  5.000000e-01
   endloop
 endfacet
 facet normal -9.575629e-16  1.000000e+00  3.194731e-17
   outer loop
     vertex -1.250000e-01 -1.278612e-16  2.875000e-01
     vertex -1.250000e-01 -1.094915e-16 -2.875000e-01
     vertex -1.510472e-01 -1.343605e-16 -2.897788e-01
   endloop
 endfacet
 facet normal -9.413227e-16  1.000000e+00  3.121454e-17
   outer loop
     vertex -1.250000e-01 -1.278612e-16  2.875000e-01
     vertex -1.510472e-01 -1.343605e-16 -2.897788e-01
     vertex -1.510472e-01 -1.524512e-16  2.897788e-01
   endloop
 endfacet
 facet normal -9.413227e-16  1.000000e+00  3.121454e-17
   outer loop
     vertex -9.895277e-02 -1.029921e-16  2.897788e-01
     vertex -9.895277e-02 -8.490152e-17 -2.897788e-01
     vertex -1.250000e-01 -1.094915e-16 -2.875000e-01
   endloop
 endfacet
 facet normal -9.575629e-16  1.000000e+00  3.194731e-17
   outer loop
     vertex -9.895277e-02 -1.029921e-16  2.897788e-01
     vertex -1.250000e-01 -1.094915e-16 -2.875000e-01
     vertex -1.250000e-01 -1.278612e-16  2.875000e-01
   endloop
 endfacet
 facet normal -9.721950e-16  1.000000e+00 -5.923898e-17
   outer loop
     vertex -2.727212e-01 -2.573295e-16  4.635472e-01
     vertex -2.750000e-01 -2.610880e-16  4.375000e-01
     vertex -4.375000e-01 -4.153672e-16  5.000000e-01
   endloop
 endfacet
 facet normal -9.741818e-16  1.000000e+00  3.121454e-17
   outer loop
     vertex -7.369698e-02 -7.859964e-17  2.965461e-01
     vertex -9.895277e-02 -8.490152e-17 -2.897788e-01
     vertex -9.895277e-02 -1.029921e-16  2.897788e-01
   endloop
 endfacet
 facet normal -9.252050e-16  1.000000e+00  2.910487e-17
   outer loop
     vertex -7.369698e-02 -7.859964e-17  2.965461e-01
     vertex -7.369698e-02 -6.133777e-17 -2.965461e-01
     vertex -9.895277e-02 -8.490152e-17 -2.897788e-01
   endloop
 endfacet
 facet normal -9.713363e-16  1.000000e+00 -5.535741e-17
   outer loop
     vertex -2.659539e-01 -2.493581e-16  4.888030e-01
     vertex -2.727212e-01 -2.573295e-16  4.635472e-01
     vertex -4.375000e-01 -4.153672e-16  5.000000e-01
   endloop
 endfacet
 facet normal -9.676191e-16  1.000000e+00  1.593022e-18
   outer loop
     vertex -2.659539e-01 -2.493581e-16  4.888030e-01
     vertex -4.375000e-01 -4.153672e-16  5.000000e-01
     vertex -4.337019e-01 -4.117613e-16  5.434120e-01
   endloop
 endfacet
 facet normal -9.915357e-16  1.000000e+00  2.910487e-17
   outer loop
     vertex -5.000000e-02 -5.542485e-17  3.075962e-01
     vertex -7.369698e-02 -6.133777e-17 -2.965461e-01
     vertex -7.369698e-02 -7.859964e-17  2.965461e-01
   endloop
 endfacet
 facet normal -9.087991e-16  1.000000e+00  2.585960e-17
   outer loop
     vertex -5.000000e-02 -5.542485e-17  3.075962e-01
     vertex -5.000000e-02 -3.951622e-17 -3.075962e-01
     vertex -7.369698e-02 -6.133777e-17 -2.965461e-01
   endloop
 endfacet
 facet normal -9.829761e-16  1.000000e+00 -4.558058e-17
   outer loop
     vertex -2.549038e-01 -2.374160e-16  5.125000e-01
     vertex -2.659539e-01 -2.493581e-16  4.888030e-01
     vertex -4.337019e-01 -4.117613e-16  5.434120e-01
   endloop
 endfacet
 facet normal -9.721949e-16  1.000000e+00  1.062443e-17
   outer loop
     vertex -2.549038e-01 -2.374160e-16  5.125000e-01
     vertex -4.224232e-01 -4.010531e-16  5.855050e-01
     vertex -4.040064e-01 -3.835680e-16  6.250000e-01
   endloop
 endfacet
 facet normal -9.739586e-16  1.000000e+00  6.577562e-18
   outer loop
     vertex -2.549038e-01 -2.374160e-16  5.125000e-01
     vertex -4.337019e-01 -4.117613e-16  5.434120e-01
     vertex -4.224232e-01 -4.010531e-16  5.855050e-01
   endloop
 endfacet
 facet normal -1.010393e-15  1.000000e+00  2.585960e-17
   outer loop
     vertex -2.858186e-02 -3.417193e-17  3.225933e-01
     vertex -5.000000e-02 -3.951622e-17 -3.075962e-01
     vertex -5.000000e-02 -5.542485e-17  3.075962e-01
   endloop
 endfacet
 facet normal -8.912634e-16  1.000000e+00  2.181075e-17
   outer loop
     vertex -2.858186e-02 -3.417193e-17  3.225933e-01
     vertex -2.858186e-02 -2.009992e-17 -3.225933e-01
     vertex -5.000000e-02 -3.951622e-17 -3.075962e-01
   endloop
 endfacet
 facet normal -9.997937e-16  1.000000e+00 -2.595381e-17
   outer loop
     vertex -2.399067e-01 -2.218661e-16  5.339181e-01
     vertex -2.549038e-01 -2.374160e-16  5.125000e-01
     vertex -4.040064e-01 -3.835680e-16  6.250000e-01
   endloop
 endfacet
 facet normal -9.753192e-16  1.000000e+00  1.814128e-17
   outer loop
     vertex -2.399067e-01 -2.218661e-16  5.339181e-01
     vertex -4.040064e-01 -3.835680e-16  6.250000e-01
     vertex -3.790111e-01 -3.598372e-16  6.606969e-01
   endloop
 endfacet
 facet normal -8.708691e-16  1.000000e+00  1.730936e-17
   outer loop
     vertex -1.009333e-02 -1.548663e-17  3.410819e-01
     vertex -1.009333e-02 -3.678811e-18 -3.410819e-01
     vertex -2.858186e-02 -2.009992e-17 -3.225933e-01
   endloop
 endfacet
 facet normal -1.032454e-15  1.000000e+00  2.181075e-17
   outer loop
     vertex -1.009333e-02 -1.548663e-17  3.410819e-01
     vertex -2.858186e-02 -2.009992e-17 -3.225933e-01
     vertex -2.858186e-02 -3.417193e-17  3.225933e-01
   endloop
 endfacet
 facet normal -9.716157e-16  1.000000e+00  2.220489e-17
   outer loop
     vertex -3.481969e-01 -3.305819e-16  6.915111e-01
     vertex -2.399067e-01 -2.218661e-16  5.339181e-01
     vertex -3.790111e-01 -3.598372e-16  6.606969e-01
   endloop
 endfacet
 facet normal -1.007909e-15  1.000000e+00 -2.734118e-18
   outer loop
     vertex -3.481969e-01 -3.305819e-16  6.915111e-01
     vertex -2.214181e-01 -2.031808e-16  5.524067e-01
     vertex -2.399067e-01 -2.218661e-16  5.339181e-01
   endloop
 endfacet
 facet normal -1.061580e-15  1.000000e+00  1.730936e-17
   outer loop
     vertex  4.903811e-03  6.330502e-20  3.625000e-01
     vertex -1.009333e-02 -3.678811e-18 -3.410819e-01
     vertex -1.009333e-02 -1.548663e-17  3.410819e-01
   endloop
 endfacet
 facet normal -8.438691e-16  1.000000e+00  1.266876e-17
   outer loop
     vertex  4.903811e-03  6.330502e-20  3.625000e-01
     vertex  4.903811e-03  9.248156e-18 -3.625000e-01
     vertex -1.009333e-02 -3.678811e-18 -3.410819e-01
   endloop
 endfacet
 facet normal -9.710307e-16  1.000000e+00  3.087647e-17
   outer loop
     vertex -3.125000e-01 -2.966909e-16  7.165064e-01
     vertex -2.214181e-01 -2.031808e-16  5.524067e-01
     vertex -3.481969e-01 -3.305819e-16  6.915111e-01
   endloop
 endfacet
 facet normal -1.001906e-15  1.000000e+00  1.373922e-17
   outer loop
     vertex -3.125000e-01 -2.966909e-16  7.165064e-01
     vertex -2.000000e-01 -1.819278e-16  5.674038e-01
     vertex -2.214181e-01 -2.031808e-16  5.524067e-01
   endloop
 endfacet
 facet normal -9.678128e-16  1.000000e+00  3.946333e-17
   outer loop
     vertex -2.730050e-01 -2.591939e-16  7.349232e-01
     vertex -2.000000e-01 -1.819278e-16  5.674038e-01
     vertex -3.125000e-01 -2.966909e-16  7.165064e-01
   endloop
 endfacet
 facet normal -9.608034e-16  1.000000e+00  4.251803e-17
   outer loop
     vertex -2.309120e-01 -2.192304e-16  7.462019e-01
     vertex -2.000000e-01 -1.819278e-16  5.674038e-01
     vertex -2.730050e-01 -2.591939e-16  7.349232e-01
   endloop
 endfacet
 facet normal -9.950310e-16  1.000000e+00  3.660050e-17
   outer loop
     vertex -2.309120e-01 -2.192304e-16  7.462019e-01
     vertex -1.763030e-01 -1.587530e-16  5.784539e-01
     vertex -2.000000e-01 -1.819278e-16  5.674038e-01
   endloop
 endfacet
 facet normal -9.537876e-16  1.000000e+00  5.002696e-17
   outer loop
     vertex -1.875000e-01 -1.780145e-16  7.500000e-01
     vertex -1.763030e-01 -1.587530e-16  5.784539e-01
     vertex -2.309120e-01 -2.192304e-16  7.462019e-01
   endloop
 endfacet
 facet normal -8.740991e-16  1.000000e+00  1.002741e-16
   outer loop
     vertex -1.875000e-01 -1.780145e-16  7.500000e-01
     vertex -5.000000e-02 -3.951622e-17  5.674038e-01
     vertex -7.369698e-02 -6.133777e-17  5.784539e-01
   endloop
 endfacet
 facet normal -9.130610e-16  1.000000e+00  7.442695e-17
   outer loop
     vertex -1.875000e-01 -1.780145e-16  7.500000e-01
     vertex -7.369698e-02 -6.133777e-17  5.784539e-01
     vertex -9.895277e-02 -8.490152e-17  5.852212e-01
   endloop
 endfacet
 facet normal -9.387498e-16  1.000000e+00  6.062251e-17
   outer loop
     vertex -1.875000e-01 -1.780145e-16  7.500000e-01
     vertex -9.895277e-02 -8.490152e-17  5.852212e-01
     vertex -1.250000e-01 -1.094915e-16  5.875000e-01
   endloop
 endfacet
 facet normal -9.593776e-16  1.000000e+00  5.268877e-17
   outer loop
     vertex -1.875000e-01 -1.780145e-16  7.500000e-01
     vertex -1.250000e-01 -1.094915e-16  5.875000e-01
     vertex -1.510472e-01 -1.343605e-16  5.852212e-01
   endloop
 endfacet
 facet normal -9.787854e-16  1.000000e+00  4.839532e-17
   outer loop
     vertex -1.875000e-01 -1.780145e-16  7.500000e-01
     vertex -1.510472e-01 -1.343605e-16  5.852212e-01
     vertex -1.763030e-01 -1.587530e-16  5.784539e-01
   endloop
 endfacet
 facet normal -9.713748e-16  1.000000e+00  1.266876e-17
   outer loop
     vertex  4.375000e-01  4.153672e-16  7.500000e-01
     vertex  4.903811e-03  9.248156e-18 -3.625000e-01
     vertex  4.903811e-03  6.330502e-20  3.625000e-01
   endloop
 endfacet
 facet normal -9.387948e-16  1.000000e+00  0.000000e+00
   outer loop
     vertex  4.375000e-01  4.153672e-16  7.500000e-01
     vertex  4.375000e-01  4.153672e-16 -7.500000e-01
     vertex  4.903811e-03  9.248156e-18 -3.625000e-01
   endloop
 endfacet
 facet normal -9.494108e-16  1.000000e+00  4.356232e-17
   outer loop
     vertex  4.375000e-01  4.153672e-16  7.500000e-01
     vertex -5.000000e-02 -3.951622e-17  5.674038e-01
     vertex -1.875000e-01 -1.780145e-16  7.500000e-01
   endloop
 endfacet
 facet normal -8.734482e-16  1.000000e+00 -9.665424e-17
   outer loop
     vertex  4.375000e-01  4.153672e-16  7.500000e-01
     vertex  4.903811e-03  6.330502e-20  3.625000e-01
     vertex  1.595389e-02  1.200539e-17  3.861970e-01
   endloop
 endfacet
 facet normal -8.903637e-16  1.000000e+00 -7.705395e-17
   outer loop
     vertex  4.375000e-01  4.153672e-16  7.500000e-01
     vertex  1.595389e-02  1.200539e-17  3.861970e-01
     vertex  2.272116e-02  1.997678e-17  4.114528e-01
   endloop
 endfacet
 facet normal -8.997298e-16  1.000000e+00 -6.557886e-17
   outer loop
     vertex  4.375000e-01  4.153672e-16  7.500000e-01
     vertex  2.272116e-02  1.997678e-17  4.114528e-01
     vertex  2.500000e-02  2.373527e-17  4.375000e-01
   endloop
 endfacet
 facet normal -9.059061e-16  1.000000e+00 -5.742617e-17
   outer loop
     vertex  4.375000e-01  4.153672e-16  7.500000e-01
     vertex  2.500000e-02  2.373527e-17  4.375000e-01
     vertex  2.272116e-02  2.316665e-17  4.635472e-01
   endloop
 endfacet
 facet normal -9.104814e-16  1.000000e+00 -5.080124e-17
   outer loop
     vertex  4.375000e-01  4.153672e-16  7.500000e-01
     vertex  2.272116e-02  2.316665e-17  4.635472e-01
     vertex  1.595389e-02  1.828820e-17  4.888030e-01
   endloop
 endfacet
 facet normal -9.141935e-16  1.000000e+00 -4.481025e-17
   outer loop
     vertex  4.375000e-01  4.153672e-16  7.500000e-01
     vertex  1.595389e-02  1.828820e-17  4.888030e-01
     vertex  4.903811e-03  9.248156e-18  5.125000e-01
   endloop
 endfacet
 facet normal -9.174601e-16  1.000000e+00 -3.886025e-17
   outer loop
     vertex  4.375000e-01  4.153672e-16  7.500000e-01
     vertex  4.903811e-03  9.248156e-18  5.125000e-01
     vertex -1.009333e-02 -3.678811e-18  5.339181e-01
   endloop
 endfacet
 facet normal -9.205787e-16  1.000000e+00 -3.240031e-17
   outer loop
     vertex  4.375000e-01  4.153672e-16  7.500000e-01
     vertex -1.009333e-02 -3.678811e-18  5.339181e-01
     vertex -2.858186e-02 -2.009992e-17  5.524067e-01
   endloop
 endfacet
 facet normal -9.238384e-16  1.000000e+00 -2.471129e-17
   outer loop
     vertex  4.375000e-01  4.153672e-16  7.500000e-01
     vertex -2.858186e-02 -2.009992e-17  5.524067e-01
     vertex -5.000000e-02 -3.951622e-17  5.674038e-01
   endloop
 endfacet
 facet normal  1.041588e-15 -1.000000e+00 -4.820693e-17
   outer loop
     vertex -2.399067e-01 -1.500000e-01 -5.339181e-01
     vertex -4.040064e-01 -1.500000e-01 -6.250000e-01
     vertex -3.790111e-01 -1.500000e-01 -6.606969e-01
   endloop
 endfacet
 facet normal  8.888082e-16 -1.000000e+00 -1.193133e-17
   outer loop
     vertex -2.214181e-01 -1.500000e-01 -5.524067e-01
     vertex -3.790111e-01 -1.500000e-01 -6.606969e-01
     vertex -3.481969e-01 -1.500000e-01 -6.915111e-01
   endloop
 endfacet
 facet normal  8.157825e-16 -1.000000e+00  5.462374e-17
   outer loop
     vertex -2.214181e-01 -1.500000e-01 -5.524067e-01
     vertex -3.481969e-01 -1.500000e-01 -6.915111e-01
     vertex -3.125000e-01 -1.500000e-01 -7.165064e-01
   endloop
 endfacet
 facet normal  5.219505e-16 -1.000000e+00  5.219505e-16
   outer loop
     vertex -2.214181e-01 -1.500000e-01 -5.524067e-01
     vertex -2.399067e-01 -1.500000e-01 -5.339181e-01
     vertex -3.790111e-01 -1.500000e-01 -6.606969e-01
   endloop
 endfacet
 facet normal  1.296562e-15 -1.000000e+00 -2.336710e-16
   outer loop
     vertex -2.000000e-01 -1.500000e-01 -5.674038e-01
     vertex -3.125000e-01 -1.500000e-01 -7.165064e-01
     vertex -2.730050e-01 -1.500000e-01 -7.349232e-01
   endloop
 endfacet
 facet normal  6.699466e-16 -1.000000e+00  3.940845e-17
   outer loop
     vertex -2.000000e-01 -1.500000e-01 -5.674038e-01
     vertex -2.730050e-01 -1.500000e-01 -7.349232e-01
     vertex -2.309120e-01 -1.500000e-01 -7.462019e-01
   endloop
 endfacet
 facet normal  1.189065e-15 -1.000000e+00 -1.525630e-16
   outer loop
     vertex -2.000000e-01 -1.500000e-01 -5.674038e-01
     vertex -2.214181e-01 -1.500000e-01 -5.524067e-01
     vertex -3.125000e-01 -1.500000e-01 -7.165064e-01
   endloop
 endfacet
 facet normal  9.991206e-16 -1.000000e+00 -3.916736e-16
   outer loop
     vertex -2.549038e-01 -1.500000e-01 -5.125000e-01
     vertex -4.337019e-01 -1.500000e-01 -5.434120e-01
     vertex -4.224232e-01 -1.500000e-01 -5.855050e-01
   endloop
 endfacet
 facet normal  6.885116e-16 -1.000000e+00  3.210582e-16
   outer loop
     vertex -2.549038e-01 -1.500000e-01 -5.125000e-01
     vertex -4.224232e-01 -1.500000e-01 -5.855050e-01
     vertex -4.040064e-01 -1.500000e-01 -6.250000e-01
   endloop
 endfacet
 facet normal  1.248775e-15 -1.000000e+00 -4.214896e-16
   outer loop
     vertex -2.549038e-01 -1.500000e-01 -5.125000e-01
     vertex -4.040064e-01 -1.500000e-01 -6.250000e-01
     vertex -2.399067e-01 -1.500000e-01 -5.339181e-01
   endloop
 endfacet
 facet normal  9.652674e-16 -1.000000e+00  8.444996e-17
   outer loop
     vertex -2.659539e-01 -1.500000e-01 -4.888030e-01
     vertex -4.375000e-01 -1.500000e-01 -5.000000e-01
     vertex -4.337019e-01 -1.500000e-01 -5.434120e-01
   endloop
 endfacet
 facet normal  8.619180e-16 -1.000000e+00  4.019189e-16
   outer loop
     vertex -2.659539e-01 -1.500000e-01 -4.888030e-01
     vertex -4.337019e-01 -1.500000e-01 -5.434120e-01
     vertex -2.549038e-01 -1.500000e-01 -5.125000e-01
   endloop
 endfacet
 facet normal  1.271443e-15 -1.000000e+00 -8.298833e-17
   outer loop
     vertex -1.763030e-01 -1.500000e-01 -5.784539e-01
     vertex -2.309120e-01 -1.500000e-01 -7.462019e-01
     vertex -1.875000e-01 -1.500000e-01 -7.500000e-01
   endloop
 endfacet
 facet normal  1.150875e-15 -1.000000e+00 -4.373831e-17
   outer loop
     vertex -1.763030e-01 -1.500000e-01 -5.784539e-01
     vertex -2.000000e-01 -1.500000e-01 -5.674038e-01
     vertex -2.309120e-01 -1.500000e-01 -7.462019e-01
   endloop
 endfacet
 facet normal  9.540931e-16 -1.000000e+00  2.556485e-16
   outer loop
     vertex -2.727212e-01 -1.500000e-01 -4.635472e-01
     vertex -4.375000e-01 -1.500000e-01 -5.000000e-01
     vertex -2.659539e-01 -1.500000e-01 -4.888030e-01
   endloop
 endfacet
 facet normal  1.080089e-15 -1.000000e+00 -7.049841e-17
   outer loop
     vertex -1.510472e-01 -1.500000e-01 -5.852212e-01
     vertex -1.763030e-01 -1.500000e-01 -5.784539e-01
     vertex -1.875000e-01 -1.500000e-01 -7.500000e-01
   endloop
 endfacet
 facet normal  1.445691e-17 -1.000000e+00  1.652432e-16
   outer loop
     vertex -1.250000e-01 -1.500000e-01 -5.875000e-01
     vertex -1.510472e-01 -1.500000e-01 -5.852212e-01
     vertex -1.875000e-01 -1.500000e-01 -7.500000e-01
   endloop
 endfacet
 facet normal  9.914592e-16 -1.000000e+00  8.674144e-17
   outer loop
     vertex -2.750000e-01 -1.500000e-01 -4.375000e-01
     vertex -4.375000e-01 -1.500000e-01 -5.000000e-01
     vertex -2.727212e-01 -1.500000e-01 -4.635472e-01
   endloop
 endfacet
 facet normal  1.087228e-15 -1.000000e+00 -2.473610e-16
   outer loop
     vertex -9.895277e-02 -1.500000e-01 -5.852212e-01
     vertex -1.250000e-01 -1.500000e-01 -5.875000e-01
     vertex -1.875000e-01 -1.500000e-01 -7.500000e-01
   endloop
 endfacet
 facet normal  1.060507e-15 -1.000000e+00 -9.278232e-17
   outer loop
     vertex -2.727212e-01 -1.500000e-01 -4.114528e-01
     vertex -4.375000e-01 -1.500000e-01 -5.000000e-01
     vertex -2.750000e-01 -1.500000e-01 -4.375000e-01
   endloop
 endfacet
 facet normal  1.178384e-15 -1.000000e+00 -2.963456e-16
   outer loop
     vertex -7.369698e-02 -1.500000e-01 -5.784539e-01
     vertex -9.895277e-02 -1.500000e-01 -5.852212e-01
     vertex -1.875000e-01 -1.500000e-01 -7.500000e-01
   endloop
 endfacet
 facet normal  1.180647e-15 -1.000000e+00 -3.163535e-16
   outer loop
     vertex -2.659539e-01 -1.500000e-01 -3.861970e-01
     vertex -4.375000e-01 -1.500000e-01 -5.000000e-01
     vertex -2.727212e-01 -1.500000e-01 -4.114528e-01
   endloop
 endfacet
 facet normal  1.368168e-15 -1.000000e+00 -4.222475e-16
   outer loop
     vertex -5.000000e-02 -1.500000e-01 -5.674038e-01
     vertex -7.369698e-02 -1.500000e-01 -5.784539e-01
     vertex -1.875000e-01 -1.500000e-01 -7.500000e-01
   endloop
 endfacet
 facet normal  1.405596e-15 -1.000000e+00 -6.554402e-16
   outer loop
     vertex -2.549038e-01 -1.500000e-01 -3.625000e-01
     vertex -4.375000e-01 -1.500000e-01 -5.000000e-01
     vertex -2.659539e-01 -1.500000e-01 -3.861970e-01
   endloop
 endfacet
 facet normal -1.349846e-16 -1.000000e+00  1.390408e-15
   outer loop
     vertex -2.399067e-01 -1.500000e-01 -3.410819e-01
     vertex -4.375000e-01 -1.500000e-01 -5.000000e-01
     vertex -2.549038e-01 -1.500000e-01 -3.625000e-01
   endloop
 endfacet
 facet normal  9.325873e-16 -1.000000e+00 -9.424324e-17
   outer loop
     vertex  4.375000e-01 -1.500000e-01 -7.500000e-01
     vertex -5.000000e-02 -1.500000e-01 -5.674038e-01
     vertex -1.875000e-01 -1.500000e-01 -7.500000e-01
   endloop
 endfacet
 facet normal  1.082197e-15 -1.000000e+00  3.051872e-16
   outer loop
     vertex  4.375000e-01 -1.500000e-01 -7.500000e-01
     vertex -2.858186e-02 -1.500000e-01 -5.524067e-01
     vertex -5.000000e-02 -1.500000e-01 -5.674038e-01
   endloop
 endfacet
 facet normal  6.691364e-16 -1.000000e+00 -6.691364e-16
   outer loop
     vertex  4.375000e-01 -1.500000e-01 -7.500000e-01
     vertex -1.009333e-02 -1.500000e-01 -5.339181e-01
     vertex -2.858186e-02 -1.500000e-01 -5.524067e-01
   endloop
 endfacet
 facet normal  1.209072e-15 -1.000000e+00  4.492896e-16
   outer loop
     vertex  4.375000e-01 -1.500000e-01 -7.500000e-01
     vertex  4.903811e-03 -1.500000e-01 -5.125000e-01
     vertex -1.009333e-02 -1.500000e-01 -5.339181e-01
   endloop
 endfacet
 facet normal  7.662428e-16 -1.000000e+00 -3.573049e-16
   outer loop
     vertex  4.375000e-01 -1.500000e-01 -7.500000e-01
     vertex  1.595389e-02 -1.500000e-01 -4.888030e-01
     vertex  4.903811e-03 -1.500000e-01 -5.125000e-01
   endloop
 endfacet
 facet normal  1.430998e-15 -1.000000e+00  7.155438e-16
   outer loop
     vertex  4.375000e-01 -1.500000e-01 -7.500000e-01
     vertex  2.272116e-02 -1.500000e-01 -4.635472e-01
     vertex  1.595389e-02 -1.500000e-01 -4.888030e-01
   endloop
 endfacet
 facet normal  8.834528e-16 -1.000000e+00 -7.729210e-17
   outer loop
     vertex  4.375000e-01 -1.500000e-01 -7.500000e-01
     vertex  2.500000e-02 -1.500000e-01 -4.375000e-01
     vertex  2.272116e-02 -1.500000e-01 -4.635472e-01
   endloop
 endfacet
 facet normal  1.008875e-15 -1.000000e+00  8.826512e-17
   outer loop
     vertex  4.375000e-01 -1.500000e-01 -7.500000e-01
     vertex  2.272116e-02 -1.500000e-01 -4.114528e-01
     vertex  2.500000e-02 -1.500000e-01 -4.375000e-01
   endloop
 endfacet
 facet normal  1.199073e-15 -1.000000e+00  3.212907e-16
   outer loop
     vertex  4.375000e-01 -1.500000e-01 -7.500000e-01
     vertex  1.595389e-02 -1.500000e-01 -3.861970e-01
     vertex  2.272116e-02 -1.500000e-01 -4.114528e-01
   endloop
 endfacet
 facet normal -1.490014e-16 -1.000000e+00 -1.240751e-15
   outer loop
     vertex  4.375000e-01 -1.500000e-01 -7.500000e-01
     vertex  4.903811e-03 -1.500000e-01 -3.625000e-01
     vertex  1.595389e-02 -1.500000e-01 -3.861970e-01
   endloop
 endfacet
 facet normal  9.832772e-16 -1.000000e+00  0.000000e+00
   outer loop
     vertex -2.399067e-01 -1.500000e-01  3.410819e-01
     vertex -4.375000e-01 -1.500000e-01  5.000000e-01
     vertex -4.375000e-01 -1.500000e-01 -5.000000e-01
   endloop
 endfacet
 facet normal  9.832772e-16 -1.000000e+00  5.200929e-31
   outer loop
     vertex -2.399067e-01 -1.500000e-01  3.410819e-01
     vertex -4.375000e-01 -1.500000e-01 -5.000000e-01
     vertex -2.399067e-01 -1.500000e-01 -3.410819e-01
   endloop
 endfacet
 facet normal  1.501233e-15 -1.000000e+00  7.940593e-31
   outer loop
     vertex -2.399067e-01 -1.500000e-01  3.410819e-01
     vertex -2.399067e-01 -1.500000e-01 -3.410819e-01
     vertex -2.214181e-01 -1.500000e-01 -3.225933e-01
   endloop
 endfacet
 facet normal -4.301945e-17 -1.000000e+00 -4.301945e-17
   outer loop
     vertex -2.399067e-01 -1.500000e-01  3.410819e-01
     vertex -2.214181e-01 -1.500000e-01 -3.225933e-01
     vertex -2.214181e-01 -1.500000e-01  3.225933e-01
   endloop
 endfacet
 facet normal -1.349846e-16 -1.000000e+00 -1.390408e-15
   outer loop
     vertex -2.549038e-01 -1.500000e-01  3.625000e-01
     vertex -4.375000e-01 -1.500000e-01  5.000000e-01
     vertex -2.399067e-01 -1.500000e-01  3.410819e-01
   endloop
 endfacet
 facet normal  0.000000e+00 -1.000000e+00 -0.000000e+00
   outer loop
     vertex -2.000000e-01 -1.500000e-01  3.075962e-01
     vertex -2.214181e-01 -1.500000e-01 -3.225933e-01
     vertex -2.000000e-01 -1.500000e-01 -3.075962e-01
   endloop
 endfacet
 facet normal  1.265768e-15 -1.000000e+00 -4.301945e-17
   outer loop
     vertex -2.000000e-01 -1.500000e-01  3.075962e-01
     vertex -2.214181e-01 -1.500000e-01  3.225933e-01
     vertex -2.214181e-01 -1.500000e-01 -3.225933e-01
   endloop
 endfacet
 facet normal  1.405596e-15 -1.000000e+00  6.554402e-16
   outer loop
     vertex -2.659539e-01 -1.500000e-01  3.861970e-01
     vertex -4.375000e-01 -1.500000e-01  5.000000e-01
     vertex -2.549038e-01 -1.500000e-01  3.625000e-01
   endloop
 endfacet
 facet normal  1.171271e-15 -1.000000e+00  9.318247e-31
   outer loop
     vertex -1.763030e-01 -1.500000e-01  2.965461e-01
     vertex -2.000000e-01 -1.500000e-01 -3.075962e-01
     vertex -1.763030e-01 -1.500000e-01 -2.965461e-01
   endloop
 endfacet
 facet normal  1.171271e-15 -1.000000e+00  8.983498e-31
   outer loop
     vertex -1.763030e-01 -1.500000e-01  2.965461e-01
     vertex -2.000000e-01 -1.500000e-01  3.075962e-01
     vertex -2.000000e-01 -1.500000e-01 -3.075962e-01
   endloop
 endfacet
 facet normal  1.180647e-15 -1.000000e+00  3.163535e-16
   outer loop
     vertex -2.727212e-01 -1.500000e-01  4.114528e-01
     vertex -4.375000e-01 -1.500000e-01  5.000000e-01
     vertex -2.659539e-01 -1.500000e-01  3.861970e-01
   endloop
 endfacet
 facet normal  1.098979e-15 -1.000000e+00  8.420982e-31
   outer loop
     vertex -1.510472e-01 -1.500000e-01  2.897788e-01
     vertex -1.763030e-01 -1.500000e-01 -2.965461e-01
     vertex -1.510472e-01 -1.500000e-01 -2.897788e-01
   endloop
 endfacet
 facet normal  1.098979e-15 -1.000000e+00  8.743114e-31
   outer loop
     vertex -1.510472e-01 -1.500000e-01  2.897788e-01
     vertex -1.763030e-01 -1.500000e-01  2.965461e-01
     vertex -1.763030e-01 -1.500000e-01 -2.965461e-01
   endloop
 endfacet
 facet normal  1.060507e-15 -1.000000e+00  9.278232e-17
   outer loop
     vertex -2.750000e-01 -1.500000e-01  4.375000e-01
     vertex -4.375000e-01 -1.500000e-01  5.000000e-01
     vertex -2.727212e-01 -1.500000e-01  4.114528e-01
   endloop
 endfacet
 facet normal  1.069810e-15 -1.000000e+00 -4.827057e-17
   outer loop
     vertex -1.250000e-01 -1.500000e-01  2.875000e-01
     vertex -1.510472e-01 -1.500000e-01 -2.897788e-01
     vertex -1.250000e-01 -1.500000e-01 -2.875000e-01
   endloop
 endfacet
 facet normal -0.000000e+00 -1.000000e+00  0.000000e+00
   outer loop
     vertex -1.250000e-01 -1.500000e-01  2.875000e-01
     vertex -1.510472e-01 -1.500000e-01  2.897788e-01
     vertex -1.510472e-01 -1.500000e-01 -2.897788e-01
   endloop
 endfacet
 facet normal  1.061397e-15 -1.000000e+00 -4.789096e-17
   outer loop
     vertex -9.895277e-02 -1.500000e-01  2.897788e-01
     vertex -1.250000e-01 -1.500000e-01 -2.875000e-01
     vertex -9.895277e-02 -1.500000e-01 -2.897788e-01
   endloop
 endfacet
 facet normal  1.069810e-15 -1.000000e+00 -4.827057e-17
   outer loop
     vertex -9.895277e-02 -1.500000e-01  2.897788e-01
     vertex -1.250000e-01 -1.500000e-01  2.875000e-01
     vertex -1.250000e-01 -1.500000e-01 -2.875000e-01
   endloop
 endfacet
 facet normal  9.914592e-16 -1.000000e+00 -8.674144e-17
   outer loop
     vertex -2.727212e-01 -1.500000e-01  4.635472e-01
     vertex -4.375000e-01 -1.500000e-01  5.000000e-01
     vertex -2.750000e-01 -1.500000e-01  4.375000e-01
   endloop
 endfacet
 facet normal  1.111811e-15 -1.000000e+00 -4.789096e-17
   outer loop
     vertex -7.369698e-02 -1.500000e-01  2.965461e-01
     vertex -9.895277e-02 -1.500000e-01  2.897788e-01
     vertex -9.895277e-02 -1.500000e-01 -2.897788e-01
   endloop
 endfacet
 facet normal  1.086439e-15 -1.000000e+00 -4.679808e-17
   outer loop
     vertex -7.369698e-02 -1.500000e-01  2.965461e-01
     vertex -9.895277e-02 -1.500000e-01 -2.897788e-01
     vertex -7.369698e-02 -1.500000e-01 -2.965461e-01
   endloop
 endfacet
 facet normal  9.540931e-16 -1.000000e+00 -2.556485e-16
   outer loop
     vertex -2.659539e-01 -1.500000e-01  4.888030e-01
     vertex -4.375000e-01 -1.500000e-01  5.000000e-01
     vertex -2.727212e-01 -1.500000e-01  4.635472e-01
   endloop
 endfacet
 facet normal  9.652674e-16 -1.000000e+00 -8.444996e-17
   outer loop
     vertex -2.659539e-01 -1.500000e-01  4.888030e-01
     vertex -4.337019e-01 -1.500000e-01  5.434120e-01
     vertex -4.375000e-01 -1.500000e-01  5.000000e-01
   endloop
 endfacet
 facet normal  1.193093e-15 -1.000000e+00 -4.679808e-17
   outer loop
     vertex -5.000000e-02 -1.500000e-01  3.075962e-01
     vertex -7.369698e-02 -1.500000e-01  2.965461e-01
     vertex -7.369698e-02 -1.500000e-01 -2.965461e-01
   endloop
 endfacet
 facet normal  1.150232e-15 -1.000000e+00 -4.511690e-17
   outer loop
     vertex -5.000000e-02 -1.500000e-01  3.075962e-01
     vertex -7.369698e-02 -1.500000e-01 -2.965461e-01
     vertex -5.000000e-02 -1.500000e-01 -3.075962e-01
   endloop
 endfacet
 facet normal  8.619180e-16 -1.000000e+00 -4.019189e-16
   outer loop
     vertex -2.549038e-01 -1.500000e-01  5.125000e-01
     vertex -4.337019e-01 -1.500000e-01  5.434120e-01
     vertex -2.659539e-01 -1.500000e-01  4.888030e-01
   endloop
 endfacet
 facet normal  6.885116e-16 -1.000000e+00 -3.210582e-16
   outer loop
     vertex -2.549038e-01 -1.500000e-01  5.125000e-01
     vertex -4.040064e-01 -1.500000e-01  6.250000e-01
     vertex -4.224232e-01 -1.500000e-01  5.855050e-01
   endloop
 endfacet
 facet normal  9.991206e-16 -1.000000e+00  3.916736e-16
   outer loop
     vertex -2.549038e-01 -1.500000e-01  5.125000e-01
     vertex -4.224232e-01 -1.500000e-01  5.855050e-01
     vertex -4.337019e-01 -1.500000e-01  5.434120e-01
   endloop
 endfacet
 facet normal  1.327482e-15 -1.000000e+00 -4.511690e-17
   outer loop
     vertex -2.858186e-02 -1.500000e-01  3.225933e-01
     vertex -5.000000e-02 -1.500000e-01  3.075962e-01
     vertex -5.000000e-02 -1.500000e-01 -3.075962e-01
   endloop
 endfacet
 facet normal  0.000000e+00 -1.000000e+00 -0.000000e+00
   outer loop
     vertex -2.858186e-02 -1.500000e-01  3.225933e-01
     vertex -5.000000e-02 -1.500000e-01 -3.075962e-01
     vertex -2.858186e-02 -1.500000e-01 -3.225933e-01
   endloop
 endfacet
 facet normal  1.248775e-15 -1.000000e+00  4.214896e-16
   outer loop
     vertex -2.399067e-01 -1.500000e-01  5.339181e-01
     vertex -4.040064e-01 -1.500000e-01  6.250000e-01
     vertex -2.549038e-01 -1.500000e-01  5.125000e-01
   endloop
 endfacet
 facet normal  1.041588e-15 -1.000000e+00  4.820693e-17
   outer loop
     vertex -2.399067e-01 -1.500000e-01  5.339181e-01
     vertex -3.790111e-01 -1.500000e-01  6.606969e-01
     vertex -4.040064e-01 -1.500000e-01  6.250000e-01
   endloop
 endfacet
 facet normal  1.460545e-15 -1.000000e+00 -4.068756e-17
   outer loop
     vertex -1.009333e-02 -1.500000e-01  3.410819e-01
     vertex -2.858186e-02 -1.500000e-01 -3.225933e-01
     vertex -1.009333e-02 -1.500000e-01 -3.410819e-01
   endloop
 endfacet
 facet normal  0.000000e+00 -1.000000e+00  0.000000e+00
   outer loop
     vertex -1.009333e-02 -1.500000e-01  3.410819e-01
     vertex -2.858186e-02 -1.500000e-01  3.225933e-01
     vertex -2.858186e-02 -1.500000e-01 -3.225933e-01
   endloop
 endfacet
 facet normal  9.514423e-16 -1.000000e+00 -5.070274e-17
   outer loop
     vertex -3.481969e-01 -1.500000e-01  6.915111e-01
     vertex -3.790111e-01 -1.500000e-01  6.606969e-01
     vertex -2.399067e-01 -1.500000e-01  5.339181e-01
   endloop
 endfacet
 facet normal  1.307364e-15 -1.000000e+00  1.938691e-16
   outer loop
     vertex -3.481969e-01 -1.500000e-01  6.915111e-01
     vertex -2.399067e-01 -1.500000e-01  5.339181e-01
     vertex -2.214181e-01 -1.500000e-01  5.524067e-01
   endloop
 endfacet
 facet normal  1.908832e-15 -1.000000e+00 -4.068756e-17
   outer loop
     vertex  4.903811e-03 -1.500000e-01  3.625000e-01
     vertex -1.009333e-02 -1.500000e-01  3.410819e-01
     vertex -1.009333e-02 -1.500000e-01 -3.410819e-01
   endloop
 endfacet
 facet normal  0.000000e+00 -1.000000e+00 -0.000000e+00
   outer loop
     vertex  4.903811e-03 -1.500000e-01  3.625000e-01
     vertex -1.009333e-02 -1.500000e-01 -3.410819e-01
     vertex  4.903811e-03 -1.500000e-01 -3.625000e-01
   endloop
 endfacet
 facet normal  9.010687e-16 -1.000000e+00 -1.764250e-16
   outer loop
     vertex -3.125000e-01 -1.500000e-01  7.165064e-01
     vertex -3.481969e-01 -1.500000e-01  6.915111e-01
     vertex -2.214181e-01 -1.500000e-01  5.524067e-01
   endloop
 endfacet
 facet normal  3.411447e-16 -1.000000e+00 -4.872051e-16
   outer loop
     vertex -3.125000e-01 -1.500000e-01  7.165064e-01
     vertex -2.214181e-01 -1.500000e-01  5.524067e-01
     vertex -2.000000e-01 -1.500000e-01  5.674038e-01
   endloop
 endfacet
 facet normal  1.296562e-15 -1.000000e+00  2.336710e-16
   outer loop
     vertex -2.730050e-01 -1.500000e-01  7.349232e-01
     vertex -3.125000e-01 -1.500000e-01  7.165064e-01
     vertex -2.000000e-01 -1.500000e-01  5.674038e-01
   endloop
 endfacet
 facet normal  6.699466e-16 -1.000000e+00 -3.940845e-17
   outer loop
     vertex -2.309120e-01 -1.500000e-01  7.462019e-01
     vertex -2.730050e-01 -1.500000e-01  7.349232e-01
     vertex -2.000000e-01 -1.500000e-01  5.674038e-01
   endloop
 endfacet
 facet normal  1.150875e-15 -1.000000e+00  4.373831e-17
   outer loop
     vertex -2.309120e-01 -1.500000e-01  7.462019e-01
     vertex -2.000000e-01 -1.500000e-01  5.674038e-01
     vertex -1.763030e-01 -1.500000e-01  5.784539e-01
   endloop
 endfacet
 facet normal  1.271443e-15 -1.000000e+00  8.298833e-17
   outer loop
     vertex -1.875000e-01 -1.500000e-01  7.500000e-01
     vertex -2.309120e-01 -1.500000e-01  7.462019e-01
     vertex -1.763030e-01 -1.500000e-01  5.784539e-01
   endloop
 endfacet
 facet normal  1.258928e-15 -1.000000e+00  1.879815e-16
   outer loop
     vertex -1.875000e-01 -1.500000e-01  7.500000e-01
     vertex -7.369698e-02 -1.500000e-01  5.784539e-01
     vertex -5.000000e-02 -1.500000e-01  5.674038e-01
   endloop
 endfacet
 facet normal  1.125659e-15 -1.000000e+00  9.957111e-17
   outer loop
     vertex -1.875000e-01 -1.500000e-01  7.500000e-01
     vertex -9.895277e-02 -1.500000e-01  5.852212e-01
     vertex -7.369698e-02 -1.500000e-01  5.784539e-01
   endloop
 endfacet
 facet normal  1.071764e-15 -1.000000e+00  7.060990e-17
   outer loop
     vertex -1.875000e-01 -1.500000e-01  7.500000e-01
     vertex -1.250000e-01 -1.500000e-01  5.875000e-01
     vertex -9.895277e-02 -1.500000e-01  5.852212e-01
   endloop
 endfacet
 facet normal  1.059811e-15 -1.000000e+00  6.601262e-17
   outer loop
     vertex -1.875000e-01 -1.500000e-01  7.500000e-01
     vertex -1.510472e-01 -1.500000e-01  5.852212e-01
     vertex -1.250000e-01 -1.500000e-01  5.875000e-01
   endloop
 endfacet
 facet normal  1.080089e-15 -1.000000e+00  7.049841e-17
   outer loop
     vertex -1.875000e-01 -1.500000e-01  7.500000e-01
     vertex -1.763030e-01 -1.500000e-01  5.784539e-01
     vertex -1.510472e-01 -1.500000e-01  5.852212e-01
   endloop
 endfacet
 facet normal  9.624071e-16 -1.000000e+00  3.144052e-31
   outer loop
     vertex  4.375000e-01 -1.500000e-01  7.500000e-01
     vertex  4.903811e-03 -1.500000e-01  3.625000e-01
     vertex  4.903811e-03 -1.500000e-01 -3.625000e-01
   endloop
 endfacet
 facet normal  9.624071e-16 -1.000000e+00  0.000000e+00
   outer loop
     vertex  4.375000e-01 -1.500000e-01  7.500000e-01
     vertex  4.903811e-03 -1.500000e-01 -3.625000e-01
     vertex  4.375000e-01 -1.500000e-01 -7.500000e-01
   endloop
 endfacet
 facet normal  9.325873e-16 -1.000000e+00 -5.776199e-17
   outer loop
     vertex  4.375000e-01 -1.500000e-01  7.500000e-01
     vertex -1.875000e-01 -1.500000e-01  7.500000e-01
     vertex -5.000000e-02 -1.500000e-01  5.674038e-01
   endloop
 endfacet
 facet normal  1.652761e-15 -1.000000e+00 -7.706949e-16
   outer loop
     vertex  4.375000e-01 -1.500000e-01  7.500000e-01
     vertex  1.595389e-02 -1.500000e-01  3.861970e-01
     vertex  4.903811e-03 -1.500000e-01  3.625000e-01
   endloop
 endfacet
 facet normal  5.098334e-17 -1.000000e+00  1.085318e-15
   outer loop
     vertex  4.375000e-01 -1.500000e-01  7.500000e-01
     vertex  2.272116e-02 -1.500000e-01  4.114528e-01
     vertex  1.595389e-02 -1.500000e-01  3.861970e-01
   endloop
 endfacet
 facet normal  1.008875e-15 -1.000000e+00 -8.826512e-17
   outer loop
     vertex  4.375000e-01 -1.500000e-01  7.500000e-01
     vertex  2.500000e-02 -1.500000e-01  4.375000e-01
     vertex  2.272116e-02 -1.500000e-01  4.114528e-01
   endloop
 endfacet
 facet normal  8.834528e-16 -1.000000e+00  7.729210e-17
   outer loop
     vertex  4.375000e-01 -1.500000e-01  7.500000e-01
     vertex  2.272116e-02 -1.500000e-01  4.635472e-01
     vertex  2.500000e-02 -1.500000e-01  4.375000e-01
   endloop
 endfacet
 facet normal  7.905422e-16 -1.000000e+00  2.118251e-16
   outer loop
     vertex  4.375000e-01 -1.500000e-01  7.500000e-01
     vertex  1.595389e-02 -1.500000e-01  4.888030e-01
     vertex  2.272116e-02 -1.500000e-01  4.635472e-01
   endloop
 endfacet
 facet normal  1.278214e-15 -1.000000e+00 -5.752295e-16
   outer loop
     vertex  4.375000e-01 -1.500000e-01  7.500000e-01
     vertex  4.903811e-03 -1.500000e-01  5.125000e-01
     vertex  1.595389e-02 -1.500000e-01  4.888030e-01
   endloop
 endfacet
 facet normal  6.951691e-16 -1.000000e+00  4.867626e-16
   outer loop
     vertex  4.375000e-01 -1.500000e-01  7.500000e-01
     vertex -1.009333e-02 -1.500000e-01  5.339181e-01
     vertex  4.903811e-03 -1.500000e-01  5.125000e-01
   endloop
 endfacet
 facet normal  1.116092e-15 -1.000000e+00 -3.851403e-16
   outer loop
     vertex  4.375000e-01 -1.500000e-01  7.500000e-01
     vertex -2.858186e-02 -1.500000e-01  5.524067e-01
     vertex -1.009333e-02 -1.500000e-01  5.339181e-01
   endloop
 endfacet
 facet normal  5.934844e-16 -1.000000e+00  8.475836e-16
   outer loop
     vertex  4.375000e-01 -1.500000e-01  7.500000e-01
     vertex -5.000000e-02 -1.500000e-01  5.674038e-01
     vertex -2.858186e-02 -1.500000e-01  5.524067e-01
   endloop
 endfacet
endsolid
