solid 
 facet normal -6.123234e-17 -6.123234e-17 -1.000000e+00
   outer loop
     vertex  1.909091e-01  1.812511e-16 -1.168981e-17
     vertex  1.618314e-17 -1.704545e-02  1.043733e-18
     vertex  0.000000e+00  0.000000e+00  0.000000e+00
   endloop
 endfacet
 facet normal -6.123234e-17 -6.123234e-17 -1.000000e+00
   outer loop
     vertex  1.909091e-01  1.812511e-16 -1.168981e-17
     vertex  1.909091e-01 -1.704545e-02 -1.064608e-17
     vertex  1.618314e-17 -1.704545e-02  1.043733e-18
   endloop
 endfacet
 facet normal  1.000000e+00  1.628327e-15  0.000000e+00
   outer loop
     vertex  1.909091e-01  1.812511e-16  7.500000e-01
     vertex  1.909091e-01 -1.704545e-02 -1.064608e-17
     vertex  1.909091e-01  1.812511e-16 -1.168981e-17
   endloop
 endfacet
 facet normal  1.000000e+00  1.628327e-15  0.000000e+00
   outer loop
     vertex  1.909091e-01  1.812511e-16  7.500000e-01
     vertex  1.909091e-01 -1.704545e-02  7.500000e-01
     vertex  1.909091e-01 -1.704545e-02 -1.064608e-17
   endloop
 endfacet
 facet normal -0.000000e+00  0.000000e+00  1.000000e+00
   outer loop
     vertex  0.000000e+00  0.000000e+00  7.500000e-01
     vertex  1.909091e-01 -1.704545e-02  7.500000e-01
     vertex  1.909091e-01  1.812511e-16  7.500000e-01
   endloop
 endfacet
 facet normal  0.000000e+00  0.000000e+00  1.000000e+00
   outer loop
     vertex  0.000000e+00  0.000000e+00  7.500000e-01
     vertex  1.618314e-17 -1.704545e-02  7.500000e-01
     vertex  1.909091e-01 -1.704545e-02  7.500000e-01
   endloop
 endfacet
 facet normal -1.000000e+00 -9.494108e-16  0.000000e+00
   outer loop
     vertex  0.000000e+00  0.000000e+00  0.000000e+00
     vertex  1.618314e-17 -1.704545e-02  7.500000e-01
     vertex  0.000000e+00  0.000000e+00  7.500000e-01
   endloop
 endfacet
 facet normal -1.000000e+00 -9.494108e-16  0.000000e+00
   outer loop
     vertex  0.000000e+00  0.000000e+00  0.000000e+00
     vertex  1.618314e-17 -1.704545e-02  1.043733e-18
     vertex  1.618314e-17 -1.704545e-02  7.500000e-01
   endloop
 endfacet
 facet normal -9.494108e-16  1.000000e+00  0.000000e+00
   outer loop
     vertex  1.909091e-01  1.812511e-16  7.500000e-01
     vertex  1.909091e-01  1.812511e-16 -1.168981e-17
     vertex  0.000000e+00  0.000000e+00  0.000000e+00
   endloop
 endfacet
 facet normal -9.494108e-16  1.000000e+00  0.000000e+00
   outer loop
     vertex  1.909091e-01  1.812511e-16  7.500000e-01
     vertex  0.000000e+00  0.000000e+00  0.000000e+00
     vertex  0.000000e+00  0.000000e+00  7.500000e-01
   endloop
 endfacet
 facet normal  9.450113e-16 -1.000000e+00  0.000000e+00
   outer loop
     vertex  1.909091e-01 -1.704545e-02  7.500000e-01
     vertex  1.618314e-17 -1.704545e-02  1.043733e-18
     vertex  1.909091e-01 -1.704545e-02 -1.064608e-17
   endloop
 endfacet
 facet normal  9.450113e-16 -1.000000e+00  0.000000e+00
   outer loop
     vertex  1.909091e-01 -1.704545e-02  7.500000e-01
     vertex  1.618314e-17 -1.704545e-02  7.500000e-01
     vertex  1.618314e-17 -1.704545e-02  1.043733e-18
   endloop
 endfacet
endsolid
