solid 
 facet normal  0.000000e+00 -1.000000e+00  0.000000e+00
   outer loop
     vertex  1.617053e-01  5.469300e-02  3.348980e-18
     vertex -1.382947e-01  5.469300e-02  7.500000e-01
     vertex -1.382947e-01  5.469300e-02  3.348980e-18
   endloop
 endfacet
 facet normal  0.000000e+00 -1.000000e+00  0.000000e+00
   outer loop
     vertex  1.617053e-01  5.469300e-02  3.348980e-18
     vertex  1.617053e-01  5.469300e-02  7.500000e-01
     vertex -1.382947e-01  5.469300e-02  7.500000e-01
   endloop
 endfacet
 facet normal  9.805807e-01  1.961161e-01  0.000000e+00
   outer loop
     vertex  1.242053e-01  2.421930e-01  1.483004e-17
     vertex  1.617053e-01  5.469300e-02  7.500000e-01
     vertex  1.617053e-01  5.469300e-02  3.348980e-18
   endloop
 endfacet
 facet normal  9.805807e-01  1.961161e-01 -0.000000e+00
   outer loop
     vertex  1.242053e-01  2.421930e-01  1.483004e-17
     vertex  1.242053e-01  2.421930e-01  7.500000e-01
     vertex  1.617053e-01  5.469300e-02  7.500000e-01
   endloop
 endfacet
 facet normal  0.000000e+00  1.000000e+00  0.000000e+00
   outer loop
     vertex -1.007947e-01  2.421930e-01  1.483004e-17
     vertex  1.242053e-01  2.421930e-01  7.500000e-01
     vertex  1.242053e-01  2.421930e-01  1.483004e-17
   endloop
 endfacet
 facet normal  0.000000e+00  1.000000e+00  0.000000e+00
   outer loop
     vertex -1.007947e-01  2.421930e-01  1.483004e-17
     vertex -1.007947e-01  2.421930e-01  7.500000e-01
     vertex  1.242053e-01  2.421930e-01  7.500000e-01
   endloop
 endfacet
 facet normal -9.805807e-01  1.961161e-01  0.000000e+00
   outer loop
     vertex -1.382947e-01  5.469300e-02  3.348980e-18
     vertex -1.007947e-01  2.421930e-01  7.500000e-01
     vertex -1.007947e-01  2.421930e-01  1.483004e-17
   endloop
 endfacet
 facet normal -9.805807e-01  1.961161e-01  0.000000e+00
   outer loop
     vertex -1.382947e-01  5.469300e-02  3.348980e-18
     vertex -1.382947e-01  5.469300e-02  7.500000e-01
     vertex -1.007947e-01  2.421930e-01  7.500000e-01
   endloop
 endfacet
 facet normal  0.000000e+00  6.123234e-17 -1.000000e+00
   outer loop
     vertex  1.242053e-01  2.421930e-01  1.483004e-17
     vertex  1.617053e-01  5.469300e-02  3.348980e-18
     vertex -1.382947e-01  5.469300e-02  3.348980e-18
   endloop
 endfacet
 facet normal  0.000000e+00  6.123234e-17 -1.000000e+00
   outer loop
     vertex  1.242053e-01  2.421930e-01  1.483004e-17
     vertex -1.382947e-01  5.469300e-02  3.348980e-18
     vertex -1.007947e-01  2.421930e-01  1.483004e-17
   endloop
 endfacet
 facet normal  0.000000e+00  0.000000e+00  1.000000e+00
   outer loop
     vertex  1.242053e-01  2.421930e-01  7.500000e-01
     vertex -1.382947e-01  5.469300e-02  7.500000e-01
     vertex  1.617053e-01  5.469300e-02  7.500000e-01
   endloop
 endfacet
 facet normal  0.000000e+00  0.000000e+00  1.000000e+00
   outer loop
     vertex  1.242053e-01  2.421930e-01  7.500000e-01
     vertex -1.007947e-01  2.421930e-01  7.500000e-01
     vertex -1.382947e-01  5.469300e-02  7.500000e-01
   endloop
 endfacet
endsolid
