solid 
 facet normal  0.000000e+00 -1.000000e+00  0.000000e+00
   outer loop
     vertex  0.000000e+00  0.000000e+00  0.000000e+00
     vertex -3.325251e-01  0.000000e+00  1.108417e-02
     vertex -3.325251e-01  0.000000e+00  0.000000e+00
   endloop
 endfacet
 facet normal  0.000000e+00 -1.000000e+00  0.000000e+00
   outer loop
     vertex  0.000000e+00  0.000000e+00  0.000000e+00
     vertex  0.000000e+00  0.000000e+00  1.108417e-02
     vertex -3.325251e-01  0.000000e+00  1.108417e-02
   endloop
 endfacet
 facet normal  0.000000e+00 -1.000000e+00  0.000000e+00
   outer loop
     vertex  2.955779e-01  0.000000e+00  0.000000e+00
     vertex  0.000000e+00  0.000000e+00  1.108417e-02
     vertex  0.000000e+00  0.000000e+00  0.000000e+00
   endloop
 endfacet
 facet normal  0.000000e+00 -1.000000e+00  0.000000e+00
   outer loop
     vertex  2.955779e-01  0.000000e+00  0.000000e+00
     vertex  2.955779e-01  0.000000e+00  1.108417e-02
     vertex  0.000000e+00  0.000000e+00  1.108417e-02
   endloop
 endfacet
 facet normal  9.687904e-01  2.478814e-01  0.000000e+00
   outer loop
     vertex  1.108417e-01  7.220009e-01  4.420981e-17
     vertex  2.955779e-01  0.000000e+00  1.108417e-02
     vertex  2.955779e-01  0.000000e+00  0.000000e+00
   endloop
 endfacet
 facet normal  9.687904e-01  2.478814e-01 -0.000000e+00
   outer loop
     vertex  1.108417e-01  7.220009e-01  4.420981e-17
     vertex  1.108417e-01  7.220009e-01  1.108417e-02
     vertex  2.955779e-01  0.000000e+00  1.108417e-02
   endloop
 endfacet
 facet normal  0.000000e+00  1.000000e+00  0.000000e+00
   outer loop
     vertex -1.293153e-01  7.220009e-01  4.420981e-17
     vertex  1.108417e-01  7.220009e-01  1.108417e-02
     vertex  1.108417e-01  7.220009e-01  4.420981e-17
   endloop
 endfacet
 facet normal  0.000000e+00  1.000000e+00  0.000000e+00
   outer loop
     vertex -1.293153e-01  7.220009e-01  4.420981e-17
     vertex -1.293153e-01  7.220009e-01  1.108417e-02
     vertex  1.108417e-01  7.220009e-01  1.108417e-02
   endloop
 endfacet
 facet normal -9.625998e-01  2.709272e-01  0.000000e+00
   outer loop
     vertex -3.325251e-01  0.000000e+00  0.000000e+00
     vertex -1.293153e-01  7.220009e-01  1.108417e-02
     vertex -1.293153e-01  7.220009e-01  4.420981e-17
   endloop
 endfacet
 facet normal -9.625998e-01  2.709272e-01  0.000000e+00
   outer loop
     vertex -3.325251e-01  0.000000e+00  0.000000e+00
     vertex -3.325251e-01  0.000000e+00  1.108417e-02
     vertex -1.293153e-01  7.220009e-01  1.108417e-02
   endloop
 endfacet
 facet normal  0.000000e+00  6.123234e-17 -1.000000e+00
   outer loop
     vertex -1.293153e-01  7.220009e-01  4.420981e-17
     vertex  0.000000e+00  0.000000e+00  0.000000e+00
     vertex -3.325251e-01  0.000000e+00  0.000000e+00
   endloop
 endfacet
 facet normal  0.000000e+00  6.123234e-17 -1.000000e+00
   outer loop
     vertex  1.108417e-01  7.220009e-01  4.420981e-17
     vertex  2.955779e-01  0.000000e+00  0.000000e+00
     vertex  0.000000e+00  0.000000e+00  0.000000e+00
   endloop
 endfacet
 facet normal  0.000000e+00  6.123234e-17 -1.000000e+00
   outer loop
     vertex  1.108417e-01  7.220009e-01  4.420981e-17
     vertex  0.000000e+00  0.000000e+00  0.000000e+00
     vertex -1.293153e-01  7.220009e-01  4.420981e-17
   endloop
 endfacet
 facet normal  0.000000e+00 -6.006652e-17  1.000000e+00
   outer loop
     vertex -1.293153e-01  7.220009e-01  1.108417e-02
     vertex -3.325251e-01  0.000000e+00  1.108417e-02
     vertex  0.000000e+00  0.000000e+00  1.108417e-02
   endloop
 endfacet
 facet normal  0.000000e+00 -6.006652e-17  1.000000e+00
   outer loop
     vertex  1.108417e-01  7.220009e-01  1.108417e-02
     vertex  0.000000e+00  0.000000e+00  1.108417e-02
     vertex  2.955779e-01  0.000000e+00  1.108417e-02
   endloop
 endfacet
 facet normal  0.000000e+00 -6.006652e-17  1.000000e+00
   outer loop
     vertex  1.108417e-01  7.220009e-01  1.108417e-02
     vertex -1.293153e-01  7.220009e-01  1.108417e-02
     vertex  0.000000e+00  0.000000e+00  1.108417e-02
   endloop
 endfacet
endsolid
