solid 
 facet normal  0.000000e+00  0.000000e+00 -1.000000e+00
   outer loop
     vertex -6.857143e-01 -6.510245e-16 -5.357143e-01
     vertex -7.500000e-01 -3.214286e-01 -5.357143e-01
     vertex -7.500000e-01 -7.120581e-16 -5.357143e-01
   endloop
 endfacet
 facet normal  0.000000e+00 -0.000000e+00 -1.000000e+00
   outer loop
     vertex -6.857143e-01 -6.510245e-16 -5.357143e-01
     vertex -6.857143e-01 -3.214286e-01 -5.357143e-01
     vertex -7.500000e-01 -3.214286e-01 -5.357143e-01
   endloop
 endfacet
 facet normal  1.000000e+00  1.036208e-15  0.000000e+00
   outer loop
     vertex -6.857143e-01 -6.510245e-16 -6.428571e-02
     vertex -6.857143e-01 -3.214286e-01 -5.357143e-01
     vertex -6.857143e-01 -6.510245e-16 -5.357143e-01
   endloop
 endfacet
 facet normal  1.000000e+00  1.036208e-15  0.000000e+00
   outer loop
     vertex -6.857143e-01 -6.510245e-16 -6.428571e-02
     vertex -6.857143e-01 -3.214286e-01 -6.428571e-02
     vertex -6.857143e-01 -3.214286e-01 -5.357143e-01
   endloop
 endfacet
 facet normal -8.095376e-17 -4.317534e-17 -1.000000e+00
   outer loop
     vertex  0.000000e+00  0.000000e+00 -6.428571e-02
     vertex -6.857143e-01 -3.214286e-01 -6.428571e-02
     vertex -6.857143e-01 -6.510245e-16 -6.428571e-02
   endloop
 endfacet
 facet normal -8.095376e-17 -4.317534e-17 -1.000000e+00
   outer loop
     vertex  0.000000e+00  0.000000e+00 -6.428571e-02
     vertex  3.051677e-16 -3.214286e-01 -6.428571e-02
     vertex -6.857143e-01 -3.214286e-01 -6.428571e-02
   endloop
 endfacet
 facet normal -8.095376e-17 -4.317534e-17 -1.000000e+00
   outer loop
     vertex  6.857143e-01  6.510245e-16 -6.428571e-02
     vertex  3.051677e-16 -3.214286e-01 -6.428571e-02
     vertex  0.000000e+00  0.000000e+00 -6.428571e-02
   endloop
 endfacet
 facet normal -8.095376e-17 -4.317534e-17 -1.000000e+00
   outer loop
     vertex  6.857143e-01  6.510245e-16 -6.428571e-02
     vertex  6.857143e-01 -3.214286e-01 -6.428571e-02
     vertex  3.051677e-16 -3.214286e-01 -6.428571e-02
   endloop
 endfacet
 facet normal -1.000000e+00 -1.036208e-15  0.000000e+00
   outer loop
     vertex  6.857143e-01  6.510245e-16 -5.357143e-01
     vertex  6.857143e-01 -3.214286e-01 -6.428571e-02
     vertex  6.857143e-01  6.510245e-16 -6.428571e-02
   endloop
 endfacet
 facet normal -1.000000e+00 -1.036208e-15  0.000000e+00
   outer loop
     vertex  6.857143e-01  6.510245e-16 -5.357143e-01
     vertex  6.857143e-01 -3.214286e-01 -5.357143e-01
     vertex  6.857143e-01 -3.214286e-01 -6.428571e-02
   endloop
 endfacet
 facet normal  0.000000e+00  0.000000e+00 -1.000000e+00
   outer loop
     vertex  7.500000e-01  7.120581e-16 -5.357143e-01
     vertex  6.857143e-01 -3.214286e-01 -5.357143e-01
     vertex  6.857143e-01  6.510245e-16 -5.357143e-01
   endloop
 endfacet
 facet normal  0.000000e+00 -0.000000e+00 -1.000000e+00
   outer loop
     vertex  7.500000e-01  7.120581e-16 -5.357143e-01
     vertex  7.500000e-01 -3.214286e-01 -5.357143e-01
     vertex  6.857143e-01 -3.214286e-01 -5.357143e-01
   endloop
 endfacet
 facet normal  1.000000e+00  1.036208e-15  0.000000e+00
   outer loop
     vertex  7.500000e-01  7.120581e-16  3.330669e-16
     vertex  7.500000e-01 -3.214286e-01 -5.357143e-01
     vertex  7.500000e-01  7.120581e-16 -5.357143e-01
   endloop
 endfacet
 facet normal  1.000000e+00  1.036208e-15  0.000000e+00
   outer loop
     vertex  7.500000e-01  7.120581e-16  3.330669e-16
     vertex  7.500000e-01 -3.214286e-01  3.527487e-16
     vertex  7.500000e-01 -3.214286e-01 -5.357143e-01
   endloop
 endfacet
 facet normal  1.480297e-16  6.123234e-17  1.000000e+00
   outer loop
     vertex  0.000000e+00  0.000000e+00  4.440892e-16
     vertex  7.500000e-01 -3.214286e-01  3.527487e-16
     vertex  7.500000e-01  7.120581e-16  3.330669e-16
   endloop
 endfacet
 facet normal  1.480297e-16  6.123234e-17  1.000000e+00
   outer loop
     vertex  0.000000e+00  0.000000e+00  4.440892e-16
     vertex  3.051677e-16 -3.214286e-01  4.637710e-16
     vertex  7.500000e-01 -3.214286e-01  3.527487e-16
   endloop
 endfacet
 facet normal -5.813464e-32  6.123234e-17  1.000000e+00
   outer loop
     vertex -7.500000e-01 -7.120581e-16  4.440892e-16
     vertex  3.051677e-16 -3.214286e-01  4.637710e-16
     vertex  0.000000e+00  0.000000e+00  4.440892e-16
   endloop
 endfacet
 facet normal -5.752111e-32  6.123234e-17  1.000000e+00
   outer loop
     vertex -7.500000e-01 -7.120581e-16  4.440892e-16
     vertex -7.500000e-01 -3.214286e-01  4.637710e-16
     vertex  3.051677e-16 -3.214286e-01  4.637710e-16
   endloop
 endfacet
 facet normal -1.000000e+00 -1.036208e-15  0.000000e+00
   outer loop
     vertex -7.500000e-01 -7.120581e-16 -5.357143e-01
     vertex -7.500000e-01 -3.214286e-01  4.637710e-16
     vertex -7.500000e-01 -7.120581e-16  4.440892e-16
   endloop
 endfacet
 facet normal -1.000000e+00 -1.036208e-15  0.000000e+00
   outer loop
     vertex -7.500000e-01 -7.120581e-16 -5.357143e-01
     vertex -7.500000e-01 -3.214286e-01 -5.357143e-01
     vertex -7.500000e-01 -3.214286e-01  4.637710e-16
   endloop
 endfacet
 facet normal -9.494108e-16  1.000000e+00  0.000000e+00
   outer loop
     vertex -6.857143e-01 -6.510245e-16 -6.428571e-02
     vertex -6.857143e-01 -6.510245e-16 -5.357143e-01
     vertex -7.500000e-01 -7.120581e-16 -5.357143e-01
   endloop
 endfacet
 facet normal -9.494108e-16  1.000000e+00  0.000000e+00
   outer loop
     vertex -7.500000e-01 -7.120581e-16  4.440892e-16
     vertex -6.857143e-01 -6.510245e-16 -6.428571e-02
     vertex -7.500000e-01 -7.120581e-16 -5.357143e-01
   endloop
 endfacet
 facet normal -9.494108e-16  1.000000e+00  0.000000e+00
   outer loop
     vertex  0.000000e+00  0.000000e+00  4.440892e-16
     vertex  0.000000e+00  0.000000e+00 -6.428571e-02
     vertex -6.857143e-01 -6.510245e-16 -6.428571e-02
   endloop
 endfacet
 facet normal -9.494108e-16  1.000000e+00 -2.045195e-30
   outer loop
     vertex  0.000000e+00  0.000000e+00  4.440892e-16
     vertex -6.857143e-01 -6.510245e-16 -6.428571e-02
     vertex -7.500000e-01 -7.120581e-16  4.440892e-16
   endloop
 endfacet
 facet normal -9.494108e-16  1.000000e+00  0.000000e+00
   outer loop
     vertex  6.857143e-01  6.510245e-16 -6.428571e-02
     vertex  7.500000e-01  7.120581e-16 -5.357143e-01
     vertex  6.857143e-01  6.510245e-16 -5.357143e-01
   endloop
 endfacet
 facet normal -9.494108e-16  1.000000e+00  0.000000e+00
   outer loop
     vertex  6.857143e-01  6.510245e-16 -6.428571e-02
     vertex  0.000000e+00  0.000000e+00 -6.428571e-02
     vertex  0.000000e+00  0.000000e+00  4.440892e-16
   endloop
 endfacet
 facet normal -9.494108e-16  1.000000e+00  0.000000e+00
   outer loop
     vertex  7.500000e-01  7.120581e-16  3.330669e-16
     vertex  7.500000e-01  7.120581e-16 -5.357143e-01
     vertex  6.857143e-01  6.510245e-16 -6.428571e-02
   endloop
 endfacet
 facet normal -9.494108e-16  1.000000e+00  5.112987e-31
   outer loop
     vertex  7.500000e-01  7.120581e-16  3.330669e-16
     vertex  6.857143e-01  6.510245e-16 -6.428571e-02
     vertex  0.000000e+00  0.000000e+00  4.440892e-16
   endloop
 endfacet
 facet normal  8.635068e-16 -1.000000e+00  0.000000e+00
   outer loop
     vertex -6.857143e-01 -3.214286e-01 -6.428571e-02
     vertex -7.500000e-01 -3.214286e-01 -5.357143e-01
     vertex -6.857143e-01 -3.214286e-01 -5.357143e-01
   endloop
 endfacet
 facet normal  8.635068e-16 -1.000000e+00  0.000000e+00
   outer loop
     vertex -7.500000e-01 -3.214286e-01  4.637710e-16
     vertex -7.500000e-01 -3.214286e-01 -5.357143e-01
     vertex -6.857143e-01 -3.214286e-01 -6.428571e-02
   endloop
 endfacet
 facet normal  9.714451e-16 -1.000000e+00  0.000000e+00
   outer loop
     vertex  3.051677e-16 -3.214286e-01  4.637710e-16
     vertex -6.857143e-01 -3.214286e-01 -6.428571e-02
     vertex  3.051677e-16 -3.214286e-01 -6.428571e-02
   endloop
 endfacet
 facet normal  9.621933e-16 -1.000000e+00  9.868649e-17
   outer loop
     vertex  3.051677e-16 -3.214286e-01  4.637710e-16
     vertex -7.500000e-01 -3.214286e-01  4.637710e-16
     vertex -6.857143e-01 -3.214286e-01 -6.428571e-02
   endloop
 endfacet
 facet normal  8.635068e-16 -1.000000e+00  0.000000e+00
   outer loop
     vertex  6.857143e-01 -3.214286e-01 -6.428571e-02
     vertex  6.857143e-01 -3.214286e-01 -5.357143e-01
     vertex  7.500000e-01 -3.214286e-01 -5.357143e-01
   endloop
 endfacet
 facet normal  9.714451e-16 -1.000000e+00  0.000000e+00
   outer loop
     vertex  6.857143e-01 -3.214286e-01 -6.428571e-02
     vertex  3.051677e-16 -3.214286e-01  4.637710e-16
     vertex  3.051677e-16 -3.214286e-01 -6.428571e-02
   endloop
 endfacet
 facet normal  8.635068e-16 -1.000000e+00  0.000000e+00
   outer loop
     vertex  7.500000e-01 -3.214286e-01  3.527487e-16
     vertex  6.857143e-01 -3.214286e-01 -6.428571e-02
     vertex  7.500000e-01 -3.214286e-01 -5.357143e-01
   endloop
 endfacet
 facet normal  9.621933e-16 -1.000000e+00 -9.868649e-17
   outer loop
     vertex  7.500000e-01 -3.214286e-01  3.527487e-16
     vertex  3.051677e-16 -3.214286e-01  4.637710e-16
     vertex  6.857143e-01 -3.214286e-01 -6.428571e-02
   endloop
 endfacet
endsolid
