solid 
 facet normal  6.123234e-17 -6.123234e-17 -1.000000e+00
   outer loop
     vertex  1.951428e-33  5.204641e-01 -3.186923e-17
     vertex  7.500000e-01 -5.204641e-01  7.779349e-17
     vertex -1.951428e-33 -5.204641e-01  3.186923e-17
   endloop
 endfacet
 facet normal  6.123234e-17 -6.123234e-17 -1.000000e+00
   outer loop
     vertex  1.951428e-33  5.204641e-01 -3.186923e-17
     vertex  7.500000e-01  5.204641e-01  1.405502e-17
     vertex  7.500000e-01 -5.204641e-01  7.779349e-17
   endloop
 endfacet
 facet normal -5.299830e-17  6.666667e-01  7.453560e-01
   outer loop
     vertex  0.000000e+00  0.000000e+00  4.655172e-01
     vertex  7.500000e-01  5.204641e-01  1.405502e-17
     vertex  1.951428e-33  5.204641e-01 -3.186923e-17
   endloop
 endfacet
 facet normal -5.516743e-17  6.666667e-01  7.453560e-01
   outer loop
     vertex  0.000000e+00  0.000000e+00  4.655172e-01
     vertex  7.500000e-01  0.000000e+00  4.655172e-01
     vertex  7.500000e-01  5.204641e-01  1.405502e-17
   endloop
 endfacet
 facet normal -5.299830e-17 -6.666667e-01  7.453560e-01
   outer loop
     vertex -1.951428e-33 -5.204641e-01  3.186923e-17
     vertex  7.500000e-01  0.000000e+00  4.655172e-01
     vertex  0.000000e+00  0.000000e+00  4.655172e-01
   endloop
 endfacet
 facet normal -4.563989e-17 -6.666667e-01  7.453560e-01
   outer loop
     vertex -1.951428e-33 -5.204641e-01  3.186923e-17
     vertex  7.500000e-01 -5.204641e-01  7.779349e-17
     vertex  7.500000e-01  0.000000e+00  4.655172e-01
   endloop
 endfacet
 facet normal -1.000000e+00  3.749399e-33  0.000000e+00
   outer loop
     vertex  1.951428e-33  5.204641e-01 -3.186923e-17
     vertex -1.951428e-33 -5.204641e-01  3.186923e-17
     vertex  0.000000e+00  0.000000e+00  4.655172e-01
   endloop
 endfacet
 facet normal  1.000000e+00  0.000000e+00  0.000000e+00
   outer loop
     vertex  7.500000e-01  5.204641e-01  1.405502e-17
     vertex  7.500000e-01  0.000000e+00  4.655172e-01
     vertex  7.500000e-01 -5.204641e-01  7.779349e-17
   endloop
 endfacet
endsolid
